<svg width="328" height="378" viewBox="0 0 328 378" fill="none" xmlns="http://www.w3.org/2000/svg">
<g clip-path="url(#clip0)">
<path d="M164.18 0.49292L327.85 94.9881V283.978L164.18 378.474L0.509354 283.978V94.9881L164.18 0.49292Z" fill="#7038E4"/>
<mask id="mask0" mask-type="alpha" maskUnits="userSpaceOnUse" x="0" y="0" width="328" height="379">
<path d="M164.18 0.49292L327.85 94.9881V283.978L164.18 378.474L0.509354 283.978V94.9881L164.18 0.49292Z" fill="#7E3FF1"/>
</mask>
<g mask="url(#mask0)">
<path opacity="0.35" d="M-178.609 421.278C-178.33 420.332 -177.358 419.83 -176.455 419.858L-169.004 368.199C-169.004 368.199 -169.131 368.213 -169.145 368.084C-170.345 367.697 -170.884 366.322 -170.507 365.103C-170.213 364.286 -169.495 363.813 -168.748 363.597L-171.04 307.556C-171.294 307.585 -171.435 307.47 -171.576 307.355C-172.776 306.969 -173.316 305.593 -172.938 304.375C-172.561 303.156 -171.208 302.611 -170.008 302.997C-169.74 303.098 -169.457 303.327 -169.175 303.556L-137.956 279.378C-138.282 278.762 -138.354 278.117 -138.173 277.443C-137.795 276.225 -136.442 275.679 -135.243 276.066C-134.974 276.166 -134.833 276.281 -134.565 276.381L-114.798 257.811C-115.251 257.21 -115.337 256.436 -115.043 255.619C-114.847 255.074 -114.51 254.644 -114.017 254.457L-127.299 218.472C-127.68 218.515 -128.187 218.573 -128.597 218.358C-129.797 217.971 -130.337 216.596 -129.959 215.377C-129.552 214.417 -128.595 213.786 -127.678 213.943L-121.448 185.804C-122.648 185.418 -123.187 184.042 -122.81 182.824C-122.432 181.605 -121.079 181.06 -119.88 181.447C-119.216 181.633 -118.763 182.234 -118.579 182.736L-84.5246 174.696C-84.568 174.309 -84.47 174.036 -84.3864 173.635C-84.0088 172.417 -82.6564 171.871 -81.4565 172.258C-80.2566 172.644 -79.717 174.02 -80.0946 175.239C-80.0946 175.239 -80.0802 175.368 -80.2071 175.382L-19.2759 213.412L-19.1634 213.268L-18.9933 213.641L-18.0183 214.314L-18.7941 214.272L-3.78045 254.241C-3.39976 254.198 -2.89216 254.14 -2.48258 254.355C-1.55096 254.641 -1.06914 255.501 -0.968027 256.404L32.1163 260.361C32.1018 260.232 32.1019 260.232 32.2143 260.088C32.5919 258.87 33.9444 258.325 35.1443 258.711C36.2172 259.112 36.728 260.23 36.5898 261.291L125.567 243.367C125.538 243.109 125.621 242.708 125.719 242.435C126.097 241.217 127.45 240.672 128.649 241.058C129.849 241.445 130.389 242.82 130.011 244.039C129.801 244.455 129.59 244.87 129.224 245.042L163.549 312.867C164.042 312.681 164.55 312.623 165.086 312.824C165.623 313.024 165.92 313.382 166.217 313.741L195.038 300.284C194.854 299.783 194.923 299.252 195.133 298.837C195.511 297.618 196.863 297.073 198.063 297.46C198.868 297.76 199.462 298.477 199.563 299.38L228.505 299.626C228.491 299.497 228.603 299.354 228.575 299.096C228.952 297.877 230.305 297.332 231.505 297.718C232.704 298.105 233.244 299.481 232.866 300.699C232.881 300.828 232.754 300.842 232.768 300.971L275.373 331.412C275.935 330.695 276.936 330.451 277.882 330.866C279.081 331.253 279.621 332.629 279.243 333.847C278.949 334.664 278.358 335.123 277.611 335.339L279.581 365.552C279.835 365.523 280.103 365.623 280.371 365.724C281.444 366.125 282.082 367.228 281.831 368.432L299.489 373.485C300.109 373.284 300.899 373.455 301.464 373.914L327.979 346.742C327.823 346.498 327.681 346.384 327.653 346.126C327.269 344.993 327.886 343.617 328.999 343.23C329.858 342.871 330.79 343.157 331.384 343.874L336.918 340.503L367.504 322.144C367.12 321.012 367.751 319.765 368.85 319.249C369.963 318.861 371.319 319.491 371.702 320.623C371.873 320.996 371.902 321.254 371.818 321.655L406.452 330.27C406.648 329.725 407.098 329.152 407.845 328.936L403.616 308.384L452.191 298.045C452.075 297.013 452.735 296.024 453.736 295.78C454.229 295.593 454.751 295.665 455.273 295.736L468.492 270.332C468.083 270.117 467.785 269.759 467.728 269.243C467.344 268.111 467.961 266.735 469.074 266.347C469.567 266.161 470.216 266.218 470.626 266.433L493.832 225.789C493.549 225.56 493.252 225.202 493.068 224.7C492.684 223.568 493.301 222.192 494.414 221.804C495.527 221.417 496.883 222.047 497.267 223.179C497.451 223.681 497.368 224.082 497.299 224.612L525.441 237.228C525.652 236.813 526.13 236.497 526.624 236.311C527.61 235.938 528.683 236.338 529.306 237.313L596.419 207.76L596.575 208.003C596.362 207.244 596.402 206.455 596.852 205.882L576.177 185.365C575.938 185.523 575.825 185.666 575.572 185.695C574.458 186.082 573.103 185.452 572.719 184.32C572.335 183.188 572.952 181.812 574.065 181.424C574.812 181.209 575.461 181.266 576.027 181.724L616.816 133.993C616.66 133.749 616.504 133.506 616.476 133.248C616.121 132.374 616.4 131.427 617.104 130.825L601.208 109.375C601.081 109.389 601.081 109.389 600.969 109.533C599.856 109.92 598.5 109.29 598.116 108.158C597.733 107.026 598.349 105.649 599.463 105.262C600.083 105.061 600.732 105.118 601.283 105.448L648.925 46.6195C648.77 46.3759 648.487 46.1467 648.444 45.7597C648.06 44.6276 648.677 43.2513 649.79 42.8639C650.903 42.4764 652.259 43.1065 652.643 44.2387C652.998 45.1129 652.606 46.2024 651.902 46.8046L678.606 91.3269L678.733 91.3125C679.846 90.9251 681.201 91.5552 681.585 92.6874C681.799 93.4469 681.646 94.3786 681.196 94.9521L718.103 136.489C718.216 136.346 718.47 136.317 718.582 136.173C719.695 135.786 721.051 136.416 721.435 137.548C721.819 138.68 721.202 140.057 720.089 140.444C719.722 140.616 719.468 140.645 719.073 140.559L710.304 179.305C710.968 179.491 711.406 179.964 711.62 180.724C712.004 181.856 711.387 183.232 710.273 183.62C710.02 183.648 709.78 183.806 709.512 183.706L706.114 210.739C706.777 210.926 707.357 211.513 707.683 212.129C707.868 212.631 707.813 213.29 707.603 213.706L740.572 232.698C740.797 232.412 741.148 232.11 741.642 231.924C742.755 231.536 744.11 232.167 744.494 233.299C744.864 234.302 744.472 235.391 743.627 235.879L756.515 261.458C757.628 261.071 758.857 261.715 759.382 262.962C759.766 264.094 759.149 265.471 758.036 265.858C757.415 266.059 756.767 266.002 756.216 265.672L735.389 294.29C735.672 294.519 735.842 294.892 735.998 295.135C736.382 296.267 735.765 297.644 734.652 298.031C733.538 298.419 732.183 297.788 731.799 296.656L731.784 296.527L661.362 306.861L661.391 307.119L661.109 306.89L659.966 307.019L660.558 306.561L624.029 285.62C623.804 285.907 623.453 286.208 622.959 286.395C622.1 286.753 621.168 286.467 620.574 285.751L592.697 304.194C592.711 304.323 592.711 304.323 592.853 304.438C593.237 305.57 592.62 306.946 591.506 307.334C590.393 307.721 589.306 307.191 588.81 306.203L531.905 377.576C532.061 377.82 532.344 378.049 532.387 378.436C532.771 379.568 532.154 380.944 531.041 381.332C529.928 381.719 528.572 381.089 528.188 379.957C528.003 379.455 528.087 379.054 528.171 378.652L459.194 349.111C458.984 349.527 458.52 349.971 458.027 350.158C457.533 350.344 457.011 350.273 456.616 350.187L443.026 379.16C443.436 379.375 443.747 379.862 443.932 380.363C444.316 381.496 443.699 382.872 442.586 383.259C441.712 383.489 440.921 383.317 440.342 382.73L418.135 401.315C418.276 401.429 418.29 401.558 418.319 401.816C418.703 402.948 418.086 404.325 416.973 404.712C415.86 405.099 414.504 404.469 414.12 403.337C414.106 403.208 414.106 403.208 414.092 403.079L362.398 407.371C362.372 408.289 361.824 409.135 360.95 409.364C359.837 409.752 358.481 409.122 358.098 407.989C357.884 407.23 358.051 406.427 358.501 405.854L338.048 383.875C337.809 384.033 337.697 384.176 337.316 384.219C336.203 384.607 335.115 384.077 334.619 383.088L306.262 396.099L306.277 396.228C306.66 397.361 306.043 398.737 304.93 399.124C304.183 399.34 303.393 399.168 302.828 398.71C302.404 398.366 302.092 397.878 301.907 397.377L263.962 400.503C263.991 400.76 263.893 401.033 263.78 401.176C263.403 402.395 262.05 402.94 260.85 402.553C260.045 402.253 259.437 401.407 259.336 400.504L252.93 399.532L217.711 393.727C217.192 394.831 215.981 395.491 214.893 394.961C213.693 394.575 213.154 393.199 213.531 391.98C213.615 391.579 213.84 391.292 214.079 391.134L192.691 361.947C192.085 362.276 191.451 362.348 190.773 362.033L181.034 380.642L136.868 356.909C136.32 357.755 135.207 358.143 134.261 357.727C133.725 357.527 133.301 357.183 133.116 356.682L106.841 367.628C107.026 368.13 106.942 368.531 106.746 369.076C106.368 370.295 105.016 370.84 103.816 370.453C103.279 370.253 102.856 369.909 102.671 369.407L58.9912 385.593C59.0345 385.98 59.0923 386.496 58.8818 386.912C58.5042 388.13 57.1517 388.675 55.9519 388.289C54.752 387.902 54.2124 386.526 54.59 385.308C54.8005 384.892 55.0109 384.476 55.4896 384.161L41.6925 356.203C41.1994 356.389 40.6773 356.318 40.1553 356.246C39.0823 355.845 38.586 354.857 38.7243 353.796L-31.8798 332.669L-31.7818 332.396C-32.0903 333.084 -32.667 333.672 -33.4283 333.759L-30.4031 363.069C-30.1493 363.04 -29.8811 363.14 -29.6128 363.24C-28.413 363.627 -27.8734 365.003 -28.251 366.221C-28.6286 367.439 -29.9811 367.985 -31.1809 367.598C-31.8588 367.283 -32.2973 366.81 -32.5109 366.051L-94.2173 376.181C-94.1884 376.439 -94.2864 376.711 -94.3844 376.983C-94.6784 377.8 -95.5089 378.417 -96.3972 378.518L-97.6235 405.436C-97.4966 405.421 -97.4822 405.55 -97.3553 405.536C-96.1554 405.923 -95.6159 407.298 -95.9935 408.517C-96.3711 409.735 -97.7236 410.28 -98.9235 409.894C-99.5868 409.708 -100.025 409.235 -100.224 408.605L-174.064 422.853C-174.035 423.111 -174.118 423.512 -174.216 423.785C-174.594 425.003 -175.946 425.548 -177.146 425.162C-178.462 423.743 -179.114 422.511 -178.609 421.278ZM-169.898 307.426C-170.137 307.584 -170.391 307.613 -170.518 307.627L-168.226 363.669C-167.972 363.64 -167.831 363.755 -167.689 363.869C-167.421 363.97 -167.138 364.199 -166.856 364.428L-142.673 346.273L-169.898 307.426ZM-111.089 257.652C-111.187 257.925 -111.397 258.34 -111.637 258.498L-98.5277 276.868L-109.985 253.739L-111.476 255.345C-110.896 255.932 -110.795 256.835 -111.089 257.652ZM-113.676 303.405C-113.549 303.39 -113.407 303.505 -113.266 303.62L-98.1202 281.655C-98.5442 281.311 -98.7433 280.681 -98.8011 280.165L-113.386 279.597L-113.944 303.305C-113.944 303.305 -113.803 303.419 -113.676 303.405ZM-115.117 307.748L-125.963 329.095L-113.214 307.532C-113.692 307.848 -114.454 307.934 -115.117 307.748ZM-112.132 305.712L-101.012 286.816L-112.715 303.949C-112.404 304.436 -112.078 305.052 -112.132 305.712ZM-98.8733 279.52C-98.8877 279.391 -98.7753 279.247 -98.7898 279.118C-98.7062 278.717 -98.4813 278.43 -98.2419 278.273L-112.115 258.814C-112.355 258.971 -112.608 259 -112.989 259.043L-113.458 278.952L-98.8733 279.52ZM-97.397 277.785C-97.0307 277.613 -96.5231 277.555 -96.1135 277.77L-70.5789 210.867L-70.6078 210.609L-70.7492 210.494L-109.394 253.28L-97.397 277.785ZM-95.577 277.97C-95.4357 278.085 -95.2944 278.2 -95.153 278.314L-58.1673 248.257L-69.281 210.981C-69.5348 211.01 -69.9155 211.053 -70.1837 210.953L-95.577 277.97ZM-51.1215 277.895C-51.4186 277.537 -51.5888 277.164 -51.6322 276.777L-94.4433 280.063C-94.4144 280.321 -94.5268 280.464 -94.6248 280.736C-94.6248 280.736 -94.6104 280.865 -94.7373 280.88L-67.9089 297.825L-51.1215 277.895ZM-81.5302 315.045C-81.3744 315.288 -81.2186 315.532 -81.0628 315.775L-53.8469 308.641C-53.8902 308.254 -53.8066 307.852 -53.7086 307.58C-53.7086 307.58 -53.7231 307.451 -53.5962 307.437L-67.5685 298.57L-81.5302 315.045ZM-5.525 255.875L-45.1267 240.77C-45.3372 241.186 -45.689 241.487 -46.0553 241.659L-35.1768 269.948L-5.52194 257.051C-5.56528 256.664 -5.60857 256.277 -5.525 255.875ZM-46.5484 241.845C-46.6753 241.86 -46.8021 241.874 -46.929 241.889L-48.988 273.996C-48.8611 273.981 -48.7198 274.096 -48.5929 274.081C-48.0564 274.282 -47.6323 274.626 -47.4477 275.127L-35.6843 270.006L-46.5484 241.845ZM-47.5635 241.961C-47.6904 241.975 -47.8318 241.86 -47.9587 241.875C-48.227 241.774 -48.5096 241.545 -48.7779 241.445L-57.4894 248.572L-49.8618 274.225C-49.7349 274.211 -49.7349 274.211 -49.608 274.197L-47.5635 241.961ZM-57.8412 248.873L-94.7146 278.787C-94.5588 279.031 -94.5299 279.289 -94.3741 279.532L-51.5631 276.247C-51.5919 275.989 -51.4795 275.846 -51.3815 275.573C-51.1855 275.029 -50.7212 274.584 -50.2425 274.268L-57.8412 248.873ZM-57.5761 247.798L-48.9769 240.814C-49.303 240.198 -49.3752 239.553 -49.1936 238.88C-49.0956 238.607 -48.8707 238.32 -48.6458 238.034L-54.1242 230.425L-68.4071 210.751L-68.5341 210.766L-57.5761 247.798ZM-48.1671 237.718C-47.5615 237.388 -46.9271 237.316 -46.2492 237.631C-45.3032 238.047 -44.68 239.021 -44.8182 240.082L-37.3355 232.31L-67.816 210.292C-67.816 210.292 -67.8161 210.292 -67.9285 210.436L-48.1671 237.718ZM-44.3942 240.426L-5.32905 255.331L-36.9259 232.525L-44.3942 240.426ZM-5.21038 257.538L-34.8508 270.564L-22.111 303.998C-21.7303 303.955 -21.4766 303.926 -21.0814 304.012L-4.33345 258.484C-4.75748 258.14 -5.04014 257.91 -5.21038 257.538ZM-35.4708 270.765L-47.234 275.887C-47.1907 276.274 -47.133 276.79 -47.3434 277.206C-47.4414 277.478 -47.5539 277.621 -47.6519 277.894L-22.9705 304.357C-22.8436 304.343 -22.858 304.214 -22.7311 304.199L-35.4708 270.765ZM-48.2575 278.224C-48.3844 278.238 -48.4968 278.381 -48.6237 278.396L-40.5081 307.259L-23.9536 305.905C-23.9825 305.647 -23.87 305.504 -23.772 305.232C-23.674 304.959 -23.5615 304.816 -23.4635 304.544L-48.2575 278.224ZM-40.8166 307.948L-49.3476 308.653C-49.3332 308.782 -49.4457 308.926 -49.4313 309.055C-49.5293 309.327 -49.7542 309.614 -49.9791 309.901L-35.1193 328.986C-34.9924 328.972 -35.0069 328.843 -34.88 328.829L-40.8166 307.948ZM-49.4054 308.137L-41.0013 307.446L-49.1169 278.582C-49.2438 278.597 -49.3707 278.611 -49.6245 278.64L-51.1738 306.117C-51.0469 306.103 -51.0468 306.103 -50.9055 306.217C-49.9739 306.504 -49.5065 307.234 -49.4054 308.137ZM-50.1465 278.568C-50.4148 278.468 -50.5561 278.354 -50.683 278.368L-67.3581 298.154L-53.4001 306.892C-52.9503 306.318 -52.3303 306.118 -51.6958 306.046L-50.1465 278.568ZM-53.6622 309.142L-80.8781 316.277C-80.8348 316.664 -80.9184 317.065 -81.0164 317.338C-81.1288 317.481 -81.1144 317.61 -81.2124 317.882L-67.0316 330.906L-53.0534 309.988C-53.3361 309.759 -53.6188 309.529 -53.6622 309.142ZM-68.1194 298.241L-94.8063 281.41C-95.0312 281.697 -95.2707 281.855 -95.51 282.012L-83.5348 314.357C-83.1541 314.314 -82.6465 314.257 -82.2369 314.472C-82.0956 314.586 -81.9686 314.572 -81.8273 314.686L-68.1194 298.241ZM-96.13 282.213C-96.5107 282.256 -97.0183 282.314 -97.4279 282.099L-97.5548 282.113L-128.964 335.574C-128.681 335.804 -128.54 335.918 -128.384 336.162L-85.3886 317.311C-85.5733 316.809 -85.4898 316.408 -85.2938 315.863C-85.0978 315.318 -84.7604 314.888 -84.2673 314.702L-96.13 282.213ZM-85.0771 317.798L-128.073 336.649C-127.888 337.151 -127.957 337.681 -128.168 338.097C-128.266 338.369 -128.364 338.642 -128.603 338.799L-117.102 351.995L-84.9213 318.042C-85.0626 317.927 -85.0771 317.798 -85.0771 317.798ZM-131.341 364.844C-131.355 364.715 -131.257 364.442 -131.272 364.313C-131.188 363.912 -130.963 363.625 -130.724 363.467L-142.362 346.76L-166.544 364.915C-166.388 365.159 -166.359 365.417 -166.331 365.675L-131.341 364.844ZM-164.609 366.133L-99.8906 374.864L-127.092 366.06C-127.611 367.164 -128.837 367.695 -129.91 367.294C-130.714 366.993 -131.182 366.263 -131.395 365.503L-164.609 366.133ZM-130.245 363.152C-130.006 362.994 -129.752 362.965 -129.625 362.951L-130.688 339.689C-130.815 339.703 -131.083 339.603 -131.21 339.617C-131.478 339.517 -131.761 339.288 -132.044 339.059L-141.995 346.588L-130.245 363.152ZM-128.991 362.879C-128.737 362.85 -128.595 362.965 -128.327 363.065C-128.059 363.165 -127.918 363.28 -127.776 363.395L-117.439 352.426L-128.94 339.229C-129.18 339.387 -129.546 339.559 -129.927 339.602L-128.991 362.879ZM-117.142 352.784L-127.494 363.624C-127.055 364.097 -126.983 364.742 -127.038 365.401L-98.9042 374.491C-98.7918 374.348 -98.6937 374.075 -98.5813 373.932L-117.142 352.784ZM-98.9012 375.666L-166.229 366.578C-166.215 366.707 -166.215 366.707 -166.327 366.85C-166.327 366.85 -166.327 366.85 -166.313 366.979L-124.373 391.486L-98.6731 376.555C-98.8434 376.182 -98.8723 375.924 -98.9012 375.666ZM-169.307 306.967C-169.433 306.982 -169.433 306.982 -169.307 306.967L-142.194 345.957L-132.243 338.428C-132.569 337.812 -132.641 337.167 -132.333 336.479C-132.347 336.35 -132.235 336.206 -132.122 336.063L-169.307 306.967ZM-168.969 306.537L-131.77 335.762C-131.418 335.461 -131.052 335.289 -130.686 335.117L-133.584 305.792L-168.548 305.706C-168.534 305.835 -168.632 306.107 -168.617 306.236C-168.871 306.265 -168.984 306.408 -168.969 306.537ZM-136.909 280.696C-137.177 280.596 -137.46 280.367 -137.742 280.137L-168.976 304.187C-168.82 304.43 -168.791 304.688 -168.747 305.075L-133.783 305.161L-136.26 280.753C-136.387 280.768 -136.655 280.667 -136.909 280.696ZM-130.178 335.059C-129.925 335.03 -129.783 335.145 -129.529 335.116L-115.527 307.533C-116.078 307.204 -116.53 306.602 -116.617 305.828L-133.077 305.735L-130.178 335.059ZM-135.005 280.48C-135.245 280.638 -135.498 280.667 -135.611 280.81L-133.12 305.348L-116.534 305.427C-116.548 305.298 -116.45 305.026 -116.464 304.897C-116.366 304.624 -116.141 304.337 -116.029 304.194L-135.005 280.48ZM-134.541 280.036L-115.579 303.62C-115.213 303.448 -114.974 303.291 -114.593 303.247L-114.035 279.54L-133.91 278.789C-133.895 278.918 -134.008 279.061 -133.993 279.19C-134.204 279.606 -134.302 279.878 -134.541 280.036ZM-113.906 258.886C-114.175 258.786 -114.316 258.671 -114.599 258.442L-134.366 277.011C-134.195 277.384 -134.025 277.757 -133.982 278.144L-114.107 278.895L-113.638 258.986C-113.638 258.986 -113.765 259.001 -113.906 258.886ZM-113.622 254.543C-113.241 254.5 -112.733 254.442 -112.324 254.657C-112.182 254.772 -111.914 254.872 -111.773 254.987L-110.17 253.237L-125.782 221.696L-113.622 254.543ZM-109.847 252.678L-71.3 210.165C-71.4558 209.921 -71.626 209.549 -71.7818 209.305L-125.837 216.608C-125.808 216.866 -125.906 217.139 -126.004 217.411C-126.215 217.827 -126.425 218.242 -126.904 218.558L-109.847 252.678ZM-71.6725 207.986L-102.359 193.307L-126.25 215.218C-126.094 215.462 -125.938 215.705 -125.909 215.963L-71.854 208.66C-71.756 208.388 -71.7705 208.259 -71.6725 207.986ZM-121.136 186.292L-127.366 214.43C-127.098 214.53 -126.957 214.645 -126.674 214.874L-102.896 193.107L-118.924 185.388C-119.501 185.976 -120.233 186.32 -121.136 186.292ZM-84.4524 175.341L-118.717 183.797C-118.688 184.055 -118.772 184.456 -118.87 184.728L-102.573 192.548L-84.2822 175.713C-84.2967 175.584 -84.438 175.47 -84.4524 175.341ZM-83.1514 176.63C-83.4197 176.53 -83.561 176.415 -83.8437 176.186L-101.895 192.863L-71.8861 207.227L-81.9949 176.63C-82.3612 176.802 -82.7563 176.716 -83.1514 176.63ZM-80.6568 175.955C-80.8817 176.242 -81.1211 176.4 -81.3605 176.558L-71.2516 207.155C-70.6893 206.438 -69.6886 206.194 -68.757 206.48C-67.8254 206.767 -67.3436 207.626 -67.2424 208.529L-20.4469 213.283L-80.6568 175.955ZM-67.424 209.203C-67.4096 209.332 -67.5364 209.346 -67.522 209.475C-67.5076 209.604 -67.6345 209.619 -67.6201 209.748L-37.0126 231.751L-19.9795 214.014L-67.424 209.203ZM-19.4286 214.344L-36.5886 232.095L-5.13304 254.786C-4.89369 254.628 -4.78121 254.485 -4.54186 254.327L-19.4286 214.344ZM-2.41551 258.397C-2.90866 258.583 -3.41619 258.641 -3.93823 258.569L-20.6862 304.098C-20.5449 304.213 -20.2767 304.313 -20.1354 304.428L11.0803 279.074L-2.41551 258.397ZM-19.4255 306.176L8.77893 310.164L17.1315 311.307L32.0168 313.408C32.2272 312.992 32.4377 312.576 32.804 312.404L11.3919 279.561L-19.8382 304.786C-19.5266 305.273 -19.3419 305.775 -19.4255 306.176ZM31.9202 260.905L-1.16403 256.949C-1.14959 257.078 -1.14963 257.078 -1.26209 257.221C-1.34565 257.622 -1.57053 257.909 -1.92233 258.21L11.5735 278.887L32.3185 262.167C32.1483 261.794 31.9636 261.292 31.9202 260.905ZM33.4492 263.084C33.181 262.983 32.8983 262.754 32.6301 262.654L11.8851 279.375L33.2971 312.218C33.5509 312.189 33.6634 312.045 33.9172 312.017L33.9501 303.13L33.8444 263.169C33.7176 263.184 33.5761 263.069 33.4492 263.084ZM34.4934 263.226L34.5557 302.8L34.5806 312.203C34.7075 312.188 34.8488 312.303 34.9757 312.289C35.3853 312.503 35.668 312.733 35.9651 313.091L53.5709 303.91L34.874 263.183C34.7471 263.198 34.6203 263.212 34.4934 263.226ZM115.538 285.783C115.411 285.797 115.284 285.811 115.157 285.826L112.298 308.488L110.322 324.126C110.449 324.112 110.449 324.112 110.591 324.226C111.254 324.412 111.707 325.014 111.906 325.645L125.72 322.772L115.538 285.783ZM126.34 322.572L162.131 315.118C162.102 314.86 162.185 314.459 162.283 314.186C162.283 314.186 162.269 314.057 162.396 314.043L116.989 284.965C116.764 285.252 116.398 285.424 116.158 285.582L126.34 322.572ZM111.747 308.158L114.65 285.883C114.523 285.898 114.523 285.898 114.382 285.783C114.113 285.683 113.831 285.454 113.548 285.225L86.2858 306.864L108.194 324.628C108.658 324.184 109.151 323.997 109.786 323.926L111.747 308.158ZM73.4896 294.729C73.5329 295.116 73.4349 295.389 73.3513 295.79C73.2389 295.933 73.2533 296.062 73.1408 296.206L85.8618 306.52L113.236 284.737C113.222 284.608 113.081 284.494 113.066 284.365L73.4896 294.729ZM112.951 283.333L91.0591 277.193L73.1058 293.597C73.2471 293.712 73.276 293.97 73.4173 294.084L113.008 283.849C112.867 283.734 112.965 283.462 112.951 283.333ZM72.8035 296.636C72.3392 297.08 71.5923 297.296 70.9434 297.239L64.1706 322.826C64.312 322.941 64.4678 323.184 64.4967 323.442L85.2706 306.979L72.8035 296.636ZM85.8215 307.309L64.6957 324.073C64.7102 324.202 64.7246 324.331 64.7391 324.46L107.45 326.019C107.436 325.89 107.548 325.747 107.534 325.618C107.646 325.474 107.632 325.345 107.744 325.202L85.8215 307.309ZM107.508 326.535L79.1281 325.572L64.6845 325.119C64.6845 325.119 64.6845 325.119 64.6989 325.248C64.6009 325.52 64.4885 325.664 64.376 325.807L87.9525 350.436L108.062 328.04C107.736 327.424 107.566 327.051 107.508 326.535ZM70.407 297.038C69.9974 296.823 69.7147 296.594 69.4176 296.236L54.3611 304.082L62.5323 321.967C62.7861 321.938 63.0543 322.038 63.3226 322.138C63.4639 322.253 63.5908 322.239 63.7321 322.353L70.407 297.038ZM53.7555 304.412L36.2622 313.449C36.4325 313.822 36.4758 314.209 36.3922 314.61L60.4906 323.243C60.8135 322.684 61.2777 322.239 61.8978 322.039L53.7555 304.412ZM60.309 323.917L36.3375 315.269C36.1415 315.814 35.6773 316.259 35.1841 316.445L44.9701 347.601L60.9208 325.938C60.4679 325.336 60.1275 324.591 60.309 323.917ZM35.719 262.696C35.5921 262.71 35.6066 262.839 35.4797 262.853L54.1764 303.581L69.2328 295.734C69.0482 295.233 68.9904 294.717 69.1864 294.172C69.2989 294.029 69.2844 293.9 69.3969 293.756L35.719 262.696ZM36.1544 261.993C36.1688 262.122 36.0419 262.136 36.0564 262.265L69.7198 293.197C70.2965 292.609 71.1847 292.509 71.9895 292.809C72.2577 292.909 72.526 293.01 72.6818 293.253L90.2688 277.021L36.1544 261.993ZM125.512 244.026L37.6771 261.82L90.9869 276.548L125.824 244.513C125.682 244.399 125.526 244.155 125.512 244.026ZM126.135 245.001L91.5233 276.748L113.132 282.659C113.539 281.699 114.623 281.053 115.555 281.339L126.686 245.33C126.418 245.23 126.277 245.115 126.135 245.001ZM128.365 245.401C127.998 245.573 127.618 245.616 127.223 245.531L116.091 281.54C117.178 282.07 117.704 283.317 117.312 284.406C117.312 284.406 117.326 284.535 117.199 284.549L162.606 313.627C162.719 313.484 162.831 313.341 163.071 313.183L128.365 245.401ZM166.448 315.804C166.365 316.206 166.013 316.507 165.788 316.794L172.744 328.415L196.085 311.922C196.07 311.793 195.914 311.55 195.9 311.421L166.615 315.002C166.644 315.26 166.546 315.532 166.448 315.804ZM196.495 301.817C195.959 301.617 195.662 301.259 195.364 300.901L166.543 314.357L166.558 314.486L195.842 310.905C195.813 310.647 195.911 310.375 196.009 310.102C196.303 309.285 196.895 308.826 197.641 308.611L197.159 302.004C196.89 301.903 196.637 301.932 196.495 301.817ZM198.75 301.301C198.399 301.602 198.032 301.774 197.666 301.946L198.149 308.553C198.403 308.525 198.544 308.639 198.812 308.739C199.349 308.94 199.787 309.413 200.099 309.9L206.539 307.733L198.75 301.301ZM200.16 311.591C200.174 311.72 200.174 311.72 200.16 311.591L247.401 340.984L207.09 308.062L200.284 310.401C200.327 310.788 200.37 311.175 200.16 311.591ZM231.892 332.161L199.851 312.279C199.626 312.566 199.275 312.867 198.908 313.039L207.849 355.003L248.905 344.079C248.861 343.692 248.945 343.291 249.043 343.018C249.043 343.018 249.028 342.889 249.155 342.875L231.892 332.161ZM228.451 300.285L199.509 300.039C199.523 300.168 199.411 300.311 199.44 300.569C199.327 300.713 199.342 300.842 199.229 300.985L207.3 307.647L228.48 300.543C228.451 300.285 228.451 300.285 228.451 300.285ZM231.361 302.176C230.868 302.363 230.346 302.291 229.81 302.091C229.273 301.89 228.835 301.417 228.523 300.93L207.71 307.861L249.449 342.058C249.562 341.914 249.689 341.9 249.801 341.757L231.361 302.176ZM250.421 341.556C250.914 341.369 251.436 341.441 251.973 341.641C252.509 341.842 252.933 342.185 253.118 342.687L259.021 340.32L232.336 302.849L250.421 341.556ZM277.173 367.001C277.159 366.872 277.286 366.857 277.271 366.728L252.645 345.353C252.406 345.511 252.167 345.669 251.801 345.841L257.381 376.168L277.205 368.434C277.035 368.061 276.977 367.545 277.173 367.001ZM253.193 344.507C253.081 344.651 253.095 344.78 252.983 344.923L277.594 366.169L259.304 340.549L253.288 343.06C253.346 343.576 253.404 344.092 253.193 344.507ZM232.319 301.545L232.206 301.688L259.5 340.004L274.73 333.706C274.56 333.333 274.629 332.803 274.825 332.258C274.81 332.129 274.937 332.115 274.923 331.986L232.319 301.545ZM276.835 335.296C276.582 335.325 276.44 335.21 276.172 335.11C275.636 334.909 275.212 334.566 275.027 334.064L259.924 340.348L278.073 365.854C278.312 365.696 278.552 365.538 278.805 365.509L276.835 335.296ZM281.465 368.604C281.367 368.877 281.269 369.149 281.03 369.307L294.654 385.397L300.783 382.743L299.712 377.77C298.696 377.885 297.722 377.212 297.479 376.194C297.11 375.191 297.516 374.231 298.22 373.628L281.226 368.762L281.465 368.604ZM301.403 382.542L311.701 378.109C311.687 377.98 311.672 377.851 311.658 377.722L301.837 376.092C301.655 376.766 301.079 377.354 300.459 377.555L301.403 382.542ZM301.693 374.802C301.721 375.06 301.877 375.304 301.779 375.576L309.639 376.906L301.693 374.802ZM312.339 379.213C312.197 379.098 312.041 378.854 311.9 378.74L301.602 383.173L303.874 394.28C304.128 394.251 304.269 394.366 304.537 394.466L309.827 384.331L312.339 379.213ZM303.239 394.352L300.996 383.503L295.107 385.999L302.507 394.696C302.732 394.41 302.985 394.381 303.239 394.352ZM328.417 347.215L301.479 374.043L311.571 376.948L311.557 376.819C311.949 375.73 313.047 375.213 314.091 375.356L328.417 347.215ZM367.688 322.646L359.268 327.781L331.823 344.347C331.837 344.476 331.979 344.59 331.993 344.719C332.207 345.479 332.152 346.138 331.716 346.841L347.619 360.322L367.985 323.004C367.971 322.875 367.83 322.761 367.688 322.646ZM368.551 323.463L348.043 360.665L371.466 380.479C371.705 380.321 371.945 380.163 372.311 379.991C372.438 379.977 372.565 379.962 372.692 379.948L369.355 323.763C368.946 323.548 368.692 323.577 368.551 323.463ZM394.76 378.491L431.797 372.987C431.754 372.6 431.964 372.184 432.048 371.783L398.89 345.366L374.413 380.406C374.696 380.635 374.866 381.008 375.037 381.38L375.051 381.509L394.76 378.491ZM377.379 381.637L428.814 380.771L432.619 374.592C432.337 374.363 432.04 374.004 431.869 373.632L431.855 373.503L377.379 381.637ZM373.676 384.147C373.183 384.334 372.661 384.262 372.124 384.062L369.163 389.753L412.972 401.116L374.717 383.115C374.521 383.659 374.169 383.961 373.676 384.147ZM371.588 383.861C371.178 383.646 370.881 383.288 370.823 382.772C370.809 382.643 370.78 382.385 370.765 382.256L338.593 381.854L368.641 389.682L371.588 383.861ZM371.089 323.175C370.849 323.333 370.61 323.49 370.356 323.519C370.102 323.548 369.863 323.706 369.722 323.591L373.043 379.647C373.297 379.618 373.692 379.704 373.975 379.933L398.466 345.022L371.089 323.175ZM406.513 331.961C406.343 331.589 406.314 331.331 406.397 330.929L371.763 322.315C371.651 322.458 371.665 322.587 371.553 322.73L398.916 344.448L407.107 332.678C406.839 332.577 406.542 332.219 406.513 331.961ZM407.546 333.15L399.354 344.921L432.512 371.338L432.624 371.195L424.607 358.126L409.492 333.322C409.366 333.336 409.366 333.336 409.239 333.35C408.746 333.537 408.097 333.48 407.546 333.15ZM455.015 347.364L442.451 343.041L434.894 370.807C435.036 370.921 435.162 370.907 435.304 371.022L455.486 349.27C455.33 349.027 455.174 348.783 455.145 348.525C454.975 348.152 454.931 347.765 455.015 347.364ZM441.915 342.84L410.631 332.017C410.533 332.289 410.309 332.576 410.084 332.863L425.213 357.796L433.089 370.75L433.216 370.736C433.582 370.564 433.963 370.521 434.231 370.621L441.915 342.84ZM452.39 298.675L404.322 308.957L408.352 328.879C408.987 328.807 409.665 329.122 410.103 329.595L452.433 299.062C452.419 298.933 452.404 298.804 452.39 298.675ZM452.872 299.535L410.542 330.068C410.556 330.197 410.697 330.311 410.712 330.44C410.882 330.813 410.925 331.2 410.842 331.601L442.111 342.295L453.564 299.979C453.296 299.879 453.013 299.65 452.872 299.535ZM470.707 270.604C470.58 270.618 470.58 270.618 470.453 270.633C469.96 270.819 469.438 270.748 468.916 270.676L455.697 296.08C456.107 296.295 456.404 296.653 456.462 297.169C456.618 297.412 456.661 297.799 456.563 298.072L489.524 303.218C489.607 302.817 489.945 302.387 490.296 302.086L470.707 270.604ZM530.96 276.184L548.344 284.533L556.067 266.284C555.658 266.069 555.375 265.84 555.205 265.467L531.407 274.435C531.465 274.951 531.41 275.61 530.96 276.184ZM530.623 276.614C530.383 276.772 530.144 276.929 529.89 276.958C529.763 276.972 529.637 276.987 529.383 277.016L540.136 300.747C540.503 300.575 541.025 300.646 541.42 300.732L548.007 284.963L530.623 276.614ZM526.965 274.938L493.544 271.412L492.298 301.598C492.693 301.683 493.103 301.898 493.527 302.242L515.849 284.689L527.193 275.827C527.193 275.827 527.193 275.827 527.179 275.698C527.009 275.325 526.994 275.196 526.965 274.938ZM493.711 302.744C493.726 302.873 493.867 302.987 493.881 303.116C493.896 303.245 493.91 303.374 493.925 303.503L521.892 303.076L527.534 276.572C527.393 276.457 527.378 276.328 527.237 276.214L493.711 302.744ZM522.653 302.99L538.689 302.74C538.744 302.081 539.193 301.507 539.658 301.063L528.748 277.088C528.494 277.116 528.353 277.002 528.085 276.902L522.653 302.99ZM539.837 304.961L516.09 338.481C516.231 338.596 516.373 338.711 516.402 338.969L536.926 329.458L540.261 305.305C540.12 305.19 539.979 305.076 539.837 304.961ZM539.286 304.632C539.004 304.402 538.848 304.159 538.678 303.786C538.663 303.657 538.649 303.528 538.62 303.27L522.457 303.535L515.13 337.937C515.256 337.923 515.398 338.037 515.398 338.037L539.286 304.632ZM521.95 303.592L494.124 304.134C494.055 304.664 493.732 305.223 493.395 305.653L501.85 319.195L513.607 338.11C513.734 338.095 513.734 338.095 513.861 338.081C514.1 337.923 514.481 337.88 514.749 337.98L521.95 303.592ZM501.075 319.152L492.775 305.854C492.648 305.869 492.648 305.869 492.521 305.883C491.901 306.084 491.125 306.041 490.574 305.712L481.803 316.895L512.762 338.598C512.874 338.454 512.874 338.454 512.987 338.311L501.075 319.152ZM490.15 305.368C489.994 305.125 489.711 304.895 489.668 304.508C489.639 304.25 489.483 304.007 489.581 303.734L456.621 298.588C456.508 298.731 456.523 298.86 456.41 299.003L481.393 316.68L490.15 305.368ZM471.186 270.288L490.902 301.756C491.029 301.741 491.029 301.741 491.156 301.727C491.283 301.713 491.536 301.684 491.663 301.67L492.895 271.354L471.959 269.156C471.875 269.557 471.538 269.987 471.186 270.288ZM494.383 226.118L471.177 266.762C471.459 266.992 471.756 267.35 471.941 267.851C471.97 268.109 472.126 268.353 472.013 268.496L492.95 270.695L494.778 226.204C494.651 226.219 494.51 226.104 494.383 226.118ZM495.935 226.204C495.808 226.218 495.554 226.247 495.427 226.261L493.598 270.752L527.02 274.279C527.104 273.878 527.314 273.462 527.666 273.161L496.174 226.046C496.174 226.046 496.047 226.06 495.935 226.204ZM496.878 225.444C496.765 225.587 496.765 225.587 496.653 225.731L528.145 272.845C528.272 272.831 528.257 272.702 528.384 272.687C528.511 272.673 528.638 272.659 528.765 272.644L527.366 245.24L496.878 225.444ZM525.277 239.206C525.093 238.705 525.176 238.304 525.245 237.773L498.585 225.773L527.294 244.595L527.115 240.696C526.339 240.654 525.505 240.095 525.277 239.206ZM529.399 272.572C530.175 272.615 530.867 273.059 531.193 273.675L555.006 264.836C554.807 264.206 554.876 263.676 555.072 263.131L528.044 245.555L529.399 272.572ZM528.848 240.108C528.609 240.266 528.369 240.424 528.13 240.581C528.003 240.596 527.876 240.61 527.749 240.624L527.972 244.91L553.742 261.583L528.848 240.108ZM596.731 208.247L529.476 237.685C529.675 238.316 529.494 238.99 529.171 239.549L555.507 262.428C555.746 262.271 555.986 262.113 556.225 261.955C556.972 261.74 557.621 261.797 558.186 262.255L597.198 208.978C597.057 208.863 596.774 208.634 596.731 208.247ZM558.737 262.585C558.752 262.714 558.879 262.699 558.893 262.828L591.18 242.448L602.824 235.119C602.81 234.99 602.81 234.99 602.795 234.861C602.412 233.729 603.029 232.353 604.142 231.965L599.174 209.407C598.666 209.464 598.144 209.393 597.735 209.178L558.737 262.585ZM559.237 264.749L596.106 276.114L604.14 236.537C603.745 236.451 603.447 236.093 603.165 235.864L579.031 251.01L571.948 255.47L559.219 263.444C559.262 263.831 559.32 264.347 559.237 264.749ZM663.197 280.789L700.269 277.893L700.255 277.764L667.977 269.535C667.781 270.08 667.331 270.653 666.584 270.869C665.598 271.242 664.525 270.841 664.043 269.981L663.197 280.789ZM663.521 269.91L624.208 283.771L662.548 280.731L663.521 269.91ZM624.844 214.857L618.823 220.765L643.07 237.611C643.182 237.468 643.295 237.324 643.421 237.31L627.327 215.229C627.2 215.243 627.2 215.243 627.087 215.387C626.341 215.602 625.423 215.445 624.844 214.857ZM623.526 185.876L577.189 184.075C577.204 184.204 577.091 184.347 577.12 184.605L624.78 211.991C625.004 211.704 625.356 211.403 625.849 211.216C625.976 211.202 625.976 211.202 626.103 211.187L623.526 185.876ZM624.119 212.98L600.806 207.915C600.82 208.044 600.694 208.059 600.708 208.188L618.399 220.421L624.532 214.37C624.518 214.241 624.376 214.126 624.362 213.997C624.191 213.625 624.148 213.238 624.119 212.98ZM675.731 172.382C676.366 172.31 677.029 172.496 677.595 172.955L690.288 162.372L669.741 141.84C669.628 141.984 669.375 142.013 669.262 142.156L675.731 172.382ZM670.057 149.251L673.86 174.031C674.041 173.357 674.506 172.913 675.111 172.583L670.057 149.251ZM676.871 176.825C676.744 176.839 676.618 176.854 676.491 176.868L678.705 203.527C679.227 203.598 679.763 203.799 680.187 204.142L691.644 195.137L677.223 176.524C677.111 176.667 676.998 176.81 676.871 176.825ZM675.856 176.94C675.207 176.883 674.656 176.553 674.203 175.952L677.533 197.651L675.856 176.94ZM668.515 142.371C668.261 142.4 667.993 142.3 667.739 142.329L646.653 184.692C647.063 184.906 647.374 185.394 647.545 185.766C647.729 186.268 647.675 186.927 647.464 187.343L676.747 204.402C676.972 204.115 677.324 203.814 677.817 203.627L677.944 203.613L668.515 142.371ZM620.888 132.486L648.487 136.804L649.505 121.797C648.842 121.611 648.291 121.281 647.965 120.665L620.689 131.856C620.845 132.099 620.859 132.228 620.888 132.486ZM649.121 136.732L666.251 139.362C666.349 139.09 666.559 138.674 666.798 138.516L651.507 121.308C651.394 121.452 651.14 121.481 651.028 121.624C650.774 121.653 650.647 121.667 650.393 121.696L649.121 136.732ZM666.156 140.81C666.127 140.552 665.971 140.308 666.069 140.036L649.067 137.391L645.834 184.262C645.961 184.247 646.102 184.362 646.102 184.362L667.189 141.999C666.764 141.655 666.34 141.312 666.156 140.81ZM645.395 210.176L676.384 205.749C676.355 205.491 676.438 205.09 676.536 204.818L647.112 187.644C646.887 187.931 646.536 188.232 646.042 188.418C645.916 188.433 645.662 188.462 645.535 188.476L645.395 210.176ZM645.042 188.662C644.773 188.562 644.52 188.591 644.237 188.362L627.938 211.502C628.22 211.731 628.39 212.104 628.546 212.347L628.561 212.476L644.746 210.119L645.042 188.662ZM677.235 207.612L646.568 237.868C646.724 238.111 646.865 238.226 646.894 238.484C647.093 239.114 647.024 239.645 646.828 240.189L668.502 254.714L677.913 207.927C677.644 207.827 677.376 207.727 677.235 207.612ZM646.491 240.62L646.378 240.763L664.966 266.741C665.092 266.727 665.205 266.584 665.332 266.569C665.571 266.411 665.952 266.368 666.22 266.469L668.447 255.374L646.491 240.62ZM646.13 237.395L676.796 207.139C676.641 206.896 676.499 206.781 676.47 206.523L676.456 206.394L645.34 210.836L645.042 236.865C645.437 236.951 645.847 237.165 646.13 237.395ZM644.706 210.908L628.506 213.136C628.451 213.795 628.27 214.469 627.679 214.928L643.773 237.009C643.773 237.009 643.773 237.009 643.9 236.994C644.027 236.98 644.281 236.951 644.408 236.937L644.706 210.908ZM627.513 211.158L643.813 188.018C643.53 187.789 643.36 187.416 643.204 187.173C643.19 187.044 643.161 186.786 643.146 186.657L624.175 185.933L626.596 211.001C626.85 210.972 627.118 211.072 627.513 211.158ZM643.074 186.012C643.129 185.352 643.466 184.922 644.057 184.463L619.455 134.608C619.328 134.623 619.328 134.623 619.201 134.637L624.088 185.159L643.074 186.012ZM644.551 184.277C644.804 184.248 644.931 184.234 645.185 184.205L648.418 137.334L620.819 133.017C620.75 133.547 620.413 133.977 619.934 134.293L644.551 184.277ZM620.334 130.982L677.528 94.323C677.513 94.194 677.513 94.194 677.499 94.065C677.499 94.065 677.499 94.065 677.484 93.936L629.976 102.326L619.754 130.394C619.91 130.638 620.178 130.738 620.334 130.982ZM621.603 130.838L647.893 120.02C647.636 118.873 648.14 117.641 649.253 117.253C650 117.038 650.917 117.195 651.483 117.654L676.516 95.6134L621.603 130.838ZM651.717 120.893L667.15 138.215C667.263 138.072 667.517 138.043 667.643 138.029C668.01 137.857 668.263 137.828 668.659 137.914L671.532 125.701L652.181 120.448C651.942 120.606 651.829 120.749 651.717 120.893ZM669.181 137.985C669.717 138.186 670.283 138.644 670.496 139.404C670.511 139.533 670.525 139.661 670.539 139.79L717.12 138.037C717.12 138.037 717.12 138.037 717.106 137.908L672.054 125.772L669.181 137.985ZM717.348 138.926C717.334 138.797 717.319 138.668 717.305 138.539L670.583 140.177C670.499 140.579 670.416 140.98 670.205 141.396L690.64 162.07L717.533 139.428C717.392 139.313 717.377 139.184 717.348 138.926ZM690.6 162.859L677.921 173.571C678.062 173.685 678.076 173.814 678.105 174.072C678.261 174.316 678.304 174.703 678.206 174.975L707.389 180.811C707.487 180.539 707.599 180.396 707.697 180.123L690.6 162.859ZM707.533 182.101C707.377 181.858 707.334 181.471 707.432 181.198L678.25 175.362C678.166 175.764 677.941 176.05 677.716 176.337L691.996 194.835L707.704 182.474C707.689 182.345 707.548 182.23 707.533 182.101ZM691.956 195.624L680.499 204.63C680.514 204.759 680.655 204.873 680.669 205.002C680.84 205.375 680.868 205.633 680.785 206.034L703.565 212.074C703.663 211.801 703.888 211.514 704 211.371L691.956 195.624ZM703.611 213.636C703.441 213.263 703.412 213.005 703.496 212.604L682.042 206.937L705.299 217.233L705.434 214.997C704.531 214.968 703.825 214.395 703.611 213.636ZM680.505 206.98C680.295 207.396 679.943 207.697 679.577 207.869L702.083 275.728L702.224 275.842L702.351 275.828L705.132 218.035L680.505 206.98ZM679.084 208.056C678.83 208.085 678.703 208.099 678.449 208.128L668.941 255.187L700.774 276.66C700.999 276.373 701.238 276.215 701.477 276.057L679.084 208.056ZM668.871 255.718L666.63 266.683C667.293 266.869 667.732 267.342 668.072 268.087C668.242 268.46 668.271 268.718 668.188 269.119L677.178 271.366L700.451 277.219C700.451 277.219 700.436 277.09 700.563 277.075L668.871 255.718ZM664.374 267.2L645.787 241.222C645.66 241.236 645.548 241.38 645.421 241.394C644.928 241.58 644.279 241.523 643.869 241.309L638.089 252.806L664.15 267.487C664.262 267.344 664.248 267.215 664.374 267.2ZM643.318 240.979C643.036 240.75 642.738 240.392 642.554 239.89C642.525 239.632 642.369 239.389 642.467 239.116L607.026 234.773C607.041 234.902 606.914 234.917 606.928 235.046L637.65 252.333L643.318 240.979ZM607.009 233.469C607.038 233.727 607.194 233.97 607.096 234.243L642.649 238.442C642.634 238.313 642.747 238.17 642.732 238.041L618.344 221.08L606.541 232.738C606.712 233.111 606.868 233.354 607.009 233.469ZM617.934 220.866L600.512 208.732C600.287 209.019 600.048 209.177 599.682 209.349L604.664 232.037C605.298 231.965 605.835 232.165 606.259 232.509L617.934 220.866ZM576.656 185.049L597.33 205.566C597.57 205.408 597.682 205.265 597.936 205.236C599.049 204.849 600.405 205.479 600.788 206.611C600.817 206.869 600.973 207.113 600.875 207.385L624.315 212.435L576.656 185.049ZM617.367 134.322L576.577 182.054C576.733 182.297 576.889 182.541 577.045 182.785C577.059 182.914 577.088 183.172 577.103 183.301L623.454 185.231L618.567 134.709C618.186 134.752 617.777 134.537 617.367 134.322ZM601.687 109.059L617.583 130.51C617.709 130.495 617.822 130.352 617.949 130.338C618.315 130.165 618.71 130.251 619.091 130.208L629.229 102.541L602.514 107.267C602.587 107.912 602.278 108.601 601.687 109.059ZM649.35 46.9633L601.834 105.777C602.116 106.006 602.286 106.379 602.442 106.622L629.537 101.853L649.491 47.0779C649.364 47.0923 649.364 47.0923 649.35 46.9633ZM651.423 47.1202L651.296 47.1345C650.93 47.3067 650.408 47.2352 650.013 47.1494L630.158 101.652L677.285 93.3054C677.198 92.5315 677.507 91.8433 678.098 91.3844L651.423 47.1202ZM677.995 95.0538L651.936 118.255C652.077 118.37 652.106 118.628 652.247 118.743C652.418 119.115 652.461 119.502 652.363 119.774L671.713 125.027L678.814 95.4834C678.419 95.3976 678.278 95.283 677.995 95.0538ZM680.845 95.2533C680.732 95.3967 680.478 95.4254 680.366 95.5688C680 95.741 679.746 95.7697 679.351 95.6839L672.25 125.227L717.302 137.364C717.4 137.091 717.512 136.948 717.625 136.805L680.845 95.2533ZM709.895 179.09L718.664 140.344C718.395 140.244 718.127 140.144 717.971 139.9L691.191 162.4L708.401 179.521C708.64 179.363 708.753 179.22 709.007 179.191C709.26 179.162 709.514 179.134 709.895 179.09ZM709.117 183.62C708.722 183.534 708.439 183.305 708.156 183.076L692.449 195.437L704.606 211.041C704.733 211.027 704.845 210.883 704.972 210.869C705.226 210.84 705.465 210.682 705.733 210.783L709.117 183.62ZM707.534 214.236C707.309 214.523 706.957 214.824 706.464 215.011C706.337 215.025 706.083 215.054 705.956 215.068L705.835 217.433L737.48 231.481L707.534 214.236ZM740.151 233.53L705.668 218.236L702.873 275.899C703.141 275.999 703.537 276.085 703.819 276.315L740.523 235.708C740.367 235.465 740.212 235.221 740.056 234.977C739.998 234.461 740.067 233.931 740.151 233.53ZM741.06 235.909L704.356 276.515C704.511 276.759 704.653 276.873 704.682 277.131L737.268 268.604L741.738 236.224C741.484 236.253 741.216 236.152 741.06 235.909ZM755.909 261.788L743.021 236.209C742.767 236.238 742.528 236.395 742.26 236.295L737.761 268.418L754.857 263.867C754.897 263.079 755.191 262.262 755.909 261.788ZM734.838 293.96L755.665 265.343C755.382 265.114 755.226 264.87 755.183 264.483L737.833 269.063L734.429 293.746C734.57 293.86 734.697 293.846 734.838 293.96ZM733.018 293.775C733.272 293.746 733.511 293.588 733.78 293.689L737.213 269.263L705.247 277.59L732.075 294.535C732.3 294.248 732.652 293.947 733.018 293.775ZM731.473 296.04C731.43 295.653 731.528 295.381 731.626 295.108L704.67 278.177C704.645 279.095 704.097 279.941 703.237 280.299C702.378 280.658 701.446 280.372 700.852 279.655L662.066 306.259L731.473 296.04ZM700.526 279.039C700.512 278.91 700.512 278.91 700.37 278.796C700.356 278.667 700.356 278.667 700.341 278.538L663.143 281.448L661.149 306.102L700.526 279.039ZM660.641 306.159L662.635 281.505L624.294 284.545C624.323 284.803 624.225 285.076 624.113 285.219L660.641 306.159ZM624.023 283.27L663.703 269.236C663.659 268.849 663.602 268.333 663.812 267.917L637.878 253.222L623.287 282.439C623.57 282.668 623.853 282.897 624.023 283.27ZM622.737 282.109L637.327 252.892L606.591 235.476C606.366 235.762 606.141 236.049 605.775 236.221L621.566 281.981C621.946 281.938 622.468 282.009 622.737 282.109ZM621.087 282.296L605.296 236.537C605.042 236.566 604.916 236.58 604.662 236.609L596.643 276.315L620.06 283.458C620.256 282.913 620.594 282.483 621.087 282.296ZM592.258 303.722L620.009 285.292C619.994 285.163 619.994 285.163 619.853 285.049C619.683 284.676 619.639 284.289 619.723 283.888L596.432 276.731L591.142 302.934C591.552 303.149 591.961 303.363 592.258 303.722ZM589.732 302.963C589.971 302.805 590.352 302.762 590.62 302.862L595.896 276.53L558.899 265.179C558.787 265.322 558.689 265.595 558.576 265.738L564.222 272.544L589.239 303.149C589.493 303.121 589.619 303.106 589.732 302.963ZM588.901 303.58L564.055 273.347L558.239 266.168C558.112 266.183 558 266.326 557.873 266.34C557.507 266.512 556.985 266.441 556.589 266.355L548.881 284.733L588.676 303.866C588.662 303.737 588.789 303.723 588.901 303.58ZM588.354 304.425L548.558 285.292L541.971 301.062C542.38 301.276 542.819 301.749 543.003 302.251C543.018 302.38 543.047 302.638 543.061 302.767L588.256 304.698C588.382 304.683 588.368 304.554 588.354 304.425ZM588.328 305.343L543.133 303.412C542.966 304.214 542.531 304.917 541.672 305.276C541.418 305.304 541.178 305.462 540.91 305.362L537.546 329.257L588.371 305.73C588.342 305.472 588.342 305.472 588.328 305.343ZM531.34 377.117L587.316 306.633L537.35 329.801L530.803 376.917C531.072 377.017 531.199 377.003 531.34 377.117ZM530.281 376.846L536.871 330.117L516.713 339.456C517.083 340.459 516.564 341.563 515.719 342.051L529.774 376.903C529.901 376.889 530.028 376.874 530.281 376.846ZM528.352 377.979C528.577 377.692 528.802 377.405 529.154 377.104L515.099 342.252C513.971 342.51 512.757 341.994 512.373 340.862L512.358 340.733L459.445 347.907C459.474 348.165 459.362 348.308 459.39 348.566L528.352 377.979ZM459.358 347.133L459.373 347.262L512.286 340.088C512.243 339.701 512.341 339.429 512.551 339.013L481.592 317.311L458.862 346.144C459.032 346.517 459.188 346.76 459.358 347.133ZM458.326 345.944L481.056 317.111L456.087 299.563C455.863 299.849 455.623 300.007 455.243 300.05C455.116 300.065 454.862 300.093 454.735 300.108L457.38 345.528C457.648 345.629 458.043 345.715 458.326 345.944ZM456.506 345.758C456.633 345.744 456.76 345.729 456.887 345.715L454.242 300.294L454.115 300.309L442.662 342.625L455.225 346.948C455.422 346.404 455.886 345.959 456.506 345.758ZM440.318 379.075C440.557 378.917 440.67 378.774 440.924 378.745C441.417 378.558 441.939 378.63 442.334 378.716L455.924 349.743C455.924 349.743 455.924 349.743 455.783 349.628L435.601 371.38C435.757 371.623 435.912 371.867 435.941 372.125C436.155 372.885 435.988 373.687 435.538 374.261L440.318 379.075ZM439.854 379.519L435.328 374.677C435.088 374.834 434.976 374.978 434.722 375.007C434.102 375.207 433.58 375.136 433.043 374.936L429.462 380.828L439.462 380.609C439.418 380.222 439.629 379.806 439.854 379.519ZM417.54 400.598L439.747 382.013C439.606 381.899 439.592 381.77 439.563 381.512C439.548 381.383 439.534 381.254 439.519 381.125L429.252 381.244L417.54 400.598C417.414 400.613 417.414 400.613 417.54 400.598ZM415.184 400.212C415.804 400.011 416.326 400.083 416.863 400.283L428.505 381.459L375.138 382.283C375.152 382.412 375.04 382.556 375.054 382.685L414.129 401.116C414.339 400.7 414.691 400.399 415.184 400.212ZM362.014 406.239C362.028 406.368 362.028 406.368 362.043 406.497L413.737 402.205L413.722 402.076L368.855 390.441L361.122 405.165C361.532 405.379 361.829 405.738 362.014 406.239ZM358.541 405.065C358.654 404.922 358.907 404.893 359.147 404.735C359.64 404.549 360.162 404.62 360.698 404.821L368.318 390.241L338.397 382.398C338.299 382.671 338.201 382.943 338.089 383.086L358.541 405.065ZM338.365 380.965C338.38 381.094 338.38 381.094 338.394 381.223L370.693 381.611C370.791 381.339 370.875 380.938 370.973 380.665L347.691 360.967L337.318 379.647C337.883 380.105 338.18 380.463 338.365 380.965ZM336.147 379.518C336.401 379.49 336.669 379.59 336.923 379.561L347.282 360.752L331.238 347.156C330.998 347.314 330.759 347.472 330.505 347.5C330.378 347.515 330.252 347.529 330.252 347.529L336.147 379.518ZM334.134 381.053C334.316 380.379 334.892 379.791 335.512 379.59L329.631 347.73C329.378 347.759 329.236 347.644 328.968 347.544L314.755 375.542C315.701 375.958 316.085 377.09 315.932 378.021L334.134 381.053ZM334.01 382.242L334.166 382.486C334.137 382.228 333.981 381.984 334.079 381.712L315.863 378.552C315.329 379.527 314.104 380.058 313.031 379.657C312.904 379.671 312.889 379.542 312.889 379.542L310.252 384.674L305.2 394.652C305.342 394.767 305.342 394.767 305.483 394.881C305.624 394.996 305.624 394.996 305.766 395.111L334.01 382.242ZM263.465 399.514L301.411 396.388C301.382 396.13 301.48 395.858 301.593 395.714C301.691 395.442 301.789 395.17 302.028 395.012L294.487 386.2L263.465 399.514ZM263.266 398.883L294.176 385.713L280.565 369.751C279.96 370.081 279.213 370.296 278.535 369.981L262.828 398.41C262.969 398.525 263.111 398.64 263.266 398.883ZM261.345 397.795C261.599 397.766 261.867 397.866 262.136 397.966C262.262 397.952 262.277 398.081 262.404 398.067L277.999 369.781C277.73 369.681 277.575 369.437 277.419 369.193L257.468 376.941L261.345 397.795ZM227.304 394.469L258.981 399.63C258.966 399.501 259.079 399.358 259.064 399.229C259.373 398.541 259.949 397.953 260.584 397.881L256.848 377.142L217.566 392.437C217.581 392.566 217.595 392.695 217.624 392.953L227.304 394.469ZM217.494 391.792L256.776 376.497L251.181 346.042C250.927 346.071 250.532 345.985 250.263 345.884C250.136 345.899 249.995 345.784 249.995 345.784L217.168 391.176C217.31 391.291 217.465 391.534 217.494 391.792ZM215.389 390.202C215.642 390.173 215.911 390.274 216.179 390.374C216.447 390.474 216.588 390.589 216.73 390.703L249.557 345.311C249.274 345.082 249.118 344.839 249.075 344.452L208.019 355.376L215.389 390.202ZM214.261 390.461C214.388 390.446 214.627 390.289 214.754 390.274L207.399 355.577L193.671 359.223C193.714 359.61 193.616 359.882 193.533 360.283C193.449 360.685 193.224 360.972 192.985 361.129L214.261 390.461ZM192.185 357.432C192.849 357.618 193.302 358.22 193.486 358.721L207.341 355.061L198.401 313.097C198.274 313.111 198.274 313.111 198.147 313.126L196.001 328.391L192.044 357.317C192.058 357.446 192.058 357.446 192.185 357.432ZM190.394 357.504C190.634 357.346 191.014 357.303 191.395 357.26L195.465 328.191L197.498 313.069C197.498 313.069 197.371 313.083 197.357 312.954C196.962 312.868 196.679 312.639 196.523 312.395L173.182 328.888L190.394 357.504ZM172.577 329.218L136.96 354.286C137.116 354.53 137.145 354.788 137.188 355.175L189.172 359.21C189.157 359.081 189.27 358.938 189.255 358.809C189.339 358.408 189.691 358.106 189.916 357.82L172.577 329.218ZM180.65 379.509L190.066 361.46C189.501 361.002 189.175 360.386 189.103 359.741L137.119 355.705C137.133 355.834 137.006 355.849 137.021 355.978L180.65 379.509ZM136.648 353.799L172.265 328.731L165.309 317.109C164.816 317.296 164.182 317.368 163.645 317.167C163.518 317.182 163.377 317.067 163.377 317.067L136.648 353.799ZM135.673 353.126C135.815 353.241 135.942 353.226 136.083 353.341L162.699 316.752C162.417 316.523 162.246 316.15 162.09 315.906L126.3 323.36L134.517 353.126C135.01 352.94 135.391 352.897 135.673 353.126ZM133.77 353.342C133.882 353.198 134.009 353.184 134.263 353.155L126.046 323.389L112.105 326.275C112.134 326.533 112.05 326.935 111.952 327.207C111.854 327.479 111.756 327.752 111.517 327.909L133.77 353.342ZM105.228 365.852C105.765 366.052 106.189 366.396 106.373 366.898L132.649 355.951C132.464 355.449 132.547 355.048 132.743 354.503C132.841 354.231 133.066 353.944 133.179 353.801L110.926 328.368C110.574 328.669 110.067 328.727 109.686 328.77L104.975 365.881C105.087 365.737 105.214 365.723 105.228 365.852ZM104.438 365.68L109.149 328.57C109.022 328.584 109.022 328.584 108.881 328.469C108.74 328.355 108.472 328.255 108.33 328.14L88.2351 350.666L103.071 366.096C103.55 365.781 104.043 365.594 104.438 365.68ZM58.6218 384.59L102.301 368.404C102.258 368.017 102.2 367.501 102.411 367.086C102.509 366.813 102.621 366.67 102.734 366.526L87.8978 351.096L58.3103 384.102C58.4661 384.346 58.6074 384.461 58.6218 384.59ZM57.4766 383.544C57.618 383.658 57.8862 383.759 58.0131 383.744L87.6006 350.737L63.8973 326.123C63.5455 326.424 63.0523 326.61 62.6572 326.525L57.1939 383.315C57.2084 383.444 57.3353 383.429 57.4766 383.544ZM56.3057 383.415C56.4326 383.401 56.5595 383.387 56.6864 383.372L62.1496 326.582C62.0227 326.596 62.0083 326.467 61.8814 326.482C61.7545 326.496 61.6131 326.382 61.6131 326.382L45.4375 348.332L56.3057 383.415ZM55.2585 382.097L44.8463 348.791L42.4993 351.931C43.0791 352.518 43.3215 353.536 43.0275 354.353C42.817 354.769 42.6065 355.185 42.1278 355.5L55.2585 382.097ZM40.7628 351.344C41.0166 351.315 41.4118 351.401 41.68 351.501C41.8069 351.487 41.9483 351.602 41.9483 351.602L44.5203 348.175L35.1614 318.538L40.7628 351.344ZM38.8481 352.606C39.1566 351.918 39.6208 351.473 40.2553 351.402L34.3103 316.675C34.0565 316.704 33.6614 316.618 33.3931 316.517C32.7153 316.202 32.2768 315.73 32.0777 315.099L-31.7158 330.691C-31.6869 330.949 -31.658 331.207 -31.7415 331.608L38.8481 352.606ZM-31.9149 330.06L32.0055 314.454C31.991 314.325 31.9766 314.196 31.9766 314.196L-5.76591 308.808L-19.4802 306.835C-19.4802 306.835 -19.4657 306.964 -19.5926 306.979C-19.9702 308.197 -21.3227 308.742 -22.3957 308.341L-32.8063 328.985C-32.3967 329.2 -32.0995 329.558 -31.9149 330.06ZM-33.3427 328.785L-22.9322 308.141C-23.3563 307.797 -23.7947 307.324 -23.8669 306.679L-40.2945 308.019L-34.4993 328.785C-34.1331 328.613 -33.7379 328.699 -33.3427 328.785ZM-30.9829 362.481L-34.0082 333.171C-34.262 333.2 -34.5302 333.1 -34.7984 332.999C-35.9983 332.613 -36.538 331.237 -36.1604 330.019C-36.0624 329.746 -35.9643 329.474 -35.725 329.316L-50.5846 310.23L-30.9829 362.481ZM-31.9548 362.983C-31.8423 362.84 -31.7155 362.825 -31.603 362.682L-51.1903 310.56C-51.571 310.604 -52.0786 310.661 -52.4881 310.446C-52.615 310.461 -52.6294 310.332 -52.7563 310.346L-66.7345 331.264L-31.9548 362.983ZM-94.4887 374.905L-32.7822 364.775C-32.811 364.517 -32.713 364.245 -32.6295 363.843C-32.517 363.7 -32.5315 363.571 -32.4335 363.299L-66.9305 331.808L-95.1117 373.931C-94.829 374.16 -94.6589 374.532 -94.4887 374.905ZM-95.8184 373.358C-95.6915 373.343 -95.6772 373.472 -95.5503 373.458L-67.369 331.336L-81.6766 318.327C-82.1409 318.771 -82.761 318.972 -83.4099 318.915L-95.8184 373.358C-95.9453 373.372 -95.9453 373.372 -95.8184 373.358ZM-96.4674 373.3L-83.9463 318.715C-84.2146 318.615 -84.3559 318.5 -84.4973 318.385L-116.677 352.339L-97.9758 373.602C-97.6095 373.43 -96.9894 373.229 -96.4674 373.3ZM-98.3592 404.605L-97.1183 377.816C-97.2452 377.83 -97.3866 377.715 -97.5135 377.73C-97.9231 377.515 -98.2057 377.286 -98.4884 377.057L-123.822 391.816L-100.176 405.595C-99.7261 405.021 -98.9937 404.677 -98.3592 404.605ZM-174.349 421.448L-100.51 407.2C-100.554 406.813 -100.456 406.541 -100.372 406.139L-124.301 392.131L-174.364 421.319C-174.491 421.334 -174.364 421.319 -174.349 421.448ZM-175.792 420.044C-175.382 420.259 -175.099 420.488 -174.802 420.846L-124.979 391.816L-166.65 367.409C-167.1 367.983 -167.706 368.313 -168.482 368.27L-175.933 419.93C-175.806 419.915 -175.806 419.915 -175.792 420.044Z" fill="white"/>
</g>
</g>
<defs>
<clipPath id="clip0">
<rect width="328" height="378" fill="white"/>
</clipPath>
</defs>
</svg>
