<svg width="296" height="227" viewBox="0 0 296 227" fill="none" xmlns="http://www.w3.org/2000/svg">
<path d="M133.107 206.277C134.64 204.489 134.795 202.978 131.345 202.667C123.737 201.983 118.133 198.661 117.248 196.74C116.365 194.816 118.776 192.938 120.838 194.093C123.202 195.124 125.694 195.829 128.247 196.19C130.286 196.561 132.372 196.59 134.42 196.274C136.191 195.996 137.748 195.698 139.141 195.402C139.141 195.402 147.192 193.667 150.668 190.954L167.695 209.151L159.709 218.175C158.506 219.85 156.895 221.191 155.029 222.071C153.162 222.95 151.103 223.339 149.045 223.2C142.192 222.524 132.979 217.607 132.979 217.607C131.734 215.694 120.702 222.496 117.15 225.047C113.64 227.568 110.971 226.955 111.105 224.503C111.197 222.831 121.883 214.765 125.456 212.323C128.219 210.592 130.784 208.565 133.107 206.277" fill="#FFBE9D"/>
<path d="M143.118 222.087C143.1 222.19 143.609 222.408 144.489 222.385C145.638 222.313 146.742 221.904 147.66 221.209C148.579 220.514 149.273 219.564 149.656 218.478C149.918 217.638 149.847 217.089 149.743 217.078C149.5 217.022 149.084 219.081 147.131 220.509C145.904 221.282 144.543 221.818 143.118 222.087V222.087Z" fill="#EB996E"/>
<path d="M136.368 219.43C136.356 219.536 136.852 219.72 137.692 219.667C138.788 219.561 139.832 219.145 140.701 218.469C141.57 217.793 142.23 216.884 142.602 215.847C142.86 215.047 142.804 214.521 142.699 214.506C142.454 214.448 142.002 216.389 140.162 217.776C138.993 218.526 137.712 219.084 136.368 219.43V219.43Z" fill="#EB996E"/>
<path d="M114.376 30.5282C113.665 45.4692 95.4409 65.9355 81.8868 69.2458C74.761 70.9862 66.5622 70.1673 60.9166 74.9538C51.2336 83.1642 56.8973 100.183 50.3657 111.196C46.3502 117.966 38.3757 121.287 33.8593 127.716C26.3539 138.401 31.3921 154.55 41.6334 162.507C51.8762 170.465 65.5177 171.985 78.3547 171.654C106.59 170.923 135.505 161.95 155.915 141.937C165.503 132.536 203.017 103.508 189.935 34.7125" fill="#263238"/>
<path d="M12.4618 137.429L119.818 105.559C124.821 103.37 130.071 101.79 135.452 100.854L171.696 101.097C176.479 101.112 181.21 102.102 185.599 104.004L283.316 136.46C290.547 138.747 295.543 146.164 295.543 154.611V154.611C295.543 165.025 288.036 173.467 278.776 173.467H233.652C233.782 173.891 233.85 174.127 233.85 174.127L76.9018 174.717L76.9035 174.657L17.0018 174.791C7.74183 174.791 0.23504 166.268 0.23504 155.754C0.23504 147.226 5.23092 139.738 12.4618 137.429Z" fill="#F26A08"/>
<path d="M33.9761 149.033C34.3014 149.056 34.6282 149.039 34.9496 148.983C35.678 148.901 36.5928 148.797 37.7149 148.67C40.1109 148.366 43.585 147.98 47.881 147.566C70.2793 145.386 92.8498 145.681 115.183 148.447C119.467 148.973 122.93 149.451 125.316 149.817C126.435 149.974 127.346 150.101 128.072 150.203C128.392 150.266 128.718 150.292 129.044 150.278C128.741 150.158 128.426 150.074 128.103 150.028C127.384 149.884 126.481 149.703 125.373 149.48C123.001 149.01 119.547 148.438 115.264 147.832C92.907 144.717 70.2475 144.42 47.8166 146.948C43.5194 147.442 40.0513 147.923 37.6672 148.332C36.5539 148.525 35.6459 148.683 34.9233 148.808C34.5997 148.845 34.2816 148.921 33.9761 149.033V149.033Z" fill="#263238"/>
<g opacity="0.6">
<path opacity="0.6" d="M59.1674 122.951C59.2521 123.083 59.3531 123.205 59.4681 123.312L60.4135 124.309C61.2608 125.17 62.511 126.441 64.2084 127.99C66.2603 129.888 68.4404 131.644 70.7332 133.243C73.7736 135.402 77.165 137.018 80.7569 138.02C85.1722 139.126 89.8024 139.033 94.1701 137.753C99.1042 136.229 103.844 134.136 108.293 131.515C113.143 128.629 118.265 126.227 123.586 124.346C129.314 122.392 135.575 122.714 141.072 125.246C146.721 127.792 151.528 131.676 156.78 134.474C158.079 135.198 159.456 135.756 160.787 136.359C162.137 136.887 163.512 137.345 164.909 137.733C167.607 138.497 170.379 138.975 173.178 139.159C182.929 139.867 192.626 137.2 200.643 131.606C203.587 129.359 206.359 126.897 208.938 124.24C210.894 122.274 213.046 120.515 215.361 118.989C217.368 117.738 219.605 116.9 221.94 116.524C221.324 116.539 220.71 116.612 220.107 116.741C218.366 117.105 216.7 117.766 215.184 118.697C212.811 120.186 210.605 121.924 208.601 123.883C206.005 126.484 203.226 128.895 200.285 131.099C192.357 136.524 182.815 139.083 173.236 138.352C170.494 138.161 167.779 137.683 165.136 136.925C163.77 136.542 162.425 136.09 161.106 135.571C159.804 134.976 158.464 134.432 157.187 133.716C152.026 130.961 147.224 127.063 141.43 124.444C135.739 121.829 129.261 121.5 123.334 123.524C117.962 125.431 112.794 127.87 107.907 130.804C103.519 133.415 98.8443 135.511 93.976 137.051C89.7306 138.328 85.2224 138.455 80.9118 137.419C77.3736 136.466 74.0241 134.917 71.0077 132.836C68.7097 131.279 66.5146 129.575 64.4362 127.735C62.7105 126.232 61.4235 125.002 60.5375 124.183C60.1259 123.801 59.7949 123.493 59.5314 123.248C59.423 123.134 59.3008 123.034 59.1674 122.951V122.951Z" fill="white"/>
</g>
<g opacity="0.2">
<path opacity="0.2" d="M225.989 148.818L158.131 161.609L165.968 174.376L168.032 174.408L225.989 148.818Z" fill="black"/>
</g>
<g opacity="0.6">
<path opacity="0.6" d="M20.5797 135.409C20.5292 135.753 20.5179 136.102 20.546 136.449C20.5795 137.445 20.6792 138.437 20.8442 139.419C21.9339 145.581 25.2079 151.143 30.066 155.088C34.9241 159.032 41.0409 161.094 47.2956 160.895C50.7512 160.682 54.169 160.057 57.4765 159.033C60.8741 158.076 64.1388 157.018 67.3628 156.368C70.4405 155.691 73.6089 155.527 76.7402 155.881C82.0665 156.531 87.1201 158.601 91.3723 161.873C94.2635 164.051 96.728 166.744 98.642 169.816C98.9644 170.354 99.2568 170.841 99.5191 171.279C99.7294 171.698 99.915 172.068 100.08 172.396C100.216 172.716 100.388 173.019 100.593 173.301C100.513 172.963 100.395 172.635 100.241 172.323C100.097 171.982 99.935 171.596 99.7514 171.159C99.507 170.704 99.235 170.198 98.9356 169.641C97.1023 166.447 94.6623 163.641 91.7527 161.383C87.4496 157.959 82.2914 155.779 76.8373 155.078C73.6198 154.691 70.3603 154.842 67.1924 155.525C63.9024 156.177 60.6141 157.238 57.2389 158.188C53.9979 159.192 50.6502 159.812 47.2646 160.035C43.0167 160.176 38.8003 159.262 34.9922 157.374C31.1841 155.487 27.9033 152.685 25.443 149.22C23.3681 146.255 21.9178 142.899 21.1801 139.355C20.6676 136.842 20.6693 135.403 20.5797 135.409Z" fill="white"/>
</g>
<path d="M286.863 170.924C286.863 170.924 164.187 225.051 164.819 223.823C165.452 222.594 145.341 187.094 145.341 187.094L244.736 137.974L286.863 170.924Z" fill="#F26A08"/>
<path d="M230.55 144.984C229.679 145.265 228.833 145.619 228.022 146.043C226.289 146.859 224.015 147.93 221.271 149.223C215.587 151.943 207.762 155.756 199.143 160.015C190.522 164.276 182.738 168.177 177.123 171.041C174.428 172.436 172.195 173.592 170.493 174.473C169.663 174.862 168.867 175.319 168.113 175.84C168.983 175.559 169.828 175.205 170.639 174.782C172.371 173.966 174.644 172.895 177.389 171.602C183.072 168.882 190.899 165.069 199.522 160.807C208.142 156.547 215.926 152.646 221.541 149.782C224.236 148.387 226.469 147.231 228.171 146.35C229.001 145.962 229.796 145.505 230.55 144.984V144.984Z" fill="#263238"/>
<g opacity="0.6">
<path opacity="0.6" d="M203.61 161.403C203.767 162.675 204.153 163.908 204.751 165.042C206.381 168.173 208.936 170.726 212.068 172.354C214.193 173.525 216.493 174.344 218.88 174.78C221.624 175.242 224.423 175.275 227.177 174.878C233.409 173.79 239.441 171.767 245.068 168.876C250.623 166.011 256.452 163.712 262.467 162.013C265.094 161.356 267.795 161.043 270.502 161.082C272.858 161.145 275.193 161.539 277.439 162.254C280.726 163.234 283.685 165.087 286.001 167.617C286.795 168.592 287.537 169.61 288.223 170.665C287.757 169.473 287.094 168.367 286.261 167.395C283.984 164.709 280.993 162.723 277.634 161.665C275.34 160.889 272.947 160.448 270.527 160.354C267.752 160.28 264.98 160.573 262.283 161.226C256.199 162.892 250.305 165.189 244.698 168.079C239.148 170.933 233.208 172.954 227.069 174.076C224.397 174.483 221.678 174.478 219.007 174.063C216.687 173.668 214.444 172.906 212.363 171.808C209.295 170.273 206.752 167.864 205.054 164.884C204.499 163.756 204.016 162.593 203.61 161.403Z" fill="white"/>
</g>
<g opacity="0.6">
<path opacity="0.6" d="M151.525 198.505C151.55 198.669 154.246 198.217 158.628 198.147C161.191 198.112 163.754 198.242 166.3 198.537C172.542 199.26 178.627 200.984 184.321 203.641C186.644 204.726 188.894 205.959 191.058 207.332C194.752 209.69 196.811 211.488 196.918 211.361C196.516 210.859 196.056 210.407 195.546 210.015C194.236 208.858 192.851 207.788 191.4 206.814C189.256 205.347 187.006 204.042 184.668 202.91C178.924 200.128 172.737 198.376 166.388 197.733C163.804 197.471 161.204 197.402 158.609 197.526C156.862 197.595 155.122 197.779 153.399 198.078C152.76 198.145 152.131 198.288 151.525 198.505Z" fill="white"/>
</g>
<g opacity="0.2">
<path opacity="0.2" d="M132.765 100.627C134.794 106.301 131.748 112.414 128.793 117.666C126.902 121.415 124.508 124.888 121.679 127.99C120.254 129.535 118.531 130.775 116.614 131.637C114.697 132.498 112.625 132.963 110.524 133.003C105.017 132.822 100.084 128.754 94.5834 129.071C90.842 129.287 87.5543 131.498 84.4491 133.596C79.1835 137.413 73.4733 140.576 67.4441 143.016C61.3656 145.455 54.6642 145.875 48.3282 144.216C45.1873 143.347 42.322 141.686 40.0059 139.393C37.6899 137.1 36.0006 134.252 35.0995 131.12" fill="black"/>
</g>
<path d="M132.303 99.0616C132.021 92.4583 131.665 86.4815 131.665 86.4815C131.665 86.4815 116.905 84.6195 116.269 69.5554C115.632 54.4895 117.131 19.8006 117.131 19.8006L144.298 6.75513L173.527 30.301L168.943 99.489C168.626 104.281 166.442 108.758 162.86 111.958C159.279 115.158 154.585 116.826 149.787 116.604V116.604C145.208 116.392 140.874 114.474 137.639 111.228C134.403 107.981 132.5 103.641 132.303 99.0616V99.0616Z" fill="#FFBE9D"/>
<path d="M131.667 86.4813C138.666 86.2975 145.459 84.0739 151.212 80.0835C151.212 80.0835 146.618 91.0565 131.923 90.1788L131.667 86.4813Z" fill="#EB996E"/>
<path d="M189.38 45.1462C189.431 58.1857 192.846 92.6628 169.078 97.4446L169.942 49.961C169.942 49.961 146.927 39.1098 143.041 16.5083L142.9 16.6367C141.426 20.048 138.801 27.3752 140.396 33.3414L118.845 38.6523L116.365 40.9219C116.365 40.9219 108.69 24.1066 123.497 8.85222C138.305 -6.4022 150.955 4.65176 158.893 3.69935C164.172 3.06576 182.48 3.18783 189.937 34.7128L189.38 45.1462Z" fill="#263238"/>
<path d="M169.352 50.491C171.361 49.2511 174.104 50.2711 175.699 52.0116C176.964 53.3923 177.748 55.1462 177.932 57.0099C178.116 58.8737 177.69 60.7469 176.72 62.3484C175.749 63.95 174.285 65.1936 172.547 65.8926C170.81 66.5916 168.892 66.7083 167.083 66.2252" fill="#FFBE9D"/>
<path d="M169.814 61.7124C169.817 61.819 170.489 61.9351 171.541 61.6519C172.253 61.4748 172.912 61.1279 173.461 60.641C174.01 60.154 174.433 59.5414 174.693 58.8555C174.975 58.0544 174.943 57.1764 174.604 56.3979C174.325 55.7877 173.88 55.2686 173.319 54.9002C172.371 54.2892 171.65 54.3332 171.64 54.4308C171.602 54.5647 172.23 54.7513 172.94 55.3917C173.397 55.7677 173.729 56.2729 173.893 56.8411C174.058 57.4092 174.046 58.0138 173.861 58.5755C173.631 59.1412 173.288 59.6541 172.853 60.0826C172.418 60.5112 171.9 60.8463 171.331 61.0675C170.435 61.4679 169.801 61.5796 169.814 61.7124Z" fill="#EB996E"/>
<path d="M171.783 64.6806C172.197 64.7784 172.56 65.0271 172.801 65.3782C173.042 65.7292 173.143 66.1574 173.086 66.5792C173.028 67.001 172.815 67.3861 172.489 67.6595C172.162 67.9328 171.746 68.0747 171.32 68.0575C170.895 68.0403 170.491 67.8653 170.188 67.5665C169.884 67.2677 169.703 66.8667 169.68 66.4416C169.656 66.0165 169.792 65.5979 170.06 65.2675C170.329 64.937 170.711 64.7184 171.132 64.6543" fill="#F26A08"/>
<path d="M128.107 174.791V150.028C128.107 150.028 164.881 157.657 165.555 174.497L128.107 174.791Z" fill="#FFBE9D"/>
<path d="M131.933 96.4541C131.323 104.083 127.895 111.212 122.317 116.453C116.739 121.693 109.411 124.67 101.758 124.805C96.3292 124.9 90.6063 123.609 85.6502 125.827C81.3401 127.756 78.5664 131.932 75.1718 135.214C71.1253 139.026 66.1306 141.684 60.7081 142.91C55.2855 144.136 49.6334 143.886 44.3404 142.185C39.8882 140.691 32.8115 137.491 31.9828 132.868C31.3514 129.346 35.6568 125.846 38.1945 123.324C40.8672 120.933 43.93 119.018 47.2498 117.662C73.4438 105.359 101.565 96.4109 130.464 94.8821" fill="#263238"/>
</svg>
