<svg width="328" height="378" viewBox="0 0 328 378" fill="none" xmlns="http://www.w3.org/2000/svg">
<g clip-path="url(#clip0)">
<path d="M164.145 -0.275513L327.815 94.2197V283.21L164.145 377.705L0.474197 283.21V94.2197L164.145 -0.275513Z" fill="#7038E4"/>
<path opacity="0.35" d="M-355.697 356.118C-355.416 355.172 -354.439 354.67 -353.53 354.699L-346.033 303.039C-346.033 303.039 -346.161 303.053 -346.176 302.924C-347.383 302.538 -347.926 301.162 -347.546 299.944C-347.25 299.127 -346.528 298.653 -345.776 298.438L-348.082 242.396C-348.337 242.425 -348.48 242.31 -348.622 242.196C-349.829 241.809 -350.372 240.434 -349.992 239.215C-349.612 237.997 -348.251 237.451 -347.044 237.838C-346.774 237.938 -346.49 238.167 -346.205 238.397L-314.796 214.218C-315.124 213.602 -315.197 212.957 -315.014 212.283C-314.634 211.065 -313.274 210.52 -312.067 210.906C-311.797 211.007 -311.654 211.121 -311.385 211.221L-291.497 192.652C-291.953 192.05 -292.04 191.276 -291.744 190.459C-291.547 189.914 -291.207 189.484 -290.711 189.298L-304.075 153.313C-304.458 153.356 -304.968 153.413 -305.38 153.198C-306.588 152.812 -307.131 151.436 -306.751 150.218C-306.342 149.257 -305.378 148.626 -304.456 148.783L-298.188 120.645C-299.395 120.258 -299.938 118.883 -299.558 117.664C-299.178 116.446 -297.817 115.901 -296.61 116.287C-295.942 116.473 -295.487 117.075 -295.301 117.576L-261.039 109.536C-261.083 109.149 -260.984 108.877 -260.9 108.475C-260.52 107.257 -259.16 106.712 -257.952 107.098C-256.745 107.485 -256.202 108.861 -256.582 110.079C-256.582 110.079 -256.568 110.208 -256.695 110.222L-195.393 148.252L-195.28 148.109L-195.108 148.482L-194.127 149.155L-194.908 149.112L-179.803 189.081C-179.42 189.038 -178.909 188.98 -178.497 189.195C-177.56 189.482 -177.075 190.341 -176.973 191.244L-143.687 195.201C-143.702 195.072 -143.702 195.072 -143.588 194.929C-143.209 193.71 -141.848 193.165 -140.641 193.552C-139.561 193.953 -139.047 195.07 -139.186 196.131L-49.6668 178.207C-49.6959 177.949 -49.6119 177.548 -49.5132 177.276C-49.1334 176.057 -47.7726 175.512 -46.5654 175.898C-45.3582 176.285 -44.8153 177.661 -45.1952 178.879C-45.407 179.295 -45.6187 179.711 -45.9872 179.883L-11.4528 247.708C-10.9566 247.521 -10.4459 247.464 -9.90614 247.664C-9.36639 247.865 -9.06748 248.223 -8.76854 248.581L20.2284 235.125C20.0426 234.623 20.1121 234.093 20.3239 233.677C20.7038 232.459 22.0646 231.913 23.2718 232.3C24.0814 232.601 24.6793 233.317 24.781 234.22L53.8996 234.466C53.885 234.337 53.9981 234.194 53.969 233.936C54.3489 232.718 55.7098 232.172 56.9169 232.559C58.1241 232.945 58.667 234.321 58.2871 235.54C58.3017 235.669 58.1739 235.683 58.1885 235.812L101.052 266.253C101.618 265.536 102.625 265.292 103.577 265.707C104.784 266.093 105.327 267.469 104.947 268.688C104.651 269.505 104.056 269.964 103.305 270.179L105.287 300.392C105.542 300.364 105.812 300.464 106.082 300.564C107.161 300.965 107.803 302.068 107.551 303.273L125.316 308.325C125.939 308.124 126.735 308.296 127.303 308.754L153.979 281.582C153.823 281.339 153.68 281.224 153.651 280.966C153.265 279.834 153.886 278.458 155.006 278.07C155.87 277.711 156.808 277.998 157.406 278.714L162.973 275.344L193.745 256.985C193.359 255.853 193.994 254.605 195.1 254.089C196.22 253.702 197.584 254.332 197.97 255.464C198.141 255.836 198.17 256.094 198.086 256.496L232.931 265.11C233.128 264.566 233.581 263.992 234.332 263.777L230.078 243.225L278.949 232.885C278.832 231.853 279.497 230.864 280.504 230.62C281 230.434 281.525 230.505 282.05 230.576L295.35 205.173C294.938 204.958 294.639 204.6 294.58 204.084C294.194 202.952 294.815 201.575 295.935 201.188C296.431 201.001 297.084 201.059 297.496 201.273L320.844 160.629C320.56 160.4 320.261 160.042 320.075 159.54C319.689 158.408 320.309 157.032 321.429 156.645C322.549 156.257 323.913 156.887 324.299 158.019C324.485 158.521 324.401 158.922 324.332 159.453L352.646 172.069C352.858 171.653 353.339 171.338 353.835 171.151C354.828 170.778 355.907 171.179 356.534 172.153L424.057 142.6L424.213 142.844C423.999 142.084 424.039 141.296 424.492 140.722L403.691 120.205C403.45 120.363 403.337 120.507 403.082 120.535C401.962 120.923 400.598 120.293 400.212 119.161C399.826 118.028 400.446 116.652 401.566 116.265C402.318 116.049 402.971 116.106 403.54 116.565L444.578 68.8334C444.421 68.5898 444.264 68.3462 444.235 68.0882C443.878 67.214 444.16 66.2679 444.867 65.6657L428.875 44.2154C428.747 44.2298 428.747 44.2298 428.634 44.3731C427.514 44.7606 426.15 44.1305 425.764 42.9983C425.378 41.8662 425.999 40.4899 427.119 40.1025C427.743 39.9016 428.395 39.9586 428.95 40.2881L476.883 -18.54C476.726 -18.7836 476.442 -19.0128 476.398 -19.3998C476.012 -20.532 476.633 -21.9082 477.753 -22.2957C478.873 -22.6831 480.237 -22.053 480.623 -20.9208C480.98 -20.0467 480.586 -18.9572 479.878 -18.3549L506.744 26.1674L506.872 26.153C507.992 25.7655 509.356 26.3957 509.742 27.5278C509.957 28.2874 509.803 29.2191 509.351 29.7926L546.483 71.3294C546.596 71.1861 546.851 71.1573 546.965 71.0139C548.085 70.6265 549.448 71.2566 549.835 72.3888C550.221 73.5209 549.6 74.8972 548.48 75.2846C548.112 75.4567 547.856 75.4855 547.459 75.3997L538.636 114.146C539.304 114.332 539.745 114.805 539.96 115.564C540.346 116.696 539.725 118.073 538.605 118.46C538.35 118.489 538.109 118.647 537.839 118.546L534.42 145.58C535.088 145.766 535.671 146.353 535.999 146.97C536.185 147.471 536.13 148.131 535.918 148.546L569.088 167.539C569.314 167.252 569.668 166.951 570.165 166.764C571.285 166.377 572.648 167.007 573.035 168.139C573.406 169.142 573.012 170.232 572.162 170.719L585.128 196.299C586.248 195.911 587.485 196.556 588.013 197.803C588.399 198.935 587.778 200.311 586.658 200.699C586.035 200.899 585.382 200.842 584.827 200.513L563.874 229.13C564.158 229.36 564.33 229.732 564.486 229.976C564.873 231.108 564.252 232.484 563.132 232.872C562.012 233.259 560.648 232.629 560.262 231.497L560.247 231.368L489.396 241.702L489.425 241.96L489.14 241.73L487.991 241.86L488.586 241.401L451.835 220.461C451.609 220.748 451.255 221.049 450.759 221.235C449.894 221.594 448.957 221.308 448.359 220.591L420.312 239.035C420.326 239.164 420.326 239.164 420.468 239.278C420.855 240.411 420.234 241.787 419.114 242.174C417.994 242.562 416.9 242.032 416.401 241.043L359.149 312.416C359.306 312.66 359.591 312.889 359.634 313.276C360.02 314.408 359.4 315.785 358.28 316.172C357.16 316.559 355.796 315.929 355.41 314.797C355.224 314.296 355.308 313.894 355.392 313.493L285.995 283.951C285.783 284.367 285.316 284.812 284.82 284.998C284.324 285.185 283.799 285.113 283.401 285.028L269.728 314C270.14 314.215 270.454 314.702 270.64 315.204C271.026 316.336 270.405 317.712 269.285 318.1C268.406 318.329 267.611 318.158 267.027 317.57L244.685 336.155C244.827 336.27 244.842 336.399 244.871 336.657C245.257 337.789 244.636 339.165 243.516 339.552C242.396 339.94 241.032 339.31 240.646 338.178C240.632 338.049 240.632 338.049 240.617 337.92L188.608 342.212C188.582 343.129 188.031 343.975 187.152 344.205C186.032 344.592 184.668 343.962 184.282 342.83C184.067 342.07 184.235 341.268 184.688 340.694L164.11 318.715C163.87 318.873 163.756 319.016 163.373 319.06C162.253 319.447 161.159 318.917 160.66 317.928L132.13 330.94L132.145 331.069C132.531 332.201 131.91 333.577 130.79 333.965C130.039 334.18 129.244 334.008 128.675 333.55C128.248 333.206 127.935 332.719 127.749 332.217L89.572 335.343C89.601 335.601 89.5024 335.873 89.3893 336.017C89.0094 337.235 87.6486 337.78 86.4415 337.394C85.6318 337.093 85.0194 336.248 84.9177 335.345L78.4728 334.373L43.0391 328.568C42.517 329.672 41.2985 330.331 40.2044 329.802C38.9972 329.415 38.4543 328.039 38.8342 326.821C38.9183 326.419 39.1446 326.133 39.3854 325.975L17.8666 296.787C17.2573 297.117 16.619 297.189 15.937 296.874L6.13871 315.482L-38.2966 291.75C-38.8478 292.596 -39.9677 292.983 -40.9196 292.568C-41.4593 292.368 -41.8859 292.024 -42.0717 291.522L-68.5069 302.469C-68.3211 302.97 -68.4052 303.372 -68.6024 303.917C-68.9823 305.135 -70.3431 305.68 -71.5503 305.294C-72.09 305.093 -72.5166 304.749 -72.7024 304.248L-116.648 320.433C-116.605 320.82 -116.547 321.336 -116.758 321.752C-117.138 322.97 -118.499 323.516 -119.706 323.129C-120.913 322.743 -121.456 321.367 -121.076 320.148C-120.865 319.733 -120.653 319.317 -120.171 319.001L-134.053 291.043C-134.549 291.23 -135.074 291.158 -135.599 291.087C-136.679 290.686 -137.178 289.697 -137.039 288.636L-208.073 267.509L-207.975 267.237C-208.285 267.925 -208.865 268.513 -209.631 268.599L-206.588 297.909C-206.332 297.88 -206.063 297.981 -205.793 298.081C-204.585 298.467 -204.043 299.843 -204.423 301.061C-204.802 302.28 -206.163 302.825 -207.37 302.439C-208.052 302.124 -208.493 301.651 -208.708 300.891L-270.791 311.021C-270.762 311.279 -270.861 311.551 -270.959 311.824C-271.255 312.641 -272.091 313.257 -272.984 313.358L-274.218 340.276C-274.09 340.262 -274.076 340.391 -273.948 340.377C-272.741 340.763 -272.198 342.139 -272.578 343.357C-272.958 344.576 -274.319 345.121 -275.526 344.734C-276.193 344.548 -276.635 344.076 -276.835 343.445L-351.124 357.693C-351.095 357.951 -351.179 358.353 -351.278 358.625C-351.658 359.843 -353.018 360.389 -354.226 360.002C-355.549 358.584 -356.205 357.351 -355.697 356.118ZM-346.933 242.267C-347.174 242.425 -347.429 242.453 -347.557 242.468L-345.251 298.509C-344.995 298.481 -344.853 298.595 -344.711 298.71C-344.441 298.81 -344.157 299.039 -343.872 299.269L-319.542 281.113L-346.933 242.267ZM-287.766 192.493C-287.864 192.765 -288.076 193.181 -288.317 193.339L-275.128 211.708L-286.655 188.579L-288.155 190.185C-287.571 190.773 -287.47 191.676 -287.766 192.493ZM-290.368 238.245C-290.241 238.231 -290.098 238.345 -289.956 238.46L-274.718 216.496C-275.144 216.152 -275.345 215.521 -275.403 215.005L-290.077 214.438L-290.638 238.145C-290.638 238.145 -290.496 238.26 -290.368 238.245ZM-291.818 242.589L-302.73 263.935L-289.903 242.373C-290.385 242.688 -291.151 242.775 -291.818 242.589ZM-288.815 240.552L-277.627 221.657L-289.402 238.789C-289.088 239.277 -288.76 239.893 -288.815 240.552ZM-275.475 214.36C-275.49 214.231 -275.377 214.088 -275.391 213.959C-275.307 213.557 -275.081 213.271 -274.84 213.113L-288.798 193.654C-289.039 193.812 -289.294 193.841 -289.677 193.884L-290.149 213.793L-275.475 214.36ZM-273.99 212.625C-273.622 212.453 -273.111 212.396 -272.699 212.61L-247.008 145.707L-247.038 145.449L-247.18 145.335L-286.06 188.12L-273.99 212.625ZM-272.159 212.811C-272.017 212.926 -271.875 213.04 -271.732 213.155L-234.521 183.098L-245.703 145.822C-245.958 145.85 -246.341 145.893 -246.611 145.793L-272.159 212.811ZM-227.432 212.736C-227.731 212.377 -227.903 212.005 -227.946 211.618L-271.018 214.903C-270.989 215.161 -271.102 215.304 -271.201 215.577C-271.201 215.577 -271.187 215.706 -271.314 215.72L-244.322 232.665L-227.432 212.736ZM-258.027 249.885C-257.87 250.129 -257.713 250.372 -257.556 250.616L-230.174 243.481C-230.218 243.094 -230.134 242.693 -230.035 242.421C-230.035 242.421 -230.05 242.292 -229.922 242.277L-243.98 233.411L-258.027 249.885ZM-181.558 190.716L-221.401 175.61C-221.613 176.026 -221.967 176.327 -222.335 176.499L-211.391 204.789L-181.555 191.891C-181.598 191.504 -181.642 191.117 -181.558 190.716ZM-222.831 176.686C-222.959 176.7 -223.087 176.715 -223.214 176.729L-225.286 208.836C-225.158 208.822 -225.016 208.936 -224.888 208.922C-224.349 209.122 -223.922 209.466 -223.736 209.968L-211.901 204.846L-222.831 176.686ZM-223.853 176.801C-223.98 176.815 -224.123 176.701 -224.25 176.715C-224.52 176.615 -224.805 176.386 -225.075 176.285L-233.839 183.413L-226.165 209.066C-226.037 209.051 -226.037 209.051 -225.91 209.037L-223.853 176.801ZM-234.193 183.714L-271.291 213.628C-271.135 213.871 -271.106 214.129 -270.949 214.373L-227.877 211.087C-227.906 210.829 -227.793 210.686 -227.694 210.414C-227.497 209.869 -227.03 209.424 -226.548 209.109L-234.193 183.714ZM-233.926 182.639L-225.275 175.655C-225.603 175.039 -225.676 174.394 -225.493 173.72C-225.394 173.448 -225.168 173.161 -224.942 172.874L-230.454 165.265L-244.824 145.592L-244.951 145.606L-233.926 182.639ZM-224.46 172.559C-223.851 172.229 -223.212 172.157 -222.531 172.472C-221.579 172.887 -220.952 173.862 -221.091 174.922L-213.562 167.151L-244.229 145.133C-244.229 145.133 -244.229 145.133 -244.342 145.276L-224.46 172.559ZM-220.664 175.266L-181.361 190.171L-213.15 167.365L-220.664 175.266ZM-181.241 192.378L-211.063 205.405L-198.245 238.839C-197.862 238.796 -197.607 238.767 -197.209 238.853L-180.359 193.324C-180.786 192.98 -181.07 192.751 -181.241 192.378ZM-211.686 205.606L-223.521 210.727C-223.478 211.114 -223.42 211.63 -223.631 212.046C-223.73 212.318 -223.843 212.462 -223.942 212.734L-199.11 239.198C-198.982 239.183 -198.997 239.054 -198.869 239.04L-211.686 205.606ZM-224.551 213.064C-224.679 213.078 -224.792 213.222 -224.919 213.236L-216.754 242.1L-200.099 240.746C-200.128 240.488 -200.015 240.345 -199.916 240.072C-199.818 239.8 -199.704 239.656 -199.606 239.384L-224.551 213.064ZM-217.065 242.788L-225.648 243.494C-225.633 243.623 -225.746 243.766 -225.732 243.895C-225.831 244.168 -226.057 244.454 -226.283 244.741L-211.333 263.827C-211.205 263.812 -211.22 263.683 -211.092 263.669L-217.065 242.788ZM-225.706 242.978L-217.251 242.286L-225.416 213.423C-225.543 213.437 -225.671 213.452 -225.926 213.48L-227.485 240.958C-227.357 240.943 -227.357 240.943 -227.215 241.058C-226.278 241.344 -225.808 242.075 -225.706 242.978ZM-226.452 213.409C-226.721 213.309 -226.864 213.194 -226.991 213.208L-243.768 232.995L-229.725 241.732C-229.272 241.159 -228.649 240.958 -228.01 240.886L-226.452 213.409ZM-229.989 243.983L-257.371 251.117C-257.327 251.504 -257.411 251.906 -257.51 252.178C-257.623 252.322 -257.608 252.451 -257.707 252.723L-243.44 265.746L-229.376 244.828C-229.661 244.599 -229.945 244.37 -229.989 243.983ZM-244.534 233.081L-271.384 216.251C-271.61 216.537 -271.851 216.695 -272.092 216.853L-260.043 249.198C-259.66 249.155 -259.15 249.097 -258.738 249.312C-258.595 249.427 -258.468 249.412 -258.325 249.527L-244.534 233.081ZM-272.715 217.054C-273.098 217.097 -273.609 217.154 -274.021 216.94L-274.149 216.954L-305.75 270.415C-305.465 270.644 -305.323 270.759 -305.166 271.002L-261.909 252.151C-262.094 251.65 -262.01 251.248 -261.813 250.704C-261.616 250.159 -261.277 249.729 -260.78 249.542L-272.715 217.054ZM-261.595 252.638L-304.853 271.49C-304.667 271.991 -304.737 272.522 -304.948 272.937C-305.047 273.21 -305.146 273.482 -305.386 273.64L-293.815 286.836L-261.438 252.882C-261.581 252.767 -261.595 252.638 -261.595 252.638ZM-308.141 299.684C-308.155 299.555 -308.057 299.283 -308.071 299.154C-307.987 298.752 -307.761 298.466 -307.52 298.308L-319.229 281.6L-343.559 299.756C-343.402 299.999 -343.373 300.257 -343.344 300.515L-308.141 299.684ZM-341.612 300.973L-276.499 309.705L-303.866 300.901C-304.389 302.005 -305.622 302.535 -306.701 302.135C-307.511 301.834 -307.981 301.103 -308.196 300.343L-341.612 300.973ZM-307.039 297.992C-306.798 297.835 -306.542 297.806 -306.415 297.791L-307.484 274.529C-307.612 274.544 -307.882 274.443 -308.009 274.458C-308.279 274.358 -308.564 274.128 -308.848 273.899L-318.86 281.428L-307.039 297.992ZM-305.776 297.72C-305.521 297.691 -305.379 297.805 -305.109 297.906C-304.839 298.006 -304.697 298.12 -304.555 298.235L-294.154 287.266L-305.726 274.07C-305.967 274.228 -306.335 274.4 -306.718 274.443L-305.776 297.72ZM-293.855 287.624L-304.27 298.464C-303.829 298.937 -303.757 299.582 -303.812 300.241L-275.507 309.332C-275.393 309.188 -275.295 308.916 -275.182 308.772L-293.855 287.624ZM-275.504 310.507L-343.242 301.418C-343.228 301.547 -343.228 301.547 -343.341 301.691C-343.341 301.691 -343.341 301.691 -343.326 301.82L-301.131 326.327L-275.274 311.395C-275.445 311.023 -275.474 310.765 -275.504 310.507ZM-346.338 241.808C-346.466 241.822 -346.466 241.822 -346.338 241.808L-319.061 280.797L-309.048 273.269C-309.376 272.652 -309.449 272.007 -309.139 271.319C-309.153 271.19 -309.04 271.047 -308.927 270.904L-346.338 241.808ZM-345.999 241.378L-308.573 270.602C-308.219 270.301 -307.851 270.129 -307.482 269.957L-310.398 240.633L-345.575 240.546C-345.561 240.675 -345.659 240.948 -345.645 241.077C-345.9 241.105 -346.013 241.249 -345.999 241.378ZM-313.743 215.537C-314.013 215.436 -314.297 215.207 -314.581 214.978L-346.005 239.027C-345.848 239.271 -345.819 239.529 -345.776 239.916L-310.599 240.002L-313.09 215.594C-313.218 215.608 -313.487 215.508 -313.743 215.537ZM-306.971 269.899C-306.716 269.871 -306.574 269.985 -306.319 269.957L-292.23 242.374C-292.785 242.044 -293.24 241.443 -293.327 240.669L-309.887 240.575L-306.971 269.899ZM-311.828 215.321C-312.069 215.479 -312.324 215.507 -312.437 215.651L-309.931 240.188L-293.243 240.267C-293.258 240.138 -293.159 239.866 -293.174 239.737C-293.075 239.465 -292.849 239.178 -292.736 239.034L-311.828 215.321ZM-311.361 214.876L-292.283 238.461C-291.915 238.289 -291.674 238.131 -291.291 238.088L-290.73 214.381L-310.725 213.629C-310.711 213.758 -310.824 213.901 -310.809 214.03C-311.021 214.446 -311.12 214.718 -311.361 214.876ZM-290.6 193.727C-290.87 193.626 -291.012 193.512 -291.297 193.283L-311.184 211.852C-311.013 212.225 -310.842 212.597 -310.798 212.984L-290.802 213.736L-290.33 193.827C-290.33 193.827 -290.458 193.841 -290.6 193.727ZM-290.314 189.383C-289.931 189.34 -289.42 189.283 -289.008 189.498C-288.866 189.612 -288.596 189.712 -288.454 189.827L-286.841 188.078L-302.548 156.537L-290.314 189.383ZM-286.516 187.519L-247.734 145.005C-247.891 144.762 -248.062 144.389 -248.219 144.146L-302.604 151.449C-302.575 151.707 -302.673 151.979 -302.772 152.251C-302.984 152.667 -303.195 153.083 -303.677 153.398L-286.516 187.519ZM-248.109 142.827L-278.983 128.148L-303.019 150.058C-302.862 150.302 -302.706 150.546 -302.676 150.804L-248.291 143.501C-248.193 143.228 -248.207 143.099 -248.109 142.827ZM-297.874 121.132L-304.142 149.271C-303.872 149.371 -303.73 149.485 -303.446 149.715L-279.523 127.947L-295.649 120.228C-296.229 120.816 -296.966 121.16 -297.874 121.132ZM-260.967 110.181L-295.44 118.637C-295.411 118.895 -295.495 119.297 -295.594 119.569L-279.198 127.388L-260.795 110.554C-260.81 110.425 -260.952 110.31 -260.967 110.181ZM-259.658 111.471C-259.928 111.37 -260.07 111.256 -260.354 111.027L-278.516 127.703L-248.324 142.067L-258.494 111.47C-258.863 111.642 -259.26 111.556 -259.658 111.471ZM-257.148 110.796C-257.374 111.083 -257.615 111.24 -257.856 111.398L-247.685 141.995C-247.12 141.278 -246.113 141.034 -245.176 141.321C-244.238 141.607 -243.753 142.467 -243.652 143.37L-196.571 148.124L-257.148 110.796ZM-243.834 144.043C-243.82 144.172 -243.948 144.187 -243.933 144.316C-243.918 144.445 -244.046 144.459 -244.032 144.588L-213.238 166.592L-196.101 148.855L-243.834 144.043ZM-195.546 149.184L-212.811 166.935L-181.164 189.626C-180.923 189.469 -180.81 189.325 -180.569 189.167L-195.546 149.184ZM-178.43 193.237C-178.926 193.424 -179.436 193.481 -179.962 193.41L-196.812 238.939C-196.669 239.053 -196.4 239.153 -196.257 239.268L-164.851 213.914L-178.43 193.237ZM-195.543 241.016L-167.167 245.004L-158.763 246.147L-143.787 248.248C-143.576 247.832 -143.364 247.417 -142.995 247.245L-164.538 214.402L-195.958 239.626C-195.645 240.113 -195.459 240.615 -195.543 241.016ZM-143.884 195.746L-177.17 191.789C-177.156 191.918 -177.156 191.918 -177.269 192.061C-177.353 192.463 -177.579 192.75 -177.933 193.051L-164.355 213.728L-143.484 197.007C-143.655 196.635 -143.841 196.133 -143.884 195.746ZM-142.346 197.924C-142.616 197.824 -142.9 197.595 -143.17 197.494L-164.042 214.215L-142.499 247.058C-142.244 247.029 -142.131 246.886 -141.875 246.857L-141.842 237.971L-141.948 198.01C-142.076 198.024 -142.218 197.91 -142.346 197.924ZM-141.296 198.067L-141.233 237.641L-141.208 247.043C-141.08 247.029 -140.938 247.143 -140.81 247.129C-140.398 247.344 -140.114 247.573 -139.815 247.931L-122.102 238.751L-140.913 198.024C-141.04 198.038 -141.168 198.053 -141.296 198.067ZM-59.7566 220.623C-59.8843 220.638 -60.012 220.652 -60.1396 220.666L-63.0167 243.328L-65.0042 258.966C-64.8766 258.952 -64.8766 258.952 -64.7344 259.067C-64.0669 259.253 -63.6113 259.855 -63.4109 260.485L-49.5123 257.613L-59.7566 220.623ZM-48.8885 257.412L-12.8799 249.959C-12.909 249.701 -12.825 249.299 -12.7264 249.027C-12.7264 249.027 -12.7409 248.898 -12.6132 248.884L-58.2972 219.806C-58.5235 220.092 -58.892 220.265 -59.1328 220.422L-48.8885 257.412ZM-63.571 242.999L-60.6503 220.724C-60.778 220.738 -60.778 220.738 -60.9202 220.624C-61.1901 220.523 -61.4745 220.294 -61.7589 220.065L-89.1873 241.705L-67.1455 259.469C-66.6784 259.024 -66.1823 258.838 -65.544 258.766L-63.571 242.999ZM-102.062 229.57C-102.018 229.957 -102.117 230.229 -102.201 230.63C-102.314 230.774 -102.299 230.903 -102.412 231.046L-89.614 241.361L-62.0724 219.578C-62.0869 219.449 -62.2291 219.334 -62.2437 219.205L-102.062 229.57ZM-62.3599 218.173L-84.3849 212.033L-102.448 228.438C-102.306 228.552 -102.276 228.81 -102.134 228.925L-62.3018 218.689C-62.444 218.575 -62.3454 218.302 -62.3599 218.173ZM-102.752 231.476C-103.219 231.921 -103.97 232.136 -104.623 232.079L-111.437 257.666C-111.295 257.781 -111.138 258.025 -111.109 258.283L-90.2087 241.82L-102.752 231.476ZM-89.6544 242.149L-110.909 258.913C-110.895 259.042 -110.88 259.171 -110.865 259.3L-67.8939 260.86C-67.9084 260.731 -67.7954 260.587 -67.8099 260.458C-67.6967 260.315 -67.7112 260.186 -67.5981 260.042L-89.6544 242.149ZM-67.8358 261.376L-96.3886 260.412L-110.92 259.96C-110.92 259.96 -110.92 259.96 -110.906 260.088C-111.004 260.361 -111.118 260.504 -111.231 260.648L-87.5105 285.277L-67.2784 262.88C-67.6064 262.264 -67.7776 261.891 -67.8358 261.376ZM-105.163 231.879C-105.575 231.664 -105.859 231.435 -106.158 231.076L-121.307 238.923L-113.086 256.807C-112.83 256.778 -112.56 256.879 -112.291 256.979C-112.148 257.093 -112.021 257.079 -111.879 257.194L-105.163 231.879ZM-121.916 239.253L-139.516 248.289C-139.345 248.662 -139.301 249.049 -139.385 249.45L-115.14 258.084C-114.815 257.524 -114.348 257.08 -113.724 256.879L-121.916 239.253ZM-115.322 258.757L-139.44 250.11C-139.637 250.655 -140.104 251.099 -140.601 251.286L-130.755 282.442L-114.707 260.778C-115.163 260.176 -115.505 259.431 -115.322 258.757ZM-140.062 197.536C-140.19 197.55 -140.176 197.679 -140.303 197.694L-121.492 238.421L-106.344 230.575C-106.53 230.073 -106.588 229.557 -106.391 229.012C-106.278 228.869 -106.292 228.74 -106.179 228.597L-140.062 197.536ZM-139.624 196.834C-139.61 196.963 -139.738 196.977 -139.723 197.106L-105.854 228.038C-105.274 227.45 -104.38 227.349 -103.571 227.65C-103.301 227.75 -103.031 227.85 -102.874 228.094L-85.1801 211.862L-139.624 196.834ZM-49.7219 178.867L-138.092 196.661L-84.4576 211.388L-49.4084 179.354C-49.5506 179.239 -49.7074 178.996 -49.7219 178.867ZM-49.0949 179.841L-83.9179 211.589L-62.1773 217.5C-61.7683 216.539 -60.6774 215.894 -59.7401 216.18L-48.5406 180.171C-48.8105 180.07 -48.9527 179.956 -49.0949 179.841ZM-46.8519 180.242C-47.2203 180.414 -47.6033 180.457 -48.0009 180.371L-59.2003 216.38C-58.1063 216.91 -57.5779 218.157 -57.9724 219.246C-57.9724 219.246 -57.9578 219.375 -58.0855 219.39L-12.4014 248.468C-12.2883 248.324 -12.1752 248.181 -11.9344 248.023L-46.8519 180.242ZM-8.53601 250.645C-8.62008 251.046 -8.974 251.347 -9.20028 251.634L-2.20207 263.255L21.2811 246.763C21.2665 246.634 21.1098 246.39 21.0953 246.261L-8.36782 249.842C-8.33876 250.1 -8.4374 250.372 -8.53601 250.645ZM21.6941 236.658C21.1543 236.457 20.8553 236.099 20.5564 235.741L-8.44049 249.197L-8.42595 249.326L21.0371 245.745C21.0081 245.487 21.1067 245.215 21.2053 244.943C21.5011 244.126 22.0958 243.667 22.8473 243.451L22.3615 236.844C22.0916 236.744 21.8363 236.773 21.6941 236.658ZM23.9631 236.141C23.6091 236.442 23.2407 236.614 22.8722 236.786L23.358 243.394C23.6134 243.365 23.7556 243.48 24.0254 243.58C24.5652 243.78 25.0063 244.253 25.3198 244.74L31.7989 242.573L23.9631 236.141ZM25.3811 246.432C25.3956 246.561 25.3956 246.561 25.3811 246.432L72.9107 275.824L32.3532 242.903L25.5056 245.242C25.5492 245.629 25.5928 246.016 25.3811 246.432ZM57.3065 267.001L25.0707 247.12C24.8444 247.407 24.4905 247.708 24.122 247.88L33.1166 289.844L74.423 278.92C74.3794 278.533 74.4635 278.131 74.5621 277.859C74.5621 277.859 74.5476 277.73 74.6752 277.715L57.3065 267.001ZM53.8446 235.126L24.726 234.879C24.7406 235.008 24.6274 235.152 24.6564 235.41C24.5433 235.553 24.5578 235.682 24.4447 235.826L32.565 242.487L53.8736 235.384C53.8446 235.126 53.8446 235.126 53.8446 235.126ZM56.7727 237.016C56.2766 237.203 55.7513 237.132 55.2116 236.931C54.6718 236.731 54.2307 236.258 53.9172 235.771L32.977 242.702L74.971 276.898C75.0842 276.755 75.2119 276.741 75.325 276.597L56.7727 237.016ZM75.9488 276.396C76.445 276.21 76.9702 276.281 77.51 276.482C78.0497 276.682 78.4763 277.026 78.6621 277.527L84.6014 275.16L57.7536 237.69L75.9488 276.396ZM102.864 301.841C102.85 301.712 102.977 301.698 102.963 301.569L78.1868 280.194C77.9459 280.351 77.7051 280.509 77.3366 280.681L82.9514 311.008L102.896 303.274C102.725 302.902 102.667 302.386 102.864 301.841ZM78.7379 279.348C78.6248 279.491 78.6393 279.62 78.5262 279.764L103.288 301.01L84.8859 275.389L78.8334 277.9C78.8915 278.416 78.9497 278.932 78.7379 279.348ZM57.7359 236.385L57.6228 236.529L85.083 274.845L100.406 268.546C100.234 268.174 100.304 267.643 100.501 267.099C100.487 266.97 100.614 266.955 100.6 266.826L57.7359 236.385ZM102.524 270.136C102.269 270.165 102.127 270.051 101.857 269.95C101.317 269.75 100.89 269.406 100.705 268.904L85.5097 275.188L103.769 300.694C104.01 300.536 104.251 300.379 104.506 300.35L102.524 270.136ZM107.182 303.445C107.083 303.717 106.985 303.989 106.744 304.147L120.452 320.238L126.617 317.584L125.54 312.611C124.519 312.726 123.538 312.052 123.294 311.035C122.922 310.032 123.331 309.071 124.039 308.469L106.941 303.602L107.182 303.445ZM127.241 317.383L137.602 312.95C137.588 312.821 137.573 312.692 137.559 312.563L127.678 310.933C127.495 311.606 126.915 312.194 126.291 312.395L127.241 317.383ZM127.533 309.643C127.562 309.901 127.719 310.144 127.62 310.417L135.527 311.747L127.533 309.643ZM138.244 314.053C138.102 313.938 137.945 313.695 137.803 313.58L127.442 318.013L129.727 329.121C129.983 329.092 130.125 329.206 130.395 329.307L135.717 319.171L138.244 314.053ZM129.089 329.193L126.832 318.343L120.907 320.84L128.352 329.537C128.578 329.25 128.834 329.221 129.089 329.193ZM154.42 282.055L127.318 308.883L137.472 311.789L137.457 311.66C137.851 310.57 138.957 310.054 140.007 310.197L154.42 282.055ZM193.931 257.486L185.459 262.621L157.847 279.187C157.861 279.316 158.004 279.431 158.018 279.56C158.233 280.319 158.178 280.979 157.74 281.681L173.739 295.162L194.23 257.845C194.215 257.716 194.073 257.601 193.931 257.486ZM194.799 258.303L174.166 295.506L197.732 315.319C197.972 315.161 198.213 315.004 198.582 314.831C198.709 314.817 198.837 314.803 198.965 314.788L195.608 258.604C195.196 258.389 194.941 258.418 194.799 258.303ZM221.168 313.332L258.431 307.827C258.387 307.44 258.599 307.025 258.683 306.623L225.323 280.206L200.697 315.246C200.982 315.476 201.153 315.848 201.324 316.221L201.339 316.35L221.168 313.332ZM203.68 316.478L255.429 315.611L259.258 309.432C258.974 309.203 258.675 308.845 258.503 308.472L258.489 308.343L203.68 316.478ZM199.955 318.988C199.459 319.174 198.934 319.103 198.394 318.902L195.415 324.594L239.491 335.956L201.002 317.955C200.805 318.5 200.451 318.801 199.955 318.988ZM197.854 318.702C197.442 318.487 197.143 318.129 197.085 317.613C197.071 317.484 197.041 317.226 197.027 317.097L164.658 316.694L194.89 324.522L197.854 318.702ZM197.352 258.015C197.111 258.173 196.871 258.331 196.615 258.36C196.36 258.388 196.119 258.546 195.977 258.432L199.319 314.487C199.574 314.458 199.972 314.544 200.256 314.774L224.896 279.862L197.352 258.015ZM232.992 266.802C232.821 266.429 232.792 266.171 232.876 265.77L198.031 257.155C197.918 257.299 197.932 257.428 197.819 257.571L225.349 279.289L233.59 267.518C233.32 267.418 233.022 267.06 232.992 266.802ZM234.031 267.991L225.79 279.762L259.15 306.179L259.263 306.035L251.197 292.967L235.99 268.162C235.862 268.176 235.862 268.176 235.735 268.191C235.239 268.377 234.586 268.32 234.031 267.991ZM281.79 282.205L269.15 277.881L261.547 305.647C261.689 305.762 261.817 305.748 261.959 305.862L282.264 284.111C282.107 283.867 281.95 283.623 281.921 283.365C281.75 282.993 281.706 282.606 281.79 282.205ZM268.61 277.681L237.136 266.857C237.037 267.13 236.811 267.416 236.585 267.703L251.806 292.637L259.73 305.591L259.858 305.576C260.226 305.404 260.609 305.361 260.879 305.461L268.61 277.681ZM279.149 233.516L230.789 243.798L234.843 263.719C235.482 263.647 236.163 263.962 236.605 264.435L279.193 233.903C279.178 233.774 279.164 233.645 279.149 233.516ZM279.634 234.376L237.046 264.908C237.06 265.037 237.202 265.152 237.217 265.281C237.388 265.653 237.432 266.04 237.348 266.442L268.807 277.136L280.33 234.82C280.06 234.72 279.776 234.49 279.634 234.376ZM297.578 205.444C297.45 205.459 297.451 205.459 297.323 205.473C296.827 205.66 296.301 205.588 295.776 205.517L282.477 230.92C282.889 231.135 283.188 231.493 283.246 232.009C283.403 232.253 283.446 232.64 283.348 232.912L316.509 238.059C316.593 237.657 316.933 237.227 317.287 236.926L297.578 205.444ZM358.199 211.024L375.689 219.373L383.459 201.124C383.047 200.909 382.762 200.68 382.591 200.308L358.648 209.275C358.706 209.791 358.651 210.451 358.199 211.024ZM357.859 211.454C357.618 211.612 357.377 211.77 357.122 211.799C356.994 211.813 356.867 211.827 356.611 211.856L367.431 235.587C367.799 235.415 368.324 235.487 368.722 235.573L375.349 219.803L357.859 211.454ZM354.179 209.779L320.554 206.252L319.3 236.438C319.698 236.524 320.11 236.739 320.537 237.083L342.995 219.53L354.409 210.667C354.409 210.667 354.409 210.667 354.394 210.538C354.223 210.166 354.208 210.037 354.179 209.779ZM320.722 237.584C320.737 237.713 320.879 237.828 320.894 237.957C320.908 238.086 320.923 238.215 320.937 238.344L349.075 237.917L354.751 211.413C354.609 211.298 354.595 211.169 354.452 211.054L320.722 237.584ZM349.841 237.83L365.974 237.58C366.029 236.921 366.482 236.347 366.949 235.903L355.973 211.928C355.718 211.957 355.576 211.842 355.306 211.742L349.841 237.83ZM367.13 239.802L343.238 273.322C343.38 273.437 343.522 273.551 343.551 273.809L364.201 264.298L367.556 240.145C367.414 240.031 367.272 239.916 367.13 239.802ZM366.575 239.472C366.291 239.243 366.134 238.999 365.963 238.627C365.948 238.498 365.934 238.369 365.905 238.111L349.644 238.375L342.271 272.778C342.399 272.763 342.541 272.878 342.541 272.878L366.575 239.472ZM349.133 238.433L321.138 238.974C321.068 239.505 320.743 240.064 320.404 240.494L328.911 254.035L340.739 272.95C340.867 272.936 340.867 272.936 340.995 272.922C341.235 272.764 341.618 272.721 341.888 272.821L349.133 238.433ZM328.131 253.993L319.78 240.695C319.652 240.709 319.652 240.709 319.525 240.724C318.901 240.925 318.12 240.882 317.566 240.552L308.741 251.736L339.889 273.438C340.002 273.295 340.002 273.295 340.115 273.151L328.131 253.993ZM317.139 240.209C316.983 239.965 316.698 239.736 316.655 239.349C316.626 239.091 316.469 238.847 316.567 238.575L283.406 233.428C283.293 233.572 283.307 233.701 283.194 233.844L308.329 251.521L317.139 240.209ZM298.06 205.129L317.896 236.596C318.024 236.582 318.024 236.582 318.151 236.568C318.279 236.553 318.534 236.524 318.662 236.51L319.901 206.195L298.837 203.996C298.753 204.397 298.414 204.828 298.06 205.129ZM321.398 160.959L298.05 201.603C298.335 201.832 298.634 202.19 298.82 202.692C298.849 202.95 299.005 203.193 298.892 203.337L319.956 205.536L321.796 161.045C321.668 161.059 321.526 160.945 321.398 160.959ZM322.959 161.044C322.832 161.059 322.576 161.087 322.449 161.102L320.609 205.593L354.234 209.119C354.319 208.718 354.53 208.302 354.884 208.001L323.2 160.887C323.2 160.887 323.073 160.901 322.959 161.044ZM323.908 160.284C323.795 160.428 323.795 160.428 323.682 160.571L355.366 207.686C355.493 207.671 355.479 207.542 355.607 207.528C355.734 207.514 355.862 207.499 355.99 207.485L354.583 180.08L323.908 160.284ZM352.481 174.047C352.295 173.545 352.379 173.144 352.449 172.614L325.626 160.613L354.51 179.435L354.33 175.537C353.549 175.494 352.71 174.936 352.481 174.047ZM356.628 207.413C357.409 207.456 358.105 207.9 358.433 208.516L382.391 199.677C382.19 199.046 382.26 198.516 382.457 197.971L355.265 180.395L356.628 207.413ZM356.073 174.949C355.833 175.106 355.592 175.264 355.351 175.422C355.223 175.436 355.096 175.451 354.968 175.465L355.192 179.75L381.119 196.424L356.073 174.949ZM424.37 143.087L356.705 172.526C356.906 173.157 356.723 173.83 356.398 174.389L382.895 197.269C383.136 197.111 383.377 196.953 383.618 196.795C384.369 196.58 385.022 196.637 385.591 197.096L424.84 143.818C424.698 143.703 424.414 143.474 424.37 143.087ZM386.145 197.425C386.16 197.554 386.287 197.54 386.302 197.669L418.785 177.288L430.501 169.959C430.486 169.83 430.486 169.83 430.472 169.701C430.086 168.569 430.706 167.193 431.826 166.806L426.828 144.247C426.317 144.305 425.792 144.233 425.38 144.018L386.145 197.425ZM386.647 199.589L423.742 210.955L431.824 171.378C431.427 171.292 431.128 170.934 430.843 170.705L406.562 185.85L399.436 190.311L386.63 198.285C386.673 198.672 386.731 199.188 386.647 199.589ZM491.242 215.629L528.54 212.733L528.525 212.604L496.051 204.376C495.854 204.92 495.401 205.494 494.65 205.709C493.657 206.082 492.578 205.681 492.093 204.821L491.242 215.629ZM491.568 204.75L452.015 218.612L490.589 215.572L491.568 204.75ZM452.654 149.698L446.597 155.605L470.992 172.451C471.105 172.308 471.218 172.165 471.346 172.15L455.153 150.069C455.025 150.084 455.025 150.084 454.912 150.227C454.16 150.442 453.238 150.285 452.654 149.698ZM451.328 120.717L404.71 118.915C404.724 119.044 404.611 119.187 404.64 119.445L452.59 146.831C452.816 146.544 453.17 146.243 453.666 146.057C453.794 146.042 453.794 146.042 453.922 146.028L451.328 120.717ZM451.926 147.82L428.47 142.756C428.485 142.885 428.357 142.899 428.372 143.028L446.17 155.262L452.341 149.211C452.326 149.082 452.184 148.967 452.17 148.838C451.998 148.465 451.955 148.078 451.926 147.82ZM503.852 107.222C504.491 107.15 505.158 107.337 505.727 107.795L518.498 97.212L497.825 76.6809C497.712 76.8243 497.457 76.8531 497.344 76.9964L503.852 107.222ZM498.143 84.091L501.969 108.871C502.152 108.198 502.619 107.753 503.228 107.423L498.143 84.091ZM504.999 111.665C504.872 111.68 504.744 111.694 504.616 111.708L506.844 138.367C507.369 138.439 507.909 138.639 508.336 138.983L519.862 129.977L505.353 111.364C505.24 111.507 505.127 111.651 504.999 111.665ZM503.978 111.78C503.325 111.723 502.771 111.394 502.315 110.792L505.665 132.491L503.978 111.78ZM496.592 77.2117C496.337 77.2405 496.067 77.1403 495.812 77.1691L474.597 119.532C475.009 119.747 475.322 120.234 475.494 120.607C475.68 121.108 475.625 121.768 475.413 122.183L504.874 139.242C505.1 138.955 505.454 138.654 505.95 138.468L506.078 138.453L496.592 77.2117ZM448.675 67.3268L476.442 71.6442L477.466 56.637C476.799 56.451 476.245 56.1215 475.917 55.5053L448.474 66.6962C448.631 66.9398 448.646 67.0688 448.675 67.3268ZM477.08 71.5723L494.314 74.2027C494.413 73.9303 494.624 73.5146 494.865 73.3568L479.48 56.1489C479.367 56.2923 479.111 56.3211 478.998 56.4644C478.743 56.4932 478.615 56.5076 478.36 56.5364L477.08 71.5723ZM494.218 75.6504C494.189 75.3924 494.033 75.1488 494.131 74.8764L477.025 72.2317L473.773 119.102C473.9 119.088 474.043 119.203 474.043 119.203L495.257 76.8396C494.831 76.4958 494.404 76.152 494.218 75.6504ZM473.331 145.017L504.509 140.59C504.48 140.332 504.564 139.93 504.662 139.658L475.059 122.484C474.833 122.771 474.479 123.072 473.982 123.259C473.855 123.273 473.599 123.302 473.472 123.316L473.331 145.017ZM472.976 123.503C472.706 123.403 472.45 123.431 472.166 123.202L455.767 146.343C456.052 146.572 456.223 146.944 456.38 147.188L456.394 147.317L472.678 144.96L472.976 123.503ZM505.365 142.453L474.511 172.708C474.668 172.952 474.81 173.066 474.839 173.324C475.04 173.955 474.97 174.485 474.773 175.03L496.579 189.555L506.047 142.768C505.777 142.668 505.507 142.567 505.365 142.453ZM474.434 175.46L474.32 175.603L493.021 201.582C493.149 201.567 493.262 201.424 493.389 201.41C493.63 201.252 494.013 201.209 494.283 201.309L496.524 190.214L474.434 175.46ZM474.07 172.235L504.924 141.98C504.767 141.736 504.625 141.622 504.596 141.364L504.581 141.235L473.276 145.676L472.976 171.705C473.374 171.791 473.786 172.006 474.07 172.235ZM472.637 145.748L456.339 147.976C456.284 148.636 456.101 149.309 455.507 149.768L471.699 171.849C471.699 171.849 471.699 171.849 471.827 171.835C471.955 171.82 472.21 171.792 472.338 171.777L472.637 145.748ZM455.341 145.999L471.739 122.858C471.455 122.629 471.284 122.257 471.127 122.013C471.112 121.884 471.083 121.626 471.069 121.497L451.981 120.774L454.418 145.841C454.673 145.813 454.943 145.913 455.341 145.999ZM470.996 120.852C471.051 120.193 471.391 119.763 471.985 119.304L447.233 69.4487C447.105 69.463 447.105 69.463 446.978 69.4774L451.894 120L470.996 120.852ZM472.481 119.117C472.737 119.088 472.865 119.074 473.12 119.045L476.372 72.1746L448.605 67.8571C448.536 68.3875 448.196 68.8176 447.715 69.1331L472.481 119.117ZM448.117 65.822L505.66 29.1634C505.645 29.0344 505.645 29.0344 505.631 28.9054C505.631 28.9054 505.631 28.9054 505.616 28.7765L457.818 37.1662L447.534 65.2346C447.691 65.4782 447.961 65.5784 448.117 65.822ZM449.394 65.6782L475.844 54.8604C475.585 53.7138 476.093 52.481 477.213 52.0935C477.964 51.8782 478.887 52.0355 479.456 52.494L504.641 30.4538L449.394 65.6782ZM479.692 55.7332L495.219 73.0557C495.332 72.9123 495.588 72.8835 495.715 72.8692C496.084 72.697 496.339 72.6682 496.737 72.7541L499.627 60.5411L480.159 55.2886C479.918 55.4464 479.805 55.5898 479.692 55.7332ZM497.262 72.8255C497.802 73.026 498.37 73.4844 498.585 74.244C498.6 74.373 498.614 74.502 498.629 74.631L545.494 72.8778C545.494 72.8778 545.494 72.8778 545.479 72.7488L500.152 60.6125L497.262 72.8255ZM545.723 73.7664C545.709 73.6374 545.694 73.5084 545.68 73.3794L498.672 75.0179C498.588 75.4193 498.504 75.8207 498.293 76.2364L518.852 96.9109L545.909 74.268C545.767 74.1534 545.752 74.0244 545.723 73.7664ZM518.812 97.6992L506.055 108.411C506.197 108.526 506.212 108.655 506.241 108.913C506.397 109.156 506.441 109.543 506.342 109.816L535.703 115.652C535.802 115.379 535.915 115.236 536.013 114.964L518.812 97.6992ZM535.848 116.942C535.692 116.698 535.648 116.311 535.747 116.039L506.386 110.203C506.302 110.604 506.076 110.891 505.849 111.178L520.216 129.676L536.02 117.314C536.005 117.185 535.863 117.071 535.848 116.942ZM520.176 130.464L508.649 139.47C508.664 139.599 508.806 139.714 508.82 139.843C508.992 140.215 509.021 140.473 508.937 140.875L531.855 146.914C531.954 146.642 532.18 146.355 532.293 146.211L520.176 130.464ZM531.902 148.476C531.731 148.104 531.702 147.846 531.786 147.444L510.202 141.777L533.6 152.073L533.736 149.837C532.828 149.809 532.117 149.236 531.902 148.476ZM508.655 141.821C508.444 142.236 508.09 142.538 507.721 142.71L530.365 210.568L530.507 210.683L530.634 210.668L533.432 152.876L508.655 141.821ZM507.225 142.896C506.97 142.925 506.842 142.939 506.587 142.968L497.02 190.028L529.047 211.5C529.274 211.213 529.514 211.056 529.755 210.898L507.225 142.896ZM496.951 190.558L494.695 201.524C495.363 201.71 495.804 202.183 496.146 202.928C496.318 203.3 496.347 203.558 496.263 203.96L505.308 206.206L528.723 212.059C528.723 212.059 528.708 211.93 528.836 211.916L496.951 190.558ZM492.426 202.041L473.726 176.062C473.598 176.077 473.485 176.22 473.357 176.234C472.861 176.421 472.208 176.364 471.796 176.149L465.98 187.647L492.2 202.327C492.313 202.184 492.299 202.055 492.426 202.041ZM471.242 175.82C470.957 175.59 470.658 175.232 470.473 174.731C470.444 174.473 470.287 174.229 470.385 173.957L434.729 169.614C434.743 169.743 434.615 169.757 434.63 169.886L465.539 187.174L471.242 175.82ZM434.711 168.309C434.74 168.567 434.897 168.811 434.798 169.083L470.568 173.283C470.554 173.154 470.667 173.011 470.652 172.882L446.115 155.921L434.241 167.579C434.412 167.951 434.569 168.195 434.711 168.309ZM445.703 155.706L428.174 143.573C427.948 143.86 427.707 144.017 427.339 144.19L432.352 166.877C432.99 166.805 433.53 167.005 433.956 167.349L445.703 155.706ZM404.173 119.89L424.973 140.407C425.214 140.249 425.327 140.105 425.583 140.077C426.703 139.689 428.066 140.319 428.453 141.452C428.482 141.71 428.638 141.953 428.54 142.226L452.123 147.276L404.173 119.89ZM445.132 69.1628L404.094 116.894C404.251 117.138 404.407 117.382 404.564 117.625C404.579 117.754 404.608 118.012 404.622 118.141L451.256 120.072L446.339 69.5494C445.956 69.5925 445.544 69.3777 445.132 69.1628ZM429.357 43.8999L445.349 65.3501C445.477 65.3358 445.59 65.1924 445.718 65.178C446.086 65.0058 446.484 65.0917 446.867 65.0485L457.067 37.3815L430.189 42.1079C430.262 42.7528 429.951 43.441 429.357 43.8999ZM477.31 -18.1962L429.504 40.6175C429.788 40.8467 429.96 41.2193 430.116 41.4629L457.377 36.6934L477.452 -18.0816C477.324 -18.0672 477.324 -18.0672 477.31 -18.1962ZM479.396 -18.0394L479.268 -18.025C478.9 -17.8529 478.375 -17.9243 477.977 -18.0101L458.001 36.4925L505.416 28.1459C505.328 27.3719 505.639 26.6838 506.234 26.2249L479.396 -18.0394ZM506.13 29.8942L479.912 53.0958C480.054 53.2104 480.083 53.4684 480.225 53.583C480.396 53.9556 480.44 54.3425 480.341 54.6149L499.81 59.8674L506.954 30.3239C506.556 30.2381 506.414 30.1234 506.13 29.8942ZM508.997 30.0937C508.884 30.2371 508.628 30.2659 508.515 30.4093C508.147 30.5814 507.891 30.6102 507.494 30.5243L500.35 60.0678L545.676 72.2041C545.775 71.9317 545.888 71.7884 546.001 71.645L508.997 30.0937ZM538.224 113.931L547.047 75.1848C546.777 75.0846 546.507 74.9844 546.35 74.7408L519.406 97.2403L536.721 114.361C536.962 114.204 537.075 114.06 537.33 114.032C537.586 114.003 537.841 113.974 538.224 113.931ZM537.442 118.46C537.044 118.375 536.76 118.145 536.475 117.916L520.672 130.278L532.903 145.882C533.03 145.867 533.144 145.724 533.271 145.709C533.527 145.681 533.767 145.523 534.037 145.623L537.442 118.46ZM535.849 149.077C535.622 149.363 535.268 149.665 534.772 149.851C534.645 149.865 534.389 149.894 534.262 149.909L534.14 152.274L565.977 166.322L535.849 149.077ZM568.665 168.37L533.972 153.076L531.16 210.74C531.43 210.84 531.827 210.926 532.112 211.155L569.039 170.549C568.883 170.305 568.726 170.062 568.569 169.818C568.511 169.302 568.581 168.772 568.665 168.37ZM569.579 170.749L532.651 211.355C532.808 211.599 532.95 211.714 532.979 211.972L565.764 203.445L570.261 171.064C570.006 171.093 569.736 170.993 569.579 170.749ZM584.519 196.629L571.552 171.049C571.297 171.078 571.056 171.236 570.786 171.136L566.26 203.258L583.46 198.708C583.501 197.919 583.797 197.102 584.519 196.629ZM563.32 228.801L584.273 200.184C583.989 199.954 583.832 199.711 583.788 199.324L566.333 203.903L562.908 228.586C563.05 228.701 563.178 228.686 563.32 228.801ZM561.489 228.615C561.744 228.587 561.985 228.429 562.255 228.529L565.709 204.104L533.548 212.43L560.54 229.375C560.766 229.089 561.12 228.787 561.489 228.615ZM559.934 230.881C559.89 230.494 559.989 230.221 560.087 229.949L532.968 213.018C532.942 213.935 532.391 214.781 531.526 215.14C530.662 215.499 529.724 215.212 529.126 214.496L490.104 241.099L559.934 230.881ZM528.798 213.88C528.784 213.751 528.784 213.751 528.642 213.636C528.627 213.507 528.627 213.507 528.613 213.378L491.187 216.288L489.181 240.942L528.798 213.88ZM488.67 241L490.676 216.346L452.102 219.386C452.131 219.644 452.032 219.916 451.919 220.059L488.67 241ZM451.829 218.11L491.751 204.076C491.707 203.689 491.649 203.173 491.861 202.758L465.769 188.062L451.089 217.279C451.373 217.508 451.658 217.738 451.829 218.11ZM450.534 216.95L465.214 187.733L434.291 170.316C434.064 170.603 433.838 170.89 433.469 171.062L449.356 216.821C449.739 216.778 450.265 216.849 450.534 216.95ZM448.875 217.137L432.988 171.377C432.733 171.406 432.605 171.42 432.35 171.449L424.282 211.155L447.842 218.298C448.039 217.753 448.379 217.323 448.875 217.137ZM419.871 238.562L447.79 220.133C447.776 220.004 447.776 220.004 447.633 219.889C447.462 219.517 447.418 219.13 447.503 218.728L424.07 211.571L418.747 237.774C419.16 237.989 419.572 238.204 419.871 238.562ZM417.329 237.803C417.569 237.646 417.952 237.602 418.222 237.703L423.53 211.371L386.308 200.019C386.195 200.163 386.096 200.435 385.983 200.578L391.663 207.384L416.832 237.99C417.088 237.961 417.215 237.947 417.329 237.803ZM416.493 238.42L391.495 208.187L385.644 201.009C385.516 201.023 385.403 201.166 385.275 201.181C384.907 201.353 384.382 201.281 383.984 201.196L376.228 219.574L416.267 238.707C416.252 238.578 416.38 238.563 416.493 238.42ZM415.942 239.266L375.903 220.133L369.276 235.902C369.688 236.117 370.129 236.59 370.315 237.091C370.33 237.22 370.359 237.478 370.373 237.607L415.843 239.538C415.971 239.524 415.956 239.395 415.942 239.266ZM415.916 240.183L370.446 238.252C370.278 239.055 369.84 239.757 368.975 240.116C368.72 240.145 368.479 240.303 368.209 240.202L364.825 264.097L415.959 240.57C415.93 240.312 415.93 240.312 415.916 240.183ZM358.581 311.958L414.898 241.474L364.627 264.642L358.041 311.758C358.311 311.858 358.438 311.843 358.581 311.958ZM357.516 311.686L364.146 264.957L343.865 274.296C344.236 275.3 343.714 276.403 342.864 276.891L357.005 311.744C357.133 311.729 357.26 311.715 357.516 311.686ZM355.575 312.819C355.801 312.532 356.027 312.246 356.381 311.945L342.24 277.092C341.106 277.35 339.884 276.835 339.498 275.703L339.483 275.574L286.247 282.747C286.276 283.005 286.163 283.149 286.192 283.407L355.575 312.819ZM286.16 281.973L286.175 282.102L339.411 274.929C339.367 274.542 339.466 274.269 339.677 273.854L308.529 252.152L285.661 280.985C285.832 281.357 285.989 281.601 286.16 281.973ZM285.121 280.784L307.99 251.951L282.869 234.403C282.643 234.69 282.402 234.848 282.019 234.891C281.891 234.905 281.636 234.934 281.508 234.948L284.169 280.369C284.439 280.469 284.837 280.555 285.121 280.784ZM283.29 280.599C283.418 280.584 283.545 280.57 283.673 280.555L281.012 235.135L280.885 235.149L269.361 277.465L282.002 281.789C282.199 281.244 282.666 280.8 283.29 280.599ZM267.004 313.915C267.244 313.758 267.357 313.614 267.613 313.585C268.109 313.399 268.634 313.47 269.032 313.556L282.705 284.583C282.705 284.583 282.705 284.583 282.563 284.469L262.258 306.22C262.415 306.464 262.571 306.708 262.6 306.966C262.815 307.725 262.647 308.528 262.194 309.101L267.004 313.915ZM266.536 314.36L261.983 309.517C261.742 309.675 261.629 309.818 261.373 309.847C260.75 310.048 260.224 309.976 259.685 309.776L256.082 315.668L266.142 315.449C266.098 315.062 266.31 314.647 266.536 314.36ZM244.087 335.439L266.43 316.854C266.287 316.739 266.273 316.61 266.244 316.352C266.229 316.223 266.215 316.094 266.2 315.965L255.87 316.084L244.087 335.439C243.959 335.453 243.959 335.453 244.087 335.439ZM241.716 335.053C242.34 334.852 242.865 334.923 243.405 335.124L255.119 316.299L201.426 317.124C201.44 317.253 201.327 317.396 201.342 317.525L240.655 335.956C240.866 335.54 241.22 335.239 241.716 335.053ZM188.222 341.08C188.236 341.209 188.236 341.209 188.251 341.338L240.26 337.045L240.246 336.916L195.105 325.282L187.325 340.005C187.737 340.22 188.036 340.578 188.222 341.08ZM184.728 339.906C184.841 339.762 185.097 339.734 185.337 339.576C185.834 339.389 186.359 339.461 186.898 339.661L194.565 325.081L164.461 317.239C164.363 317.511 164.264 317.784 164.151 317.927L184.728 339.906ZM164.429 315.806C164.444 315.935 164.444 315.935 164.458 316.064L196.954 316.452C197.053 316.179 197.137 315.778 197.236 315.506L173.812 295.807L163.375 314.487C163.944 314.946 164.243 315.304 164.429 315.806ZM162.197 314.359C162.453 314.33 162.723 314.43 162.978 314.401L173.4 295.592L157.258 281.997C157.017 282.154 156.777 282.312 156.521 282.341C156.394 282.355 156.266 282.37 156.266 282.37L162.197 314.359ZM160.172 315.893C160.355 315.22 160.935 314.632 161.559 314.431L155.642 282.571C155.387 282.599 155.245 282.485 154.975 282.384L140.675 310.383C141.627 310.798 142.013 311.93 141.859 312.862L160.172 315.893ZM160.048 317.083L160.204 317.327C160.175 317.069 160.019 316.825 160.117 316.553L141.79 313.392C141.253 314.367 140.02 314.898 138.94 314.497C138.813 314.512 138.798 314.383 138.798 314.383L136.144 319.515L131.062 329.493C131.204 329.607 131.204 329.607 131.347 329.722C131.489 329.837 131.489 329.837 131.631 329.951L160.048 317.083ZM89.0727 334.354L127.25 331.229C127.221 330.971 127.319 330.698 127.432 330.555C127.531 330.282 127.63 330.01 127.87 329.852L120.284 321.041L89.0727 334.354ZM88.8724 333.724L119.97 320.553L106.277 304.592C105.668 304.922 104.916 305.137 104.234 304.822L88.4312 333.251C88.5734 333.365 88.7156 333.48 88.8724 333.724ZM86.9397 332.635C87.195 332.606 87.4648 332.707 87.7347 332.807C87.8624 332.792 87.8769 332.921 88.0046 332.907L103.694 304.621C103.425 304.521 103.268 304.278 103.111 304.034L83.0386 311.782L86.9397 332.635ZM52.6903 329.309L84.5606 334.471C84.5461 334.342 84.6592 334.198 84.6446 334.069C84.955 333.381 85.5352 332.793 86.1736 332.721L82.4148 311.983L42.8938 327.278C42.9083 327.407 42.9229 327.536 42.9519 327.794L52.6903 329.309ZM42.8211 326.633L82.3422 311.338L76.7128 280.882C76.4575 280.911 76.06 280.825 75.7901 280.725C75.6624 280.739 75.5202 280.625 75.5202 280.625L42.4931 326.017C42.6353 326.131 42.7921 326.375 42.8211 326.633ZM40.7026 325.043C40.958 325.014 41.2279 325.114 41.4977 325.214C41.7676 325.315 41.9098 325.429 42.052 325.544L75.079 280.152C74.7946 279.923 74.6379 279.679 74.5943 279.292L33.2879 290.216L40.7026 325.043ZM39.5681 325.301C39.6958 325.287 39.9365 325.129 40.0642 325.115L32.6641 290.417L18.8527 294.063C18.8963 294.45 18.7977 294.723 18.7137 295.124C18.6296 295.525 18.4033 295.812 18.1625 295.97L39.5681 325.301ZM17.358 292.272C18.0254 292.458 18.4811 293.06 18.6669 293.562L32.6059 289.901L23.6114 247.937C23.4837 247.952 23.4837 247.952 23.356 247.966L21.1972 263.232L17.2158 292.158C17.2303 292.287 17.2303 292.287 17.358 292.272ZM15.556 292.345C15.7969 292.187 16.1799 292.144 16.5629 292.101L20.6574 263.031L22.7031 247.909C22.7031 247.909 22.5754 247.923 22.5609 247.794C22.1634 247.709 21.879 247.479 21.7222 247.236L-1.76094 263.728L15.556 292.345ZM-2.37021 264.058L-38.2042 289.127C-38.0475 289.371 -38.0184 289.629 -37.9748 290.015L14.3261 294.051C14.3115 293.922 14.4247 293.778 14.4101 293.649C14.4942 293.248 14.8482 292.947 15.0744 292.66L-2.37021 264.058ZM5.75253 314.35L15.226 296.301C14.6572 295.842 14.3292 295.226 14.2565 294.581L-38.0444 290.546C-38.0298 290.675 -38.1575 290.689 -38.143 290.818L5.75253 314.35ZM-38.5177 288.64L-2.68372 263.571L-9.68193 251.95C-10.1781 252.136 -10.8164 252.208 -11.3562 252.008C-11.4839 252.022 -11.6261 251.907 -11.6261 251.907L-38.5177 288.64ZM-39.4986 287.966C-39.3564 288.081 -39.2287 288.067 -39.0865 288.181L-12.308 251.592C-12.5924 251.363 -12.7637 250.991 -12.9204 250.747L-48.929 258.2L-40.6622 287.967C-40.166 287.78 -39.783 287.737 -39.4986 287.966ZM-41.4137 288.182C-41.3006 288.039 -41.1729 288.024 -40.9175 287.996L-49.1844 258.229L-63.2106 261.116C-63.1815 261.374 -63.2656 261.775 -63.3642 262.047C-63.4628 262.32 -63.5614 262.592 -63.8022 262.75L-41.4137 288.182ZM-70.1293 300.692C-69.5895 300.893 -69.163 301.237 -68.9772 301.738L-42.5419 290.791C-42.7277 290.29 -42.6437 289.888 -42.4465 289.344C-42.3478 289.071 -42.1216 288.784 -42.0084 288.641L-64.397 263.209C-64.7509 263.51 -65.2616 263.567 -65.6446 263.611L-70.3847 300.721C-70.2715 300.578 -70.1438 300.563 -70.1293 300.692ZM-70.9244 300.521L-66.1844 263.41C-66.3121 263.425 -66.312 263.425 -66.4542 263.31C-66.5964 263.195 -66.8663 263.095 -67.0085 262.98L-87.2261 285.506L-72.2997 300.937C-71.8181 300.621 -71.3219 300.435 -70.9244 300.521ZM-117.02 319.43L-73.074 303.245C-73.1176 302.858 -73.1757 302.342 -72.964 301.926C-72.8654 301.654 -72.7523 301.51 -72.6391 301.367L-87.5655 285.936L-117.333 318.943C-117.177 319.187 -117.035 319.301 -117.02 319.43ZM-118.172 318.384C-118.03 318.499 -117.76 318.599 -117.632 318.585L-87.8645 285.578L-111.712 260.963C-112.066 261.264 -112.562 261.451 -112.96 261.365L-118.457 318.155C-118.442 318.284 -118.314 318.27 -118.172 318.384ZM-119.35 318.256C-119.223 318.241 -119.095 318.227 -118.967 318.213L-113.471 261.423C-113.598 261.437 -113.613 261.308 -113.741 261.322C-113.868 261.337 -114.01 261.222 -114.01 261.222L-130.285 283.173L-119.35 318.256ZM-120.404 316.938L-130.88 283.632L-133.241 286.771C-132.658 287.359 -132.414 288.376 -132.709 289.194C-132.921 289.609 -133.133 290.025 -133.615 290.341L-120.404 316.938ZM-134.988 286.185C-134.733 286.156 -134.335 286.242 -134.065 286.342C-133.937 286.327 -133.795 286.442 -133.795 286.442L-131.208 283.015L-140.623 253.378L-134.988 286.185ZM-136.914 287.447C-136.604 286.758 -136.137 286.314 -135.498 286.242L-141.48 251.515C-141.735 251.544 -142.133 251.458 -142.403 251.358C-143.084 251.043 -143.526 250.57 -143.726 249.94L-207.908 265.531C-207.879 265.789 -207.85 266.047 -207.934 266.448L-136.914 287.447ZM-208.109 264.9L-143.799 249.295C-143.813 249.166 -143.828 249.037 -143.828 249.037L-181.8 243.648L-195.598 241.676C-195.598 241.676 -195.584 241.805 -195.711 241.819C-196.091 243.038 -197.452 243.583 -198.532 243.182L-209.006 263.826C-208.594 264.041 -208.295 264.399 -208.109 264.9ZM-209.545 263.625L-199.071 242.981C-199.498 242.638 -199.939 242.165 -200.012 241.52L-216.54 242.859L-210.709 263.626C-210.34 263.454 -209.943 263.54 -209.545 263.625ZM-207.171 297.322L-210.215 268.012C-210.47 268.04 -210.74 267.94 -211.01 267.84C-212.217 267.453 -212.76 266.078 -212.38 264.859C-212.282 264.587 -212.183 264.314 -211.942 264.157L-226.892 245.071L-207.171 297.322ZM-208.149 297.824C-208.036 297.68 -207.908 297.666 -207.795 297.523L-227.502 245.401C-227.885 245.444 -228.395 245.502 -228.807 245.287C-228.935 245.301 -228.95 245.172 -229.077 245.186L-243.141 266.104L-208.149 297.824ZM-271.064 309.745L-208.981 299.616C-209.01 299.358 -208.912 299.085 -208.828 298.684C-208.715 298.541 -208.729 298.412 -208.631 298.139L-243.338 266.649L-271.691 308.771C-271.406 309 -271.235 309.373 -271.064 309.745ZM-272.402 308.198C-272.274 308.184 -272.26 308.313 -272.132 308.298L-243.779 266.176L-258.174 253.167C-258.641 253.612 -259.265 253.813 -259.918 253.756L-272.402 308.198C-272.53 308.212 -272.53 308.212 -272.402 308.198ZM-273.055 308.141L-260.457 253.555C-260.727 253.455 -260.87 253.34 -261.012 253.226L-293.388 287.18L-274.572 308.443C-274.204 308.27 -273.58 308.069 -273.055 308.141ZM-274.958 339.445L-273.71 312.656C-273.837 312.671 -273.98 312.556 -274.107 312.57C-274.519 312.355 -274.804 312.126 -275.088 311.897L-300.577 326.656L-276.786 340.435C-276.333 339.862 -275.597 339.517 -274.958 339.445ZM-351.412 356.289L-277.122 342.04C-277.166 341.653 -277.067 341.381 -276.983 340.98L-301.058 326.972L-351.426 356.16C-351.554 356.174 -351.426 356.16 -351.412 356.289ZM-352.863 354.885C-352.451 355.1 -352.166 355.329 -351.867 355.687L-301.74 326.657L-343.666 302.25C-344.118 302.823 -344.728 303.153 -345.508 303.11L-353.005 354.77C-352.877 354.756 -352.877 354.756 -352.863 354.885Z" fill="white"/>
</g>
<defs>
<clipPath id="clip0">
<rect width="328" height="378" fill="white"/>
</clipPath>
</defs>
</svg>
