<svg width="328" height="378" viewBox="0 0 328 378" fill="none" xmlns="http://www.w3.org/2000/svg">
<g clip-path="url(#clip0)">
<path d="M163.938 0.49292L327.608 94.9881V283.978L163.938 378.474L0.267166 283.978V94.9881L163.938 0.49292Z" fill="#7038E4"/>
<mask id="mask0" mask-type="alpha" maskUnits="userSpaceOnUse" x="0" y="0" width="328" height="379">
<path d="M163.938 0.49292L327.608 94.9881V283.978L163.938 378.474L0.267166 283.978V94.9881L163.938 0.49292Z" fill="#7E3FF1"/>
</mask>
<g mask="url(#mask0)">
<path opacity="0.35" d="M-532.697 421.278C-532.416 420.332 -531.439 419.83 -530.53 419.858L-523.033 368.199C-523.033 368.199 -523.161 368.213 -523.176 368.084C-524.383 367.697 -524.926 366.322 -524.546 365.103C-524.25 364.286 -523.528 363.813 -522.776 363.598L-525.082 307.556C-525.337 307.585 -525.48 307.47 -525.622 307.355C-526.829 306.969 -527.372 305.593 -526.992 304.375C-526.612 303.156 -525.251 302.611 -524.044 302.998C-523.774 303.098 -523.49 303.327 -523.205 303.556L-491.796 279.378C-492.124 278.762 -492.197 278.117 -492.014 277.443C-491.634 276.225 -490.274 275.679 -489.067 276.066C-488.797 276.166 -488.654 276.281 -488.385 276.381L-468.497 257.811C-468.953 257.21 -469.04 256.436 -468.744 255.619C-468.547 255.074 -468.207 254.644 -467.711 254.457L-481.075 218.472C-481.458 218.515 -481.968 218.573 -482.38 218.358C-483.588 217.971 -484.131 216.596 -483.751 215.377C-483.342 214.417 -482.378 213.786 -481.456 213.943L-475.188 185.804C-476.395 185.418 -476.938 184.042 -476.558 182.824C-476.178 181.605 -474.817 181.06 -473.61 181.447C-472.942 181.633 -472.487 182.234 -472.301 182.736L-438.039 174.696C-438.083 174.309 -437.984 174.036 -437.9 173.635C-437.52 172.417 -436.16 171.871 -434.952 172.258C-433.745 172.644 -433.202 174.02 -433.582 175.239C-433.582 175.239 -433.568 175.368 -433.695 175.382L-372.393 213.412L-372.28 213.268L-372.108 213.641L-371.127 214.314L-371.908 214.272L-356.803 254.241C-356.42 254.198 -355.909 254.14 -355.497 254.355C-354.56 254.641 -354.075 255.501 -353.973 256.404L-320.687 260.361C-320.702 260.232 -320.702 260.232 -320.588 260.088C-320.209 258.87 -318.848 258.325 -317.641 258.711C-316.561 259.112 -316.047 260.23 -316.186 261.291L-226.667 243.367C-226.696 243.109 -226.612 242.708 -226.513 242.435C-226.133 241.217 -224.773 240.672 -223.565 241.058C-222.358 241.445 -221.815 242.82 -222.195 244.039C-222.407 244.455 -222.619 244.87 -222.987 245.042L-188.453 312.867C-187.957 312.681 -187.446 312.623 -186.906 312.824C-186.366 313.024 -186.067 313.382 -185.769 313.741L-156.772 300.284C-156.957 299.783 -156.888 299.252 -156.676 298.837C-156.296 297.618 -154.935 297.073 -153.728 297.46C-152.919 297.76 -152.321 298.477 -152.219 299.38L-123.1 299.626C-123.115 299.497 -123.002 299.354 -123.031 299.096C-122.651 297.877 -121.29 297.332 -120.083 297.718C-118.876 298.105 -118.333 299.481 -118.713 300.699C-118.698 300.828 -118.826 300.842 -118.812 300.971L-75.9477 331.412C-75.382 330.695 -74.3751 330.451 -73.4233 330.867C-72.2161 331.253 -71.6732 332.629 -72.0531 333.847C-72.3489 334.664 -72.9437 335.123 -73.6952 335.339L-71.7133 365.552C-71.458 365.523 -71.1881 365.624 -70.9182 365.724C-69.8387 366.125 -69.1972 367.228 -69.4495 368.432L-51.6843 373.485C-51.0605 373.284 -50.2654 373.455 -49.6966 373.914L-23.0207 346.742C-23.1775 346.498 -23.3197 346.384 -23.3488 346.126C-23.7349 344.993 -23.1142 343.617 -21.9942 343.23C-21.1296 342.871 -20.1923 343.157 -19.5944 343.874L-14.0267 340.503L16.7452 322.144C16.359 321.012 16.9943 319.765 18.0997 319.249C19.2197 318.861 20.5836 319.491 20.9697 320.623C21.141 320.996 21.1701 321.254 21.086 321.655L55.9312 330.27C56.1284 329.725 56.581 329.152 57.3325 328.936L53.0775 308.384L101.949 298.045C101.832 297.013 102.497 296.024 103.504 295.78C104 295.593 104.525 295.665 105.05 295.736L118.35 270.332C117.938 270.118 117.639 269.759 117.58 269.243C117.194 268.111 117.815 266.735 118.935 266.348C119.431 266.161 120.084 266.218 120.496 266.433L143.844 225.789C143.56 225.56 143.261 225.202 143.075 224.7C142.689 223.568 143.309 222.192 144.429 221.804C145.549 221.417 146.913 222.047 147.299 223.179C147.485 223.681 147.401 224.082 147.332 224.612L175.646 237.228C175.858 236.813 176.339 236.497 176.835 236.311C177.828 235.938 178.907 236.338 179.534 237.313L247.057 207.76L247.213 208.003C246.999 207.244 247.039 206.455 247.492 205.882L226.691 185.365C226.45 185.523 226.337 185.666 226.082 185.695C224.962 186.082 223.598 185.452 223.212 184.32C222.826 183.188 223.446 181.812 224.566 181.424C225.318 181.209 225.971 181.266 226.54 181.724L267.578 133.993C267.421 133.749 267.264 133.506 267.235 133.248C266.878 132.374 267.16 131.427 267.867 130.825L251.875 109.375C251.747 109.389 251.747 109.389 251.634 109.533C250.514 109.92 249.15 109.29 248.764 108.158C248.378 107.026 248.999 105.649 250.119 105.262C250.743 105.061 251.395 105.118 251.95 105.448L299.883 46.6195C299.726 46.3759 299.442 46.1467 299.398 45.7597C299.012 44.6276 299.633 43.2513 300.753 42.8639C301.873 42.4764 303.237 43.1065 303.623 44.2387C303.98 45.1129 303.586 46.2024 302.878 46.8046L329.744 91.3269L329.872 91.3125C330.992 90.9251 332.356 91.5552 332.742 92.6874C332.957 93.4469 332.803 94.3786 332.351 94.9521L369.483 136.489C369.596 136.346 369.851 136.317 369.965 136.173C371.085 135.786 372.448 136.416 372.835 137.548C373.221 138.68 372.6 140.057 371.48 140.444C371.112 140.616 370.856 140.645 370.459 140.559L361.636 179.305C362.304 179.491 362.745 179.964 362.96 180.724C363.346 181.856 362.725 183.232 361.605 183.62C361.35 183.648 361.109 183.806 360.839 183.706L357.42 210.74C358.088 210.926 358.671 211.513 358.999 212.129C359.185 212.631 359.13 213.29 358.918 213.706L392.088 232.698C392.314 232.412 392.668 232.11 393.165 231.924C394.285 231.536 395.648 232.167 396.035 233.299C396.406 234.302 396.012 235.391 395.162 235.879L408.128 261.458C409.248 261.071 410.485 261.716 411.013 262.962C411.399 264.094 410.778 265.471 409.658 265.858C409.035 266.059 408.382 266.002 407.827 265.673L386.874 294.29C387.158 294.519 387.33 294.892 387.486 295.135C387.873 296.267 387.252 297.644 386.132 298.031C385.012 298.419 383.648 297.788 383.262 296.656L383.247 296.527L312.396 306.861L312.425 307.119L312.14 306.89L310.991 307.019L311.586 306.561L274.835 285.62C274.609 285.907 274.255 286.208 273.759 286.395C272.894 286.753 271.957 286.467 271.359 285.751L243.312 304.194C243.326 304.323 243.326 304.323 243.468 304.438C243.855 305.57 243.234 306.946 242.114 307.334C240.994 307.721 239.9 307.191 239.401 306.203L182.149 377.576C182.306 377.82 182.591 378.049 182.634 378.436C183.02 379.568 182.4 380.944 181.28 381.332C180.16 381.719 178.796 381.089 178.41 379.957C178.224 379.455 178.308 379.054 178.392 378.652L108.995 349.111C108.783 349.527 108.316 349.971 107.82 350.158C107.324 350.344 106.799 350.273 106.401 350.187L92.7282 379.16C93.1403 379.375 93.4538 379.862 93.6396 380.363C94.0257 381.496 93.405 382.872 92.285 383.259C91.4059 383.489 90.6108 383.317 90.0274 382.73L67.685 401.315C67.8272 401.429 67.8418 401.558 67.8709 401.816C68.257 402.948 67.6363 404.325 66.5163 404.712C65.3964 405.099 64.0324 404.469 63.6463 403.337C63.6318 403.208 63.6318 403.208 63.6172 403.079L11.6081 407.371C11.5822 408.289 11.031 409.135 10.1518 409.364C9.03186 409.752 7.66794 409.122 7.28179 407.989C7.06692 407.23 7.23507 406.427 7.68763 405.854L-12.8896 383.875C-13.1304 384.033 -13.2435 384.176 -13.6266 384.219C-14.7465 384.607 -15.8406 384.077 -16.3399 383.088L-44.8697 396.1L-44.8552 396.228C-44.4691 397.361 -45.0897 398.737 -46.2097 399.124C-46.9612 399.34 -47.7563 399.168 -48.3252 398.71C-48.7518 398.366 -49.0652 397.879 -49.251 397.377L-87.428 400.503C-87.399 400.761 -87.4976 401.033 -87.6107 401.176C-87.9906 402.395 -89.3514 402.94 -90.5585 402.553C-91.3682 402.253 -91.9806 401.407 -92.0823 400.504L-98.5272 399.532L-133.961 393.727C-134.483 394.831 -135.702 395.491 -136.796 394.961C-138.003 394.575 -138.546 393.199 -138.166 391.98C-138.082 391.579 -137.855 391.292 -137.615 391.134L-159.133 361.947C-159.743 362.276 -160.381 362.348 -161.063 362.033L-170.861 380.642L-215.297 356.909C-215.848 357.755 -216.968 358.143 -217.92 357.728C-218.459 357.527 -218.886 357.183 -219.072 356.682L-245.507 367.628C-245.321 368.13 -245.405 368.531 -245.602 369.076C-245.982 370.295 -247.343 370.84 -248.55 370.453C-249.09 370.253 -249.517 369.909 -249.702 369.407L-293.648 385.593C-293.605 385.98 -293.547 386.496 -293.758 386.912C-294.138 388.13 -295.499 388.675 -296.706 388.289C-297.913 387.902 -298.456 386.526 -298.076 385.308C-297.865 384.892 -297.653 384.476 -297.171 384.161L-311.053 356.203C-311.549 356.389 -312.074 356.318 -312.599 356.246C-313.679 355.845 -314.178 354.857 -314.039 353.796L-385.073 332.669L-384.975 332.396C-385.285 333.084 -385.865 333.672 -386.631 333.759L-383.588 363.069C-383.332 363.04 -383.063 363.14 -382.793 363.24C-381.585 363.627 -381.043 365.003 -381.423 366.221C-381.802 367.44 -383.163 367.985 -384.37 367.598C-385.052 367.283 -385.493 366.81 -385.708 366.051L-447.791 376.181C-447.762 376.439 -447.861 376.711 -447.959 376.983C-448.255 377.8 -449.091 378.417 -449.984 378.518L-451.218 405.436C-451.09 405.421 -451.076 405.55 -450.948 405.536C-449.741 405.923 -449.198 407.298 -449.578 408.517C-449.958 409.735 -451.319 410.28 -452.526 409.894C-453.193 409.708 -453.635 409.235 -453.835 408.605L-528.124 422.853C-528.095 423.111 -528.179 423.512 -528.278 423.785C-528.658 425.003 -530.018 425.548 -531.226 425.162C-532.549 423.743 -533.205 422.511 -532.697 421.278ZM-523.933 307.426C-524.174 307.584 -524.429 307.613 -524.557 307.627L-522.251 363.669C-521.995 363.64 -521.853 363.755 -521.711 363.869C-521.441 363.97 -521.157 364.199 -520.872 364.428L-496.542 346.273L-523.933 307.426ZM-464.766 257.652C-464.864 257.925 -465.076 258.34 -465.317 258.498L-452.128 276.868L-463.655 253.739L-465.155 255.345C-464.571 255.932 -464.47 256.835 -464.766 257.652ZM-467.368 303.405C-467.241 303.39 -467.098 303.505 -466.956 303.62L-451.718 281.655C-452.144 281.311 -452.345 280.681 -452.403 280.165L-467.077 279.597L-467.638 303.305C-467.638 303.305 -467.496 303.419 -467.368 303.405ZM-468.818 307.748L-479.73 329.095L-466.903 307.532C-467.385 307.848 -468.151 307.934 -468.818 307.748ZM-465.815 305.712L-454.627 286.816L-466.402 303.949C-466.088 304.436 -465.76 305.052 -465.815 305.712ZM-452.475 279.52C-452.49 279.391 -452.377 279.247 -452.391 279.118C-452.307 278.717 -452.081 278.43 -451.84 278.273L-465.798 258.814C-466.039 258.971 -466.294 259 -466.677 259.043L-467.149 278.952L-452.475 279.52ZM-450.99 277.785C-450.622 277.613 -450.111 277.555 -449.699 277.77L-424.008 210.867L-424.038 210.609L-424.18 210.494L-463.06 253.28L-450.99 277.785ZM-449.159 277.97C-449.017 278.085 -448.875 278.2 -448.732 278.314L-411.521 248.257L-422.703 210.981C-422.958 211.01 -423.341 211.053 -423.611 210.953L-449.159 277.97ZM-404.432 277.895C-404.731 277.537 -404.903 277.164 -404.946 276.777L-448.018 280.063C-447.989 280.321 -448.102 280.464 -448.201 280.736C-448.201 280.736 -448.187 280.865 -448.314 280.88L-421.322 297.825L-404.432 277.895ZM-435.027 315.045C-434.87 315.288 -434.713 315.532 -434.556 315.775L-407.174 308.641C-407.218 308.254 -407.134 307.853 -407.035 307.58C-407.035 307.58 -407.05 307.451 -406.922 307.437L-420.98 298.57L-435.027 315.045ZM-358.558 255.875L-398.401 240.77C-398.613 241.186 -398.967 241.487 -399.335 241.659L-388.391 269.948L-358.555 257.051C-358.598 256.664 -358.642 256.277 -358.558 255.875ZM-399.831 241.845C-399.959 241.86 -400.087 241.874 -400.214 241.889L-402.286 273.996C-402.158 273.981 -402.016 274.096 -401.888 274.082C-401.349 274.282 -400.922 274.626 -400.736 275.127L-388.901 270.006L-399.831 241.845ZM-400.853 241.961C-400.98 241.975 -401.123 241.86 -401.25 241.875C-401.52 241.774 -401.805 241.545 -402.075 241.445L-410.839 248.572L-403.165 274.225C-403.037 274.211 -403.037 274.211 -402.91 274.197L-400.853 241.961ZM-411.193 248.873L-448.291 278.787C-448.135 279.031 -448.106 279.289 -447.949 279.532L-404.877 276.247C-404.906 275.989 -404.793 275.846 -404.694 275.573C-404.497 275.029 -404.03 274.584 -403.548 274.269L-411.193 248.873ZM-410.926 247.798L-402.275 240.814C-402.603 240.198 -402.676 239.553 -402.493 238.88C-402.394 238.607 -402.168 238.32 -401.942 238.034L-407.454 230.425L-421.824 210.751L-421.951 210.766L-410.926 247.798ZM-401.46 237.718C-400.851 237.388 -400.212 237.316 -399.531 237.631C-398.579 238.047 -397.952 239.021 -398.091 240.082L-390.562 232.31L-421.229 210.292C-421.229 210.292 -421.229 210.292 -421.342 210.436L-401.46 237.718ZM-397.664 240.426L-358.361 255.331L-390.15 232.525L-397.664 240.426ZM-358.241 257.538L-388.063 270.564L-375.245 303.998C-374.862 303.955 -374.607 303.926 -374.209 304.012L-357.359 258.484C-357.786 258.14 -358.07 257.91 -358.241 257.538ZM-388.686 270.765L-400.521 275.887C-400.478 276.274 -400.42 276.79 -400.631 277.206C-400.73 277.478 -400.843 277.621 -400.942 277.894L-376.11 304.357C-375.982 304.343 -375.997 304.214 -375.869 304.199L-388.686 270.765ZM-401.551 278.224C-401.679 278.238 -401.792 278.381 -401.919 278.396L-393.754 307.259L-377.099 305.905C-377.128 305.647 -377.015 305.504 -376.916 305.232C-376.818 304.959 -376.704 304.816 -376.606 304.544L-401.551 278.224ZM-394.065 307.948L-402.648 308.653C-402.633 308.782 -402.746 308.926 -402.732 309.055C-402.831 309.327 -403.057 309.614 -403.283 309.901L-388.333 328.986C-388.205 328.972 -388.22 328.843 -388.092 328.829L-394.065 307.948ZM-402.706 308.137L-394.251 307.446L-402.416 278.582C-402.543 278.597 -402.671 278.611 -402.926 278.64L-404.485 306.117C-404.357 306.103 -404.357 306.103 -404.215 306.217C-403.278 306.504 -402.808 307.234 -402.706 308.137ZM-403.452 278.568C-403.721 278.468 -403.864 278.354 -403.991 278.368L-420.768 298.154L-406.725 306.892C-406.272 306.319 -405.649 306.118 -405.01 306.046L-403.452 278.568ZM-406.989 309.142L-434.371 316.277C-434.327 316.664 -434.411 317.065 -434.51 317.338C-434.623 317.481 -434.608 317.61 -434.707 317.882L-420.44 330.906L-406.376 309.988C-406.661 309.759 -406.945 309.529 -406.989 309.142ZM-421.534 298.241L-448.384 281.41C-448.61 281.697 -448.851 281.855 -449.092 282.012L-437.043 314.357C-436.66 314.314 -436.15 314.257 -435.738 314.472C-435.595 314.586 -435.468 314.572 -435.325 314.686L-421.534 298.241ZM-449.715 282.213C-450.098 282.256 -450.609 282.314 -451.021 282.099L-451.149 282.114L-482.75 335.574C-482.465 335.804 -482.323 335.918 -482.166 336.162L-438.909 317.311C-439.094 316.809 -439.01 316.408 -438.813 315.863C-438.616 315.318 -438.277 314.888 -437.78 314.702L-449.715 282.213ZM-438.595 317.798L-481.853 336.649C-481.667 337.151 -481.737 337.681 -481.948 338.097C-482.047 338.369 -482.146 338.642 -482.386 338.799L-470.815 351.995L-438.438 318.042C-438.581 317.927 -438.595 317.798 -438.595 317.798ZM-485.141 364.844C-485.155 364.715 -485.057 364.442 -485.071 364.313C-484.987 363.912 -484.761 363.625 -484.52 363.467L-496.229 346.76L-520.559 364.915C-520.402 365.159 -520.373 365.417 -520.344 365.675L-485.141 364.844ZM-518.612 366.133L-453.499 374.864L-480.866 366.06C-481.389 367.164 -482.622 367.695 -483.701 367.294C-484.511 366.993 -484.981 366.263 -485.196 365.503L-518.612 366.133ZM-484.039 363.152C-483.798 362.994 -483.542 362.965 -483.415 362.951L-484.484 339.689C-484.612 339.703 -484.882 339.603 -485.009 339.617C-485.279 339.517 -485.564 339.288 -485.848 339.059L-495.86 346.588L-484.039 363.152ZM-482.776 362.879C-482.521 362.85 -482.379 362.965 -482.109 363.065C-481.839 363.165 -481.697 363.28 -481.555 363.395L-471.154 352.426L-482.726 339.229C-482.967 339.387 -483.335 339.559 -483.718 339.602L-482.776 362.879ZM-470.855 352.784L-481.27 363.624C-480.829 364.097 -480.757 364.742 -480.812 365.401L-452.507 374.491C-452.393 374.348 -452.295 374.075 -452.182 373.932L-470.855 352.784ZM-452.504 375.666L-520.242 366.578C-520.228 366.707 -520.228 366.707 -520.341 366.85C-520.341 366.85 -520.341 366.85 -520.326 366.979L-478.131 391.486L-452.274 376.555C-452.445 376.182 -452.474 375.924 -452.504 375.666ZM-523.338 306.968C-523.466 306.982 -523.466 306.982 -523.338 306.968L-496.061 345.957L-486.048 338.428C-486.376 337.812 -486.449 337.167 -486.139 336.479C-486.153 336.35 -486.04 336.206 -485.927 336.063L-523.338 306.968ZM-522.999 306.537L-485.573 335.762C-485.219 335.461 -484.851 335.289 -484.482 335.117L-487.398 305.792L-522.575 305.706C-522.561 305.835 -522.659 306.107 -522.645 306.236C-522.9 306.265 -523.013 306.408 -522.999 306.537ZM-490.743 280.696C-491.013 280.596 -491.297 280.367 -491.581 280.137L-523.005 304.187C-522.848 304.43 -522.819 304.688 -522.776 305.075L-487.599 305.162L-490.09 280.753C-490.218 280.768 -490.487 280.667 -490.743 280.696ZM-483.971 335.059C-483.716 335.03 -483.574 335.145 -483.319 335.116L-469.23 307.533C-469.785 307.204 -470.24 306.602 -470.327 305.828L-486.887 305.735L-483.971 335.059ZM-488.828 280.48C-489.069 280.638 -489.324 280.667 -489.437 280.81L-486.931 305.348L-470.243 305.427C-470.258 305.298 -470.159 305.026 -470.174 304.897C-470.075 304.624 -469.849 304.337 -469.736 304.194L-488.828 280.48ZM-488.361 280.036L-469.283 303.621C-468.915 303.448 -468.674 303.291 -468.291 303.247L-467.73 279.54L-487.725 278.789C-487.711 278.918 -487.824 279.061 -487.809 279.19C-488.021 279.606 -488.12 279.878 -488.361 280.036ZM-467.6 258.886C-467.87 258.786 -468.012 258.671 -468.297 258.442L-488.184 277.011C-488.013 277.384 -487.842 277.757 -487.798 278.144L-467.802 278.895L-467.33 258.986C-467.33 258.986 -467.458 259.001 -467.6 258.886ZM-467.314 254.543C-466.931 254.5 -466.42 254.442 -466.008 254.657C-465.866 254.772 -465.596 254.872 -465.454 254.987L-463.841 253.237L-479.548 221.696L-467.314 254.543ZM-463.516 252.678L-424.734 210.165C-424.891 209.921 -425.062 209.549 -425.219 209.305L-479.604 216.608C-479.575 216.866 -479.673 217.139 -479.772 217.411C-479.984 217.827 -480.195 218.242 -480.677 218.558L-463.516 252.678ZM-425.109 207.986L-455.983 193.307L-480.019 215.218C-479.862 215.462 -479.706 215.705 -479.676 215.963L-425.291 208.66C-425.193 208.388 -425.207 208.259 -425.109 207.986ZM-474.874 186.292L-481.142 214.43C-480.872 214.53 -480.73 214.645 -480.446 214.874L-456.523 193.107L-472.649 185.388C-473.229 185.976 -473.966 186.32 -474.874 186.292ZM-437.967 175.341L-472.44 183.797C-472.411 184.055 -472.495 184.456 -472.594 184.728L-456.198 192.548L-437.795 175.713C-437.81 175.584 -437.952 175.47 -437.967 175.341ZM-436.658 176.63C-436.928 176.53 -437.07 176.415 -437.354 176.186L-455.516 192.863L-425.324 207.227L-435.494 176.63C-435.863 176.802 -436.26 176.716 -436.658 176.63ZM-434.148 175.955C-434.374 176.242 -434.615 176.4 -434.856 176.558L-424.685 207.155C-424.12 206.438 -423.113 206.194 -422.176 206.48C-421.238 206.767 -420.753 207.626 -420.652 208.529L-373.571 213.283L-434.148 175.955ZM-420.834 209.203C-420.82 209.332 -420.948 209.346 -420.933 209.475C-420.918 209.604 -421.046 209.619 -421.032 209.748L-390.238 231.751L-373.101 214.014L-420.834 209.203ZM-372.546 214.344L-389.811 232.095L-358.164 254.786C-357.923 254.628 -357.81 254.485 -357.569 254.327L-372.546 214.344ZM-355.43 258.397C-355.926 258.583 -356.436 258.641 -356.962 258.569L-373.812 304.098C-373.669 304.213 -373.4 304.313 -373.257 304.428L-341.851 279.074L-355.43 258.397ZM-372.543 306.176L-344.167 310.164L-335.763 311.307L-320.787 313.408C-320.576 312.992 -320.364 312.576 -319.995 312.404L-341.538 279.561L-372.958 304.786C-372.645 305.273 -372.459 305.775 -372.543 306.176ZM-320.884 260.906L-354.17 256.949C-354.156 257.078 -354.156 257.078 -354.269 257.221C-354.353 257.622 -354.579 257.909 -354.933 258.21L-341.355 278.887L-320.484 262.167C-320.655 261.794 -320.841 261.292 -320.884 260.906ZM-319.346 263.084C-319.616 262.983 -319.9 262.754 -320.17 262.654L-341.042 279.375L-319.499 312.218C-319.244 312.189 -319.131 312.045 -318.875 312.017L-318.842 303.13L-318.948 263.169C-319.076 263.184 -319.218 263.069 -319.346 263.084ZM-318.296 263.226L-318.233 302.8L-318.208 312.203C-318.08 312.188 -317.938 312.303 -317.81 312.289C-317.398 312.503 -317.114 312.733 -316.815 313.091L-299.102 303.911L-317.913 263.183C-318.04 263.198 -318.168 263.212 -318.296 263.226ZM-236.757 285.783C-236.884 285.797 -237.012 285.811 -237.14 285.826L-240.017 308.488L-242.004 324.126C-241.877 324.112 -241.877 324.112 -241.734 324.226C-241.067 324.412 -240.611 325.014 -240.411 325.645L-226.512 322.772L-236.757 285.783ZM-225.889 322.572L-189.88 315.118C-189.909 314.86 -189.825 314.459 -189.726 314.186C-189.726 314.186 -189.741 314.057 -189.613 314.043L-235.297 284.965C-235.524 285.252 -235.892 285.424 -236.133 285.582L-225.889 322.572ZM-240.571 308.158L-237.65 285.883C-237.778 285.898 -237.778 285.898 -237.92 285.783C-238.19 285.683 -238.475 285.454 -238.759 285.225L-266.187 306.864L-244.146 324.628C-243.678 324.184 -243.182 323.997 -242.544 323.926L-240.571 308.158ZM-279.062 294.729C-279.018 295.116 -279.117 295.389 -279.201 295.79C-279.314 295.933 -279.299 296.062 -279.412 296.206L-266.614 306.52L-239.072 284.737C-239.087 284.608 -239.229 284.494 -239.244 284.365L-279.062 294.729ZM-239.36 283.333L-261.385 277.193L-279.448 293.597C-279.306 293.712 -279.276 293.97 -279.134 294.084L-239.302 283.849C-239.444 283.734 -239.345 283.462 -239.36 283.333ZM-279.752 296.636C-280.219 297.08 -280.97 297.296 -281.623 297.239L-288.437 322.826C-288.295 322.941 -288.138 323.184 -288.109 323.442L-267.209 306.979L-279.752 296.636ZM-266.654 307.309L-287.909 324.073C-287.895 324.202 -287.88 324.331 -287.865 324.46L-244.894 326.019C-244.908 325.89 -244.795 325.747 -244.81 325.618C-244.697 325.474 -244.711 325.345 -244.598 325.202L-266.654 307.309ZM-244.836 326.535L-273.389 325.572L-287.92 325.119C-287.92 325.119 -287.92 325.119 -287.906 325.248C-288.004 325.52 -288.118 325.664 -288.231 325.807L-264.51 350.436L-244.278 328.04C-244.606 327.424 -244.778 327.051 -244.836 326.535ZM-282.163 297.038C-282.575 296.823 -282.859 296.594 -283.158 296.236L-298.307 304.082L-290.086 321.967C-289.83 321.938 -289.56 322.038 -289.291 322.138C-289.148 322.253 -289.021 322.239 -288.879 322.353L-282.163 297.038ZM-298.916 304.412L-316.516 313.449C-316.345 313.822 -316.301 314.209 -316.385 314.61L-292.14 323.243C-291.815 322.684 -291.348 322.239 -290.724 322.039L-298.916 304.412ZM-292.322 323.917L-316.44 315.269C-316.637 315.814 -317.104 316.259 -317.601 316.445L-307.755 347.601L-291.707 325.938C-292.163 325.336 -292.505 324.591 -292.322 323.917ZM-317.062 262.696C-317.19 262.71 -317.176 262.839 -317.303 262.853L-298.492 303.581L-283.344 295.734C-283.53 295.233 -283.588 294.717 -283.391 294.172C-283.278 294.029 -283.292 293.9 -283.179 293.756L-317.062 262.696ZM-316.624 261.993C-316.61 262.122 -316.738 262.136 -316.723 262.265L-282.854 293.197C-282.274 292.609 -281.38 292.509 -280.571 292.809C-280.301 292.909 -280.031 293.01 -279.874 293.253L-262.18 277.021L-316.624 261.993ZM-226.722 244.026L-315.092 261.82L-261.458 276.548L-226.408 244.513C-226.551 244.399 -226.707 244.155 -226.722 244.026ZM-226.095 245.001L-260.918 276.748L-239.177 282.659C-238.768 281.699 -237.677 281.053 -236.74 281.339L-225.541 245.33C-225.81 245.23 -225.953 245.115 -226.095 245.001ZM-223.852 245.401C-224.22 245.573 -224.603 245.616 -225.001 245.531L-236.2 281.54C-235.106 282.07 -234.578 283.317 -234.972 284.406C-234.972 284.406 -234.958 284.535 -235.085 284.549L-189.401 313.627C-189.288 313.484 -189.175 313.341 -188.934 313.183L-223.852 245.401ZM-185.536 315.804C-185.62 316.206 -185.974 316.507 -186.2 316.794L-179.202 328.415L-155.719 311.923C-155.733 311.794 -155.89 311.55 -155.905 311.421L-185.368 315.002C-185.339 315.26 -185.437 315.532 -185.536 315.804ZM-155.306 301.817C-155.846 301.617 -156.145 301.259 -156.444 300.901L-185.44 314.357L-185.426 314.486L-155.963 310.905C-155.992 310.647 -155.893 310.375 -155.795 310.102C-155.499 309.285 -154.904 308.826 -154.153 308.611L-154.638 302.004C-154.908 301.903 -155.164 301.932 -155.306 301.817ZM-153.037 301.301C-153.391 301.602 -153.759 301.774 -154.128 301.946L-153.642 308.553C-153.387 308.525 -153.244 308.639 -152.975 308.739C-152.435 308.94 -151.994 309.413 -151.68 309.9L-145.201 307.733L-153.037 301.301ZM-151.619 311.591C-151.604 311.72 -151.604 311.72 -151.619 311.591L-104.089 340.984L-144.647 308.062L-151.494 310.401C-151.451 310.788 -151.407 311.175 -151.619 311.591ZM-119.693 332.161L-151.929 312.279C-152.156 312.566 -152.509 312.867 -152.878 313.039L-143.883 355.003L-102.577 344.079C-102.621 343.692 -102.536 343.291 -102.438 343.018C-102.438 343.018 -102.452 342.889 -102.325 342.875L-119.693 332.161ZM-123.155 300.285L-152.274 300.039C-152.259 300.168 -152.373 300.311 -152.344 300.569C-152.457 300.713 -152.442 300.842 -152.555 300.985L-144.435 307.647L-123.126 300.543C-123.155 300.285 -123.155 300.285 -123.155 300.285ZM-120.227 302.176C-120.723 302.363 -121.249 302.291 -121.788 302.091C-122.328 301.89 -122.769 301.417 -123.083 300.93L-144.023 307.862L-102.029 342.058C-101.916 341.914 -101.788 341.9 -101.675 341.757L-120.227 302.176ZM-101.051 341.556C-100.555 341.369 -100.03 341.441 -99.49 341.641C-98.9503 341.842 -98.5237 342.185 -98.3379 342.687L-92.3986 340.32L-119.246 302.849L-101.051 341.556ZM-74.1359 367.001C-74.1505 366.872 -74.0229 366.857 -74.0374 366.728L-98.8132 345.353C-99.0541 345.511 -99.2949 345.669 -99.6634 345.841L-94.0486 376.168L-74.1038 368.434C-74.2751 368.061 -74.3332 367.545 -74.1359 367.001ZM-98.2621 344.507C-98.3752 344.651 -98.3607 344.78 -98.4738 344.923L-73.7125 366.169L-92.1141 340.549L-98.1666 343.06C-98.1085 343.576 -98.0503 344.092 -98.2621 344.507ZM-119.264 301.545L-119.377 301.688L-91.917 340.004L-76.5943 333.706C-76.7655 333.333 -76.6961 332.803 -76.4988 332.258C-76.5134 332.129 -76.3857 332.115 -76.4002 331.986L-119.264 301.545ZM-74.4757 335.296C-74.7311 335.325 -74.8733 335.21 -75.1431 335.11C-75.6829 334.909 -76.1096 334.566 -76.2954 334.064L-91.4903 340.348L-73.2309 365.854C-72.9901 365.696 -72.7492 365.538 -72.4939 365.509L-74.4757 335.296ZM-69.818 368.604C-69.9166 368.877 -70.0152 369.149 -70.256 369.307L-56.5482 385.397L-50.3826 382.743L-51.4601 377.77C-52.4815 377.885 -53.4623 377.212 -53.7063 376.194C-54.0779 375.191 -53.669 374.231 -52.9611 373.628L-70.0587 368.762L-69.818 368.604ZM-49.7588 382.542L-39.3977 378.109C-39.4122 377.98 -39.4267 377.851 -39.4413 377.722L-49.3218 376.092C-49.5045 376.766 -50.0848 377.354 -50.7086 377.555L-49.7588 382.542ZM-49.4672 374.802C-49.4381 375.06 -49.2814 375.304 -49.38 375.576L-41.4726 376.906L-49.4672 374.802ZM-38.7562 379.213C-38.8984 379.098 -39.0551 378.854 -39.1973 378.74L-49.5584 383.173L-47.2727 394.28C-47.0173 394.251 -46.8751 394.366 -46.6053 394.466L-41.2826 384.331L-38.7562 379.213ZM-47.911 394.352L-50.1677 383.503L-56.0925 385.999L-48.648 394.696C-48.4217 394.41 -48.1664 394.381 -47.911 394.352ZM-22.5796 347.215L-49.6821 374.043L-39.5285 376.948L-39.543 376.819C-39.1486 375.73 -38.0431 375.213 -36.9927 375.356L-22.5796 347.215ZM16.931 322.646L8.459 327.781L-19.1532 344.347C-19.1387 344.476 -18.9965 344.59 -18.982 344.719C-18.7671 345.479 -18.8221 346.138 -19.2602 346.841L-3.2605 360.322L17.2299 323.004C17.2154 322.875 17.0732 322.761 16.931 322.646ZM17.7987 323.463L-2.8339 360.665L20.7317 380.479C20.9725 380.321 21.2133 380.163 21.5818 379.991C21.7094 379.977 21.8371 379.962 21.9648 379.948L18.6084 323.763C18.1963 323.548 17.9409 323.577 17.7987 323.463ZM44.1683 378.491L81.4307 372.987C81.3871 372.6 81.5989 372.184 81.6829 371.783L48.3229 345.366L23.6972 380.406C23.9816 380.635 24.1529 381.008 24.3241 381.38L24.3387 381.509L44.1683 378.491ZM26.6803 381.637L78.429 380.771L82.258 374.592C81.9736 374.363 81.6747 374.004 81.5034 373.632L81.4889 373.503L26.6803 381.637ZM22.955 384.147C22.4589 384.334 21.9337 384.262 21.3939 384.062L18.415 389.753L62.491 401.116L24.0024 383.115C23.8052 383.659 23.4512 383.961 22.955 384.147ZM20.8542 383.861C20.4421 383.646 20.1432 383.288 20.085 382.772C20.0705 382.643 20.0414 382.385 20.0269 382.256L-12.3416 381.854L17.8897 389.682L20.8542 383.861ZM20.3522 323.175C20.1113 323.333 19.8705 323.491 19.6152 323.519C19.3599 323.548 19.119 323.706 18.9768 323.591L22.3187 379.647C22.5741 379.618 22.9716 379.704 23.256 379.933L47.8963 345.022L20.3522 323.175ZM55.9924 331.961C55.8212 331.589 55.7921 331.331 55.8762 330.929L21.031 322.315C20.9179 322.458 20.9324 322.587 20.8193 322.73L48.3489 344.448L56.5903 332.678C56.3204 332.577 56.0215 332.219 55.9924 331.961ZM57.0315 333.15L48.79 344.921L82.1501 371.338L82.2632 371.195L74.1969 358.126L58.9901 333.322C58.8625 333.336 58.8625 333.336 58.7348 333.35C58.2386 333.537 57.5858 333.48 57.0315 333.15ZM104.79 347.364L92.1497 343.041L84.5467 370.807C84.6889 370.921 84.8166 370.907 84.9588 371.022L105.264 349.27C105.107 349.027 104.95 348.783 104.921 348.525C104.75 348.152 104.706 347.765 104.79 347.364ZM91.6099 342.84L60.1361 332.017C60.0375 332.289 59.8112 332.576 59.5849 332.863L74.8062 357.796L82.7303 370.75L82.8579 370.736C83.2264 370.564 83.6094 370.521 83.8793 370.621L91.6099 342.84ZM102.149 298.675L53.7886 308.957L57.8431 328.879C58.4815 328.807 59.1634 329.122 59.6046 329.595L102.193 299.062C102.178 298.933 102.164 298.804 102.149 298.675ZM102.634 299.535L60.0458 330.068C60.0603 330.197 60.2025 330.311 60.217 330.44C60.3883 330.813 60.4319 331.2 60.3478 331.601L91.8071 342.295L103.33 299.979C103.06 299.879 102.776 299.65 102.634 299.535ZM120.578 270.604C120.45 270.618 120.451 270.618 120.323 270.633C119.827 270.819 119.301 270.748 118.776 270.676L105.477 296.08C105.889 296.295 106.188 296.653 106.246 297.169C106.403 297.412 106.446 297.799 106.348 298.072L139.509 303.218C139.593 302.817 139.933 302.387 140.287 302.086L120.578 270.604ZM181.199 276.184L198.689 284.533L206.459 266.284C206.047 266.069 205.762 265.84 205.591 265.467L181.648 274.435C181.706 274.951 181.651 275.61 181.199 276.184ZM180.859 276.614C180.618 276.772 180.377 276.929 180.122 276.958C179.994 276.973 179.867 276.987 179.611 277.016L190.431 300.747C190.799 300.575 191.324 300.646 191.722 300.732L198.349 284.963L180.859 276.614ZM177.179 274.938L143.554 271.412L142.3 301.598C142.698 301.683 143.11 301.898 143.537 302.242L165.995 284.689L177.409 275.827C177.409 275.827 177.409 275.827 177.394 275.698C177.223 275.325 177.208 275.196 177.179 274.938ZM143.722 302.744C143.737 302.873 143.879 302.987 143.894 303.116C143.908 303.245 143.923 303.374 143.937 303.503L172.075 303.076L177.751 276.572C177.609 276.457 177.595 276.328 177.452 276.214L143.722 302.744ZM172.841 302.99L188.974 302.74C189.029 302.081 189.482 301.507 189.949 301.063L178.973 277.088C178.718 277.116 178.576 277.002 178.306 276.902L172.841 302.99ZM190.13 304.961L166.238 338.482C166.38 338.596 166.522 338.711 166.551 338.969L187.201 329.458L190.556 305.305C190.414 305.19 190.272 305.076 190.13 304.961ZM189.575 304.632C189.291 304.402 189.134 304.159 188.963 303.786C188.948 303.657 188.934 303.528 188.905 303.27L172.644 303.535L165.271 337.937C165.399 337.923 165.541 338.037 165.541 338.037L189.575 304.632ZM172.133 303.592L144.138 304.134C144.068 304.664 143.743 305.223 143.404 305.653L151.911 319.195L163.739 338.11C163.867 338.095 163.867 338.095 163.995 338.081C164.235 337.923 164.618 337.88 164.888 337.98L172.133 303.592ZM151.131 319.152L142.78 305.854C142.652 305.869 142.652 305.869 142.525 305.883C141.901 306.084 141.12 306.041 140.566 305.712L131.741 316.895L162.889 338.598C163.002 338.454 163.002 338.454 163.115 338.311L151.131 319.152ZM140.139 305.368C139.983 305.125 139.698 304.895 139.655 304.508C139.626 304.25 139.469 304.007 139.567 303.734L106.406 298.588C106.293 298.731 106.307 298.86 106.194 299.004L131.329 316.681L140.139 305.368ZM121.06 270.288L140.896 301.756C141.024 301.741 141.024 301.741 141.151 301.727C141.279 301.713 141.534 301.684 141.662 301.67L142.901 271.354L121.837 269.156C121.753 269.557 121.414 269.987 121.06 270.288ZM144.398 226.118L121.05 266.762C121.335 266.992 121.634 267.35 121.82 267.851C121.849 268.109 122.005 268.353 121.892 268.496L142.956 270.695L144.796 226.204C144.668 226.219 144.526 226.104 144.398 226.118ZM145.959 226.204C145.832 226.218 145.576 226.247 145.449 226.261L143.609 270.752L177.234 274.279C177.319 273.878 177.53 273.462 177.884 273.161L146.2 226.046C146.2 226.046 146.073 226.06 145.959 226.204ZM146.908 225.444C146.795 225.587 146.795 225.587 146.682 225.731L178.366 272.845C178.493 272.831 178.479 272.702 178.607 272.687C178.734 272.673 178.862 272.659 178.99 272.644L177.583 245.24L146.908 225.444ZM175.481 239.207C175.295 238.705 175.379 238.304 175.449 237.773L148.626 225.773L177.51 244.595L177.33 240.696C176.549 240.654 175.71 240.095 175.481 239.207ZM179.628 272.572C180.409 272.615 181.105 273.059 181.433 273.675L205.391 264.836C205.19 264.206 205.26 263.676 205.457 263.131L178.265 245.555L179.628 272.572ZM179.073 240.108C178.833 240.266 178.592 240.424 178.351 240.581C178.223 240.596 178.096 240.61 177.968 240.624L178.192 244.91L204.119 261.583L179.073 240.108ZM247.37 208.247L179.705 237.685C179.906 238.316 179.723 238.99 179.398 239.549L205.895 262.428C206.136 262.271 206.377 262.113 206.618 261.955C207.369 261.74 208.022 261.797 208.591 262.255L247.84 208.978C247.698 208.863 247.414 208.634 247.37 208.247ZM209.145 262.585C209.16 262.714 209.287 262.699 209.302 262.828L241.785 242.448L253.501 235.119C253.486 234.99 253.486 234.99 253.472 234.861C253.086 233.729 253.706 232.353 254.826 231.965L249.828 209.407C249.317 209.464 248.792 209.393 248.38 209.178L209.145 262.585ZM209.647 264.749L246.742 276.114L254.824 236.537C254.427 236.452 254.128 236.093 253.843 235.864L229.562 251.01L222.436 255.47L209.63 263.444C209.673 263.831 209.731 264.347 209.647 264.749ZM314.242 280.789L351.54 277.893L351.525 277.764L319.051 269.535C318.854 270.08 318.401 270.653 317.65 270.869C316.657 271.242 315.578 270.841 315.093 269.981L314.242 280.789ZM314.568 269.91L275.015 283.771L313.589 280.731L314.568 269.91ZM275.654 214.857L269.597 220.765L293.992 237.611C294.105 237.468 294.218 237.324 294.346 237.31L278.153 215.229C278.025 215.243 278.025 215.243 277.912 215.387C277.16 215.602 276.238 215.445 275.654 214.857ZM274.328 185.876L227.71 184.075C227.724 184.204 227.611 184.347 227.64 184.605L275.59 211.991C275.816 211.704 276.17 211.403 276.666 211.216C276.794 211.202 276.794 211.202 276.922 211.187L274.328 185.876ZM274.926 212.98L251.47 207.915C251.485 208.044 251.357 208.059 251.372 208.188L269.17 220.421L275.341 214.37C275.326 214.241 275.184 214.126 275.17 213.997C274.998 213.625 274.955 213.238 274.926 212.98ZM326.852 172.382C327.491 172.31 328.158 172.496 328.727 172.955L341.498 162.372L320.825 141.84C320.712 141.984 320.457 142.013 320.344 142.156L326.852 172.382ZM321.143 149.251L324.969 174.031C325.152 173.357 325.619 172.913 326.228 172.583L321.143 149.251ZM327.999 176.825C327.872 176.839 327.744 176.854 327.616 176.868L329.844 203.527C330.369 203.598 330.909 203.799 331.336 204.142L342.862 195.137L328.353 176.524C328.24 176.667 328.127 176.81 327.999 176.825ZM326.978 176.94C326.325 176.883 325.771 176.553 325.315 175.952L328.665 197.651L326.978 176.94ZM319.592 142.371C319.337 142.4 319.067 142.3 318.812 142.329L297.597 184.692C298.009 184.906 298.322 185.394 298.494 185.766C298.68 186.268 298.625 186.927 298.413 187.343L327.874 204.402C328.1 204.115 328.454 203.814 328.95 203.627L329.078 203.613L319.592 142.371ZM271.675 132.486L299.442 136.804L300.466 121.797C299.799 121.611 299.245 121.281 298.917 120.665L271.474 131.856C271.631 132.099 271.646 132.228 271.675 132.486ZM300.08 136.732L317.314 139.362C317.413 139.09 317.624 138.674 317.865 138.516L302.48 121.308C302.367 121.452 302.111 121.481 301.998 121.624C301.743 121.653 301.615 121.667 301.36 121.696L300.08 136.732ZM317.218 140.81C317.189 140.552 317.033 140.308 317.131 140.036L300.025 137.391L296.773 184.262C296.9 184.247 297.043 184.362 297.043 184.362L318.257 141.999C317.831 141.655 317.404 141.312 317.218 140.81ZM296.331 210.176L327.509 205.749C327.48 205.491 327.564 205.09 327.662 204.818L298.059 187.644C297.833 187.931 297.479 188.232 296.982 188.418C296.855 188.433 296.599 188.462 296.472 188.476L296.331 210.176ZM295.976 188.662C295.706 188.562 295.45 188.591 295.166 188.362L278.767 211.502C279.052 211.731 279.223 212.104 279.38 212.347L279.394 212.476L295.678 210.119L295.976 188.662ZM328.365 207.612L297.511 237.868C297.668 238.111 297.81 238.226 297.839 238.484C298.04 239.114 297.97 239.645 297.773 240.189L319.579 254.714L329.047 207.927C328.777 207.827 328.507 207.727 328.365 207.612ZM297.434 240.62L297.32 240.763L316.021 266.741C316.149 266.727 316.262 266.584 316.389 266.569C316.63 266.411 317.013 266.368 317.283 266.469L319.524 255.374L297.434 240.62ZM297.07 237.395L327.924 207.139C327.767 206.896 327.625 206.781 327.596 206.523L327.581 206.394L296.276 210.836L295.976 236.865C296.374 236.951 296.786 237.165 297.07 237.395ZM295.637 210.908L279.339 213.136C279.284 213.795 279.101 214.469 278.507 214.928L294.699 237.009C294.699 237.009 294.699 237.009 294.827 236.994C294.955 236.98 295.21 236.951 295.338 236.937L295.637 210.908ZM278.341 211.158L294.739 188.018C294.455 187.789 294.284 187.416 294.127 187.173C294.112 187.044 294.083 186.786 294.069 186.657L274.981 185.933L277.418 211.001C277.673 210.972 277.943 211.072 278.341 211.158ZM293.996 186.012C294.051 185.352 294.391 184.922 294.985 184.463L270.233 134.608C270.105 134.623 270.105 134.623 269.978 134.637L274.894 185.159L293.996 186.012ZM295.481 184.277C295.737 184.248 295.865 184.234 296.12 184.205L299.372 137.334L271.605 133.017C271.536 133.547 271.196 133.977 270.715 134.293L295.481 184.277ZM271.117 130.982L328.66 94.323C328.645 94.194 328.645 94.194 328.631 94.065C328.631 94.065 328.631 94.065 328.616 93.936L280.818 102.326L270.534 130.394C270.691 130.638 270.961 130.738 271.117 130.982ZM272.394 130.838L298.844 120.02C298.585 118.873 299.093 117.641 300.213 117.253C300.964 117.038 301.887 117.195 302.456 117.654L327.641 95.6134L272.394 130.838ZM302.692 120.893L318.219 138.215C318.332 138.072 318.588 138.043 318.715 138.029C319.084 137.857 319.339 137.828 319.737 137.914L322.627 125.701L303.159 120.448C302.918 120.606 302.805 120.749 302.692 120.893ZM320.262 137.985C320.802 138.186 321.37 138.644 321.585 139.404C321.6 139.533 321.614 139.662 321.629 139.791L368.494 138.037C368.494 138.037 368.494 138.037 368.479 137.908L323.152 125.772L320.262 137.985ZM368.723 138.926C368.709 138.797 368.694 138.668 368.68 138.539L321.672 140.177C321.588 140.579 321.504 140.98 321.293 141.396L341.852 162.07L368.909 139.428C368.767 139.313 368.752 139.184 368.723 138.926ZM341.812 162.859L329.055 173.571C329.197 173.685 329.212 173.814 329.241 174.072C329.397 174.316 329.441 174.703 329.342 174.975L358.703 180.811C358.802 180.539 358.915 180.396 359.013 180.123L341.812 162.859ZM358.848 182.101C358.692 181.858 358.648 181.471 358.747 181.198L329.386 175.362C329.302 175.764 329.076 176.05 328.849 176.337L343.216 194.835L359.02 182.474C359.005 182.345 358.863 182.23 358.848 182.101ZM343.176 195.624L331.649 204.63C331.664 204.759 331.806 204.873 331.82 205.002C331.992 205.375 332.021 205.633 331.937 206.034L354.855 212.074C354.954 211.801 355.18 211.514 355.293 211.371L343.176 195.624ZM354.902 213.636C354.731 213.263 354.702 213.005 354.786 212.604L333.202 206.937L356.6 217.233L356.736 214.997C355.828 214.968 355.117 214.395 354.902 213.636ZM331.655 206.98C331.444 207.396 331.09 207.697 330.721 207.869L353.365 275.728L353.507 275.842L353.634 275.828L356.432 218.035L331.655 206.98ZM330.225 208.056C329.97 208.085 329.842 208.099 329.587 208.128L320.02 255.187L352.047 276.66C352.274 276.373 352.514 276.215 352.755 276.057L330.225 208.056ZM319.951 255.718L317.695 266.683C318.363 266.869 318.804 267.342 319.146 268.087C319.318 268.46 319.347 268.718 319.263 269.119L328.308 271.366L351.723 277.219C351.723 277.219 351.708 277.09 351.836 277.076L319.951 255.718ZM315.426 267.2L296.726 241.222C296.598 241.236 296.485 241.38 296.357 241.394C295.861 241.58 295.208 241.523 294.796 241.309L288.98 252.806L315.2 267.487C315.313 267.344 315.299 267.215 315.426 267.2ZM294.242 240.979C293.957 240.75 293.658 240.392 293.473 239.89C293.444 239.632 293.287 239.389 293.385 239.116L257.729 234.773C257.743 234.902 257.615 234.917 257.63 235.046L288.539 252.333L294.242 240.979ZM257.711 233.469C257.74 233.727 257.897 233.97 257.798 234.243L293.568 238.442C293.554 238.313 293.667 238.17 293.652 238.041L269.115 221.08L257.241 232.738C257.412 233.111 257.569 233.354 257.711 233.469ZM268.703 220.866L251.174 208.733C250.948 209.019 250.707 209.177 250.339 209.349L255.352 232.037C255.99 231.965 256.53 232.165 256.956 232.509L268.703 220.866ZM227.173 185.049L247.973 205.566C248.214 205.408 248.327 205.265 248.583 205.236C249.703 204.849 251.066 205.479 251.453 206.611C251.482 206.869 251.638 207.113 251.54 207.385L275.123 212.435L227.173 185.049ZM268.132 134.322L227.094 182.054C227.251 182.297 227.407 182.541 227.564 182.785C227.579 182.914 227.608 183.172 227.622 183.301L274.256 185.231L269.339 134.709C268.956 134.752 268.544 134.537 268.132 134.322ZM252.357 109.059L268.349 130.51C268.477 130.495 268.59 130.352 268.718 130.338C269.086 130.165 269.484 130.251 269.867 130.208L280.067 102.541L253.189 107.267C253.262 107.912 252.951 108.601 252.357 109.059ZM300.31 46.9633L252.504 105.777C252.788 106.006 252.96 106.379 253.116 106.622L280.377 101.853L300.452 47.0779C300.324 47.0923 300.324 47.0923 300.31 46.9633ZM302.396 47.1202L302.268 47.1345C301.9 47.3067 301.375 47.2352 300.977 47.1494L281.001 101.652L328.416 93.3054C328.328 92.5315 328.639 91.8433 329.234 91.3844L302.396 47.1202ZM329.13 95.0538L302.912 118.255C303.054 118.37 303.083 118.628 303.225 118.743C303.396 119.115 303.44 119.502 303.341 119.774L322.81 125.027L329.954 95.4834C329.556 95.3976 329.414 95.283 329.13 95.0538ZM331.997 95.2533C331.884 95.3967 331.628 95.4254 331.515 95.5688C331.147 95.741 330.891 95.7697 330.494 95.6839L323.35 125.227L368.676 137.364C368.775 137.091 368.888 136.948 369.001 136.805L331.997 95.2533ZM361.224 179.09L370.047 140.344C369.777 140.244 369.507 140.144 369.35 139.9L342.406 162.4L359.721 179.521C359.962 179.363 360.075 179.22 360.33 179.191C360.586 179.162 360.841 179.134 361.224 179.09ZM360.442 183.62C360.044 183.534 359.76 183.305 359.475 183.076L343.672 195.437L355.903 211.041C356.03 211.027 356.144 210.883 356.271 210.869C356.527 210.84 356.767 210.682 357.037 210.783L360.442 183.62ZM358.849 214.236C358.622 214.523 358.268 214.824 357.772 215.011C357.645 215.025 357.389 215.054 357.262 215.068L357.14 217.433L388.977 231.481L358.849 214.236ZM391.665 233.53L356.972 218.236L354.16 275.899C354.43 275.999 354.827 276.085 355.112 276.315L392.039 235.708C391.883 235.465 391.726 235.221 391.569 234.977C391.511 234.461 391.581 233.931 391.665 233.53ZM392.579 235.909L355.651 276.515C355.808 276.759 355.95 276.873 355.979 277.131L388.764 268.604L393.261 236.224C393.006 236.253 392.736 236.152 392.579 235.909ZM407.519 261.788L394.552 236.209C394.297 236.238 394.056 236.395 393.786 236.295L389.26 268.418L406.46 263.867C406.501 263.079 406.797 262.262 407.519 261.788ZM386.32 293.96L407.273 265.343C406.989 265.114 406.832 264.87 406.788 264.483L389.333 269.063L385.908 293.746C386.05 293.86 386.178 293.846 386.32 293.96ZM384.489 293.775C384.744 293.746 384.985 293.588 385.255 293.689L388.709 269.263L356.548 277.59L383.54 294.535C383.766 294.248 384.12 293.947 384.489 293.775ZM382.934 296.04C382.89 295.653 382.989 295.381 383.087 295.108L355.968 278.177C355.942 279.095 355.391 279.941 354.526 280.299C353.662 280.658 352.724 280.372 352.126 279.655L313.104 306.259L382.934 296.04ZM351.798 279.039C351.784 278.91 351.784 278.91 351.642 278.796C351.627 278.667 351.627 278.667 351.613 278.538L314.187 281.448L312.181 306.102L351.798 279.039ZM311.67 306.159L313.676 281.505L275.102 284.545C275.131 284.803 275.032 285.076 274.919 285.219L311.67 306.159ZM274.829 283.27L314.751 269.236C314.707 268.849 314.649 268.333 314.861 267.917L288.769 253.222L274.089 282.439C274.373 282.668 274.658 282.897 274.829 283.27ZM273.534 282.109L288.214 252.892L257.291 235.476C257.064 235.762 256.838 236.049 256.469 236.221L272.356 281.981C272.739 281.938 273.265 282.009 273.534 282.109ZM271.875 282.296L255.988 236.537C255.733 236.566 255.605 236.58 255.35 236.609L247.282 276.315L270.842 283.458C271.039 282.913 271.379 282.483 271.875 282.296ZM242.871 303.722L270.79 285.292C270.776 285.163 270.776 285.163 270.633 285.049C270.462 284.676 270.418 284.289 270.503 283.888L247.07 276.731L241.747 302.934C242.16 303.149 242.572 303.363 242.871 303.722ZM240.329 302.963C240.569 302.805 240.952 302.762 241.222 302.862L246.53 276.53L209.308 265.179C209.195 265.322 209.096 265.595 208.983 265.738L214.663 272.544L239.832 303.149C240.088 303.121 240.215 303.106 240.329 302.963ZM239.493 303.58L214.495 273.347L208.644 266.168C208.516 266.183 208.403 266.326 208.275 266.34C207.907 266.512 207.382 266.441 206.984 266.355L199.228 284.733L239.267 303.866C239.252 303.737 239.38 303.723 239.493 303.58ZM238.942 304.425L198.903 285.292L192.276 301.062C192.688 301.276 193.129 301.749 193.315 302.251C193.33 302.38 193.359 302.638 193.373 302.767L238.843 304.698C238.971 304.683 238.956 304.554 238.942 304.425ZM238.916 305.343L193.446 303.412C193.278 304.214 192.84 304.917 191.975 305.276C191.72 305.304 191.479 305.462 191.209 305.362L187.825 329.257L238.959 305.73C238.93 305.472 238.93 305.472 238.916 305.343ZM181.581 377.118L237.898 306.633L187.627 329.801L181.041 376.917C181.311 377.017 181.438 377.003 181.581 377.118ZM180.516 376.846L187.146 330.117L166.865 339.456C167.236 340.459 166.714 341.563 165.864 342.051L180.005 376.903C180.133 376.889 180.26 376.874 180.516 376.846ZM178.575 377.979C178.801 377.692 179.027 377.405 179.381 377.104L165.24 342.252C164.106 342.51 162.884 341.994 162.498 340.862L162.483 340.733L109.247 347.907C109.276 348.165 109.163 348.308 109.192 348.566L178.575 377.979ZM109.16 347.133L109.175 347.262L162.411 340.088C162.367 339.701 162.466 339.429 162.677 339.013L131.529 317.311L108.661 346.144C108.832 346.517 108.989 346.76 109.16 347.133ZM108.121 345.944L130.99 317.111L105.869 299.563C105.643 299.849 105.402 300.007 105.019 300.05C104.891 300.065 104.636 300.093 104.508 300.108L107.169 345.528C107.439 345.629 107.837 345.715 108.121 345.944ZM106.29 345.758C106.418 345.744 106.545 345.729 106.673 345.715L104.012 300.294L103.885 300.309L92.3614 342.625L105.002 346.948C105.199 346.404 105.666 345.959 106.29 345.758ZM90.0035 379.075C90.2443 378.917 90.3575 378.774 90.6128 378.745C91.109 378.558 91.6342 378.63 92.0317 378.716L105.705 349.743C105.705 349.743 105.705 349.743 105.563 349.628L85.2578 371.38C85.4145 371.624 85.5712 371.867 85.6003 372.125C85.8152 372.885 85.647 373.687 85.1945 374.261L90.0035 379.075ZM89.5364 379.519L84.9827 374.677C84.7419 374.834 84.6288 374.978 84.3734 375.007C83.7496 375.207 83.2244 375.136 82.6846 374.936L79.0819 380.828L89.142 380.609C89.0984 380.222 89.3102 379.806 89.5364 379.519ZM67.0872 400.598L89.4295 382.013C89.2873 381.899 89.2728 381.77 89.2437 381.512C89.2292 381.383 89.2146 381.254 89.2001 381.125L78.8701 381.244L67.0872 400.598C66.9595 400.613 66.9595 400.613 67.0872 400.598ZM64.7164 400.212C65.3402 400.011 65.8655 400.083 66.4052 400.283L78.1187 381.459L24.4259 382.283C24.4404 382.412 24.3273 382.556 24.3418 382.685L63.6545 401.116C63.8663 400.7 64.2203 400.399 64.7164 400.212ZM11.2219 406.239C11.2365 406.368 11.2365 406.368 11.251 406.497L63.2601 402.205L63.2456 402.076L18.1046 390.441L10.3251 405.165C10.7372 405.379 11.0361 405.738 11.2219 406.239ZM7.72809 405.065C7.84123 404.922 8.09658 404.893 8.33739 404.735C8.83354 404.549 9.35873 404.62 9.89848 404.821L17.5649 390.241L-12.5388 382.398C-12.6374 382.671 -12.736 382.943 -12.8491 383.086L7.72809 405.065ZM-12.571 380.965C-12.5564 381.094 -12.5564 381.094 -12.5419 381.223L19.9542 381.611C20.0529 381.339 20.1369 380.938 20.2355 380.665L-3.18784 360.967L-13.6245 379.647C-13.0557 380.105 -12.7568 380.463 -12.571 380.965ZM-14.8027 379.518C-14.5473 379.49 -14.2774 379.59 -14.0221 379.561L-3.59993 360.752L-19.7418 347.156C-19.9826 347.314 -20.2233 347.472 -20.4787 347.5C-20.6064 347.515 -20.734 347.529 -20.734 347.529L-14.8027 379.518ZM-16.8278 381.053C-16.6451 380.379 -16.0648 379.791 -15.441 379.59L-21.3579 347.73C-21.6132 347.759 -21.7554 347.644 -22.0253 347.544L-36.3253 375.542C-35.3734 375.958 -34.9873 377.09 -35.1409 378.022L-16.8278 381.053ZM-16.9523 382.242L-16.7955 382.486C-16.8246 382.228 -16.9813 381.984 -16.8827 381.712L-35.2105 378.552C-35.7471 379.527 -36.9802 380.058 -38.0597 379.657C-38.1874 379.671 -38.2019 379.542 -38.2019 379.542L-40.856 384.674L-45.9378 394.652C-45.7956 394.767 -45.7957 394.767 -45.6535 394.882C-45.5112 394.996 -45.5112 394.996 -45.369 395.111L-16.9523 382.242ZM-87.9273 399.514L-49.7503 396.388C-49.7794 396.13 -49.6808 395.858 -49.5676 395.714C-49.469 395.442 -49.3704 395.17 -49.1296 395.012L-56.7164 386.2L-87.9273 399.514ZM-88.1276 398.883L-57.0298 385.713L-70.723 369.751C-71.3323 370.081 -72.0839 370.296 -72.7658 369.981L-88.5688 398.41C-88.4266 398.525 -88.2844 398.64 -88.1276 398.883ZM-90.0603 397.795C-89.805 397.766 -89.5352 397.866 -89.2653 397.966C-89.1376 397.952 -89.1231 398.081 -88.9954 398.067L-73.3056 369.781C-73.5754 369.681 -73.7321 369.437 -73.8889 369.194L-93.9614 376.941L-90.0603 397.795ZM-124.31 394.469L-92.4394 399.63C-92.4539 399.501 -92.3408 399.358 -92.3554 399.229C-92.045 398.541 -91.4648 397.953 -90.8264 397.881L-94.5852 377.142L-134.106 392.437C-134.092 392.566 -134.077 392.695 -134.048 392.953L-124.31 394.469ZM-134.179 391.792L-94.6578 376.497L-100.287 346.042C-100.543 346.071 -100.94 345.985 -101.21 345.884C-101.338 345.899 -101.48 345.784 -101.48 345.784L-134.507 391.176C-134.365 391.291 -134.208 391.534 -134.179 391.792ZM-136.297 390.202C-136.042 390.174 -135.772 390.274 -135.502 390.374C-135.232 390.474 -135.09 390.589 -134.948 390.703L-101.921 345.311C-102.205 345.082 -102.362 344.839 -102.406 344.452L-143.712 355.376L-136.297 390.202ZM-137.432 390.461C-137.304 390.446 -137.063 390.289 -136.936 390.274L-144.336 355.577L-158.147 359.223C-158.104 359.61 -158.202 359.882 -158.286 360.284C-158.37 360.685 -158.597 360.972 -158.838 361.129L-137.432 390.461ZM-159.642 357.432C-158.975 357.618 -158.519 358.22 -158.333 358.721L-144.394 355.061L-153.389 313.097C-153.516 313.111 -153.516 313.111 -153.644 313.126L-155.803 328.391L-159.784 357.317C-159.77 357.446 -159.77 357.446 -159.642 357.432ZM-161.444 357.504C-161.203 357.346 -160.82 357.303 -160.437 357.26L-156.343 328.191L-154.297 313.069C-154.297 313.069 -154.425 313.083 -154.439 312.954C-154.837 312.868 -155.121 312.639 -155.278 312.395L-178.761 328.888L-161.444 357.504ZM-179.37 329.218L-215.204 354.286C-215.047 354.53 -215.018 354.788 -214.975 355.175L-162.674 359.21C-162.688 359.081 -162.575 358.938 -162.59 358.809C-162.506 358.408 -162.152 358.106 -161.926 357.82L-179.37 329.218ZM-171.247 379.509L-161.774 361.46C-162.343 361.002 -162.671 360.386 -162.743 359.741L-215.044 355.705C-215.03 355.834 -215.157 355.849 -215.143 355.978L-171.247 379.509ZM-215.518 353.799L-179.684 328.731L-186.682 317.109C-187.178 317.296 -187.816 317.368 -188.356 317.167C-188.484 317.182 -188.626 317.067 -188.626 317.067L-215.518 353.799ZM-216.499 353.126C-216.356 353.241 -216.229 353.226 -216.087 353.341L-189.308 316.752C-189.592 316.523 -189.764 316.15 -189.92 315.907L-225.929 323.36L-217.662 353.126C-217.166 352.94 -216.783 352.897 -216.499 353.126ZM-218.414 353.342C-218.301 353.198 -218.173 353.184 -217.918 353.155L-226.184 323.389L-240.211 326.275C-240.182 326.533 -240.266 326.935 -240.364 327.207C-240.463 327.479 -240.561 327.752 -240.802 327.909L-218.414 353.342ZM-247.129 365.852C-246.59 366.052 -246.163 366.396 -245.977 366.898L-219.542 355.951C-219.728 355.449 -219.644 355.048 -219.446 354.503C-219.348 354.231 -219.122 353.944 -219.008 353.801L-241.397 328.368C-241.751 328.669 -242.262 328.727 -242.645 328.77L-247.385 365.881C-247.272 365.737 -247.144 365.723 -247.129 365.852ZM-247.924 365.68L-243.184 328.57C-243.312 328.584 -243.312 328.584 -243.454 328.469C-243.596 328.355 -243.866 328.255 -244.009 328.14L-264.226 350.666L-249.3 366.096C-248.818 365.781 -248.322 365.594 -247.924 365.68ZM-294.02 384.59L-250.074 368.404C-250.118 368.017 -250.176 367.501 -249.964 367.086C-249.865 366.813 -249.752 366.67 -249.639 366.526L-264.566 351.096L-294.333 384.102C-294.177 384.346 -294.035 384.461 -294.02 384.59ZM-295.172 383.544C-295.03 383.658 -294.76 383.759 -294.632 383.744L-264.865 350.737L-288.712 326.123C-289.066 326.424 -289.562 326.61 -289.96 326.525L-295.457 383.315C-295.442 383.444 -295.314 383.429 -295.172 383.544ZM-296.35 383.415C-296.223 383.401 -296.095 383.387 -295.967 383.372L-290.471 326.582C-290.598 326.596 -290.613 326.467 -290.741 326.482C-290.868 326.496 -291.01 326.382 -291.01 326.382L-307.285 348.332L-296.35 383.415ZM-297.404 382.097L-307.88 348.791L-310.241 351.931C-309.658 352.518 -309.414 353.536 -309.709 354.353C-309.921 354.769 -310.133 355.185 -310.615 355.5L-297.404 382.097ZM-311.988 351.344C-311.733 351.315 -311.335 351.401 -311.065 351.501C-310.937 351.487 -310.795 351.602 -310.795 351.602L-308.208 348.175L-317.623 318.538L-311.988 351.344ZM-313.914 352.606C-313.604 351.918 -313.137 351.474 -312.498 351.402L-318.48 316.675C-318.735 316.704 -319.133 316.618 -319.403 316.517C-320.084 316.202 -320.526 315.73 -320.726 315.099L-384.908 330.691C-384.879 330.949 -384.85 331.207 -384.934 331.608L-313.914 352.606ZM-385.109 330.06L-320.799 314.454C-320.813 314.325 -320.828 314.196 -320.828 314.196L-358.8 308.808L-372.598 306.835C-372.598 306.835 -372.584 306.964 -372.711 306.979C-373.091 308.197 -374.452 308.742 -375.532 308.341L-386.006 328.985C-385.594 329.2 -385.295 329.558 -385.109 330.06ZM-386.545 328.785L-376.071 308.141C-376.498 307.797 -376.939 307.324 -377.012 306.679L-393.54 308.019L-387.709 328.785C-387.34 328.613 -386.943 328.699 -386.545 328.785ZM-384.171 362.481L-387.215 333.171C-387.47 333.2 -387.74 333.1 -388.01 332.999C-389.217 332.613 -389.76 331.237 -389.38 330.019C-389.282 329.746 -389.183 329.474 -388.942 329.316L-403.892 310.23L-384.171 362.481ZM-385.149 362.983C-385.036 362.84 -384.908 362.825 -384.795 362.682L-404.502 310.56C-404.885 310.604 -405.395 310.661 -405.807 310.446C-405.935 310.461 -405.95 310.332 -406.077 310.346L-420.141 331.264L-385.149 362.983ZM-448.064 374.905L-385.981 364.775C-386.01 364.517 -385.912 364.245 -385.828 363.844C-385.715 363.7 -385.729 363.571 -385.631 363.299L-420.338 331.808L-448.691 373.931C-448.406 374.16 -448.235 374.532 -448.064 374.905ZM-449.402 373.358C-449.274 373.343 -449.26 373.472 -449.132 373.458L-420.779 331.336L-435.174 318.327C-435.641 318.771 -436.265 318.972 -436.918 318.915L-449.402 373.358C-449.53 373.372 -449.53 373.372 -449.402 373.358ZM-450.055 373.3L-437.457 318.715C-437.727 318.615 -437.87 318.5 -438.012 318.385L-470.388 352.339L-451.572 373.602C-451.204 373.43 -450.58 373.229 -450.055 373.3ZM-451.958 404.605L-450.71 377.816C-450.837 377.83 -450.98 377.715 -451.107 377.73C-451.519 377.515 -451.804 377.286 -452.088 377.057L-477.577 391.816L-453.786 405.595C-453.333 405.021 -452.597 404.677 -451.958 404.605ZM-528.412 421.448L-454.122 407.2C-454.166 406.813 -454.067 406.541 -453.983 406.139L-478.058 392.131L-528.426 421.319C-528.554 421.334 -528.426 421.319 -528.412 421.448ZM-529.863 420.044C-529.451 420.259 -529.166 420.488 -528.867 420.846L-478.74 391.816L-520.666 367.409C-521.118 367.983 -521.728 368.313 -522.508 368.27L-530.005 419.93C-529.877 419.915 -529.877 419.915 -529.863 420.044Z" fill="white"/>
</g>
</g>
<defs>
<clipPath id="clip0">
<rect width="328" height="378" fill="white"/>
</clipPath>
</defs>
</svg>
