<svg width="178" height="200" viewBox="0 0 178 200" fill="none" xmlns="http://www.w3.org/2000/svg">
<g filter="url(#filter0_dd)">
<path d="M89.1533 11L162.765 53.5V138.5L89.1533 181L15.5412 138.5V53.5L89.1533 11Z" fill="white"/>
</g>
<path d="M67.1414 111L65.4264 106.065H54.9964L53.2814 111H48.9064L57.7964 86.5H62.6264L71.4814 111H67.1414ZM56.3264 102.285H64.0964L60.2114 91.225L56.3264 102.285ZM84.7782 111.455C81.0915 111.455 78.0348 110.242 75.6082 107.815C73.1815 105.365 71.9682 102.343 71.9682 98.75C71.9682 95.1567 73.1815 92.1467 75.6082 89.72C78.0348 87.27 81.0915 86.045 84.7782 86.045C86.9948 86.045 89.0365 86.57 90.9032 87.62C92.7932 88.67 94.2632 90.0933 95.3132 91.89L91.8132 93.92C91.1598 92.7067 90.2032 91.75 88.9432 91.05C87.7065 90.3267 86.3182 89.965 84.7782 89.965C82.1648 89.965 80.0415 90.7933 78.4082 92.45C76.7982 94.1067 75.9932 96.2067 75.9932 98.75C75.9932 101.293 76.7982 103.393 78.4082 105.05C80.0415 106.707 82.1648 107.535 84.7782 107.535C86.3182 107.535 87.7182 107.185 88.9782 106.485C90.2382 105.762 91.1832 104.793 91.8132 103.58L95.3132 105.575C94.2865 107.372 92.8282 108.807 90.9382 109.88C89.0715 110.93 87.0182 111.455 84.7782 111.455ZM110.071 111.455C106.384 111.455 103.328 110.242 100.901 107.815C98.4745 105.365 97.2611 102.343 97.2611 98.75C97.2611 95.1567 98.4745 92.1467 100.901 89.72C103.328 87.27 106.384 86.045 110.071 86.045C112.288 86.045 114.329 86.57 116.196 87.62C118.086 88.67 119.556 90.0933 120.606 91.89L117.106 93.92C116.453 92.7067 115.496 91.75 114.236 91.05C112.999 90.3267 111.611 89.965 110.071 89.965C107.458 89.965 105.334 90.7933 103.701 92.45C102.091 94.1067 101.286 96.2067 101.286 98.75C101.286 101.293 102.091 103.393 103.701 105.05C105.334 106.707 107.458 107.535 110.071 107.535C111.611 107.535 113.011 107.185 114.271 106.485C115.531 105.762 116.476 104.793 117.106 103.58L120.606 105.575C119.579 107.372 118.121 108.807 116.231 109.88C114.364 110.93 112.311 111.455 110.071 111.455ZM123.95 86.5H127.975V111H123.95V86.5Z" fill="#3D3D50"/>
<defs>
<filter id="filter0_dd" x="0.541016" y="0" width="177.224" height="200" filterUnits="userSpaceOnUse" color-interpolation-filters="sRGB">
<feFlood flood-opacity="0" result="BackgroundImageFix"/>
<feColorMatrix in="SourceAlpha" type="matrix" values="0 0 0 0 0 0 0 0 0 0 0 0 0 0 0 0 0 0 127 0"/>
<feOffset dy="4"/>
<feGaussianBlur stdDeviation="7.5"/>
<feColorMatrix type="matrix" values="0 0 0 0 0.796078 0 0 0 0 0.823529 0 0 0 0 0.866667 0 0 0 1 0"/>
<feBlend mode="normal" in2="BackgroundImageFix" result="effect1_dropShadow"/>
<feColorMatrix in="SourceAlpha" type="matrix" values="0 0 0 0 0 0 0 0 0 0 0 0 0 0 0 0 0 0 127 0"/>
<feOffset dy="4"/>
<feGaussianBlur stdDeviation="2"/>
<feColorMatrix type="matrix" values="0 0 0 0 0 0 0 0 0 0 0 0 0 0 0 0 0 0 0.25 0"/>
<feBlend mode="normal" in2="effect1_dropShadow" result="effect2_dropShadow"/>
<feBlend mode="normal" in="SourceGraphic" in2="effect2_dropShadow" result="shape"/>
</filter>
</defs>
</svg>
