<svg width="178" height="200" viewBox="0 0 178 200" fill="none" xmlns="http://www.w3.org/2000/svg">
<g filter="url(#filter0_dd)">
<path d="M89 11L162.612 53.5V138.5L89 181L15.3878 138.5V53.5L89 11Z" fill="white"/>
</g>
<path d="M84.7458 118.034C99.5256 118.034 111.508 105.258 111.508 89.5056C111.508 73.7537 99.5256 60.9775 84.7458 60.9775C69.966 60.9775 57.9834 73.7537 57.9834 89.5056C57.9834 105.258 69.966 118.034 84.7458 118.034Z" fill="#FF9311"/>
<path d="M73.379 83.1368C73.379 82.9186 73.3592 82.7202 73.3592 82.5218C73.3592 79.923 73.6171 77.4034 74.113 74.9633C73.8551 74.9831 73.5972 74.9831 73.3592 74.9831C66.4156 74.9831 60.6624 69.587 59.5713 62.5244C55.7622 66.9683 53.4609 72.8802 53.4609 79.3476C53.4609 80.2801 53.5205 81.1926 53.5998 82.0854C56.3177 81.0736 59.2142 80.538 62.2693 80.538C66.2569 80.5181 70.0064 81.4505 73.379 83.1368Z" fill="#FF9311"/>
<path d="M73.3787 74.964C73.6366 74.964 73.8945 74.9441 74.1326 74.9441C75.68 67.3856 79.4692 60.6999 84.7463 55.7799C82.3061 54.8475 79.6477 54.3516 76.91 54.3516C70.0458 54.3516 63.876 57.4861 59.5908 62.5053C60.6819 69.5678 66.4352 74.964 73.3787 74.964Z" fill="#48A2CA"/>
<path d="M80.2233 104.067C79.1322 104.226 78.0411 104.325 76.9103 104.325C64.8285 104.325 54.8893 94.5843 53.5998 82.0859C43.3432 85.895 35.9434 96.3103 35.9434 108.59C35.9434 124.084 47.7275 136.642 62.2495 136.642C75.6406 136.642 86.6908 125.989 88.3374 112.201C85.2425 109.979 82.4849 107.241 80.2233 104.067Z" fill="#FF9311"/>
<path d="M76.9101 104.325C78.0211 104.325 79.132 104.246 80.2231 104.067C76.057 98.2345 73.5177 91.0132 73.3788 83.1373C70.0062 81.451 66.2369 80.5186 62.2691 80.5186C59.2338 80.5186 56.3374 81.0542 53.5996 82.066C54.909 94.5842 64.8482 104.325 76.9101 104.325Z" fill="#FD4C17"/>
<path d="M106.709 46.9912C99.0309 46.9912 91.9485 49.7686 86.3143 54.4307C85.6795 54.9465 85.1835 55.3433 84.7471 55.7401C91.4526 59.1523 98.654 66.9093 100.003 74.9439C102.741 73.2378 105.955 72.2657 109.367 72.2657C119.683 72.2657 128.055 81.1733 128.055 92.1838C128.055 103.194 119.683 112.102 109.367 112.102C101.193 112.102 94.2498 106.507 91.7105 98.7305C90.5003 99.782 89.1711 100.734 87.7427 101.508C88.2982 103.77 88.5958 106.13 88.5958 108.59C88.5958 109.801 88.5164 111.011 88.3776 112.201C93.6348 115.891 99.9435 118.053 106.709 118.053C125.119 118.053 140.018 102.143 140.018 82.5422C140.018 62.9415 125.099 46.9912 106.709 46.9912Z" fill="#FD4C17"/>
<path d="M74.1328 74.9447C73.6368 77.3849 73.3789 79.9044 73.3789 82.5033C73.3789 82.7215 73.3789 82.9199 73.3987 83.1183C80.4415 86.6099 85.7583 93.3153 87.7421 101.489C89.1507 100.715 90.4799 99.7629 91.7099 98.7115C91.0354 96.6483 90.6783 94.466 90.6783 92.1845C90.6783 84.8244 94.4278 78.3966 100.002 74.9447C98.6733 66.91 93.7334 60.1847 87.0081 56.7725C87.2263 57.8239 87.3652 58.9349 87.3652 60.0657C87.3454 68.021 81.4929 74.5281 74.1328 74.9447Z" fill="#1A248A"/>
<path d="M91.6904 98.7109C94.2298 106.508 101.173 112.082 109.347 112.082C119.663 112.082 128.035 103.175 128.035 92.1641C128.035 81.1537 119.663 72.2461 109.347 72.2461C105.935 72.2461 102.741 73.2182 99.983 74.9243C100.221 76.3329 100.34 77.8208 100.34 79.3087C100.34 87.145 96.9874 94.1282 91.6904 98.7109Z" fill="#FD1615"/>
<path d="M90.6572 92.1832C90.6572 94.4845 91.0143 96.6667 91.6888 98.7101C96.9659 94.1274 100.339 87.1442 100.339 79.3277C100.339 77.8398 100.219 76.3519 99.9814 74.9434C94.4266 78.3953 90.6572 84.823 90.6572 92.1832Z" fill="#3A268E"/>
<path d="M74.1328 74.9435C81.493 74.5269 87.3454 68.0198 87.3454 60.0645C87.3454 58.9337 87.2264 57.8227 86.9883 56.7712C86.2543 56.3943 85.5004 56.0769 84.7465 55.7793C79.4893 60.6993 75.6802 67.3849 74.1328 74.9435Z" fill="#3A268E"/>
<path d="M87.7409 101.487C85.4197 102.777 82.9002 103.67 80.2021 104.066C82.4836 107.241 85.2412 109.978 88.3559 112.18C88.4947 111.01 88.5741 109.8 88.5741 108.57C88.5939 106.11 88.2963 103.749 87.7409 101.487Z" fill="#FD4C17"/>
<path d="M73.3789 83.1377C73.4979 91.0137 76.0175 98.235 80.2233 104.068C82.9015 103.671 85.4408 102.778 87.762 101.488C85.7583 93.3348 80.4216 86.6293 73.3789 83.1377Z" fill="#FD1615"/>
<path d="M91.8672 124.422C91.8275 125.136 91.5696 125.692 91.1331 126.108C90.6967 126.525 90.1015 126.723 89.3873 126.723C88.5938 126.723 87.9589 126.446 87.5026 125.87C87.0464 125.295 86.8281 124.521 86.8281 123.529V123.133C86.8281 122.498 86.9273 121.942 87.1455 121.466C87.3638 120.99 87.6614 120.613 88.0383 120.355C88.4351 120.097 88.8914 119.958 89.4072 119.958C90.1213 119.958 90.6967 120.157 91.1331 120.573C91.5696 120.99 91.8275 121.545 91.887 122.299H90.6173C90.5776 121.863 90.4785 121.565 90.2801 121.367C90.0817 121.168 89.8039 121.069 89.4072 121.069C88.9905 121.069 88.6533 121.228 88.4549 121.565C88.2367 121.883 88.1375 122.398 88.1375 123.073V123.569C88.1375 124.283 88.2367 124.799 88.4351 125.136C88.6334 125.473 88.9509 125.632 89.3873 125.632C89.7841 125.632 90.0817 125.533 90.2602 125.354C90.4586 125.156 90.5776 124.858 90.5975 124.462L91.8672 124.422ZM97.7791 123.47C97.7791 124.124 97.6799 124.68 97.4617 125.176C97.2434 125.672 96.9459 126.049 96.5293 126.307C96.1325 126.565 95.6762 126.703 95.1604 126.703C94.6446 126.703 94.1883 126.565 93.7915 126.307C93.3947 126.049 93.0773 125.672 92.8591 125.176C92.6409 124.68 92.5218 124.124 92.5218 123.49V123.172C92.5218 122.518 92.621 121.942 92.8591 121.466C93.0773 120.97 93.3947 120.593 93.7915 120.335C94.1883 120.077 94.6446 119.938 95.1604 119.938C95.6762 119.938 96.1325 120.077 96.5293 120.335C96.926 120.593 97.2434 120.97 97.4617 121.466C97.6799 121.962 97.7989 122.537 97.7989 123.172V123.47H97.7791ZM96.4896 123.172C96.4896 122.478 96.3705 121.962 96.1325 121.585C95.8944 121.228 95.577 121.049 95.1405 121.049C94.7041 121.049 94.3867 121.228 94.1486 121.585C93.9105 121.942 93.7915 122.458 93.7915 123.152V123.47C93.7915 124.144 93.9105 124.66 94.1486 125.037C94.3867 125.414 94.7239 125.593 95.1604 125.593C95.5968 125.593 95.9143 125.414 96.1523 125.057C96.3904 124.7 96.4896 124.184 96.5094 123.49V123.172H96.4896ZM100.378 120.018L101.965 124.799L103.552 120.018H105.219V126.624H103.949V124.819L104.068 121.704L102.402 126.624H101.529L99.8622 121.704L99.9812 124.819V126.624H98.7115V120.018H100.378ZM107.619 124.283V126.604H106.349V119.998H108.77C109.226 119.998 109.643 120.097 110 120.276C110.357 120.454 110.635 120.712 110.813 121.049C111.012 121.387 111.091 121.764 111.091 122.18C111.091 122.835 110.873 123.331 110.476 123.708C110.059 124.085 109.484 124.263 108.75 124.263L107.619 124.283ZM107.619 123.192H108.75C109.087 123.192 109.345 123.113 109.524 122.934C109.702 122.756 109.801 122.518 109.801 122.2C109.801 121.883 109.702 121.625 109.524 121.407C109.345 121.208 109.107 121.109 108.79 121.089H107.619V123.192ZM114.701 125.255H112.46L112.043 126.624H110.674L112.976 120.018H114.166L116.487 126.624H115.138L114.701 125.255ZM112.797 124.144H114.344L113.571 121.664L112.797 124.144ZM122.101 126.624H120.832L118.352 122.279V126.624H117.082V120.018H118.352L120.832 124.363V120.018H122.101V126.624ZM125.236 122.994L126.525 120.018H127.914L125.891 124.224V126.624H124.601V124.224L122.577 120.018H123.966L125.236 122.994Z" fill="#FD1615"/>
<path d="M46.2199 118.411H44.2559V108.293H46.2199V118.411ZM55.7623 118.411H53.7983L49.9892 111.745V118.411H48.0252V108.293H49.9892L53.7983 114.959V108.293H55.7425L55.7623 118.411ZM60.9799 115.892L63.1423 108.274H65.3246L62.0115 118.391H59.9681L56.6749 108.274H58.8373L60.9799 115.892ZM71.9308 114.007H68.1813V116.725H72.5855V118.391H66.2173V108.274H72.5657V109.96H68.1615V112.38H71.911L71.9308 114.007ZM78.6562 115.753C78.6562 115.356 78.5173 115.058 78.2594 114.84C78.0015 114.622 77.5254 114.404 76.8508 114.166C76.1763 113.928 75.6407 113.69 75.2439 113.471C74.1726 112.856 73.6171 112.023 73.6171 110.972C73.6171 110.416 73.756 109.94 74.0536 109.504C74.3512 109.067 74.7678 108.73 75.3034 108.492C75.8391 108.254 76.4541 108.135 77.1286 108.135C77.8031 108.135 78.4181 108.274 78.9339 108.532C79.4696 108.789 79.8663 109.166 80.1639 109.643C80.4615 110.119 80.6004 110.654 80.6004 111.269H78.6363C78.6363 110.813 78.4975 110.456 78.2197 110.198C77.942 109.94 77.565 109.801 77.0691 109.801C76.5929 109.801 76.216 109.9 75.9581 110.119C75.7002 110.337 75.5613 110.615 75.5613 110.972C75.5613 111.309 75.72 111.567 76.0176 111.805C76.335 112.023 76.7913 112.241 77.3865 112.44C78.4975 112.797 79.3108 113.233 79.8267 113.769C80.3425 114.305 80.5805 114.959 80.5805 115.753C80.5805 116.626 80.2631 117.32 79.6481 117.816C79.0331 118.312 78.18 118.55 77.1286 118.55C76.3946 118.55 75.7399 118.411 75.1249 118.133C74.5297 117.836 74.0734 117.459 73.756 116.963C73.4386 116.467 73.2799 115.892 73.2799 115.237H75.2439C75.2439 116.348 75.8788 116.903 77.1286 116.903C77.5849 116.903 77.9618 116.804 78.2197 116.606C78.5173 116.388 78.6562 116.11 78.6562 115.753ZM89.0913 109.96H86.175V118.411H84.211V109.98H81.3344V108.293H89.0715V109.96H89.0913ZM92.7813 108.274L95.2215 115.614L97.6418 108.274H100.221V118.391H98.2568V115.634L98.4552 110.853L95.896 118.391H94.547L91.9878 110.853L92.1862 115.614V118.372H90.2221V108.254L92.7813 108.274ZM107.641 114.007H103.891V116.725H108.295V118.391H101.927V108.274H108.275V109.96H103.871V112.38H107.621V114.007H107.641ZM117.163 118.411H115.199L111.39 111.745V118.411H109.426V108.293H111.39L115.199 114.959V108.293H117.143L117.163 118.411ZM125.813 109.96H122.896V118.411H120.932V109.98H118.056V108.293H125.793V109.96H125.813Z" fill="white"/>
<path d="M94.6266 100.178H88.8536L87.7624 103.69H84.251L90.2026 86.6482H93.2578L99.249 103.69H95.7376L94.6266 100.178ZM89.7463 97.3413H93.7537L91.75 90.9532L89.7463 97.3413ZM113.057 98.0158C112.938 99.841 112.303 101.289 111.152 102.341C110.002 103.392 108.494 103.928 106.629 103.928C104.586 103.928 102.959 103.194 101.788 101.726C100.618 100.258 100.023 98.234 100.023 95.655V94.6234C100.023 92.9768 100.3 91.5484 100.836 90.2985C101.372 89.0487 102.145 88.0964 103.157 87.4219C104.169 86.7474 105.34 86.4102 106.669 86.4102C108.514 86.4102 110.002 86.9458 111.132 87.9973C112.263 89.0487 112.918 90.5366 113.096 92.4411H109.803C109.724 91.35 109.426 90.5366 108.93 90.0605C108.434 89.5645 107.68 89.3066 106.669 89.3066C105.578 89.3066 104.744 89.7232 104.189 90.5763C103.653 91.4095 103.375 92.7189 103.356 94.4845V95.774C103.356 97.619 103.614 98.9681 104.129 99.8211C104.665 100.674 105.478 101.091 106.609 101.091C107.621 101.091 108.375 100.853 108.891 100.357C109.387 99.8608 109.684 99.0871 109.764 98.0555L113.057 98.0158ZM124.246 100.178H118.473L117.382 103.69H113.87L119.822 86.6482H122.877L128.868 103.69H125.357L124.246 100.178ZM119.346 97.3413H123.353L121.349 90.9532L119.346 97.3413ZM133.848 103.69H130.555V86.6482H133.848V103.69Z" fill="white"/>
<path d="M49.1953 102.678H46.4178L45.9417 104.345H43.7793L46.8543 95.3975H48.7588L51.8536 104.345H49.6714L49.1953 102.678ZM46.9138 101.012H48.7191L47.8066 97.917L46.9138 101.012ZM55.5833 101.19H54.4922V104.345H52.4686V95.3975H55.7817C56.7736 95.3975 57.5474 95.6355 58.1227 96.1117C58.6782 96.5878 58.9559 97.2425 58.9559 98.1154C58.9559 98.7304 58.8369 99.2462 58.5988 99.6628C58.3607 100.079 58.0036 100.397 57.4878 100.655L59.2336 104.265V104.365H57.0712L55.5833 101.19ZM54.4922 99.5239H55.7619C56.1388 99.5239 56.4364 99.4247 56.6348 99.2065C56.8332 98.9883 56.9324 98.6907 56.9324 98.3138C56.9324 97.9368 56.8332 97.6194 56.6348 97.421C56.4364 97.2028 56.1586 97.0838 55.7619 97.0838H54.4922V99.5239ZM66.4748 97.0838H63.9553V104.365H61.9317V97.0838H59.4519V95.4173H66.4748V97.0838Z" fill="white"/>
<path d="M145.056 68.1206L140.949 60.5224L123.829 60.4033L119.643 67.9222L132.26 84.0709L145.056 68.1206ZM120.833 67.5254L124.225 61.1572L128.947 61.2167L127.241 67.6048L120.833 67.5254ZM143.548 68.7157L133.292 81.6902L137.656 68.7157H143.548ZM140.354 61.2762L143.647 67.6841L137.438 67.704L135.652 61.2365L140.354 61.2762ZM131.328 81.7498L121.13 68.557L127.439 68.6165L131.328 81.7498ZM129.879 61.1969L134.641 61.2365L136.426 67.704L128.153 67.6246L129.879 61.1969ZM128.431 68.6364L136.644 68.7157L132.3 81.7894L128.431 68.6364Z" fill="white"/>
<path d="M133.351 61.2155H134.641L135.712 65.1039C136.386 66.3735 136.982 67.7027 137.517 69.0716L137.636 68.7145L143.528 68.6947L139.104 74.309C139.184 74.6264 139.243 74.9439 139.323 75.2811L145.056 68.1193L140.949 60.5211L132.815 60.4814C132.994 60.7195 133.173 60.9774 133.351 61.2155ZM140.354 61.275L143.647 67.6829L137.438 67.7027L135.652 61.2353L140.354 61.275Z" fill="#FD4C17"/>
<defs>
<filter id="filter0_dd" x="0.387695" y="0" width="177.224" height="200" filterUnits="userSpaceOnUse" color-interpolation-filters="sRGB">
<feFlood flood-opacity="0" result="BackgroundImageFix"/>
<feColorMatrix in="SourceAlpha" type="matrix" values="0 0 0 0 0 0 0 0 0 0 0 0 0 0 0 0 0 0 127 0"/>
<feOffset dy="4"/>
<feGaussianBlur stdDeviation="7.5"/>
<feColorMatrix type="matrix" values="0 0 0 0 0.796078 0 0 0 0 0.823529 0 0 0 0 0.866667 0 0 0 1 0"/>
<feBlend mode="normal" in2="BackgroundImageFix" result="effect1_dropShadow"/>
<feColorMatrix in="SourceAlpha" type="matrix" values="0 0 0 0 0 0 0 0 0 0 0 0 0 0 0 0 0 0 127 0"/>
<feOffset dy="4"/>
<feGaussianBlur stdDeviation="2"/>
<feColorMatrix type="matrix" values="0 0 0 0 0 0 0 0 0 0 0 0 0 0 0 0 0 0 0.25 0"/>
<feBlend mode="normal" in2="effect1_dropShadow" result="effect2_dropShadow"/>
<feBlend mode="normal" in="SourceGraphic" in2="effect2_dropShadow" result="shape"/>
</filter>
</defs>
</svg>
