<svg width="178" height="200" viewBox="0 0 178 200" fill="none" xmlns="http://www.w3.org/2000/svg">
<g filter="url(#filter0_dd)">
<path d="M89 11L162.612 53.5V138.5L89 181L15.3878 138.5V53.5L89 11Z" fill="white"/>
</g>
<path d="M66.8625 105L65.5885 101.334H57.8405L56.5665 105H53.3165L59.9205 86.8H63.5085L70.0865 105H66.8625ZM58.8285 98.526H64.6005L61.7145 90.31L58.8285 98.526ZM79.9641 105.338C77.2254 105.338 74.9548 104.437 73.1521 102.634C71.3494 100.814 70.4481 98.5693 70.4481 95.9C70.4481 93.2307 71.3494 90.9947 73.1521 89.192C74.9548 87.372 77.2254 86.462 79.9641 86.462C81.6108 86.462 83.1274 86.852 84.5141 87.632C85.9181 88.412 87.0101 89.4693 87.7901 90.804L85.1901 92.312C84.7048 91.4107 83.9941 90.7 83.0581 90.18C82.1394 89.6427 81.1081 89.374 79.9641 89.374C78.0228 89.374 76.4454 89.9893 75.2321 91.22C74.0361 92.4507 73.4381 94.0107 73.4381 95.9C73.4381 97.7893 74.0361 99.3493 75.2321 100.58C76.4454 101.811 78.0228 102.426 79.9641 102.426C81.1081 102.426 82.1481 102.166 83.0841 101.646C84.0201 101.109 84.7221 100.389 85.1901 99.488L87.7901 100.97C87.0274 102.305 85.9441 103.371 84.5401 104.168C83.1534 104.948 81.6281 105.338 79.9641 105.338ZM100.648 105L96.8001 98.37H93.2641V105H90.2741V86.8H97.5541C99.1834 86.8 100.561 87.372 101.688 88.516C102.832 89.6427 103.404 91.0207 103.404 92.65C103.404 93.8113 103.066 94.8773 102.39 95.848C101.731 96.8013 100.865 97.4947 99.7901 97.928L103.924 105H100.648ZM93.2641 89.608V95.692H97.5541C98.3514 95.692 99.0274 95.3973 99.5821 94.808C100.137 94.2187 100.414 93.4993 100.414 92.65C100.414 91.8007 100.137 91.0813 99.5821 90.492C99.0274 89.9027 98.3514 89.608 97.5541 89.608H93.2641ZM109.209 102.14H117.269V105H106.219V86.8H117.139V89.66H109.209V94.392H116.489V97.226H109.209V102.14ZM120.007 86.8H122.997V105H120.007V86.8Z" fill="#3D3D50"/>
<defs>
<filter id="filter0_dd" x="0.387695" y="0" width="177.224" height="200" filterUnits="userSpaceOnUse" color-interpolation-filters="sRGB">
<feFlood flood-opacity="0" result="BackgroundImageFix"/>
<feColorMatrix in="SourceAlpha" type="matrix" values="0 0 0 0 0 0 0 0 0 0 0 0 0 0 0 0 0 0 127 0"/>
<feOffset dy="4"/>
<feGaussianBlur stdDeviation="7.5"/>
<feColorMatrix type="matrix" values="0 0 0 0 0.796078 0 0 0 0 0.823529 0 0 0 0 0.866667 0 0 0 1 0"/>
<feBlend mode="normal" in2="BackgroundImageFix" result="effect1_dropShadow"/>
<feColorMatrix in="SourceAlpha" type="matrix" values="0 0 0 0 0 0 0 0 0 0 0 0 0 0 0 0 0 0 127 0"/>
<feOffset dy="4"/>
<feGaussianBlur stdDeviation="2"/>
<feColorMatrix type="matrix" values="0 0 0 0 0 0 0 0 0 0 0 0 0 0 0 0 0 0 0.25 0"/>
<feBlend mode="normal" in2="effect1_dropShadow" result="effect2_dropShadow"/>
<feBlend mode="normal" in="SourceGraphic" in2="effect2_dropShadow" result="shape"/>
</filter>
</defs>
</svg>
