<svg width="178" height="204" viewBox="0 0 178 204" fill="none" xmlns="http://www.w3.org/2000/svg">
<g filter="url(#filter0_dd)">
<path d="M89 15L162.612 57.5V142.5L89 185L15.3878 142.5V57.5L89 15Z" fill="white"/>
</g>
<path d="M107.523 100.483H108.474L111.452 108.179H110.05L108.002 102.444L105.954 108.179L104.551 108.179L107.523 100.483ZM105.947 105.503H110.119V106.716H105.947V105.503Z" fill="black"/>
<path d="M120.818 100.483H122.324V108.179H121.102V102.309L121.158 102.646L119.422 107.215H118.374L116.638 102.754L116.694 102.309V108.179H115.472V100.483H116.979L118.902 105.618L120.818 100.483Z" fill="black"/>
<path d="M128.378 108.179H127.045V100.483H128.378V108.179Z" fill="black"/>
<path d="M133.106 100.476H134.411V108.179H133.106V100.476ZM133.647 103.791H136.383C136.563 103.791 136.723 103.751 136.869 103.663C137.008 103.576 137.119 103.454 137.195 103.293C137.271 103.131 137.313 102.949 137.313 102.74C137.313 102.531 137.278 102.349 137.202 102.187C137.126 102.026 137.014 101.904 136.876 101.817C136.737 101.729 136.57 101.689 136.39 101.689H133.654V100.476H136.424C136.869 100.476 137.264 100.57 137.605 100.759C137.945 100.947 138.209 101.21 138.389 101.554C138.577 101.898 138.667 102.289 138.667 102.74C138.667 103.192 138.577 103.589 138.389 103.933C138.202 104.277 137.938 104.539 137.598 104.728C137.257 104.917 136.869 105.011 136.424 105.011H133.654V103.791H133.647ZM135.563 104.762L136.917 104.519L139 108.179H137.438L135.563 104.762Z" fill="black"/>
<path d="M99.7667 119.103L100.198 95.8191L71.4152 103.36L71.4826 92.2609L100.38 85.9396L100.623 72.778L69.2587 68L39.0876 71.9087L39 116.636L54.008 126.698L52.8624 78.5198L61.4885 81.3435L61.502 131.604L99.7667 119.103ZM90.7296 112.114L71.6106 118.153L71.7319 107.276L90.7296 112.114ZM50.8811 98.198L49.2367 97.3557L45.4426 110.989L50.5778 114.21L51.4539 122.048L40.8398 115.12L50.8339 88.0422L50.8811 98.198ZM44.4924 73.3509L69.2722 70.3048L94.5102 73.8159L62.4185 78.85L44.4924 73.3509Z" fill="black"/>
<path d="M102.334 72.8589L102.354 85.6026L110.367 83.7695L110.495 71.9289L102.334 72.8589Z" fill="black"/>
<path d="M109.713 115.41C109.713 115.983 109.599 116.488 109.37 116.919C109.141 117.357 108.824 117.694 108.406 117.93C107.995 118.166 107.51 118.287 106.964 118.287C106.411 118.287 105.926 118.173 105.508 117.95C105.09 117.728 104.76 117.411 104.531 117C104.302 116.589 104.187 116.117 104.187 115.578V113.307C104.187 112.734 104.302 112.236 104.531 111.798C104.76 111.366 105.077 111.029 105.495 110.787C105.906 110.551 106.391 110.43 106.937 110.43C107.382 110.43 107.799 110.524 108.184 110.713C108.568 110.901 108.884 111.171 109.134 111.515C109.39 111.858 109.558 112.263 109.653 112.714H108.285C108.224 112.505 108.13 112.323 107.988 112.168C107.853 112.02 107.692 111.899 107.503 111.825C107.321 111.744 107.126 111.703 106.93 111.703C106.64 111.703 106.391 111.771 106.169 111.899C105.953 112.034 105.784 112.215 105.663 112.458C105.542 112.701 105.481 112.977 105.481 113.3V115.572C105.481 115.855 105.542 116.111 105.663 116.326C105.784 116.542 105.96 116.71 106.182 116.832C106.404 116.953 106.667 117.007 106.957 117.007C107.247 117.007 107.503 116.946 107.719 116.818C107.934 116.69 108.103 116.508 108.224 116.272C108.339 116.037 108.399 115.754 108.399 115.423V115.187H107.031V113.974H109.713V115.41Z" fill="black"/>
<path d="M113.919 110.517H114.842L117.733 118.213H116.372L114.384 112.478L112.396 118.213H111.035L113.919 110.517ZM112.389 115.538H116.439V116.751H112.389V115.538Z" fill="black"/>
<path d="M124.244 110.517H125.706L125.706 118.213H124.52V112.343L124.574 112.68L122.889 117.25H121.871L120.187 112.788L120.241 112.343V118.213H119.055L119.055 110.517H120.517L122.384 115.652L124.244 110.517Z" fill="black"/>
<path d="M127.027 110.517H128.294V118.213H127.027L127.027 110.517ZM127.553 110.517H132.082V111.73H127.553V110.517ZM127.553 113.786H131.495V114.992H127.553V113.786ZM127.553 117H132.082V118.213H127.553V117Z" fill="black"/>
<path d="M137.698 116.181C137.698 115.852 137.582 115.598 137.349 115.42C137.119 115.241 136.702 115.061 136.099 114.88C135.495 114.698 135.015 114.496 134.658 114.273C133.976 113.844 133.634 113.285 133.634 112.596C133.634 111.992 133.88 111.495 134.37 111.104C134.864 110.713 135.503 110.517 136.289 110.517C136.81 110.517 137.275 110.613 137.683 110.805C138.091 110.997 138.412 111.272 138.645 111.628C138.878 111.982 138.995 112.374 138.995 112.806H137.698C137.698 112.415 137.575 112.11 137.328 111.891C137.085 111.668 136.735 111.556 136.279 111.556C135.853 111.556 135.522 111.647 135.286 111.829C135.052 112.011 134.936 112.265 134.936 112.59C134.936 112.865 135.063 113.095 135.317 113.28C135.57 113.462 135.989 113.64 136.572 113.815C137.155 113.986 137.623 114.183 137.976 114.406C138.33 114.626 138.588 114.88 138.753 115.168C138.918 115.452 139 115.787 139 116.171C139 116.795 138.76 117.292 138.28 117.663C137.803 118.03 137.155 118.213 136.335 118.213C135.793 118.213 135.294 118.114 134.838 117.915C134.385 117.713 134.032 117.435 133.778 117.081C133.528 116.728 133.403 116.317 133.403 115.847H134.704C134.704 116.272 134.845 116.601 135.126 116.835C135.407 117.068 135.81 117.184 136.335 117.184C136.788 117.184 137.127 117.093 137.354 116.912C137.584 116.727 137.698 116.483 137.698 116.181Z" fill="black"/>
<path d="M53.9791 126.683L61.4725 131.603V128.478L53.8418 123.769L53.9791 126.683Z" fill="black"/>
<defs>
<filter id="filter0_dd" x="0.387695" y="4" width="177.224" height="200" filterUnits="userSpaceOnUse" color-interpolation-filters="sRGB">
<feFlood flood-opacity="0" result="BackgroundImageFix"/>
<feColorMatrix in="SourceAlpha" type="matrix" values="0 0 0 0 0 0 0 0 0 0 0 0 0 0 0 0 0 0 127 0"/>
<feOffset dy="4"/>
<feGaussianBlur stdDeviation="7.5"/>
<feColorMatrix type="matrix" values="0 0 0 0 0.796078 0 0 0 0 0.823529 0 0 0 0 0.866667 0 0 0 1 0"/>
<feBlend mode="normal" in2="BackgroundImageFix" result="effect1_dropShadow"/>
<feColorMatrix in="SourceAlpha" type="matrix" values="0 0 0 0 0 0 0 0 0 0 0 0 0 0 0 0 0 0 127 0"/>
<feOffset dy="4"/>
<feGaussianBlur stdDeviation="2"/>
<feColorMatrix type="matrix" values="0 0 0 0 0 0 0 0 0 0 0 0 0 0 0 0 0 0 0.25 0"/>
<feBlend mode="normal" in2="effect1_dropShadow" result="effect2_dropShadow"/>
<feBlend mode="normal" in="SourceGraphic" in2="effect2_dropShadow" result="shape"/>
</filter>
</defs>
</svg>
