<svg width="178" height="200" viewBox="0 0 178 200" fill="none" xmlns="http://www.w3.org/2000/svg">
<g filter="url(#filter0_dd)">
<path d="M89 11L162.612 53.5V138.5L89 181L15.3878 138.5V53.5L89 11Z" fill="white"/>
</g>
<path d="M64.524 86.6611H61.3226L54.5176 98.3246H57.1881L58.9256 95.6219H66.6636L68.4011 98.3246H71.2003L64.524 86.6611ZM65.0549 93.2087H60.7917V92.9192L62.6579 89.9269H63.1888L65.0549 92.9192V93.2087Z" fill="#FD682A"/>
<path d="M72.5371 86.5166V98.3248H75.3364V91.0694H75.9959L80.1304 97.1826H82.8009L86.8067 91.0694H87.4663V98.3248H90.2655V86.5166H87.1928L81.7231 94.6247H81.0474L75.5777 86.5166H72.5371Z" fill="#FD682A"/>
<path d="M94.8176 86.5166H91.8896V98.3248H94.8176V86.5166Z" fill="#FD682A"/>
<path d="M110.969 89.3646C110.872 89.1394 110.808 88.9785 110.695 88.8015C110.486 88.4154 110.341 88.158 109.762 87.5145C109.408 87.1284 109.07 86.8871 108.797 86.7423C108.491 86.5815 108.298 86.5332 108.298 86.5332H96.2969V98.3414H99.2248V94.0782H104.695L107.896 98.3414H111.226L107.751 94.3517V93.9174H107.767L108.539 93.7726C108.539 93.7726 108.684 93.7243 108.893 93.6439C110.164 93.0969 111.065 91.7616 111.065 90.2172L110.969 89.3646ZM99.2248 91.5042V89.2198H107.365C107.96 89.2198 108.427 89.7346 108.427 90.362C108.427 90.9894 107.944 91.5042 107.365 91.5042H99.2248Z" fill="#FD682A"/>
<path d="M54.5176 100.029L59.3278 111.693H62.127L65.4571 104.003H65.988L69.4629 111.693H72.1334L77.0722 100.029H73.9995L70.9268 107.848H70.3959L67.1945 100.029H64.3953L61.1939 107.993H60.5182L57.4616 100.029H54.5176Z" fill="#020204"/>
<path d="M87.4811 100.029H84.2796L77.4746 111.693H80.1451L81.8826 108.99H89.6207L91.3581 111.693H94.1574L87.4811 100.029ZM88.0119 106.577H83.7487V106.287L85.6149 103.295H86.1458L88.0119 106.287V106.577Z" fill="#020204"/>
<path d="M95.6221 100.029V111.693H108.428V109.408H98.2926V100.029H95.6221Z" fill="#020204"/>
<path d="M110.438 100.029V111.693H123.388V109.408H113.108V100.029H110.438Z" fill="#020204"/>
<path d="M125.238 100.029V111.693H138.72V109.408H127.909V106.995H137.111V104.711H127.909V102.298H138.72V100.029H125.238Z" fill="#020204"/>
<path d="M146.457 102.459V111.709H149.127V102.459H154.999V100.046H140.585V102.459H146.457V102.459Z" fill="#020204"/>
<path d="M29.3243 89.4615C28.7451 86.3727 28.0373 86.8392 27.5225 88.7697C27.6833 89.1237 27.8764 89.735 28.0212 90.6037C28.4395 90.2015 28.8738 89.8154 29.3243 89.4615Z" fill="url(#paint0_radial)"/>
<path d="M44.8657 87.4337C44.6244 84.9723 43.8683 84.3449 42.4365 88.4955C42.9996 88.8011 43.5305 89.1551 44.0292 89.5573C44.3509 88.6403 44.6083 87.9324 44.8657 87.4337Z" fill="url(#paint1_radial)"/>
<path d="M25.9785 103.489C27.9734 107.623 30.9013 92.3722 35.3093 92.3722C39.1703 92.3722 43.2404 108.878 47.0048 103.086C45.01 105.146 43.3691 102.089 42.7578 100.979C44.7848 100.239 45.5731 93.08 45.734 91.1495C43.353 88.479 40.0551 86.9668 36.5963 86.9668C32.4779 86.9668 28.6651 89.1064 26.2842 92.6457C26.2681 94.4153 26.0911 100.609 28.279 101.124C27.7964 102.33 27.0403 104.502 25.9785 103.489Z" fill="url(#paint2_radial)"/>
<path d="M36.6287 113.881C43.5946 113.881 49.2412 107.864 49.2412 100.431C49.2412 98.8388 48.9839 97.2461 48.453 95.75C48.3564 102.7 46.3294 109.183 42.935 109.376C38.6235 109.634 33.6042 93.353 31.6416 98.2918C32.5264 96.5383 34.7143 100.399 35.5508 102.426C33.0733 101.718 31.6737 108.572 29.0032 108.572C26.4292 108.572 24.6757 102.716 24.547 96.5383C24.1769 97.8092 24 99.1284 24 100.448C24.0161 107.864 29.6467 113.881 36.6287 113.881Z" fill="url(#paint3_radial)"/>
<path d="M42.9356 109.376C38.6242 109.634 33.6049 93.353 31.6422 98.2918C32.527 96.5383 34.7149 100.399 35.5515 102.426C33.074 101.718 31.6744 108.572 29.0039 108.572C26.8803 108.572 25.3198 104.582 24.7568 99.7075C24.3707 106.963 29.7761 113.092 36.6132 113.092C44.0135 113.092 49.5476 105.982 48.3249 98.2918C47.8423 104.212 45.9118 109.199 42.9356 109.376Z" fill="url(#paint4_linear)"/>
<path d="M38.1567 104.984C37.658 105.064 37.1432 105.112 36.6284 105.112C35.3575 105.112 34.1027 104.855 32.9122 104.356C33.7166 103.118 34.5531 102.152 35.5827 102.426C34.7462 100.399 32.5583 96.5377 31.6735 98.2913C32.8961 95.1381 35.3897 100.656 38.1567 104.984ZM45.4122 94.1568C44.3665 90.4727 40.8112 87.7861 36.6284 87.7861C31.6091 87.7861 27.5068 91.6632 27.5068 96.4412C27.5068 98.1626 28.0538 99.7874 28.9547 101.139C30.6439 97.6317 32.7192 92.3872 35.3093 92.3872C37.835 92.3872 40.4251 99.3691 42.9508 102.635C43.1117 102.49 43.2887 102.313 43.4334 102.152C43.1921 101.782 42.9669 101.396 42.7738 100.978C44.2056 100.495 44.9939 96.9399 45.4122 94.1568Z" fill="url(#paint5_linear)"/>
<path d="M35.3255 92.3712C37.4169 92.3712 39.5726 97.1974 41.6801 100.688C39.653 97.1331 37.4169 91.5186 35.3255 91.5186C32.4137 91.5186 30.7084 97.2779 29.1318 100.785C30.7728 97.3261 32.8159 92.3712 35.3255 92.3712Z" fill="url(#paint6_radial)"/>
<path d="M35.3261 91.8901C36.8061 91.8901 38.2862 94.3837 39.8306 97.199C38.3344 94.3354 36.8061 91.5684 35.3261 91.5684C33.1543 91.5684 31.6581 94.7376 30.4033 97.8103C31.7708 94.7859 33.1543 91.8901 35.3261 91.8901Z" fill="url(#paint7_radial)"/>
<path d="M28.9866 109.232C30.2736 109.232 31.3193 107.028 32.2524 105.419C31.3032 106.996 30.3058 108.573 29.0349 108.573C26.4609 108.573 24.7073 102.717 24.5786 96.5391C24.2247 102.829 25.9139 109.232 28.9866 109.232Z" fill="url(#paint8_radial)"/>
<path d="M28.9871 109.232C29.9684 109.232 30.821 107.913 31.5772 106.593C30.7728 107.88 29.9523 109.006 28.9871 109.006C26.6061 109.006 25.0296 104.969 24.5791 99.9492C24.8848 104.936 26.4935 109.232 28.9871 109.232Z" fill="url(#paint9_radial)"/>
<path d="M43.0158 110.213C46.4264 110.004 48.8234 102.748 48.4373 95.75C48.3408 102.7 46.3138 109.183 42.9193 109.376C40.8923 109.505 38.7044 105.949 36.7578 102.7C38.5918 106.014 40.844 110.341 43.0158 110.213Z" fill="url(#paint10_radial)"/>
<path d="M43.0153 110.212C44.8975 110.116 46.4902 107.831 47.4394 104.63C46.3132 107.783 44.8975 109.826 43.0153 109.955C41.487 110.051 40.0069 108.233 38.543 105.901C39.9587 108.233 41.5031 110.293 43.0153 110.212Z" fill="url(#paint11_radial)"/>
<path opacity="0.3" d="M28.3265 101.157C26.4926 100.272 27.1683 91.5684 29.3562 89.4609C28.4874 90.1205 27.6992 90.8927 27.0235 91.7775C26.5569 95.5259 26.7178 100.4 28.3265 101.157Z" fill="#020204"/>
<path opacity="0.3" d="M42.7904 100.978C44.0292 99.9328 44.8335 94.4791 44.9301 90.3125C44.1579 89.5886 43.3213 88.9772 42.4043 88.4785C44.56 90.4412 44.0292 99.965 42.7904 100.978Z" fill="#020204"/>
<path d="M28.2956 101.157C26.719 100.401 26.5421 95.5263 26.9603 91.7618C27.4108 87.8204 28.4886 85.0855 29.293 89.4452C29.4217 89.3326 29.5504 89.2522 29.6952 89.1717C28.4082 83.2837 26.3812 87.6273 26.2847 92.6788C26.2525 94.4645 26.1077 100.658 28.2956 101.157Z" fill="url(#paint12_radial)"/>
<path d="M44.9458 90.3292C44.8493 94.4959 44.0449 99.9817 42.8061 100.995C44.8814 100.255 45.6698 93.1285 45.8145 91.1658C46.2167 84.9238 44.6884 80.2585 41.9053 88.1896C42.0983 88.2861 42.2592 88.3666 42.4522 88.4631C44.3184 82.9612 45.0262 85.9052 44.9458 90.3292Z" fill="url(#paint13_radial)"/>
<defs>
<filter id="filter0_dd" x="0.387695" y="0" width="177.224" height="200" filterUnits="userSpaceOnUse" color-interpolation-filters="sRGB">
<feFlood flood-opacity="0" result="BackgroundImageFix"/>
<feColorMatrix in="SourceAlpha" type="matrix" values="0 0 0 0 0 0 0 0 0 0 0 0 0 0 0 0 0 0 127 0"/>
<feOffset dy="4"/>
<feGaussianBlur stdDeviation="7.5"/>
<feColorMatrix type="matrix" values="0 0 0 0 0.796078 0 0 0 0 0.823529 0 0 0 0 0.866667 0 0 0 1 0"/>
<feBlend mode="normal" in2="BackgroundImageFix" result="effect1_dropShadow"/>
<feColorMatrix in="SourceAlpha" type="matrix" values="0 0 0 0 0 0 0 0 0 0 0 0 0 0 0 0 0 0 127 0"/>
<feOffset dy="4"/>
<feGaussianBlur stdDeviation="2"/>
<feColorMatrix type="matrix" values="0 0 0 0 0 0 0 0 0 0 0 0 0 0 0 0 0 0 0.25 0"/>
<feBlend mode="normal" in2="effect1_dropShadow" result="effect2_dropShadow"/>
<feBlend mode="normal" in="SourceGraphic" in2="effect2_dropShadow" result="shape"/>
</filter>
<radialGradient id="paint0_radial" cx="0" cy="0" r="1" gradientUnits="userSpaceOnUse" gradientTransform="translate(-788.196 -385.03) rotate(180) scale(5.81489 6.19916)">
<stop stop-color="white"/>
<stop offset="0.5" stop-color="#FD682A"/>
<stop offset="1" stop-color="#FD682A"/>
</radialGradient>
<radialGradient id="paint1_radial" cx="0" cy="0" r="1" gradientUnits="userSpaceOnUse" gradientTransform="translate(-937.449 -342.087) rotate(180) scale(7.15372 7.62656)">
<stop stop-color="white"/>
<stop offset="0.5" stop-color="#FD682A"/>
<stop offset="1" stop-color="#FD682A"/>
</radialGradient>
<radialGradient id="paint2_radial" cx="0" cy="0" r="1" gradientUnits="userSpaceOnUse" gradientTransform="translate(-586.601 -247.972) rotate(180) scale(16.3526 17.4334)">
<stop stop-color="white"/>
<stop offset="0.5" stop-color="#FD682A"/>
<stop offset="1" stop-color="#D84C29"/>
</radialGradient>
<radialGradient id="paint3_radial" cx="0" cy="0" r="1" gradientUnits="userSpaceOnUse" gradientTransform="translate(-593.252 -355.71) rotate(180) scale(17.2825 18.4248)">
<stop stop-color="white"/>
<stop offset="0.5" stop-color="#FD682A"/>
<stop offset="1" stop-color="#D84C29"/>
</radialGradient>
<linearGradient id="paint4_linear" x1="36.7872" y1="103.958" x2="37.186" y2="113.068" gradientUnits="userSpaceOnUse">
<stop stop-color="#FD9041"/>
<stop offset="1" stop-color="#FD682A"/>
</linearGradient>
<linearGradient id="paint5_linear" x1="36.4645" y1="87.7596" x2="36.4645" y2="105.097" gradientUnits="userSpaceOnUse">
<stop stop-color="#FD682A"/>
<stop offset="1" stop-color="#FD9243"/>
</linearGradient>
<radialGradient id="paint6_radial" cx="0" cy="0" r="1" gradientUnits="userSpaceOnUse" gradientTransform="translate(-536.837 -255.315) rotate(180) scale(14.2859 15.23)">
<stop stop-color="white"/>
<stop offset="0.5" stop-color="#FD682A"/>
<stop offset="1" stop-color="#D84C29"/>
</radialGradient>
<radialGradient id="paint7_radial" cx="0" cy="0" r="1" gradientUnits="userSpaceOnUse" gradientTransform="translate(-516.113 -234.053) rotate(180) scale(9.32748 9.94399)">
<stop stop-color="white"/>
<stop offset="0.33" stop-color="white"/>
<stop offset="0.66" stop-color="white" stop-opacity="0"/>
<stop offset="1" stop-color="white" stop-opacity="0"/>
</radialGradient>
<radialGradient id="paint8_radial" cx="0" cy="0" r="1" gradientUnits="userSpaceOnUse" gradientTransform="translate(-774.278 -487.108) rotate(180) scale(8.40699 8.96264)">
<stop stop-color="white"/>
<stop offset="0.5" stop-color="#FD682A"/>
<stop offset="1" stop-color="#D84C29"/>
</radialGradient>
<radialGradient id="paint9_radial" cx="0" cy="0" r="1" gradientUnits="userSpaceOnUse" gradientTransform="translate(28.1019 104.593) rotate(64.0067) scale(5.17094 6.19781)">
<stop stop-color="#FD682A"/>
<stop offset="1" stop-color="#FD7E2F"/>
</radialGradient>
<radialGradient id="paint10_radial" cx="0" cy="0" r="1" gradientUnits="userSpaceOnUse" gradientTransform="translate(-783.408 -387.46) rotate(180) scale(14.9393 15.9267)">
<stop stop-color="white"/>
<stop offset="0.493" stop-color="#FD682A"/>
<stop offset="1" stop-color="#FD682A"/>
</radialGradient>
<radialGradient id="paint11_radial" cx="0" cy="0" r="1" gradientUnits="userSpaceOnUse" gradientTransform="translate(-563.188 -315.835) rotate(180) scale(7.47382 7.96778)">
<stop stop-color="white"/>
<stop offset="0.33" stop-color="white"/>
<stop offset="0.66" stop-color="white" stop-opacity="0"/>
<stop offset="1" stop-color="white" stop-opacity="0"/>
</radialGradient>
<radialGradient id="paint12_radial" cx="0" cy="0" r="1" gradientUnits="userSpaceOnUse" gradientTransform="translate(-1579.5 -815.574) rotate(180) scale(7.33122 7.81581)">
<stop stop-color="#FD802F"/>
<stop offset="0.5" stop-color="#FD682A"/>
<stop offset="1" stop-color="#D84C29"/>
</radialGradient>
<radialGradient id="paint13_radial" cx="0" cy="0" r="1" gradientUnits="userSpaceOnUse" gradientTransform="translate(-1962.7 -749.239) rotate(180) scale(9.29064 9.90462)">
<stop stop-color="white"/>
<stop offset="0.5" stop-color="#FD682A"/>
<stop offset="1" stop-color="#D84C29"/>
</radialGradient>
</defs>
</svg>
