<svg width="178" height="200" viewBox="0 0 178 200" fill="none" xmlns="http://www.w3.org/2000/svg">
<g filter="url(#filter0_dd)">
<path d="M89 11L162.612 53.5V138.5L89 181L15.3878 138.5V53.5L89 11Z" fill="white"/>
</g>
<path d="M38.0744 92L36.8004 88.334H29.0524L27.7784 92H24.5284L31.1324 73.8H34.7204L41.2984 92H38.0744ZM30.0404 85.526H35.8124L32.9264 77.31L30.0404 85.526ZM57.2695 78.662C58.7429 78.662 59.9302 79.1387 60.8315 80.092C61.7329 81.0453 62.1835 82.328 62.1835 83.94V92H59.3755V84.122C59.3755 83.2207 59.1502 82.5273 58.6995 82.042C58.2489 81.5393 57.6335 81.288 56.8535 81.288C55.9869 81.288 55.2935 81.574 54.7735 82.146C54.2709 82.718 54.0195 83.576 54.0195 84.72V92H51.2115V84.122C51.2115 83.2207 50.9949 82.5273 50.5615 82.042C50.1455 81.5393 49.5475 81.288 48.7675 81.288C47.9182 81.288 47.2249 81.5827 46.6875 82.172C46.1502 82.744 45.8815 83.5933 45.8815 84.72V92H43.0735V79H45.8815V80.56C46.7135 79.2947 47.9529 78.662 49.5995 78.662C51.2635 78.662 52.4942 79.3467 53.2915 80.716C54.1582 79.3467 55.4842 78.662 57.2695 78.662ZM67.8408 76.53C67.4941 76.8767 67.0781 77.05 66.5928 77.05C66.1074 77.05 65.6828 76.8767 65.3188 76.53C64.9721 76.166 64.7988 75.7413 64.7988 75.256C64.7988 74.7707 64.9721 74.3547 65.3188 74.008C65.6654 73.644 66.0901 73.462 66.5928 73.462C67.0954 73.462 67.5201 73.644 67.8668 74.008C68.2134 74.3547 68.3868 74.7707 68.3868 75.256C68.3868 75.7413 68.2048 76.166 67.8408 76.53ZM65.1888 92V79H67.9968V92H65.1888ZM74.0651 81.184C74.7758 79.572 76.1105 78.766 78.0691 78.766V81.808C76.9945 81.7387 76.0585 81.9987 75.2611 82.588C74.4638 83.16 74.0651 84.1133 74.0651 85.448V92H71.2571V79H74.0651V81.184ZM98.6559 73.8V76.66H93.5339V92H90.5439V76.66H85.3959V73.8H98.6559ZM101.792 81.184C102.502 79.572 103.837 78.766 105.796 78.766V81.808C104.721 81.7387 103.785 81.9987 102.988 82.588C102.19 83.16 101.792 84.1133 101.792 85.448V92H98.9837V79H101.792V81.184ZM109.471 86.696C109.679 87.684 110.156 88.4467 110.901 88.984C111.646 89.504 112.556 89.764 113.631 89.764C115.122 89.764 116.24 89.2267 116.985 88.152L119.299 89.504C118.016 91.3933 116.118 92.338 113.605 92.338C111.49 92.338 109.783 91.6967 108.483 90.414C107.183 89.114 106.533 87.476 106.533 85.5C106.533 83.5587 107.174 81.938 108.457 80.638C109.74 79.3207 111.386 78.662 113.397 78.662C115.304 78.662 116.864 79.3293 118.077 80.664C119.308 81.9987 119.923 83.6193 119.923 85.526C119.923 85.8207 119.888 86.2107 119.819 86.696H109.471ZM109.445 84.408H117.089C116.898 83.3507 116.456 82.5533 115.763 82.016C115.087 81.4787 114.29 81.21 113.371 81.21C112.331 81.21 111.464 81.496 110.771 82.068C110.078 82.64 109.636 83.42 109.445 84.408ZM130.7 79H133.768L128.698 92H125.448L120.378 79H123.446L127.086 88.88L130.7 79ZM137.248 86.696C137.456 87.684 137.933 88.4467 138.678 88.984C139.424 89.504 140.334 89.764 141.408 89.764C142.899 89.764 144.017 89.2267 144.762 88.152L147.076 89.504C145.794 91.3933 143.896 92.338 141.382 92.338C139.268 92.338 137.56 91.6967 136.26 90.414C134.96 89.114 134.31 87.476 134.31 85.5C134.31 83.5587 134.952 81.938 136.234 80.638C137.517 79.3207 139.164 78.662 141.174 78.662C143.081 78.662 144.641 79.3293 145.854 80.664C147.085 81.9987 147.7 83.6193 147.7 85.526C147.7 85.8207 147.666 86.2107 147.596 86.696H137.248ZM137.222 84.408H144.866C144.676 83.3507 144.234 82.5533 143.54 82.016C142.864 81.4787 142.067 81.21 141.148 81.21C140.108 81.21 139.242 81.496 138.548 82.068C137.855 82.64 137.413 83.42 137.222 84.408ZM150.171 92V73.02H152.979V92H150.171ZM71.6168 118.338C69.6581 118.338 68.0201 117.679 66.7028 116.362C65.4028 115.045 64.7528 113.424 64.7528 111.5C64.7528 109.559 65.4028 107.938 66.7028 106.638C68.0201 105.321 69.6581 104.662 71.6168 104.662C72.8821 104.662 74.0348 104.965 75.0748 105.572C76.1148 106.179 76.8948 106.993 77.4148 108.016L74.9968 109.42C74.7021 108.796 74.2514 108.311 73.6448 107.964C73.0554 107.6 72.3708 107.418 71.5908 107.418C70.4468 107.418 69.4848 107.808 68.7048 108.588C67.9421 109.368 67.5608 110.339 67.5608 111.5C67.5608 112.661 67.9421 113.632 68.7048 114.412C69.4848 115.192 70.4468 115.582 71.5908 115.582C72.3534 115.582 73.0381 115.4 73.6448 115.036C74.2688 114.672 74.7368 114.187 75.0488 113.58L77.4668 114.958C76.9121 115.998 76.1148 116.821 75.0748 117.428C74.0348 118.035 72.8821 118.338 71.6168 118.338ZM79.4964 118V99.02H82.3044V118H79.4964ZM94.3268 105H97.1348V118H94.3268V116.336C93.4774 117.671 92.1341 118.338 90.2968 118.338C88.8061 118.338 87.6014 117.861 86.6828 116.908C85.7641 115.955 85.3048 114.646 85.3048 112.982V105H88.1128V112.696C88.1128 113.667 88.3728 114.412 88.8928 114.932C89.4128 115.452 90.1234 115.712 91.0248 115.712C92.0128 115.712 92.8101 115.409 93.4168 114.802C94.0234 114.178 94.3268 113.233 94.3268 111.968V105ZM107.776 104.662C109.562 104.662 111.087 105.321 112.352 106.638C113.618 107.955 114.25 109.576 114.25 111.5C114.25 113.407 113.618 115.027 112.352 116.362C111.087 117.679 109.562 118.338 107.776 118.338C105.8 118.338 104.284 117.601 103.226 116.128V118H100.418V99.8H103.226V106.846C104.284 105.39 105.8 104.662 107.776 104.662ZM104.396 114.49C105.176 115.27 106.156 115.66 107.334 115.66C108.513 115.66 109.492 115.27 110.272 114.49C111.052 113.693 111.442 112.696 111.442 111.5C111.442 110.304 111.052 109.316 110.272 108.536C109.492 107.739 108.513 107.34 107.334 107.34C106.156 107.34 105.176 107.739 104.396 108.536C103.616 109.316 103.226 110.304 103.226 111.5C103.226 112.696 103.616 113.693 104.396 114.49Z" fill="#3D3D50"/>
<defs>
<filter id="filter0_dd" x="0.387695" y="0" width="177.224" height="200" filterUnits="userSpaceOnUse" color-interpolation-filters="sRGB">
<feFlood flood-opacity="0" result="BackgroundImageFix"/>
<feColorMatrix in="SourceAlpha" type="matrix" values="0 0 0 0 0 0 0 0 0 0 0 0 0 0 0 0 0 0 127 0"/>
<feOffset dy="4"/>
<feGaussianBlur stdDeviation="7.5"/>
<feColorMatrix type="matrix" values="0 0 0 0 0.796078 0 0 0 0 0.823529 0 0 0 0 0.866667 0 0 0 1 0"/>
<feBlend mode="normal" in2="BackgroundImageFix" result="effect1_dropShadow"/>
<feColorMatrix in="SourceAlpha" type="matrix" values="0 0 0 0 0 0 0 0 0 0 0 0 0 0 0 0 0 0 127 0"/>
<feOffset dy="4"/>
<feGaussianBlur stdDeviation="2"/>
<feColorMatrix type="matrix" values="0 0 0 0 0 0 0 0 0 0 0 0 0 0 0 0 0 0 0.25 0"/>
<feBlend mode="normal" in2="effect1_dropShadow" result="effect2_dropShadow"/>
<feBlend mode="normal" in="SourceGraphic" in2="effect2_dropShadow" result="shape"/>
</filter>
</defs>
</svg>
