<svg width="178" height="200" viewBox="0 0 178 200" fill="none" xmlns="http://www.w3.org/2000/svg">
<g filter="url(#filter0_dd)">
<path d="M89 11L162.612 53.5V138.5L89 181L15.3878 138.5V53.5L89 11Z" fill="white"/>
</g>
<path d="M58.1731 104L56.8991 100.334H49.1511L47.8771 104H44.6271L51.2311 85.8H54.8191L61.3971 104H58.1731ZM50.1391 97.526H55.9111L53.0251 89.31L50.1391 97.526ZM77.3682 90.662C78.8415 90.662 80.0288 91.1387 80.9302 92.092C81.8315 93.0453 82.2822 94.328 82.2822 95.94V104H79.4742V96.122C79.4742 95.2207 79.2488 94.5273 78.7982 94.042C78.3475 93.5393 77.7322 93.288 76.9522 93.288C76.0855 93.288 75.3922 93.574 74.8722 94.146C74.3695 94.718 74.1182 95.576 74.1182 96.72V104H71.3102V96.122C71.3102 95.2207 71.0935 94.5273 70.6602 94.042C70.2442 93.5393 69.6462 93.288 68.8662 93.288C68.0168 93.288 67.3235 93.5827 66.7862 94.172C66.2488 94.744 65.9802 95.5933 65.9802 96.72V104H63.1722V91H65.9802V92.56C66.8122 91.2947 68.0515 90.662 69.6982 90.662C71.3622 90.662 72.5928 91.3467 73.3902 92.716C74.2568 91.3467 75.5828 90.662 77.3682 90.662ZM87.9394 88.53C87.5927 88.8767 87.1767 89.05 86.6914 89.05C86.2061 89.05 85.7814 88.8767 85.4174 88.53C85.0707 88.166 84.8974 87.7413 84.8974 87.256C84.8974 86.7707 85.0707 86.3547 85.4174 86.008C85.7641 85.644 86.1887 85.462 86.6914 85.462C87.1941 85.462 87.6187 85.644 87.9654 86.008C88.3121 86.3547 88.4854 86.7707 88.4854 87.256C88.4854 87.7413 88.3034 88.166 87.9394 88.53ZM85.2874 104V91H88.0954V104H85.2874ZM94.1638 93.184C94.8744 91.572 96.2091 90.766 98.1678 90.766V93.808C97.0931 93.7387 96.1571 93.9987 95.3598 94.588C94.5624 95.16 94.1638 96.1133 94.1638 97.448V104H91.3558V91H94.1638V93.184ZM107.132 85.8C108.848 85.8 110.278 86.372 111.422 87.516C112.584 88.66 113.164 90.0813 113.164 91.78C113.164 93.4613 112.584 94.8827 111.422 96.044C110.278 97.188 108.848 97.76 107.132 97.76H103.414V104H100.424V85.8H107.132ZM107.132 94.952C108.016 94.952 108.744 94.6573 109.316 94.068C109.888 93.4613 110.174 92.6987 110.174 91.78C110.174 90.8613 109.888 90.1073 109.316 89.518C108.744 88.9113 108.016 88.608 107.132 88.608H103.414V94.952H107.132ZM118.133 93.184C118.843 91.572 120.178 90.766 122.137 90.766V93.808C121.062 93.7387 120.126 93.9987 119.329 94.588C118.531 95.16 118.133 96.1133 118.133 97.448V104H115.325V91H118.133V93.184ZM129.738 104.338C127.831 104.338 126.211 103.679 124.876 102.362C123.541 101.045 122.874 99.424 122.874 97.5C122.874 95.576 123.541 93.9553 124.876 92.638C126.211 91.3207 127.831 90.662 129.738 90.662C131.662 90.662 133.283 91.3207 134.6 92.638C135.935 93.9553 136.602 95.576 136.602 97.5C136.602 99.424 135.935 101.045 134.6 102.362C133.283 103.679 131.662 104.338 129.738 104.338ZM126.852 100.438C127.632 101.218 128.594 101.608 129.738 101.608C130.882 101.608 131.844 101.218 132.624 100.438C133.404 99.658 133.794 98.6787 133.794 97.5C133.794 96.3213 133.404 95.342 132.624 94.562C131.844 93.782 130.882 93.392 129.738 93.392C128.594 93.392 127.632 93.782 126.852 94.562C126.072 95.342 125.682 96.3213 125.682 97.5C125.682 98.6787 126.072 99.658 126.852 100.438Z" fill="#3D3D50"/>
<defs>
<filter id="filter0_dd" x="0.387695" y="0" width="177.224" height="200" filterUnits="userSpaceOnUse" color-interpolation-filters="sRGB">
<feFlood flood-opacity="0" result="BackgroundImageFix"/>
<feColorMatrix in="SourceAlpha" type="matrix" values="0 0 0 0 0 0 0 0 0 0 0 0 0 0 0 0 0 0 127 0"/>
<feOffset dy="4"/>
<feGaussianBlur stdDeviation="7.5"/>
<feColorMatrix type="matrix" values="0 0 0 0 0.796078 0 0 0 0 0.823529 0 0 0 0 0.866667 0 0 0 1 0"/>
<feBlend mode="normal" in2="BackgroundImageFix" result="effect1_dropShadow"/>
<feColorMatrix in="SourceAlpha" type="matrix" values="0 0 0 0 0 0 0 0 0 0 0 0 0 0 0 0 0 0 127 0"/>
<feOffset dy="4"/>
<feGaussianBlur stdDeviation="2"/>
<feColorMatrix type="matrix" values="0 0 0 0 0 0 0 0 0 0 0 0 0 0 0 0 0 0 0.25 0"/>
<feBlend mode="normal" in2="effect1_dropShadow" result="effect2_dropShadow"/>
<feBlend mode="normal" in="SourceGraphic" in2="effect2_dropShadow" result="shape"/>
</filter>
</defs>
</svg>
