<svg width="178" height="200" viewBox="0 0 178 200" fill="none" xmlns="http://www.w3.org/2000/svg">
<g filter="url(#filter0_dd)">
<path d="M89 11L162.612 53.5V138.5L89 181L15.3878 138.5V53.5L89 11Z" fill="white"/>
</g>
<path d="M75.6223 90L74.3483 86.334H66.6003L65.3263 90H62.0763L68.6803 71.8H72.2683L78.8463 90H75.6223ZM67.5883 83.526H73.3603L70.4743 75.31L67.5883 83.526ZM94.8174 76.662C96.2907 76.662 97.4781 77.1387 98.3794 78.092C99.2807 79.0453 99.7314 80.328 99.7314 81.94V90H96.9234V82.122C96.9234 81.2207 96.6981 80.5273 96.2474 80.042C95.7967 79.5393 95.1814 79.288 94.4014 79.288C93.5347 79.288 92.8414 79.574 92.3214 80.146C91.8187 80.718 91.5674 81.576 91.5674 82.72V90H88.7594V82.122C88.7594 81.2207 88.5427 80.5273 88.1094 80.042C87.6934 79.5393 87.0954 79.288 86.3154 79.288C85.4661 79.288 84.7727 79.5827 84.2354 80.172C83.6981 80.744 83.4294 81.5933 83.4294 82.72V90H80.6214V77H83.4294V78.56C84.2614 77.2947 85.5007 76.662 87.1474 76.662C88.8114 76.662 90.0421 77.3467 90.8394 78.716C91.7061 77.3467 93.0321 76.662 94.8174 76.662ZM105.389 74.53C105.042 74.8767 104.626 75.05 104.141 75.05C103.655 75.05 103.231 74.8767 102.867 74.53C102.52 74.166 102.347 73.7413 102.347 73.256C102.347 72.7707 102.52 72.3547 102.867 72.008C103.213 71.644 103.638 71.462 104.141 71.462C104.643 71.462 105.068 71.644 105.415 72.008C105.761 72.3547 105.935 72.7707 105.935 73.256C105.935 73.7413 105.753 74.166 105.389 74.53ZM102.737 90V77H105.545V90H102.737ZM111.613 79.184C112.324 77.572 113.658 76.766 115.617 76.766V79.808C114.542 79.7387 113.606 79.9987 112.809 80.588C112.012 81.16 111.613 82.1133 111.613 83.448V90H108.805V77H111.613V79.184ZM34.8276 113.14H42.8876V116H31.8376V97.8H42.7576V100.66H34.8276V105.392H42.1076V108.226H34.8276V113.14ZM57.0647 116H53.8147L50.5907 111.554L47.3407 116H44.0647L48.9527 109.318L44.3247 103H47.5747L50.5647 107.108L53.5547 103H56.8307L52.2027 109.344L57.0647 116ZM64.147 116.338C62.1884 116.338 60.5504 115.679 59.233 114.362C57.933 113.045 57.283 111.424 57.283 109.5C57.283 107.559 57.933 105.938 59.233 104.638C60.5504 103.321 62.1884 102.662 64.147 102.662C65.4124 102.662 66.565 102.965 67.605 103.572C68.645 104.179 69.425 104.993 69.945 106.016L67.527 107.42C67.2324 106.796 66.7817 106.311 66.175 105.964C65.5857 105.6 64.901 105.418 64.121 105.418C62.977 105.418 62.015 105.808 61.235 106.588C60.4724 107.368 60.091 108.339 60.091 109.5C60.091 110.661 60.4724 111.632 61.235 112.412C62.015 113.192 62.977 113.582 64.121 113.582C64.8837 113.582 65.5684 113.4 66.175 113.036C66.799 112.672 67.267 112.187 67.579 111.58L69.997 112.958C69.4424 113.998 68.645 114.821 67.605 115.428C66.565 116.035 65.4124 116.338 64.147 116.338ZM78.8647 102.662C80.3553 102.662 81.56 103.139 82.4787 104.092C83.3973 105.045 83.8567 106.354 83.8567 108.018V116H81.0487V108.304C81.0487 107.333 80.7887 106.588 80.2687 106.068C79.7487 105.548 79.038 105.288 78.1367 105.288C77.1487 105.288 76.3513 105.6 75.7447 106.224C75.138 106.831 74.8347 107.767 74.8347 109.032V116H72.0267V97.8H74.8347V104.664C75.684 103.329 77.0273 102.662 78.8647 102.662ZM97.1762 103H99.9842V116H97.1762V114.128C96.1189 115.601 94.6022 116.338 92.6262 116.338C90.8409 116.338 89.3155 115.679 88.0502 114.362C86.7849 113.027 86.1522 111.407 86.1522 109.5C86.1522 107.576 86.7849 105.955 88.0502 104.638C89.3155 103.321 90.8409 102.662 92.6262 102.662C94.6022 102.662 96.1189 103.39 97.1762 104.846V103ZM90.1302 112.49C90.9102 113.27 91.8895 113.66 93.0682 113.66C94.2469 113.66 95.2262 113.27 96.0062 112.49C96.7862 111.693 97.1762 110.696 97.1762 109.5C97.1762 108.304 96.7862 107.316 96.0062 106.536C95.2262 105.739 94.2469 105.34 93.0682 105.34C91.8895 105.34 90.9102 105.739 90.1302 106.536C89.3502 107.316 88.9602 108.304 88.9602 109.5C88.9602 110.696 89.3502 111.693 90.1302 112.49ZM110.095 102.662C111.586 102.662 112.79 103.139 113.709 104.092C114.628 105.045 115.087 106.354 115.087 108.018V116H112.279V108.304C112.279 107.333 112.019 106.588 111.499 106.068C110.979 105.548 110.268 105.288 109.367 105.288C108.379 105.288 107.582 105.6 106.975 106.224C106.368 106.831 106.065 107.767 106.065 109.032V116H103.257V103H106.065V104.664C106.914 103.329 108.258 102.662 110.095 102.662ZM128.459 103H131.215V115.402C131.215 117.378 130.565 118.895 129.265 119.952C127.965 121.009 126.387 121.538 124.533 121.538C121.534 121.538 119.48 120.489 118.371 118.392L120.789 116.988C121.465 118.323 122.73 118.99 124.585 118.99C125.798 118.99 126.743 118.669 127.419 118.028C128.112 117.404 128.459 116.529 128.459 115.402V113.816C127.401 115.324 125.893 116.078 123.935 116.078C122.097 116.078 120.546 115.428 119.281 114.128C118.015 112.811 117.383 111.225 117.383 109.37C117.383 107.515 118.015 105.938 119.281 104.638C120.546 103.321 122.097 102.662 123.935 102.662C125.893 102.662 127.401 103.416 128.459 104.924V103ZM121.361 112.282C122.158 113.062 123.146 113.452 124.325 113.452C125.503 113.452 126.483 113.062 127.263 112.282C128.06 111.502 128.459 110.531 128.459 109.37C128.459 108.209 128.06 107.238 127.263 106.458C126.483 105.678 125.503 105.288 124.325 105.288C123.146 105.288 122.158 105.678 121.361 106.458C120.581 107.238 120.191 108.209 120.191 109.37C120.191 110.531 120.581 111.502 121.361 112.282ZM136.698 110.696C136.906 111.684 137.382 112.447 138.128 112.984C138.873 113.504 139.783 113.764 140.858 113.764C142.348 113.764 143.466 113.227 144.212 112.152L146.526 113.504C145.243 115.393 143.345 116.338 140.832 116.338C138.717 116.338 137.01 115.697 135.71 114.414C134.41 113.114 133.76 111.476 133.76 109.5C133.76 107.559 134.401 105.938 135.684 104.638C136.966 103.321 138.613 102.662 140.624 102.662C142.53 102.662 144.09 103.329 145.304 104.664C146.534 105.999 147.15 107.619 147.15 109.526C147.15 109.821 147.115 110.211 147.046 110.696H136.698ZM136.672 108.408H144.316C144.125 107.351 143.683 106.553 142.99 106.016C142.314 105.479 141.516 105.21 140.598 105.21C139.558 105.21 138.691 105.496 137.998 106.068C137.304 106.64 136.862 107.42 136.672 108.408Z" fill="#3D3D50"/>
<defs>
<filter id="filter0_dd" x="0.387695" y="0" width="177.224" height="200" filterUnits="userSpaceOnUse" color-interpolation-filters="sRGB">
<feFlood flood-opacity="0" result="BackgroundImageFix"/>
<feColorMatrix in="SourceAlpha" type="matrix" values="0 0 0 0 0 0 0 0 0 0 0 0 0 0 0 0 0 0 127 0"/>
<feOffset dy="4"/>
<feGaussianBlur stdDeviation="7.5"/>
<feColorMatrix type="matrix" values="0 0 0 0 0.796078 0 0 0 0 0.823529 0 0 0 0 0.866667 0 0 0 1 0"/>
<feBlend mode="normal" in2="BackgroundImageFix" result="effect1_dropShadow"/>
<feColorMatrix in="SourceAlpha" type="matrix" values="0 0 0 0 0 0 0 0 0 0 0 0 0 0 0 0 0 0 127 0"/>
<feOffset dy="4"/>
<feGaussianBlur stdDeviation="2"/>
<feColorMatrix type="matrix" values="0 0 0 0 0 0 0 0 0 0 0 0 0 0 0 0 0 0 0.25 0"/>
<feBlend mode="normal" in2="effect1_dropShadow" result="effect2_dropShadow"/>
<feBlend mode="normal" in="SourceGraphic" in2="effect2_dropShadow" result="shape"/>
</filter>
</defs>
</svg>
