<svg width="178" height="204" viewBox="0 0 178 204" fill="none" xmlns="http://www.w3.org/2000/svg">
<g filter="url(#filter0_dd)">
<path d="M89 15L162.612 57.5V142.5L89 185L15.3878 142.5V57.5L89 15Z" fill="white"/>
</g>
<path d="M56.998 93.7752L66.288 81.4707L79.8845 94.3289L87.5748 87.0693L90.651 92.0526L99.5102 87.623L106.954 93.16L113.968 85.4082L119.505 92.6063L126.211 86.6386" stroke="url(#paint0_radial)" stroke-miterlimit="10"/>
<path d="M112.984 113.278C99.6949 125.091 80.0692 124.783 68.5645 111.863" stroke="url(#paint1_radial)" stroke-width="2" stroke-miterlimit="10" stroke-linecap="round"/>
<path d="M67.5186 70.3364C68.626 68.9213 69.9179 67.6294 71.333 66.3374C84.6219 54.525 104.801 55.4479 116.306 68.3676" stroke="url(#paint2_radial)" stroke-width="2" stroke-miterlimit="10" stroke-linecap="round"/>
<path d="M62.6582 69.1049C64.75 64.9214 67.7031 61.1069 71.3944 58.0923C71.8251 57.6617 72.3173 57.3541 72.8094 56.9849L74.286 55.939L74.6551 55.693L75.0243 55.4469L75.8241 55.0162L77.4236 54.1549C78.4695 53.6012 79.6385 53.232 80.7459 52.7399C81.9148 52.3707 83.0222 52.0631 84.1911 51.7555C85.3601 51.5709 86.529 51.3248 87.7595 51.2018L89.5436 51.0787C90.1588 51.0787 90.7125 50.9557 91.3278 51.0172L93.1119 51.0787C93.7272 51.1403 94.2809 51.1403 94.8961 51.2018L96.6803 51.4479C97.2955 51.5709 97.8492 51.6325 98.4029 51.817C103.017 52.8629 107.447 54.8932 111.261 57.6002C107.078 55.5699 102.648 53.9703 98.1568 53.232C93.6656 52.4938 89.0514 52.5553 84.6218 53.5397C83.5144 53.8473 82.407 54.1549 81.3611 54.4625C80.3152 54.8932 79.2693 55.2623 78.2234 55.7545L76.6239 56.4927L75.8856 56.8619L75.5164 57.0464L75.1473 57.2925L73.7323 58.2154C73.2401 58.523 72.7479 58.7691 72.3173 59.1997C68.6259 61.9067 65.4267 65.2905 62.6582 69.1049Z" fill="url(#paint3_radial)"/>
<path d="M124.242 109.156C122.027 113.586 118.766 117.523 114.829 120.599C112.86 122.138 110.707 123.491 108.43 124.598C106.154 125.706 103.755 126.567 101.355 127.182C98.8942 127.798 96.3718 128.167 93.9109 128.228C91.3884 128.29 88.866 128.167 86.4051 127.736C81.4833 126.875 76.746 124.968 72.6855 122.076C77.1152 124.291 81.7909 125.706 86.5897 126.321C88.9891 126.567 91.3884 126.69 93.7878 126.506C96.1872 126.383 98.5866 126.013 100.924 125.398C105.6 124.229 110.03 122.199 113.967 119.431C117.905 116.724 121.35 113.217 124.242 109.156Z" fill="url(#paint4_radial)"/>
<path d="M87.4516 127.304C87.4516 127.304 81.1763 113.646 64.7497 110.263C49.8612 107.186 52.4452 97.2812 52.4452 97.2812C52.4452 97.2812 46.4775 110.693 64.2575 121.583C79.0845 130.688 87.4516 127.304 87.4516 127.304Z" fill="url(#paint5_radial)"/>
<path d="M83.3904 128.597C83.3904 128.597 71.8241 125.213 61.7344 130.135C61.7344 130.135 65.9179 129.335 68.4403 130.504C70.9628 131.735 79.4529 133.15 83.3904 128.597Z" fill="url(#paint6_radial)"/>
<path d="M60.3205 107.864C60.3205 107.864 45.432 96.6052 58.0442 71.3809C58.0442 71.3809 54.7835 78.0868 58.2287 88.2996C61.9201 98.943 58.9055 103.434 60.3205 107.864Z" fill="url(#paint7_radial)"/>
<path d="M58.1675 81.9635C58.1675 81.9635 54.3531 63.6913 80.5618 53.0479C80.5618 53.0479 72.6869 59.1386 69.9184 66.6444C65.9194 77.1648 60.0132 77.6569 58.1675 81.9635Z" fill="url(#paint8_radial)"/>
<path d="M106.094 113.462C99.9414 117.277 92.3126 118.63 85.176 117.154C81.6076 116.415 78.2239 114.939 75.2093 112.847C72.1947 110.755 69.6722 107.987 67.8266 104.911C65.9193 101.773 64.7504 98.2663 64.2582 94.6365C63.7661 91.0066 64.0737 87.3153 64.9965 83.8085C65.9193 80.3017 67.5189 76.9794 69.7338 74.0879C71.8871 71.1963 74.6556 68.6739 77.7317 66.7667C83.884 62.9523 91.5743 61.5372 98.7109 63.1368C102.279 63.9366 105.725 65.4132 108.678 67.5049C111.692 69.5967 114.215 72.3652 116.122 75.4414C118.029 78.579 119.26 82.0858 119.752 85.7157C120.244 89.3455 119.998 93.0369 119.013 96.5437C116.983 103.619 112.246 109.71 106.094 113.462ZM106.032 113.401C109.108 111.494 111.815 109.033 113.969 106.141C116.122 103.25 117.66 99.9274 118.521 96.4821C119.383 92.9753 119.629 89.3455 119.075 85.8387C118.521 82.3319 117.352 78.8866 115.445 75.8105C113.599 72.7344 111.077 70.0889 108.185 68.0586C105.294 65.9669 101.972 64.4903 98.4649 63.7521C94.9581 62.9523 91.3282 62.8907 87.8214 63.4444C84.3146 63.9982 80.8694 65.2901 77.7932 67.1358C71.641 70.8272 66.9037 76.9794 65.1196 83.9315C64.1967 87.4383 64.0121 91.0681 64.5043 94.6365C65.058 98.2048 66.2885 101.589 68.1957 104.665C70.0414 107.741 72.5638 110.386 75.4554 112.478C78.3469 114.57 81.7307 116.046 85.176 116.846C88.6827 117.646 92.3126 117.769 95.8809 117.215C99.5107 116.6 102.956 115.308 106.032 113.401Z" fill="url(#paint9_radial)"/>
<path d="M110.399 81.7793C105.6 76.3653 97.1718 75.9962 91.6348 80.918C87.3282 84.7324 86.0362 90.7001 87.8819 95.6834C88.251 96.6063 89.4199 96.8524 90.0967 96.1141C90.4658 95.7449 90.5889 95.1912 90.4043 94.6991C88.8662 90.7001 89.9737 85.9628 93.4189 82.8867C95.5107 81.041 98.0947 80.1182 100.679 80.1182C103.57 80.1182 106.4 81.2871 108.43 83.5635C112.245 87.87 111.753 94.576 107.323 98.5135C103.878 101.59 99.0175 102.082 95.2031 100.052C94.7109 99.8054 94.0342 99.867 93.665 100.298C93.0498 100.913 93.1728 102.02 93.9726 102.451C95.8798 103.435 97.9716 103.927 100.063 103.927C103.263 103.927 106.462 102.82 109.046 100.482C114.583 95.5604 115.198 87.1933 110.399 81.7793Z" fill="url(#paint10_radial)"/>
<path d="M93.235 84.6092C92.8044 84.9783 92.6813 85.5936 92.9274 86.0858C94.7731 90.1463 93.7272 95.2526 90.1589 98.4518C88.0056 100.359 85.2371 101.343 82.407 101.22C79.577 101.097 76.993 99.8668 75.1473 97.7751C71.3329 93.4685 71.8251 86.7625 76.2548 82.8251C78.3465 80.9794 80.9305 80.0565 83.5144 80.0565C85.0525 80.0565 86.6521 80.4257 88.0671 81.1024C88.5593 81.3485 89.113 81.2255 89.4821 80.8563C90.1589 80.2411 90.0358 79.0722 89.1745 78.703C84.4988 76.4882 78.6541 77.1034 74.4706 80.8563C68.9336 85.7781 68.3183 94.1452 73.1171 99.5592C75.455 102.205 78.6541 103.743 82.2225 103.866C82.407 103.866 82.6531 103.866 82.8377 103.866C86.1599 103.866 89.2976 102.635 91.82 100.421C96.3111 96.4216 97.5416 90.1463 95.2653 85.0399C94.9576 84.2401 93.9118 83.994 93.235 84.6092Z" fill="url(#paint11_radial)"/>
<path d="M78.8379 63.5068C80.231 63.5068 81.3603 62.3774 81.3603 60.9843C81.3603 59.5912 80.231 58.4619 78.8379 58.4619C77.4448 58.4619 76.3154 59.5912 76.3154 60.9843C76.3154 62.3774 77.4448 63.5068 78.8379 63.5068Z" fill="#CE8D1C"/>
<path d="M103.755 121.338C104.91 121.338 105.847 120.401 105.847 119.246C105.847 118.091 104.91 117.154 103.755 117.154C102.6 117.154 101.663 118.091 101.663 119.246C101.663 120.401 102.6 121.338 103.755 121.338Z" fill="#D5992A"/>
<path d="M117.043 65.6602V69.0439H113.782" stroke="#CB8916" stroke-width="2" stroke-miterlimit="10" stroke-linecap="round"/>
<path d="M122.95 86.6387L126.395 86.5156L126.519 89.7763" stroke="#CB8916" stroke-miterlimit="10" stroke-linecap="round"/>
<path d="M110.4 112.478L113.846 112.354L113.907 115.615" stroke="#CB8916" stroke-width="2" stroke-miterlimit="10" stroke-linecap="round"/>
<path d="M56.4629 142.173H53.7822L53.1802 143.843H52.3101L54.7534 137.444H55.4917L57.9395 143.843H57.0737L56.4629 142.173ZM54.0371 141.479H56.2124L55.1226 138.486L54.0371 141.479ZM59.438 139.088L59.46 139.615C59.8086 139.205 60.2788 139 60.8706 139C61.5356 139 61.9883 139.255 62.2285 139.765C62.3867 139.536 62.5918 139.352 62.8438 139.211C63.0986 139.07 63.3989 139 63.7446 139C64.7876 139 65.3179 139.552 65.3354 140.657V143.843H64.5225V140.705C64.5225 140.365 64.4448 140.112 64.2896 139.945C64.1343 139.775 63.8735 139.69 63.5073 139.69C63.2056 139.69 62.9551 139.781 62.7559 139.962C62.5566 140.141 62.4409 140.383 62.4087 140.688V143.843H61.5913V140.727C61.5913 140.036 61.2529 139.69 60.5762 139.69C60.043 139.69 59.6782 139.917 59.4819 140.371V143.843H58.6689V139.088H59.438ZM67.4492 143.843H66.6362V139.088H67.4492V143.843ZM66.5703 137.827C66.5703 137.695 66.6099 137.583 66.689 137.493C66.771 137.402 66.8911 137.356 67.0493 137.356C67.2075 137.356 67.3276 137.402 67.4097 137.493C67.4917 137.583 67.5327 137.695 67.5327 137.827C67.5327 137.958 67.4917 138.068 67.4097 138.156C67.3276 138.244 67.2075 138.288 67.0493 138.288C66.8911 138.288 66.771 138.244 66.689 138.156C66.6099 138.068 66.5703 137.958 66.5703 137.827ZM71.0527 139.817C70.9297 139.797 70.7964 139.787 70.6528 139.787C70.1196 139.787 69.7578 140.014 69.5674 140.468V143.843H68.7544V139.088H69.5454L69.5586 139.637C69.8252 139.212 70.2031 139 70.6924 139C70.8506 139 70.9707 139.021 71.0527 139.062V139.817ZM113.192 141.812C113.113 142.489 112.862 143.012 112.44 143.381C112.021 143.748 111.463 143.931 110.766 143.931C110.01 143.931 109.404 143.66 108.947 143.118C108.493 142.576 108.266 141.851 108.266 140.942V140.327C108.266 139.732 108.371 139.209 108.582 138.758C108.796 138.307 109.098 137.961 109.487 137.721C109.877 137.478 110.328 137.356 110.841 137.356C111.521 137.356 112.065 137.547 112.476 137.928C112.886 138.306 113.125 138.83 113.192 139.501H112.344C112.271 138.991 112.111 138.622 111.865 138.394C111.622 138.165 111.28 138.051 110.841 138.051C110.302 138.051 109.878 138.25 109.571 138.648C109.266 139.047 109.114 139.614 109.114 140.349V140.969C109.114 141.663 109.259 142.215 109.549 142.625C109.839 143.036 110.245 143.241 110.766 143.241C111.235 143.241 111.594 143.135 111.843 142.924C112.095 142.71 112.262 142.34 112.344 141.812H113.192ZM115.104 143.843H114.291V137.093H115.104V143.843ZM119.344 143.373C119.028 143.745 118.563 143.931 117.951 143.931C117.444 143.931 117.058 143.784 116.791 143.491C116.527 143.195 116.394 142.759 116.391 142.182V139.088H117.204V142.16C117.204 142.88 117.497 143.241 118.083 143.241C118.704 143.241 119.117 143.009 119.322 142.546V139.088H120.135V143.843H119.362L119.344 143.373ZM125.4 141.518C125.4 142.245 125.233 142.829 124.899 143.271C124.565 143.711 124.117 143.931 123.554 143.931C122.954 143.931 122.489 143.718 122.161 143.293L122.122 143.843H121.375V137.093H122.188V139.611C122.516 139.204 122.968 139 123.545 139C124.123 139 124.575 139.218 124.903 139.655C125.234 140.091 125.4 140.689 125.4 141.448V141.518ZM124.587 141.426C124.587 140.872 124.48 140.444 124.266 140.143C124.052 139.841 123.745 139.69 123.343 139.69C122.807 139.69 122.422 139.939 122.188 140.437V142.494C122.437 142.992 122.825 143.241 123.352 143.241C123.742 143.241 124.045 143.09 124.262 142.788C124.479 142.486 124.587 142.032 124.587 141.426Z" fill="#8E8E8E"/>
<path d="M78.585 138.139H76.5283V143.843H75.689V138.139H73.6367V137.444H78.585V138.139ZM81.8809 141.254H80.3779V143.843H79.5298V137.444H81.6479C82.3687 137.444 82.9224 137.608 83.3091 137.937C83.6987 138.265 83.8936 138.742 83.8936 139.369C83.8936 139.768 83.7852 140.115 83.5684 140.411C83.3545 140.707 83.0557 140.928 82.6719 141.074L84.1748 143.79V143.843H83.2695L81.8809 141.254ZM80.3779 140.564H81.6743C82.0933 140.564 82.4258 140.456 82.6719 140.239C82.9209 140.022 83.0454 139.732 83.0454 139.369C83.0454 138.974 82.9268 138.67 82.6895 138.459C82.4551 138.249 82.1152 138.142 81.6699 138.139H80.3779V140.564ZM88.6133 142.173H85.9326L85.3306 143.843H84.4604L86.9038 137.444H87.6421L90.0898 143.843H89.2241L88.6133 142.173ZM86.1875 141.479H88.3628L87.2729 138.486L86.1875 141.479ZM92.6826 142.722L94.5107 137.444H95.4336L93.0605 143.843H92.3135L89.9448 137.444H90.8633L92.6826 142.722ZM99.9116 140.885H97.1387V143.153H100.36V143.843H96.2949V137.444H100.316V138.139H97.1387V140.195H99.9116V140.885ZM102.258 143.153H105.291V143.843H101.41V137.444H102.258V143.153Z" fill="#D9A133"/>
<defs>
<filter id="filter0_dd" x="0.387695" y="4" width="177.224" height="200" filterUnits="userSpaceOnUse" color-interpolation-filters="sRGB">
<feFlood flood-opacity="0" result="BackgroundImageFix"/>
<feColorMatrix in="SourceAlpha" type="matrix" values="0 0 0 0 0 0 0 0 0 0 0 0 0 0 0 0 0 0 127 0"/>
<feOffset dy="4"/>
<feGaussianBlur stdDeviation="7.5"/>
<feColorMatrix type="matrix" values="0 0 0 0 0.796078 0 0 0 0 0.823529 0 0 0 0 0.866667 0 0 0 1 0"/>
<feBlend mode="normal" in2="BackgroundImageFix" result="effect1_dropShadow"/>
<feColorMatrix in="SourceAlpha" type="matrix" values="0 0 0 0 0 0 0 0 0 0 0 0 0 0 0 0 0 0 127 0"/>
<feOffset dy="4"/>
<feGaussianBlur stdDeviation="2"/>
<feColorMatrix type="matrix" values="0 0 0 0 0 0 0 0 0 0 0 0 0 0 0 0 0 0 0.25 0"/>
<feBlend mode="normal" in2="effect1_dropShadow" result="effect2_dropShadow"/>
<feBlend mode="normal" in="SourceGraphic" in2="effect2_dropShadow" result="shape"/>
</filter>
<radialGradient id="paint0_radial" cx="0" cy="0" r="1" gradientUnits="userSpaceOnUse" gradientTransform="translate(91.5706 121.343) scale(25.163 27.8975)">
<stop stop-color="#F6DE7A"/>
<stop offset="1" stop-color="#BA8829"/>
</radialGradient>
<radialGradient id="paint1_radial" cx="0" cy="0" r="1" gradientUnits="userSpaceOnUse" gradientTransform="translate(64.9926 135.459) rotate(48.3987) scale(16.1054 18.1238)">
<stop stop-color="#F6DE7A"/>
<stop offset="1" stop-color="#BA8829"/>
</radialGradient>
<radialGradient id="paint2_radial" cx="0" cy="0" r="1" gradientUnits="userSpaceOnUse" gradientTransform="translate(68.0782 90.2332) rotate(48.3987) scale(17.6726 19.8875)">
<stop stop-color="#F6DE7A"/>
<stop offset="1" stop-color="#BA8829"/>
</radialGradient>
<radialGradient id="paint3_radial" cx="0" cy="0" r="1" gradientUnits="userSpaceOnUse" gradientTransform="translate(86.812 60.234) scale(18.8136)">
<stop stop-color="#F6DE7A"/>
<stop offset="1" stop-color="#BA8829"/>
</radialGradient>
<radialGradient id="paint4_radial" cx="0" cy="0" r="1" gradientUnits="userSpaceOnUse" gradientTransform="translate(98.5768 118.537) scale(19.9417)">
<stop stop-color="#F6DE7A"/>
<stop offset="1" stop-color="#BA8829"/>
</radialGradient>
<radialGradient id="paint5_radial" cx="0" cy="0" r="1" gradientUnits="userSpaceOnUse" gradientTransform="translate(69.4863 112.61) scale(16.7073)">
<stop stop-color="#F6DE7A"/>
<stop offset="1" stop-color="#BA8829"/>
</radialGradient>
<radialGradient id="paint6_radial" cx="0" cy="0" r="1" gradientUnits="userSpaceOnUse" gradientTransform="translate(72.6089 129.775) rotate(-6.904) scale(7.83361)">
<stop stop-color="#F6DE7A"/>
<stop offset="1" stop-color="#BA8829"/>
</radialGradient>
<radialGradient id="paint7_radial" cx="0" cy="0" r="1" gradientUnits="userSpaceOnUse" gradientTransform="translate(56.6692 89.6119) scale(13.1673)">
<stop stop-color="#F6DE7A"/>
<stop offset="1" stop-color="#BA8829"/>
</radialGradient>
<radialGradient id="paint8_radial" cx="0" cy="0" r="1" gradientUnits="userSpaceOnUse" gradientTransform="translate(67.6105 65.9445) rotate(41.2334) scale(13.2011)">
<stop stop-color="#F6DE7A"/>
<stop offset="1" stop-color="#BA8829"/>
</radialGradient>
<radialGradient id="paint9_radial" cx="0" cy="0" r="1" gradientUnits="userSpaceOnUse" gradientTransform="translate(91.8823 90.2074) scale(27.9145 28.6822)">
<stop stop-color="#F6DE7A"/>
<stop offset="1" stop-color="#BA8829"/>
</radialGradient>
<radialGradient id="paint10_radial" cx="0" cy="0" r="1" gradientUnits="userSpaceOnUse" gradientTransform="translate(100.544 90.5136) rotate(48.3987) scale(12.9721 15.0463)">
<stop stop-color="#F6DE7A"/>
<stop offset="1" stop-color="#BA8829"/>
</radialGradient>
<radialGradient id="paint11_radial" cx="0" cy="0" r="1" gradientUnits="userSpaceOnUse" gradientTransform="translate(83.0369 90.7866) rotate(48.3987) scale(12.9933 15.0709)">
<stop stop-color="#F6DE7A"/>
<stop offset="1" stop-color="#BA8829"/>
</radialGradient>
</defs>
</svg>
