<svg width="178" height="200" viewBox="0 0 178 200" fill="none" xmlns="http://www.w3.org/2000/svg">
<g filter="url(#filter0_dd)">
<path d="M89 11L162.612 53.5V138.5L89 181L15.3878 138.5V53.5L89 11Z" fill="white"/>
</g>
<path d="M75.6223 92L74.3483 88.334H66.6003L65.3263 92H62.0763L68.6803 73.8H72.2683L78.8463 92H75.6223ZM67.5883 85.526H73.3603L70.4743 77.31L67.5883 85.526ZM94.8174 78.662C96.2907 78.662 97.4781 79.1387 98.3794 80.092C99.2807 81.0453 99.7314 82.328 99.7314 83.94V92H96.9234V84.122C96.9234 83.2207 96.6981 82.5273 96.2474 82.042C95.7967 81.5393 95.1814 81.288 94.4014 81.288C93.5347 81.288 92.8414 81.574 92.3214 82.146C91.8187 82.718 91.5674 83.576 91.5674 84.72V92H88.7594V84.122C88.7594 83.2207 88.5427 82.5273 88.1094 82.042C87.6934 81.5393 87.0954 81.288 86.3154 81.288C85.4661 81.288 84.7727 81.5827 84.2354 82.172C83.6981 82.744 83.4294 83.5933 83.4294 84.72V92H80.6214V79H83.4294V80.56C84.2614 79.2947 85.5007 78.662 87.1474 78.662C88.8114 78.662 90.0421 79.3467 90.8394 80.716C91.7061 79.3467 93.0321 78.662 94.8174 78.662ZM105.389 76.53C105.042 76.8767 104.626 77.05 104.141 77.05C103.655 77.05 103.231 76.8767 102.867 76.53C102.52 76.166 102.347 75.7413 102.347 75.256C102.347 74.7707 102.52 74.3547 102.867 74.008C103.213 73.644 103.638 73.462 104.141 73.462C104.643 73.462 105.068 73.644 105.415 74.008C105.761 74.3547 105.935 74.7707 105.935 75.256C105.935 75.7413 105.753 76.166 105.389 76.53ZM102.737 92V79H105.545V92H102.737ZM111.613 81.184C112.324 79.572 113.658 78.766 115.617 78.766V81.808C114.542 81.7387 113.606 81.9987 112.809 82.588C112.012 83.16 111.613 84.1133 111.613 85.448V92H108.805V79H111.613V81.184ZM70.2877 108.588V109.836C70.2877 112.332 69.4644 114.377 67.8177 115.972C66.1711 117.549 64.0217 118.338 61.3697 118.338C58.5617 118.338 56.2391 117.428 54.4017 115.608C52.5817 113.788 51.6717 111.552 51.6717 108.9C51.6717 106.265 52.5817 104.038 54.4017 102.218C56.2391 100.381 58.5097 99.462 61.2137 99.462C62.9124 99.462 64.4637 99.852 65.8677 100.632C67.2717 101.412 68.3637 102.461 69.1437 103.778L66.5697 105.26C66.0844 104.393 65.3651 103.7 64.4117 103.18C63.4584 102.643 62.3924 102.374 61.2137 102.374C59.3071 102.374 57.7384 102.998 56.5077 104.246C55.2771 105.494 54.6617 107.054 54.6617 108.926C54.6617 110.798 55.2771 112.349 56.5077 113.58C57.7557 114.811 59.3851 115.426 61.3957 115.426C63.0077 115.426 64.3164 115.053 65.3217 114.308C66.3444 113.545 66.9944 112.531 67.2717 111.266H61.1877V108.588H70.2877ZM81.7535 105H84.5615V118H81.7535V116.336C80.9042 117.671 79.5608 118.338 77.7235 118.338C76.2328 118.338 75.0282 117.861 74.1095 116.908C73.1908 115.955 72.7315 114.646 72.7315 112.982V105H75.5395V112.696C75.5395 113.667 75.7995 114.412 76.3195 114.932C76.8395 115.452 77.5502 115.712 78.4515 115.712C79.4395 115.712 80.2368 115.409 80.8435 114.802C81.4502 114.178 81.7535 113.233 81.7535 111.968V105ZM98.141 105H100.949V118H98.141V116.128C97.0837 117.601 95.567 118.338 93.591 118.338C91.8057 118.338 90.2804 117.679 89.015 116.362C87.7497 115.027 87.117 113.407 87.117 111.5C87.117 109.576 87.7497 107.955 89.015 106.638C90.2804 105.321 91.8057 104.662 93.591 104.662C95.567 104.662 97.0837 105.39 98.141 106.846V105ZM91.095 114.49C91.875 115.27 92.8544 115.66 94.033 115.66C95.2117 115.66 96.191 115.27 96.971 114.49C97.751 113.693 98.141 112.696 98.141 111.5C98.141 110.304 97.751 109.316 96.971 108.536C96.191 107.739 95.2117 107.34 94.033 107.34C92.8544 107.34 91.875 107.739 91.095 108.536C90.315 109.316 89.925 110.304 89.925 111.5C89.925 112.696 90.315 113.693 91.095 114.49ZM107.03 107.184C107.741 105.572 109.075 104.766 111.034 104.766V107.808C109.959 107.739 109.023 107.999 108.226 108.588C107.429 109.16 107.03 110.113 107.03 111.448V118H104.222V105H107.03V107.184ZM122.795 99.8H125.603V118H122.795V116.128C121.738 117.601 120.221 118.338 118.245 118.338C116.46 118.338 114.935 117.679 113.669 116.362C112.404 115.027 111.771 113.407 111.771 111.5C111.771 109.576 112.404 107.955 113.669 106.638C114.935 105.321 116.46 104.662 118.245 104.662C120.221 104.662 121.738 105.39 122.795 106.846V99.8ZM115.749 114.49C116.529 115.27 117.509 115.66 118.687 115.66C119.866 115.66 120.845 115.27 121.625 114.49C122.405 113.693 122.795 112.696 122.795 111.5C122.795 110.304 122.405 109.316 121.625 108.536C120.845 107.739 119.866 107.34 118.687 107.34C117.509 107.34 116.529 107.739 115.749 108.536C114.969 109.316 114.579 110.304 114.579 111.5C114.579 112.696 114.969 113.693 115.749 114.49Z" fill="#3D3D50"/>
<defs>
<filter id="filter0_dd" x="0.387695" y="0" width="177.224" height="200" filterUnits="userSpaceOnUse" color-interpolation-filters="sRGB">
<feFlood flood-opacity="0" result="BackgroundImageFix"/>
<feColorMatrix in="SourceAlpha" type="matrix" values="0 0 0 0 0 0 0 0 0 0 0 0 0 0 0 0 0 0 127 0"/>
<feOffset dy="4"/>
<feGaussianBlur stdDeviation="7.5"/>
<feColorMatrix type="matrix" values="0 0 0 0 0.796078 0 0 0 0 0.823529 0 0 0 0 0.866667 0 0 0 1 0"/>
<feBlend mode="normal" in2="BackgroundImageFix" result="effect1_dropShadow"/>
<feColorMatrix in="SourceAlpha" type="matrix" values="0 0 0 0 0 0 0 0 0 0 0 0 0 0 0 0 0 0 127 0"/>
<feOffset dy="4"/>
<feGaussianBlur stdDeviation="2"/>
<feColorMatrix type="matrix" values="0 0 0 0 0 0 0 0 0 0 0 0 0 0 0 0 0 0 0.25 0"/>
<feBlend mode="normal" in2="effect1_dropShadow" result="effect2_dropShadow"/>
<feBlend mode="normal" in="SourceGraphic" in2="effect2_dropShadow" result="shape"/>
</filter>
</defs>
</svg>
