<svg width="178" height="200" viewBox="0 0 178 200" fill="none" xmlns="http://www.w3.org/2000/svg">
<g filter="url(#filter0_dd)">
<path d="M89 11L162.612 53.5V138.5L89 181L15.3878 138.5V53.5L89 11Z" fill="white"/>
</g>
<path d="M89.5 151C120.152 151 145 126.152 145 95.5C145 64.8482 120.152 40 89.5 40C58.8482 40 34 64.8482 34 95.5C34 126.152 58.8482 151 89.5 151Z" fill="#00398C"/>
<path fill-rule="evenodd" clip-rule="evenodd" d="M96.6581 45.3884L90.7059 50.9384L94.6472 60.3493L89.0168 54.3971L83.3864 60.3493L87.2472 50.9384L81.2951 45.308L89.0168 49.2493L96.6581 45.3884ZM141.862 102.015L137.439 94.5341L140.817 86.571L135.669 92.9254L126.017 89.7884L132.371 94.9363L126.821 100.969L135.91 96.3841L141.862 102.015ZM142.425 94.2928C142.506 95.3384 141.702 96.2232 140.736 96.2232C139.691 96.3036 138.806 95.4993 138.806 94.5341C138.725 93.4884 139.53 92.6036 140.495 92.6036C141.46 92.4428 142.345 93.2471 142.425 94.2928ZM140.656 86.0884L133.256 82.5493L125.936 89.6276L129.475 82.1471L121.915 79.0906L132.049 79.2515L135.025 71.6102L134.221 80.2167L140.656 86.0884ZM138.886 78.4471C138.484 77.4819 137.439 76.9993 136.473 77.4015C135.508 77.8036 135.025 78.8493 135.428 79.8145C135.83 80.7797 136.875 81.2623 137.841 80.8602C138.725 80.458 139.208 79.4123 138.886 78.4471ZM134.704 71.208L126.821 67.5884L125.052 59.0623L124.408 67.2667L114.756 70.1623L116.847 60.1884L124.971 58.9819L116.365 57.8558L112.182 50.2949L113.952 58.258L105.506 63.8884L113.469 62.1189L114.756 70.2428L122.88 70.8863L121.673 78.9297L126.58 70.0015L134.704 71.208ZM130.762 64.4515C131.406 65.2558 131.245 66.3819 130.441 67.0254C129.636 67.6689 128.51 67.508 127.867 66.7036C127.223 65.8993 127.384 64.7732 128.189 64.1297C128.912 63.4863 130.119 63.6471 130.762 64.4515ZM119.099 53.6732C119.904 54.2363 120.145 55.3623 119.582 56.2471C119.019 57.0515 117.893 57.2928 117.008 56.7297C116.204 56.1667 115.962 55.0406 116.525 54.1558C117.169 53.3515 118.295 53.1102 119.099 53.6732ZM111.78 50.0536L103.254 51.5015L96.9798 45.4689L101.082 52.5471L94.6472 60.4297L101.725 56.408L105.345 63.808L104.38 53.6732L111.78 50.0536ZM104.702 46.7558C105.667 47.0776 106.23 48.1232 105.908 49.0884C105.586 50.0536 104.541 50.6167 103.575 50.2949C102.61 49.9732 102.047 48.9276 102.369 47.9623C102.691 46.9971 103.736 46.4341 104.702 46.7558ZM43.0081 71.3689L43.8124 79.9754L37.2168 85.6862L44.6168 82.1471L51.9364 89.2254L48.4777 81.9058L56.0385 78.8493V78.7689L54.9124 70.7254L63.1168 70.0015L53.3038 67.1863L52.6603 59.0623L50.8907 67.5884L43.0081 71.1276L51.132 69.921L56.0385 78.7689L45.9038 78.9297L43.0081 71.3689ZM39.1472 78.1254C39.5494 77.1602 40.5951 76.6776 41.5603 77.0797C42.5255 77.4819 43.0081 78.5276 42.6059 79.4928C42.2038 80.458 41.1581 80.9406 40.1929 80.5384C39.2277 80.1362 38.7451 79.0906 39.1472 78.1254ZM47.0298 64.4515C47.6733 63.6471 48.7994 63.4863 49.6038 64.1297C50.4081 64.7732 50.569 65.8993 49.9255 66.7036C49.282 67.508 48.1559 67.6689 47.3516 67.0254C46.5472 66.3819 46.3864 65.2558 47.0298 64.4515ZM65.7711 50.2145L64.0016 58.1776L72.5277 63.7276L64.4842 61.958L63.1972 70.0015L61.0255 60.108L52.9016 58.9015L61.5081 57.7754L65.7711 50.2145ZM58.7733 53.6732C57.969 54.2363 57.7277 55.3623 58.2907 56.2471C58.8538 57.0515 59.9798 57.2928 60.8646 56.7297C61.669 56.1667 61.9103 55.0406 61.3472 54.1558C60.7038 53.271 59.5777 53.1102 58.7733 53.6732ZM80.8929 45.4689L74.619 51.5015L66.0929 50.0536L73.4929 53.5928L72.6081 63.7276L76.1472 56.408L83.3059 60.4297L76.7907 52.5471L80.8929 45.4689ZM73.1711 46.6754C72.2059 46.9971 71.6429 48.0428 71.9646 49.008C72.2864 49.9732 73.332 50.5363 74.2972 50.2145C75.2624 49.8928 75.8255 48.8471 75.5037 47.8819C75.182 46.9167 74.1364 46.4341 73.1711 46.6754ZM88.9364 44.3428C87.8907 44.3428 87.0864 45.1471 87.0864 46.1928C87.0864 47.2384 87.8907 48.0428 88.9364 48.0428C89.982 48.0428 90.7864 47.2384 90.7864 46.1928C90.7864 45.1471 89.982 44.3428 88.9364 44.3428Z" fill="#217DD8"/>
<path fill-rule="evenodd" clip-rule="evenodd" d="M82.1792 145.208L88.1314 139.658L84.1901 130.247L89.8205 136.199L95.4509 130.247L91.5901 139.658L97.5422 145.289L89.8205 141.347L82.1792 145.208ZM36.9748 88.582L41.3988 96.0625L38.0205 104.026L43.1683 97.6712L52.8205 100.808L46.4662 95.6603L52.0162 89.6277L42.927 94.2125L36.9748 88.582ZM36.4118 96.3842C36.3314 95.3386 37.1357 94.4538 38.1009 94.4538C39.1466 94.3733 40.0314 95.1777 40.0314 96.1429C40.1118 97.1886 39.3075 98.0733 38.3422 98.0733C37.377 98.1538 36.4922 97.3494 36.4118 96.3842ZM38.1814 104.589L45.5814 108.128L52.9009 101.049L49.3618 108.53L56.9227 111.586L46.7879 111.426L43.8118 119.067L44.6162 110.46L38.1814 104.589ZM39.9509 112.149C40.3531 113.115 41.3988 113.597 42.364 113.195C43.3292 112.793 43.8118 111.747 43.4096 110.782C43.0075 109.817 41.9618 109.334 40.9966 109.736C40.1118 110.139 39.6292 111.184 39.9509 112.149ZM44.0531 119.469L51.9357 123.089L53.7053 131.615L54.3488 123.41L64.0009 120.515L61.9096 130.489L53.8662 131.695L62.4727 132.821L66.6553 140.382L64.8857 132.419L73.3314 126.789L65.3683 128.558L64.0814 120.434L55.9575 119.791L57.0835 111.667L52.177 120.595L44.0531 119.469ZM48.0748 126.226C47.4314 125.421 47.5922 124.295 48.3966 123.652C49.2009 123.008 50.327 123.169 50.9705 123.973C51.614 124.778 51.4531 125.904 50.6488 126.547C49.8444 127.11 48.7183 127.03 48.0748 126.226ZM59.7379 136.923C58.9335 136.36 58.6922 135.234 59.2553 134.349C59.8183 133.545 60.9444 133.304 61.8292 133.867C62.6335 134.43 62.8748 135.556 62.3118 136.441C61.6683 137.326 60.5422 137.486 59.7379 136.923ZM67.0575 140.543L75.5835 139.095L81.8575 145.128L77.7553 138.049L84.1901 130.167L77.1118 134.189L73.4118 126.869L74.377 137.004L67.0575 140.543ZM74.1357 143.921C73.1705 143.599 72.6075 142.554 72.9292 141.589C73.2509 140.623 74.2966 140.06 75.2618 140.382C76.227 140.704 76.7901 141.749 76.4683 142.715C76.0662 143.68 75.1009 144.243 74.1357 143.921ZM135.829 119.308L135.025 110.702L141.54 104.991L134.14 108.53L126.82 101.452L130.279 108.852L122.718 111.908V111.989L123.844 120.032L115.64 120.756L125.453 123.571L126.097 131.695L127.866 123.169L135.749 119.63L127.625 120.836L122.718 111.989L132.853 111.828L135.829 119.308ZM139.69 112.471C139.288 113.436 138.242 113.919 137.277 113.517C136.312 113.115 135.829 112.069 136.231 111.104C136.634 110.139 137.679 109.656 138.644 110.058C139.61 110.46 140.092 111.506 139.69 112.471ZM131.727 126.145C131.084 126.949 129.957 127.11 129.153 126.467C128.349 125.823 128.188 124.697 128.831 123.893C129.475 123.089 130.601 122.928 131.405 123.571C132.29 124.215 132.37 125.341 131.727 126.145ZM113.066 140.382L114.836 132.419L106.31 126.869L114.353 128.639L115.64 120.595L117.812 130.569L125.936 131.776L117.329 132.902L113.066 140.382ZM120.064 136.923C120.868 136.36 121.11 135.234 120.547 134.349C119.984 133.545 118.857 133.304 117.973 133.867C117.168 134.43 116.927 135.556 117.49 136.441C118.053 137.326 119.26 137.567 120.064 136.923ZM97.9444 145.128L104.218 139.095L112.744 140.543L105.344 137.004L106.229 126.869L102.69 134.189L95.5314 130.167L102.047 138.049L97.9444 145.128ZM105.666 143.921C106.631 143.599 107.194 142.554 106.873 141.589C106.551 140.623 105.505 140.06 104.54 140.382C103.575 140.704 103.012 141.749 103.334 142.715C103.655 143.68 104.701 144.243 105.666 143.921ZM89.9009 146.254C90.9466 146.254 91.7509 145.449 91.7509 144.404C91.7509 143.358 90.9466 142.554 89.9009 142.554C88.8553 142.554 88.0509 143.358 88.0509 144.404C88.0509 145.449 88.8553 146.254 89.9009 146.254Z" fill="#217DD8"/>
<path d="M89.7424 129.684C108.622 129.684 123.927 114.379 123.927 95.4992C123.927 76.6195 108.622 61.3145 89.7424 61.3145C70.8627 61.3145 55.5576 76.6195 55.5576 95.4992C55.5576 114.379 70.8627 129.684 89.7424 129.684Z" fill="white" stroke="#003B75" stroke-miterlimit="10"/>
<path d="M95.5311 99.4415H98.4267L95.6115 91.398H82.0985L79.3637 99.4415H82.9833V103.463H71.5615V99.4415H74.618L85.6376 68.1523H92.4746L103.414 99.4415H106.953V103.463H95.5311V99.4415ZM83.4659 87.5371H94.3246L88.855 71.7719L83.4659 87.5371Z" fill="#00398C"/>
<path d="M79.1224 112.231C78.8007 111.748 78.3985 111.346 77.9159 111.024C77.4333 110.702 76.8702 110.622 76.3072 110.622C75.8246 110.622 75.342 110.702 74.9398 110.944C74.5376 111.185 74.1354 111.426 73.8137 111.828C73.492 112.231 73.2507 112.633 73.0898 113.115C72.9289 113.598 72.8485 114.081 72.8485 114.644C72.8485 115.287 72.9289 115.85 73.0898 116.333C73.2507 116.815 73.492 117.218 73.8137 117.539C74.1354 117.861 74.4572 118.102 74.8593 118.344C75.2615 118.585 75.7441 118.665 76.2267 118.665C76.9507 118.665 77.5137 118.505 78.0767 118.183C78.6398 117.861 79.042 117.218 79.4441 116.413L80.5702 116.976C80.4093 117.459 80.0876 117.941 79.6854 118.344C79.2833 118.746 78.8007 119.148 78.2376 119.389C77.6746 119.631 77.0311 119.791 76.3072 119.791C75.5833 119.791 75.0202 119.631 74.4572 119.389C73.8941 119.148 73.4115 118.746 72.9289 118.263C72.4463 117.781 72.1246 117.218 71.8833 116.574C71.642 115.931 71.5615 115.207 71.5615 114.563C71.5615 113.839 71.642 113.196 71.8833 112.552C72.1246 111.909 72.4463 111.346 72.8485 110.863C73.2507 110.381 73.8137 110.059 74.3767 109.737C74.9398 109.496 75.5833 109.335 76.3072 109.335C76.9507 109.335 77.4333 109.415 77.9159 109.576C78.3985 109.737 78.7202 109.978 79.042 110.22C79.3637 110.461 79.605 110.702 79.8463 111.024H80.5702V112.231H79.1224Z" fill="#217DD8"/>
<path d="M82.8203 109.574H86.0377V110.781H85.0725V118.502H86.0377V119.629H82.8203V118.502H83.7855V110.781H82.8203V109.574Z" fill="#217DD8"/>
<path d="M90.8666 118.502H91.7514V110.7H89.4992V112.229H88.1318V109.574H97.0601V112.229H95.6927V110.7H93.0384V118.502H94.084V119.629H90.8666V118.502Z" fill="#217DD8"/>
<path d="M98.5879 109.574H101.886V110.781H100.92L102.77 113.998L104.781 110.781H103.736V109.655H107.034V110.781H106.149L103.334 115.044V118.502H104.379V119.629H101.081V118.502H101.966V114.963L99.3922 110.781H98.5879V109.574Z" fill="#217DD8"/>
<defs>
<filter id="filter0_dd" x="0.387695" y="0" width="177.224" height="200" filterUnits="userSpaceOnUse" color-interpolation-filters="sRGB">
<feFlood flood-opacity="0" result="BackgroundImageFix"/>
<feColorMatrix in="SourceAlpha" type="matrix" values="0 0 0 0 0 0 0 0 0 0 0 0 0 0 0 0 0 0 127 0"/>
<feOffset dy="4"/>
<feGaussianBlur stdDeviation="7.5"/>
<feColorMatrix type="matrix" values="0 0 0 0 0.796078 0 0 0 0 0.823529 0 0 0 0 0.866667 0 0 0 1 0"/>
<feBlend mode="normal" in2="BackgroundImageFix" result="effect1_dropShadow"/>
<feColorMatrix in="SourceAlpha" type="matrix" values="0 0 0 0 0 0 0 0 0 0 0 0 0 0 0 0 0 0 127 0"/>
<feOffset dy="4"/>
<feGaussianBlur stdDeviation="2"/>
<feColorMatrix type="matrix" values="0 0 0 0 0 0 0 0 0 0 0 0 0 0 0 0 0 0 0.25 0"/>
<feBlend mode="normal" in2="effect1_dropShadow" result="effect2_dropShadow"/>
<feBlend mode="normal" in="SourceGraphic" in2="effect2_dropShadow" result="shape"/>
</filter>
</defs>
</svg>
