<svg width="178" height="200" viewBox="0 0 178 200" fill="none" xmlns="http://www.w3.org/2000/svg">
<g filter="url(#filter0_dd)">
<path d="M89 11L162.612 53.5V138.5L89 181L15.3878 138.5V53.5L89 11Z" fill="white"/>
</g>
<path d="M61.3481 89.14H68.7581V92H58.3581V73.8H61.3481V89.14ZM73.4472 76.53C73.1006 76.8767 72.6846 77.05 72.1992 77.05C71.7139 77.05 71.2892 76.8767 70.9252 76.53C70.5786 76.166 70.4052 75.7413 70.4052 75.256C70.4052 74.7707 70.5786 74.3547 70.9252 74.008C71.2719 73.644 71.6966 73.462 72.1992 73.462C72.7019 73.462 73.1266 73.644 73.4732 74.008C73.8199 74.3547 73.9932 74.7707 73.9932 75.256C73.9932 75.7413 73.8112 76.166 73.4472 76.53ZM70.7952 92V79H73.6032V92H70.7952ZM79.3094 82.588C79.3094 83.0213 79.5434 83.368 80.0114 83.628C80.4967 83.8707 81.0774 84.0873 81.7534 84.278C82.4467 84.4513 83.1401 84.6593 83.8334 84.902C84.5267 85.1447 85.1074 85.5607 85.5754 86.15C86.0607 86.722 86.3034 87.45 86.3034 88.334C86.3034 89.582 85.8181 90.5613 84.8474 91.272C83.8941 91.9827 82.6894 92.338 81.2334 92.338C79.9507 92.338 78.8501 92.0693 77.9314 91.532C77.0127 90.9947 76.3454 90.2493 75.9294 89.296L78.3474 87.892C78.7981 89.14 79.7601 89.764 81.2334 89.764C82.7067 89.764 83.4434 89.2787 83.4434 88.308C83.4434 87.892 83.2007 87.554 82.7154 87.294C82.2474 87.034 81.6667 86.8173 80.9734 86.644C80.2974 86.4533 79.6127 86.2367 78.9194 85.994C78.2261 85.7513 77.6367 85.3527 77.1514 84.798C76.6834 84.226 76.4494 83.5067 76.4494 82.64C76.4494 81.444 76.9001 80.482 77.8014 79.754C78.7201 79.026 79.8554 78.662 81.2074 78.662C82.2821 78.662 83.2354 78.9047 84.0674 79.39C84.9167 79.858 85.5667 80.5167 86.0174 81.366L83.6514 82.692C83.2007 81.704 82.3861 81.21 81.2074 81.21C80.6701 81.21 80.2194 81.3313 79.8554 81.574C79.4914 81.7993 79.3094 82.1373 79.3094 82.588ZM95.518 81.704H92.294V87.944C92.294 88.4813 92.4153 88.8713 92.658 89.114C92.9006 89.3393 93.256 89.4693 93.724 89.504C94.2093 89.5213 94.8073 89.5127 95.518 89.478V92C93.3686 92.26 91.826 92.078 90.89 91.454C89.954 90.8127 89.486 89.6427 89.486 87.944V81.704H87.094V79H89.486V76.192L92.294 75.36V79H95.518V81.704ZM104.709 81.704H101.485V87.944C101.485 88.4813 101.607 88.8713 101.849 89.114C102.092 89.3393 102.447 89.4693 102.915 89.504C103.401 89.5213 103.999 89.5127 104.709 89.478V92C102.56 92.26 101.017 92.078 100.081 91.454C99.1454 90.8127 98.6774 89.6427 98.6774 87.944V81.704H96.2854V79H98.6774V76.192L101.485 75.36V79H104.709V81.704ZM117.019 79H119.827V92H117.019V90.128C115.962 91.6013 114.445 92.338 112.469 92.338C110.684 92.338 109.158 91.6793 107.893 90.362C106.628 89.0273 105.995 87.4067 105.995 85.5C105.995 83.576 106.628 81.9553 107.893 80.638C109.158 79.3207 110.684 78.662 112.469 78.662C114.445 78.662 115.962 79.39 117.019 80.846V79ZM109.973 88.49C110.753 89.27 111.732 89.66 112.911 89.66C114.09 89.66 115.069 89.27 115.849 88.49C116.629 87.6927 117.019 86.696 117.019 85.5C117.019 84.304 116.629 83.316 115.849 82.536C115.069 81.7387 114.09 81.34 112.911 81.34C111.732 81.34 110.753 81.7387 109.973 82.536C109.193 83.316 108.803 84.304 108.803 85.5C108.803 86.696 109.193 87.6927 109.973 88.49ZM54.2027 102.66H46.5327V107.756H53.9427V110.616H46.5327V118H43.5427V99.8H54.2027V102.66ZM59.4697 102.53C59.123 102.877 58.707 103.05 58.2217 103.05C57.7364 103.05 57.3117 102.877 56.9477 102.53C56.601 102.166 56.4277 101.741 56.4277 101.256C56.4277 100.771 56.601 100.355 56.9477 100.008C57.2944 99.644 57.719 99.462 58.2217 99.462C58.7244 99.462 59.149 99.644 59.4957 100.008C59.8424 100.355 60.0157 100.771 60.0157 101.256C60.0157 101.741 59.8337 102.166 59.4697 102.53ZM56.8177 118V105H59.6257V118H56.8177ZM69.724 104.662C71.2147 104.662 72.4194 105.139 73.338 106.092C74.2567 107.045 74.716 108.354 74.716 110.018V118H71.908V110.304C71.908 109.333 71.648 108.588 71.128 108.068C70.608 107.548 69.8974 107.288 68.996 107.288C68.008 107.288 67.2107 107.6 66.604 108.224C65.9974 108.831 65.694 109.767 65.694 111.032V118H62.886V105H65.694V106.664C66.5434 105.329 67.8867 104.662 69.724 104.662ZM88.0356 105H90.8436V118H88.0356V116.128C86.9782 117.601 85.4616 118.338 83.4856 118.338C81.7002 118.338 80.1749 117.679 78.9096 116.362C77.6442 115.027 77.0116 113.407 77.0116 111.5C77.0116 109.576 77.6442 107.955 78.9096 106.638C80.1749 105.321 81.7002 104.662 83.4856 104.662C85.4616 104.662 86.9782 105.39 88.0356 106.846V105ZM80.9896 114.49C81.7696 115.27 82.7489 115.66 83.9276 115.66C85.1062 115.66 86.0856 115.27 86.8656 114.49C87.6456 113.693 88.0356 112.696 88.0356 111.5C88.0356 110.304 87.6456 109.316 86.8656 108.536C86.0856 107.739 85.1062 107.34 83.9276 107.34C82.7489 107.34 81.7696 107.739 80.9896 108.536C80.2096 109.316 79.8196 110.304 79.8196 111.5C79.8196 112.696 80.2096 113.693 80.9896 114.49ZM100.955 104.662C102.445 104.662 103.65 105.139 104.569 106.092C105.487 107.045 105.947 108.354 105.947 110.018V118H103.139V110.304C103.139 109.333 102.879 108.588 102.359 108.068C101.839 107.548 101.128 107.288 100.227 107.288C99.2385 107.288 98.4412 107.6 97.8345 108.224C97.2278 108.831 96.9245 109.767 96.9245 111.032V118H94.1165V105H96.9245V106.664C97.7738 105.329 99.1172 104.662 100.955 104.662ZM115.106 118.338C113.147 118.338 111.509 117.679 110.192 116.362C108.892 115.045 108.242 113.424 108.242 111.5C108.242 109.559 108.892 107.938 110.192 106.638C111.509 105.321 113.147 104.662 115.106 104.662C116.371 104.662 117.524 104.965 118.564 105.572C119.604 106.179 120.384 106.993 120.904 108.016L118.486 109.42C118.191 108.796 117.741 108.311 117.134 107.964C116.545 107.6 115.86 107.418 115.08 107.418C113.936 107.418 112.974 107.808 112.194 108.588C111.431 109.368 111.05 110.339 111.05 111.5C111.05 112.661 111.431 113.632 112.194 114.412C112.974 115.192 113.936 115.582 115.08 115.582C115.843 115.582 116.527 115.4 117.134 115.036C117.758 114.672 118.226 114.187 118.538 113.58L120.956 114.958C120.401 115.998 119.604 116.821 118.564 117.428C117.524 118.035 116.371 118.338 115.106 118.338ZM124.993 112.696C125.201 113.684 125.677 114.447 126.423 114.984C127.168 115.504 128.078 115.764 129.153 115.764C130.643 115.764 131.761 115.227 132.507 114.152L134.821 115.504C133.538 117.393 131.64 118.338 129.127 118.338C127.012 118.338 125.305 117.697 124.005 116.414C122.705 115.114 122.055 113.476 122.055 111.5C122.055 109.559 122.696 107.938 123.979 106.638C125.261 105.321 126.908 104.662 128.919 104.662C130.825 104.662 132.385 105.329 133.599 106.664C134.829 107.999 135.445 109.619 135.445 111.526C135.445 111.821 135.41 112.211 135.341 112.696H124.993ZM124.967 110.408H132.611C132.42 109.351 131.978 108.553 131.285 108.016C130.609 107.479 129.811 107.21 128.893 107.21C127.853 107.21 126.986 107.496 126.293 108.068C125.599 108.64 125.157 109.42 124.967 110.408Z" fill="#3D3D50"/>
<defs>
<filter id="filter0_dd" x="0.387695" y="0" width="177.224" height="200" filterUnits="userSpaceOnUse" color-interpolation-filters="sRGB">
<feFlood flood-opacity="0" result="BackgroundImageFix"/>
<feColorMatrix in="SourceAlpha" type="matrix" values="0 0 0 0 0 0 0 0 0 0 0 0 0 0 0 0 0 0 127 0"/>
<feOffset dy="4"/>
<feGaussianBlur stdDeviation="7.5"/>
<feColorMatrix type="matrix" values="0 0 0 0 0.796078 0 0 0 0 0.823529 0 0 0 0 0.866667 0 0 0 1 0"/>
<feBlend mode="normal" in2="BackgroundImageFix" result="effect1_dropShadow"/>
<feColorMatrix in="SourceAlpha" type="matrix" values="0 0 0 0 0 0 0 0 0 0 0 0 0 0 0 0 0 0 127 0"/>
<feOffset dy="4"/>
<feGaussianBlur stdDeviation="2"/>
<feColorMatrix type="matrix" values="0 0 0 0 0 0 0 0 0 0 0 0 0 0 0 0 0 0 0.25 0"/>
<feBlend mode="normal" in2="effect1_dropShadow" result="effect2_dropShadow"/>
<feBlend mode="normal" in="SourceGraphic" in2="effect2_dropShadow" result="shape"/>
</filter>
</defs>
</svg>
