<svg width="178" height="200" viewBox="0 0 178 200" fill="none" xmlns="http://www.w3.org/2000/svg">
<g filter="url(#filter0_dd)">
<path d="M89 11L162.612 53.5V138.5L89 181L15.3878 138.5V53.5L89 11Z" fill="white"/>
</g>
<path d="M63.1895 90.338C61.4389 90.338 59.9482 89.9393 58.7175 89.142C57.5042 88.3447 56.6549 87.2527 56.1695 85.866L58.7435 84.358C59.4715 86.4033 60.9795 87.426 63.2675 87.426C64.3942 87.426 65.2349 87.2093 65.7895 86.776C66.3615 86.3253 66.6475 85.7447 66.6475 85.034C66.6475 84.2887 66.3442 83.7253 65.7375 83.344C65.1309 82.9453 64.0562 82.512 62.5135 82.044C61.6469 81.784 60.9449 81.5413 60.4075 81.316C59.8702 81.0907 59.2982 80.7787 58.6915 80.38C58.1022 79.964 57.6602 79.4527 57.3655 78.846C57.0709 78.2393 56.9235 77.5287 56.9235 76.714C56.9235 75.102 57.4955 73.828 58.6395 72.892C59.7835 71.9387 61.1615 71.462 62.7735 71.462C64.2295 71.462 65.5035 71.8173 66.5955 72.528C67.6875 73.2387 68.5282 74.218 69.1175 75.466L66.5955 76.922C65.8329 75.2233 64.5589 74.374 62.7735 74.374C61.9069 74.374 61.2135 74.582 60.6935 74.998C60.1735 75.3967 59.9135 75.9427 59.9135 76.636C59.9135 77.312 60.1735 77.8493 60.6935 78.248C61.2309 78.6293 62.1929 79.0367 63.5795 79.47C64.2729 79.6953 64.7755 79.8687 65.0875 79.99C65.4169 80.094 65.8675 80.2673 66.4395 80.51C67.0289 80.7527 67.4709 80.9953 67.7655 81.238C68.0602 81.4807 68.3722 81.784 68.7015 82.148C69.0482 82.512 69.2909 82.928 69.4295 83.396C69.5682 83.864 69.6375 84.3927 69.6375 84.982C69.6375 86.6287 69.0395 87.9373 67.8435 88.908C66.6649 89.8613 65.1135 90.338 63.1895 90.338ZM78.523 90.338C76.6164 90.338 74.9957 89.6793 73.661 88.362C72.3264 87.0447 71.659 85.424 71.659 83.5C71.659 81.576 72.3264 79.9553 73.661 78.638C74.9957 77.3207 76.6164 76.662 78.523 76.662C80.447 76.662 82.0677 77.3207 83.385 78.638C84.7197 79.9553 85.387 81.576 85.387 83.5C85.387 85.424 84.7197 87.0447 83.385 88.362C82.0677 89.6793 80.447 90.338 78.523 90.338ZM75.637 86.438C76.417 87.218 77.379 87.608 78.523 87.608C79.667 87.608 80.629 87.218 81.409 86.438C82.189 85.658 82.579 84.6787 82.579 83.5C82.579 82.3213 82.189 81.342 81.409 80.562C80.629 79.782 79.667 79.392 78.523 79.392C77.379 79.392 76.417 79.782 75.637 80.562C74.857 81.342 74.467 82.3213 74.467 83.5C74.467 84.6787 74.857 85.658 75.637 86.438ZM87.9261 90V71.02H90.7341V90H87.9261ZM93.9944 90V71.02H96.8024V90H93.9944ZM110.359 77H113.167V90H110.359V88.128C109.301 89.6013 107.785 90.338 105.809 90.338C104.023 90.338 102.498 89.6793 101.233 88.362C99.9675 87.0273 99.3348 85.4067 99.3348 83.5C99.3348 81.576 99.9675 79.9553 101.233 78.638C102.498 77.3207 104.023 76.662 105.809 76.662C107.785 76.662 109.301 77.39 110.359 78.846V77ZM103.313 86.49C104.093 87.27 105.072 87.66 106.251 87.66C107.429 87.66 108.409 87.27 109.189 86.49C109.969 85.6927 110.359 84.696 110.359 83.5C110.359 82.304 109.969 81.316 109.189 80.536C108.409 79.7387 107.429 79.34 106.251 79.34C105.072 79.34 104.093 79.7387 103.313 80.536C102.533 81.316 102.143 82.304 102.143 83.5C102.143 84.696 102.533 85.6927 103.313 86.49ZM119.248 79.184C119.958 77.572 121.293 76.766 123.252 76.766V79.808C122.177 79.7387 121.241 79.9987 120.444 80.588C119.646 81.16 119.248 82.1133 119.248 83.448V90H116.44V77H119.248V79.184ZM69.2581 97.8C71.7541 97.8 73.8254 98.6753 75.4721 100.426C77.1361 102.177 77.9681 104.335 77.9681 106.9C77.9681 109.448 77.1361 111.606 75.4721 113.374C73.8254 115.125 71.7541 116 69.2581 116H62.1081V97.8H69.2581ZM69.2581 113.14C70.9741 113.14 72.3694 112.551 73.4441 111.372C74.5361 110.193 75.0821 108.703 75.0821 106.9C75.0821 105.08 74.5361 103.589 73.4441 102.428C72.3694 101.249 70.9741 100.66 69.2581 100.66H65.0981V113.14H69.2581ZM82.722 110.696C82.93 111.684 83.4067 112.447 84.152 112.984C84.8974 113.504 85.8074 113.764 86.882 113.764C88.3727 113.764 89.4907 113.227 90.236 112.152L92.55 113.504C91.2674 115.393 89.3694 116.338 86.856 116.338C84.7414 116.338 83.034 115.697 81.734 114.414C80.434 113.114 79.784 111.476 79.784 109.5C79.784 107.559 80.4254 105.938 81.708 104.638C82.9907 103.321 84.6374 102.662 86.648 102.662C88.5547 102.662 90.1147 103.329 91.328 104.664C92.5587 105.999 93.174 107.619 93.174 109.526C93.174 109.821 93.1394 110.211 93.07 110.696H82.722ZM82.696 108.408H90.34C90.1494 107.351 89.7074 106.553 89.014 106.016C88.338 105.479 87.5407 105.21 86.622 105.21C85.582 105.21 84.7154 105.496 84.022 106.068C83.3287 106.64 82.8867 107.42 82.696 108.408ZM97.659 106.588C97.659 107.021 97.893 107.368 98.361 107.628C98.8464 107.871 99.427 108.087 100.103 108.278C100.796 108.451 101.49 108.659 102.183 108.902C102.876 109.145 103.457 109.561 103.925 110.15C104.41 110.722 104.653 111.45 104.653 112.334C104.653 113.582 104.168 114.561 103.197 115.272C102.244 115.983 101.039 116.338 99.583 116.338C98.3004 116.338 97.1997 116.069 96.281 115.532C95.3624 114.995 94.695 114.249 94.279 113.296L96.697 111.892C97.1477 113.14 98.1097 113.764 99.583 113.764C101.056 113.764 101.793 113.279 101.793 112.308C101.793 111.892 101.55 111.554 101.065 111.294C100.597 111.034 100.016 110.817 99.323 110.644C98.647 110.453 97.9624 110.237 97.269 109.994C96.5757 109.751 95.9864 109.353 95.501 108.798C95.033 108.226 94.799 107.507 94.799 106.64C94.799 105.444 95.2497 104.482 96.151 103.754C97.0697 103.026 98.205 102.662 99.557 102.662C100.632 102.662 101.585 102.905 102.417 103.39C103.266 103.858 103.916 104.517 104.367 105.366L102.001 106.692C101.55 105.704 100.736 105.21 99.557 105.21C99.0197 105.21 98.569 105.331 98.205 105.574C97.841 105.799 97.659 106.137 97.659 106.588ZM118.461 116H115.107L109.777 109.994V116H106.969V97.8H109.777V108.746L114.821 103H118.253L112.533 109.37L118.461 116Z" fill="#3D3D50"/>
<defs>
<filter id="filter0_dd" x="0.387695" y="0" width="177.224" height="200" filterUnits="userSpaceOnUse" color-interpolation-filters="sRGB">
<feFlood flood-opacity="0" result="BackgroundImageFix"/>
<feColorMatrix in="SourceAlpha" type="matrix" values="0 0 0 0 0 0 0 0 0 0 0 0 0 0 0 0 0 0 127 0"/>
<feOffset dy="4"/>
<feGaussianBlur stdDeviation="7.5"/>
<feColorMatrix type="matrix" values="0 0 0 0 0.796078 0 0 0 0 0.823529 0 0 0 0 0.866667 0 0 0 1 0"/>
<feBlend mode="normal" in2="BackgroundImageFix" result="effect1_dropShadow"/>
<feColorMatrix in="SourceAlpha" type="matrix" values="0 0 0 0 0 0 0 0 0 0 0 0 0 0 0 0 0 0 127 0"/>
<feOffset dy="4"/>
<feGaussianBlur stdDeviation="2"/>
<feColorMatrix type="matrix" values="0 0 0 0 0 0 0 0 0 0 0 0 0 0 0 0 0 0 0.25 0"/>
<feBlend mode="normal" in2="effect1_dropShadow" result="effect2_dropShadow"/>
<feBlend mode="normal" in="SourceGraphic" in2="effect2_dropShadow" result="shape"/>
</filter>
</defs>
</svg>
