<svg width="178" height="200" viewBox="0 0 178 200" fill="none" xmlns="http://www.w3.org/2000/svg">
<g filter="url(#filter0_dd)">
<path d="M89 11L162.612 53.5V138.5L89 181L15.3878 138.5V53.5L89 11Z" fill="white"/>
</g>
<path d="M62.6895 90.338C60.9389 90.338 59.4482 89.9393 58.2175 89.142C57.0042 88.3447 56.1549 87.2527 55.6695 85.866L58.2435 84.358C58.9715 86.4033 60.4795 87.426 62.7675 87.426C63.8942 87.426 64.7349 87.2093 65.2895 86.776C65.8615 86.3253 66.1475 85.7447 66.1475 85.034C66.1475 84.2887 65.8442 83.7253 65.2375 83.344C64.6309 82.9453 63.5562 82.512 62.0135 82.044C61.1469 81.784 60.4449 81.5413 59.9075 81.316C59.3702 81.0907 58.7982 80.7787 58.1915 80.38C57.6022 79.964 57.1602 79.4527 56.8655 78.846C56.5709 78.2393 56.4235 77.5287 56.4235 76.714C56.4235 75.102 56.9955 73.828 58.1395 72.892C59.2835 71.9387 60.6615 71.462 62.2735 71.462C63.7295 71.462 65.0035 71.8173 66.0955 72.528C67.1875 73.2387 68.0282 74.218 68.6175 75.466L66.0955 76.922C65.3329 75.2233 64.0589 74.374 62.2735 74.374C61.4069 74.374 60.7135 74.582 60.1935 74.998C59.6735 75.3967 59.4135 75.9427 59.4135 76.636C59.4135 77.312 59.6735 77.8493 60.1935 78.248C60.7309 78.6293 61.6929 79.0367 63.0795 79.47C63.7729 79.6953 64.2755 79.8687 64.5875 79.99C64.9169 80.094 65.3675 80.2673 65.9395 80.51C66.5289 80.7527 66.9709 80.9953 67.2655 81.238C67.5602 81.4807 67.8722 81.784 68.2015 82.148C68.5482 82.512 68.7909 82.928 68.9295 83.396C69.0682 83.864 69.1375 84.3927 69.1375 84.982C69.1375 86.6287 68.5395 87.9373 67.3435 88.908C66.1649 89.8613 64.6135 90.338 62.6895 90.338ZM78.023 90.338C76.1164 90.338 74.4957 89.6793 73.161 88.362C71.8264 87.0447 71.159 85.424 71.159 83.5C71.159 81.576 71.8264 79.9553 73.161 78.638C74.4957 77.3207 76.1164 76.662 78.023 76.662C79.947 76.662 81.5677 77.3207 82.885 78.638C84.2197 79.9553 84.887 81.576 84.887 83.5C84.887 85.424 84.2197 87.0447 82.885 88.362C81.5677 89.6793 79.947 90.338 78.023 90.338ZM75.137 86.438C75.917 87.218 76.879 87.608 78.023 87.608C79.167 87.608 80.129 87.218 80.909 86.438C81.689 85.658 82.079 84.6787 82.079 83.5C82.079 82.3213 81.689 81.342 80.909 80.562C80.129 79.782 79.167 79.392 78.023 79.392C76.879 79.392 75.917 79.782 75.137 80.562C74.357 81.342 73.967 82.3213 73.967 83.5C73.967 84.6787 74.357 85.658 75.137 86.438ZM87.4261 90V71.02H90.2341V90H87.4261ZM93.4944 90V71.02H96.3024V90H93.4944ZM109.859 77H112.667V90H109.859V88.128C108.801 89.6013 107.285 90.338 105.309 90.338C103.523 90.338 101.998 89.6793 100.733 88.362C99.4675 87.0273 98.8348 85.4067 98.8348 83.5C98.8348 81.576 99.4675 79.9553 100.733 78.638C101.998 77.3207 103.523 76.662 105.309 76.662C107.285 76.662 108.801 77.39 109.859 78.846V77ZM102.813 86.49C103.593 87.27 104.572 87.66 105.751 87.66C106.929 87.66 107.909 87.27 108.689 86.49C109.469 85.6927 109.859 84.696 109.859 83.5C109.859 82.304 109.469 81.316 108.689 80.536C107.909 79.7387 106.929 79.34 105.751 79.34C104.572 79.34 103.593 79.7387 102.813 80.536C102.033 81.316 101.643 82.304 101.643 83.5C101.643 84.696 102.033 85.6927 102.813 86.49ZM118.748 79.184C119.458 77.572 120.793 76.766 122.752 76.766V79.808C121.677 79.7387 120.741 79.9987 119.944 80.588C119.146 81.16 118.748 82.1133 118.748 83.448V90H115.94V77H118.748V79.184ZM36.532 106.562C37.3293 106.978 37.9533 107.55 38.404 108.278C38.8547 109.006 39.08 109.847 39.08 110.8C39.08 112.291 38.5513 113.53 37.494 114.518C36.4367 115.506 35.1453 116 33.62 116H25.82V97.8H33.048C34.5387 97.8 35.7953 98.2853 36.818 99.256C37.858 100.209 38.378 101.405 38.378 102.844C38.378 104.421 37.7627 105.661 36.532 106.562ZM33.048 100.608H28.81V105.392H33.048C33.7067 105.392 34.2613 105.167 34.712 104.716C35.1627 104.248 35.388 103.676 35.388 103C35.388 102.324 35.1627 101.761 34.712 101.31C34.2613 100.842 33.7067 100.608 33.048 100.608ZM33.62 113.192C34.3133 113.192 34.894 112.949 35.362 112.464C35.8473 111.961 36.09 111.355 36.09 110.644C36.09 109.933 35.8473 109.335 35.362 108.85C34.894 108.347 34.3133 108.096 33.62 108.096H28.81V113.192H33.62ZM41.5071 116V97.02H44.3151V116H41.5071ZM53.7115 116.338C51.8048 116.338 50.1842 115.679 48.8495 114.362C47.5148 113.045 46.8475 111.424 46.8475 109.5C46.8475 107.576 47.5148 105.955 48.8495 104.638C50.1842 103.321 51.8048 102.662 53.7115 102.662C55.6355 102.662 57.2562 103.321 58.5735 104.638C59.9082 105.955 60.5755 107.576 60.5755 109.5C60.5755 111.424 59.9082 113.045 58.5735 114.362C57.2562 115.679 55.6355 116.338 53.7115 116.338ZM50.8255 112.438C51.6055 113.218 52.5675 113.608 53.7115 113.608C54.8555 113.608 55.8175 113.218 56.5975 112.438C57.3775 111.658 57.7675 110.679 57.7675 109.5C57.7675 108.321 57.3775 107.342 56.5975 106.562C55.8175 105.782 54.8555 105.392 53.7115 105.392C52.5675 105.392 51.6055 105.782 50.8255 106.562C50.0455 107.342 49.6555 108.321 49.6555 109.5C49.6555 110.679 50.0455 111.658 50.8255 112.438ZM69.2506 116.338C67.2919 116.338 65.6539 115.679 64.3366 114.362C63.0366 113.045 62.3866 111.424 62.3866 109.5C62.3866 107.559 63.0366 105.938 64.3366 104.638C65.6539 103.321 67.2919 102.662 69.2506 102.662C70.5159 102.662 71.6686 102.965 72.7086 103.572C73.7486 104.179 74.5286 104.993 75.0486 106.016L72.6306 107.42C72.3359 106.796 71.8852 106.311 71.2786 105.964C70.6892 105.6 70.0046 105.418 69.2246 105.418C68.0806 105.418 67.1186 105.808 66.3386 106.588C65.5759 107.368 65.1946 108.339 65.1946 109.5C65.1946 110.661 65.5759 111.632 66.3386 112.412C67.1186 113.192 68.0806 113.582 69.2246 113.582C69.9872 113.582 70.6719 113.4 71.2786 113.036C71.9026 112.672 72.3706 112.187 72.6826 111.58L75.1006 112.958C74.5459 113.998 73.7486 114.821 72.7086 115.428C71.6686 116.035 70.5159 116.338 69.2506 116.338ZM88.6222 116H85.2682L79.9382 109.994V116H77.1302V97.8H79.9382V108.746L84.9822 103H88.4142L82.6942 109.37L88.6222 116ZM95.606 116.338C93.6474 116.338 92.0094 115.679 90.692 114.362C89.392 113.045 88.742 111.424 88.742 109.5C88.742 107.559 89.392 105.938 90.692 104.638C92.0094 103.321 93.6474 102.662 95.606 102.662C96.8714 102.662 98.024 102.965 99.064 103.572C100.104 104.179 100.884 104.993 101.404 106.016L98.986 107.42C98.6914 106.796 98.2407 106.311 97.634 105.964C97.0447 105.6 96.36 105.418 95.58 105.418C94.436 105.418 93.474 105.808 92.694 106.588C91.9314 107.368 91.55 108.339 91.55 109.5C91.55 110.661 91.9314 111.632 92.694 112.412C93.474 113.192 94.436 113.582 95.58 113.582C96.3427 113.582 97.0274 113.4 97.634 113.036C98.258 112.672 98.726 112.187 99.038 111.58L101.456 112.958C100.901 113.998 100.104 114.821 99.064 115.428C98.024 116.035 96.8714 116.338 95.606 116.338ZM110.324 102.662C111.814 102.662 113.019 103.139 113.938 104.092C114.856 105.045 115.316 106.354 115.316 108.018V116H112.508V108.304C112.508 107.333 112.248 106.588 111.728 106.068C111.208 105.548 110.497 105.288 109.596 105.288C108.608 105.288 107.81 105.6 107.204 106.224C106.597 106.831 106.294 107.767 106.294 109.032V116H103.486V97.8H106.294V104.664C107.143 103.329 108.486 102.662 110.324 102.662ZM128.635 103H131.443V116H128.635V114.128C127.578 115.601 126.061 116.338 124.085 116.338C122.3 116.338 120.775 115.679 119.509 114.362C118.244 113.027 117.611 111.407 117.611 109.5C117.611 107.576 118.244 105.955 119.509 104.638C120.775 103.321 122.3 102.662 124.085 102.662C126.061 102.662 127.578 103.39 128.635 104.846V103ZM121.589 112.49C122.369 113.27 123.349 113.66 124.527 113.66C125.706 113.66 126.685 113.27 127.465 112.49C128.245 111.693 128.635 110.696 128.635 109.5C128.635 108.304 128.245 107.316 127.465 106.536C126.685 105.739 125.706 105.34 124.527 105.34C123.349 105.34 122.369 105.739 121.589 106.536C120.809 107.316 120.419 108.304 120.419 109.5C120.419 110.696 120.809 111.693 121.589 112.49ZM137.368 100.53C137.021 100.877 136.605 101.05 136.12 101.05C135.635 101.05 135.21 100.877 134.846 100.53C134.499 100.166 134.326 99.7413 134.326 99.256C134.326 98.7707 134.499 98.3547 134.846 98.008C135.193 97.644 135.617 97.462 136.12 97.462C136.623 97.462 137.047 97.644 137.394 98.008C137.741 98.3547 137.914 98.7707 137.914 99.256C137.914 99.7413 137.732 100.166 137.368 100.53ZM134.716 116V103H137.524V116H134.716ZM147.622 102.662C149.113 102.662 150.318 103.139 151.236 104.092C152.155 105.045 152.614 106.354 152.614 108.018V116H149.806V108.304C149.806 107.333 149.546 106.588 149.026 106.068C148.506 105.548 147.796 105.288 146.894 105.288C145.906 105.288 145.109 105.6 144.502 106.224C143.896 106.831 143.592 107.767 143.592 109.032V116H140.784V103H143.592V104.664C144.442 103.329 145.785 102.662 147.622 102.662Z" fill="#3D3D50"/>
<defs>
<filter id="filter0_dd" x="0.387695" y="0" width="177.224" height="200" filterUnits="userSpaceOnUse" color-interpolation-filters="sRGB">
<feFlood flood-opacity="0" result="BackgroundImageFix"/>
<feColorMatrix in="SourceAlpha" type="matrix" values="0 0 0 0 0 0 0 0 0 0 0 0 0 0 0 0 0 0 127 0"/>
<feOffset dy="4"/>
<feGaussianBlur stdDeviation="7.5"/>
<feColorMatrix type="matrix" values="0 0 0 0 0.796078 0 0 0 0 0.823529 0 0 0 0 0.866667 0 0 0 1 0"/>
<feBlend mode="normal" in2="BackgroundImageFix" result="effect1_dropShadow"/>
<feColorMatrix in="SourceAlpha" type="matrix" values="0 0 0 0 0 0 0 0 0 0 0 0 0 0 0 0 0 0 127 0"/>
<feOffset dy="4"/>
<feGaussianBlur stdDeviation="2"/>
<feColorMatrix type="matrix" values="0 0 0 0 0 0 0 0 0 0 0 0 0 0 0 0 0 0 0.25 0"/>
<feBlend mode="normal" in2="effect1_dropShadow" result="effect2_dropShadow"/>
<feBlend mode="normal" in="SourceGraphic" in2="effect2_dropShadow" result="shape"/>
</filter>
</defs>
</svg>
