<svg width="178" height="200" viewBox="0 0 178 200" fill="none" xmlns="http://www.w3.org/2000/svg">
<g filter="url(#filter0_dd)">
<path d="M89 11L162.612 53.5V138.5L89 181L15.3878 138.5V53.5L89 11Z" fill="white"/>
</g>
<path d="M78.1361 111.05L80.111 104.77C80.2142 104.444 80.1553 104.088 79.9489 103.807C79.7426 103.526 79.4331 103.363 79.0793 103.363H49.631C49.0415 103.363 48.5551 103.837 48.5551 104.444C48.5551 105.036 49.0267 105.525 49.631 105.525H77.6202L76.3232 109.658H51.665C51.0754 109.658 50.5891 110.132 50.5891 110.739C50.5891 111.332 51.0607 111.821 51.665 111.821H75.6599L74.245 116.338H53.8316C53.2421 116.338 52.7557 116.812 52.7557 117.42C52.7557 118.027 53.2273 118.501 53.8316 118.501H73.567L72.3879 122.248H50.8986L42.9248 99.4818C42.8217 99.2003 42.6153 98.9782 42.35 98.8597L35.5996 95.8824C35.0542 95.6454 34.4352 95.8972 34.1847 96.4304C33.9488 96.9785 34.1994 97.6006 34.73 97.8524L41.053 100.637L48.6435 122.308C48.334 122.411 48.0834 122.648 47.9802 122.974L45.681 129.595C45.5631 129.921 45.622 130.292 45.8136 130.573C46.02 130.855 46.3443 131.032 46.6832 131.032H47.7887C47.0517 131.817 46.5948 132.884 46.5948 134.054C46.5948 136.498 48.5698 138.483 51.0017 138.483C53.4336 138.483 55.4087 136.498 55.4087 134.054C55.4087 132.884 54.9517 131.832 54.2148 131.032H65.3869C64.65 131.817 64.193 132.884 64.193 134.054C64.193 136.498 66.1681 138.483 68.6 138.483C71.0319 138.483 73.0069 136.498 73.0069 134.054C73.0069 132.884 72.55 131.832 71.8131 131.032H73.0069C73.5965 131.032 74.0829 130.558 74.0829 129.951C74.0829 129.344 73.6112 128.87 73.0069 128.87H48.1866L49.7342 124.411H50.1321H73.169C73.6407 124.411 74.0534 124.1 74.186 123.656L76.0431 117.76V117.746L78.1361 111.05ZM50.987 136.276C49.7342 136.276 48.7319 135.254 48.7319 134.01C48.7319 132.765 49.7489 131.743 50.987 131.743C52.2251 131.743 53.2421 132.765 53.2421 134.01C53.2421 135.254 52.2398 136.276 50.987 136.276ZM68.6 136.276C67.3472 136.276 66.3449 135.254 66.3449 134.01C66.3449 132.765 67.3619 131.743 68.6 131.743C69.8381 131.743 70.855 132.765 70.855 134.01C70.855 135.254 69.8528 136.276 68.6 136.276Z" fill="#160386"/>
<path d="M135.925 89.2773C135.925 89.2773 138.048 91.203 139.404 92.7286C145.83 100.016 149.78 106.371 150.148 112.577C151.121 128.975 130.03 137.492 98.636 130.234C94.9218 129.375 83.5875 125.553 78.0752 122.931C82.1137 126.738 90.9717 131.567 100.242 134.233C133.98 143.935 158.609 136.41 155.779 115.155C154.688 107.037 147.967 96.3725 135.925 89.2773Z" fill="#160386"/>
<path d="M25 74.8629C25 85.824 34.934 94.6671 45.6492 98.3405C45.8114 98.3998 45.9734 98.459 46.1356 98.5035C45.2807 96.9926 44.1311 94.9633 43.0699 93.097C34.035 85.7352 32.7379 80.299 32.7379 76.2404C32.7379 67.7825 40.3432 60.5985 55.5832 59.0876C63.0264 58.347 75.0386 60.2134 75.0386 60.2134C52.2228 52.0517 25 60.3467 25 74.8629Z" fill="#160386"/>
<path d="M53.7829 68.4047C54.4461 67.827 55.2125 67.4419 56.0821 66.9679C56.937 66.5828 57.895 66.1977 58.9415 65.9162C59.9879 65.6348 61.0491 65.4422 62.184 65.2497C63.3337 65.0571 64.3801 65.0571 65.5298 65.0571C66.9594 65.0571 68.3007 65.146 69.4503 65.3385C70.6 65.5311 71.558 65.8125 72.4128 66.1977C73.1793 66.5828 73.8425 67.0568 74.2257 67.5456C74.6089 68.1233 74.8005 68.701 74.8005 69.3675C74.8005 69.4564 74.8005 69.649 74.8005 69.7526C74.8005 69.9452 74.7121 70.1378 74.7121 70.2266C74.7121 70.4192 74.8005 70.7006 74.9921 70.8043C75.1837 70.9969 75.3753 71.0858 75.6554 71.0858C75.847 71.0858 76.0386 70.9969 76.127 70.8932C76.3186 70.8043 76.4071 70.6118 76.4071 70.4192C76.4955 70.0341 76.4955 69.7526 76.4955 69.3675C76.4955 68.2122 76.1123 67.1605 75.3459 66.3014C75.0659 65.9162 74.5794 65.5311 74.1078 65.2497C73.6362 64.8645 72.9582 64.5831 72.1033 64.2869C71.3369 64.0054 70.3789 63.8129 69.244 63.6203C68.1975 63.4277 66.8563 63.3389 65.4266 63.3389C64.277 63.3389 63.0389 63.4277 61.8008 63.5314C60.5627 63.724 59.4131 63.9166 58.2635 64.198C57.1138 64.4794 56.0674 64.8645 55.0209 65.3534C53.9745 65.8274 53.1049 66.405 52.3384 67.0864C51.572 67.753 50.9972 68.5232 50.5256 69.2935C50.0539 70.1526 49.8623 71.0265 49.8623 72.0782C49.8623 73.041 50.1423 73.9001 50.6287 74.6704C51.1004 75.4406 51.8668 76.0183 52.7364 76.596C53.6944 77.07 54.8441 77.5588 56.1706 77.8402C57.5118 78.1217 59.1331 78.4179 61.0492 78.5068L63.3484 78.6994C63.82 78.6994 64.3064 78.7882 64.6897 78.7882C65.1613 78.7882 65.6477 78.8771 66.1193 78.8771C66.591 78.966 66.9742 78.966 67.4606 79.0697C67.8438 79.1585 68.3154 79.2622 68.6986 79.3511C69.0818 79.44 69.3619 79.5437 69.6567 79.6325C69.9367 79.7214 70.1283 79.914 70.4231 80.0177C70.6147 80.2102 70.8063 80.4028 70.8947 80.5953C70.9831 80.7879 71.0863 81.0693 71.0863 81.3656C71.0863 81.9433 70.8947 82.4173 70.6147 82.9061C70.3347 83.3801 69.8483 83.7652 69.185 84.1503C68.5218 84.5355 67.7554 84.8169 66.7973 85.0094C65.8393 85.202 64.6896 85.2909 63.4516 85.2909C62.2135 85.2909 61.0639 85.202 60.1058 85.0094C59.1478 84.8169 58.293 84.6243 57.615 84.4318C56.9517 84.2392 56.4654 84.0466 56.1853 83.8541C55.9053 83.6615 55.7136 83.6615 55.7136 83.5726C55.4336 83.3801 54.9472 83.3801 54.6672 83.6615C54.4756 83.8541 54.3871 84.0466 54.3871 84.3281C54.3871 84.6095 54.5788 84.9058 54.7704 85.0983C54.7704 85.0983 54.8588 85.0983 55.4336 85.4834C55.8168 85.676 56.3916 85.8686 57.0549 86.15C57.8213 86.3426 58.6762 86.624 59.7374 86.8166C60.7838 87.0091 62.0366 87.098 63.4663 87.098C64.7044 87.098 65.9572 87.0091 67.0921 86.7129C68.2417 86.5203 69.1997 86.1352 70.0546 85.6612C70.9095 85.1872 71.5875 84.6095 72.1623 83.9281C72.6339 83.2616 72.9287 82.3876 72.9287 81.4397C72.9287 80.4768 72.6487 79.6177 71.9707 79.04C71.3958 78.4624 70.4378 77.9884 69.2882 77.6921C68.6249 77.4995 67.7554 77.4107 66.7973 77.307C65.8393 77.2181 64.7928 77.1144 63.6432 77.0256L61.3439 76.833C60.5775 76.7441 59.7226 76.6404 58.9562 76.5516C58.1898 76.4627 57.4234 76.2701 56.657 76.1664C55.9937 75.9739 55.2273 75.7813 54.6524 75.5887C54.0776 75.3962 53.5028 75.1147 53.1196 74.7296C52.7364 74.4482 52.3532 74.0631 52.0731 73.5743C51.7931 73.1891 51.69 72.6114 51.69 72.1374C51.69 71.3672 51.8815 70.7006 52.2648 70.123C52.6332 69.4564 53.2081 68.8787 53.7829 68.4047Z" fill="#160386"/>
<path d="M120.096 81.0688C119.904 81.0688 119.816 81.0688 119.713 81.1577C119.624 81.2465 119.433 81.3502 119.433 81.4391C119.241 81.7205 119.049 82.2094 118.769 82.5945C118.489 82.9796 118.195 83.4536 117.914 83.8387C117.634 84.2238 117.251 84.5053 116.956 84.8015C116.676 85.083 116.293 85.1867 115.91 85.1867C115.822 85.1867 115.718 85.1867 115.527 85.0978C115.438 85.0978 115.247 85.0089 115.144 84.9052C115.055 84.8163 114.952 84.6238 114.864 84.4312C114.775 84.2387 114.775 83.9572 114.775 83.661C114.775 83.4684 114.775 83.187 114.775 82.8907C114.775 82.6093 114.864 82.4167 114.864 82.1205C114.864 81.839 114.952 81.5428 114.952 81.3502C114.952 81.0688 114.952 80.8762 114.952 80.58C114.952 79.9134 114.76 79.4246 114.377 79.1432C113.994 78.8617 113.522 78.6692 112.844 78.6692C112.653 78.6692 112.564 78.6692 112.373 78.6692C112.284 78.6692 112.284 78.6692 112.181 78.6692C112.181 78.5803 112.181 78.3877 112.181 78.1952C112.181 77.9138 112.093 77.6175 111.989 77.3361C111.901 77.0546 111.798 76.8621 111.606 76.5658C111.415 76.3733 111.135 76.1807 110.84 76.1807C110.56 76.1807 110.265 76.2696 109.985 76.5658C109.793 76.7584 109.602 77.0398 109.41 77.3361C109.219 77.6175 109.13 77.9138 109.027 78.2989C108.939 78.5803 108.835 78.8766 108.835 79.0691C108.835 79.3506 108.924 79.6468 109.027 79.8394C109.115 80.0319 109.307 80.1208 109.499 80.2245C109.69 80.3134 109.882 80.3134 110.073 80.3134C110.162 80.3134 110.162 80.3134 110.265 80.3134C110.177 80.5948 110.177 80.7874 110.073 80.8911C110.073 80.9799 109.985 81.0836 109.985 81.1725C109.985 81.2614 109.897 81.2614 109.897 81.365C109.808 81.5576 109.705 81.7502 109.616 82.0316C109.528 82.313 109.336 82.5056 109.145 82.8019C108.953 83.0833 108.762 83.3795 108.57 83.661C108.378 83.9424 108.187 84.135 107.995 84.3275C107.804 84.5201 107.612 84.7127 107.332 84.8015C107.14 84.8904 106.949 84.9941 106.757 84.9941C106.477 84.9941 106.285 84.9052 106.094 84.7127C105.902 84.5201 105.814 84.2387 105.711 83.9424C105.622 83.661 105.519 83.2759 105.519 82.9796C105.519 82.5945 105.431 82.4019 105.431 82.2094C105.431 82.0168 105.342 81.8242 105.151 81.6317C104.959 81.4391 104.767 81.3502 104.576 81.3502C104.384 81.3502 104.193 81.4391 104.001 81.5428C103.809 81.6317 103.721 81.8242 103.721 82.1205C103.633 82.5945 103.529 83.0833 103.338 83.3647C103.146 83.7498 102.955 84.0313 102.763 84.2238C102.571 84.4164 102.38 84.609 102.188 84.6978C101.996 84.7867 101.805 84.8904 101.716 84.8904C101.525 84.8904 101.333 84.8904 101.245 84.8015C101.156 84.7127 101.053 84.609 100.965 84.5201C100.876 84.4312 100.876 84.2387 100.773 84.0461C100.773 83.8535 100.685 83.661 100.685 83.5721C100.685 82.9944 100.773 82.5204 100.965 82.1353C101.156 81.7502 101.348 81.365 101.628 81.0836C101.908 80.8022 102.203 80.6096 102.483 80.5059C103.058 80.3134 103.529 80.3134 103.824 80.4171C104.016 80.4171 104.104 80.5059 104.207 80.5059C104.296 80.5948 104.399 80.5948 104.399 80.5948C104.487 80.5948 104.487 80.6837 104.487 80.6837C104.767 80.9651 105.342 81.0688 105.725 80.6837C105.917 80.4911 106.005 80.2986 106.005 80.106C106.005 79.9134 105.917 79.7209 105.725 79.5283C105.725 79.5283 105.637 79.4394 105.534 79.3357C105.445 79.2469 105.254 79.1432 105.062 79.0543C104.871 78.9654 104.591 78.8617 104.296 78.7729C103.632 78.5803 102.674 78.5803 101.805 78.9654C101.23 79.158 100.758 79.5431 100.375 79.9282C99.992 80.2097 99.712 80.6985 99.5203 81.0836C99.4319 81.1725 99.2403 81.2762 99.2403 81.4687C99.1519 81.7502 98.9603 82.1353 98.6655 82.5204C98.4739 82.9944 98.1938 83.3795 97.8991 83.7647C97.619 84.1498 97.2358 84.5349 96.941 84.8163C96.661 85.0978 96.2778 85.2015 95.983 85.2015C95.5114 85.2015 95.1281 84.92 94.7449 84.2387C94.3617 83.5721 94.0817 82.6093 93.7869 81.4539C94.3617 80.4911 94.8334 79.4394 95.3198 78.3877C95.7914 77.3361 96.2778 76.1807 96.661 75.129C97.0442 74.0773 97.3242 72.922 97.5158 71.8703C97.7074 70.8186 97.7959 69.6632 97.7959 68.7004C97.7959 67.8413 97.7075 67.1599 97.6043 66.5822C97.5159 66.0046 97.3242 65.5306 97.1326 65.1454C96.941 64.7603 96.661 64.4789 96.3662 64.2863C96.0862 64.0938 95.703 64.0049 95.3198 64.0049C94.8481 64.0049 94.3617 64.1974 93.9785 64.5826C93.5953 64.9677 93.3153 65.4417 93.0205 66.0194C92.7404 66.5971 92.5488 67.3673 92.3572 68.1375C92.1656 68.9078 91.974 69.7669 91.8856 70.626C91.7972 71.4852 91.694 72.448 91.6055 73.3071C91.5171 74.1662 91.5171 75.129 91.5171 75.9881C91.5171 76.5658 91.5171 77.2324 91.6055 78.0026C91.6055 78.7729 91.694 79.5431 91.7971 80.4022C91.7971 80.6837 91.8856 80.9799 91.8856 81.2614C91.7972 81.3502 91.694 81.4539 91.694 81.5428C91.6055 81.8242 91.4139 82.2094 91.1192 82.5945C90.9276 83.0685 90.6475 83.4536 90.3527 83.8387C90.0727 84.2238 89.6895 84.609 89.3947 84.8904C89.1147 85.1718 88.7314 85.2755 88.4367 85.2755C87.965 85.2755 87.5818 84.9941 87.1986 84.3127C86.8154 83.6462 86.5354 82.6834 86.2406 81.528C86.8154 80.5652 87.287 79.5135 87.7734 78.4618C88.2451 77.4101 88.7315 76.2548 89.1147 75.2031C89.4979 74.1514 89.7779 72.996 89.9695 71.9443C90.1611 70.8927 90.2496 69.8262 90.2496 68.7745C90.2496 67.9154 90.1611 67.234 90.0579 66.6563C89.9695 66.0786 89.7779 65.6046 89.5863 65.2195C89.3947 64.8344 89.1147 64.5529 88.8199 64.3604C88.5398 64.1678 88.1566 64.0789 87.7734 64.0789C87.3018 64.0789 86.8154 64.2715 86.4322 64.6566C86.049 65.0418 85.7689 65.5158 85.4742 66.0934C85.1941 66.6711 85.0025 67.4414 84.8109 68.2116C84.6193 68.9819 84.4277 69.841 84.3393 70.7001C84.2508 71.5592 84.1476 72.522 84.0592 73.3811C83.9708 74.2403 83.9708 75.2031 83.9708 76.0622C83.9708 76.6399 83.9708 77.3064 84.0592 78.0767C84.0592 78.8469 84.1477 79.6172 84.2508 80.4763C84.2508 80.7577 84.3393 81.054 84.3393 81.3354C84.2508 81.4243 84.1477 81.4243 84.1477 81.528C83.9561 81.8094 83.8676 82.1057 83.676 82.3871C83.4844 82.5797 83.396 82.7722 83.1012 82.9648C82.9096 83.0537 82.718 83.2462 82.4379 83.2462C82.1579 83.3351 81.9663 83.3351 81.5831 83.3351C81.5831 83.0537 81.6715 82.8611 81.6715 82.5649C81.6715 81.8983 81.5831 81.4095 81.4799 80.9355C81.3915 80.4615 81.1999 80.0764 81.0083 79.7801C80.8167 79.4987 80.5366 79.2024 80.2419 79.1136C79.9618 78.921 79.667 78.921 79.2838 78.921C78.709 78.921 78.3258 79.1136 77.9426 79.5876C77.8541 79.6764 77.751 79.7801 77.751 79.9727C77.751 79.8838 77.6626 79.7801 77.5594 79.6912C77.4709 79.4987 77.1761 79.4987 76.9845 79.4987C76.7929 79.4987 76.5129 79.5876 76.1297 79.7801C75.8496 79.9727 75.4664 80.1652 75.1716 80.5504C74.8916 80.9355 74.5969 81.3206 74.3168 81.7946C74.0368 82.2686 73.9336 82.95 73.9336 83.6165C73.9336 84.1942 74.022 84.6682 74.2136 85.157C74.4052 85.631 74.5969 86.0161 74.9801 86.3124C75.2601 86.5938 75.6433 86.8901 76.1297 87.0826C76.5129 87.2752 76.9846 87.3641 77.5594 87.3641C78.031 87.3641 78.4142 87.2752 78.7974 87.1715C79.1806 87.0826 79.4607 86.8901 79.7555 86.6975C80.0355 86.505 80.3303 86.2235 80.5219 85.9273C80.7135 85.7347 80.9051 85.4533 80.9935 85.2607C81.1851 85.2607 81.2736 85.2607 81.4652 85.2607C81.9368 85.2607 82.4232 85.1718 82.8064 85.0682C83.1896 84.9793 83.5728 84.7867 83.956 84.4905C84.2361 84.2979 84.5309 84.0165 84.8109 83.7202C85.0025 84.1942 85.0909 84.683 85.3857 85.0682C85.6658 85.7347 86.049 86.2235 86.5354 86.6086C87.007 86.9938 87.5818 87.2752 88.2598 87.2752C88.7314 87.2752 89.1147 87.1863 89.4979 86.9938C89.8811 86.8012 90.2643 86.6086 90.5443 86.3272C90.8244 86.0458 91.1192 85.7495 91.3992 85.3644C91.6792 84.9793 91.8708 84.6978 92.1656 84.3127C92.254 84.2238 92.3572 84.0313 92.4457 83.9276C92.5341 84.3127 92.7257 84.7867 92.9173 85.1718C93.1973 85.8384 93.5806 86.3272 94.067 86.7123C94.5386 87.0975 95.1134 87.3789 95.7914 87.3789C96.263 87.3789 96.6462 87.29 97.0295 87.0975C97.4127 86.9049 97.7959 86.7123 98.0759 86.4309C98.356 86.1495 98.6508 85.8532 98.9308 85.4681L99.0192 85.3792C99.1076 85.6606 99.2992 86.0458 99.4908 86.2383C99.6824 86.5198 100.066 86.7123 100.346 86.9049C100.729 87.0975 101.112 87.0975 101.495 87.0975C102.07 87.0975 102.542 86.9049 103.117 86.5198C103.5 86.2383 103.78 85.9421 104.075 85.557C104.266 85.9421 104.546 86.2235 104.841 86.5198C105.313 86.9049 105.888 87.1863 106.462 87.1863C106.934 87.1863 107.317 87.0975 107.804 86.9049C108.187 86.7123 108.57 86.4309 108.953 86.1346C109.233 85.8532 109.616 85.4681 109.911 85.083C110.191 84.6978 110.383 84.3127 110.575 84.0313C110.766 83.7498 110.958 83.3647 111.046 83.1722C111.135 82.8907 111.238 82.787 111.238 82.6982C111.238 82.6982 111.326 82.6093 111.326 82.5056C111.326 82.4167 111.415 82.2242 111.518 82.0316C111.606 81.839 111.606 81.6465 111.709 81.365C111.709 81.1725 111.798 80.9799 111.798 80.7874C111.886 80.7874 111.989 80.7874 112.078 80.7874H112.55C112.83 80.7874 112.933 80.8762 112.933 80.7874C112.933 80.7874 113.021 80.8762 113.021 80.9799C113.021 81.4539 112.933 81.839 112.83 82.3279C112.741 82.8019 112.638 83.3795 112.638 83.8683C112.638 84.3423 112.726 84.8312 112.83 85.2163C113.021 85.6014 113.213 85.9865 113.493 86.268C113.773 86.5494 114.068 86.742 114.451 86.9345C114.834 87.1271 115.217 87.1271 115.6 87.1271C116.264 87.1271 116.839 86.9345 117.325 86.6531C117.797 86.3716 118.283 85.8828 118.666 85.4088C119.049 84.9348 119.433 84.446 119.713 83.8683C119.993 83.3944 120.287 82.9055 120.567 82.4315C120.656 82.3427 120.656 82.1501 120.656 82.0464C120.656 81.8539 120.567 81.6613 120.464 81.4687C120.582 81.2614 120.391 81.0688 120.096 81.0688ZM94.966 66.0934C95.0544 65.9009 95.2461 65.812 95.3492 65.812C95.5408 65.812 95.7324 66.0934 95.8209 66.3897C96.0125 66.8637 96.1009 67.7376 96.1009 68.8782C96.1009 69.7373 96.0125 70.6112 95.8209 71.4703C95.6293 72.4332 95.4377 73.2923 95.1576 74.2551C94.8776 75.2179 94.4944 76.077 94.1996 77.0398C94.008 77.6175 93.728 78.1952 93.4332 78.6692C93.4332 78.4766 93.4332 78.2841 93.4332 78.0026C93.4332 77.4249 93.4332 76.7584 93.4332 76.1807C93.4332 75.3216 93.4332 74.4476 93.5216 73.6922C93.61 72.8331 93.61 72.0628 93.7132 71.2037C93.8016 70.4335 93.9048 69.6632 94.0964 68.9967C94.1849 68.3301 94.3765 67.7524 94.5681 67.2636C94.5828 66.6711 94.7744 66.286 94.966 66.0934ZM87.4197 66.0934C87.5081 65.9009 87.6997 65.812 87.8029 65.812C87.9945 65.812 88.1861 66.0934 88.2746 66.3897C88.4662 66.8637 88.5546 67.7376 88.5546 68.8782C88.5546 69.7373 88.4662 70.6112 88.2746 71.4703C88.083 72.4332 87.8913 73.2923 87.6113 74.2551C87.3313 75.2179 86.9481 76.077 86.6533 77.0398C86.4617 77.6175 86.1816 78.1952 85.8869 78.6692C85.8869 78.4766 85.8869 78.2841 85.8869 78.0026C85.8869 77.4249 85.8869 76.7584 85.8869 76.1807C85.8869 75.3216 85.8868 74.4476 85.9753 73.6922C86.0637 72.8331 86.0637 72.0628 86.1669 71.2037C86.2553 70.4335 86.3585 69.6632 86.5501 68.9967C86.6385 68.3301 86.8301 67.7524 87.0217 67.2636C87.0365 66.6711 87.2281 66.286 87.4197 66.0934ZM79.6818 82.0316C79.5933 81.839 79.4902 81.6465 79.4902 81.4539C79.4902 81.2614 79.4017 81.0688 79.4017 80.8762C79.4017 80.5948 79.4902 80.4911 79.4902 80.4911L79.5786 80.4022C79.5786 80.4022 79.667 80.4022 79.667 80.4911C79.7554 80.58 79.8586 80.7726 79.8586 80.9651C79.9471 81.1577 79.9471 81.4391 80.0502 81.7354C80.0502 82.0168 80.1387 82.313 80.1387 82.5056L80.0502 82.4167C79.8734 82.4019 79.7702 82.2094 79.6818 82.0316ZM78.3405 83.0833C78.7237 83.661 79.1069 84.0461 79.6818 84.3275C79.4902 84.609 79.2986 84.8015 79.0185 84.9941C78.7385 85.1867 78.2521 85.3792 77.7805 85.3792C77.5004 85.3792 77.2056 85.2903 77.014 85.1867C76.8224 85.0978 76.6308 84.9941 76.4392 84.8015C76.2476 84.609 76.1592 84.4164 76.056 84.135C75.9675 83.8535 75.9676 83.5573 75.9676 83.2759C75.9676 82.8907 75.9675 82.6093 76.056 82.313C76.1444 82.0316 76.2476 81.839 76.4392 81.6465C76.5276 81.4539 76.7192 81.2614 76.9108 81.1725C77.1025 81.0836 77.1909 80.9799 77.3825 80.8911C77.5741 80.8022 77.6626 80.6985 77.8542 80.6096C77.8542 80.6985 77.8542 80.8022 77.8542 80.9947C77.6773 81.839 77.8689 82.5056 78.3405 83.0833Z" fill="#160386"/>
<path d="M110.064 98.4477C109.975 98.1663 109.872 97.7811 109.784 97.396C109.695 97.0109 109.503 96.6258 109.312 96.1518C109.032 95.6778 108.737 95.1001 108.265 94.5224C107.794 93.9447 107.219 93.4707 106.541 92.9819C105.863 92.4931 105.008 92.1228 104.05 91.8265C103.092 91.5451 101.942 91.3525 100.616 91.3525C99.2747 91.3525 97.845 91.5451 96.6069 91.9302C95.2657 92.3153 94.0276 92.893 92.878 93.5596C91.7284 94.2262 90.5787 95.1001 89.6354 96.0481C88.6774 97.0109 87.8225 98.0626 87.0561 99.2179C86.2897 100.373 85.7149 101.618 85.3317 102.862C84.9485 104.106 84.7568 105.454 84.7568 106.802C84.7568 108.046 84.9485 109.202 85.3317 110.164C85.7149 111.127 86.1865 111.986 86.8645 112.653C87.5278 113.319 88.2942 113.808 89.2522 114.193C90.2102 114.578 91.1683 114.667 92.3032 114.667C93.5413 114.667 94.794 114.475 96.0321 114.09C97.2702 113.704 98.523 113.127 99.6579 112.46C100.808 111.69 101.957 110.831 103.004 109.676C103.858 108.816 104.625 107.75 105.391 106.698C105.391 107.365 105.48 107.942 105.48 108.624C105.568 109.587 105.671 110.446 105.76 111.409C105.288 111.601 104.905 111.883 104.33 112.268C103.755 112.653 103.18 113.127 102.606 113.616C102.031 114.09 101.456 114.667 100.881 115.349C100.306 115.926 99.8347 116.593 99.3484 117.363C98.8767 118.03 98.5819 118.8 98.3019 119.57C98.0219 120.34 97.9187 121.111 97.9187 121.866C97.9187 122.444 98.0071 123.022 98.1987 123.496C98.3904 123.97 98.6704 124.355 99.0536 124.74C99.4368 125.125 99.82 125.406 100.292 125.599C100.763 125.791 101.25 125.88 101.824 125.88C102.974 125.88 103.932 125.599 104.684 125.021C105.45 124.443 106.025 123.673 106.497 122.725C106.968 121.762 107.263 120.711 107.455 119.467C107.646 118.222 107.735 116.978 107.735 115.63C107.735 115.052 107.735 114.475 107.735 113.897C107.735 113.423 107.646 112.934 107.646 112.46C108.118 112.268 108.501 112.075 108.693 111.986C109.076 111.897 109.164 111.794 109.164 111.794C109.356 111.705 109.445 111.601 109.548 111.512C109.636 111.32 109.739 111.231 109.739 111.038C109.739 110.757 109.651 110.564 109.459 110.372C109.268 110.179 109.076 110.179 108.884 110.179C108.796 110.179 108.693 110.179 108.501 110.268C108.413 110.268 108.221 110.357 107.926 110.461C107.735 110.549 107.543 110.653 107.263 110.742C107.175 109.883 107.072 108.92 106.983 108.15C106.895 107.187 106.895 106.328 106.895 105.558C106.895 105.084 106.895 104.595 106.895 104.121C107.278 103.454 107.47 102.877 107.661 102.388C107.853 101.81 107.941 101.425 107.941 101.04C107.941 100.655 107.853 100.373 107.661 100.077C107.47 99.7956 107.189 99.6919 106.895 99.6919C106.32 99.6919 105.937 100.077 105.657 100.847C105.465 101.514 105.273 102.477 105.185 103.632C104.522 104.876 103.652 106.121 102.797 107.276C101.942 108.431 100.881 109.483 99.8347 110.342C98.7883 111.201 97.5355 111.883 96.2974 112.357C95.0593 112.831 93.6149 113.127 92.1853 113.127C91.3304 113.127 90.564 113.038 89.886 112.742C89.2227 112.549 88.5447 112.164 88.0731 111.69C87.6014 111.216 87.1151 110.535 86.835 109.764C86.555 108.994 86.3634 108.031 86.3634 106.98C86.3634 105.735 86.555 104.58 86.9382 103.425C87.3214 102.269 87.8962 101.129 88.5595 100.166C89.2227 99.1143 89.9891 98.1514 90.9472 97.3812C91.9052 96.5221 92.8632 95.7518 93.9097 95.1741C94.9562 94.5965 96.1058 94.1225 97.2554 93.7373C98.4051 93.3522 99.5547 93.2633 100.69 93.2633C101.928 93.2633 103.077 93.4559 103.932 93.7373C104.787 94.0188 105.553 94.4039 106.128 94.8927C106.703 95.3667 107.175 95.8555 107.47 96.4332C107.75 97.0109 108.044 97.4849 108.236 97.9737C108.428 98.4477 108.516 98.8328 108.516 99.2179C108.516 99.6031 108.604 99.7956 108.604 99.7956C108.604 99.9882 108.693 100.181 108.884 100.373C109.076 100.566 109.268 100.566 109.459 100.566C109.739 100.566 109.931 100.477 110.034 100.284C110.226 100.092 110.226 99.8993 110.226 99.7067C110.226 99.7067 110.226 99.6179 110.226 99.4253C110.152 99.0254 110.152 98.7439 110.064 98.4477ZM103.18 115.438C103.652 114.964 104.227 114.578 104.713 114.193C105.097 113.912 105.48 113.616 105.863 113.423C105.863 113.704 105.863 114.001 105.951 114.282C105.951 114.756 105.951 115.141 105.951 115.63C105.951 118.504 105.568 120.622 104.802 122.059C104.035 123.496 103.077 124.177 101.751 124.177C101.471 124.177 101.176 124.088 100.896 123.984C100.616 123.895 100.424 123.703 100.233 123.51C100.041 123.318 99.8495 123.125 99.761 122.844C99.6726 122.562 99.5694 122.266 99.5694 121.881C99.5694 121.303 99.6579 120.726 99.8495 120.148C100.041 119.57 100.321 118.993 100.616 118.415C100.896 117.837 101.382 117.259 101.766 116.785C102.222 116.4 102.709 115.912 103.18 115.438Z" fill="#160386"/>
<path d="M112.168 103.824C112.64 103.824 113.023 103.631 113.318 103.35C113.598 103.069 113.79 102.58 113.79 102.195C113.79 102.002 113.79 101.721 113.701 101.528C113.613 101.336 113.51 101.143 113.318 100.95C113.126 100.758 113.038 100.669 112.743 100.565C112.36 100.373 111.888 100.373 111.402 100.565C111.21 100.654 111.019 100.758 110.827 100.95C110.636 101.143 110.547 101.232 110.444 101.528C110.355 101.721 110.355 101.913 110.355 102.195C110.355 102.669 110.547 103.054 110.827 103.35C111.299 103.631 111.785 103.824 112.168 103.824ZM112.36 102.284C112.272 102.372 112.168 102.372 112.08 102.284C112.08 102.284 111.991 102.195 111.991 102.091C111.991 102.002 111.991 102.002 112.08 101.898C112.08 101.898 112.168 101.81 112.272 101.81C112.375 101.81 112.36 101.81 112.463 101.898C112.552 101.987 112.552 101.987 112.552 102.091C112.448 102.195 112.448 102.284 112.36 102.284Z" fill="#160386"/>
<path d="M140.645 109.008C140.454 108.816 140.262 108.727 139.982 108.727C139.791 108.727 139.51 108.816 139.319 109.201C139.127 109.675 138.847 110.164 138.552 110.741C138.272 111.215 137.889 111.704 137.594 112.089C137.211 112.475 136.828 112.756 136.356 113.052C136.076 113.245 135.782 113.334 135.398 113.334C135.487 113.141 135.678 112.949 135.678 112.756C135.87 112.371 135.958 111.897 135.958 111.408C135.958 111.023 135.87 110.741 135.767 110.356C135.678 110.075 135.487 109.69 135.295 109.305C135.104 108.92 134.912 108.534 134.72 108.06C134.529 107.675 134.249 107.201 134.057 106.624C134.057 106.431 134.146 106.238 134.146 106.15C134.146 105.957 134.234 105.764 134.234 105.572C134.234 105.187 134.146 104.905 133.954 104.713C133.762 104.431 133.482 104.239 133.187 104.239C132.804 104.239 132.524 104.431 132.333 104.713C132.141 104.994 132.053 105.29 132.053 105.676C132.053 105.868 132.053 106.061 132.141 106.253C132.141 106.446 132.229 106.638 132.229 106.831C132.141 107.216 132.038 107.601 131.949 107.883C131.861 108.164 131.758 108.46 131.566 108.845C131.478 108.934 131.375 109.038 131.286 109.231C131.198 109.512 131.006 109.808 130.815 110.193C130.623 110.579 130.343 110.964 130.048 111.438C129.768 111.823 129.473 112.208 129.09 112.489C128.515 112.963 128.044 112.963 127.557 112.682C127.366 112.489 127.086 112.297 126.894 112.015C126.702 111.734 126.511 111.438 126.319 111.053C126.128 110.667 126.039 110.386 125.936 109.897C126.128 109.705 126.216 109.423 126.408 109.038C126.599 108.653 126.791 108.075 127.071 107.601C127.262 107.024 127.454 106.446 127.646 105.779C127.837 105.113 128.029 104.431 128.22 103.765C128.412 103.098 128.5 102.328 128.604 101.647C128.692 100.98 128.692 100.402 128.692 99.721H136.047C136.238 99.721 136.518 99.6321 136.622 99.5285C136.813 99.3359 136.902 99.1433 136.902 98.9508C136.902 98.6693 136.813 98.4768 136.622 98.3731C136.43 98.2842 136.238 98.1805 136.047 98.1805H128.589C128.589 97.8991 128.501 97.6028 128.397 97.4103C128.309 97.1288 128.206 96.8326 128.014 96.5512C127.823 96.2697 127.631 96.0772 127.439 95.9735C126.968 95.692 126.29 95.692 125.715 95.9735C125.435 96.0624 125.243 96.3586 125.052 96.5512C124.86 96.7437 124.668 97.0252 124.58 97.4103C124.492 97.6917 124.388 97.988 124.3 98.2694H122.87C122.87 97.6917 122.959 97.114 122.959 96.5364C122.959 95.9587 122.959 95.381 122.87 94.8033C122.782 94.2256 122.679 93.7516 122.487 93.3665C122.295 92.8925 122.015 92.5962 121.721 92.3148C121.337 92.0334 120.954 91.9297 120.483 91.9297C119.819 91.9297 119.333 92.2111 118.95 92.7888C118.566 93.2628 118.286 94.033 118.095 94.9959C117.903 95.9587 117.712 97.114 117.623 98.4472C117.535 99.7951 117.432 101.424 117.432 103.143C117.432 104.002 117.432 105.068 117.432 106.016V109.082C117.432 109.171 117.432 109.275 117.432 109.275C117.152 109.853 116.857 110.43 116.474 110.904C116.194 111.378 115.81 111.867 115.516 112.149C115.236 112.534 114.941 112.726 114.661 112.919C114.381 113.111 114.189 113.2 113.997 113.2C113.909 113.2 113.717 113.2 113.526 113.111C113.437 113.111 113.246 113.023 113.143 112.83C113.054 112.637 112.863 112.445 112.759 112.163C112.671 111.882 112.568 111.497 112.568 110.919C112.568 110.534 112.568 110.06 112.568 109.675C112.568 109.201 112.656 108.816 112.656 108.327L112.745 107.275C112.745 106.89 112.745 106.801 112.745 106.698C112.745 106.505 112.656 106.313 112.553 106.12C112.361 105.927 112.17 105.839 111.978 105.839C111.698 105.839 111.507 105.927 111.315 106.12C111.123 106.313 111.035 106.401 111.035 106.698C110.843 108.134 110.755 109.571 110.755 111.112C110.755 111.689 110.843 112.163 110.946 112.652C111.035 113.126 111.227 113.511 111.521 113.897C111.801 114.282 112.096 114.563 112.479 114.756C112.863 114.948 113.334 115.037 113.821 115.037C114.204 115.037 114.587 114.948 114.97 114.756C115.353 114.563 115.633 114.371 116.017 114.089C116.297 113.808 116.68 113.511 116.975 113.126C117.063 112.934 117.166 112.845 117.255 112.652V115.141C117.255 116.104 117.255 116.963 117.255 117.822V120.029C117.255 121.273 117.255 122.517 117.255 123.584C117.255 124.636 117.343 125.598 117.535 126.457C117.726 127.317 117.918 127.998 118.301 128.472C118.684 128.946 119.259 129.242 119.922 129.242C120.394 129.242 120.777 129.153 121.161 128.857C121.544 128.576 121.824 128.279 122.015 127.805C122.207 127.331 122.399 126.843 122.59 126.265C122.679 125.687 122.782 125.021 122.782 124.443C122.782 123.776 122.693 123.006 122.59 122.236C122.502 121.466 122.207 120.695 122.015 119.94C121.735 119.17 121.441 118.399 120.969 117.733C120.586 117.155 120.203 116.578 119.819 116.104C120.483 115.718 121.161 115.333 121.735 114.948C122.399 114.474 122.973 113.985 123.46 113.408C123.931 112.934 124.315 112.445 124.609 111.971C124.609 112.06 124.609 112.06 124.698 112.163C125.081 113.023 125.553 113.704 126.231 114.178C126.806 114.652 127.572 114.948 128.338 114.948C128.81 114.948 129.193 114.859 129.576 114.563C129.96 114.371 130.343 114.089 130.623 113.793C130.711 113.704 130.815 113.6 130.903 113.408C130.903 113.497 130.991 113.6 130.991 113.689C131.375 114.267 131.949 114.741 132.524 114.933C133.099 115.215 133.762 115.319 134.529 115.319C135.104 115.319 135.678 115.23 136.15 115.037C136.622 114.845 137.108 114.652 137.491 114.371C137.874 114.089 138.258 113.793 138.641 113.408C138.921 113.023 139.304 112.637 139.496 112.252C139.776 111.867 139.967 111.482 140.159 111.097C140.351 110.712 140.439 110.43 140.631 110.134C140.631 110.045 140.719 109.942 140.719 109.749C140.925 109.394 140.822 109.201 140.645 109.008ZM126.599 97.4843C126.688 97.3955 126.688 97.3955 126.791 97.2918C126.791 97.2918 126.791 97.3807 126.879 97.3807C126.968 97.5732 126.968 97.7658 127.071 97.9583H126.408C126.408 97.7806 126.496 97.588 126.599 97.4843ZM120.188 93.6479C120.276 93.4554 120.468 93.4554 120.468 93.4554C120.556 93.4554 120.659 93.4554 120.748 93.5442C120.836 93.6331 120.939 93.8257 121.028 94.1219C121.116 94.4034 121.22 94.6996 121.22 95.0847C121.22 95.4699 121.308 95.855 121.308 96.329C121.308 96.9067 121.308 97.4843 121.22 98.062H119.303C119.303 97.8695 119.303 97.6769 119.303 97.4843C119.392 96.9067 119.392 96.329 119.495 95.855C119.583 95.381 119.687 94.8922 119.775 94.507C119.996 94.1367 120.099 93.8405 120.188 93.6479ZM121.043 99.6914C120.954 100.462 120.763 101.232 120.571 101.898C120.291 102.758 119.996 103.72 119.716 104.579C119.525 105.053 119.333 105.439 119.141 105.927C119.141 105.646 119.141 105.35 119.141 105.068C119.141 104.787 119.141 104.491 119.141 104.105C119.141 103.824 119.141 103.439 119.141 103.054C119.141 102.861 119.141 102.58 119.141 102.195C119.141 101.81 119.141 101.336 119.141 100.847C119.141 100.462 119.141 100.18 119.141 99.7951H121.057V99.6914H121.043ZM119.038 114.282C119.038 114.089 119.038 113.808 119.038 113.615C119.038 113.141 119.038 112.756 119.038 112.267V109.586C119.613 108.623 120.085 107.572 120.571 106.609C121.043 105.557 121.529 104.491 121.809 103.439C122.192 102.387 122.472 101.232 122.664 100.077C122.664 99.9876 122.664 99.884 122.664 99.7951H123.902C123.814 100.18 123.814 100.565 123.71 101.039C123.622 101.617 123.622 102.091 123.622 102.58C123.622 103.069 123.534 103.543 123.534 104.017C123.534 104.491 123.534 104.876 123.534 105.172C123.534 106.52 123.622 107.764 123.814 108.92C123.814 109.112 123.902 109.305 123.902 109.497C123.71 109.882 123.519 110.267 123.239 110.653C122.959 111.127 122.472 111.615 122.089 112.089C121.617 112.563 121.131 113.052 120.468 113.437C120.188 113.704 119.613 114 119.038 114.282ZM120.571 127.05C120.483 127.243 120.291 127.331 120.099 127.331C120.011 127.331 119.819 127.331 119.628 126.857C119.436 126.472 119.348 125.895 119.244 125.124C119.156 124.354 119.156 123.584 119.156 122.725C119.156 121.762 119.156 120.903 119.156 119.94C119.156 119.466 119.156 118.977 119.156 118.399C119.156 118.118 119.156 117.733 119.156 117.437C119.348 117.718 119.628 118.103 119.819 118.399C120.099 118.977 120.394 119.644 120.674 120.221C120.866 120.888 121.057 121.569 121.146 122.147C121.234 122.814 121.337 123.391 121.337 124.073C121.337 124.265 121.337 124.65 121.249 125.035C121.249 125.421 121.161 125.806 121.057 126.087C120.866 126.472 120.763 126.754 120.571 127.05ZM125.346 105.068C125.346 103.72 125.346 102.669 125.435 101.706C125.523 100.936 125.626 100.269 125.715 99.6914H126.953C126.953 100.269 126.865 100.847 126.865 101.424C126.776 102.195 126.673 102.965 126.481 103.72C126.29 104.491 126.098 105.261 125.818 106.016C125.73 106.401 125.538 106.787 125.435 107.172C125.435 107.083 125.435 106.979 125.435 106.89C125.346 106.416 125.346 105.839 125.346 105.068ZM132.229 111.304C132.421 110.919 132.613 110.638 132.701 110.445C132.701 110.356 132.79 110.253 132.79 110.164C132.878 110.075 132.981 109.971 133.07 109.779C133.158 109.586 133.261 109.394 133.35 109.201C133.35 109.29 133.438 109.394 133.438 109.394C133.63 109.675 133.718 109.868 133.821 110.164C133.91 110.356 134.013 110.638 134.101 110.83C134.19 111.023 134.19 111.304 134.19 111.497C134.19 111.586 134.19 111.689 134.101 111.882C134.101 111.971 134.013 112.163 133.91 112.267C133.821 112.356 133.718 112.46 133.63 112.549C133.541 112.637 133.35 112.637 133.158 112.637C133.07 112.637 132.966 112.637 132.878 112.637C132.79 112.637 132.686 112.549 132.686 112.549C132.598 112.46 132.495 112.46 132.495 112.46C132.303 112.267 132.023 112.178 131.728 112.267C131.949 111.793 132.141 111.601 132.229 111.304Z" fill="#160386"/>
<defs>
<filter id="filter0_dd" x="0.387695" y="0" width="177.224" height="200" filterUnits="userSpaceOnUse" color-interpolation-filters="sRGB">
<feFlood flood-opacity="0" result="BackgroundImageFix"/>
<feColorMatrix in="SourceAlpha" type="matrix" values="0 0 0 0 0 0 0 0 0 0 0 0 0 0 0 0 0 0 127 0"/>
<feOffset dy="4"/>
<feGaussianBlur stdDeviation="7.5"/>
<feColorMatrix type="matrix" values="0 0 0 0 0.796078 0 0 0 0 0.823529 0 0 0 0 0.866667 0 0 0 1 0"/>
<feBlend mode="normal" in2="BackgroundImageFix" result="effect1_dropShadow"/>
<feColorMatrix in="SourceAlpha" type="matrix" values="0 0 0 0 0 0 0 0 0 0 0 0 0 0 0 0 0 0 127 0"/>
<feOffset dy="4"/>
<feGaussianBlur stdDeviation="2"/>
<feColorMatrix type="matrix" values="0 0 0 0 0 0 0 0 0 0 0 0 0 0 0 0 0 0 0.25 0"/>
<feBlend mode="normal" in2="effect1_dropShadow" result="effect2_dropShadow"/>
<feBlend mode="normal" in="SourceGraphic" in2="effect2_dropShadow" result="shape"/>
</filter>
</defs>
</svg>
