<svg width="178" height="200" viewBox="0 0 178 200" fill="none" xmlns="http://www.w3.org/2000/svg">
<g filter="url(#filter0_dd)">
<path d="M89.1533 11L162.765 53.5V138.5L89.1533 181L15.5412 138.5V53.5L89.1533 11Z" fill="white"/>
</g>
<path d="M71.8735 61.998C72.584 62.3011 73.1181 62.7036 73.4758 63.2054C73.8386 63.7072 74.0199 64.301 74.0199 64.9867C74.0199 65.9903 73.6994 66.8002 73.0585 67.4163C72.4225 68.0275 71.5778 68.333 70.5245 68.333C69.6649 68.333 68.9444 68.1144 68.3631 67.6772C67.7818 67.235 67.3893 66.6089 67.1855 65.799L68.3631 65.2177C68.5221 65.8785 68.783 66.3804 69.1457 66.7232C69.5134 67.0611 69.973 67.23 70.5245 67.23C71.1754 67.23 71.702 67.0437 72.1045 66.671C72.507 66.2934 72.7082 65.804 72.7082 65.2028C72.7082 64.7159 72.5666 64.2935 72.2834 63.9358C72.0051 63.5731 71.5828 63.2675 71.0164 63.0191L69.6897 62.4526C68.9643 62.1496 68.4227 61.7595 68.065 61.2825C67.7122 60.8055 67.5358 60.2342 67.5358 59.5684C67.5358 58.7932 67.824 58.1523 68.4004 57.6455C68.9767 57.1387 69.7121 56.8853 70.6065 56.8853C71.2623 56.8853 71.8287 57.0244 72.3057 57.3027C72.7877 57.5809 73.1628 57.9908 73.4311 58.5324L72.3579 59.2181C72.1144 58.7957 71.8412 58.4827 71.5381 58.279C71.235 58.0703 70.8922 57.966 70.5096 57.966C70.0226 57.966 69.6227 58.115 69.3096 58.4131C69.0016 58.7113 68.8476 59.0914 68.8476 59.5534C68.8476 59.941 68.9668 60.2764 69.2053 60.5596C69.4438 60.8428 69.814 61.0937 70.3158 61.3123L71.8735 61.998Z" fill="#3D3D50"/>
<path d="M75.7117 57.1461H77.0235V63.9358C77.0235 65.0388 77.257 65.8487 77.724 66.3655C78.1961 66.8822 78.9339 67.1406 79.9376 67.1406C80.9412 67.1406 81.6766 66.8822 82.1436 66.3655C82.6157 65.8487 82.8517 65.0388 82.8517 63.9358V57.1461H84.1709V63.9358C84.1709 65.4115 83.8181 66.517 83.1125 67.2524C82.412 67.9827 81.3536 68.3479 79.9376 68.3479C78.5265 68.3479 77.4682 67.9827 76.7626 67.2524C76.062 66.517 75.7117 65.4115 75.7117 63.9358V57.1461Z" fill="#3D3D50"/>
<path d="M86.757 68.0573V56.7139L94.7392 65.4338V57.1461H95.9763V68.4821L87.9942 59.859V68.0573H86.757Z" fill="#3D3D50"/>
<path d="M67.901 85.8649V74.5215L75.8832 83.2415V74.9538H77.1203V86.2897L69.1382 77.6666V85.8649H67.901Z" fill="#3D3D50"/>
<path d="M82.1362 85.8649V80.8714L78.4395 74.9538H79.9376L82.7921 79.6864L85.6316 74.9538H87.1222L83.433 80.8714V85.8649H82.1362Z" fill="#3D3D50"/>
<path d="M67.901 103.673V92.7614H70.1742C70.9741 92.7614 71.5629 92.8036 71.9405 92.8881C72.3231 92.9676 72.6511 93.1067 72.9243 93.3054C73.2721 93.5638 73.5404 93.8967 73.7292 94.3041C73.923 94.7066 74.0199 95.1488 74.0199 95.6308C74.0199 96.2071 73.8808 96.6891 73.6025 97.0766C73.3293 97.4642 72.9293 97.735 72.4026 97.889C73.0485 97.9884 73.5578 98.279 73.9305 98.761C74.3081 99.238 74.4969 99.8417 74.4969 100.572C74.4969 101.009 74.4174 101.427 74.2584 101.824C74.0994 102.222 73.8783 102.562 73.5951 102.845C73.287 103.148 72.9069 103.362 72.4548 103.486C72.0026 103.61 71.2424 103.673 70.1742 103.673H67.901ZM69.168 98.5598V102.54H70.1742C70.8648 102.54 71.3617 102.512 71.6648 102.458C71.9728 102.403 72.2188 102.309 72.4026 102.174C72.6262 102.015 72.8026 101.794 72.9318 101.511C73.061 101.228 73.1256 100.915 73.1256 100.572C73.1256 100.175 73.0485 99.8293 72.8945 99.5361C72.7405 99.243 72.5169 99.0144 72.2238 98.8504C72.0498 98.7461 71.8486 98.6716 71.6201 98.6269C71.3915 98.5821 71.0362 98.5598 70.5543 98.5598H69.168ZM69.168 93.8868V97.5387H70.1742C71.0984 97.5387 71.7492 97.4046 72.1269 97.1363C72.5045 96.868 72.6933 96.4158 72.6933 95.7798C72.6933 95.0792 72.5169 94.5898 72.1641 94.3116C71.8163 94.0284 71.153 93.8868 70.1742 93.8868H69.168Z" fill="#3D3D50"/>
<path d="M81.8157 102.741C82.412 102.741 82.9784 102.629 83.515 102.406C84.0566 102.177 84.5435 101.847 84.9758 101.414C85.4031 100.987 85.7285 100.503 85.9521 99.9609C86.1757 99.4193 86.2875 98.8455 86.2875 98.2393C86.2875 97.6282 86.1732 97.0468 85.9447 96.4953C85.7211 95.9438 85.3981 95.4569 84.9758 95.0345C84.5485 94.6072 84.064 94.2818 83.5224 94.0582C82.9858 93.8346 82.4169 93.7228 81.8157 93.7228C81.2095 93.7228 80.6357 93.8346 80.0941 94.0582C79.5525 94.2818 79.073 94.6072 78.6557 95.0345C78.2284 95.4668 77.9029 95.9562 77.6793 96.5028C77.4557 97.0493 77.3439 97.6282 77.3439 98.2393C77.3439 98.8455 77.4532 99.4169 77.6719 99.9535C77.8955 100.49 78.2234 100.977 78.6557 101.414C79.0929 101.852 79.5773 102.182 80.109 102.406C80.6456 102.629 81.2145 102.741 81.8157 102.741ZM87.6439 98.2393C87.6439 99.0194 87.4998 99.7547 87.2117 100.445C86.9235 101.136 86.5036 101.75 85.9521 102.286C85.4006 102.823 84.7646 103.238 84.0442 103.531C83.3287 103.819 82.5859 103.963 81.8157 103.963C81.0456 103.963 80.3028 103.819 79.5873 103.531C78.8768 103.238 78.2457 102.823 77.6942 102.286C77.1377 101.745 76.7129 101.129 76.4198 100.438C76.1316 99.7473 75.9875 99.0144 75.9875 98.2393C75.9875 97.4592 76.1316 96.7239 76.4198 96.0332C76.7129 95.3376 77.1377 94.719 77.6942 94.1774C78.2408 93.6458 78.8718 93.2359 79.5873 92.9477C80.3028 92.6595 81.0456 92.5154 81.8157 92.5154C82.5908 92.5154 83.3361 92.6595 84.0516 92.9477C84.7721 93.2359 85.4056 93.6458 85.9521 94.1774C86.5036 94.714 86.9235 95.3302 87.2117 96.0258C87.4998 96.7164 87.6439 97.4543 87.6439 98.2393Z" fill="#3D3D50"/>
<path d="M73.2299 120.549C73.8261 120.549 74.3926 120.437 74.9292 120.213C75.4708 119.985 75.9577 119.654 76.39 119.222C76.8173 118.795 77.1427 118.31 77.3663 117.769C77.5899 117.227 77.7017 116.653 77.7017 116.047C77.7017 115.436 77.5874 114.854 77.3588 114.303C77.1353 113.751 76.8123 113.264 76.39 112.842C75.9627 112.415 75.4782 112.089 74.9366 111.866C74.4 111.642 73.8311 111.53 73.2299 111.53C72.6237 111.53 72.0498 111.642 71.5083 111.866C70.9667 112.089 70.4872 112.415 70.0698 112.842C69.6425 113.274 69.3171 113.764 69.0935 114.31C68.8699 114.857 68.7581 115.436 68.7581 116.047C68.7581 116.653 68.8674 117.224 69.0861 117.761C69.3096 118.298 69.6376 118.785 70.0698 119.222C70.5071 119.659 70.9915 119.99 71.5232 120.213C72.0598 120.437 72.6287 120.549 73.2299 120.549ZM79.0581 116.047C79.0581 116.827 78.914 117.562 78.6258 118.253C78.3377 118.944 77.9178 119.557 77.3663 120.094C76.8148 120.63 76.1788 121.045 75.4583 121.339C74.7429 121.627 74 121.771 73.2299 121.771C72.4598 121.771 71.7169 121.627 71.0015 121.339C70.2909 121.045 69.6599 120.63 69.1084 120.094C68.5519 119.552 68.1271 118.936 67.834 118.246C67.5458 117.555 67.4017 116.822 67.4017 116.047C67.4017 115.267 67.5458 114.531 67.834 113.841C68.1271 113.145 68.5519 112.527 69.1084 111.985C69.655 111.453 70.286 111.043 71.0015 110.755C71.7169 110.467 72.4598 110.323 73.2299 110.323C74.005 110.323 74.7503 110.467 75.4658 110.755C76.1862 111.043 76.8197 111.453 77.3663 111.985C77.9178 112.522 78.3377 113.138 78.6258 113.833C78.914 114.524 79.0581 115.262 79.0581 116.047Z" fill="#3D3D50"/>
<path d="M81.1822 121.48V110.569H82.4641V115.421L87.0477 110.569H88.5979L83.9175 115.48L89.06 121.48H87.3831L82.4641 115.607V121.48H81.1822Z" fill="#3D3D50"/>
<path fill-rule="evenodd" clip-rule="evenodd" d="M124.484 47.6123H59.2598V137.861H124.484V47.6123ZM56.7158 45.0684V140.405H127.028V45.0684H56.7158Z" fill="#3D3D50"/>
<circle cx="118.711" cy="126.996" r="20.3219" fill="#FAFF04"/>
<defs>
<filter id="filter0_dd" x="0.541016" y="0" width="177.224" height="200" filterUnits="userSpaceOnUse" color-interpolation-filters="sRGB">
<feFlood flood-opacity="0" result="BackgroundImageFix"/>
<feColorMatrix in="SourceAlpha" type="matrix" values="0 0 0 0 0 0 0 0 0 0 0 0 0 0 0 0 0 0 127 0"/>
<feOffset dy="4"/>
<feGaussianBlur stdDeviation="7.5"/>
<feColorMatrix type="matrix" values="0 0 0 0 0.796078 0 0 0 0 0.823529 0 0 0 0 0.866667 0 0 0 1 0"/>
<feBlend mode="normal" in2="BackgroundImageFix" result="effect1_dropShadow"/>
<feColorMatrix in="SourceAlpha" type="matrix" values="0 0 0 0 0 0 0 0 0 0 0 0 0 0 0 0 0 0 127 0"/>
<feOffset dy="4"/>
<feGaussianBlur stdDeviation="2"/>
<feColorMatrix type="matrix" values="0 0 0 0 0 0 0 0 0 0 0 0 0 0 0 0 0 0 0.25 0"/>
<feBlend mode="normal" in2="effect1_dropShadow" result="effect2_dropShadow"/>
<feBlend mode="normal" in="SourceGraphic" in2="effect2_dropShadow" result="shape"/>
</filter>
</defs>
</svg>
