<svg width="178" height="200" viewBox="0 0 178 200" fill="none" xmlns="http://www.w3.org/2000/svg">
<g filter="url(#filter0_dd)">
<path d="M89 11L162.612 53.5V138.5L89 181L15.3878 138.5V53.5L89 11Z" fill="white"/>
</g>
<path d="M53.6378 92.338C51.8871 92.338 50.3964 91.9393 49.1658 91.142C47.9524 90.3447 47.1031 89.2527 46.6178 87.866L49.1918 86.358C49.9198 88.4033 51.4278 89.426 53.7158 89.426C54.8424 89.426 55.6831 89.2093 56.2378 88.776C56.8098 88.3253 57.0958 87.7447 57.0958 87.034C57.0958 86.2887 56.7924 85.7253 56.1858 85.344C55.5791 84.9453 54.5044 84.512 52.9618 84.044C52.0951 83.784 51.3931 83.5413 50.8558 83.316C50.3184 83.0907 49.7464 82.7787 49.1398 82.38C48.5504 81.964 48.1084 81.4527 47.8138 80.846C47.5191 80.2393 47.3718 79.5287 47.3718 78.714C47.3718 77.102 47.9438 75.828 49.0878 74.892C50.2318 73.9387 51.6098 73.462 53.2218 73.462C54.6778 73.462 55.9518 73.8173 57.0438 74.528C58.1358 75.2387 58.9764 76.218 59.5658 77.466L57.0438 78.922C56.2811 77.2233 55.0071 76.374 53.2218 76.374C52.3551 76.374 51.6618 76.582 51.1418 76.998C50.6218 77.3967 50.3618 77.9427 50.3618 78.636C50.3618 79.312 50.6218 79.8493 51.1418 80.248C51.6791 80.6293 52.6411 81.0367 54.0278 81.47C54.7211 81.6953 55.2238 81.8687 55.5358 81.99C55.8651 82.094 56.3158 82.2673 56.8878 82.51C57.4771 82.7527 57.9191 82.9953 58.2138 83.238C58.5084 83.4807 58.8204 83.784 59.1498 84.148C59.4964 84.512 59.7391 84.928 59.8778 85.396C60.0164 85.864 60.0858 86.3927 60.0858 86.982C60.0858 88.6287 59.4878 89.9373 58.2918 90.908C57.1131 91.8613 55.5618 92.338 53.6378 92.338ZM71.2672 79H74.0752V92H71.2672V90.336C70.4179 91.6707 69.0745 92.338 67.2372 92.338C65.7465 92.338 64.5419 91.8613 63.6232 90.908C62.7045 89.9547 62.2452 88.646 62.2452 86.982V79H65.0532V86.696C65.0532 87.6667 65.3132 88.412 65.8332 88.932C66.3532 89.452 67.0639 89.712 67.9652 89.712C68.9532 89.712 69.7505 89.4087 70.3572 88.802C70.9639 88.178 71.2672 87.2333 71.2672 85.968V79ZM84.1967 78.662C85.6874 78.662 86.892 79.1387 87.8107 80.092C88.7294 81.0453 89.1887 82.354 89.1887 84.018V92H86.3807V84.304C86.3807 83.3333 86.1207 82.588 85.6007 82.068C85.0807 81.548 84.37 81.288 83.4687 81.288C82.4807 81.288 81.6834 81.6 81.0767 82.224C80.47 82.8307 80.1667 83.7667 80.1667 85.032V92H77.3587V79H80.1667V80.664C81.016 79.3293 82.3594 78.662 84.1967 78.662ZM95.0202 81.184C95.7309 79.572 97.0656 78.766 99.0242 78.766V81.808C97.9496 81.7387 97.0136 81.9987 96.2162 82.588C95.4189 83.16 95.0202 84.1133 95.0202 85.448V92H92.2122V79H95.0202V81.184ZM103.751 76.53C103.404 76.8767 102.988 77.05 102.503 77.05C102.018 77.05 101.593 76.8767 101.229 76.53C100.882 76.166 100.709 75.7413 100.709 75.256C100.709 74.7707 100.882 74.3547 101.229 74.008C101.576 73.644 102 73.462 102.503 73.462C103.006 73.462 103.43 73.644 103.777 74.008C104.124 74.3547 104.297 74.7707 104.297 75.256C104.297 75.7413 104.115 76.166 103.751 76.53ZM101.099 92V79H103.907V92H101.099ZM109.613 82.588C109.613 83.0213 109.847 83.368 110.315 83.628C110.8 83.8707 111.381 84.0873 112.057 84.278C112.75 84.4513 113.444 84.6593 114.137 84.902C114.83 85.1447 115.411 85.5607 115.879 86.15C116.364 86.722 116.607 87.45 116.607 88.334C116.607 89.582 116.122 90.5613 115.151 91.272C114.198 91.9827 112.993 92.338 111.537 92.338C110.254 92.338 109.154 92.0693 108.235 91.532C107.316 90.9947 106.649 90.2493 106.233 89.296L108.651 87.892C109.102 89.14 110.064 89.764 111.537 89.764C113.01 89.764 113.747 89.2787 113.747 88.308C113.747 87.892 113.504 87.554 113.019 87.294C112.551 87.034 111.97 86.8173 111.277 86.644C110.601 86.4533 109.916 86.2367 109.223 85.994C108.53 85.7513 107.94 85.3527 107.455 84.798C106.987 84.226 106.753 83.5067 106.753 82.64C106.753 81.444 107.204 80.482 108.105 79.754C109.024 79.026 110.159 78.662 111.511 78.662C112.586 78.662 113.539 78.9047 114.371 79.39C115.22 79.858 115.87 80.5167 116.321 81.366L113.955 82.692C113.504 81.704 112.69 81.21 111.511 81.21C110.974 81.21 110.523 81.3313 110.159 81.574C109.795 81.7993 109.613 82.1373 109.613 82.588ZM120.955 86.696C121.163 87.684 121.64 88.4467 122.385 88.984C123.131 89.504 124.041 89.764 125.115 89.764C126.606 89.764 127.724 89.2267 128.469 88.152L130.783 89.504C129.501 91.3933 127.603 92.338 125.089 92.338C122.975 92.338 121.267 91.6967 119.967 90.414C118.667 89.114 118.017 87.476 118.017 85.5C118.017 83.5587 118.659 81.938 119.941 80.638C121.224 79.3207 122.871 78.662 124.881 78.662C126.788 78.662 128.348 79.3293 129.561 80.664C130.792 81.9987 131.407 83.6193 131.407 85.526C131.407 85.8207 131.373 86.2107 131.303 86.696H120.955ZM120.929 84.408H128.573C128.383 83.3507 127.941 82.5533 127.247 82.016C126.571 81.4787 125.774 81.21 124.855 81.21C123.815 81.21 122.949 81.496 122.255 82.068C121.562 82.64 121.12 83.42 120.929 84.408ZM46.5055 99.8C48.2215 99.8 49.6515 100.372 50.7955 101.516C51.9569 102.66 52.5375 104.081 52.5375 105.78C52.5375 107.461 51.9569 108.883 50.7955 110.044C49.6515 111.188 48.2215 111.76 46.5055 111.76H42.7875V118H39.7975V99.8H46.5055ZM46.5055 108.952C47.3895 108.952 48.1175 108.657 48.6895 108.068C49.2615 107.461 49.5475 106.699 49.5475 105.78C49.5475 104.861 49.2615 104.107 48.6895 103.518C48.1175 102.911 47.3895 102.608 46.5055 102.608H42.7875V108.952H46.5055ZM57.5056 107.184C58.2162 105.572 59.5509 104.766 61.5096 104.766V107.808C60.4349 107.739 59.4989 107.999 58.7016 108.588C57.9042 109.16 57.5056 110.113 57.5056 111.448V118H54.6976V105H57.5056V107.184ZM69.1109 118.338C67.2042 118.338 65.5836 117.679 64.2489 116.362C62.9142 115.045 62.2469 113.424 62.2469 111.5C62.2469 109.576 62.9142 107.955 64.2489 106.638C65.5836 105.321 67.2042 104.662 69.1109 104.662C71.0349 104.662 72.6556 105.321 73.9729 106.638C75.3076 107.955 75.9749 109.576 75.9749 111.5C75.9749 113.424 75.3076 115.045 73.9729 116.362C72.6556 117.679 71.0349 118.338 69.1109 118.338ZM66.2249 114.438C67.0049 115.218 67.9669 115.608 69.1109 115.608C70.2549 115.608 71.2169 115.218 71.9969 114.438C72.7769 113.658 73.1669 112.679 73.1669 111.5C73.1669 110.321 72.7769 109.342 71.9969 108.562C71.2169 107.782 70.2549 107.392 69.1109 107.392C67.9669 107.392 67.0049 107.782 66.2249 108.562C65.4449 109.342 65.0549 110.321 65.0549 111.5C65.0549 112.679 65.4449 113.658 66.2249 114.438ZM88.862 105H91.618V117.402C91.618 119.378 90.968 120.895 89.668 121.952C88.368 123.009 86.7906 123.538 84.936 123.538C81.9373 123.538 79.8833 122.489 78.774 120.392L81.192 118.988C81.868 120.323 83.1333 120.99 84.988 120.99C86.2013 120.99 87.146 120.669 87.822 120.028C88.5153 119.404 88.862 118.529 88.862 117.402V115.816C87.8046 117.324 86.2966 118.078 84.338 118.078C82.5006 118.078 80.9493 117.428 79.684 116.128C78.4186 114.811 77.786 113.225 77.786 111.37C77.786 109.515 78.4186 107.938 79.684 106.638C80.9493 105.321 82.5006 104.662 84.338 104.662C86.2966 104.662 87.8046 105.416 88.862 106.924V105ZM81.764 114.282C82.5613 115.062 83.5493 115.452 84.728 115.452C85.9066 115.452 86.886 115.062 87.666 114.282C88.4633 113.502 88.862 112.531 88.862 111.37C88.862 110.209 88.4633 109.238 87.666 108.458C86.886 107.678 85.9066 107.288 84.728 107.288C83.5493 107.288 82.5613 107.678 81.764 108.458C80.984 109.238 80.594 110.209 80.594 111.37C80.594 112.531 80.984 113.502 81.764 114.282ZM97.6989 107.184C98.4096 105.572 99.7443 104.766 101.703 104.766V107.808C100.628 107.739 99.6923 107.999 98.8949 108.588C98.0976 109.16 97.6989 110.113 97.6989 111.448V118H94.8909V105H97.6989V107.184ZM113.464 105H116.272V118H113.464V116.128C112.407 117.601 110.89 118.338 108.914 118.338C107.129 118.338 105.604 117.679 104.338 116.362C103.073 115.027 102.44 113.407 102.44 111.5C102.44 109.576 103.073 107.955 104.338 106.638C105.604 105.321 107.129 104.662 108.914 104.662C110.89 104.662 112.407 105.39 113.464 106.846V105ZM106.418 114.49C107.198 115.27 108.178 115.66 109.356 115.66C110.535 115.66 111.514 115.27 112.294 114.49C113.074 113.693 113.464 112.696 113.464 111.5C113.464 110.304 113.074 109.316 112.294 108.536C111.514 107.739 110.535 107.34 109.356 107.34C108.178 107.34 107.198 107.739 106.418 108.536C105.638 109.316 105.248 110.304 105.248 111.5C105.248 112.696 105.638 113.693 106.418 114.49ZM133.741 104.662C135.215 104.662 136.402 105.139 137.303 106.092C138.205 107.045 138.655 108.328 138.655 109.94V118H135.847V110.122C135.847 109.221 135.622 108.527 135.171 108.042C134.721 107.539 134.105 107.288 133.325 107.288C132.459 107.288 131.765 107.574 131.245 108.146C130.743 108.718 130.491 109.576 130.491 110.72V118H127.683V110.122C127.683 109.221 127.467 108.527 127.033 108.042C126.617 107.539 126.019 107.288 125.239 107.288C124.39 107.288 123.697 107.583 123.159 108.172C122.622 108.744 122.353 109.593 122.353 110.72V118H119.545V105H122.353V106.56C123.185 105.295 124.425 104.662 126.071 104.662C127.735 104.662 128.966 105.347 129.763 106.716C130.63 105.347 131.956 104.662 133.741 104.662Z" fill="#3D3D50"/>
<defs>
<filter id="filter0_dd" x="0.387695" y="0" width="177.224" height="200" filterUnits="userSpaceOnUse" color-interpolation-filters="sRGB">
<feFlood flood-opacity="0" result="BackgroundImageFix"/>
<feColorMatrix in="SourceAlpha" type="matrix" values="0 0 0 0 0 0 0 0 0 0 0 0 0 0 0 0 0 0 127 0"/>
<feOffset dy="4"/>
<feGaussianBlur stdDeviation="7.5"/>
<feColorMatrix type="matrix" values="0 0 0 0 0.796078 0 0 0 0 0.823529 0 0 0 0 0.866667 0 0 0 1 0"/>
<feBlend mode="normal" in2="BackgroundImageFix" result="effect1_dropShadow"/>
<feColorMatrix in="SourceAlpha" type="matrix" values="0 0 0 0 0 0 0 0 0 0 0 0 0 0 0 0 0 0 127 0"/>
<feOffset dy="4"/>
<feGaussianBlur stdDeviation="2"/>
<feColorMatrix type="matrix" values="0 0 0 0 0 0 0 0 0 0 0 0 0 0 0 0 0 0 0.25 0"/>
<feBlend mode="normal" in2="effect1_dropShadow" result="effect2_dropShadow"/>
<feBlend mode="normal" in="SourceGraphic" in2="effect2_dropShadow" result="shape"/>
</filter>
</defs>
</svg>
