<svg width="178" height="200" viewBox="0 0 178 200" fill="none" xmlns="http://www.w3.org/2000/svg">
<g filter="url(#filter0_dd)">
<path d="M89 11L162.612 53.5V138.5L89 181L15.3878 138.5V53.5L89 11Z" fill="white"/>
</g>
<path d="M81.1314 73.8V76.66H76.0094V92H73.0194V76.66H67.8714V73.8H81.1314ZM91.1205 79H93.9285V92H91.1205V90.128C90.0632 91.6013 88.5465 92.338 86.5705 92.338C84.7852 92.338 83.2599 91.6793 81.9945 90.362C80.7292 89.0273 80.0965 87.4067 80.0965 85.5C80.0965 83.576 80.7292 81.9553 81.9945 80.638C83.2599 79.3207 84.7852 78.662 86.5705 78.662C88.5465 78.662 90.0632 79.39 91.1205 80.846V79ZM84.0745 88.49C84.8545 89.27 85.8339 89.66 87.0125 89.66C88.1912 89.66 89.1705 89.27 89.9505 88.49C90.7305 87.6927 91.1205 86.696 91.1205 85.5C91.1205 84.304 90.7305 83.316 89.9505 82.536C89.1705 81.7387 88.1912 81.34 87.0125 81.34C85.8339 81.34 84.8545 81.7387 84.0745 82.536C83.2945 83.316 82.9045 84.304 82.9045 85.5C82.9045 86.696 83.2945 87.6927 84.0745 88.49ZM99.8535 76.53C99.5068 76.8767 99.0908 77.05 98.6055 77.05C98.1201 77.05 97.6955 76.8767 97.3315 76.53C96.9848 76.166 96.8115 75.7413 96.8115 75.256C96.8115 74.7707 96.9848 74.3547 97.3315 74.008C97.6781 73.644 98.1028 73.462 98.6055 73.462C99.1081 73.462 99.5328 73.644 99.8795 74.008C100.226 74.3547 100.399 74.7707 100.399 75.256C100.399 75.7413 100.217 76.166 99.8535 76.53ZM97.2015 92V79H100.009V92H97.2015ZM106.078 81.184C106.789 79.572 108.123 78.766 110.082 78.766V81.808C109.007 81.7387 108.071 81.9987 107.274 82.588C106.477 83.16 106.078 84.1133 106.078 85.448V92H103.27V79H106.078V81.184ZM67.4627 99.8V118H64.4727V105.026L58.9347 114.178H58.5707L53.0327 105V118H50.0427V99.8H53.2667L58.7527 108.9L64.2647 99.8H67.4627ZM77.0455 118.338C75.1388 118.338 73.5182 117.679 72.1835 116.362C70.8488 115.045 70.1815 113.424 70.1815 111.5C70.1815 109.576 70.8488 107.955 72.1835 106.638C73.5182 105.321 75.1388 104.662 77.0455 104.662C78.9695 104.662 80.5902 105.321 81.9075 106.638C83.2422 107.955 83.9095 109.576 83.9095 111.5C83.9095 113.424 83.2422 115.045 81.9075 116.362C80.5902 117.679 78.9695 118.338 77.0455 118.338ZM74.1595 114.438C74.9395 115.218 75.9015 115.608 77.0455 115.608C78.1895 115.608 79.1515 115.218 79.9315 114.438C80.7115 113.658 81.1015 112.679 81.1015 111.5C81.1015 110.321 80.7115 109.342 79.9315 108.562C79.1515 107.782 78.1895 107.392 77.0455 107.392C75.9015 107.392 74.9395 107.782 74.1595 108.562C73.3795 109.342 72.9895 110.321 72.9895 111.5C72.9895 112.679 73.3795 113.658 74.1595 114.438ZM93.4486 107.704H90.2246V113.944C90.2246 114.481 90.346 114.871 90.5886 115.114C90.8313 115.339 91.1866 115.469 91.6546 115.504C92.14 115.521 92.738 115.513 93.4486 115.478V118C91.2993 118.26 89.7566 118.078 88.8206 117.454C87.8846 116.813 87.4166 115.643 87.4166 113.944V107.704H85.0246V105H87.4166V102.192L90.2246 101.36V105H93.4486V107.704ZM101.598 118.338C99.6916 118.338 98.0709 117.679 96.7362 116.362C95.4016 115.045 94.7342 113.424 94.7342 111.5C94.7342 109.576 95.4016 107.955 96.7362 106.638C98.0709 105.321 99.6916 104.662 101.598 104.662C103.522 104.662 105.143 105.321 106.46 106.638C107.795 107.955 108.462 109.576 108.462 111.5C108.462 113.424 107.795 115.045 106.46 116.362C105.143 117.679 103.522 118.338 101.598 118.338ZM98.7122 114.438C99.4922 115.218 100.454 115.608 101.598 115.608C102.742 115.608 103.704 115.218 104.484 114.438C105.264 113.658 105.654 112.679 105.654 111.5C105.654 110.321 105.264 109.342 104.484 108.562C103.704 107.782 102.742 107.392 101.598 107.392C100.454 107.392 99.4922 107.782 98.7122 108.562C97.9322 109.342 97.5422 110.321 97.5422 111.5C97.5422 112.679 97.9322 113.658 98.7122 114.438ZM113.809 107.184C114.52 105.572 115.855 104.766 117.813 104.766V107.808C116.739 107.739 115.803 107.999 115.005 108.588C114.208 109.16 113.809 110.113 113.809 111.448V118H111.001V105H113.809V107.184ZM121.953 108.588C121.953 109.021 122.187 109.368 122.655 109.628C123.14 109.871 123.721 110.087 124.397 110.278C125.09 110.451 125.784 110.659 126.477 110.902C127.17 111.145 127.751 111.561 128.219 112.15C128.704 112.722 128.947 113.45 128.947 114.334C128.947 115.582 128.462 116.561 127.491 117.272C126.538 117.983 125.333 118.338 123.877 118.338C122.594 118.338 121.494 118.069 120.575 117.532C119.656 116.995 118.989 116.249 118.573 115.296L120.991 113.892C121.442 115.14 122.404 115.764 123.877 115.764C125.35 115.764 126.087 115.279 126.087 114.308C126.087 113.892 125.844 113.554 125.359 113.294C124.891 113.034 124.31 112.817 123.617 112.644C122.941 112.453 122.256 112.237 121.563 111.994C120.87 111.751 120.28 111.353 119.795 110.798C119.327 110.226 119.093 109.507 119.093 108.64C119.093 107.444 119.544 106.482 120.445 105.754C121.364 105.026 122.499 104.662 123.851 104.662C124.926 104.662 125.879 104.905 126.711 105.39C127.56 105.858 128.21 106.517 128.661 107.366L126.295 108.692C125.844 107.704 125.03 107.21 123.851 107.21C123.314 107.21 122.863 107.331 122.499 107.574C122.135 107.799 121.953 108.137 121.953 108.588Z" fill="#3D3D50"/>
<defs>
<filter id="filter0_dd" x="0.387695" y="0" width="177.224" height="200" filterUnits="userSpaceOnUse" color-interpolation-filters="sRGB">
<feFlood flood-opacity="0" result="BackgroundImageFix"/>
<feColorMatrix in="SourceAlpha" type="matrix" values="0 0 0 0 0 0 0 0 0 0 0 0 0 0 0 0 0 0 127 0"/>
<feOffset dy="4"/>
<feGaussianBlur stdDeviation="7.5"/>
<feColorMatrix type="matrix" values="0 0 0 0 0.796078 0 0 0 0 0.823529 0 0 0 0 0.866667 0 0 0 1 0"/>
<feBlend mode="normal" in2="BackgroundImageFix" result="effect1_dropShadow"/>
<feColorMatrix in="SourceAlpha" type="matrix" values="0 0 0 0 0 0 0 0 0 0 0 0 0 0 0 0 0 0 127 0"/>
<feOffset dy="4"/>
<feGaussianBlur stdDeviation="2"/>
<feColorMatrix type="matrix" values="0 0 0 0 0 0 0 0 0 0 0 0 0 0 0 0 0 0 0.25 0"/>
<feBlend mode="normal" in2="effect1_dropShadow" result="effect2_dropShadow"/>
<feBlend mode="normal" in="SourceGraphic" in2="effect2_dropShadow" result="shape"/>
</filter>
</defs>
</svg>
