<svg width="178" height="200" viewBox="0 0 178 200" fill="none" xmlns="http://www.w3.org/2000/svg">
<path d="M66.5939 87.5015L61.9882 94.3726L58.6529 88.4056L57.4277 87.4814L60.8764 96.6027L59.6512 100.741L60.8764 101.666H63.1226V96.5223L67.8192 88.3855L66.5939 87.5015Z" fill="#0D1468"/>
<path d="M62.6929 102.771L54.9561 118.321L56.1812 119.245H58.1098L60.3105 114.001H66.255L67.2079 118.321L68.4331 119.245H70.3843L63.9181 103.695L62.6929 102.771ZM65.6197 112.414H60.9686L62.9878 107.512C63.1013 107.251 63.2147 106.949 63.3281 106.648C63.4416 106.97 63.555 107.251 63.6458 107.472L65.6197 112.414Z" fill="#0D1468"/>
<path d="M51.4154 134.796H48.9424V143.495H50.3491V140.22H51.2339C52.323 140.22 53.2079 139.979 53.8204 139.517C54.4784 139.035 54.796 138.332 54.796 137.448C54.8414 136.242 54.2288 134.796 51.4154 134.796ZM50.3717 136.082H51.3473C52.0734 136.082 52.6179 136.202 52.9356 136.443C53.2305 136.664 53.3667 137.006 53.3667 137.488C53.3667 138.031 53.2079 138.392 52.9129 138.613C52.5726 138.854 51.9599 138.975 51.1205 138.975H50.3944V136.082H50.3717Z" fill="#842A91"/>
<path d="M61.0356 140.361C61.0356 141.004 60.8542 141.466 60.4911 141.807C60.1281 142.149 59.629 142.309 58.9256 142.309C58.2223 142.309 57.7004 142.149 57.3147 141.787C56.9517 141.425 56.7702 140.943 56.7702 140.28V134.775H55.3408V140.26C55.3408 141.285 55.6584 142.109 56.271 142.691C56.8836 143.274 57.7458 143.575 58.8349 143.575C59.9466 143.575 60.8315 143.274 61.4668 142.691C62.102 142.109 62.4197 141.285 62.4197 140.28V134.775H61.013L61.0356 140.361Z" fill="#842A91"/>
<path d="M68.7714 138.915C68.9075 138.835 69.0437 138.734 69.1344 138.614C69.4974 138.232 69.6789 137.77 69.6789 137.207C69.6789 136.404 69.384 135.801 68.7714 135.379C68.2042 134.997 67.3873 134.816 66.2529 134.816H63.5303V143.516H66.5025C67.5462 143.516 68.363 143.295 68.9529 142.833C69.5655 142.371 69.8831 141.687 69.8831 140.844C69.8831 140.201 69.6789 139.678 69.2932 139.297C69.1571 139.136 68.9756 139.015 68.7714 138.915ZM64.9824 138.332V136.082H66.2529C66.9563 136.082 67.5008 136.183 67.8411 136.384C68.0226 136.484 68.2495 136.685 68.2495 137.207C68.2495 137.609 68.1361 137.87 67.8865 138.051C67.6823 138.192 67.2739 138.352 66.4118 138.352H64.9824V138.332ZM64.9824 139.598H66.4118C68.4538 139.598 68.4538 140.502 68.4538 140.824C68.4538 141.466 68.2268 142.21 66.5479 142.21H64.9824V139.598Z" fill="#842A91"/>
<path d="M64.1438 87.5015L60.7859 93.4685L57.4279 87.5015H54.9775L59.6514 95.6986V100.762H61.8976V95.6182L66.5941 87.4814H64.1438V87.5015Z" fill="white"/>
<path d="M61.536 102.771L54.9336 118.321H56.8621L59.0629 113.077H65.0073L67.1855 118.321H69.1367L62.6705 102.771H61.536ZM64.3948 111.49H59.7436L61.7629 106.588C61.8763 106.327 61.9898 106.025 62.1032 105.724C62.2167 106.045 62.3301 106.327 62.4209 106.548L64.3948 111.49Z" fill="#EB8B7A"/>
<g filter="url(#filter0_dd)">
<path d="M89 11L162.612 53.5V138.5L89 181L15.3878 138.5V53.5L89 11Z" fill="white"/>
</g>
<path d="M79.4608 73.5693H52.3428V133.675H108.728V104.78C92.565 104.78 79.4608 90.8074 79.4608 73.5693Z" fill="#2F2E92"/>
<path d="M108.729 42.3584C95.6872 42.3584 84.6498 51.4529 80.8674 64.0197C80.764 64.3504 80.6814 64.7018 80.578 65.0325C79.8546 67.7402 79.4619 70.6132 79.4619 73.5689H108.729V104.779C111.416 104.779 114 104.387 116.48 103.663C116.79 103.56 117.121 103.477 117.431 103.374C129.357 99.426 138.018 87.5619 138.018 73.5689C138.018 56.3308 124.913 42.3584 108.729 42.3584Z" fill="url(#paint0_linear)"/>
<path d="M79.4619 73.5693C79.4619 90.8074 92.5661 104.78 108.729 104.78V73.5693H79.4619V73.5693Z" fill="#260F81"/>
<path d="M80.8665 64.0205C80.7632 64.3512 80.6805 64.7026 80.5771 65.0333H116.48V103.664C116.79 103.561 117.12 103.478 117.43 103.375V64.0205H80.8665Z" fill="white"/>
<path d="M68.3611 87.4992L64.1653 94.568L61.1269 88.4293L60.0107 87.4785L63.1524 96.8623L62.0363 101.12L63.1524 102.071H65.1987V96.7797L69.4772 88.4086L68.3611 87.4992Z" fill="#0D1468"/>
<path d="M75.1207 88.2451C73.2398 88.2451 71.7516 88.8652 70.7182 90.1053C69.6847 91.3248 69.168 93.061 69.168 95.252C69.168 97.4636 69.6847 99.1998 70.7182 100.419C71.7516 101.659 73.2191 102.28 75.1 102.28C76.9396 102.28 78.4071 101.639 79.4405 100.378C80.474 99.1378 80.9907 97.4016 80.9907 95.252C80.9907 93.1024 80.474 91.3662 79.4405 90.126C78.4071 88.8859 76.9603 88.2451 75.1207 88.2451ZM77.9317 99.0758C77.2909 99.9025 76.3815 100.316 75.1 100.316C73.8392 100.316 72.9091 99.9025 72.2683 99.0758C71.6069 98.2283 71.2762 96.9468 71.2762 95.2726C71.2762 93.6191 71.6069 92.3583 72.2683 91.5109C72.9091 90.6634 73.8392 90.2707 75.1207 90.2707C76.3815 90.2707 77.3116 90.6634 77.9317 91.5109C78.5724 92.3583 78.8825 93.6191 78.8825 95.2933C78.9032 96.9469 78.5724 98.2283 77.9317 99.0758Z" fill="#0D1468"/>
<path d="M90.3958 97.2355C90.3958 98.2276 90.1478 98.9924 89.6517 99.5091C89.1556 100.026 88.4322 100.295 87.4814 100.295C86.4893 100.295 85.7453 100.026 85.2492 99.5091C84.7531 98.9924 84.5051 98.2276 84.5051 97.2355V88.4304L83.389 87.4797L82.4795 97.1322C82.4795 98.703 82.9136 99.9638 83.7817 100.873C84.6498 101.783 85.8486 102.237 87.3988 102.237C88.949 102.237 90.1684 101.783 91.0779 100.873C91.9667 99.9638 92.442 98.703 92.442 97.1528V88.4098L91.3259 87.459L90.3958 97.2355Z" fill="#0D1468"/>
<path d="M100.566 96.098C102.095 95.4159 102.881 94.1757 102.881 92.4395C102.881 91.1167 102.488 90.1039 101.702 89.4218C100.938 88.7604 99.7595 88.4297 98.1886 88.4297H94.5302L93.4141 101.121L94.5302 102.071H96.5558V96.656H98.6227L100.462 101.121L101.578 102.071H103.976L100.566 96.098ZM100.194 94.1964C99.7801 94.5684 99.1187 94.7545 98.1886 94.7545H96.5558V90.4346H98.106C99.0774 90.4346 99.8008 90.5999 100.214 90.9307C100.607 91.2407 100.814 91.7781 100.814 92.5222C100.793 93.2869 100.607 93.8244 100.194 94.1964Z" fill="#0D1468"/>
<path d="M64.8079 103.209L57.7598 119.207L58.8759 120.158H60.6328L62.6377 114.763H68.053L68.9211 119.207L70.0372 120.158H71.8148L65.9241 104.16L64.8079 103.209ZM67.4743 113.13H63.2371L65.0766 108.087C65.18 107.818 65.2833 107.508 65.3867 107.198C65.49 107.529 65.5933 107.818 65.676 108.046L67.4743 113.13Z" fill="#0D1468"/>
<path d="M79.4418 117.182L74.5433 104.202L73.4271 103.251L72.373 105.731L71.3809 119.187L72.497 120.138H74.0679V108.356C74.0679 108.005 74.0678 107.674 74.0472 107.343L77.7883 119.187L78.9044 120.138H79.9586L84.7951 107.447C84.7951 107.716 84.7745 107.964 84.7745 108.232L83.6583 119.187L84.7745 120.138H86.3867V104.202L85.2705 103.251L83.9064 105.421L79.4418 117.182Z" fill="#0D1468"/>
<path d="M89.1972 120.138H90.8094V104.202L89.6933 103.251L89.1972 105.235L88.0811 119.166L89.1972 120.138Z" fill="#0D1468"/>
<path d="M99.9643 113.046C100.874 112.716 101.577 112.199 102.052 111.538C102.589 110.773 102.879 109.843 102.879 108.747C102.879 107.238 102.403 106.102 101.494 105.337C100.584 104.593 99.1996 104.221 97.36 104.221H93.6396L92.5234 119.206L93.6396 120.157H95.2518V113.501H98.3314L100.915 119.206L102.031 120.157H103.933L99.9643 113.046ZM101.204 108.83C101.204 109.863 100.915 110.607 100.316 111.124C99.7163 111.641 98.8275 111.91 97.6907 111.91H95.2518V105.812H97.3187C98.7242 105.812 99.737 106.06 100.336 106.536C100.915 107.011 101.204 107.755 101.204 108.83Z" fill="#0D1468"/>
<path d="M54.5342 136.156H52.2812V145.106H53.5627V141.737H54.3688C55.3609 141.737 56.1671 141.489 56.7251 141.014C57.3245 140.517 57.6139 139.794 57.6139 138.885C57.6552 137.644 57.0972 136.156 54.5342 136.156ZM53.5834 137.479H54.4722C55.1336 137.479 55.6296 137.603 55.919 137.851C56.1877 138.078 56.3117 138.43 56.3117 138.926C56.3117 139.484 56.1671 139.856 55.8984 140.083C55.5883 140.331 55.0302 140.455 54.2655 140.455H53.6041V137.479H53.5834Z" fill="#842A91"/>
<path d="M63.2983 141.88C63.2983 142.541 63.133 143.017 62.8022 143.368C62.4715 143.719 62.0168 143.885 61.3761 143.885C60.7353 143.885 60.2599 143.719 59.9086 143.347C59.5779 142.975 59.4125 142.479 59.4125 141.797V136.134H58.1104V141.776C58.1104 142.831 58.3997 143.678 58.9578 144.277C59.5158 144.877 60.3013 145.187 61.2934 145.187C62.3062 145.187 63.1123 144.877 63.691 144.277C64.2698 143.678 64.5591 142.831 64.5591 141.797V136.134H63.2776L63.2983 141.88Z" fill="#842A91"/>
<path d="M70.3449 140.393C70.4689 140.311 70.593 140.207 70.6756 140.083C71.0063 139.691 71.1717 139.215 71.1717 138.636C71.1717 137.81 70.903 137.19 70.3449 136.756C69.8282 136.363 69.0841 136.177 68.0506 136.177H65.5703V145.127H68.278C69.2288 145.127 69.9729 144.899 70.5103 144.424C71.0683 143.948 71.3577 143.246 71.3577 142.378C71.3577 141.716 71.1717 141.179 70.8203 140.786C70.6963 140.621 70.5309 140.497 70.3449 140.393ZM66.8932 139.794V137.479H68.0506C68.6914 137.479 69.1874 137.582 69.4975 137.789C69.6628 137.892 69.8695 138.099 69.8695 138.636C69.8695 139.05 69.7662 139.318 69.5388 139.504C69.3528 139.649 68.9808 139.815 68.1953 139.815H66.8932V139.794ZM66.8932 141.096H68.1953C70.0556 141.096 70.0556 142.026 70.0556 142.357C70.0556 143.018 69.8488 143.783 68.3193 143.783H66.8932V141.096Z" fill="#842A91"/>
<path d="M73.261 136.156H71.9795V145.106H76.8988V143.762H73.261V136.156V136.156Z" fill="#842A91"/>
<path d="M78.427 136.156H77.1455V145.106H78.427V136.156Z" fill="#842A91"/>
<path d="M83.45 140.62C83.1193 140.392 82.644 140.165 82.0239 139.938C81.3625 139.69 81.0318 139.524 80.8871 139.421C80.7011 139.297 80.577 139.173 80.515 139.049C80.453 138.925 80.4117 138.739 80.4117 138.512C80.4117 138.16 80.5357 137.891 80.7631 137.685C81.0318 137.457 81.4038 137.354 81.8792 137.354C82.3959 137.354 82.9747 137.478 83.5534 137.747L83.9048 137.912L84.3802 136.672L84.0288 136.507C83.3467 136.197 82.6233 136.031 81.8585 136.031C81.0731 136.031 80.4117 136.259 79.895 136.693C79.3576 137.147 79.0889 137.767 79.0889 138.491C79.0889 139.152 79.2749 139.69 79.6469 140.103C79.9983 140.496 80.5771 140.826 81.4245 141.137C81.9412 141.323 82.3133 141.488 82.5613 141.653C82.7887 141.777 82.9333 141.922 83.016 142.067C83.0987 142.191 83.14 142.377 83.14 142.604C83.14 142.976 83.016 143.265 82.7266 143.493C82.4373 143.741 82.0032 143.865 81.4658 143.865C80.6597 143.865 80.019 143.741 79.5023 143.513L78.9648 143.286V144.733L79.1922 144.836C79.7503 145.084 80.4944 145.188 81.4865 145.188C82.3546 145.188 83.0574 144.96 83.5948 144.506C84.1528 144.03 84.4422 143.389 84.4422 142.583C84.4422 142.149 84.3595 141.757 84.1942 141.447C84.0495 141.137 83.8014 140.847 83.45 140.62Z" fill="#842A91"/>
<path d="M90.0028 139.773H86.303V136.156H85.0215V145.106H86.303V141.096H90.0028V145.106H91.3049V136.156H90.0028V139.773Z" fill="#842A91"/>
<path d="M93.6623 136.156H92.3809V145.106H93.6623V136.156Z" fill="#842A91"/>
<path d="M99.7806 141.882C99.7806 142.068 99.7806 142.254 99.7806 142.44L95.8534 136.177H94.7373V145.127H95.9981V139.443C95.9981 139.277 95.9981 139.071 95.9981 138.843L99.9253 145.106H101.041V136.156H99.7599L99.7806 141.882Z" fill="#842A91"/>
<path d="M105.134 141.529H107.407V143.7C107.015 143.824 106.539 143.906 106.002 143.906C105.03 143.906 104.286 143.638 103.811 143.1C103.315 142.563 103.087 141.736 103.087 140.62C103.087 139.586 103.335 138.801 103.873 138.222C104.39 137.643 105.092 137.354 105.981 137.354C106.643 137.354 107.263 137.499 107.883 137.809L108.234 137.974L108.751 136.734L108.42 136.569C107.717 136.217 106.911 136.031 106.023 136.031C105.196 136.031 104.452 136.217 103.79 136.61C103.129 137.003 102.612 137.54 102.281 138.264C101.93 138.966 101.765 139.752 101.765 140.661C101.765 142.087 102.116 143.224 102.839 144.01C103.563 144.816 104.576 145.229 105.878 145.229C106.849 145.229 107.738 145.043 108.523 144.692L108.751 144.588V140.206H105.175L105.134 141.529Z" fill="#842A91"/>
<path d="M66.1297 87.4992L63.0706 93.6379L60.0116 87.4992H57.7793L62.0372 95.9322V101.141H64.0834V95.8495L68.3619 87.4785H66.1297V87.4992Z" fill="white"/>
<path d="M74.0035 87.3135C72.1226 87.3135 70.6344 87.9336 69.601 89.1737C68.5675 90.3932 68.0508 92.1294 68.0508 94.3203C68.0508 96.5319 68.5675 98.2682 69.601 99.4876C70.6344 100.728 72.102 101.348 73.9829 101.348C75.8224 101.348 77.2899 100.707 78.3234 99.4463C79.3569 98.2062 79.8736 96.4699 79.8736 94.3203C79.8736 92.1707 79.3569 90.4345 78.3234 89.1944C77.2899 87.9336 75.8431 87.3135 74.0035 87.3135ZM76.8145 98.1235C76.1738 98.9502 75.2644 99.3636 73.9829 99.3636C72.7221 99.3636 71.7919 98.9502 71.1512 98.1235C70.4897 97.276 70.1591 95.9945 70.1591 94.3203C70.1591 92.6668 70.4897 91.406 71.1512 90.5585C71.7919 89.7111 72.722 89.3184 74.0035 89.3184C75.2643 89.3184 76.1945 89.7318 76.8145 90.5585C77.4553 91.406 77.7653 92.6668 77.7653 94.341C77.786 95.9945 77.4553 97.276 76.8145 98.1235Z" fill="white"/>
<path d="M89.2796 96.3051C89.2796 97.2972 89.0315 98.0619 88.5355 98.5787C88.0394 99.0954 87.316 99.3641 86.3652 99.3641C85.3731 99.3641 84.629 99.0954 84.1329 98.5787C83.6369 98.0619 83.3889 97.2972 83.3889 96.3051V87.5H81.3633V96.2017C81.3633 97.7726 81.7973 99.0334 82.6655 99.9428C83.5336 100.852 84.7324 101.328 86.2826 101.328C87.8121 101.328 89.0522 100.873 89.941 99.9635C90.8504 99.0541 91.3051 97.7933 91.3051 96.2431V87.5H89.2796V96.3051V96.3051Z" fill="white"/>
<path d="M99.4474 95.1468C100.977 94.4647 101.762 93.2245 101.762 91.4883C101.762 90.1655 101.37 89.1527 100.584 88.4706C99.8194 87.8092 98.6413 87.4785 97.0704 87.4785H93.4326V101.12H95.4582V95.7048H97.5251L100.481 101.12H102.878L99.4474 95.1468ZM99.096 93.2452C98.6826 93.6173 98.0212 93.8033 97.0911 93.8033H95.4582V89.4834H97.0084C97.9798 89.4834 98.7033 89.6488 99.1166 89.9795C99.5094 90.2895 99.7161 90.8269 99.7161 91.571C99.6747 92.3358 99.4887 92.8732 99.096 93.2452Z" fill="white"/>
<path d="M63.754 103.209L57.7393 119.207H59.4961L61.501 113.812H66.9164L68.9006 119.207H70.6782L64.7875 103.209H63.754ZM66.3583 112.179H62.1211L63.9607 107.136C64.064 106.867 64.1674 106.557 64.2707 106.247C64.3741 106.578 64.4774 106.867 64.5601 107.095L66.3583 112.179Z" fill="#EB8B7A"/>
<path d="M78.3249 116.251L73.4263 103.271H71.3594V119.206H72.9303V107.425C72.9303 107.074 72.9302 106.743 72.9096 106.412L77.7462 119.206H78.8003L83.6369 106.516C83.6369 106.784 83.6162 107.032 83.6162 107.301V119.206H85.2284V103.271H83.2028L78.3249 116.251Z" fill="#EB8B7A"/>
<path d="M89.6933 103.271H88.0811V119.206H89.6933V103.271Z" fill="#EB8B7A"/>
<path d="M98.8707 112.096C99.7801 111.766 100.483 111.249 100.958 110.587C101.496 109.823 101.785 108.893 101.785 107.797C101.785 106.288 101.31 105.151 100.4 104.387C99.4907 103.643 98.1059 103.271 96.2664 103.271H92.5459V119.206H94.1581V112.551H97.2378L100.938 119.206H102.839L98.8707 112.096ZM100.09 107.88C100.09 108.913 99.8008 109.657 99.2014 110.174C98.602 110.691 97.7132 110.959 96.5764 110.959H94.1375V104.862H96.2044C97.6099 104.862 98.6227 105.11 99.2221 105.585C99.8215 106.061 100.09 106.826 100.09 107.88Z" fill="#EB8B7A"/>
<defs>
<filter id="filter0_dd" x="0.387695" y="0" width="177.224" height="200" filterUnits="userSpaceOnUse" color-interpolation-filters="sRGB">
<feFlood flood-opacity="0" result="BackgroundImageFix"/>
<feColorMatrix in="SourceAlpha" type="matrix" values="0 0 0 0 0 0 0 0 0 0 0 0 0 0 0 0 0 0 127 0"/>
<feOffset dy="4"/>
<feGaussianBlur stdDeviation="7.5"/>
<feColorMatrix type="matrix" values="0 0 0 0 0.796078 0 0 0 0 0.823529 0 0 0 0 0.866667 0 0 0 1 0"/>
<feBlend mode="normal" in2="BackgroundImageFix" result="effect1_dropShadow"/>
<feColorMatrix in="SourceAlpha" type="matrix" values="0 0 0 0 0 0 0 0 0 0 0 0 0 0 0 0 0 0 127 0"/>
<feOffset dy="4"/>
<feGaussianBlur stdDeviation="2"/>
<feColorMatrix type="matrix" values="0 0 0 0 0 0 0 0 0 0 0 0 0 0 0 0 0 0 0.25 0"/>
<feBlend mode="normal" in2="effect1_dropShadow" result="effect2_dropShadow"/>
<feBlend mode="normal" in="SourceGraphic" in2="effect2_dropShadow" result="shape"/>
</filter>
<linearGradient id="paint0_linear" x1="134.177" y1="89.806" x2="86.9845" y2="52.6609" gradientUnits="userSpaceOnUse">
<stop stop-color="#842A91"/>
<stop offset="0.1011" stop-color="#943691"/>
<stop offset="0.2965" stop-color="#B8528B"/>
<stop offset="0.5647" stop-color="#F88A7D"/>
<stop offset="0.5799" stop-color="#FB8D7B"/>
<stop offset="0.8321" stop-color="#FACF60"/>
<stop offset="1" stop-color="#F8F74B"/>
</linearGradient>
</defs>
</svg>
