<svg width="178" height="200" viewBox="0 0 178 200" fill="none" xmlns="http://www.w3.org/2000/svg">
<g filter="url(#filter0_dd)">
<path d="M89 11L162.612 53.5V138.5L89 181L15.3878 138.5V53.5L89 11Z" fill="white"/>
</g>
<path d="M75.7942 104L74.5202 100.334H66.7722L65.4982 104H62.2482L68.8522 85.8H72.4402L79.0182 104H75.7942ZM67.7602 97.526H73.5322L70.6462 89.31L67.7602 97.526ZM88.8957 104.338C86.1571 104.338 83.8864 103.437 82.0837 101.634C80.2811 99.814 79.3797 97.5693 79.3797 94.9C79.3797 92.2307 80.2811 89.9947 82.0837 88.192C83.8864 86.372 86.1571 85.462 88.8957 85.462C90.5424 85.462 92.0591 85.852 93.4457 86.632C94.8497 87.412 95.9417 88.4693 96.7217 89.804L94.1217 91.312C93.6364 90.4107 92.9257 89.7 91.9897 89.18C91.0711 88.6427 90.0397 88.374 88.8957 88.374C86.9544 88.374 85.3771 88.9893 84.1637 90.22C82.9677 91.4507 82.3697 93.0107 82.3697 94.9C82.3697 96.7893 82.9677 98.3493 84.1637 99.58C85.3771 100.811 86.9544 101.426 88.8957 101.426C90.0397 101.426 91.0797 101.166 92.0157 100.646C92.9517 100.109 93.6537 99.3893 94.1217 98.488L96.7217 99.97C95.9591 101.305 94.8757 102.371 93.4717 103.168C92.0851 103.948 90.5597 104.338 88.8957 104.338ZM109.918 94.562C110.715 94.978 111.339 95.55 111.79 96.278C112.24 97.006 112.466 97.8467 112.466 98.8C112.466 100.291 111.937 101.53 110.88 102.518C109.822 103.506 108.531 104 107.006 104H99.2057V85.8H106.434C107.924 85.8 109.181 86.2853 110.204 87.256C111.244 88.2093 111.764 89.4053 111.764 90.844C111.764 92.4213 111.148 93.6607 109.918 94.562ZM106.434 88.608H102.196V93.392H106.434C107.092 93.392 107.647 93.1667 108.098 92.716C108.548 92.248 108.774 91.676 108.774 91C108.774 90.324 108.548 89.7607 108.098 89.31C107.647 88.842 107.092 88.608 106.434 88.608ZM107.006 101.192C107.699 101.192 108.28 100.949 108.748 100.464C109.233 99.9613 109.476 99.3547 109.476 98.644C109.476 97.9333 109.233 97.3353 108.748 96.85C108.28 96.3473 107.699 96.096 107.006 96.096H102.196V101.192H107.006ZM115.075 85.8H118.065V104H115.075V85.8Z" fill="#3D3D50"/>
<defs>
<filter id="filter0_dd" x="0.387695" y="0" width="177.224" height="200" filterUnits="userSpaceOnUse" color-interpolation-filters="sRGB">
<feFlood flood-opacity="0" result="BackgroundImageFix"/>
<feColorMatrix in="SourceAlpha" type="matrix" values="0 0 0 0 0 0 0 0 0 0 0 0 0 0 0 0 0 0 127 0"/>
<feOffset dy="4"/>
<feGaussianBlur stdDeviation="7.5"/>
<feColorMatrix type="matrix" values="0 0 0 0 0.796078 0 0 0 0 0.823529 0 0 0 0 0.866667 0 0 0 1 0"/>
<feBlend mode="normal" in2="BackgroundImageFix" result="effect1_dropShadow"/>
<feColorMatrix in="SourceAlpha" type="matrix" values="0 0 0 0 0 0 0 0 0 0 0 0 0 0 0 0 0 0 127 0"/>
<feOffset dy="4"/>
<feGaussianBlur stdDeviation="2"/>
<feColorMatrix type="matrix" values="0 0 0 0 0 0 0 0 0 0 0 0 0 0 0 0 0 0 0.25 0"/>
<feBlend mode="normal" in2="effect1_dropShadow" result="effect2_dropShadow"/>
<feBlend mode="normal" in="SourceGraphic" in2="effect2_dropShadow" result="shape"/>
</filter>
</defs>
</svg>
