<svg width="178" height="200" viewBox="0 0 178 200" fill="none" xmlns="http://www.w3.org/2000/svg">
<g filter="url(#filter0_dd)">
<path d="M89 11L162.612 53.5V138.5L89 181L15.3878 138.5V53.5L89 11Z" fill="white"/>
</g>
<path d="M76.2512 104L74.9772 100.334H67.2292L65.9552 104H62.7052L69.3092 85.8H72.8972L79.4752 104H76.2512ZM68.2172 97.526H73.9892L71.1032 89.31L68.2172 97.526ZM89.3528 104.338C86.6141 104.338 84.3434 103.437 82.5408 101.634C80.7381 99.814 79.8368 97.5693 79.8368 94.9C79.8368 92.2307 80.7381 89.9947 82.5408 88.192C84.3434 86.372 86.6141 85.462 89.3528 85.462C90.9994 85.462 92.5161 85.852 93.9028 86.632C95.3068 87.412 96.3988 88.4693 97.1788 89.804L94.5788 91.312C94.0934 90.4107 93.3828 89.7 92.4468 89.18C91.5281 88.6427 90.4968 88.374 89.3528 88.374C87.4114 88.374 85.8341 88.9893 84.6208 90.22C83.4248 91.4507 82.8268 93.0107 82.8268 94.9C82.8268 96.7893 83.4248 98.3493 84.6208 99.58C85.8341 100.811 87.4114 101.426 89.3528 101.426C90.4968 101.426 91.5368 101.166 92.4728 100.646C93.4088 100.109 94.1108 99.3893 94.5788 98.488L97.1788 99.97C96.4161 101.305 95.3328 102.371 93.9288 103.168C92.5421 103.948 91.0168 104.338 89.3528 104.338ZM105.721 104.338C103.97 104.338 102.479 103.939 101.249 103.142C100.035 102.345 99.1861 101.253 98.7008 99.866L101.275 98.358C102.003 100.403 103.511 101.426 105.799 101.426C106.925 101.426 107.766 101.209 108.321 100.776C108.893 100.325 109.179 99.7447 109.179 99.034C109.179 98.2887 108.875 97.7253 108.269 97.344C107.662 96.9453 106.587 96.512 105.045 96.044C104.178 95.784 103.476 95.5413 102.939 95.316C102.401 95.0907 101.829 94.7787 101.223 94.38C100.633 93.964 100.191 93.4527 99.8968 92.846C99.6021 92.2393 99.4548 91.5287 99.4548 90.714C99.4548 89.102 100.027 87.828 101.171 86.892C102.315 85.9387 103.693 85.462 105.305 85.462C106.761 85.462 108.035 85.8173 109.127 86.528C110.219 87.2387 111.059 88.218 111.649 89.466L109.127 90.922C108.364 89.2233 107.09 88.374 105.305 88.374C104.438 88.374 103.745 88.582 103.225 88.998C102.705 89.3967 102.445 89.9427 102.445 90.636C102.445 91.312 102.705 91.8493 103.225 92.248C103.762 92.6293 104.724 93.0367 106.111 93.47C106.804 93.6953 107.307 93.8687 107.619 93.99C107.948 94.094 108.399 94.2673 108.971 94.51C109.56 94.7527 110.002 94.9953 110.297 95.238C110.591 95.4807 110.903 95.784 111.233 96.148C111.579 96.512 111.822 96.928 111.961 97.396C112.099 97.864 112.169 98.3927 112.169 98.982C112.169 100.629 111.571 101.937 110.375 102.908C109.196 103.861 107.645 104.338 105.721 104.338ZM114.618 85.8H117.608V104H114.618V85.8Z" fill="#3D3D50"/>
<defs>
<filter id="filter0_dd" x="0.387695" y="0" width="177.224" height="200" filterUnits="userSpaceOnUse" color-interpolation-filters="sRGB">
<feFlood flood-opacity="0" result="BackgroundImageFix"/>
<feColorMatrix in="SourceAlpha" type="matrix" values="0 0 0 0 0 0 0 0 0 0 0 0 0 0 0 0 0 0 127 0"/>
<feOffset dy="4"/>
<feGaussianBlur stdDeviation="7.5"/>
<feColorMatrix type="matrix" values="0 0 0 0 0.796078 0 0 0 0 0.823529 0 0 0 0 0.866667 0 0 0 1 0"/>
<feBlend mode="normal" in2="BackgroundImageFix" result="effect1_dropShadow"/>
<feColorMatrix in="SourceAlpha" type="matrix" values="0 0 0 0 0 0 0 0 0 0 0 0 0 0 0 0 0 0 127 0"/>
<feOffset dy="4"/>
<feGaussianBlur stdDeviation="2"/>
<feColorMatrix type="matrix" values="0 0 0 0 0 0 0 0 0 0 0 0 0 0 0 0 0 0 0.25 0"/>
<feBlend mode="normal" in2="effect1_dropShadow" result="effect2_dropShadow"/>
<feBlend mode="normal" in="SourceGraphic" in2="effect2_dropShadow" result="shape"/>
</filter>
</defs>
</svg>
