<svg width="178" height="200" viewBox="0 0 178 200" fill="none" xmlns="http://www.w3.org/2000/svg">
<g filter="url(#filter0_dd)">
<path d="M89 11L162.612 53.5V138.5L89 181L15.3878 138.5V53.5L89 11Z" fill="white"/>
</g>
<path d="M76.1223 90L74.8483 86.334H67.1003L65.8263 90H62.5763L69.1803 71.8H72.7683L79.3463 90H76.1223ZM68.0883 83.526H73.8603L70.9743 75.31L68.0883 83.526ZM95.3174 76.662C96.7907 76.662 97.9781 77.1387 98.8794 78.092C99.7807 79.0453 100.231 80.328 100.231 81.94V90H97.4234V82.122C97.4234 81.2207 97.1981 80.5273 96.7474 80.042C96.2967 79.5393 95.6814 79.288 94.9014 79.288C94.0347 79.288 93.3414 79.574 92.8214 80.146C92.3187 80.718 92.0674 81.576 92.0674 82.72V90H89.2594V82.122C89.2594 81.2207 89.0427 80.5273 88.6094 80.042C88.1934 79.5393 87.5954 79.288 86.8154 79.288C85.9661 79.288 85.2727 79.5827 84.7354 80.172C84.1981 80.744 83.9294 81.5933 83.9294 82.72V90H81.1214V77H83.9294V78.56C84.7614 77.2947 86.0007 76.662 87.6474 76.662C89.3114 76.662 90.5421 77.3467 91.3394 78.716C92.2061 77.3467 93.5321 76.662 95.3174 76.662ZM105.889 74.53C105.542 74.8767 105.126 75.05 104.641 75.05C104.155 75.05 103.731 74.8767 103.367 74.53C103.02 74.166 102.847 73.7413 102.847 73.256C102.847 72.7707 103.02 72.3547 103.367 72.008C103.713 71.644 104.138 71.462 104.641 71.462C105.143 71.462 105.568 71.644 105.915 72.008C106.261 72.3547 106.435 72.7707 106.435 73.256C106.435 73.7413 106.253 74.166 105.889 74.53ZM103.237 90V77H106.045V90H103.237ZM112.113 79.184C112.824 77.572 114.158 76.766 116.117 76.766V79.808C115.042 79.7387 114.106 79.9987 113.309 80.588C112.512 81.16 112.113 82.1133 112.113 83.448V90H109.305V77H112.113V79.184ZM71.2761 97.8V116H68.2861V103.026L62.7481 112.178H62.3841L56.8461 103V116H53.8561V97.8H57.0801L62.5661 106.9L68.0781 97.8H71.2761ZM76.933 110.696C77.141 111.684 77.6176 112.447 78.363 112.984C79.1083 113.504 80.0183 113.764 81.093 113.764C82.5836 113.764 83.7016 113.227 84.447 112.152L86.761 113.504C85.4783 115.393 83.5803 116.338 81.067 116.338C78.9523 116.338 77.245 115.697 75.945 114.414C74.645 113.114 73.995 111.476 73.995 109.5C73.995 107.559 74.6363 105.938 75.919 104.638C77.2016 103.321 78.8483 102.662 80.859 102.662C82.7656 102.662 84.3256 103.329 85.539 104.664C86.7696 105.999 87.385 107.619 87.385 109.526C87.385 109.821 87.3503 110.211 87.281 110.696H76.933ZM76.907 108.408H84.551C84.3603 107.351 83.9183 106.553 83.225 106.016C82.549 105.479 81.7516 105.21 80.833 105.21C79.793 105.21 78.9263 105.496 78.233 106.068C77.5396 106.64 77.0976 107.42 76.907 108.408ZM100.076 97.8H102.884V116H100.076V114.128C99.0183 115.601 97.5016 116.338 95.5256 116.338C93.7403 116.338 92.2149 115.679 90.9496 114.362C89.6843 113.027 89.0516 111.407 89.0516 109.5C89.0516 107.576 89.6843 105.955 90.9496 104.638C92.2149 103.321 93.7403 102.662 95.5256 102.662C97.5016 102.662 99.0183 103.39 100.076 104.846V97.8ZM93.0296 112.49C93.8096 113.27 94.7889 113.66 95.9676 113.66C97.1463 113.66 98.1256 113.27 98.9056 112.49C99.6856 111.693 100.076 110.696 100.076 109.5C100.076 108.304 99.6856 107.316 98.9056 106.536C98.1256 105.739 97.1463 105.34 95.9676 105.34C94.7889 105.34 93.8096 105.739 93.0296 106.536C92.2496 107.316 91.8596 108.304 91.8596 109.5C91.8596 110.696 92.2496 111.693 93.0296 112.49ZM108.809 100.53C108.462 100.877 108.046 101.05 107.561 101.05C107.075 101.05 106.651 100.877 106.287 100.53C105.94 100.166 105.767 99.7413 105.767 99.256C105.767 98.7707 105.94 98.3547 106.287 98.008C106.633 97.644 107.058 97.462 107.561 97.462C108.063 97.462 108.488 97.644 108.835 98.008C109.181 98.3547 109.355 98.7707 109.355 99.256C109.355 99.7413 109.173 100.166 108.809 100.53ZM106.157 116V103H108.965V116H106.157ZM122.521 103H125.329V116H122.521V114.128C121.464 115.601 119.947 116.338 117.971 116.338C116.186 116.338 114.66 115.679 113.395 114.362C112.13 113.027 111.497 111.407 111.497 109.5C111.497 107.576 112.13 105.955 113.395 104.638C114.66 103.321 116.186 102.662 117.971 102.662C119.947 102.662 121.464 103.39 122.521 104.846V103ZM115.475 112.49C116.255 113.27 117.234 113.66 118.413 113.66C119.592 113.66 120.571 113.27 121.351 112.49C122.131 111.693 122.521 110.696 122.521 109.5C122.521 108.304 122.131 107.316 121.351 106.536C120.571 105.739 119.592 105.34 118.413 105.34C117.234 105.34 116.255 105.739 115.475 106.536C114.695 107.316 114.305 108.304 114.305 109.5C114.305 110.696 114.695 111.693 115.475 112.49Z" fill="#3D3D50"/>
<defs>
<filter id="filter0_dd" x="0.387695" y="0" width="177.224" height="200" filterUnits="userSpaceOnUse" color-interpolation-filters="sRGB">
<feFlood flood-opacity="0" result="BackgroundImageFix"/>
<feColorMatrix in="SourceAlpha" type="matrix" values="0 0 0 0 0 0 0 0 0 0 0 0 0 0 0 0 0 0 127 0"/>
<feOffset dy="4"/>
<feGaussianBlur stdDeviation="7.5"/>
<feColorMatrix type="matrix" values="0 0 0 0 0.796078 0 0 0 0 0.823529 0 0 0 0 0.866667 0 0 0 1 0"/>
<feBlend mode="normal" in2="BackgroundImageFix" result="effect1_dropShadow"/>
<feColorMatrix in="SourceAlpha" type="matrix" values="0 0 0 0 0 0 0 0 0 0 0 0 0 0 0 0 0 0 127 0"/>
<feOffset dy="4"/>
<feGaussianBlur stdDeviation="2"/>
<feColorMatrix type="matrix" values="0 0 0 0 0 0 0 0 0 0 0 0 0 0 0 0 0 0 0.25 0"/>
<feBlend mode="normal" in2="effect1_dropShadow" result="effect2_dropShadow"/>
<feBlend mode="normal" in="SourceGraphic" in2="effect2_dropShadow" result="shape"/>
</filter>
</defs>
</svg>
