<svg width="178" height="200" viewBox="0 0 178 200" fill="none" xmlns="http://www.w3.org/2000/svg">
<g filter="url(#filter0_dd)">
<path d="M89 11L162.612 53.5V138.5L89 181L15.3878 138.5V53.5L89 11Z" fill="white"/>
</g>
<path d="M76.1223 90L74.8483 86.334H67.1003L65.8263 90H62.5763L69.1803 71.8H72.7683L79.3463 90H76.1223ZM68.0883 83.526H73.8603L70.9743 75.31L68.0883 83.526ZM95.3174 76.662C96.7907 76.662 97.9781 77.1387 98.8794 78.092C99.7807 79.0453 100.231 80.328 100.231 81.94V90H97.4234V82.122C97.4234 81.2207 97.1981 80.5273 96.7474 80.042C96.2967 79.5393 95.6814 79.288 94.9014 79.288C94.0347 79.288 93.3414 79.574 92.8214 80.146C92.3187 80.718 92.0674 81.576 92.0674 82.72V90H89.2594V82.122C89.2594 81.2207 89.0427 80.5273 88.6094 80.042C88.1934 79.5393 87.5954 79.288 86.8154 79.288C85.9661 79.288 85.2727 79.5827 84.7354 80.172C84.1981 80.744 83.9294 81.5933 83.9294 82.72V90H81.1214V77H83.9294V78.56C84.7614 77.2947 86.0007 76.662 87.6474 76.662C89.3114 76.662 90.5421 77.3467 91.3394 78.716C92.2061 77.3467 93.5321 76.662 95.3174 76.662ZM105.889 74.53C105.542 74.8767 105.126 75.05 104.641 75.05C104.155 75.05 103.731 74.8767 103.367 74.53C103.02 74.166 102.847 73.7413 102.847 73.256C102.847 72.7707 103.02 72.3547 103.367 72.008C103.713 71.644 104.138 71.462 104.641 71.462C105.143 71.462 105.568 71.644 105.915 72.008C106.261 72.3547 106.435 72.7707 106.435 73.256C106.435 73.7413 106.253 74.166 105.889 74.53ZM103.237 90V77H106.045V90H103.237ZM112.113 79.184C112.824 77.572 114.158 76.766 116.117 76.766V79.808C115.042 79.7387 114.106 79.9987 113.309 80.588C112.512 81.16 112.113 82.1133 112.113 83.448V90H109.305V77H112.113V79.184ZM62.3258 116L58.4778 109.37H54.9418V116H51.9518V97.8H59.2318C60.8612 97.8 62.2392 98.372 63.3658 99.516C64.5098 100.643 65.0818 102.021 65.0818 103.65C65.0818 104.811 64.7438 105.877 64.0678 106.848C63.4092 107.801 62.5425 108.495 61.4678 108.928L65.6018 116H62.3258ZM54.9418 100.608V106.692H59.2318C60.0292 106.692 60.7052 106.397 61.2598 105.808C61.8145 105.219 62.0918 104.499 62.0918 103.65C62.0918 102.801 61.8145 102.081 61.2598 101.492C60.7052 100.903 60.0292 100.608 59.2318 100.608H54.9418ZM77.3256 103H80.1336V116H77.3256V114.128C76.2683 115.601 74.7516 116.338 72.7756 116.338C70.9903 116.338 69.4649 115.679 68.1996 114.362C66.9343 113.027 66.3016 111.407 66.3016 109.5C66.3016 107.576 66.9343 105.955 68.1996 104.638C69.4649 103.321 70.9903 102.662 72.7756 102.662C74.7516 102.662 76.2683 103.39 77.3256 104.846V103ZM70.2796 112.49C71.0596 113.27 72.0389 113.66 73.2176 113.66C74.3963 113.66 75.3756 113.27 76.1556 112.49C76.9356 111.693 77.3256 110.696 77.3256 109.5C77.3256 108.304 76.9356 107.316 76.1556 106.536C75.3756 105.739 74.3963 105.34 73.2176 105.34C72.0389 105.34 71.0596 105.739 70.2796 106.536C69.4996 107.316 69.1096 108.304 69.1096 109.5C69.1096 110.696 69.4996 111.693 70.2796 112.49ZM90.6606 105.704H87.4366V111.944C87.4366 112.481 87.5579 112.871 87.8006 113.114C88.0432 113.339 88.3986 113.469 88.8666 113.504C89.3519 113.521 89.9499 113.513 90.6606 113.478V116C88.5112 116.26 86.9686 116.078 86.0326 115.454C85.0966 114.813 84.6286 113.643 84.6286 111.944V105.704H82.2366V103H84.6286V100.192L87.4366 99.36V103H90.6606V105.704ZM95.8593 100.53C95.5127 100.877 95.0967 101.05 94.6113 101.05C94.126 101.05 93.7013 100.877 93.3373 100.53C92.9907 100.166 92.8173 99.7413 92.8173 99.256C92.8173 98.7707 92.9907 98.3547 93.3373 98.008C93.684 97.644 94.1087 97.462 94.6113 97.462C95.114 97.462 95.5387 97.644 95.8853 98.008C96.232 98.3547 96.4053 98.7707 96.4053 99.256C96.4053 99.7413 96.2233 100.166 95.8593 100.53ZM93.2073 116V103H96.0153V116H93.2073ZM106.114 102.662C107.604 102.662 108.809 103.139 109.728 104.092C110.646 105.045 111.106 106.354 111.106 108.018V116H108.298V108.304C108.298 107.333 108.038 106.588 107.518 106.068C106.998 105.548 106.287 105.288 105.386 105.288C104.398 105.288 103.6 105.6 102.994 106.224C102.387 106.831 102.084 107.767 102.084 109.032V116H99.2757V103H102.084V104.664C102.933 103.329 104.276 102.662 106.114 102.662ZM124.477 103H127.233V115.402C127.233 117.378 126.583 118.895 125.283 119.952C123.983 121.009 122.406 121.538 120.551 121.538C117.553 121.538 115.499 120.489 114.389 118.392L116.807 116.988C117.483 118.323 118.749 118.99 120.603 118.99C121.817 118.99 122.761 118.669 123.437 118.028C124.131 117.404 124.477 116.529 124.477 115.402V113.816C123.42 115.324 121.912 116.078 119.953 116.078C118.116 116.078 116.565 115.428 115.299 114.128C114.034 112.811 113.401 111.225 113.401 109.37C113.401 107.515 114.034 105.938 115.299 104.638C116.565 103.321 118.116 102.662 119.953 102.662C121.912 102.662 123.42 103.416 124.477 104.924V103ZM117.379 112.282C118.177 113.062 119.165 113.452 120.343 113.452C121.522 113.452 122.501 113.062 123.281 112.282C124.079 111.502 124.477 110.531 124.477 109.37C124.477 108.209 124.079 107.238 123.281 106.458C122.501 105.678 121.522 105.288 120.343 105.288C119.165 105.288 118.177 105.678 117.379 106.458C116.599 107.238 116.209 108.209 116.209 109.37C116.209 110.531 116.599 111.502 117.379 112.282Z" fill="#3D3D50"/>
<defs>
<filter id="filter0_dd" x="0.387695" y="0" width="177.224" height="200" filterUnits="userSpaceOnUse" color-interpolation-filters="sRGB">
<feFlood flood-opacity="0" result="BackgroundImageFix"/>
<feColorMatrix in="SourceAlpha" type="matrix" values="0 0 0 0 0 0 0 0 0 0 0 0 0 0 0 0 0 0 127 0"/>
<feOffset dy="4"/>
<feGaussianBlur stdDeviation="7.5"/>
<feColorMatrix type="matrix" values="0 0 0 0 0.796078 0 0 0 0 0.823529 0 0 0 0 0.866667 0 0 0 1 0"/>
<feBlend mode="normal" in2="BackgroundImageFix" result="effect1_dropShadow"/>
<feColorMatrix in="SourceAlpha" type="matrix" values="0 0 0 0 0 0 0 0 0 0 0 0 0 0 0 0 0 0 127 0"/>
<feOffset dy="4"/>
<feGaussianBlur stdDeviation="2"/>
<feColorMatrix type="matrix" values="0 0 0 0 0 0 0 0 0 0 0 0 0 0 0 0 0 0 0.25 0"/>
<feBlend mode="normal" in2="effect1_dropShadow" result="effect2_dropShadow"/>
<feBlend mode="normal" in="SourceGraphic" in2="effect2_dropShadow" result="shape"/>
</filter>
</defs>
</svg>
