<svg width="178" height="200" viewBox="0 0 178 200" fill="none" xmlns="http://www.w3.org/2000/svg">
<g filter="url(#filter0_dd)">
<path d="M89 11L162.612 53.5V138.5L89 181L15.3878 138.5V53.5L89 11Z" fill="white"/>
</g>
<path fill-rule="evenodd" clip-rule="evenodd" d="M56.143 66.8984L53.2367 70.1912L55.4209 75.3629L52.4424 72.1775L49.7528 75.685L51.4857 70.2985L48.3447 67.3458L52.3341 69.3322L56.143 66.8984Z" fill="#EBCA30"/>
<path fill-rule="evenodd" clip-rule="evenodd" d="M52.2247 66.504C51.7012 66.5398 51.3041 67.0229 51.3402 67.5956C51.3582 68.1682 51.7915 68.6156 52.315 68.5798C52.8384 68.544 53.2356 68.0608 53.1995 67.4882C53.1634 66.9156 52.7301 66.4682 52.2247 66.504Z" fill="#EBCA30"/>
<path fill-rule="evenodd" clip-rule="evenodd" d="M51.3574 130.23L54.2637 126.937L52.0795 121.765L55.058 124.951L57.7476 121.443L56.0147 126.83L59.1556 129.783L55.1663 127.796L51.3574 130.23Z" fill="#EBCA30"/>
<path fill-rule="evenodd" clip-rule="evenodd" d="M55.2769 130.623C55.7823 130.587 56.1975 130.104 56.1614 129.531C56.1433 128.959 55.7101 128.511 55.1866 128.547C54.6631 128.583 54.266 129.066 54.3021 129.639C54.3201 130.211 54.7714 130.641 55.2769 130.623Z" fill="#EBCA30"/>
<path fill-rule="evenodd" clip-rule="evenodd" d="M23.377 96.0498L26.4998 99.1099L31.3918 96.8014L28.3772 99.951L31.6987 102.796L26.6081 100.971L23.8102 104.3L25.6875 100.094L23.377 96.0498Z" fill="#EBCA30"/>
<path fill-rule="evenodd" clip-rule="evenodd" d="M23.0006 100.2C23.0186 100.737 23.488 101.167 24.0295 101.149C24.5711 101.131 24.9862 100.666 24.9682 100.129C24.9321 99.5918 24.4808 99.1623 23.9393 99.1802C23.3977 99.1981 22.9825 99.6455 23.0006 100.2Z" fill="#EBCA30"/>
<path fill-rule="evenodd" clip-rule="evenodd" d="M76.5246 78.3141L72.2645 78.4752L70.351 83.7543L70.369 79.2626L66.127 79.7279L70.9467 77.2046L70.712 72.7666L72.2103 77.1509L76.5246 78.3141Z" fill="#EBCA30"/>
<path fill-rule="evenodd" clip-rule="evenodd" d="M74.0138 75.0946C73.6348 74.7367 73.021 74.7725 72.66 75.202C72.2989 75.6136 72.2989 76.2578 72.6961 76.6157C73.0752 76.9736 73.6889 76.9378 74.0499 76.5083C74.411 76.0967 74.3929 75.4704 74.0138 75.0946Z" fill="#EBCA30"/>
<path fill-rule="evenodd" clip-rule="evenodd" d="M30.7637 119.51L35.0238 119.349L36.9373 114.07L36.9192 118.562L41.1613 118.097L36.3235 120.584L36.5763 125.022L35.078 120.638L30.7637 119.51Z" fill="#EBCA30"/>
<path fill-rule="evenodd" clip-rule="evenodd" d="M33.2725 122.713C33.6516 123.071 34.2654 123.035 34.6264 122.606C34.9874 122.194 34.9874 121.55 34.5903 121.192C34.2112 120.834 33.5975 120.87 33.2364 121.3C32.8754 121.711 32.8934 122.355 33.2725 122.713Z" fill="#EBCA30"/>
<path fill-rule="evenodd" clip-rule="evenodd" d="M72.8424 122.803L72.68 118.294L67.6797 116.272L71.9218 116.29L71.4705 111.798L73.8533 116.898L78.0593 116.647L73.9074 118.222L72.8424 122.803Z" fill="#EBCA30"/>
<path fill-rule="evenodd" clip-rule="evenodd" d="M75.8722 120.136C76.2151 119.724 76.179 119.08 75.7819 118.704C75.3848 118.311 74.7891 118.329 74.428 118.74C74.0851 119.152 74.1212 119.796 74.5364 120.172C74.9154 120.548 75.5292 120.548 75.8722 120.136Z" fill="#EBCA30"/>
<path fill-rule="evenodd" clip-rule="evenodd" d="M33.8497 74.4316L34.0121 78.9234L39.0124 80.9455L34.7703 80.9276L35.2216 85.4193L32.8388 80.3192L28.6328 80.5697L32.7847 78.9949L33.8497 74.4316Z" fill="#EBCA30"/>
<path fill-rule="evenodd" clip-rule="evenodd" d="M30.8174 77.0793C30.4745 77.4909 30.5106 78.1351 30.9077 78.5109C31.3048 78.9046 31.9005 78.8867 32.2616 78.4751C32.6045 78.0635 32.5684 77.4193 32.1533 77.0435C31.7561 76.6677 31.1604 76.6856 30.8174 77.0793Z" fill="#EBCA30"/>
<path fill-rule="evenodd" clip-rule="evenodd" d="M63.7978 68.7414L60.1875 71.1393L61.0179 76.7227L58.9058 72.8215L55.458 75.47L58.4545 70.7457L56.144 67.0234L59.5196 70.0298L63.7978 68.7414Z" fill="#EBCA30"/>
<path fill-rule="evenodd" clip-rule="evenodd" d="M60.0967 67.2915C59.5913 67.1841 59.0858 67.542 58.9775 68.0968C58.8512 68.6515 59.1761 69.2063 59.6815 69.3136C60.187 69.421 60.6924 69.0631 60.8007 68.5084C60.909 67.9357 60.6021 67.3989 60.0967 67.2915Z" fill="#EBCA30"/>
<path fill-rule="evenodd" clip-rule="evenodd" d="M43.6494 128.6L47.2597 126.202L46.4293 120.619L48.5233 124.52L51.9711 121.872L48.9746 126.596L51.2852 130.318L47.9096 127.312L43.6494 128.6Z" fill="#EBCA30"/>
<path fill-rule="evenodd" clip-rule="evenodd" d="M47.3527 130.05C47.8581 130.157 48.3636 129.799 48.4719 129.245C48.5982 128.69 48.2733 128.135 47.7679 128.028C47.2624 127.92 46.757 128.278 46.6487 128.833C46.5403 129.388 46.8472 129.943 47.3527 130.05Z" fill="#EBCA30"/>
<path fill-rule="evenodd" clip-rule="evenodd" d="M25.0016 87.9238L27.258 91.7355L32.5471 90.8408L28.8646 93.0598L31.3737 96.7104L26.897 93.5429L23.377 95.9946L26.211 92.4334L25.0016 87.9238Z" fill="#EBCA30"/>
<path fill-rule="evenodd" clip-rule="evenodd" d="M23.6303 91.8252C23.522 92.362 23.865 92.8989 24.3885 93.0242C24.912 93.1494 25.4355 92.8273 25.5438 92.2905C25.6521 91.7536 25.3091 91.2167 24.7856 91.0915C24.2441 90.9662 23.7387 91.3062 23.6303 91.8252Z" fill="#EBCA30"/>
<path fill-rule="evenodd" clip-rule="evenodd" d="M80.6735 85.3298L76.5217 84.3276L73.3808 88.9088L74.4999 84.5782L70.2939 83.8624L75.565 82.7528L76.4134 78.4043L76.7744 83.0392L80.6735 85.3298Z" fill="#EBCA30"/>
<path fill-rule="evenodd" clip-rule="evenodd" d="M79.0316 81.5551C78.7427 81.0898 78.147 80.9825 77.6958 81.2867C77.2445 81.5909 77.1001 82.2172 77.3708 82.6646C77.6597 83.1299 78.2554 83.2373 78.7067 82.9331C79.176 82.6288 79.3204 82.0025 79.0316 81.5551Z" fill="#EBCA30"/>
<path fill-rule="evenodd" clip-rule="evenodd" d="M26.3945 112.621L30.5464 113.623L33.6873 109.042L32.5681 113.373L36.7741 114.088L31.5031 115.198L30.6547 119.547L30.2936 114.912L26.3945 112.621Z" fill="#EBCA30"/>
<path fill-rule="evenodd" clip-rule="evenodd" d="M28.0374 116.396C28.3262 116.861 28.9219 116.969 29.3732 116.665C29.8245 116.36 29.9689 115.734 29.6981 115.287C29.4093 114.821 28.8136 114.714 28.3623 115.018C27.893 115.322 27.7485 115.949 28.0374 116.396Z" fill="#EBCA30"/>
<path fill-rule="evenodd" clip-rule="evenodd" d="M66.2145 127.294L67.1712 122.91L62.8389 119.581L66.9365 120.763L67.6045 116.307L68.6514 121.89L72.7672 122.785L68.3807 123.178L66.2145 127.294Z" fill="#EBCA30"/>
<path fill-rule="evenodd" clip-rule="evenodd" d="M69.8076 125.558C70.2408 125.254 70.3491 124.627 70.0603 124.144C69.7715 123.661 69.1938 123.5 68.7606 123.804C68.3273 124.108 68.2191 124.735 68.5079 125.218C68.7967 125.701 69.3743 125.862 69.8076 125.558Z" fill="#EBCA30"/>
<path fill-rule="evenodd" clip-rule="evenodd" d="M40.4033 69.9043L39.4465 74.2886L43.7789 77.6172L39.6812 76.4361L39.0133 80.892L37.9663 75.3087L33.8506 74.4139L38.2371 74.0202L40.4033 69.9043Z" fill="#EBCA30"/>
<path fill-rule="evenodd" clip-rule="evenodd" d="M36.826 71.6569C36.3928 71.9611 36.2845 72.5875 36.5733 73.0706C36.8621 73.5538 37.4398 73.7149 37.873 73.4106C38.3062 73.1064 38.4146 72.4801 38.1257 71.9969C37.8369 71.4959 37.2593 71.3527 36.826 71.6569Z" fill="#EBCA30"/>
<path fill-rule="evenodd" clip-rule="evenodd" d="M71.0159 72.7843L66.9362 74.0728L66.3225 79.6919L65.2755 75.3434L61.2861 76.9182L65.3658 73.2138L64.0841 68.9727L66.5752 72.8201L71.0159 72.7843Z" fill="#EBCA30"/>
<path fill-rule="evenodd" clip-rule="evenodd" d="M67.8222 70.3513C67.3709 70.1008 66.7933 70.2976 66.5225 70.8166C66.2698 71.3177 66.4323 71.9261 66.8836 72.1766C67.3348 72.4272 67.9125 72.2303 68.1652 71.7114C68.454 71.2103 68.2735 70.6018 67.8222 70.3513Z" fill="#EBCA30"/>
<path fill-rule="evenodd" clip-rule="evenodd" d="M36.4326 124.771L40.5122 123.482L41.126 117.863L42.173 122.212L46.1624 120.637L42.0827 124.341L43.3644 128.583L40.8913 124.735L36.4326 124.771Z" fill="#EBCA30"/>
<path fill-rule="evenodd" clip-rule="evenodd" d="M39.6454 127.223C40.0967 127.473 40.6744 127.276 40.9271 126.757C41.1798 126.256 41.0173 125.648 40.566 125.397C40.1148 125.147 39.5371 125.344 39.2844 125.862C39.0136 126.346 39.1761 126.954 39.6454 127.223Z" fill="#EBCA30"/>
<path fill-rule="evenodd" clip-rule="evenodd" d="M28.7758 80.2998L29.9853 84.6126L35.3105 85.2568L31.1947 86.3484L32.693 90.5717L29.191 86.2589L25.1836 87.619L28.83 84.9884L28.7758 80.2998Z" fill="#EBCA30"/>
<path fill-rule="evenodd" clip-rule="evenodd" d="M26.467 83.6827C26.2323 84.1659 26.4309 84.7743 26.9002 85.0428C27.3696 85.3112 27.9472 85.1322 28.1999 84.6491C28.4346 84.1659 28.236 83.5575 27.7667 83.289C27.2793 83.0206 26.7017 83.1996 26.467 83.6827Z" fill="#EBCA30"/>
<path fill-rule="evenodd" clip-rule="evenodd" d="M83.0784 93.5624L79.3237 91.415L75.1358 94.9403L77.302 91.0928L73.4209 89.2138L78.7822 89.6433L80.7317 85.6885L79.9194 90.2697L83.0784 93.5624Z" fill="#EBCA30"/>
<path fill-rule="evenodd" clip-rule="evenodd" d="M82.4636 89.4459C82.3011 88.9269 81.7596 88.6406 81.2361 88.8017C80.7126 88.9627 80.4238 89.5175 80.5862 90.0364C80.7487 90.5554 81.2902 90.8417 81.8137 90.6807C82.3192 90.5196 82.608 89.9649 82.4636 89.4459Z" fill="#EBCA30"/>
<path fill-rule="evenodd" clip-rule="evenodd" d="M23.8486 104.478L27.6033 106.625L31.7913 103.1L29.6071 106.947L33.4881 108.826L28.1268 108.397L26.2134 112.351L27.0257 107.77L23.8486 104.478Z" fill="#EBCA30"/>
<path fill-rule="evenodd" clip-rule="evenodd" d="M24.4801 108.593C24.6426 109.112 25.1841 109.398 25.7076 109.237C26.2311 109.076 26.5199 108.521 26.3755 108.003C26.2131 107.484 25.6715 107.197 25.148 107.358C24.6245 107.519 24.3177 108.074 24.4801 108.593Z" fill="#EBCA30"/>
<path fill-rule="evenodd" clip-rule="evenodd" d="M58.5092 129.907L60.5309 125.952L57.1914 121.514L60.8378 123.805L62.6068 119.707L62.2097 125.38L65.9464 127.42L61.614 126.561L58.5092 129.907Z" fill="#EBCA30"/>
<path fill-rule="evenodd" clip-rule="evenodd" d="M62.4055 129.245C62.8929 129.084 63.1637 128.511 63.0192 127.957C62.8568 127.402 62.3333 127.098 61.8459 127.259C61.3585 127.42 61.0877 127.993 61.2321 128.547C61.3946 129.102 61.9181 129.406 62.4055 129.245Z" fill="#EBCA30"/>
<path fill-rule="evenodd" clip-rule="evenodd" d="M48.1799 67.3086L46.1401 71.2634L49.4796 75.7015L45.8332 73.4109L44.0641 77.5089L44.4613 71.8361L40.7246 69.796L45.057 70.655L48.1799 67.3086Z" fill="#EBCA30"/>
<path fill-rule="evenodd" clip-rule="evenodd" d="M44.3019 67.9717C43.8145 68.1328 43.5438 68.7054 43.6882 69.2602C43.8507 69.8149 44.3742 70.1191 44.8615 69.9581C45.3489 69.797 45.6197 69.2244 45.4753 68.6696C45.3128 68.1149 44.7893 67.8107 44.3019 67.9717Z" fill="#EBCA30"/>
<path d="M130.662 94.1512H127.34V93.7218C127.629 93.7039 127.882 93.6681 128.062 93.5965C128.261 93.5428 128.351 93.4712 128.351 93.3818C128.351 93.346 128.351 93.3102 128.333 93.2565C128.333 93.2028 128.315 93.167 128.297 93.1133L127.629 91.2164H124.813C124.705 91.5027 124.614 91.7354 124.56 91.9501C124.488 92.1649 124.434 92.3438 124.38 92.5228C124.326 92.7017 124.289 92.827 124.271 92.9344C124.253 93.0417 124.235 93.1312 124.235 93.2028C124.235 93.3639 124.362 93.4891 124.596 93.5786C124.831 93.6681 125.102 93.7218 125.391 93.7397V94.1691H122.376V93.7397C122.466 93.7397 122.593 93.7039 122.737 93.6681C122.881 93.6323 123.008 93.5786 123.098 93.507C123.242 93.3996 123.369 93.2923 123.441 93.167C123.531 93.0417 123.603 92.8807 123.676 92.6838C124.073 91.628 124.524 90.429 125.012 89.1048C125.499 87.7805 125.932 86.5994 126.311 85.5615H126.762L129.434 92.8628C129.488 93.0238 129.56 93.1491 129.633 93.2386C129.705 93.3281 129.795 93.4354 129.94 93.5249C130.03 93.5786 130.138 93.6323 130.283 93.6681C130.427 93.7039 130.535 93.7218 130.626 93.7397L130.662 94.1512ZM127.448 90.6796L126.239 87.3868L125.048 90.6796H127.448Z" fill="#EBCA30"/>
<path d="M140.587 94.1513H137.049V93.7218C137.176 93.7218 137.338 93.7039 137.537 93.686C137.735 93.6681 137.88 93.6323 137.952 93.5787C138.078 93.5071 138.151 93.4176 138.205 93.3102C138.259 93.2207 138.295 93.0955 138.295 92.9523V86.7963H138.205L135.479 94.0081H135.19L132.591 86.6532H132.518V91.6997C132.518 92.1828 132.555 92.5586 132.609 92.8092C132.663 93.0597 132.753 93.2386 132.88 93.3639C132.97 93.4534 133.132 93.525 133.385 93.5965C133.638 93.6681 133.818 93.7039 133.89 93.7218V94.1513H130.659V93.7218C130.822 93.7039 131.002 93.6681 131.201 93.6323C131.381 93.5965 131.526 93.525 131.634 93.4355C131.76 93.3281 131.851 93.1492 131.905 92.9165C131.959 92.6839 131.977 92.3081 131.977 91.7533V87.4227C131.977 87.1721 131.941 86.9753 131.887 86.8142C131.833 86.6532 131.742 86.5279 131.652 86.4205C131.544 86.3132 131.399 86.2416 131.219 86.1879C131.056 86.1342 130.876 86.0984 130.713 86.0984V85.6689H133.439L135.732 92.0218L137.699 86.7069C137.771 86.51 137.826 86.3132 137.88 86.0984C137.934 85.8837 137.952 85.7405 137.97 85.6689H140.587V86.0984C140.479 86.0984 140.353 86.1163 140.19 86.1521C140.028 86.1879 139.902 86.2058 139.829 86.2416C139.703 86.2953 139.613 86.3669 139.577 86.4742C139.522 86.5816 139.504 86.7069 139.504 86.8321V92.9344C139.504 93.0776 139.522 93.185 139.577 93.2923C139.631 93.3818 139.703 93.4713 139.829 93.5429C139.902 93.5787 140.01 93.6144 140.19 93.6502C140.371 93.686 140.497 93.7039 140.606 93.7039V94.1513H140.587Z" fill="#EBCA30"/>
<path d="M145.172 94.1529H141.562V93.7234C141.67 93.7234 141.814 93.7056 141.995 93.6877C142.193 93.6698 142.32 93.6519 142.41 93.6161C142.536 93.5624 142.627 93.4908 142.681 93.4013C142.735 93.3119 142.771 93.1866 142.771 93.0255V86.8875C142.771 86.7443 142.753 86.6369 142.717 86.5296C142.681 86.4401 142.572 86.3506 142.428 86.2969C142.32 86.2432 142.175 86.2074 141.995 86.1538C141.832 86.118 141.688 86.0822 141.58 86.0822V85.6885H145.19V86.118C145.064 86.118 144.937 86.1359 144.775 86.1538C144.612 86.1716 144.468 86.2074 144.36 86.2432C144.215 86.2969 144.125 86.3685 144.071 86.4759C144.017 86.5832 143.998 86.7085 143.998 86.8338V92.954C143.998 93.0792 144.035 93.2045 144.089 93.3119C144.143 93.4192 144.233 93.4908 144.36 93.5445C144.432 93.5803 144.576 93.6161 144.739 93.6519C144.919 93.6877 145.064 93.7056 145.19 93.7234L145.172 94.1529Z" fill="#EBCA30"/>
<path d="M153.982 94.1529H151.816C151.346 93.3655 150.913 92.6855 150.516 92.095C150.137 91.5223 149.704 90.9318 149.252 90.3055H148.44V92.9897C148.44 93.1329 148.458 93.2582 148.512 93.3476C148.548 93.455 148.639 93.5266 148.783 93.5803C148.855 93.6161 148.964 93.634 149.144 93.6519C149.307 93.6698 149.451 93.6877 149.577 93.6877V94.1171H146.184V93.6877C146.274 93.6877 146.4 93.6698 146.581 93.6519C146.743 93.634 146.87 93.5982 146.942 93.5803C147.05 93.5266 147.14 93.455 147.194 93.3476C147.249 93.2403 147.267 93.115 147.267 92.9718V86.8517C147.267 86.7085 147.249 86.5832 147.213 86.4759C147.176 86.3685 147.086 86.279 146.942 86.2253C146.852 86.1895 146.725 86.1538 146.581 86.1359C146.436 86.1001 146.31 86.0822 146.202 86.0822V85.6885H149.902C150.245 85.6885 150.552 85.7243 150.859 85.7958C151.166 85.8674 151.419 85.9927 151.671 86.1538C151.906 86.3148 152.086 86.5117 152.231 86.7801C152.375 87.0306 152.447 87.3527 152.447 87.7106C152.447 88.0328 152.393 88.3191 152.303 88.5696C152.213 88.8201 152.068 89.0349 151.888 89.2138C151.725 89.3928 151.509 89.536 151.274 89.6612C151.039 89.7865 150.769 89.8939 150.48 89.9833C150.877 90.5381 151.202 91.0034 151.473 91.3792C151.743 91.755 152.05 92.2202 152.429 92.7571C152.592 92.9897 152.754 93.1687 152.881 93.294C153.007 93.4013 153.151 93.5087 153.278 93.5803C153.368 93.634 153.494 93.6698 153.639 93.7056C153.783 93.7413 153.91 93.7413 154 93.7592L153.982 94.1529ZM151.021 87.8359C151.021 87.3169 150.877 86.9232 150.606 86.619C150.335 86.3148 149.938 86.1716 149.433 86.1716H148.476V89.8044H149.216C149.74 89.8044 150.173 89.6254 150.516 89.2854C150.841 88.9275 151.021 88.4443 151.021 87.8359Z" fill="#EBCA30"/>
<path d="M75.1158 110.939C74.2132 110.939 73.3648 110.777 72.5705 110.473C71.7762 110.169 71.0903 109.704 70.5126 109.131C69.935 108.558 69.4837 107.843 69.1588 106.984C68.8338 106.125 68.6533 105.194 68.6533 104.174C68.6533 103.154 68.8158 102.224 69.1588 101.365C69.5017 100.506 69.9711 99.754 70.5668 99.1277C71.1625 98.5013 71.8665 98.0182 72.6969 97.6781C73.5272 97.3381 74.4118 97.1592 75.3685 97.1592C76.0544 97.1592 76.6862 97.2487 77.2458 97.4276C77.8054 97.6066 78.2928 97.8034 78.6719 98.0182L79.2134 97.5171H79.9716L80.0438 102.295H79.2856C78.8524 100.828 78.3289 99.7719 77.7152 99.0919C77.1014 98.4118 76.3613 98.0718 75.4948 98.0718C74.4117 98.0718 73.5814 98.5729 73.0037 99.5929C72.4441 100.613 72.1553 102.045 72.1553 103.87C72.1553 104.908 72.2456 105.803 72.4441 106.536C72.6427 107.27 72.8954 107.861 73.2023 108.308C73.5453 108.773 73.9424 109.113 74.3937 109.328C74.845 109.543 75.3504 109.65 75.91 109.65C76.7223 109.65 77.4444 109.417 78.0762 108.952C78.708 108.487 79.2856 107.771 79.8091 106.841L80.5673 107.324C80.3146 107.861 80.0258 108.344 79.7189 108.773C79.394 109.203 79.0329 109.561 78.6177 109.865C78.1665 110.205 77.661 110.473 77.1014 110.652C76.5238 110.849 75.8739 110.939 75.1158 110.939Z" fill="#2C2A60"/>
<path d="M94.8083 110.579H88.0751V109.864C88.382 109.846 88.7611 109.774 89.1763 109.685C89.5914 109.595 89.8081 109.47 89.8081 109.327C89.8081 109.273 89.808 109.219 89.79 109.166C89.79 109.112 89.7539 109.023 89.7178 108.915L88.6708 106.213H84.4107C84.3204 106.463 84.2121 106.768 84.0857 107.09C83.9774 107.43 83.8691 107.734 83.7789 107.985C83.6706 108.325 83.5984 108.575 83.5803 108.736C83.5623 108.897 83.5442 109.005 83.5442 109.058C83.5442 109.255 83.6886 109.416 83.9594 109.559C84.2482 109.703 84.7175 109.792 85.3674 109.864V110.579H80.2949V109.864C80.4935 109.846 80.7101 109.828 80.9448 109.774C81.1794 109.72 81.378 109.649 81.5224 109.559C81.7571 109.416 81.9557 109.237 82.1181 109.023C82.2806 108.808 82.425 108.557 82.5333 108.253C83.2012 106.535 83.8872 104.799 84.5551 103.063C85.223 101.328 85.9811 99.4307 86.7935 97.3369H88.5445C89.6817 100.29 90.5662 102.634 91.2161 104.352C91.8659 106.07 92.4075 107.501 92.8587 108.629C92.9309 108.808 93.0212 108.987 93.1476 109.13C93.2559 109.273 93.4364 109.416 93.653 109.559C93.8155 109.649 93.996 109.738 94.2126 109.774C94.4292 109.828 94.6278 109.846 94.7903 109.864L94.8083 110.579ZM88.3098 105.3L86.5227 100.576L84.7536 105.3H88.3098Z" fill="#2C2A60"/>
<path d="M106.057 98.8594C106.815 99.3783 107.429 100.076 107.88 100.953C108.349 101.812 108.584 102.886 108.584 104.138C108.584 105.248 108.367 106.196 107.97 107.02C107.555 107.843 106.995 108.505 106.327 109.024C105.623 109.543 104.829 109.937 103.945 110.187C103.06 110.438 102.14 110.563 101.165 110.563H94.937V109.847C95.1175 109.847 95.3522 109.829 95.641 109.793C95.9298 109.758 96.1103 109.722 96.2006 109.686C96.4172 109.597 96.5616 109.471 96.6338 109.31C96.7241 109.149 96.7602 108.97 96.7602 108.738V99.4678C96.7602 99.2531 96.7241 99.0741 96.6519 98.8952C96.5797 98.7341 96.4353 98.591 96.2006 98.4836C95.984 98.3762 95.7493 98.3046 95.4966 98.2688C95.2439 98.233 95.0634 98.2152 94.9189 98.1973V97.4814H101.49C102.194 97.4814 102.952 97.5709 103.746 97.7678C104.54 97.9825 105.317 98.3404 106.057 98.8594ZM104.288 108.219C104.576 107.735 104.775 107.145 104.901 106.465C105.028 105.785 105.1 104.997 105.1 104.121C105.1 103.262 105.01 102.474 104.847 101.758C104.667 101.043 104.414 100.434 104.071 99.9331C103.728 99.432 103.313 99.0383 102.807 98.7699C102.302 98.5015 101.742 98.3583 101.093 98.3583C100.894 98.3583 100.659 98.3583 100.407 98.3762C100.154 98.3941 99.9553 98.3941 99.829 98.3941V108.308C99.829 108.523 99.8651 108.72 99.9192 108.899C99.9734 109.06 100.064 109.221 100.208 109.346C100.334 109.471 100.515 109.579 100.695 109.65C100.894 109.722 101.147 109.758 101.454 109.758C102.103 109.758 102.681 109.632 103.15 109.364C103.62 109.095 103.999 108.72 104.288 108.219Z" fill="#2C2A60"/>
<path d="M120.767 100.846H120.099C119.937 100.345 119.648 99.8436 119.233 99.3426C118.818 98.8415 118.421 98.5373 118.005 98.4478C117.825 98.412 117.59 98.3762 117.283 98.3762C116.977 98.3583 116.724 98.3583 116.507 98.3583H114.72V103.387H116.002C116.327 103.387 116.615 103.351 116.868 103.262C117.139 103.19 117.374 103.029 117.59 102.796C117.717 102.653 117.861 102.403 117.987 102.045C118.114 101.687 118.204 101.383 118.258 101.114H118.926V106.572H118.258C118.222 106.322 118.132 105.982 117.987 105.606C117.843 105.212 117.717 104.944 117.59 104.801C117.392 104.586 117.175 104.425 116.904 104.335C116.634 104.246 116.345 104.21 116.002 104.21H114.72V107.968C114.72 108.362 114.756 108.666 114.81 108.899C114.865 109.131 114.973 109.31 115.117 109.435C115.262 109.543 115.46 109.632 115.713 109.668C115.966 109.704 116.309 109.722 116.742 109.722C116.94 109.722 117.193 109.722 117.482 109.704C117.771 109.704 118.024 109.686 118.24 109.65C118.475 109.614 118.709 109.579 118.926 109.507C119.143 109.453 119.305 109.364 119.395 109.239C119.666 108.934 119.991 108.487 120.334 107.861C120.677 107.252 120.912 106.787 121.02 106.483H121.652L121.417 110.545H109.828V109.829C109.991 109.811 110.207 109.793 110.496 109.758C110.767 109.722 110.965 109.686 111.092 109.632C111.308 109.543 111.453 109.418 111.543 109.257C111.615 109.113 111.651 108.917 111.651 108.684V99.4678C111.651 99.2531 111.615 99.0562 111.561 98.9131C111.489 98.7699 111.344 98.6446 111.092 98.5194C110.947 98.4478 110.731 98.3762 110.46 98.3225C110.189 98.2688 109.973 98.2152 109.846 98.1973V97.4814H120.803V100.846H120.767Z" fill="#2C2A60"/>
<path d="M139.665 110.58H132.968V109.864C133.167 109.846 133.402 109.811 133.69 109.775C133.979 109.739 134.178 109.685 134.286 109.632C134.503 109.542 134.647 109.417 134.755 109.256C134.846 109.095 134.9 108.898 134.9 108.647V98.8945L130.64 110.383H129.539C129.484 110.186 129.358 109.775 129.159 109.184C128.961 108.576 128.78 108.093 128.654 107.735L125.531 98.7514V106.697C125.531 107.466 125.585 108.039 125.676 108.433C125.766 108.826 125.928 109.113 126.145 109.31C126.289 109.435 126.542 109.56 126.921 109.685C127.3 109.793 127.553 109.864 127.715 109.882V110.598H122.408V109.882C122.553 109.864 122.787 109.829 123.112 109.757C123.437 109.685 123.708 109.578 123.925 109.417C124.159 109.238 124.304 108.952 124.394 108.54C124.484 108.128 124.52 107.556 124.52 106.804V100.326C124.52 99.9325 124.466 99.6103 124.376 99.3419C124.286 99.0735 124.141 98.8766 123.961 98.7156C123.726 98.5187 123.491 98.4114 123.239 98.3398C122.986 98.2861 122.751 98.2503 122.498 98.2324V97.5166H128.203L131.253 106.124L133.817 99.1451C133.907 98.8945 133.979 98.5724 134.069 98.2324C134.16 97.8745 134.196 97.6419 134.196 97.5345H139.665V98.2503C139.485 98.2682 139.286 98.2861 139.088 98.3219C138.889 98.3577 138.691 98.4114 138.51 98.465C138.275 98.5366 138.131 98.6798 138.059 98.8408C137.987 99.0198 137.951 99.1988 137.951 99.4135V108.665C137.951 108.88 137.987 109.077 138.059 109.22C138.131 109.363 138.275 109.506 138.51 109.614C138.618 109.667 138.817 109.721 139.088 109.775C139.359 109.829 139.557 109.864 139.702 109.882V110.58H139.665Z" fill="#2C2A60"/>
<path d="M153.984 98.2324C153.768 98.2503 153.587 98.304 153.407 98.3577C153.226 98.4114 153.064 98.4829 152.901 98.5903C152.649 98.7335 152.432 98.9303 152.233 99.163C152.035 99.3956 151.854 99.6461 151.656 99.9325C151.277 100.523 150.88 101.149 150.464 101.829C150.049 102.509 149.598 103.261 149.11 104.084C148.786 104.603 148.587 105.015 148.533 105.283C148.461 105.569 148.425 106.053 148.425 106.733V108.576C148.425 108.791 148.461 108.987 148.551 109.149C148.623 109.31 148.786 109.453 149.002 109.56C149.11 109.596 149.309 109.667 149.634 109.739C149.959 109.811 150.194 109.846 150.338 109.864V110.58H143.442V109.864C143.605 109.846 143.839 109.829 144.146 109.793C144.453 109.757 144.67 109.721 144.778 109.667C144.995 109.578 145.139 109.435 145.211 109.274C145.284 109.113 145.338 108.916 145.338 108.683V106.375C145.338 106.178 145.338 105.999 145.32 105.838C145.32 105.677 145.302 105.552 145.266 105.444C145.229 105.337 145.157 105.176 145.049 104.997C144.941 104.818 144.814 104.585 144.67 104.299C144.219 103.476 143.785 102.688 143.37 101.937C142.955 101.203 142.558 100.505 142.179 99.843C141.98 99.503 141.782 99.2345 141.583 99.0377C141.384 98.823 141.186 98.6619 140.969 98.5366C140.807 98.4472 140.626 98.3756 140.392 98.3219C140.175 98.2682 139.958 98.2503 139.796 98.2324V97.5166H146.872V98.2324C146.222 98.2503 145.789 98.304 145.554 98.3756C145.32 98.4472 145.211 98.5545 145.211 98.6977C145.211 98.7693 145.247 98.8945 145.338 99.1093C145.428 99.3061 145.572 99.6282 145.789 100.04C145.988 100.434 146.276 100.988 146.655 101.686C147.035 102.384 147.486 103.207 148.027 104.138C149.129 102.295 149.887 101.006 150.302 100.272C150.717 99.5388 150.916 99.0914 150.916 98.9303C150.916 98.7156 150.789 98.5545 150.555 98.4472C150.32 98.3398 149.923 98.2682 149.381 98.2324V97.5166H153.966L153.984 98.2324Z" fill="#2C2A60"/>
<path d="M68.9244 110.561H54.4652V109.022C55.1331 108.969 55.9274 108.843 56.8299 108.629C57.7325 108.432 58.1838 108.163 58.1838 107.859C58.1838 107.752 58.1838 107.626 58.1477 107.501C58.1296 107.376 58.0755 107.197 57.9852 106.964L55.7288 101.148H46.5586C46.342 101.685 46.1254 102.329 45.8546 103.045C45.6019 103.779 45.3853 104.423 45.1867 104.978C44.9521 105.712 44.8077 106.248 44.7716 106.588C44.7355 106.911 44.6993 107.143 44.6993 107.286C44.6993 107.716 45.0062 108.074 45.6019 108.36C46.1976 108.664 47.2085 108.879 48.6165 109.004V110.543H37.7676V109.004C38.1828 108.986 38.6521 108.915 39.1575 108.79C39.681 108.682 40.0782 108.521 40.385 108.324C40.8905 108.002 41.3237 107.626 41.6847 107.161C42.0458 106.696 42.3346 106.159 42.5693 105.515C44.0134 101.81 45.4575 98.1061 46.9197 94.3839C48.3818 90.6617 49.9704 86.5637 51.7394 82.0898H55.4761C57.913 88.4427 59.8265 93.4712 61.2164 97.1577C62.6064 100.844 63.7797 103.904 64.7545 106.338C64.917 106.732 65.1156 107.09 65.3683 107.412C65.621 107.734 65.964 108.038 66.4333 108.324C66.7763 108.539 67.1915 108.7 67.6428 108.807C68.1121 108.915 68.5273 108.986 68.8883 109.004V110.561H68.9244ZM54.9706 99.2156L51.1257 89.0869L47.3349 99.2335H54.9706V99.2156Z" fill="#2C2A60"/>
<defs>
<filter id="filter0_dd" x="0.387695" y="0" width="177.224" height="200" filterUnits="userSpaceOnUse" color-interpolation-filters="sRGB">
<feFlood flood-opacity="0" result="BackgroundImageFix"/>
<feColorMatrix in="SourceAlpha" type="matrix" values="0 0 0 0 0 0 0 0 0 0 0 0 0 0 0 0 0 0 127 0"/>
<feOffset dy="4"/>
<feGaussianBlur stdDeviation="7.5"/>
<feColorMatrix type="matrix" values="0 0 0 0 0.796078 0 0 0 0 0.823529 0 0 0 0 0.866667 0 0 0 1 0"/>
<feBlend mode="normal" in2="BackgroundImageFix" result="effect1_dropShadow"/>
<feColorMatrix in="SourceAlpha" type="matrix" values="0 0 0 0 0 0 0 0 0 0 0 0 0 0 0 0 0 0 127 0"/>
<feOffset dy="4"/>
<feGaussianBlur stdDeviation="2"/>
<feColorMatrix type="matrix" values="0 0 0 0 0 0 0 0 0 0 0 0 0 0 0 0 0 0 0.25 0"/>
<feBlend mode="normal" in2="effect1_dropShadow" result="effect2_dropShadow"/>
<feBlend mode="normal" in="SourceGraphic" in2="effect2_dropShadow" result="shape"/>
</filter>
</defs>
</svg>
