<svg width="178" height="200" viewBox="0 0 178 200" fill="none" xmlns="http://www.w3.org/2000/svg">
<g filter="url(#filter0_dd)">
<path d="M89 11L162.612 53.5V138.5L89 181L15.3878 138.5V53.5L89 11Z" fill="white"/>
</g>
<path d="M57.0388 114.533C69.1458 114.533 78.9717 104.058 78.9717 91.1436C78.9717 88.0905 78.4102 85.1954 77.41 82.5283C70.4266 89.9504 61.4254 104.426 52.582 114.041C54.0208 114.375 55.4947 114.533 57.0388 114.533Z" fill="#5DB324"/>
<path d="M69.6736 72.0714C66.3398 69.5623 62.3217 68.0358 57.9878 67.8252C50.8815 71.8959 42.4067 79.3356 35.704 85.7926C35.3355 87.5121 35.1074 89.3019 35.1074 91.1618C35.1074 94.4078 35.7215 97.496 36.8445 100.286C47.1617 89.8283 64.4799 79.3005 69.6736 72.0714Z" fill="#5DB324"/>
<path d="M47.793 102.952C56.145 111.164 66.0762 88.9155 75.9022 79.3001C74.8318 77.3524 73.4983 75.5978 71.9542 74.0713C64.8304 84.3183 39.5989 94.8987 47.793 102.952Z" fill="#5DB324"/>
<path d="M36.3174 83.5297C41.3883 78.143 47.4417 72.3176 53.2496 68.1416C45.3186 69.6155 38.8791 75.5988 36.3174 83.5297Z" fill="#5DB324"/>
<path d="M24 97.7428C24 97.7428 28.9656 92.2683 35.6858 85.7937C35.8613 85.0217 36.0543 84.2672 36.3 83.5303C29.2113 91.0752 24 97.7428 24 97.7428Z" fill="#287222"/>
<path d="M57.9875 67.825C63.304 64.7719 67.8661 63.6314 70.3226 66.2633C71.7613 67.7899 71.3402 69.7726 69.6733 72.0712C70.4805 72.6853 71.2349 73.352 71.9719 74.0539C74.2003 70.8605 74.674 67.7021 71.814 64.6666C67.6555 60.2274 60.637 62.8418 53.25 68.1408C54.4782 67.9127 55.7416 67.7723 57.04 67.7723C57.3559 67.7723 57.6717 67.8074 57.9875 67.825Z" fill="#287222"/>
<path d="M36.8261 100.286C29.755 107.445 25.9825 114.586 31.65 120.622C37.5982 126.956 45.0378 122.289 52.5827 114.06C45.4589 112.498 39.616 107.252 36.8261 100.286Z" fill="#287222"/>
<path d="M87.9566 76.8956C84.0437 73.4741 79.9905 75.2989 75.9198 79.2819C76.4988 80.3171 77.0077 81.405 77.4288 82.528C81.131 78.5976 84.2543 76.6675 86.4827 78.4748C94.5891 85.0371 73.6914 109.532 73.6914 109.532C73.6914 109.532 97.3087 85.0546 87.9566 76.8956Z" fill="#287222"/>
<path d="M57.0395 67.7715C55.741 67.7715 54.4952 67.9119 53.267 68.14C47.4592 72.316 41.4057 78.1413 36.3348 83.5281C36.0892 84.265 35.8962 85.0195 35.7207 85.7915C42.4234 79.3345 50.9158 71.8773 58.0045 67.8241C57.6711 67.8066 57.3553 67.7715 57.0395 67.7715Z" fill="white"/>
<path d="M47.7936 102.954C39.5819 94.9 64.831 84.3196 71.9548 74.0726C71.2354 73.3532 70.4634 72.6864 69.6562 72.0898C64.4625 79.3189 47.1268 89.8467 36.8096 100.304C39.5819 107.27 45.4424 112.517 52.5662 114.078C61.4095 104.463 70.4107 89.9871 77.3942 82.565C76.973 81.442 76.4642 80.3541 75.8852 79.3189C66.0943 88.9167 56.1632 111.165 47.7936 102.954Z" fill="white"/>
<path d="M80.7606 118.973C83.7961 118.973 86.2526 116.359 86.2526 113.13C86.2526 109.902 83.7961 107.287 80.7606 107.287C77.725 107.287 75.2686 109.902 75.2686 113.13C75.2861 116.359 77.7426 118.973 80.7606 118.973Z" fill="#5DB324"/>
<path d="M37.3533 72.6858C40.3888 72.6858 42.8453 70.0714 42.8453 66.8429C42.8453 63.6144 40.3888 61 37.3533 61C34.3178 61 31.8613 63.6144 31.8613 66.8429C31.8613 70.0714 34.3178 72.6858 37.3533 72.6858Z" fill="#5DB324"/>
<path d="M98.1326 101.55L97.6412 99.7071H95.3076L94.7812 101.55H92.6055L95.3076 92.25H98.1326L100.87 101.55H98.1326ZM95.7462 97.6718H97.1675L96.4657 94.9696L95.7462 97.6718ZM111.152 92.2324V101.532H108.66V94.8819L107.046 101.532H105.344L103.66 94.8819V101.532H101.659V92.2324H105.151L106.414 97.1805L107.625 92.2324H111.152ZM115.363 101.55H112.678V92.25H115.363V101.55ZM124.663 101.55H121.697L120.416 97.9876H119.574V101.55H116.89V92.25H121.452C122.452 92.25 123.241 92.4956 123.785 93.0045C124.347 93.5133 124.627 94.1625 124.627 94.9872C124.627 95.5311 124.522 96.0049 124.312 96.4084C124.101 96.812 123.698 97.1805 123.066 97.4963L124.663 101.55ZM119.574 95.9873H120.715C121.048 95.9873 121.329 95.9171 121.522 95.7592C121.732 95.6013 121.838 95.3908 121.838 95.0925C121.838 94.4959 121.487 94.1976 120.802 94.1976H119.574V95.9873Z" fill="#287222"/>
<path d="M130.733 97.9874L133.189 98.1453C133.084 99.2858 132.68 100.163 131.996 100.777C131.329 101.391 130.487 101.69 129.505 101.69C128.311 101.69 127.364 101.269 126.627 100.426C125.89 99.5841 125.539 98.426 125.539 96.9697C125.539 95.5133 125.89 94.3377 126.574 93.4429C127.259 92.548 128.224 92.0918 129.469 92.0918C130.628 92.0918 131.505 92.4252 132.136 93.1095C132.768 93.7938 133.119 94.6886 133.189 95.8292L130.68 95.9695C130.68 95.3379 130.557 94.8992 130.347 94.6185C130.119 94.3377 129.855 94.1974 129.557 94.1974C128.715 94.1974 128.294 95.1098 128.294 96.917C128.294 97.9347 128.399 98.619 128.627 98.9875C128.855 99.356 129.154 99.5314 129.557 99.5314C130.259 99.5314 130.645 99.0226 130.733 97.9874ZM140.734 99.3209V101.549H134.172V92.2497H140.734V94.3904H136.786V95.7414H139.98V97.7943H136.786V99.3209H140.734ZM147.928 99.2507V101.532H141.804V92.2322H144.489V99.2507H147.928ZM154.999 99.2507V101.532H148.876V92.2322H151.56V99.2507H154.999Z" fill="#5DB324"/>
<defs>
<filter id="filter0_dd" x="0.387695" y="0" width="177.224" height="200" filterUnits="userSpaceOnUse" color-interpolation-filters="sRGB">
<feFlood flood-opacity="0" result="BackgroundImageFix"/>
<feColorMatrix in="SourceAlpha" type="matrix" values="0 0 0 0 0 0 0 0 0 0 0 0 0 0 0 0 0 0 127 0"/>
<feOffset dy="4"/>
<feGaussianBlur stdDeviation="7.5"/>
<feColorMatrix type="matrix" values="0 0 0 0 0.796078 0 0 0 0 0.823529 0 0 0 0 0.866667 0 0 0 1 0"/>
<feBlend mode="normal" in2="BackgroundImageFix" result="effect1_dropShadow"/>
<feColorMatrix in="SourceAlpha" type="matrix" values="0 0 0 0 0 0 0 0 0 0 0 0 0 0 0 0 0 0 127 0"/>
<feOffset dy="4"/>
<feGaussianBlur stdDeviation="2"/>
<feColorMatrix type="matrix" values="0 0 0 0 0 0 0 0 0 0 0 0 0 0 0 0 0 0 0.25 0"/>
<feBlend mode="normal" in2="effect1_dropShadow" result="effect2_dropShadow"/>
<feBlend mode="normal" in="SourceGraphic" in2="effect2_dropShadow" result="shape"/>
</filter>
</defs>
</svg>
