<svg width="178" height="200" viewBox="0 0 178 200" fill="none" xmlns="http://www.w3.org/2000/svg">
<g filter="url(#filter0_dd)">
<path d="M89 11L162.612 53.5V138.5L89 181L15.3878 138.5V53.5L89 11Z" fill="white"/>
</g>
<path d="M88.4879 100.768C104.225 100.768 116.976 87.1639 116.976 70.384C116.976 53.6041 104.225 40 88.4879 40C72.7508 40 60 53.6041 60 70.384C60 87.1639 72.7508 100.768 88.4879 100.768Z" fill="#FB2D30"/>
<path d="M88.4888 94.1084C100.766 94.1084 110.72 83.4906 110.72 70.3843C110.72 57.2779 100.766 46.6602 88.4888 46.6602C76.212 46.6602 66.2578 57.2779 66.2578 70.3843C66.2578 83.4906 76.212 94.1084 88.4888 94.1084Z" fill="#DDDCD4"/>
<path d="M88.487 88.9641C98.1094 88.9641 105.907 80.6452 105.907 70.3829C105.907 60.1206 98.1094 51.8018 88.487 51.8018C78.8646 51.8018 71.0909 60.1206 71.0909 70.3829C71.0672 80.6452 78.8646 88.9641 88.487 88.9641Z" fill="#34459D"/>
<path d="M114.464 113.851C112.782 110.343 110.317 107.238 107.022 104.56C103.728 101.882 98.277 98.4453 90.6217 94.2266C80.5964 88.7518 74.3633 84.628 71.9458 81.8787C70.7134 80.4804 69.789 79.0109 69.1728 77.4467C67.8456 75.053 67.0635 72.2563 67.0635 69.2464C67.0635 63.5346 69.8602 58.5338 74.0551 55.666C71.8984 56.7562 69.9076 58.1072 68.1537 59.7662C62.8923 64.6722 60.2852 70.6684 60.2852 77.7548C60.2852 81.6654 61.0198 85.1257 62.513 88.0645C64.5038 91.8803 67.5138 95.5065 71.5429 98.8956C74.0314 100.981 79.364 104.299 87.5644 108.85C95.7647 113.4 101.24 117.382 103.965 120.795C106.501 123.971 107.828 127.455 108.018 131.223C108.16 132.242 108.255 133.261 108.255 134.328C108.255 143.595 102.709 151.44 94.9826 154.355C97.7555 153.738 100.22 152.885 102.33 151.748C106.809 149.33 110.388 145.728 113.019 140.94C115.673 136.153 117 131.033 117 125.582C116.977 121.269 116.123 117.358 114.464 113.851Z" fill="#6D8DC1"/>
<defs>
<filter id="filter0_dd" x="0.387695" y="0" width="177.224" height="200" filterUnits="userSpaceOnUse" color-interpolation-filters="sRGB">
<feFlood flood-opacity="0" result="BackgroundImageFix"/>
<feColorMatrix in="SourceAlpha" type="matrix" values="0 0 0 0 0 0 0 0 0 0 0 0 0 0 0 0 0 0 127 0"/>
<feOffset dy="4"/>
<feGaussianBlur stdDeviation="7.5"/>
<feColorMatrix type="matrix" values="0 0 0 0 0.796078 0 0 0 0 0.823529 0 0 0 0 0.866667 0 0 0 1 0"/>
<feBlend mode="normal" in2="BackgroundImageFix" result="effect1_dropShadow"/>
<feColorMatrix in="SourceAlpha" type="matrix" values="0 0 0 0 0 0 0 0 0 0 0 0 0 0 0 0 0 0 127 0"/>
<feOffset dy="4"/>
<feGaussianBlur stdDeviation="2"/>
<feColorMatrix type="matrix" values="0 0 0 0 0 0 0 0 0 0 0 0 0 0 0 0 0 0 0.25 0"/>
<feBlend mode="normal" in2="effect1_dropShadow" result="effect2_dropShadow"/>
<feBlend mode="normal" in="SourceGraphic" in2="effect2_dropShadow" result="shape"/>
</filter>
</defs>
</svg>
