<svg width="178" height="200" viewBox="0 0 178 200" fill="none" xmlns="http://www.w3.org/2000/svg">
<g filter="url(#filter0_dd)">
<path d="M89 11L162.612 53.5V138.5L89 181L15.3878 138.5V53.5L89 11Z" fill="white"/>
</g>
<path d="M52.2227 71.8V90H49.2327V74.66H41.8227V90H38.8327V71.8H52.2227ZM66.6598 77V90H63.8518V79.704H59.5098V84.54C59.5098 86.6027 59.0591 88.0673 58.1578 88.934C57.2565 89.8007 55.9738 90.156 54.3098 90V87.374C55.1071 87.5127 55.7051 87.348 56.1038 86.88C56.5025 86.412 56.7018 85.5887 56.7018 84.41V77H66.6598ZM80.2279 77H83.0359V90H80.2279V88.128C79.1706 89.6013 77.6539 90.338 75.6779 90.338C73.8926 90.338 72.3673 89.6793 71.1019 88.362C69.8366 87.0273 69.2039 85.4067 69.2039 83.5C69.2039 81.576 69.8366 79.9553 71.1019 78.638C72.3673 77.3207 73.8926 76.662 75.6779 76.662C77.6539 76.662 79.1706 77.39 80.2279 78.846V77ZM73.1819 86.49C73.9619 87.27 74.9413 87.66 76.1199 87.66C77.2986 87.66 78.2779 87.27 79.0579 86.49C79.8379 85.6927 80.2279 84.696 80.2279 83.5C80.2279 82.304 79.8379 81.316 79.0579 80.536C78.2779 79.7387 77.2986 79.34 76.1199 79.34C74.9413 79.34 73.9619 79.7387 73.1819 80.536C72.4019 81.316 72.0119 82.304 72.0119 83.5C72.0119 84.696 72.4019 85.6927 73.1819 86.49ZM96.2409 77V79.704H92.0029V90H89.1949V79.704H84.9309V77H96.2409ZM106.903 77H109.711V90H106.903V84.826H100.949V90H98.1409V77H100.949V82.174H106.903V77ZM122.381 77H124.539V90H121.783V81.732L115.127 90H112.969V77H115.725V85.242L122.381 77ZM129.929 75.18V72.736H137.209V75.18H129.929ZM137.209 77H139.367V90H136.611V81.732L129.955 90H127.797V77H130.553V85.242L137.209 77ZM65.047 116H61.693L56.363 109.994V116H53.555V103H56.363V108.746L61.407 103H64.839L59.119 109.37L65.047 116ZM76.1908 103H78.9988V116H76.1908V114.128C75.1335 115.601 73.6168 116.338 71.6408 116.338C69.8555 116.338 68.3302 115.679 67.0648 114.362C65.7995 113.027 65.1668 111.407 65.1668 109.5C65.1668 107.576 65.7995 105.955 67.0648 104.638C68.3302 103.321 69.8555 102.662 71.6408 102.662C73.6168 102.662 75.1335 103.39 76.1908 104.846V103ZM69.1448 112.49C69.9248 113.27 70.9042 113.66 72.0828 113.66C73.2615 113.66 74.2408 113.27 75.0208 112.49C75.8008 111.693 76.1908 110.696 76.1908 109.5C76.1908 108.304 75.8008 107.316 75.0208 106.536C74.2408 105.739 73.2615 105.34 72.0828 105.34C70.9042 105.34 69.9248 105.739 69.1448 106.536C68.3648 107.316 67.9748 108.304 67.9748 109.5C67.9748 110.696 68.3648 111.693 69.1448 112.49ZM91.0338 103H93.8418V116H91.0338V110.826H85.0798V116H82.2718V103H85.0798V108.174H91.0338V103ZM107.396 103H110.204V116H107.396V114.128C106.339 115.601 104.822 116.338 102.846 116.338C101.061 116.338 99.5352 115.679 98.2699 114.362C97.0046 113.027 96.3719 111.407 96.3719 109.5C96.3719 107.576 97.0046 105.955 98.2699 104.638C99.5352 103.321 101.061 102.662 102.846 102.662C104.822 102.662 106.339 103.39 107.396 104.846V103ZM100.35 112.49C101.13 113.27 102.109 113.66 103.288 113.66C104.467 113.66 105.446 113.27 106.226 112.49C107.006 111.693 107.396 110.696 107.396 109.5C107.396 108.304 107.006 107.316 106.226 106.536C105.446 105.739 104.467 105.34 103.288 105.34C102.109 105.34 101.13 105.739 100.35 106.536C99.5699 107.316 99.1799 108.304 99.1799 109.5C99.1799 110.696 99.5699 111.693 100.35 112.49ZM124.449 103V116H121.641V105.704H117.299V110.54C117.299 112.603 116.848 114.067 115.947 114.934C115.046 115.801 113.763 116.156 112.099 116V113.374C112.896 113.513 113.494 113.348 113.893 112.88C114.292 112.412 114.491 111.589 114.491 110.41V103H124.449Z" fill="#3D3D50"/>
<defs>
<filter id="filter0_dd" x="0.387695" y="0" width="177.224" height="200" filterUnits="userSpaceOnUse" color-interpolation-filters="sRGB">
<feFlood flood-opacity="0" result="BackgroundImageFix"/>
<feColorMatrix in="SourceAlpha" type="matrix" values="0 0 0 0 0 0 0 0 0 0 0 0 0 0 0 0 0 0 127 0"/>
<feOffset dy="4"/>
<feGaussianBlur stdDeviation="7.5"/>
<feColorMatrix type="matrix" values="0 0 0 0 0.796078 0 0 0 0 0.823529 0 0 0 0 0.866667 0 0 0 1 0"/>
<feBlend mode="normal" in2="BackgroundImageFix" result="effect1_dropShadow"/>
<feColorMatrix in="SourceAlpha" type="matrix" values="0 0 0 0 0 0 0 0 0 0 0 0 0 0 0 0 0 0 127 0"/>
<feOffset dy="4"/>
<feGaussianBlur stdDeviation="2"/>
<feColorMatrix type="matrix" values="0 0 0 0 0 0 0 0 0 0 0 0 0 0 0 0 0 0 0.25 0"/>
<feBlend mode="normal" in2="effect1_dropShadow" result="effect2_dropShadow"/>
<feBlend mode="normal" in="SourceGraphic" in2="effect2_dropShadow" result="shape"/>
</filter>
</defs>
</svg>
