<svg width="178" height="200" viewBox="0 0 178 200" fill="none" xmlns="http://www.w3.org/2000/svg">
<g filter="url(#filter0_dd)">
<path d="M89 11L162.612 53.5V138.5L89 181L15.3878 138.5V53.5L89 11Z" fill="white"/>
</g>
<path d="M37.018 85.2V87.84H32.29V102H29.53V87.84H24.778V85.2H37.018ZM39.9126 92.016C40.5686 90.528 41.8006 89.784 43.6086 89.784V92.592C42.6166 92.528 41.7526 92.768 41.0166 93.312C40.2806 93.84 39.9126 94.72 39.9126 95.952V102H37.3206V90H39.9126V92.016ZM54.4652 90H57.0572V102H54.4652V100.272C53.4892 101.632 52.0892 102.312 50.2652 102.312C48.6172 102.312 47.2092 101.704 46.0412 100.488C44.8732 99.256 44.2892 97.76 44.2892 96C44.2892 94.224 44.8732 92.728 46.0412 91.512C47.2092 90.296 48.6172 89.688 50.2652 89.688C52.0892 89.688 53.4892 90.36 54.4652 91.704V90ZM47.9612 98.76C48.6812 99.48 49.5852 99.84 50.6732 99.84C51.7612 99.84 52.6652 99.48 53.3852 98.76C54.1052 98.024 54.4652 97.104 54.4652 96C54.4652 94.896 54.1052 93.984 53.3852 93.264C52.6652 92.528 51.7612 92.16 50.6732 92.16C49.5852 92.16 48.6812 92.528 47.9612 93.264C47.2412 93.984 46.8812 94.896 46.8812 96C46.8812 97.104 47.2412 98.024 47.9612 98.76ZM69.5824 85.2H72.1744V102H69.5824V100.272C68.6064 101.632 67.2064 102.312 65.3824 102.312C63.7344 102.312 62.3264 101.704 61.1584 100.488C59.9904 99.256 59.4064 97.76 59.4064 96C59.4064 94.224 59.9904 92.728 61.1584 91.512C62.3264 90.296 63.7344 89.688 65.3824 89.688C67.2064 89.688 68.6064 90.36 69.5824 91.704V85.2ZM63.0784 98.76C63.7984 99.48 64.7024 99.84 65.7904 99.84C66.8784 99.84 67.7824 99.48 68.5024 98.76C69.2224 98.024 69.5824 97.104 69.5824 96C69.5824 94.896 69.2224 93.984 68.5024 93.264C67.7824 92.528 66.8784 92.16 65.7904 92.16C64.7024 92.16 63.7984 92.528 63.0784 93.264C62.3584 93.984 61.9984 94.896 61.9984 96C61.9984 97.104 62.3584 98.024 63.0784 98.76ZM77.2356 97.104C77.4276 98.016 77.8676 98.72 78.5556 99.216C79.2436 99.696 80.0836 99.936 81.0756 99.936C82.4516 99.936 83.4836 99.44 84.1716 98.448L86.3076 99.696C85.1236 101.44 83.3716 102.312 81.0516 102.312C79.0996 102.312 77.5236 101.72 76.3236 100.536C75.1236 99.336 74.5236 97.824 74.5236 96C74.5236 94.208 75.1156 92.712 76.2996 91.512C77.4836 90.296 79.0036 89.688 80.8596 89.688C82.6196 89.688 84.0596 90.304 85.1796 91.536C86.3156 92.768 86.8836 94.264 86.8836 96.024C86.8836 96.296 86.8516 96.656 86.7876 97.104H77.2356ZM77.2116 94.992H84.2676C84.0916 94.016 83.6836 93.28 83.0436 92.784C82.4196 92.288 81.6836 92.04 80.8356 92.04C79.8756 92.04 79.0756 92.304 78.4356 92.832C77.7956 93.36 77.3876 94.08 77.2116 94.992ZM91.7563 92.016C92.4123 90.528 93.6443 89.784 95.4523 89.784V92.592C94.4603 92.528 93.5963 92.768 92.8603 93.312C92.1243 93.84 91.7563 94.72 91.7563 95.952V102H89.1643V90H91.7563V92.016ZM106.357 90H108.901V101.448C108.901 103.272 108.301 104.672 107.101 105.648C105.901 106.624 104.445 107.112 102.733 107.112C99.965 107.112 98.069 106.144 97.045 104.208L99.277 102.912C99.901 104.144 101.069 104.76 102.781 104.76C103.901 104.76 104.773 104.464 105.397 103.872C106.037 103.296 106.357 102.488 106.357 101.448V99.984C105.381 101.376 103.989 102.072 102.181 102.072C100.485 102.072 99.053 101.472 97.885 100.272C96.717 99.056 96.133 97.592 96.133 95.88C96.133 94.168 96.717 92.712 97.885 91.512C99.053 90.296 100.485 89.688 102.181 89.688C103.989 89.688 105.381 90.384 106.357 91.776V90ZM99.805 98.568C100.541 99.288 101.453 99.648 102.541 99.648C103.629 99.648 104.533 99.288 105.253 98.568C105.989 97.848 106.357 96.952 106.357 95.88C106.357 94.808 105.989 93.912 105.253 93.192C104.533 92.472 103.629 92.112 102.541 92.112C101.453 92.112 100.541 92.472 99.805 93.192C99.085 93.912 98.725 94.808 98.725 95.88C98.725 96.952 99.085 97.848 99.805 98.568ZM114.514 92.016C115.17 90.528 116.402 89.784 118.21 89.784V92.592C117.218 92.528 116.354 92.768 115.618 93.312C114.882 93.84 114.514 94.72 114.514 95.952V102H111.922V90H114.514V92.016ZM129.067 90H131.659V102H129.067V100.272C128.091 101.632 126.691 102.312 124.867 102.312C123.219 102.312 121.811 101.704 120.643 100.488C119.475 99.256 118.891 97.76 118.891 96C118.891 94.224 119.475 92.728 120.643 91.512C121.811 90.296 123.219 89.688 124.867 89.688C126.691 89.688 128.091 90.36 129.067 91.704V90ZM122.563 98.76C123.283 99.48 124.187 99.84 125.275 99.84C126.363 99.84 127.267 99.48 127.987 98.76C128.707 98.024 129.067 97.104 129.067 96C129.067 94.896 128.707 93.984 127.987 93.264C127.267 92.528 126.363 92.16 125.275 92.16C124.187 92.16 123.283 92.528 122.563 93.264C121.843 93.984 121.483 94.896 121.483 96C121.483 97.104 121.843 98.024 122.563 98.76ZM147.784 89.688C149.144 89.688 150.24 90.128 151.072 91.008C151.904 91.888 152.32 93.072 152.32 94.56V102H149.728V94.728C149.728 93.896 149.52 93.256 149.104 92.808C148.688 92.344 148.12 92.112 147.4 92.112C146.6 92.112 145.96 92.376 145.48 92.904C145.016 93.432 144.784 94.224 144.784 95.28V102H142.192V94.728C142.192 93.896 141.992 93.256 141.592 92.808C141.208 92.344 140.656 92.112 139.936 92.112C139.152 92.112 138.512 92.384 138.016 92.928C137.52 93.456 137.272 94.24 137.272 95.28V102H134.68V90H137.272V91.44C138.04 90.272 139.184 89.688 140.704 89.688C142.24 89.688 143.376 90.32 144.112 91.584C144.912 90.32 146.136 89.688 147.784 89.688Z" fill="#3D3D50"/>
<defs>
<filter id="filter0_dd" x="0.387695" y="0" width="177.224" height="200" filterUnits="userSpaceOnUse" color-interpolation-filters="sRGB">
<feFlood flood-opacity="0" result="BackgroundImageFix"/>
<feColorMatrix in="SourceAlpha" type="matrix" values="0 0 0 0 0 0 0 0 0 0 0 0 0 0 0 0 0 0 127 0"/>
<feOffset dy="4"/>
<feGaussianBlur stdDeviation="7.5"/>
<feColorMatrix type="matrix" values="0 0 0 0 0.796078 0 0 0 0 0.823529 0 0 0 0 0.866667 0 0 0 1 0"/>
<feBlend mode="normal" in2="BackgroundImageFix" result="effect1_dropShadow"/>
<feColorMatrix in="SourceAlpha" type="matrix" values="0 0 0 0 0 0 0 0 0 0 0 0 0 0 0 0 0 0 127 0"/>
<feOffset dy="4"/>
<feGaussianBlur stdDeviation="2"/>
<feColorMatrix type="matrix" values="0 0 0 0 0 0 0 0 0 0 0 0 0 0 0 0 0 0 0.25 0"/>
<feBlend mode="normal" in2="effect1_dropShadow" result="effect2_dropShadow"/>
<feBlend mode="normal" in="SourceGraphic" in2="effect2_dropShadow" result="shape"/>
</filter>
</defs>
</svg>
