<svg width="32" height="23"  viewBox="0 0 32 23" fill="none" xmlns="http://www.w3.org/2000/svg">
<path d="M24.6134 22.9981V15.6703C24.6134 15.1799 24.6982 12.7392 26.3613 12.7392C26.675 12.7392 27.466 12.8106 28.0105 13.4663C28.1447 13.6298 28.2729 13.7932 28.3972 13.9511C28.9042 14.5993 29.2376 14.9939 29.5808 14.9939C30.4725 14.9939 31.4668 13.5584 31.4668 11.4991C31.4668 9.43975 30.4725 8.00425 29.5808 8.00425C29.2376 8.00425 28.9062 8.39883 28.3972 9.04706C28.2729 9.20489 28.1447 9.36836 28.0105 9.53183C27.466 10.1895 26.675 10.259 26.3613 10.259C24.6963 10.259 24.6134 7.81635 24.6134 7.32783V0H16.9196C14.9912 0 10.0889 0 8.16057 0H0.466797V23H24.6134V22.9981Z" fill="#0EA0DE"/>
</svg>
