<svg width="16" height="17" viewBox="0 0 16 17" fill="none" xmlns="http://www.w3.org/2000/svg">
<path fill-rule="evenodd" clip-rule="evenodd" d="M3.47134 1.00338C2.7775 0.950003 2.03027 1.32361 1.54992 1.80397C0.695949 2.71131 0.215592 4.09901 0.322338 4.8996C0.962814 9.48968 7.04733 16.0012 11.584 16.9619C12.3313 17.122 13.7723 16.7484 14.733 15.9478C15.2668 15.4675 15.6404 14.7736 15.6938 14.0798C15.6938 13.2258 12.3313 10.8774 11.3172 11.1976C10.8368 11.3577 10.6233 12.0516 10.4098 12.4786C9.98285 13.1724 9.44912 13.0123 8.91539 12.5319C7.47432 11.3577 5.60626 9.38293 4.5388 7.83512C4.11182 7.30139 3.9517 6.71428 4.69892 6.39405C5.12591 6.18055 5.81976 6.02044 6.03325 5.54008C6.46023 4.57937 4.32531 1.00338 3.47134 1.00338Z" fill="#6B7E91"/>
</svg>
