<svg viewBox="0 0 13 18" fill="none" xmlns="http://www.w3.org/2000/svg">
<path fill-rule="evenodd" clip-rule="evenodd" d="M10.5673 8.39607C11.5324 7.85252 12.0555 6.76423 11.8771 5.67106C11.6482 3.98251 9.65528 3.34708 8.05115 3.21155V0.666504H6.47925V3.18156H5.43168V0.666504H3.85866V3.18156H0.714844V4.80679H1.8935C2.41784 4.80679 2.6789 4.96342 2.6789 5.38334V12.3519C2.6789 12.9285 2.39006 13.1118 2.07568 13.1118H0.870368L0.818156 14.7626H3.85866V17.3298H5.43057V14.7659H6.47814V17.3332H8.05004V14.7659H8.39109C11.6127 14.7659 12.688 13.194 12.688 11.0455C12.6626 9.78407 11.7926 8.69716 10.5673 8.39607ZM5.43169 4.91119H6.55813C7.34353 4.91119 8.89099 5.04228 8.89099 6.32647C8.94505 7.15889 8.34123 7.88933 7.51349 7.9928H5.4328L5.43169 4.91119ZM7.16134 12.9552H5.43169V9.60141H7.44906C7.92119 9.60141 9.65084 9.75916 9.65084 11.0167C9.65084 12.2742 8.83767 12.9563 7.16134 12.9563V12.9552Z" fill="#8C46FF"/>
</svg>
