<svg width="32" height="35" viewBox="0 0 32 35" fill="none" xmlns="http://www.w3.org/2000/svg">
<path d="M7.65044 0.852938C9.56085 -0.30538 12.0485 0.459735 13.2069 2.56187L27.0368 27.6606C28.1951 29.7627 27.5855 32.4058 25.6751 33.5641L24.7702 34.1128C22.8597 35.2711 20.372 34.506 19.2137 32.4039L5.38377 7.30517C4.22544 5.20304 4.83513 2.55992 6.74554 1.4016L7.65044 0.852938Z" fill="#86B0EF"/>
<path d="M31.3486 8.96839C32.5069 11.0705 31.8972 13.7136 29.9868 14.872L7.17724 28.7019C5.26683 29.8602 2.77913 29.0951 1.62081 26.9929L1.07214 25.9972C-0.0861789 23.8951 0.523508 21.252 2.43392 20.0936L25.2435 6.26375C27.1539 5.10543 29.6416 5.87054 30.7999 7.97268L31.3486 8.96839Z" fill="#86B0EF"/>
</svg>
