<svg viewBox="0 0 17 15" fill="none" xmlns="http://www.w3.org/2000/svg">
<path fill-rule="evenodd" clip-rule="evenodd" d="M10.1758 3.00707V4.98714V4.98846C13.8136 5.15743 16.5488 5.88478 16.5488 6.75469C16.5488 7.6246 13.8136 8.35194 10.1758 8.52091V14.8571H6.93363V8.52751C3.2906 8.35723 0.548828 7.62988 0.548828 6.75865C0.548828 5.88741 3.28929 5.16007 6.93363 4.9911V3.01103H2.4496V0H14.6598V3.00707H10.1758ZM10.0514 7.99084C10.1142 7.98808 10.1549 7.98629 10.1758 7.98629V7.98365C13.3892 7.83977 15.7877 7.27347 15.7877 6.60024C15.7877 5.92702 13.3892 5.36072 10.1758 5.21683V7.42263C10.0828 7.43055 9.57978 7.47279 8.58027 7.47279C7.74713 7.47279 7.14454 7.43715 6.93363 7.42263V5.21683C3.71372 5.36072 1.30992 5.9257 1.30992 6.60156C1.30992 7.27743 3.71372 7.84241 6.93363 7.98629C7.4778 8.01069 8.02246 8.02213 8.56717 8.02061C9.37479 8.02061 9.83924 8.00018 10.0514 7.99084Z" fill="#8C46FF"/>
</svg>
