<svg width="16" height="16" viewBox="0 0 16 16" fill="none" xmlns="http://www.w3.org/2000/svg">
<path d="M7.78622 1C7.63286 1 7.50225 1.10834 7.47425 1.25852L7.35618 1.88743C7.30718 2.14897 7.0988 2.34171 6.83789 2.39453C6.62089 2.43844 6.40774 2.49423 6.20028 2.56232C5.94828 2.64505 5.67174 2.58319 5.49929 2.3821L5.0854 1.89862C4.9855 1.7828 4.81631 1.75513 4.68395 1.8315L4.31605 2.04403C4.18305 2.1204 4.12345 2.28115 4.17436 2.4256L4.38814 3.03089C4.47596 3.28162 4.39216 3.55125 4.19425 3.72816C4.0307 3.87452 3.87513 4.02946 3.7294 4.193C3.55249 4.39091 3.28287 4.47471 3.03214 4.3869L2.4256 4.17436C2.28115 4.12345 2.12164 4.18369 2.04528 4.31605L1.8315 4.68395C1.7545 4.81695 1.7834 4.9855 1.89986 5.0854L2.38335 5.49929C2.58444 5.67174 2.64629 5.94828 2.56357 6.20028C2.49547 6.40774 2.43968 6.62089 2.39577 6.83789C2.34296 7.0988 2.15022 7.30718 1.88867 7.35618L1.25977 7.47425C1.10895 7.50225 1 7.63286 1 7.78622V8.21378C1 8.36714 1.10834 8.49775 1.25852 8.52575L1.88743 8.64382C2.14897 8.69282 2.34171 8.9012 2.39453 9.16211C2.43844 9.37975 2.49423 9.59226 2.56232 9.79972C2.64505 10.0517 2.58319 10.3283 2.3821 10.5007L1.89862 10.9146C1.7828 11.0145 1.75513 11.1837 1.8315 11.3161L2.04403 11.6839C2.1204 11.8169 2.28115 11.8765 2.4256 11.8256L3.03089 11.6119C3.28162 11.524 3.55125 11.6078 3.72816 11.8058C3.87452 11.9693 4.02946 12.1249 4.193 12.2706C4.39091 12.4475 4.47471 12.7171 4.3869 12.9679L4.17436 13.5744C4.12345 13.7189 4.18369 13.8784 4.31605 13.9547L4.68395 14.1685C4.81695 14.2455 4.9855 14.2166 5.0854 14.1001L5.49929 13.6167C5.67174 13.4156 5.94828 13.3537 6.20028 13.4364C6.40774 13.5045 6.62089 13.5603 6.83789 13.6042C7.0988 13.657 7.30718 13.8498 7.35618 14.1113L7.47425 14.7402C7.50225 14.8911 7.63286 15 7.78622 15H8.21378C8.36714 15 8.49778 14.891 8.5245 14.7415L8.64258 14.1126C8.69158 13.851 8.89996 13.6583 9.16087 13.6055C9.3785 13.5616 9.59102 13.5058 9.79847 13.4377C10.0505 13.3549 10.327 13.4168 10.4995 13.6179L10.9134 14.1014C11.0133 14.2172 11.1812 14.2461 11.3136 14.1697L11.6827 13.956C11.8157 13.8796 11.8753 13.7201 11.8244 13.5756L11.6119 12.9691C11.524 12.7184 11.6078 12.4487 11.8058 12.2718C11.9693 12.1255 12.1249 11.9705 12.2706 11.807C12.4475 11.6091 12.7178 11.5253 12.9679 11.6131L13.5744 11.8256C13.7189 11.8765 13.8784 11.8163 13.9547 11.6839L14.1685 11.3161C14.2455 11.1831 14.2166 11.0145 14.1001 10.9146L13.6167 10.5007C13.4156 10.3283 13.3537 10.0517 13.4364 9.79972C13.5045 9.59226 13.5603 9.37911 13.6042 9.16211C13.657 8.9012 13.8498 8.69282 14.1113 8.64382L14.7402 8.52575C14.8911 8.49775 15 8.36714 15 8.21378V7.78622C15 7.63286 14.891 7.50286 14.7415 7.4755L14.1126 7.35742C13.851 7.30842 13.6583 7.0988 13.6055 6.83789C13.5616 6.62089 13.5058 6.40774 13.4377 6.20028C13.3549 5.94828 13.4168 5.67299 13.6179 5.50053L14.1014 5.08665C14.2172 4.98674 14.2461 4.81756 14.1697 4.68519L13.956 4.31605C13.8796 4.18305 13.7201 4.12345 13.5756 4.17436L12.9691 4.38814C12.7184 4.47596 12.4487 4.39216 12.2718 4.19425C12.1255 4.0307 11.9705 3.87513 11.807 3.7294C11.6091 3.55249 11.5253 3.28287 11.6131 3.03214L11.8256 2.4256C11.8765 2.28115 11.8163 2.12164 11.6839 2.04528L11.3161 1.8315C11.1831 1.7545 11.0145 1.7834 10.9146 1.89986L10.5007 2.38335C10.3283 2.58444 10.0517 2.64629 9.79972 2.56357C9.59226 2.49547 9.37911 2.43968 9.16211 2.39577C8.9012 2.34296 8.69282 2.15022 8.64382 1.88867L8.52575 1.25977C8.49775 1.10895 8.36714 1 8.21378 1H7.78622ZM8 4.18182C10.1089 4.18182 11.8182 5.89109 11.8182 8C11.8182 10.1089 10.1089 11.8182 8 11.8182C5.89109 11.8182 4.18182 10.1089 4.18182 8C4.18182 5.89109 5.89109 4.18182 8 4.18182ZM8 6.72727C7.29682 6.72727 6.72727 7.29682 6.72727 8C6.72727 8.70318 7.29682 9.27273 8 9.27273C8.70318 9.27273 9.27273 8.70318 9.27273 8C9.27273 7.29682 8.70318 6.72727 8 6.72727Z" fill="#9A9A9A"/>
</svg>
