<svg width="299" height="476" viewBox="0 0 299 476" fill="none" xmlns="http://www.w3.org/2000/svg">
<g clip-path="url(#clip0)">
<path d="M26.9341 214.432C28.7927 231.864 46.845 238.778 52.9729 239.918C59.1192 241.077 60.2785 225.336 59.1192 224.564C57.9598 223.792 48.354 213.862 46.8266 214.414C45.2993 214.984 26.9341 214.432 26.9341 214.432Z" fill="white" stroke="#DCDCDC" stroke-miterlimit="10"/>
<path d="M61.677 143.839C70.51 145.347 74.4664 139.702 75.4601 130.747C76.4538 121.792 72.3502 116.183 67.4736 113.627C62.5971 111.09 20.0701 99.4501 13.4086 98.6962C2.45938 96.4484 -1.40504 109.49 2.45938 115.356C6.21339 121.075 48.3724 141.578 61.677 143.839Z" fill="white" stroke="#DCDCDC" stroke-miterlimit="10"/>
<path d="M71.0251 252.974C71.0251 252.974 92.5371 277.154 110.203 286.348C127.869 295.561 125.182 315.898 139.775 329.708C154.368 343.517 195.846 328.181 202.747 321.268C209.666 314.354 206.979 293.262 206.206 278.68C205.433 264.099 172.42 229.179 169.733 229.952C167.047 230.724 111.749 235.321 105.989 237.233C100.211 239.146 71.0251 252.974 71.0251 252.974Z" fill="white" stroke="#DCDCDC" stroke-miterlimit="10"/>
<path d="M163.309 269H69.6914C59.9243 269 52 261.069 52 251.293V18.7068C52 8.93118 59.9243 1 69.6914 1H163.309C173.076 1 181 8.93118 181 18.7068V251.293C181 261.069 173.094 269 163.309 269Z" fill="#5C5C5C"/>
<path d="M162.594 264H70.4059C63.0051 264 57 257.978 57 250.557V19.4433C57 12.0218 63.0051 6 70.4059 6H162.594C169.995 6 176 12.0218 176 19.4433V250.557C176 257.978 169.995 264 162.594 264Z" fill="white"/>
<path d="M37.6072 199.501C29.9519 198.876 27.0076 203.988 26.8236 211.711C26.6396 219.434 30.5776 223.92 34.9389 225.722C39.2817 227.524 76.4722 234.273 82.2136 234.42C87.955 234.567 94.0461 224.104 90.3105 219.379C86.6853 214.763 49.1452 200.42 37.6072 199.501Z" fill="white" stroke="#DCDCDC" stroke-miterlimit="10"/>
<rect x="76" y="176" width="85" height="24" rx="12" fill="#645E9D"/>
<path d="M100.893 192V183.469H103.412C104.166 183.469 104.834 183.637 105.416 183.973C106.002 184.309 106.455 184.785 106.775 185.402C107.096 186.02 107.256 186.727 107.256 187.523V187.951C107.256 188.76 107.094 189.471 106.77 190.084C106.449 190.697 105.99 191.17 105.393 191.502C104.799 191.834 104.117 192 103.348 192H100.893ZM102.375 184.664V190.816H103.342C104.119 190.816 104.715 190.574 105.129 190.09C105.547 189.602 105.76 188.902 105.768 187.992V187.518C105.768 186.592 105.566 185.885 105.164 185.396C104.762 184.908 104.178 184.664 103.412 184.664H102.375ZM111.387 192.117C110.484 192.117 109.752 191.834 109.189 191.268C108.631 190.697 108.352 189.939 108.352 188.994V188.818C108.352 188.186 108.473 187.621 108.715 187.125C108.961 186.625 109.305 186.236 109.746 185.959C110.188 185.682 110.68 185.543 111.223 185.543C112.086 185.543 112.752 185.818 113.221 186.369C113.693 186.92 113.93 187.699 113.93 188.707V189.281H109.787C109.83 189.805 110.004 190.219 110.309 190.523C110.617 190.828 111.004 190.98 111.469 190.98C112.121 190.98 112.652 190.717 113.062 190.189L113.83 190.922C113.576 191.301 113.236 191.596 112.811 191.807C112.389 192.014 111.914 192.117 111.387 192.117ZM111.217 186.686C110.826 186.686 110.51 186.822 110.268 187.096C110.029 187.369 109.877 187.75 109.811 188.238H112.523V188.133C112.492 187.656 112.365 187.297 112.143 187.055C111.92 186.809 111.611 186.686 111.217 186.686ZM116.555 192H115.131V183H116.555V192ZM119.625 192H118.201V185.66H119.625V192ZM118.113 184.014C118.113 183.795 118.182 183.613 118.318 183.469C118.459 183.324 118.658 183.252 118.916 183.252C119.174 183.252 119.373 183.324 119.514 183.469C119.654 183.613 119.725 183.795 119.725 184.014C119.725 184.229 119.654 184.408 119.514 184.553C119.373 184.693 119.174 184.764 118.916 184.764C118.658 184.764 118.459 184.693 118.318 184.553C118.182 184.408 118.113 184.229 118.113 184.014ZM123.416 190.195L124.758 185.66H126.229L124.031 192H122.795L120.58 185.66H122.057L123.416 190.195ZM129.832 192.117C128.93 192.117 128.197 191.834 127.635 191.268C127.076 190.697 126.797 189.939 126.797 188.994V188.818C126.797 188.186 126.918 187.621 127.16 187.125C127.406 186.625 127.75 186.236 128.191 185.959C128.633 185.682 129.125 185.543 129.668 185.543C130.531 185.543 131.197 185.818 131.666 186.369C132.139 186.92 132.375 187.699 132.375 188.707V189.281H128.232C128.275 189.805 128.449 190.219 128.754 190.523C129.062 190.828 129.449 190.98 129.914 190.98C130.566 190.98 131.098 190.717 131.508 190.189L132.275 190.922C132.021 191.301 131.682 191.596 131.256 191.807C130.834 192.014 130.359 192.117 129.832 192.117ZM129.662 186.686C129.271 186.686 128.955 186.822 128.713 187.096C128.475 187.369 128.322 187.75 128.256 188.238H130.969V188.133C130.938 187.656 130.811 187.297 130.588 187.055C130.365 186.809 130.057 186.686 129.662 186.686ZM136.805 186.961C136.617 186.93 136.424 186.914 136.225 186.914C135.572 186.914 135.133 187.164 134.906 187.664V192H133.482V185.66H134.842L134.877 186.369C135.221 185.818 135.697 185.543 136.307 185.543C136.51 185.543 136.678 185.57 136.811 185.625L136.805 186.961Z" fill="white"/>
<path d="M39.9259 170.264C31.461 169.584 28.1854 175.229 27.983 183.78C27.7806 192.33 32.1418 197.295 36.9631 199.299C41.7845 201.304 82.9497 208.769 89.2984 208.916C95.6471 209.064 102.401 197.497 98.2602 192.257C94.2486 187.163 52.6969 171.294 39.9259 170.264Z" fill="white" stroke="#DCDCDC" stroke-miterlimit="10"/>
<path d="M44.784 139.004C35.951 137.478 31.9762 143.105 30.9641 152.06C29.952 161.015 34.0372 166.641 38.8953 169.197C43.7535 171.753 86.2621 183.522 92.9052 184.294C99.5667 185.066 107.756 173.555 103.91 167.671C100.192 161.934 58.107 141.303 44.784 139.004Z" fill="white" stroke="#DCDCDC" stroke-miterlimit="10"/>
<path d="M206.078 294.532C206.078 294.532 207.108 256.155 207.108 233.648C207.108 211.141 213.77 200.899 204.55 185.048C195.331 169.179 168.206 132.348 158.987 134.389C149.767 136.43 147.21 154.855 155.398 166.623C163.587 178.392 171.776 195.787 171.776 195.787C171.776 195.787 144.633 229.566 148.737 273.551" fill="white"/>
<path d="M206.078 294.532C206.078 294.532 207.108 256.155 207.108 233.648C207.108 211.141 213.77 200.899 204.55 185.048C195.331 169.179 168.206 132.348 158.987 134.389C149.767 136.43 147.21 154.855 155.398 166.623C163.587 178.392 171.776 195.787 171.776 195.787C171.776 195.787 144.633 229.566 148.737 273.551" stroke="#DCDCDC" stroke-miterlimit="10"/>
<path d="M178.493 149.062C177.922 147.83 176.947 146.856 175.972 145.936C174.003 144.079 171.942 142.314 169.807 140.659C168.611 139.721 167.378 138.82 166.145 137.937C165.832 137.717 165.501 137.478 165.188 137.257C164.176 136.43 163.09 135.731 161.784 135.455C159.778 135.032 157.699 135.713 156.576 137.496C155.619 139.041 155.766 140.916 156.558 142.479C157.202 143.785 158.324 144.833 159.3 145.9C161.14 147.922 162.98 149.963 164.839 151.968C166.513 153.788 168.409 155.443 170.764 156.252C173.506 157.19 176.892 156.528 178.438 153.898C179.321 152.409 179.211 150.625 178.493 149.062Z" stroke="#DCDCDC" stroke-miterlimit="10"/>
<path d="M86.0412 222.67C85.2132 220.666 83.2441 218.845 80.7967 218.312C78.202 217.742 75.0368 217.374 72.9758 219.434C71.8349 220.574 71.3748 222.247 71.8349 223.81C72.2765 225.263 73.4175 226.293 74.6136 227.138C76.8218 228.665 79.6373 229.713 82.324 229.051C86.2805 228.058 87.0718 225.208 86.0412 222.67Z" stroke="#DCDCDC" stroke-miterlimit="10"/>
<path d="M93.9909 196.78C92.9972 194.353 90.6049 192.146 87.6238 191.503C84.4771 190.822 80.6311 190.381 78.1468 192.863C76.7666 194.242 76.1962 196.284 76.7666 198.159C77.3003 199.924 78.6804 201.175 80.1342 202.186C82.8025 204.025 86.2069 205.312 89.4824 204.503C94.2853 203.326 95.2422 199.869 93.9909 196.78Z" stroke="#DCDCDC" stroke-miterlimit="10"/>
<path d="M100.045 170.724C98.9042 167.929 96.1623 165.391 92.7395 164.655C89.1327 163.865 84.7162 163.368 81.8455 166.218C80.263 167.8 79.6005 170.154 80.263 172.305C80.8886 174.328 82.4528 175.78 84.1458 176.939C87.2189 179.053 91.1385 180.543 94.8925 179.605C100.376 178.244 101.48 174.254 100.045 170.724Z" stroke="#DCDCDC" stroke-miterlimit="10"/>
<path d="M168.737 477C168.737 477 295.994 476.5 299 476.5C297.765 475.267 221.692 294.031 213.836 292.099C206 290.185 129.808 316.613 127.116 324.655C124.443 332.698 168.737 477 168.737 477Z" fill="#DCDCDC"/>
<path d="M149.252 3.48193H83.281V5.78046H85.8205C86.7406 5.78046 87.4767 6.51599 87.4767 7.4354V11.0579C87.4767 14.3862 90.1818 17.0892 93.5125 17.0892H139.021C142.351 17.0892 145.057 14.3862 145.057 11.0579V7.61928C145.057 6.60793 145.885 5.78046 146.897 5.78046H149.252V3.48193V3.48193Z" fill="#5C5C5C"/>
<g filter="url(#filter0_d)">
<rect x="107" y="9" width="18" height="2" rx="1" fill="#DCDCDC"/>
</g>
<g filter="url(#filter1_d)">
<ellipse cx="102" cy="9.99885" rx="1" ry="0.998847" fill="#DCDCDC"/>
</g>
<g filter="url(#filter2_d)">
<ellipse cx="130" cy="9.99885" rx="1" ry="0.998847" fill="#DCDCDC"/>
</g>
<rect x="95.5" y="71.5" width="43" height="43" rx="5.5" stroke="#1B8508" stroke-width="3"/>
<rect x="100.5" y="76.5" width="33" height="33" rx="1.5" stroke="#66B700"/>
<rect x="116" y="66" width="2" height="8" rx="1" fill="#66B700"/>
<rect x="116" y="111" width="2" height="8" rx="1" fill="#66B700"/>
<rect x="98" y="92" width="2" height="8" rx="1" transform="rotate(90 98 92)" fill="#66B700"/>
<rect x="143" y="92" width="2" height="8" rx="1" transform="rotate(90 143 92)" fill="#66B700"/>
<rect x="110" y="66" width="2" height="8" rx="1" fill="#66B700"/>
<rect x="104" y="66" width="2" height="8" rx="1" fill="#66B700"/>
<rect x="110" y="111" width="2" height="8" rx="1" fill="#66B700"/>
<rect x="104" y="111" width="2" height="8" rx="1" fill="#66B700"/>
<rect x="98" y="86" width="2" height="8" rx="1" transform="rotate(90 98 86)" fill="#66B700"/>
<rect x="98" y="80" width="2" height="8" rx="1" transform="rotate(90 98 80)" fill="#66B700"/>
<rect x="143" y="86" width="2" height="8" rx="1" transform="rotate(90 143 86)" fill="#66B700"/>
<rect x="143" y="80" width="2" height="8" rx="1" transform="rotate(90 143 80)" fill="#66B700"/>
<rect x="122" y="66" width="2" height="8" rx="1" fill="#66B700"/>
<rect x="128" y="66" width="2" height="8" rx="1" fill="#66B700"/>
<rect x="122" y="111" width="2" height="8" rx="1" fill="#66B700"/>
<rect x="128" y="111" width="2" height="8" rx="1" fill="#66B700"/>
<rect x="98" y="98" width="2" height="8" rx="1" transform="rotate(90 98 98)" fill="#66B700"/>
<rect x="98" y="104" width="2" height="8" rx="1" transform="rotate(90 98 104)" fill="#66B700"/>
<rect x="143" y="98" width="2" height="8" rx="1" transform="rotate(90 143 98)" fill="#66B700"/>
<rect x="143" y="104" width="2" height="8" rx="1" transform="rotate(90 143 104)" fill="#66B700"/>
<rect x="88" y="257" width="57" height="2" rx="1" fill="#9A9A9A"/>
<path d="M119.385 97.7033H113.604L112.505 101H109L114.956 85H118.011L124 101H120.495L119.385 97.7033ZM114.495 95.033H118.495L116.484 89.044L114.495 95.033Z" fill="#1B8508"/>
</g>
<defs>
<filter id="filter0_d" x="103" y="9" width="26" height="10" filterUnits="userSpaceOnUse" color-interpolation-filters="sRGB">
<feFlood flood-opacity="0" result="BackgroundImageFix"/>
<feColorMatrix in="SourceAlpha" type="matrix" values="0 0 0 0 0 0 0 0 0 0 0 0 0 0 0 0 0 0 127 0"/>
<feOffset dy="4"/>
<feGaussianBlur stdDeviation="2"/>
<feColorMatrix type="matrix" values="0 0 0 0 0 0 0 0 0 0 0 0 0 0 0 0 0 0 0.25 0"/>
<feBlend mode="normal" in2="BackgroundImageFix" result="effect1_dropShadow"/>
<feBlend mode="normal" in="SourceGraphic" in2="effect1_dropShadow" result="shape"/>
</filter>
<filter id="filter1_d" x="97" y="9" width="10" height="9.99769" filterUnits="userSpaceOnUse" color-interpolation-filters="sRGB">
<feFlood flood-opacity="0" result="BackgroundImageFix"/>
<feColorMatrix in="SourceAlpha" type="matrix" values="0 0 0 0 0 0 0 0 0 0 0 0 0 0 0 0 0 0 127 0"/>
<feOffset dy="4"/>
<feGaussianBlur stdDeviation="2"/>
<feColorMatrix type="matrix" values="0 0 0 0 0 0 0 0 0 0 0 0 0 0 0 0 0 0 0.25 0"/>
<feBlend mode="normal" in2="BackgroundImageFix" result="effect1_dropShadow"/>
<feBlend mode="normal" in="SourceGraphic" in2="effect1_dropShadow" result="shape"/>
</filter>
<filter id="filter2_d" x="125" y="9" width="10" height="9.99769" filterUnits="userSpaceOnUse" color-interpolation-filters="sRGB">
<feFlood flood-opacity="0" result="BackgroundImageFix"/>
<feColorMatrix in="SourceAlpha" type="matrix" values="0 0 0 0 0 0 0 0 0 0 0 0 0 0 0 0 0 0 127 0"/>
<feOffset dy="4"/>
<feGaussianBlur stdDeviation="2"/>
<feColorMatrix type="matrix" values="0 0 0 0 0 0 0 0 0 0 0 0 0 0 0 0 0 0 0.25 0"/>
<feBlend mode="normal" in2="BackgroundImageFix" result="effect1_dropShadow"/>
<feBlend mode="normal" in="SourceGraphic" in2="effect1_dropShadow" result="shape"/>
</filter>
<clipPath id="clip0">
<rect width="299" height="476" fill="white"/>
</clipPath>
</defs>
</svg>
