<svg width="480" height="480" viewBox="0 0 480 480" fill="none" xmlns="http://www.w3.org/2000/svg">
<rect x="0.5" y="0.5" width="479" height="479" rx="17.5" fill="#FCFCFC" stroke="#DCDCDC" stroke-dasharray="4 4"/>
<path d="M147.934 323.432C149.793 340.864 167.845 347.778 173.973 348.918C180.119 350.077 181.279 334.336 180.119 333.564C178.96 332.792 169.354 322.862 167.827 323.414C166.299 323.984 147.934 323.432 147.934 323.432Z" fill="white" stroke="#DCDCDC" stroke-miterlimit="10"/>
<path d="M182.677 252.839C191.51 254.347 195.466 248.702 196.46 239.747C197.454 230.792 193.35 225.183 188.474 222.627C183.597 220.09 141.07 208.45 134.409 207.696C123.459 205.448 119.595 218.49 123.459 224.356C127.213 230.075 169.372 250.578 182.677 252.839Z" fill="white" stroke="#DCDCDC" stroke-miterlimit="10"/>
<path d="M192.025 361.974C192.025 361.974 213.537 386.154 231.203 395.348C248.869 404.561 246.182 424.898 260.775 438.708C275.368 452.517 316.846 437.181 323.747 430.268C330.666 423.354 327.979 402.262 327.206 387.68C326.433 373.099 293.42 338.179 290.734 338.952C288.047 339.724 232.749 344.321 226.989 346.233C221.211 348.146 192.025 361.974 192.025 361.974Z" fill="white" stroke="#DCDCDC" stroke-miterlimit="10"/>
<path d="M284.309 378H190.691C180.924 378 173 370.069 173 360.293V127.707C173 117.931 180.924 110 190.691 110H284.309C294.076 110 302 117.931 302 127.707V360.293C302 370.069 294.094 378 284.309 378Z" fill="#5C5C5C"/>
<path d="M283.594 373H191.406C184.005 373 178 366.978 178 359.557V128.443C178 121.022 184.005 115 191.406 115H283.594C290.995 115 297 121.022 297 128.443V359.557C297 366.978 290.995 373 283.594 373Z" fill="white"/>
<path d="M158.607 308.501C150.952 307.876 148.008 312.988 147.824 320.711C147.64 328.434 151.578 332.92 155.939 334.722C160.282 336.524 197.472 343.273 203.214 343.42C208.955 343.567 215.046 333.104 211.31 328.379C207.685 323.763 170.145 309.42 158.607 308.501Z" fill="white" stroke="#DCDCDC" stroke-miterlimit="10"/>
<rect x="197" y="285" width="85" height="24" rx="12" fill="#1B8508"/>
<path d="M221.893 301V292.469H224.412C225.166 292.469 225.834 292.637 226.416 292.973C227.002 293.309 227.455 293.785 227.775 294.402C228.096 295.02 228.256 295.727 228.256 296.523V296.951C228.256 297.76 228.094 298.471 227.77 299.084C227.449 299.697 226.99 300.17 226.393 300.502C225.799 300.834 225.117 301 224.348 301H221.893ZM223.375 293.664V299.816H224.342C225.119 299.816 225.715 299.574 226.129 299.09C226.547 298.602 226.76 297.902 226.768 296.992V296.518C226.768 295.592 226.566 294.885 226.164 294.396C225.762 293.908 225.178 293.664 224.412 293.664H223.375ZM232.387 301.117C231.484 301.117 230.752 300.834 230.189 300.268C229.631 299.697 229.352 298.939 229.352 297.994V297.818C229.352 297.186 229.473 296.621 229.715 296.125C229.961 295.625 230.305 295.236 230.746 294.959C231.188 294.682 231.68 294.543 232.223 294.543C233.086 294.543 233.752 294.818 234.221 295.369C234.693 295.92 234.93 296.699 234.93 297.707V298.281H230.787C230.83 298.805 231.004 299.219 231.309 299.523C231.617 299.828 232.004 299.98 232.469 299.98C233.121 299.98 233.652 299.717 234.062 299.189L234.83 299.922C234.576 300.301 234.236 300.596 233.811 300.807C233.389 301.014 232.914 301.117 232.387 301.117ZM232.217 295.686C231.826 295.686 231.51 295.822 231.268 296.096C231.029 296.369 230.877 296.75 230.811 297.238H233.523V297.133C233.492 296.656 233.365 296.297 233.143 296.055C232.92 295.809 232.611 295.686 232.217 295.686ZM237.555 301H236.131V292H237.555V301ZM240.625 301H239.201V294.66H240.625V301ZM239.113 293.014C239.113 292.795 239.182 292.613 239.318 292.469C239.459 292.324 239.658 292.252 239.916 292.252C240.174 292.252 240.373 292.324 240.514 292.469C240.654 292.613 240.725 292.795 240.725 293.014C240.725 293.229 240.654 293.408 240.514 293.553C240.373 293.693 240.174 293.764 239.916 293.764C239.658 293.764 239.459 293.693 239.318 293.553C239.182 293.408 239.113 293.229 239.113 293.014ZM244.416 299.195L245.758 294.66H247.229L245.031 301H243.795L241.58 294.66H243.057L244.416 299.195ZM250.832 301.117C249.93 301.117 249.197 300.834 248.635 300.268C248.076 299.697 247.797 298.939 247.797 297.994V297.818C247.797 297.186 247.918 296.621 248.16 296.125C248.406 295.625 248.75 295.236 249.191 294.959C249.633 294.682 250.125 294.543 250.668 294.543C251.531 294.543 252.197 294.818 252.666 295.369C253.139 295.92 253.375 296.699 253.375 297.707V298.281H249.232C249.275 298.805 249.449 299.219 249.754 299.523C250.062 299.828 250.449 299.98 250.914 299.98C251.566 299.98 252.098 299.717 252.508 299.189L253.275 299.922C253.021 300.301 252.682 300.596 252.256 300.807C251.834 301.014 251.359 301.117 250.832 301.117ZM250.662 295.686C250.271 295.686 249.955 295.822 249.713 296.096C249.475 296.369 249.322 296.75 249.256 297.238H251.969V297.133C251.938 296.656 251.811 296.297 251.588 296.055C251.365 295.809 251.057 295.686 250.662 295.686ZM257.805 295.961C257.617 295.93 257.424 295.914 257.225 295.914C256.572 295.914 256.133 296.164 255.906 296.664V301H254.482V294.66H255.842L255.877 295.369C256.221 294.818 256.697 294.543 257.307 294.543C257.51 294.543 257.678 294.57 257.811 294.625L257.805 295.961Z" fill="white"/>
<path d="M160.926 279.264C152.461 278.584 149.185 284.229 148.983 292.78C148.781 301.33 153.142 306.295 157.963 308.299C162.784 310.304 203.95 317.769 210.298 317.916C216.647 318.064 223.401 306.497 219.26 301.257C215.249 296.163 173.697 280.294 160.926 279.264Z" fill="white" stroke="#DCDCDC" stroke-miterlimit="10"/>
<path d="M165.784 248.004C156.951 246.478 152.976 252.105 151.964 261.06C150.952 270.015 155.037 275.641 159.895 278.197C164.754 280.753 207.262 292.522 213.905 293.294C220.567 294.066 228.756 282.555 224.91 276.671C221.192 270.934 179.107 250.303 165.784 248.004Z" fill="white" stroke="#DCDCDC" stroke-miterlimit="10"/>
<path d="M327.078 403.532C327.078 403.532 328.108 365.155 328.108 342.648C328.108 320.141 334.77 309.899 325.55 294.048C316.331 278.179 289.206 241.348 279.987 243.389C270.767 245.43 268.21 263.855 276.398 275.623C284.587 287.392 292.776 304.787 292.776 304.787C292.776 304.787 265.633 338.566 269.737 382.551" fill="white"/>
<path d="M327.078 403.532C327.078 403.532 328.108 365.155 328.108 342.648C328.108 320.141 334.77 309.899 325.55 294.048C316.331 278.179 289.206 241.348 279.987 243.389C270.767 245.43 268.21 263.855 276.398 275.623C284.587 287.392 292.776 304.787 292.776 304.787C292.776 304.787 265.633 338.566 269.737 382.551" stroke="#DCDCDC" stroke-miterlimit="10"/>
<path d="M299.493 258.062C298.922 256.83 297.947 255.856 296.972 254.936C295.003 253.079 292.942 251.314 290.807 249.659C289.611 248.721 288.378 247.82 287.145 246.937C286.832 246.717 286.501 246.478 286.188 246.257C285.176 245.43 284.09 244.731 282.784 244.455C280.778 244.032 278.699 244.713 277.576 246.496C276.619 248.041 276.766 249.916 277.558 251.479C278.202 252.785 279.324 253.833 280.3 254.9C282.14 256.922 283.98 258.963 285.839 260.968C287.513 262.788 289.409 264.443 291.764 265.252C294.506 266.19 297.892 265.528 299.438 262.898C300.321 261.409 300.211 259.625 299.493 258.062Z" stroke="#DCDCDC" stroke-miterlimit="10"/>
<path d="M207.041 331.67C206.213 329.666 204.244 327.845 201.797 327.312C199.202 326.742 196.037 326.374 193.976 328.434C192.835 329.574 192.375 331.247 192.835 332.81C193.276 334.263 194.417 335.293 195.614 336.138C197.822 337.665 200.637 338.713 203.324 338.051C207.28 337.058 208.072 334.208 207.041 331.67Z" stroke="#DCDCDC" stroke-miterlimit="10"/>
<path d="M214.991 305.78C213.997 303.353 211.605 301.146 208.624 300.503C205.477 299.822 201.631 299.381 199.147 301.863C197.767 303.242 197.196 305.284 197.767 307.159C198.3 308.924 199.68 310.175 201.134 311.186C203.802 313.025 207.207 314.312 210.482 313.503C215.285 312.326 216.242 308.869 214.991 305.78Z" stroke="#DCDCDC" stroke-miterlimit="10"/>
<path d="M221.045 279.724C219.904 276.929 217.162 274.391 213.74 273.655C210.133 272.865 205.716 272.368 202.846 275.218C201.263 276.8 200.601 279.154 201.263 281.305C201.889 283.328 203.453 284.78 205.146 285.939C208.219 288.053 212.139 289.543 215.893 288.605C221.376 287.244 222.481 283.254 221.045 279.724Z" stroke="#DCDCDC" stroke-miterlimit="10"/>
<path d="M264.5 478C264.5 478 373 478 376 478C374.767 476.768 342.848 402.686 335.009 400.755C327.188 398.843 251.151 425.248 248.464 433.284C245.796 441.319 264.5 478 264.5 478Z" fill="#DCDCDC"/>
<path d="M270.252 112.482H204.281V114.78H206.82C207.741 114.78 208.477 115.516 208.477 116.435V120.058C208.477 123.386 211.182 126.089 214.512 126.089H260.021C263.351 126.089 266.056 123.386 266.056 120.058V116.619C266.056 115.608 266.885 114.78 267.897 114.78H270.252V112.482Z" fill="#5C5C5C"/>
<g filter="url(#filter0_d)">
<rect x="228" y="118" width="18" height="2" rx="1" fill="#DCDCDC"/>
</g>
<g filter="url(#filter1_d)">
<ellipse cx="223" cy="118.999" rx="1" ry="0.998847" fill="#DCDCDC"/>
</g>
<g filter="url(#filter2_d)">
<ellipse cx="251" cy="118.999" rx="1" ry="0.998847" fill="#DCDCDC"/>
</g>
<rect x="216.5" y="180.5" width="43" height="43" rx="5.5" stroke="#1B8508" stroke-width="3"/>
<rect x="221.5" y="185.5" width="33" height="33" rx="1.5" stroke="#66B700"/>
<rect x="237" y="175" width="2" height="8" rx="1" fill="#66B700"/>
<rect x="237" y="220" width="2" height="8" rx="1" fill="#66B700"/>
<rect x="219" y="201" width="2" height="8" rx="1" transform="rotate(90 219 201)" fill="#66B700"/>
<rect x="264" y="201" width="2" height="8" rx="1" transform="rotate(90 264 201)" fill="#66B700"/>
<rect x="231" y="175" width="2" height="8" rx="1" fill="#66B700"/>
<rect x="225" y="175" width="2" height="8" rx="1" fill="#66B700"/>
<rect x="231" y="220" width="2" height="8" rx="1" fill="#66B700"/>
<rect x="225" y="220" width="2" height="8" rx="1" fill="#66B700"/>
<rect x="219" y="195" width="2" height="8" rx="1" transform="rotate(90 219 195)" fill="#66B700"/>
<rect x="219" y="189" width="2" height="8" rx="1" transform="rotate(90 219 189)" fill="#66B700"/>
<rect x="264" y="195" width="2" height="8" rx="1" transform="rotate(90 264 195)" fill="#66B700"/>
<rect x="264" y="189" width="2" height="8" rx="1" transform="rotate(90 264 189)" fill="#66B700"/>
<rect x="243" y="175" width="2" height="8" rx="1" fill="#66B700"/>
<rect x="249" y="175" width="2" height="8" rx="1" fill="#66B700"/>
<rect x="243" y="220" width="2" height="8" rx="1" fill="#66B700"/>
<rect x="249" y="220" width="2" height="8" rx="1" fill="#66B700"/>
<rect x="219" y="207" width="2" height="8" rx="1" transform="rotate(90 219 207)" fill="#66B700"/>
<rect x="219" y="213" width="2" height="8" rx="1" transform="rotate(90 219 213)" fill="#66B700"/>
<rect x="264" y="207" width="2" height="8" rx="1" transform="rotate(90 264 207)" fill="#66B700"/>
<rect x="264" y="213" width="2" height="8" rx="1" transform="rotate(90 264 213)" fill="#66B700"/>
<path d="M237.902 208.4C235.643 208.4 233.815 207.794 232.418 206.583C231.02 205.363 230.322 203.779 230.322 201.831V201.488C230.322 200.129 230.598 198.93 231.152 197.89C231.714 196.85 232.531 196.048 233.602 195.483C234.672 194.911 235.942 194.624 237.412 194.624C239.481 194.624 241.114 195.205 242.312 196.368C243.509 197.522 244.108 199.134 244.108 201.205V202.814H234.99C235.153 203.558 235.511 204.144 236.065 204.569C236.618 204.995 237.335 205.208 238.215 205.208C239.667 205.208 240.801 204.749 241.618 203.833L243.713 206.067C243.142 206.779 242.33 207.348 241.277 207.774C240.234 208.191 239.109 208.4 237.902 208.4ZM237.385 197.816C236.042 197.816 235.244 198.619 234.99 200.223H239.617V199.904C239.635 199.241 239.449 198.729 239.059 198.369C238.669 198.001 238.111 197.816 237.385 197.816Z" fill="#1B8508"/>
<rect x="209" y="366" width="57" height="2" rx="1" fill="#9A9A9A"/>
<path d="M75 28H32C29.7909 28 28 29.7909 28 32V75" stroke="#66B700" stroke-opacity="0.6"/>
<path d="M405 452L448 452C450.209 452 452 450.209 452 448L452 405" stroke="#66B700" stroke-opacity="0.6"/>
<path d="M452 75L452 32C452 29.7909 450.209 28 448 28L405 28" stroke="#66B700" stroke-opacity="0.6"/>
<path d="M28 405L28 448C28 450.209 29.7909 452 32 452L75 452" stroke="#66B700" stroke-opacity="0.6"/>
<defs>
<filter id="filter0_d" x="224" y="118" width="26" height="10" filterUnits="userSpaceOnUse" color-interpolation-filters="sRGB">
<feFlood flood-opacity="0" result="BackgroundImageFix"/>
<feColorMatrix in="SourceAlpha" type="matrix" values="0 0 0 0 0 0 0 0 0 0 0 0 0 0 0 0 0 0 127 0"/>
<feOffset dy="4"/>
<feGaussianBlur stdDeviation="2"/>
<feColorMatrix type="matrix" values="0 0 0 0 0 0 0 0 0 0 0 0 0 0 0 0 0 0 0.25 0"/>
<feBlend mode="normal" in2="BackgroundImageFix" result="effect1_dropShadow"/>
<feBlend mode="normal" in="SourceGraphic" in2="effect1_dropShadow" result="shape"/>
</filter>
<filter id="filter1_d" x="218" y="118" width="10" height="9.99769" filterUnits="userSpaceOnUse" color-interpolation-filters="sRGB">
<feFlood flood-opacity="0" result="BackgroundImageFix"/>
<feColorMatrix in="SourceAlpha" type="matrix" values="0 0 0 0 0 0 0 0 0 0 0 0 0 0 0 0 0 0 127 0"/>
<feOffset dy="4"/>
<feGaussianBlur stdDeviation="2"/>
<feColorMatrix type="matrix" values="0 0 0 0 0 0 0 0 0 0 0 0 0 0 0 0 0 0 0.25 0"/>
<feBlend mode="normal" in2="BackgroundImageFix" result="effect1_dropShadow"/>
<feBlend mode="normal" in="SourceGraphic" in2="effect1_dropShadow" result="shape"/>
</filter>
<filter id="filter2_d" x="246" y="118" width="10" height="9.99769" filterUnits="userSpaceOnUse" color-interpolation-filters="sRGB">
<feFlood flood-opacity="0" result="BackgroundImageFix"/>
<feColorMatrix in="SourceAlpha" type="matrix" values="0 0 0 0 0 0 0 0 0 0 0 0 0 0 0 0 0 0 127 0"/>
<feOffset dy="4"/>
<feGaussianBlur stdDeviation="2"/>
<feColorMatrix type="matrix" values="0 0 0 0 0 0 0 0 0 0 0 0 0 0 0 0 0 0 0.25 0"/>
<feBlend mode="normal" in2="BackgroundImageFix" result="effect1_dropShadow"/>
<feBlend mode="normal" in="SourceGraphic" in2="effect1_dropShadow" result="shape"/>
</filter>
</defs>
</svg>
