<svg width="72" height="90" viewBox="0 0 72 90" fill="none" xmlns="http://www.w3.org/2000/svg">
<path d="M35.843 53.9853C48.6243 53.9853 58.9824 43.6272 58.9824 30.8459C58.9824 27.8325 58.3921 24.9633 57.3419 22.3274C49.9765 29.6653 40.4764 43.991 31.1479 53.5048C32.6649 53.8206 34.2299 53.9853 35.843 53.9853Z" fill="#66B700"/>
<path d="M49.1804 11.9624C45.6659 9.47754 41.4306 7.96054 36.8453 7.76147C29.3495 11.7839 20.4123 19.1561 13.3284 25.5468C12.9303 27.256 12.6969 29.0201 12.6969 30.8528C12.6969 34.0584 13.349 37.113 14.5296 39.8862C25.4232 29.528 43.7027 19.1218 49.1804 11.9624Z" fill="#66B700"/>
<path d="M26.1028 42.5217C34.9234 50.6421 45.3914 28.6353 55.7564 19.1146C54.6238 17.1926 53.2166 15.4491 51.5967 13.939C44.0666 24.0706 17.447 34.5455 26.1028 42.5217Z" fill="#66B700"/>
<path d="M13.9872 23.3019C19.3413 17.9684 25.7182 12.2024 31.8549 8.07703C23.4942 9.53225 16.6917 15.4561 13.9872 23.3019Z" fill="#66B700"/>
<path d="M1 37.36C1 37.36 6.23056 31.951 13.3351 25.5398C13.5135 24.7778 13.7332 24.0296 13.9803 23.302C6.49141 30.7634 1 37.36 1 37.36Z" fill="#1B8508"/>
<path d="M36.852 7.76127C42.467 4.74786 47.2719 3.61526 49.8666 6.20995C51.3836 7.72695 50.9375 9.68326 49.1871 11.9622C50.0382 12.5662 50.8414 13.2252 51.6033 13.9322C53.9509 10.7747 54.4451 7.64458 51.4386 4.63803C47.0523 0.251775 39.6526 2.83273 31.8548 8.07703C33.1522 7.8505 34.4838 7.70635 35.843 7.70635C36.1793 7.70635 36.5157 7.74754 36.852 7.76127Z" fill="#1B8508"/>
<path d="M14.5296 39.8793C7.07506 46.9632 3.09378 54.0265 9.06568 59.9984C15.3327 66.2655 23.1786 61.6458 31.148 53.5048C23.6385 51.9604 17.4607 46.7778 14.5296 39.8793Z" fill="#1B8508"/>
<path d="M68.4619 16.7397C64.3296 13.3556 60.0532 15.1609 55.7562 19.1078C56.3602 20.1375 56.8957 21.2083 57.3418 22.3272C61.2407 18.442 64.5424 16.52 66.8969 18.3116C75.4429 24.812 53.4017 49.0497 53.4017 49.0497C53.4017 49.0497 78.3258 24.812 68.4619 16.7397Z" fill="#1B8508"/>
<path d="M35.8429 7.70654C34.4769 7.70654 33.1521 7.85069 31.8547 8.07721C25.7249 12.2026 19.3481 17.9755 13.9871 23.3021C13.7331 24.0366 13.5203 24.7779 13.3418 25.5399C20.4189 19.1561 29.363 11.777 36.8588 7.75459C36.5156 7.74773 36.1792 7.70654 35.8429 7.70654Z" fill="white"/>
<path d="M26.1024 42.522C17.4466 34.5458 44.0662 24.0778 51.5962 13.9393C50.8343 13.2323 50.0312 12.5664 49.18 11.9692C43.7023 19.1287 25.416 29.5349 14.5293 39.8862C17.4603 46.7847 23.6381 51.9673 31.1476 53.5117C40.4761 43.991 49.9763 29.6653 57.3416 22.3343C56.8954 21.2154 56.3669 20.1446 55.756 19.1149C45.391 28.6288 34.923 50.6425 26.1024 42.522Z" fill="white"/>
<path d="M60.8771 58.3715C64.0729 58.3715 66.6637 55.7807 66.6637 52.5849C66.6637 49.3891 64.0729 46.7983 60.8771 46.7983C57.6813 46.7983 55.0905 49.3891 55.0905 52.5849C55.0905 55.7807 57.6813 58.3715 60.8771 58.3715Z" fill="#66B700"/>
<path d="M15.0788 12.5731C18.2746 12.5731 20.8653 9.9824 20.8653 6.78657C20.8653 3.59074 18.2746 1 15.0788 1C11.8829 1 9.29221 3.59074 9.29221 6.78657C9.29221 9.9824 11.8829 12.5731 15.0788 12.5731Z" fill="#66B700"/>
<path d="M11.9749 88.9998L11.5145 87.3247H9.32576L8.8354 88.9998H6.80219L9.32576 80.4996H11.9749L14.5284 88.9998H11.9749ZM9.75035 85.4689H11.0779L10.4141 83.003L9.75035 85.4689Z" fill="#1A8508"/>
<path d="M24.1563 80.4996V88.9998H21.83V82.922L20.3171 88.9998H18.7264L17.1596 82.922V88.9998H15.2819V80.4996H18.553L19.737 85.0144L20.8673 80.4996H24.1563Z" fill="#1A8508"/>
<path d="M28.0852 80.4996V88.9998H25.5795V80.4996H28.0852Z" fill="#1A8508"/>
<path d="M36.7802 88.9998H33.9994L32.8094 85.7492H32.02V88.9998H29.5144V80.4996H33.7782C34.719 80.4996 35.4486 80.73 35.9669 81.1909C36.4891 81.6475 36.7503 82.2516 36.7503 83.003C36.7503 83.4928 36.6546 83.9267 36.4632 84.3045C36.2718 84.6781 35.8851 85.0081 35.3031 85.2946L36.7802 88.9998ZM32.02 83.9308H33.0905C33.4054 83.9308 33.6586 83.8623 33.8499 83.7253C34.0413 83.5883 34.137 83.387 34.137 83.1213C34.137 82.5774 33.816 82.3055 33.1742 82.3055H32.02V83.9308Z" fill="#1A8508"/>
<path d="M42.671 85.6472L44.9876 85.7895C44.8787 86.8246 44.5037 87.6184 43.8626 88.171C43.2254 88.7236 42.4411 88.9999 41.5096 88.9999C40.3886 88.9999 39.4833 88.6205 38.7938 87.8617C38.1042 87.1029 37.7595 86.0555 37.7595 84.7193C37.7595 83.3956 38.0861 82.3275 38.7393 81.5151C39.3926 80.7027 40.3039 80.2965 41.4733 80.2965C42.5661 80.2965 43.4049 80.6058 43.9896 81.2244C44.5783 81.843 44.911 82.6636 44.9876 83.6863L42.6226 83.8162C42.6226 83.2512 42.5157 82.843 42.302 82.5914C42.0923 82.3399 41.8443 82.2141 41.558 82.2141C40.7596 82.2141 40.3604 83.0347 40.3604 84.676C40.3604 85.5957 40.4632 86.2204 40.6689 86.5503C40.8786 86.8802 41.1709 87.0452 41.5459 87.0452C42.2153 87.0452 42.5903 86.5792 42.671 85.6472Z" fill="#66B700"/>
<path d="M52.1311 86.8534V88.87H45.9191V80.4264H52.1311V82.3749H48.4051V83.5997H51.4173V85.474H48.4051V86.8534H52.1311Z" fill="#66B700"/>
<path d="M58.9298 86.7978V88.87H53.1412V80.4264H55.6756V86.7978H58.9298Z" fill="#66B700"/>
<path d="M65.6075 86.7978V88.87H59.8189V80.4264H62.3533V86.7978H65.6075Z" fill="#66B700"/>
</svg>
