<svg width="127" height="58" viewBox="0 0 127 58" fill="none" xmlns="http://www.w3.org/2000/svg">
<path d="M32.516 48.9258C44.0768 48.9258 53.4459 39.5567 53.4459 27.9959C53.4459 25.2702 52.9119 22.675 51.962 20.2908C45.2999 26.928 36.7069 39.8858 28.2691 48.4912C29.6413 48.7768 31.0569 48.9258 32.516 48.9258Z" fill="white"/>
<path d="M44.5798 10.9155C41.4009 8.66793 37.57 7.29578 33.4226 7.11572C26.6425 10.7541 18.5587 17.4224 12.1512 23.2028C11.7911 24.7488 11.58 26.3444 11.58 28.0022C11.58 30.9017 12.1698 33.6646 13.2377 36.173C23.0911 26.8039 39.6252 17.3913 44.5798 10.9155Z" fill="white"/>
<path d="M23.7058 38.5572C31.6841 45.9023 41.1526 25.9968 50.5279 17.3852C49.5034 15.6467 48.2306 14.0697 46.7653 12.7037C39.9543 21.8679 15.8765 31.3426 23.7058 38.5572Z" fill="white"/>
<path d="M12.7471 21.1721C17.5899 16.3479 23.3579 11.1325 28.9086 7.401C21.3463 8.71727 15.1933 14.0755 12.7471 21.1721Z" fill="white"/>
<path d="M1 33.8881C1 33.8881 5.73112 28.9956 12.1572 23.1966C12.3187 22.5074 12.5174 21.8306 12.7409 21.1725C5.96705 27.9215 1 33.8881 1 33.8881Z" fill="white"/>
<path d="M33.4286 7.11585C38.5074 4.39018 42.8536 3.36572 45.2005 5.71266C46.5727 7.0848 46.1691 8.85432 44.5859 10.9156C45.3557 11.462 46.0822 12.0581 46.7714 12.6976C48.8948 9.84152 49.3418 7.0103 46.6223 4.29084C42.6549 0.323407 35.9618 2.65792 28.9086 7.40145C30.0821 7.19656 31.2866 7.06618 32.5159 7.06618C32.8202 7.06618 33.1244 7.10343 33.4286 7.11585Z" fill="white"/>
<path d="M13.2377 36.1666C6.49495 42.5741 2.89382 48.963 8.29549 54.3647C13.9641 60.0333 21.0608 55.8548 28.2693 48.4911C21.4768 47.0941 15.8889 42.4065 13.2377 36.1666Z" fill="white"/>
<path d="M62.0203 15.2367C58.2826 12.1758 54.4145 13.8087 50.5278 17.3788C51.0741 18.3101 51.5584 19.2787 51.962 20.2907C55.4886 16.7765 58.475 15.038 60.6047 16.6585C68.3346 22.5383 48.3981 44.4616 48.3981 44.4616C48.3981 44.4616 70.9423 22.5383 62.0203 15.2367Z" fill="white"/>
<path d="M55.1597 52.8929C58.0504 52.8929 60.3937 50.5495 60.3937 47.6588C60.3937 44.7682 58.0504 42.4248 55.1597 42.4248C52.269 42.4248 49.9257 44.7682 49.9257 47.6588C49.9257 50.5495 52.269 52.8929 55.1597 52.8929Z" fill="white"/>
<path d="M13.7345 11.4681C16.6251 11.4681 18.9685 9.12471 18.9685 6.23403C18.9685 3.34336 16.6251 1 13.7345 1C10.8438 1 8.50043 3.34336 8.50043 6.23403C8.50043 9.12471 10.8438 11.4681 13.7345 11.4681Z" fill="white"/>
<path d="M71.7285 37.2898L71.2585 35.648H69.0246L68.5242 37.2898H66.449L69.0246 28.9586H71.7285L74.3347 37.2898H71.7285ZM69.458 33.8292H70.813L70.1355 31.4122L69.458 33.8292Z" fill="white"/>
<path d="M84.1612 28.9586V37.2898H81.787V31.3329L80.2428 37.2898H78.6193L77.0202 31.3329V37.2898H75.1037V28.9586H78.4423L79.6508 33.3836L80.8043 28.9586H84.1612Z" fill="white"/>
<path d="M88.1712 28.9586V37.2898H85.6139V28.9586H88.1712Z" fill="white"/>
<path d="M97.0456 37.2898H94.2075L92.9929 34.1038H92.1873V37.2898H89.6299V28.9586H93.9817C94.942 28.9586 95.6866 29.1844 96.2156 29.6361C96.7486 30.0837 97.0151 30.6757 97.0151 31.4122C97.0151 31.8923 96.9175 32.3176 96.7222 32.6878C96.5268 33.054 96.1322 33.3775 95.5381 33.6583L97.0456 37.2898ZM92.1873 32.3216H93.2798C93.6013 32.3216 93.8596 32.2545 94.0549 32.1202C94.2503 31.9859 94.3479 31.7886 94.3479 31.5282C94.3479 30.9951 94.0204 30.7286 93.3653 30.7286H92.1873V32.3216Z" fill="white"/>
<path d="M102.793 34.1213L105.13 34.2617C105.021 35.283 104.642 36.0663 103.995 36.6115C103.352 37.1568 102.561 37.4294 101.621 37.4294C100.49 37.4294 99.5763 37.055 98.8805 36.3063C98.1847 35.5576 97.8368 34.5241 97.8368 33.2058C97.8368 31.8996 98.1664 30.8458 98.8256 30.0442C99.4847 29.2426 100.404 28.8418 101.584 28.8418C102.687 28.8418 103.533 29.147 104.123 29.7573C104.717 30.3677 105.053 31.1774 105.13 32.1865L102.744 32.3147C102.744 31.7572 102.636 31.3544 102.42 31.1062C102.209 30.858 101.959 30.7339 101.67 30.7339C100.864 30.7339 100.461 31.5436 100.461 33.1631C100.461 34.0704 100.565 34.6869 100.773 35.0124C100.984 35.3379 101.279 35.5007 101.658 35.5007C102.333 35.5007 102.711 35.0409 102.793 34.1213Z" fill="white"/>
<path d="M112.339 35.3115V37.3012H106.07V28.97H112.339V30.8926H108.579V32.101H111.618V33.9504H108.579V35.3115H112.339Z" fill="white"/>
<path d="M119.199 35.2565V37.3012H113.358V28.97H115.915V35.2565H119.199Z" fill="white"/>
<path d="M125.937 35.2565V37.3012H120.096V28.97H122.653V35.2565H125.937Z" fill="white"/>
</svg>
