<svg width="58" height="58" viewBox="0 0 58 58" fill="none" xmlns="http://www.w3.org/2000/svg">
<circle cx="29" cy="29" r="28" fill="#FAFAFA"/>
<path d="M33.4987 19.52C36.7824 21.07 39.1322 24.24 39.4937 28H41C40.4879 21.84 35.3163 17 29 17L28.3372 17.03L32.1632 20.84L33.4987 19.52ZM27.2226 18.75C26.6301 18.16 25.6761 18.16 25.0937 18.75L18.7071 25.11C18.1146 25.7 18.1146 26.65 18.7071 27.23L30.7774 39.25C31.3699 39.84 32.3238 39.84 32.9063 39.25L39.2929 32.89C39.8854 32.3 39.8854 31.35 39.2929 30.77L27.2226 18.75ZM31.8418 38.19L19.7715 26.17L26.1582 19.81L38.2285 31.83L31.8418 38.19ZM24.5013 38.48C21.2176 36.94 18.8678 33.76 18.5063 30H17C17.5121 36.16 22.6837 41 29 41L29.6628 40.97L25.8368 37.16L24.5013 38.48Z" fill="#9A9A9A"/>
</svg>
