<svg width="58" height="58" viewBox="0 0 58 58" fill="none" xmlns="http://www.w3.org/2000/svg">
<circle cx="29" cy="29" r="28" fill="#FAFAFA"/>
<path d="M29.4113 41C29.2922 40.9991 29.1745 40.9729 29.0655 40.9229C28.9225 40.854 28.8016 40.7439 28.7169 40.6057C28.6322 40.4675 28.5875 40.3068 28.5878 40.1429V31.0663L23.1611 36.7145L22 35.506L28.2502 29.0007L22 22.4954L23.1611 21.2869L28.5878 26.9351V17.8585C28.5875 17.6946 28.6322 17.5339 28.7169 17.3957C28.8016 17.2575 28.9225 17.1474 29.0655 17.0785C29.2087 17.0099 29.3679 16.9855 29.5241 17.0083C29.6803 17.0311 29.827 17.1001 29.9466 17.2071L35.711 22.3497C35.8013 22.4301 35.8739 22.53 35.9237 22.6425C35.9734 22.7549 35.9992 22.8773 35.9992 23.001C36.0043 23.1196 35.9857 23.2379 35.9446 23.3485C35.9035 23.4592 35.8407 23.5598 35.7604 23.6439L30.5724 29.0007L35.7604 34.3918C35.8367 34.4719 35.8971 34.5669 35.938 34.6713C35.979 34.7757 35.9998 34.8876 35.9992 35.0003C35.9946 35.1183 35.9666 35.234 35.917 35.3402C35.8674 35.4464 35.7972 35.5408 35.711 35.6175L29.9466 40.76C29.8022 40.9052 29.6119 40.9906 29.4113 41ZM30.2348 31.0663V38.283L33.9652 34.9489L30.2348 31.0663ZM30.2348 19.7184V26.9351L33.9652 23.0525L30.2348 19.7184Z" fill="#9A9A9A"/>
</svg>
