<svg width="157" height="152" viewBox="0 0 157 152" fill="none" xmlns="http://www.w3.org/2000/svg">
<g clip-path="url(#clip0)">
<circle r="31" transform="matrix(4.37114e-08 1 1 -4.37114e-08 157 150)" stroke="#66B700" stroke-width="4"/>
<circle r="47" transform="matrix(4.37114e-08 1 1 -4.37114e-08 157 150)" stroke="#66B700" stroke-opacity="0.8" stroke-width="4"/>
<circle r="62" transform="matrix(4.37114e-08 1 1 -4.37114e-08 157 150)" stroke="#66B700" stroke-opacity="0.6" stroke-width="4"/>
<circle r="77.5" transform="matrix(4.37114e-08 1 1 -4.37114e-08 156.5 149.5)" stroke="#66B700" stroke-opacity="0.4" stroke-width="4"/>
<circle r="93" transform="matrix(4.37114e-08 1 1 -4.37114e-08 157 150)" stroke="#66B700" stroke-opacity="0.2" stroke-width="4"/>
<circle r="109" transform="matrix(4.37114e-08 1 1 -4.37114e-08 157 150)" stroke="#66B700" stroke-opacity="0.1" stroke-width="4"/>
</g>
<defs>
<clipPath id="clip0">
<rect width="152" height="157" fill="white" transform="matrix(4.37114e-08 1 1 -4.37114e-08 0 0)"/>
</clipPath>
</defs>
</svg>
