<svg width="38" height="10" viewBox="0 0 38 10" fill="none" xmlns="http://www.w3.org/2000/svg">
<path fill-rule="evenodd" clip-rule="evenodd" d="M0.707066 4.24264C0.316542 4.63316 0.316542 5.26633 0.707066 5.65685L4.2426 9.19239C4.63312 9.58291 5.26629 9.58291 5.65681 9.19239C6.04734 8.80186 6.04734 8.1687 5.65681 7.77817L2.82839 4.94975L5.65681 2.12132C6.04734 1.7308 6.04734 1.09763 5.65681 0.707107C5.26629 0.316582 4.63312 0.316582 4.2426 0.707107L0.707066 4.24264Z" fill="#1B8508"/>
<path fill-rule="evenodd" clip-rule="evenodd" d="M14.6065 4.24264C14.216 4.63316 14.216 5.26633 14.6065 5.65685L18.1421 9.19239C18.5326 9.58291 19.1658 9.58291 19.5563 9.19239C19.9468 8.80186 19.9468 8.1687 19.5563 7.77817L16.7279 4.94975L19.5563 2.12132C19.9468 1.7308 19.9468 1.09763 19.5563 0.707107C19.1658 0.316582 18.5326 0.316582 18.1421 0.707107L14.6065 4.24264Z" fill="#1B8508" fill-opacity="0.6"/>
<path fill-rule="evenodd" clip-rule="evenodd" d="M28.506 4.24264C28.1155 4.63316 28.1155 5.26633 28.506 5.65685L32.0415 9.19239C32.4321 9.58291 33.0652 9.58291 33.4558 9.19239C33.8463 8.80186 33.8463 8.1687 33.4558 7.77817L30.6273 4.94975L33.4558 2.12132C33.8463 1.7308 33.8463 1.09763 33.4558 0.707107C33.0652 0.316582 32.4321 0.316582 32.0416 0.707107L28.506 4.24264Z" fill="#1B8508" fill-opacity="0.2"/>
</svg>
