<svg width="200" height="200" viewBox="0 0 200 200" fill="none" xmlns="http://www.w3.org/2000/svg">
<g filter="url(#filter0_d)">
<path d="M47.6289 154.03C45.2404 152.877 43.4077 150.823 42.534 148.319L27.9766 106.597C26.885 103.468 28.5363 100.047 31.6651 98.9554L139.301 61.3994C142.43 60.3078 145.851 61.9591 146.943 65.0879L171.321 134.957C172.413 138.086 170.762 141.507 167.633 142.599L88.144 170.334C85.6399 171.207 82.8913 171.05 80.5028 169.898L47.6289 154.03Z" fill="white"/>
<path d="M43.0061 148.154C43.8361 150.533 45.5772 152.485 47.8463 153.58L80.7201 169.447C82.9892 170.543 85.6004 170.692 87.9793 169.861L167.468 142.127C170.336 141.126 171.85 137.99 170.849 135.122L146.471 65.2526C145.47 62.3846 142.334 60.8708 139.466 61.8715L31.8298 99.4274C28.9618 100.428 27.448 103.564 28.4487 106.432L43.0061 148.154Z" stroke="#F5F5F5"/>
</g>
<rect x="92.1161" y="102.223" width="47" height="40" rx="3" transform="rotate(-19.2347 92.1161 102.223)" fill="#F5F5F5"/>
<path d="M72.1129 132.277L68.7179 133.461L68.7481 135.623L66.6892 136.341L66.9085 125.723L68.7028 125.097L75.4993 133.267L73.4404 133.986L72.1129 132.277ZM68.6935 131.711L71.0429 130.891L68.6344 127.785L68.6935 131.711ZM82.5202 127.306C82.7999 128.343 82.7033 129.269 82.2304 130.086C81.7618 130.901 80.9768 131.501 79.8752 131.885C78.6704 132.306 77.5805 132.232 76.6055 131.665C75.6333 131.092 74.9002 130.098 74.4062 128.682L74.2058 128.108C73.8905 127.204 73.772 126.352 73.8502 125.553C73.9284 124.753 74.1984 124.068 74.6603 123.496C75.125 122.919 75.7489 122.494 76.532 122.221C77.6164 121.842 78.5912 121.828 79.4565 122.178C80.3218 122.527 80.9893 123.209 81.4589 124.223L79.5226 124.899C79.2636 124.308 78.9405 123.929 78.5533 123.76C78.1689 123.585 77.6798 123.601 77.086 123.808C76.4406 124.034 76.0376 124.435 75.877 125.012C75.7192 125.584 75.8057 126.357 76.1364 127.333L76.3841 128.043C76.7384 129.058 77.1502 129.747 77.6193 130.109C78.0928 130.47 78.6608 130.535 79.3235 130.304C79.9216 130.095 80.3196 129.804 80.5177 129.431C80.7185 129.052 80.7405 128.569 80.5839 127.982L82.5202 127.306Z" fill="#66B700" fill-opacity="0.8"/>
<circle cx="73.8268" cy="128.728" r="14.5" transform="rotate(-19.2347 73.8268 128.728)" stroke="#1B8508" stroke-opacity="0.4"/>
<g filter="url(#filter1_d)">
<path d="M38.1359 75.0698C36.5559 72.9396 35.8869 70.269 36.276 67.6455L42.7586 23.9351C43.2447 20.6572 46.296 18.3941 49.5739 18.8802L162.34 35.6044C165.618 36.0905 167.881 39.1418 167.395 42.4197L156.539 115.619C156.053 118.897 153.002 121.16 149.724 120.674L66.4463 108.323C63.8229 107.934 61.4614 106.519 59.8814 104.389L38.1359 75.0698Z" fill="white"/>
<path d="M36.7706 67.7189C36.401 70.2112 37.0365 72.7482 38.5375 74.7719L60.283 104.091C61.784 106.114 64.0274 107.459 66.5197 107.829L149.797 120.179C152.802 120.625 155.599 118.55 156.045 115.546L166.901 42.3463C167.346 39.3416 165.272 36.5446 162.267 36.099L49.5005 19.3748C46.4958 18.9292 43.6988 21.0037 43.2532 24.0084L36.7706 67.7189Z" stroke="#F5F5F5"/>
</g>
<rect x="101.594" y="49.8467" width="47" height="40" rx="3" transform="rotate(8.43591 101.594 49.8467)" fill="#F5F5F5"/>
<path d="M69.9216 67.1742L66.3648 66.6467L65.3878 68.575L63.2307 68.2551L68.3559 58.9532L70.2357 59.232L72.4608 69.624L70.3037 69.3041L69.9216 67.1742ZM67.1563 65.0848L69.6176 65.4498L68.9267 61.581L67.1563 65.0848ZM81.447 67.605C81.2133 68.653 80.6974 69.4288 79.8994 69.9324C79.1059 70.4367 78.1321 70.6033 76.978 70.4321C75.7158 70.2449 74.7846 69.6738 74.1845 68.7186C73.5896 67.7596 73.4022 66.5386 73.6221 65.0555L73.7114 64.4537C73.8518 63.507 74.1422 62.6977 74.5828 62.0259C75.0234 61.3541 75.5809 60.8724 76.2553 60.5809C76.9349 60.2854 77.6849 60.1986 78.5054 60.3202C79.6414 60.4887 80.5114 60.9287 81.1153 61.6403C81.7193 62.3518 81.9938 63.2656 81.9389 64.3816L79.9103 64.0807C79.955 63.4377 79.8451 62.9515 79.5807 62.622C79.3214 62.2887 78.8808 62.0759 78.2587 61.9837C77.5825 61.8834 77.0392 62.0516 76.6289 62.4883C76.2238 62.9212 75.9412 63.6464 75.781 64.6639L75.6707 65.4077C75.5129 66.4716 75.5577 67.2729 75.8048 67.8118C76.0565 68.3513 76.5295 68.6725 77.2237 68.7755C77.8504 68.8684 78.338 68.7956 78.6867 68.557C79.0405 68.3147 79.2844 67.897 79.4184 67.3042L81.447 67.605Z" fill="#66B700" fill-opacity="0.8"/>
<circle cx="73.0877" cy="64.8269" r="14.5" transform="rotate(8.43591 73.0877 64.8269)" stroke="#1B8508" stroke-opacity="0.4"/>
<defs>
<filter id="filter0_d" x="15.64" y="49.0629" width="168.018" height="133.829" filterUnits="userSpaceOnUse" color-interpolation-filters="sRGB">
<feFlood flood-opacity="0" result="BackgroundImageFix"/>
<feColorMatrix in="SourceAlpha" type="matrix" values="0 0 0 0 0 0 0 0 0 0 0 0 0 0 0 0 0 0 127 0"/>
<feOffset/>
<feGaussianBlur stdDeviation="6"/>
<feColorMatrix type="matrix" values="0 0 0 0 0 0 0 0 0 0 0 0 0 0 0 0 0 0 0.04 0"/>
<feBlend mode="normal" in2="BackgroundImageFix" result="effect1_dropShadow"/>
<feBlend mode="normal" in="SourceGraphic" in2="effect1_dropShadow" result="shape"/>
</filter>
<filter id="filter1_d" x="24.1677" y="6.81448" width="155.293" height="125.925" filterUnits="userSpaceOnUse" color-interpolation-filters="sRGB">
<feFlood flood-opacity="0" result="BackgroundImageFix"/>
<feColorMatrix in="SourceAlpha" type="matrix" values="0 0 0 0 0 0 0 0 0 0 0 0 0 0 0 0 0 0 127 0"/>
<feOffset/>
<feGaussianBlur stdDeviation="6"/>
<feColorMatrix type="matrix" values="0 0 0 0 0 0 0 0 0 0 0 0 0 0 0 0 0 0 0.04 0"/>
<feBlend mode="normal" in2="BackgroundImageFix" result="effect1_dropShadow"/>
<feBlend mode="normal" in="SourceGraphic" in2="effect1_dropShadow" result="shape"/>
</filter>
</defs>
</svg>
