<svg width="210" height="119" viewBox="0 0 210 119" fill="none" xmlns="http://www.w3.org/2000/svg">
<mask id="mask0" mask-type="alpha" maskUnits="userSpaceOnUse" x="0" y="0" width="210" height="119">
<path d="M0 0H193C202.389 0 210 7.61116 210 17V119H0V0Z" fill="#C4C4C4"/>
</mask>
<g mask="url(#mask0)">
<g filter="url(#filter0_d)">
<path d="M97.7959 128.022C121.431 149.742 166.449 139.212 198.346 104.503C230.243 69.7932 236.94 24.0479 213.304 2.32778C189.669 -19.3924 144.651 -8.86244 112.754 25.847C80.8575 60.5565 74.1604 106.302 97.7959 128.022Z" fill="white"/>
</g>
<g filter="url(#filter1_d)">
<path d="M106.871 118.146C126.871 136.524 164.877 127.707 191.762 98.4522C218.646 69.197 224.228 30.5823 204.228 12.2037C184.229 -6.17488 146.222 2.6423 119.338 31.8974C92.4536 61.1526 86.8722 99.7673 106.871 118.146Z" fill="white"/>
</g>
<g filter="url(#filter2_d)">
<path d="M115.947 108.27C132.145 123.155 163.007 115.928 184.879 92.1268C206.751 68.326 211.35 36.9649 195.153 22.0797C178.955 7.19459 148.093 14.4222 126.221 38.2229C104.349 62.0237 99.7493 93.3849 115.947 108.27Z" fill="white"/>
</g>
<g filter="url(#filter3_d)">
<path d="M114.749 88.4993C114.293 86.9336 113.928 85.0892 113.87 83.585C113.764 80.1628 114.2 77.9005 115.161 74.6671C119.53 61.7908 129.645 48.9651 142.268 42.4231C154.892 35.881 168.793 37.7617 170.929 49.5085C171.552 53.2219 170.878 57.4431 168.391 61.8811C164.892 67.9952 159.223 71.2192 153.511 73.0129C151.702 73.7174 150.721 75.3606 150.244 77.0409C149.789 79.9507 151.152 82.1027 153.032 83.3368C159.678 87.1132 169.771 83.5788 177.672 76.9536C188.916 67.5177 195.865 53.3715 196.573 41.5025C196.843 42.7772 197.056 43.5765 197.168 44.888C197.462 48.2407 197.262 51.3227 195.94 55.7979C191.571 68.6742 181.7 81.0572 169.053 87.5788C156.407 94.1003 142.529 92.2402 140.393 80.4934C139.77 76.78 140.444 72.5587 142.931 68.1207C146.43 62.0067 152.098 58.7826 157.81 56.989C159.62 56.2845 160.601 54.6412 161.078 52.961C161.532 50.0512 160.17 47.8991 158.29 46.665C151.644 42.8886 141.551 46.423 133.65 53.0482C122.406 62.4841 115.457 76.6303 114.749 88.4993Z" fill="#66B700" fill-opacity="0.6"/>
<path d="M142.75 108.251C140.897 108.443 138.909 108.51 137.498 108.315C134.274 107.862 132.539 107.066 130.373 105.695C122.227 99.4666 118.917 87.6878 123.573 74.494C128.228 61.3003 141.603 48.232 154.201 48.0112C158.109 47.9959 161.436 49.3342 163.43 52.4328C166.095 56.7531 164.308 62.7194 161.133 68.5115C160.277 70.3437 160.919 71.5983 162.047 72.3255C164.336 73.2015 167.481 72.2452 170.18 70.6385C179.213 64.8503 184.474 54.5809 185.063 45.8783C185.869 33.5433 178.725 24.6443 168.382 22.0623C169.779 22.001 170.69 21.9215 171.987 22.0128C175.318 22.26 177.995 22.943 180.971 24.9332C189.116 31.1614 192.184 42.6584 187.529 55.8521C182.873 69.0459 169.499 82.1142 156.901 82.3349C152.992 82.3503 149.665 81.0119 147.671 77.9133C145.006 73.5931 146.793 67.6267 149.968 61.8347C150.824 60.0025 150.183 58.7479 149.055 58.0206C146.766 57.1447 143.621 58.1009 140.922 59.7077C131.888 65.4959 126.627 75.7653 126.038 84.4679C125.294 96.737 132.429 105.69 142.75 108.251Z" fill="#3693FF"/>
<path d="M184.015 83.7506C182.674 85.5378 181.097 87.4502 179.763 88.7829C176.694 91.7999 174.581 93.3269 171.521 95.1948C159.183 102.06 145.806 103.478 137.628 97.1187C129.449 90.7599 128.635 76.0278 138.798 63.9377C142.005 60.1888 145.91 57.2134 150.393 55.7686C156.501 53.8764 160.441 56.4532 163.063 60.3081C164.041 61.4068 165.7 60.9302 167.298 59.9776C169.962 57.9269 171.699 54.7734 172.439 51.9649C174.618 42.4742 169.604 35.9484 162.239 34.0929C151.74 31.5205 137.772 37.0439 126.939 46.5424C128.051 45.2003 128.679 44.3234 129.862 43.0827C132.792 39.943 135.652 37.4765 139.873 34.9571C152.211 28.092 165.165 26.8407 173.293 33.2036C181.42 39.5664 182.285 54.2945 172.122 66.3846C168.915 70.1335 165.011 73.1089 160.528 74.5537C154.419 76.4459 150.479 73.8691 147.857 70.0143C146.879 68.9155 145.22 69.3921 143.622 70.3447C140.958 72.3954 139.221 75.5489 138.481 78.3574C136.302 87.8481 141.316 94.3739 148.681 96.2294C159.247 98.7432 173.215 93.2197 184.015 83.7506Z" fill="#645E9D"/>
</g>
<g filter="url(#filter4_d)">
<path d="M153.543 67.3584C154.378 68.1256 155.953 67.7699 157.062 66.564C158.17 65.3581 158.391 63.7585 157.556 62.9913C156.722 62.2241 155.146 62.5797 154.038 63.7856C152.93 64.9916 152.708 66.5911 153.543 67.3584Z" fill="white"/>
</g>
<g filter="url(#filter5_d)">
<rect x="75" y="71" width="36" height="22" rx="3" fill="white"/>
</g>
<path d="M84.1514 85.1543H88.3281V87H81.752V77.0469H84.1514V85.1543Z" fill="#645E9D"/>
<path d="M96.0251 78.8994H93.0378V87H90.6384V78.8994H87.7058V77.0469H96.0251V78.8994Z" fill="#645E9D"/>
<path d="M103.497 82.7822H99.7231V85.1543H104.18V87H97.3237V77.0469H104.194V78.8994H99.7231V80.998H103.497V82.7822Z" fill="#645E9D"/>
<path d="M100.072 65C93.0061 65 93.0061 58 85.9328 58C80.6891 58 80.6891 65 85.9328 65C92.9991 65 92.9991 58 100.072 58C105.309 58 105.309 65 100.072 65Z" stroke="#3693FF" stroke-width="2" stroke-miterlimit="10"/>
<circle cx="93.5" cy="38.5" r="2.5" fill="#3693FF"/>
<circle cx="93.5" cy="38.5" r="6" stroke="#645E9D"/>
<circle opacity="0.6" cx="93.5" cy="38.5" r="10" stroke="#645E9D"/>
<circle opacity="0.2" cx="93.5" cy="38.5" r="14" stroke="#645E9D"/>
<circle opacity="0.7" cx="141.5" cy="8.5" r="1.5" fill="#3693FF"/>
<circle cx="194.5" cy="87.5" r="1.5" fill="#3693FF"/>
<circle cx="107.5" cy="108.5" r="2.5" fill="#645E9D"/>
</g>
<defs>
<filter id="filter0_d" x="43.0001" y="-49" width="225.1" height="228.35" filterUnits="userSpaceOnUse" color-interpolation-filters="sRGB">
<feFlood flood-opacity="0" result="BackgroundImageFix"/>
<feColorMatrix in="SourceAlpha" type="matrix" values="0 0 0 0 0 0 0 0 0 0 0 0 0 0 0 0 0 0 127 0"/>
<feOffset/>
<feGaussianBlur stdDeviation="6"/>
<feColorMatrix type="matrix" values="0 0 0 0 0 0 0 0 0 0 0 0 0 0 0 0 0 0 0.06 0"/>
<feBlend mode="normal" in2="BackgroundImageFix" result="effect1_dropShadow"/>
<feBlend mode="normal" in="SourceGraphic" in2="effect1_dropShadow" result="shape"/>
</filter>
<filter id="filter1_d" x="58.6595" y="-33.0737" width="193.781" height="196.497" filterUnits="userSpaceOnUse" color-interpolation-filters="sRGB">
<feFlood flood-opacity="0" result="BackgroundImageFix"/>
<feColorMatrix in="SourceAlpha" type="matrix" values="0 0 0 0 0 0 0 0 0 0 0 0 0 0 0 0 0 0 127 0"/>
<feOffset/>
<feGaussianBlur stdDeviation="6"/>
<feColorMatrix type="matrix" values="0 0 0 0 0 0 0 0 0 0 0 0 0 0 0 0 0 0 0.06 0"/>
<feBlend mode="normal" in2="BackgroundImageFix" result="effect1_dropShadow"/>
<feBlend mode="normal" in="SourceGraphic" in2="effect1_dropShadow" result="shape"/>
</filter>
<filter id="filter2_d" x="74.6184" y="-16.8722" width="161.863" height="164.094" filterUnits="userSpaceOnUse" color-interpolation-filters="sRGB">
<feFlood flood-opacity="0" result="BackgroundImageFix"/>
<feColorMatrix in="SourceAlpha" type="matrix" values="0 0 0 0 0 0 0 0 0 0 0 0 0 0 0 0 0 0 127 0"/>
<feOffset/>
<feGaussianBlur stdDeviation="6"/>
<feColorMatrix type="matrix" values="0 0 0 0 0 0 0 0 0 0 0 0 0 0 0 0 0 0 0.06 0"/>
<feBlend mode="normal" in2="BackgroundImageFix" result="effect1_dropShadow"/>
<feBlend mode="normal" in="SourceGraphic" in2="effect1_dropShadow" result="shape"/>
</filter>
<filter id="filter3_d" x="101.855" y="9.97144" width="107.431" height="110.461" filterUnits="userSpaceOnUse" color-interpolation-filters="sRGB">
<feFlood flood-opacity="0" result="BackgroundImageFix"/>
<feColorMatrix in="SourceAlpha" type="matrix" values="0 0 0 0 0 0 0 0 0 0 0 0 0 0 0 0 0 0 127 0"/>
<feOffset/>
<feGaussianBlur stdDeviation="6"/>
<feColorMatrix type="matrix" values="0 0 0 0 0 0 0 0 0 0 0 0 0 0 0 0 0 0 0.06 0"/>
<feBlend mode="normal" in2="BackgroundImageFix" result="effect1_dropShadow"/>
<feBlend mode="normal" in="SourceGraphic" in2="effect1_dropShadow" result="shape"/>
</filter>
<filter id="filter4_d" x="140.032" y="49.6021" width="31.0366" height="31.1455" filterUnits="userSpaceOnUse" color-interpolation-filters="sRGB">
<feFlood flood-opacity="0" result="BackgroundImageFix"/>
<feColorMatrix in="SourceAlpha" type="matrix" values="0 0 0 0 0 0 0 0 0 0 0 0 0 0 0 0 0 0 127 0"/>
<feOffset/>
<feGaussianBlur stdDeviation="6"/>
<feColorMatrix type="matrix" values="0 0 0 0 0 0 0 0 0 0 0 0 0 0 0 0 0 0 0.06 0"/>
<feBlend mode="normal" in2="BackgroundImageFix" result="effect1_dropShadow"/>
<feBlend mode="normal" in="SourceGraphic" in2="effect1_dropShadow" result="shape"/>
</filter>
<filter id="filter5_d" x="63" y="59" width="60" height="46" filterUnits="userSpaceOnUse" color-interpolation-filters="sRGB">
<feFlood flood-opacity="0" result="BackgroundImageFix"/>
<feColorMatrix in="SourceAlpha" type="matrix" values="0 0 0 0 0 0 0 0 0 0 0 0 0 0 0 0 0 0 127 0"/>
<feOffset/>
<feGaussianBlur stdDeviation="6"/>
<feColorMatrix type="matrix" values="0 0 0 0 0 0 0 0 0 0 0 0 0 0 0 0 0 0 0.08 0"/>
<feBlend mode="normal" in2="BackgroundImageFix" result="effect1_dropShadow"/>
<feBlend mode="normal" in="SourceGraphic" in2="effect1_dropShadow" result="shape"/>
</filter>
</defs>
</svg>
