<svg width="210" height="119" viewBox="0 0 210 119" fill="none" xmlns="http://www.w3.org/2000/svg">
<mask id="mask0" mask-type="alpha" maskUnits="userSpaceOnUse" x="0" y="0" width="210" height="119">
<rect width="210" height="119" fill="#C4C4C4"/>
</mask>
<g mask="url(#mask0)">
<g filter="url(#filter0_d)">
<path d="M159.5 104C195.122 104 224 75.1224 224 39.5C224 3.87763 195.122 -25 159.5 -25C123.878 -25 95 3.87763 95 39.5C95 75.1224 123.878 104 159.5 104Z" fill="white"/>
</g>
<g filter="url(#filter1_d)">
<path d="M186.802 78.2098C152.587 78.2098 124.885 50.3152 124.885 15.8636C124.885 7.42532 126.539 -0.636693 129.582 -8C113.622 1.88941 103 19.6258 103 39.8346C103 70.8465 127.98 96 158.779 96C175.646 96 190.752 88.4754 201 76.5437C196.463 77.6186 191.659 78.2098 186.802 78.2098Z" fill="white"/>
</g>
<g filter="url(#filter2_d)">
<path d="M139.5 77.9999C141.433 77.9999 143 76.4329 143 74.4999C143 72.5669 141.433 70.9999 139.5 70.9999C137.567 70.9999 136 72.5669 136 74.4999C136 76.4329 137.567 77.9999 139.5 77.9999Z" fill="#66B700"/>
</g>
<g filter="url(#filter3_d)">
<path d="M152.112 3.52776C155.408 3.52776 158.079 0.856263 158.079 -2.4392C158.079 -5.73466 155.408 -8.40616 152.112 -8.40616C148.817 -8.40616 146.146 -5.73466 146.146 -2.4392C146.146 0.856263 148.817 3.52776 152.112 3.52776Z" fill="white"/>
</g>
<g filter="url(#filter4_d)">
<path d="M173.048 20.5242C173.048 24.1275 170.127 27.0485 166.524 27.0485C162.921 27.0485 160 24.1275 160 20.5242C160 16.921 162.921 14 166.524 14C170.127 14 173.048 16.921 173.048 20.5242Z" stroke="#1B8508" stroke-width="4"/>
</g>
<g filter="url(#filter5_d)">
<path d="M203.911 15.194C205.195 14.1464 204.537 11.216 202.442 8.64863C200.347 6.08126 197.608 4.8492 196.324 5.89673C195.041 6.94426 195.698 9.87472 197.793 12.4421C199.889 15.0094 202.628 16.2415 203.911 15.194Z" fill="white"/>
</g>
<g filter="url(#filter6_d)">
<path d="M192.502 58.251C192.502 61.1511 190.151 63.5021 187.251 63.5021C184.351 63.5021 182 61.1511 182 58.251C182 55.3509 184.351 52.9999 187.251 52.9999C190.151 52.9999 192.502 55.3509 192.502 58.251Z" stroke="#66B700" stroke-width="2"/>
</g>
<g filter="url(#filter7_d)">
<path d="M198 30.5C198 31.8807 196.881 33 195.5 33C194.119 33 193 31.8807 193 30.5C193 29.1193 194.119 28 195.5 28C196.881 28 198 29.1193 198 30.5Z" stroke="#66B700" stroke-opacity="0.8" stroke-width="2"/>
</g>
<g filter="url(#filter8_d)">
<path d="M167.5 47.9999C168.328 47.9999 169 47.3284 169 46.4999C169 45.6715 168.328 44.9999 167.5 44.9999C166.672 44.9999 166 45.6715 166 46.4999C166 47.3284 166.672 47.9999 167.5 47.9999Z" fill="#1B8508" fill-opacity="0.4"/>
</g>
<g filter="url(#filter9_d)">
<path d="M165.649 88.5763C165.742 87.0097 163.023 85.5741 159.577 85.3698C156.13 85.1655 153.261 86.2699 153.168 87.8365C153.075 89.4031 155.794 90.8387 159.24 91.043C162.687 91.2473 165.556 90.1429 165.649 88.5763Z" fill="white"/>
</g>
<g filter="url(#filter10_d)">
<path d="M213.912 32.1592C215.523 31.7445 216.175 28.8705 215.369 25.74C214.563 22.6094 212.604 20.4078 210.993 20.8225C209.383 21.2372 208.73 24.1112 209.536 27.2417C210.342 30.3723 212.301 32.5739 213.912 32.1592Z" fill="white"/>
</g>
<g filter="url(#filter11_d)">
<path d="M193.274 -6.78778C193.932 -7.74431 192.936 -9.57284 191.049 -10.8719C189.162 -12.171 187.098 -12.4487 186.44 -11.4921C185.781 -10.5356 186.777 -8.70708 188.665 -7.40801C190.552 -6.10894 192.615 -5.83125 193.274 -6.78778Z" fill="white"/>
</g>
<g filter="url(#filter12_d)">
<path d="M132 51.9999C136.418 51.9999 140 48.4182 140 43.9999C140 39.5817 136.418 35.9999 132 35.9999C127.582 35.9999 124 39.5817 124 43.9999C124 48.4182 127.582 51.9999 132 51.9999Z" fill="white"/>
</g>
<g filter="url(#filter13_d)">
<path d="M132 46.9999C133.657 46.9999 135 45.6568 135 43.9999C135 42.3431 133.657 40.9999 132 40.9999C130.343 40.9999 129 42.3431 129 43.9999C129 45.6568 130.343 46.9999 132 46.9999Z" fill="#1B8508" fill-opacity="0.8"/>
</g>
<g filter="url(#filter14_d)">
<path d="M146 44C146 51.732 139.732 58 132 58C124.268 58 118 51.732 118 44C118 36.268 124.268 30 132 30C139.732 30 146 36.268 146 44Z" stroke="white" stroke-width="4"/>
</g>
<g filter="url(#filter15_d)">
<path d="M178 76.9999C178 79.7614 175.761 81.9999 173 81.9999C170.239 81.9999 168 79.7614 168 76.9999C168 74.2385 170.239 71.9999 173 71.9999C175.761 71.9999 178 74.2385 178 76.9999Z" stroke="white" stroke-width="4"/>
</g>
<g filter="url(#filter16_d)">
<path d="M116.255 20.2548C116.714 18.3638 116.319 16.6448 115.374 16.4154C114.428 16.186 113.29 17.533 112.831 19.424C112.372 21.315 112.766 23.034 113.712 23.2634C114.658 23.4928 115.796 22.1458 116.255 20.2548Z" fill="white"/>
</g>
<g filter="url(#filter17_d)">
<path d="M120.5 103L121.105 106.895L125 107.5L121.105 108.105L120.5 112L119.895 108.105L116 107.5L119.895 106.895L120.5 103Z" fill="#1B8508"/>
</g>
<g filter="url(#filter18_d)">
<path d="M81.5 6L82.1046 9.89542L86 10.5L82.1046 11.1046L81.5 15L80.8954 11.1046L77 10.5L80.8954 9.89542L81.5 6Z" fill="#1B8508"/>
</g>
<rect x="111.64" y="57.1768" width="1" height="13" transform="rotate(-47.9836 111.64 57.1768)" fill="#1B8508"/>
<rect x="105.374" y="59.6337" width="1" height="12" transform="rotate(-39.9836 105.374 59.6337)" fill="#66B700" fill-opacity="0.8"/>
<rect x="113.51" y="50.8114" width="1" height="12" transform="rotate(-55.9836 113.51 50.8114)" fill="#66B700" fill-opacity="0.8"/>
<g filter="url(#filter19_d)">
<circle cx="109.375" cy="54.4627" r="6.5" transform="rotate(-47.9836 109.375 54.4627)" fill="#1B8508"/>
</g>
<g filter="url(#filter20_d)">
<circle cx="109.375" cy="54.4627" r="4.59995" transform="rotate(-47.9836 109.375 54.4627)" fill="white"/>
</g>
<g filter="url(#filter21_d)">
<circle cx="109.375" cy="54.4627" r="3.33596" transform="rotate(-47.9836 109.375 54.4627)" fill="#66B700"/>
</g>
<g filter="url(#filter22_d)">
<circle cx="109.762" cy="54.7616" r="23" stroke="#66B700" stroke-opacity="0.5" stroke-width="2"/>
</g>
<g filter="url(#filter23_d)">
<path d="M137.762 54.7616C137.762 70.2256 125.226 82.7616 109.762 82.7616C94.2977 82.7616 81.7617 70.2256 81.7617 54.7616C81.7617 39.2976 94.2977 26.7616 109.762 26.7616C125.226 26.7616 137.762 39.2976 137.762 54.7616Z" stroke="#66B700" stroke-opacity="0.4" stroke-width="2"/>
</g>
<g filter="url(#filter24_d)">
<circle cx="109.761" cy="54.7616" r="33" stroke="#66B700" stroke-opacity="0.2" stroke-width="2"/>
</g>
<g filter="url(#filter25_d)">
<circle cx="109.761" cy="54.7616" r="38" stroke="#66B700" stroke-opacity="0.2" stroke-width="2"/>
</g>
<g filter="url(#filter26_d)">
<circle cx="109.761" cy="54.7616" r="43" stroke="#66B700" stroke-opacity="0.1" stroke-width="2"/>
</g>
</g>
<defs>
<filter id="filter0_d" x="83" y="-37" width="153" height="153" filterUnits="userSpaceOnUse" color-interpolation-filters="sRGB">
<feFlood flood-opacity="0" result="BackgroundImageFix"/>
<feColorMatrix in="SourceAlpha" type="matrix" values="0 0 0 0 0 0 0 0 0 0 0 0 0 0 0 0 0 0 127 0"/>
<feOffset/>
<feGaussianBlur stdDeviation="6"/>
<feColorMatrix type="matrix" values="0 0 0 0 0 0 0 0 0 0 0 0 0 0 0 0 0 0 0.06 0"/>
<feBlend mode="normal" in2="BackgroundImageFix" result="effect1_dropShadow"/>
<feBlend mode="normal" in="SourceGraphic" in2="effect1_dropShadow" result="shape"/>
</filter>
<filter id="filter1_d" x="91" y="-20" width="122" height="128" filterUnits="userSpaceOnUse" color-interpolation-filters="sRGB">
<feFlood flood-opacity="0" result="BackgroundImageFix"/>
<feColorMatrix in="SourceAlpha" type="matrix" values="0 0 0 0 0 0 0 0 0 0 0 0 0 0 0 0 0 0 127 0"/>
<feOffset/>
<feGaussianBlur stdDeviation="6"/>
<feColorMatrix type="matrix" values="0 0 0 0 0 0 0 0 0 0 0 0 0 0 0 0 0 0 0.06 0"/>
<feBlend mode="normal" in2="BackgroundImageFix" result="effect1_dropShadow"/>
<feBlend mode="normal" in="SourceGraphic" in2="effect1_dropShadow" result="shape"/>
</filter>
<filter id="filter2_d" x="124" y="58.9999" width="31" height="31" filterUnits="userSpaceOnUse" color-interpolation-filters="sRGB">
<feFlood flood-opacity="0" result="BackgroundImageFix"/>
<feColorMatrix in="SourceAlpha" type="matrix" values="0 0 0 0 0 0 0 0 0 0 0 0 0 0 0 0 0 0 127 0"/>
<feOffset/>
<feGaussianBlur stdDeviation="6"/>
<feColorMatrix type="matrix" values="0 0 0 0 0 0 0 0 0 0 0 0 0 0 0 0 0 0 0.06 0"/>
<feBlend mode="normal" in2="BackgroundImageFix" result="effect1_dropShadow"/>
<feBlend mode="normal" in="SourceGraphic" in2="effect1_dropShadow" result="shape"/>
</filter>
<filter id="filter3_d" x="137.146" y="-17.4062" width="29.9339" height="29.9339" filterUnits="userSpaceOnUse" color-interpolation-filters="sRGB">
<feFlood flood-opacity="0" result="BackgroundImageFix"/>
<feColorMatrix in="SourceAlpha" type="matrix" values="0 0 0 0 0 0 0 0 0 0 0 0 0 0 0 0 0 0 127 0"/>
<feOffset/>
<feGaussianBlur stdDeviation="4.5"/>
<feColorMatrix type="matrix" values="0 0 0 0 0 0 0 0 0 0 0 0 0 0 0 0 0 0 0.06 0"/>
<feBlend mode="normal" in2="BackgroundImageFix" result="effect1_dropShadow"/>
<feBlend mode="normal" in="SourceGraphic" in2="effect1_dropShadow" result="shape"/>
</filter>
<filter id="filter4_d" x="152" y="6" width="29.0485" height="29.0485" filterUnits="userSpaceOnUse" color-interpolation-filters="sRGB">
<feFlood flood-opacity="0" result="BackgroundImageFix"/>
<feColorMatrix in="SourceAlpha" type="matrix" values="0 0 0 0 0 0 0 0 0 0 0 0 0 0 0 0 0 0 127 0"/>
<feOffset/>
<feGaussianBlur stdDeviation="3"/>
<feColorMatrix type="matrix" values="0 0 0 0 0 0 0 0 0 0 0 0 0 0 0 0 0 0 0.06 0"/>
<feBlend mode="normal" in2="BackgroundImageFix" result="effect1_dropShadow"/>
<feBlend mode="normal" in="SourceGraphic" in2="effect1_dropShadow" result="shape"/>
</filter>
<filter id="filter5_d" x="186" y="-4" width="28.2355" height="29.0907" filterUnits="userSpaceOnUse" color-interpolation-filters="sRGB">
<feFlood flood-opacity="0" result="BackgroundImageFix"/>
<feColorMatrix in="SourceAlpha" type="matrix" values="0 0 0 0 0 0 0 0 0 0 0 0 0 0 0 0 0 0 127 0"/>
<feOffset/>
<feGaussianBlur stdDeviation="4"/>
<feColorMatrix type="matrix" values="0 0 0 0 0 0 0 0 0 0 0 0 0 0 0 0 0 0 0.06 0"/>
<feBlend mode="normal" in2="BackgroundImageFix" result="effect1_dropShadow"/>
<feBlend mode="normal" in="SourceGraphic" in2="effect1_dropShadow" result="shape"/>
</filter>
<filter id="filter6_d" x="169" y="39.9999" width="36.5022" height="36.5022" filterUnits="userSpaceOnUse" color-interpolation-filters="sRGB">
<feFlood flood-opacity="0" result="BackgroundImageFix"/>
<feColorMatrix in="SourceAlpha" type="matrix" values="0 0 0 0 0 0 0 0 0 0 0 0 0 0 0 0 0 0 127 0"/>
<feOffset/>
<feGaussianBlur stdDeviation="6"/>
<feColorMatrix type="matrix" values="0 0 0 0 0 0 0 0 0 0 0 0 0 0 0 0 0 0 0.06 0"/>
<feBlend mode="normal" in2="BackgroundImageFix" result="effect1_dropShadow"/>
<feBlend mode="normal" in="SourceGraphic" in2="effect1_dropShadow" result="shape"/>
</filter>
<filter id="filter7_d" x="180" y="15" width="31" height="31" filterUnits="userSpaceOnUse" color-interpolation-filters="sRGB">
<feFlood flood-opacity="0" result="BackgroundImageFix"/>
<feColorMatrix in="SourceAlpha" type="matrix" values="0 0 0 0 0 0 0 0 0 0 0 0 0 0 0 0 0 0 127 0"/>
<feOffset/>
<feGaussianBlur stdDeviation="6"/>
<feColorMatrix type="matrix" values="0 0 0 0 0 0 0 0 0 0 0 0 0 0 0 0 0 0 0.06 0"/>
<feBlend mode="normal" in2="BackgroundImageFix" result="effect1_dropShadow"/>
<feBlend mode="normal" in="SourceGraphic" in2="effect1_dropShadow" result="shape"/>
</filter>
<filter id="filter8_d" x="154" y="32.9999" width="27" height="27" filterUnits="userSpaceOnUse" color-interpolation-filters="sRGB">
<feFlood flood-opacity="0" result="BackgroundImageFix"/>
<feColorMatrix in="SourceAlpha" type="matrix" values="0 0 0 0 0 0 0 0 0 0 0 0 0 0 0 0 0 0 127 0"/>
<feOffset/>
<feGaussianBlur stdDeviation="6"/>
<feColorMatrix type="matrix" values="0 0 0 0 0 0 0 0 0 0 0 0 0 0 0 0 0 0 0.06 0"/>
<feBlend mode="normal" in2="BackgroundImageFix" result="effect1_dropShadow"/>
<feBlend mode="normal" in="SourceGraphic" in2="effect1_dropShadow" result="shape"/>
</filter>
<filter id="filter9_d" x="143" y="74.9999" width="32.8172" height="26.4129" filterUnits="userSpaceOnUse" color-interpolation-filters="sRGB">
<feFlood flood-opacity="0" result="BackgroundImageFix"/>
<feColorMatrix in="SourceAlpha" type="matrix" values="0 0 0 0 0 0 0 0 0 0 0 0 0 0 0 0 0 0 127 0"/>
<feOffset/>
<feGaussianBlur stdDeviation="5"/>
<feColorMatrix type="matrix" values="0 0 0 0 0 0 0 0 0 0 0 0 0 0 0 0 0 0 0.06 0"/>
<feBlend mode="normal" in2="BackgroundImageFix" result="effect1_dropShadow"/>
<feBlend mode="normal" in="SourceGraphic" in2="effect1_dropShadow" result="shape"/>
</filter>
<filter id="filter10_d" x="196.077" y="8.07166" width="32.7519" height="36.8384" filterUnits="userSpaceOnUse" color-interpolation-filters="sRGB">
<feFlood flood-opacity="0" result="BackgroundImageFix"/>
<feColorMatrix in="SourceAlpha" type="matrix" values="0 0 0 0 0 0 0 0 0 0 0 0 0 0 0 0 0 0 127 0"/>
<feOffset/>
<feGaussianBlur stdDeviation="6"/>
<feColorMatrix type="matrix" values="0 0 0 0 0 0 0 0 0 0 0 0 0 0 0 0 0 0 0.06 0"/>
<feBlend mode="normal" in2="BackgroundImageFix" result="effect1_dropShadow"/>
<feBlend mode="normal" in="SourceGraphic" in2="effect1_dropShadow" result="shape"/>
</filter>
<filter id="filter11_d" x="173.248" y="-25.2241" width="33.2186" height="32.1683" filterUnits="userSpaceOnUse" color-interpolation-filters="sRGB">
<feFlood flood-opacity="0" result="BackgroundImageFix"/>
<feColorMatrix in="SourceAlpha" type="matrix" values="0 0 0 0 0 0 0 0 0 0 0 0 0 0 0 0 0 0 127 0"/>
<feOffset/>
<feGaussianBlur stdDeviation="6"/>
<feColorMatrix type="matrix" values="0 0 0 0 0 0 0 0 0 0 0 0 0 0 0 0 0 0 0.06 0"/>
<feBlend mode="normal" in2="BackgroundImageFix" result="effect1_dropShadow"/>
<feBlend mode="normal" in="SourceGraphic" in2="effect1_dropShadow" result="shape"/>
</filter>
<filter id="filter12_d" x="112" y="23.9999" width="40" height="40" filterUnits="userSpaceOnUse" color-interpolation-filters="sRGB">
<feFlood flood-opacity="0" result="BackgroundImageFix"/>
<feColorMatrix in="SourceAlpha" type="matrix" values="0 0 0 0 0 0 0 0 0 0 0 0 0 0 0 0 0 0 127 0"/>
<feOffset/>
<feGaussianBlur stdDeviation="6"/>
<feColorMatrix type="matrix" values="0 0 0 0 0 0 0 0 0 0 0 0 0 0 0 0 0 0 0.06 0"/>
<feBlend mode="normal" in2="BackgroundImageFix" result="effect1_dropShadow"/>
<feBlend mode="normal" in="SourceGraphic" in2="effect1_dropShadow" result="shape"/>
</filter>
<filter id="filter13_d" x="117" y="28.9999" width="30" height="30" filterUnits="userSpaceOnUse" color-interpolation-filters="sRGB">
<feFlood flood-opacity="0" result="BackgroundImageFix"/>
<feColorMatrix in="SourceAlpha" type="matrix" values="0 0 0 0 0 0 0 0 0 0 0 0 0 0 0 0 0 0 127 0"/>
<feOffset/>
<feGaussianBlur stdDeviation="6"/>
<feColorMatrix type="matrix" values="0 0 0 0 0 0 0 0 0 0 0 0 0 0 0 0 0 0 0.06 0"/>
<feBlend mode="normal" in2="BackgroundImageFix" result="effect1_dropShadow"/>
<feBlend mode="normal" in="SourceGraphic" in2="effect1_dropShadow" result="shape"/>
</filter>
<filter id="filter14_d" x="112" y="24" width="40" height="40" filterUnits="userSpaceOnUse" color-interpolation-filters="sRGB">
<feFlood flood-opacity="0" result="BackgroundImageFix"/>
<feColorMatrix in="SourceAlpha" type="matrix" values="0 0 0 0 0 0 0 0 0 0 0 0 0 0 0 0 0 0 127 0"/>
<feOffset/>
<feGaussianBlur stdDeviation="2"/>
<feColorMatrix type="matrix" values="0 0 0 0 0 0 0 0 0 0 0 0 0 0 0 0 0 0 0.06 0"/>
<feBlend mode="normal" in2="BackgroundImageFix" result="effect1_dropShadow"/>
<feBlend mode="normal" in="SourceGraphic" in2="effect1_dropShadow" result="shape"/>
</filter>
<filter id="filter15_d" x="162" y="65.9999" width="22" height="22" filterUnits="userSpaceOnUse" color-interpolation-filters="sRGB">
<feFlood flood-opacity="0" result="BackgroundImageFix"/>
<feColorMatrix in="SourceAlpha" type="matrix" values="0 0 0 0 0 0 0 0 0 0 0 0 0 0 0 0 0 0 127 0"/>
<feOffset/>
<feGaussianBlur stdDeviation="2"/>
<feColorMatrix type="matrix" values="0 0 0 0 0 0 0 0 0 0 0 0 0 0 0 0 0 0 0.06 0"/>
<feBlend mode="normal" in2="BackgroundImageFix" result="effect1_dropShadow"/>
<feBlend mode="normal" in="SourceGraphic" in2="effect1_dropShadow" result="shape"/>
</filter>
<filter id="filter16_d" x="108" y="12" width="13.0856" height="15.6788" filterUnits="userSpaceOnUse" color-interpolation-filters="sRGB">
<feFlood flood-opacity="0" result="BackgroundImageFix"/>
<feColorMatrix in="SourceAlpha" type="matrix" values="0 0 0 0 0 0 0 0 0 0 0 0 0 0 0 0 0 0 127 0"/>
<feOffset/>
<feGaussianBlur stdDeviation="2"/>
<feColorMatrix type="matrix" values="0 0 0 0 0 0 0 0 0 0 0 0 0 0 0 0 0 0 0.06 0"/>
<feBlend mode="normal" in2="BackgroundImageFix" result="effect1_dropShadow"/>
<feBlend mode="normal" in="SourceGraphic" in2="effect1_dropShadow" result="shape"/>
</filter>
<filter id="filter17_d" x="104" y="90.9999" width="33" height="33" filterUnits="userSpaceOnUse" color-interpolation-filters="sRGB">
<feFlood flood-opacity="0" result="BackgroundImageFix"/>
<feColorMatrix in="SourceAlpha" type="matrix" values="0 0 0 0 0 0 0 0 0 0 0 0 0 0 0 0 0 0 127 0"/>
<feOffset/>
<feGaussianBlur stdDeviation="6"/>
<feColorMatrix type="matrix" values="0 0 0 0 0 0 0 0 0 0 0 0 0 0 0 0 0 0 0.06 0"/>
<feBlend mode="normal" in2="BackgroundImageFix" result="effect1_dropShadow"/>
<feBlend mode="normal" in="SourceGraphic" in2="effect1_dropShadow" result="shape"/>
</filter>
<filter id="filter18_d" x="69" y="-2" width="25" height="25" filterUnits="userSpaceOnUse" color-interpolation-filters="sRGB">
<feFlood flood-opacity="0" result="BackgroundImageFix"/>
<feColorMatrix in="SourceAlpha" type="matrix" values="0 0 0 0 0 0 0 0 0 0 0 0 0 0 0 0 0 0 127 0"/>
<feOffset/>
<feGaussianBlur stdDeviation="4"/>
<feColorMatrix type="matrix" values="0 0 0 0 0 0 0 0 0 0 0 0 0 0 0 0 0 0 0.06 0"/>
<feBlend mode="normal" in2="BackgroundImageFix" result="effect1_dropShadow"/>
<feBlend mode="normal" in="SourceGraphic" in2="effect1_dropShadow" result="shape"/>
</filter>
<filter id="filter19_d" x="94.1948" y="39.2827" width="30.3599" height="30.3599" filterUnits="userSpaceOnUse" color-interpolation-filters="sRGB">
<feFlood flood-opacity="0" result="BackgroundImageFix"/>
<feColorMatrix in="SourceAlpha" type="matrix" values="0 0 0 0 0 0 0 0 0 0 0 0 0 0 0 0 0 0 127 0"/>
<feOffset/>
<feGaussianBlur stdDeviation="3"/>
<feColorMatrix type="matrix" values="0 0 0 0 0 0 0 0 0 0 0 0 0 0 0 0 0 0 0.06 0"/>
<feBlend mode="normal" in2="BackgroundImageFix" result="effect1_dropShadow"/>
<feBlend mode="normal" in="SourceGraphic" in2="effect1_dropShadow" result="shape"/>
</filter>
<filter id="filter20_d" x="96.8784" y="41.9662" width="24.993" height="24.993" filterUnits="userSpaceOnUse" color-interpolation-filters="sRGB">
<feFlood flood-opacity="0" result="BackgroundImageFix"/>
<feColorMatrix in="SourceAlpha" type="matrix" values="0 0 0 0 0 0 0 0 0 0 0 0 0 0 0 0 0 0 127 0"/>
<feOffset/>
<feGaussianBlur stdDeviation="3"/>
<feColorMatrix type="matrix" values="0 0 0 0 0 0 0 0 0 0 0 0 0 0 0 0 0 0 0.06 0"/>
<feBlend mode="normal" in2="BackgroundImageFix" result="effect1_dropShadow"/>
<feBlend mode="normal" in="SourceGraphic" in2="effect1_dropShadow" result="shape"/>
</filter>
<filter id="filter21_d" x="98.6636" y="43.7513" width="21.4227" height="21.4227" filterUnits="userSpaceOnUse" color-interpolation-filters="sRGB">
<feFlood flood-opacity="0" result="BackgroundImageFix"/>
<feColorMatrix in="SourceAlpha" type="matrix" values="0 0 0 0 0 0 0 0 0 0 0 0 0 0 0 0 0 0 127 0"/>
<feOffset/>
<feGaussianBlur stdDeviation="3"/>
<feColorMatrix type="matrix" values="0 0 0 0 0 0 0 0 0 0 0 0 0 0 0 0 0 0 0.06 0"/>
<feBlend mode="normal" in2="BackgroundImageFix" result="effect1_dropShadow"/>
<feBlend mode="normal" in="SourceGraphic" in2="effect1_dropShadow" result="shape"/>
</filter>
<filter id="filter22_d" x="79.7617" y="24.7616" width="60" height="60" filterUnits="userSpaceOnUse" color-interpolation-filters="sRGB">
<feFlood flood-opacity="0" result="BackgroundImageFix"/>
<feColorMatrix in="SourceAlpha" type="matrix" values="0 0 0 0 0 0 0 0 0 0 0 0 0 0 0 0 0 0 127 0"/>
<feOffset/>
<feGaussianBlur stdDeviation="3"/>
<feColorMatrix type="matrix" values="0 0 0 0 0 0 0 0 0 0 0 0 0 0 0 0 0 0 0.06 0"/>
<feBlend mode="normal" in2="BackgroundImageFix" result="effect1_dropShadow"/>
<feBlend mode="normal" in="SourceGraphic" in2="effect1_dropShadow" result="shape"/>
</filter>
<filter id="filter23_d" x="74.7617" y="19.7616" width="70" height="70" filterUnits="userSpaceOnUse" color-interpolation-filters="sRGB">
<feFlood flood-opacity="0" result="BackgroundImageFix"/>
<feColorMatrix in="SourceAlpha" type="matrix" values="0 0 0 0 0 0 0 0 0 0 0 0 0 0 0 0 0 0 127 0"/>
<feOffset/>
<feGaussianBlur stdDeviation="3"/>
<feColorMatrix type="matrix" values="0 0 0 0 0 0 0 0 0 0 0 0 0 0 0 0 0 0 0.06 0"/>
<feBlend mode="normal" in2="BackgroundImageFix" result="effect1_dropShadow"/>
<feBlend mode="normal" in="SourceGraphic" in2="effect1_dropShadow" result="shape"/>
</filter>
<filter id="filter24_d" x="69.7615" y="14.7616" width="80" height="80" filterUnits="userSpaceOnUse" color-interpolation-filters="sRGB">
<feFlood flood-opacity="0" result="BackgroundImageFix"/>
<feColorMatrix in="SourceAlpha" type="matrix" values="0 0 0 0 0 0 0 0 0 0 0 0 0 0 0 0 0 0 127 0"/>
<feOffset/>
<feGaussianBlur stdDeviation="3"/>
<feColorMatrix type="matrix" values="0 0 0 0 0 0 0 0 0 0 0 0 0 0 0 0 0 0 0.06 0"/>
<feBlend mode="normal" in2="BackgroundImageFix" result="effect1_dropShadow"/>
<feBlend mode="normal" in="SourceGraphic" in2="effect1_dropShadow" result="shape"/>
</filter>
<filter id="filter25_d" x="64.7615" y="9.7616" width="90" height="90" filterUnits="userSpaceOnUse" color-interpolation-filters="sRGB">
<feFlood flood-opacity="0" result="BackgroundImageFix"/>
<feColorMatrix in="SourceAlpha" type="matrix" values="0 0 0 0 0 0 0 0 0 0 0 0 0 0 0 0 0 0 127 0"/>
<feOffset/>
<feGaussianBlur stdDeviation="3"/>
<feColorMatrix type="matrix" values="0 0 0 0 0 0 0 0 0 0 0 0 0 0 0 0 0 0 0.06 0"/>
<feBlend mode="normal" in2="BackgroundImageFix" result="effect1_dropShadow"/>
<feBlend mode="normal" in="SourceGraphic" in2="effect1_dropShadow" result="shape"/>
</filter>
<filter id="filter26_d" x="59.7615" y="4.7616" width="100" height="100" filterUnits="userSpaceOnUse" color-interpolation-filters="sRGB">
<feFlood flood-opacity="0" result="BackgroundImageFix"/>
<feColorMatrix in="SourceAlpha" type="matrix" values="0 0 0 0 0 0 0 0 0 0 0 0 0 0 0 0 0 0 127 0"/>
<feOffset/>
<feGaussianBlur stdDeviation="3"/>
<feColorMatrix type="matrix" values="0 0 0 0 0 0 0 0 0 0 0 0 0 0 0 0 0 0 0.06 0"/>
<feBlend mode="normal" in2="BackgroundImageFix" result="effect1_dropShadow"/>
<feBlend mode="normal" in="SourceGraphic" in2="effect1_dropShadow" result="shape"/>
</filter>
</defs>
</svg>
