<svg width="210" height="119" viewBox="0 0 210 119" fill="none" xmlns="http://www.w3.org/2000/svg">
<mask id="mask0" mask-type="alpha" maskUnits="userSpaceOnUse" x="0" y="0" width="210" height="119">
<rect width="210" height="119" fill="#C4C4C4"/>
</mask>
<g mask="url(#mask0)">
<circle cx="170" cy="49" r="5.5" stroke="#1B8508" stroke-opacity="0.6"/>
<circle cx="170" cy="49" r="9.5" stroke="#1B8508" stroke-opacity="0.4"/>
<circle cx="170" cy="49" r="13.5" stroke="#1B8508" stroke-opacity="0.2"/>
<circle cx="170" cy="49" r="17.5" stroke="#1B8508" stroke-opacity="0.2"/>
<circle cx="170" cy="49" r="21.5" stroke="#1B8508" stroke-opacity="0.1"/>
<circle cx="170" cy="49" r="2" fill="#66B700"/>
<path d="M141.841 81.0967C132.591 76.1263 126.235 67.5677 119.633 59.6479C116.244 55.5553 112.688 51.6119 108.639 48.165C104.453 44.5984 99.7829 41.943 95.2159 38.8954C92.4263 37.0384 89.9735 34.8827 88.2652 32.0067C86.557 29.1307 85.5743 25.8519 84.6176 22.6703C84.4492 22.8196 84.3425 23.0045 84.1741 23.1538C87.7283 24.7538 91.331 26.3409 94.8721 27.8924C97.9593 29.305 101.06 30.7663 103.121 33.5997C105.082 36.2518 106.223 39.5402 107.591 42.5073C108.985 45.5717 110.38 48.6361 111.579 51.7526C111.745 52.177 112.237 51.6805 112.084 51.3047C110.81 48.1041 109.403 44.9911 107.996 41.8781C106.628 38.9109 105.499 35.6712 103.538 33.0191C101.578 30.367 98.6718 28.8536 95.7078 27.5121C91.9688 25.8053 88.1943 24.1602 84.4683 22.5019C84.1732 22.3727 83.9597 22.7424 84.0248 22.9854C85.6292 28.3896 87.499 33.6184 91.8822 37.3404C96.0674 40.9071 101.233 43.2734 105.684 46.6647C114.55 53.5089 120.709 62.6933 128.219 70.8907C132.123 75.1577 136.448 79.0516 141.559 81.7971C141.916 81.962 142.149 81.2746 141.841 81.0967Z" fill="#1B8508" fill-opacity="0.2"/>
<path d="M85.6896 24.7271C88.1901 26.0886 89.6354 28.5663 91.3557 30.7098C93.1767 33.0347 95.6096 34.7269 97.9226 36.5553C102.672 40.2834 106.781 45.1206 110.148 50.1046C110.411 50.5029 110.89 49.9579 110.653 49.6567C107.299 44.7214 103.265 39.9683 98.6126 36.2142C96.1632 34.266 93.6072 32.5027 91.6368 30.0094C89.9521 27.8043 88.4713 25.3882 85.9838 24.0753C85.6141 23.8618 85.3815 24.5492 85.6896 24.7271Z" fill="#1B8508" fill-opacity="0.2"/>
<path d="M130.563 71.669C128.961 67.827 126.801 64.2385 124.92 60.5232C123.608 57.9578 122.525 55.2788 121.589 52.5606C119.65 46.8813 118.181 40.8158 118.226 34.7614C118.209 31.5884 118.704 28.3824 120.133 25.5513C119.988 25.5903 119.793 25.6424 119.647 25.6815C121.14 27.365 121.652 29.4679 122.26 31.5447C122.839 33.3169 123.587 34.9398 124.444 36.5852C126.514 40.6146 128.301 44.5633 129.243 49.0511C130.116 53.0884 130.627 57.3271 130.551 61.5147C130.5 65.0184 130.07 68.4674 130.019 71.971C129.991 72.4475 130.635 72.3268 130.615 71.8634C130.711 68.1393 131.112 64.3856 131.159 60.6745C131.2 56.5486 130.641 52.3229 129.719 48.2986C128.718 43.9827 126.993 40.0695 124.949 36.1373C123.952 34.1647 123.113 32.2016 122.479 30.0276C121.948 28.2424 121.321 26.4833 120.052 25.0522C119.902 24.8839 119.673 24.9976 119.566 25.1824C116.992 30.3518 117.304 36.571 118.251 42.0473C119.227 47.8282 120.958 53.511 123.379 58.8526C125.419 63.3585 128.115 67.5849 130.071 72.1655C130.224 72.5412 130.716 72.0448 130.563 71.669Z" fill="#1B8508" fill-opacity="0.2"/>
<path d="M119.534 25.4515C120.19 32.5681 120.731 40.0284 123.309 46.7344C124.74 50.5182 125.866 54.3316 126.81 58.2457C127.794 62.3056 128.729 66.3785 130.088 70.2856C130.267 70.7586 130.798 70.408 130.694 70.0191C128.066 62.5451 127.042 54.6414 124.22 47.2195C121.577 40.2705 120.913 32.7391 120.178 25.3308C120.061 24.8934 119.465 25.0011 119.534 25.4515Z" fill="#1B8508" fill-opacity="0.2"/>
<path d="M119.63 60.2217C116.419 60.8737 113.169 61.38 109.925 61.52C106.84 61.6695 103.831 61.3296 100.846 60.8794C95.3642 60.0562 89.3991 58.7896 84.9579 55.2395C84.9128 55.4599 84.819 55.6934 84.7739 55.9139C87.8453 54.9346 91.1164 55.6729 94.3155 55.7533C97.5761 55.8694 100.736 55.804 103.942 56.2993C109.119 57.152 114.993 58.0784 119.495 60.883C119.865 61.0965 120.097 60.4091 119.776 60.1826C115.213 57.3424 109.277 56.3804 104.051 55.5407C100.735 55.0229 97.5266 55.1013 94.2173 54.9983C91.0539 54.8562 87.7958 54.1665 84.7114 55.0972C84.4684 55.1623 84.2679 55.5806 84.5274 55.7715C88.9687 59.3217 94.8366 60.6143 100.331 61.4861C103.317 61.9363 106.276 62.2892 109.278 62.2143C112.755 62.168 116.213 61.6583 119.667 60.9411C120.02 60.8986 120.019 60.1175 119.63 60.2217Z" fill="#1B8508" fill-opacity="0.2"/>
<path d="M85.7791 56.1655C91.148 57.5397 96.7068 57.8734 102.162 58.5993C107.997 59.3799 113.761 60.2838 119.57 60.9672C119.949 61.0218 120.107 60.2502 119.692 60.2572C113.883 59.5738 108.071 58.683 102.285 57.8894C96.8291 57.1634 91.2703 56.8298 85.9014 55.4555C85.5091 55.3523 85.3868 56.0622 85.7791 56.1655Z" fill="#1B8508" fill-opacity="0.2"/>
<path d="M131.21 73.1105C127.693 72.2299 124.053 72.0592 120.439 71.9858C116.873 71.8993 113.256 71.6184 109.668 71.6421C105.922 71.6563 102.344 72.3023 98.7087 73.1202C95.718 73.8174 92.5424 74.4078 90.1238 76.4623C89.9069 76.6246 89.9138 77.0395 90.1959 77.1202C91.963 77.6885 93.8298 77.6571 95.6741 77.7359C97.5669 77.8017 99.3079 78.2728 101.088 78.8897C104.428 80.0784 107.977 80.69 111.494 80.7895C118.625 80.9625 125.505 77.8687 131.234 73.7813C131.535 73.5444 131.317 72.9256 130.919 73.1886C125.057 77.3636 118.005 80.3993 110.664 80.0224C107.121 79.8256 103.775 79.0032 100.4 77.8761C98.7915 77.3173 97.2128 77.0631 95.5273 76.9939C93.7447 76.9506 91.9751 76.956 90.2696 76.4232C90.2731 76.6307 90.3382 76.8737 90.3417 77.0811C92.8931 74.9389 96.4123 74.4648 99.5358 73.6799C102.999 72.8039 106.483 72.3914 110.022 72.3807C113.562 72.3699 117.082 72.6769 120.585 72.7278C124.041 72.7917 127.535 73.0014 130.942 73.8595C131.432 73.9367 131.602 73.2137 131.21 73.1105Z" fill="#1B8508" fill-opacity="0.2"/>
<path d="M90.6464 77.0516C91.3034 76.1984 92.9983 76.1088 94.0094 75.9942C95.4709 75.8109 96.9585 75.7249 98.4104 75.7005C102.131 75.5891 105.829 75.5879 109.54 75.6353C116.742 75.685 124.294 76.2658 131.185 73.7944C131.512 73.6546 131.427 72.9482 131.003 73.114C123.529 75.7417 115.263 74.8311 107.562 74.863C104.023 74.8738 100.471 74.8359 96.9706 74.9924C95.5316 75.0654 94.0441 75.1515 92.6572 75.4189C91.818 75.5917 90.7843 75.8166 90.1986 76.5465C89.9851 76.9162 90.3844 77.4343 90.6464 77.0516Z" fill="#1B8508" fill-opacity="0.2"/>
<g filter="url(#filter0_d)">
<path d="M88.1121 79.8736C87.912 81.7253 87.4189 83.4614 86.9221 85.2639C86.3483 87.2617 85.8614 89.497 86.7189 91.4725C86.7171 91.5057 86.7485 91.5407 86.7467 91.5738C89.0069 94.0577 91.3003 96.5434 93.6304 98.9646C93.8152 98.01 94.0331 97.0573 94.3836 96.1117C93.257 95.4188 93.4338 93.9981 94.0201 92.9988C94.4961 92.1931 95.4543 91.0809 96.4788 91.2029C96.512 91.2047 96.5783 91.2083 96.6097 91.2432C96.6115 91.2101 96.6115 91.2101 96.6133 91.1769C97.7366 88.2443 98.2703 85.1467 98.6712 82.042C99.056 79.2357 99.5493 76.269 98.3978 73.579L98.3996 73.5459C97.2677 72.9524 96.0622 72.488 94.8719 72.357C95.1037 76.0614 96.5401 79.6316 96.4698 83.3862C96.4445 85.0811 95.9989 86.5537 95.2198 88.0415C94.6981 89.0775 93.9907 90.4694 92.8085 90.8045C91.4568 91.197 90.5615 89.9178 90.256 88.8037C89.8358 87.3508 89.8557 85.7553 90.0674 84.3033C90.5688 80.5721 92.2345 76.8373 90.5713 73.1552C89.531 70.8704 87.4041 70.223 85.1436 70.2004C88.0152 72.4513 88.4665 76.4005 88.1121 79.8736Z" fill="#1B8508"/>
<path d="M71.8437 76.2652C74.8998 78.7922 77.7131 81.5056 80.3793 84.4771C82.1672 86.4698 83.9551 88.4624 85.7762 90.4569C85.1787 87.3646 86.8838 84.1309 87.3457 81.1292C87.9448 77.4365 87.7705 72.6708 84.372 70.3249C84.3075 70.2881 84.2779 70.22 84.2797 70.1868C82.946 70.2476 81.6015 70.5074 80.3932 70.7081C80.861 71.8975 81.8056 72.88 82.6193 73.8221C83.494 74.8672 84.435 75.916 84.9655 77.1754C85.7953 79.0496 85.363 82.1194 83.1257 82.8963C81.1941 83.5567 79.4411 81.5326 78.4849 80.1504C76.8216 77.6989 76.8982 74.4435 74.5465 72.4203C71.8148 70.0439 68.2196 70.714 64.8836 70.8992C65.9842 71.4577 66.9691 72.3093 67.8913 73.0909C69.1622 74.1908 70.5379 75.1966 71.8437 76.2652Z" fill="#1B8508"/>
<path d="M99.3193 81.7445C98.9112 84.9819 98.3686 88.2453 97.1735 91.2737C97.1367 91.3383 97.1 91.4028 97.0318 91.4324C97.6682 91.9657 97.5981 93.2591 97.3283 93.943C96.9463 94.8536 96.04 96.2347 94.9421 96.2417C94.6229 97.2223 94.4032 98.2082 94.1835 99.1941C94.1799 99.2604 94.11 99.3231 94.0732 99.3877C94.1673 99.4925 94.2614 99.5974 94.3555 99.7023C96.5306 101.916 98.9155 103.941 101.124 106.156C101.659 106.717 102.194 107.278 102.696 107.837C102.701 106.507 103.464 105.318 104.386 104.27C104.987 103.604 105.618 103.006 106.218 102.374C107.171 101.361 107.996 100.242 108.628 99.0118C109.777 96.8456 110.575 94.3943 111.071 91.9931C111.479 89.9863 111.522 87.9598 111.13 85.9762C110.893 84.8325 110.549 83.8161 110.006 82.7889C109.734 82.2753 109.463 81.7616 109.259 81.2185C109.072 82.8381 109.214 84.5088 108.894 86.1212C108.448 88.2257 107.319 90.0271 106.19 91.8286C105.426 93.0511 104.91 94.5864 103.922 95.6305C103.216 96.3905 102.207 96.6019 101.31 95.9547C100.222 95.164 100.275 93.5704 100.439 92.3819C100.865 89.4448 102.342 86.7309 103.163 83.8485C103.574 82.4073 103.856 80.8925 103.671 79.3858C103.511 78.0467 102.802 77.0105 101.822 76.0595C101.096 75.3549 100.17 74.6395 99.2054 74.0219C100.034 76.528 99.6252 79.1667 99.3193 81.7445Z" fill="#1B8508"/>
<path d="M66.537 80.9003C67.7748 80.7677 68.9741 80.7329 70.15 81.1292C72.5663 81.9585 75.472 83.5794 78.1 82.9567C75.803 80.5373 73.3313 78.2748 70.7179 76.1709C69.5707 75.244 68.3886 74.3485 67.2763 73.3902C66.2582 72.5368 65.1774 71.6135 63.9074 71.1123C64.8268 72.5591 64.798 74.3203 64.5737 76.0044C64.3387 77.8876 64.1037 79.7707 63.9349 81.6574C64.6951 81.1331 65.6676 80.9862 66.537 80.9003Z" fill="#1B8508"/>
<path d="M103.149 109.292C103.116 109.29 103.116 109.29 103.081 109.321C101.644 109.443 100.89 110.467 100.068 111.52C99.1727 112.702 98.408 113.924 97.6101 115.145C96.1579 117.395 94.6429 119.574 92.3661 121.081C90.4354 122.34 88.1578 123.248 85.8793 123.557C83.5014 123.86 81.0949 123.464 78.7205 123.701C81.6486 125.523 85.0302 126.338 88.5008 126.127C91.8368 125.941 95.6435 125.05 98.347 123.034C99.9076 121.855 101.158 120.26 102.116 118.549C102.593 117.71 103.008 116.801 103.355 115.922C103.545 115.5 103.702 115.043 103.86 114.586C103.978 114.259 104.036 113.797 104.249 113.542C104.534 113.192 105.009 113.018 105.432 113.207C106.018 113.438 106.299 114.385 106.604 114.9C107.538 116.681 108.405 118.49 109.203 120.33C110.031 122.237 110.793 124.141 111.553 126.078C112.17 127.575 112.917 129.145 113.326 130.797C113.532 130.675 113.74 130.52 113.913 130.396C112.063 124.642 109.809 118.965 106.527 113.865C105.517 112.247 104.369 110.722 103.149 109.292Z" fill="#1B8508"/>
<path d="M111.04 83.3446C111.484 84.3664 111.723 85.477 111.896 86.5839C112.474 90.6398 111.235 95.0961 109.409 98.7223C108.402 100.73 106.988 102.283 105.437 103.895C104.203 105.192 102.886 106.784 103.448 108.677C108.669 114.847 111.925 122.274 114.434 129.993C114.677 129.807 114.92 129.62 115.163 129.434C114.26 127.057 113.36 124.647 112.321 122.329C111.164 119.738 109.767 117.301 108.267 114.892C107.442 113.55 106.351 112.193 105.765 110.732C105.471 110.017 105.405 108.783 106.47 108.774C107.002 108.77 107.524 108.964 108.056 108.96C108.589 108.955 109.088 108.949 109.624 108.878C110.628 108.766 111.639 108.522 112.594 108.075C114.369 107.24 115.714 105.749 116.605 104.035C117.608 102.093 118.226 99.8983 118.11 97.7301C117.99 95.6614 117.298 93.6949 116.433 91.852C114.582 87.96 112.432 84.0519 109.793 80.5829C110.105 81.5644 110.624 82.424 111.04 83.3446Z" fill="#1B8508"/>
<path d="M91.1703 115.528C90.2586 117.009 88.9911 118.304 87.6035 119.359C85.3473 121.1 82.6646 122.119 79.9854 123.071C81.9842 123.013 84 123.255 85.9764 122.996C88.6232 122.641 91.2817 121.454 93.304 119.735C95.5342 117.86 96.8771 115.172 98.5042 112.765C99.5907 111.128 100.726 109.194 102.743 108.804C101.771 107.721 100.765 106.635 99.723 105.614C98.7748 104.698 97.6554 103.872 96.7054 102.989C95.4729 104.253 93.2795 104.833 92.0515 105.398C92.3866 106.58 90.7042 107.554 89.7559 107.868C89.1024 108.265 87.8816 108.698 87.0705 108.321C84.2765 110.166 81.3347 111.669 78.0066 112.321C74.9824 112.888 71.961 112.791 68.9064 112.692C69.5096 113.224 70.1844 113.66 70.9624 114.034C72.6841 114.793 74.6371 114.965 76.4719 114.865C79.8429 114.648 83.4175 113.744 86.5771 112.519C87.6966 112.114 91.2749 109.913 92.0769 111.686C92.6146 112.812 91.7548 114.562 91.1703 115.528Z" fill="#1B8508"/>
<path d="M77.7332 111.84C81.0245 111.253 83.9645 109.783 86.7235 107.97C86.6294 107.865 86.5703 107.729 86.5111 107.593C86.0004 105.968 87.8048 105.201 88.9906 104.8C89.6682 104.571 91.5245 104.072 92.1501 104.805C93.6138 104.186 95.3303 103.813 96.4266 102.608C96.4266 102.608 96.4597 102.61 96.4615 102.577C95.1647 101.343 93.8679 100.108 92.6078 98.8094C91.9473 98.1084 91.285 97.4406 90.6245 96.7396C90.5564 96.7692 90.4901 96.7656 90.4255 96.7289C89.4836 96.312 88.2681 96.6453 87.3216 96.9266C86.2075 97.2321 85.1803 97.7752 84.1584 98.2188C81.7741 99.2537 79.3639 100.154 76.7834 100.513C74.236 100.874 71.6753 100.869 69.1307 100.565C67.9073 100.432 66.682 100.332 65.5008 100.035C64.5166 99.7826 63.5325 99.5297 62.534 99.5421C62.6711 100.082 62.8064 100.654 62.9435 101.194C63.0268 101.498 63.0904 102.167 63.2454 102.375C63.4963 102.654 64.2797 102.929 64.6687 103.117C65.1553 103.343 65.677 103.537 66.2022 103.666C67.1863 103.918 68.2108 104.04 69.2424 104.03C71.4052 104.014 73.4936 103.528 75.5543 102.941C77.615 102.355 79.6461 101.7 81.7031 101.179C82.681 100.933 85.3216 100.078 85.6701 101.627C85.9667 102.907 84.5244 104.358 83.5913 105.006C82.4869 105.745 81.1944 106.274 79.9996 106.841C75.9346 108.816 71.6035 110.178 67.0332 110.429C67.3971 111.081 67.8308 111.67 68.3345 112.196C68.3677 112.198 68.4026 112.166 68.4358 112.168C71.5585 112.237 74.6758 112.406 77.7332 111.84Z" fill="#1B8508"/>
<path d="M69.1263 100.032C72.0338 100.389 75.0275 100.385 77.8841 99.8413C80.6743 99.294 83.2002 98.1003 85.7889 96.9766C86.9801 96.4757 88.6115 95.8324 89.9971 96.0404C88.4234 94.392 86.8846 92.7121 85.3458 91.0323C83.0543 88.5135 80.8326 85.9319 78.541 83.413L78.506 83.4444C76.2078 84.1182 73.7377 83.0531 71.5831 82.3044C70.2781 81.8346 69.1739 81.3425 67.7407 81.3979C66.641 81.4381 64.946 81.4128 64.1016 82.2651C64.0649 82.3297 63.9986 82.3261 63.9304 82.3556C63.925 82.4551 63.9197 82.5546 63.9125 82.6873C63.7276 84.8724 63.67 87.1643 64.6916 89.182C65.7723 91.3359 67.7745 92.4422 70.0852 92.7669C72.2632 93.0844 74.4717 92.8381 76.6381 92.7559C77.97 92.7282 80.4546 92.2974 81.3481 93.6097C82.3948 95.1631 80.4828 96.6893 79.3471 97.3928C77.6611 98.4323 75.6793 98.7906 73.7209 98.7178C71.4971 98.6306 69.5101 97.8578 67.3725 97.4094C65.4983 97.0086 63.4422 96.8972 61.7313 95.9398C61.9463 96.8827 62.1927 97.8606 62.4077 98.8036C62.4373 98.8717 62.4319 98.9712 62.4614 99.0393C63.5299 98.9641 64.5471 99.2188 65.5976 99.4752C66.7475 99.7371 67.9046 99.8663 69.1263 100.032ZM71.3565 88.9443C70.2971 88.8536 69.6402 88.0863 69.2576 87.1676C69.228 87.0994 69.2334 86.9999 69.2701 86.9354C69.1717 85.0675 71.4502 84.7585 72.8744 84.8689C73.967 84.9613 75.0326 85.5512 74.57 86.7235C74.5664 86.7899 74.5628 86.8562 74.5261 86.9207C73.8349 88.0141 72.7458 89.086 71.3565 88.9443Z" fill="#1B8508"/>
</g>
<g filter="url(#filter1_d)">
<rect x="153.394" y="22.9276" width="2.80543" height="31.9819" fill="white"/>
</g>
<g filter="url(#filter2_d)">
<rect x="184.253" y="22.9276" width="2.80543" height="31.9819" fill="white"/>
</g>
<g filter="url(#filter3_d)">
<path fill-rule="evenodd" clip-rule="evenodd" d="M176.082 50H192C198.627 50 204 55.3726 204 62V130C204 136.627 198.627 142 192 142H148C141.373 142 136 136.627 136 130V62C136 55.3726 141.373 50 148 50H164.37C164.676 49.5753 165.174 49.2987 165.738 49.2987H174.715C175.278 49.2987 175.777 49.5753 176.082 50Z" fill="white"/>
</g>
<g filter="url(#filter4_d)">
<rect x="142" y="57" width="56" height="79" fill="white"/>
</g>
<g filter="url(#filter5_d)">
<path fill-rule="evenodd" clip-rule="evenodd" d="M155.833 19C154.176 19 152.833 20.3431 152.833 22V22.9276H187.62V22C187.62 20.3431 186.277 19 184.62 19H155.833ZM152.833 22.9276H156.76V25.8552C156.76 26.4075 156.312 26.8552 155.76 26.8552H153.833C153.28 26.8552 152.833 26.4075 152.833 25.8552V22.9276ZM183.692 25.8552V22.9276H187.62V25.8552C187.62 26.4075 187.172 26.8552 186.62 26.8552H184.692C184.14 26.8552 183.692 26.4075 183.692 25.8552Z" fill="#1B8508"/>
</g>
<g filter="url(#filter6_d)">
<rect x="196" y="83" width="9" height="52" transform="rotate(90 196 83)" fill="white"/>
</g>
<g filter="url(#filter7_d)">
<rect x="196" y="71" width="9" height="52" transform="rotate(90 196 71)" fill="white"/>
</g>
<g filter="url(#filter8_d)">
<rect x="196" y="59" width="9" height="52" transform="rotate(90 196 59)" fill="white"/>
</g>
<g filter="url(#filter9_d)">
<rect x="194" y="61" width="5" height="18" transform="rotate(90 194 61)" fill="#66B700" fill-opacity="0.4"/>
</g>
<g filter="url(#filter10_d)">
<rect x="194" y="73" width="5" height="18" transform="rotate(90 194 73)" fill="#66B700" fill-opacity="0.4"/>
</g>
<g filter="url(#filter11_d)">
<rect x="194" y="85" width="5" height="18" transform="rotate(90 194 85)" fill="#66B700" fill-opacity="0.4"/>
</g>
<g filter="url(#filter12_d)">
<rect x="196" y="95" width="9" height="52" transform="rotate(90 196 95)" fill="white"/>
</g>
<g filter="url(#filter13_d)">
<rect x="194" y="97" width="5" height="18" transform="rotate(90 194 97)" fill="#66B700" fill-opacity="0.4"/>
</g>
<g filter="url(#filter14_d)">
<rect x="196" y="107" width="9" height="52" transform="rotate(90 196 107)" fill="white"/>
</g>
<g filter="url(#filter15_d)">
<rect x="194" y="109" width="5" height="18" transform="rotate(90 194 109)" fill="#66B700" fill-opacity="0.4"/>
</g>
<g filter="url(#filter16_d)">
<rect x="123.5" y="63.5" width="26" height="31" stroke="#66B700" stroke-width="3"/>
</g>
<g filter="url(#filter17_d)">
<path fill-rule="evenodd" clip-rule="evenodd" d="M109.179 87.1904C108.427 87.1904 107.817 87.8001 107.817 88.5521H165.687C165.687 87.8001 165.077 87.1904 164.325 87.1904H109.179ZM106.481 88.5521C104.092 88.5521 102.037 90.2414 101.575 92.5848L95.1922 124.956C93.9736 131.136 98.7039 136.89 105.003 136.89H169.181C175.481 136.89 180.211 131.136 178.992 124.956L172.609 92.5848C172.147 90.2414 170.092 88.5521 167.704 88.5521H106.481Z" fill="white"/>
</g>
<g filter="url(#filter18_d)">
<path d="M105.775 106.934H168.07L173.176 132.805H101.009L105.775 106.934Z" fill="white"/>
</g>
<g filter="url(#filter19_d)">
<path d="M173.106 123.312C173.273 123.234 173.483 123.182 173.65 123.104C174.265 122.878 174.853 122.697 175.476 122.357C176.293 121.896 177.303 121.313 178.244 120.747C179.913 119.667 181.374 118.341 182.544 117.197C183.837 115.949 185.21 114.57 186.313 112.848C186.807 112.131 187.239 111.318 187.689 110.574C188.272 109.613 188.863 108.537 189.533 107.628L189.56 107.585C192.793 107.869 195.674 108.538 198.396 109.47C202.562 110.977 208.698 114.664 212 117.5C212.203 117.264 212.297 117.236 212.5 117C211.469 116.137 208.081 113.602 206.928 112.844C206.94 111.836 206.769 110.836 206.598 109.836C206.401 108.582 206.214 107.214 206.369 105.873C206.458 105.33 206.548 104.787 206.568 104.261C206.884 102.063 207.209 99.7502 207.323 97.4893C207.457 94.7027 207.362 92.1955 207.021 89.8978C206.646 87.1617 205.71 84.5635 204.947 82.3692C204.401 80.9033 204.013 79.4731 203.791 77.9646C203.577 76.6403 203.31 75.4034 202.552 74.2872C202.491 74.1905 202.36 74.1111 202.176 74.1191C201.992 74.1272 201.895 74.1881 201.816 74.3193C198.977 78.5149 199.172 84.3092 199.559 88.3075C199.795 90.7801 200.214 93.2447 200.844 95.6575C201.448 98.1141 202.376 100.528 203.287 102.872L203.686 103.89C204.293 105.453 204.918 107.086 205.217 108.761C205.277 109.156 205.337 109.55 205.353 109.919C205.421 110.497 205.506 111.146 205.661 111.778C200.803 108.06 197.537 102.796 194.28 97.717C193.688 96.8206 193.122 95.8804 192.529 94.984C191.083 92.7344 189.724 90.8357 188.39 89.1913C187.811 86.989 187.119 84.7775 186.488 82.6626L186.436 82.4521C186.315 81.9607 186.124 81.4867 186.004 80.9954C185.502 79.2579 185.001 77.5204 184.122 75.9129C182.904 73.6818 180.815 72.2972 178.935 71.159C177.318 70.1795 175.656 69.1736 174.039 68.1942L171.678 66.7647C171.547 66.6853 171.363 66.6933 171.24 66.798C171.213 66.8417 171.143 66.859 171.117 66.9027C171.064 66.9901 171.011 67.0776 171.045 67.2179C171.696 71.0771 172.427 74.507 174.747 77.2861C176.23 79.0801 178.082 80.5601 179.89 82.0136C181.052 82.9561 182.302 83.9516 183.411 84.9816C186.091 87.5605 188.638 90.656 191.173 94.4614C191.295 94.6547 191.417 94.8481 191.521 94.9712C190.254 94.2035 188.924 93.6372 187.611 93.1411C185.633 92.3617 183.646 91.6963 181.694 91.1713C180.346 90.8328 178.944 90.5817 177.604 90.4273C176.719 90.3098 175.791 90.1658 174.932 90.0045C174.617 89.9331 174.302 89.8617 173.987 89.7903C172.34 89.4506 170.606 89.0579 168.861 89.3752C168.72 89.4097 168.597 89.5143 168.491 89.6892C168.456 89.8468 168.49 89.9872 168.578 90.0401C171.519 93.0759 175.764 94.4516 179.485 95.5097C183.609 96.6921 187.911 97.0864 192.575 96.6846C192.88 97.1679 193.185 97.6512 193.533 98.1609C194.735 100.024 195.954 101.957 197.227 103.803C199.118 106.501 200.871 108.638 202.748 110.373C198.471 108.26 193.76 106.962 188.994 106.644L188.836 106.609C186.216 106.396 183.552 106.456 180.957 106.498C179.809 106.52 178.617 106.515 177.468 106.536C174.182 102.097 170.434 99.1104 166.373 97.7267C164.185 96.9991 161.933 96.7709 159.662 97.0684C159.083 97.1362 158.408 97.265 157.873 97.3592C156.013 97.6672 154.057 98.0362 152.148 97.5376C151.947 97.4755 151.657 97.6583 151.595 97.8597C151.516 97.9908 151.567 98.2014 151.742 98.3073C155.326 100.776 158.997 103.298 163.1 105.006C166.294 106.342 169.972 107.076 174.363 107.225C176.51 107.33 178.736 107.304 180.892 107.295C182.567 107.293 184.337 107.23 186.029 107.299C186.327 107.3 186.598 107.345 186.852 107.319C184.534 108.484 182.57 110.641 181.003 112.441C178.159 115.558 175.201 118.964 172.696 122.706C172.617 122.837 172.625 123.021 172.703 123.188C172.781 123.355 172.939 123.39 173.106 123.312Z" fill="#1B8508"/>
</g>
</g>
<defs>
<filter id="filter0_d" x="55.5276" y="63.1415" width="69.5413" height="73.6861" filterUnits="userSpaceOnUse" color-interpolation-filters="sRGB">
<feFlood flood-opacity="0" result="BackgroundImageFix"/>
<feColorMatrix in="SourceAlpha" type="matrix" values="0 0 0 0 0 0 0 0 0 0 0 0 0 0 0 0 0 0 127 0"/>
<feOffset/>
<feGaussianBlur stdDeviation="3"/>
<feColorMatrix type="matrix" values="0 0 0 0 0 0 0 0 0 0 0 0 0 0 0 0 0 0 0.16 0"/>
<feBlend mode="normal" in2="BackgroundImageFix" result="effect1_dropShadow"/>
<feBlend mode="normal" in="SourceGraphic" in2="effect1_dropShadow" result="shape"/>
</filter>
<filter id="filter1_d" x="141.394" y="10.9276" width="26.8054" height="55.9819" filterUnits="userSpaceOnUse" color-interpolation-filters="sRGB">
<feFlood flood-opacity="0" result="BackgroundImageFix"/>
<feColorMatrix in="SourceAlpha" type="matrix" values="0 0 0 0 0 0 0 0 0 0 0 0 0 0 0 0 0 0 127 0"/>
<feOffset/>
<feGaussianBlur stdDeviation="6"/>
<feColorMatrix type="matrix" values="0 0 0 0 0 0 0 0 0 0 0 0 0 0 0 0 0 0 0.06 0"/>
<feBlend mode="normal" in2="BackgroundImageFix" result="effect1_dropShadow"/>
<feBlend mode="normal" in="SourceGraphic" in2="effect1_dropShadow" result="shape"/>
</filter>
<filter id="filter2_d" x="172.253" y="10.9276" width="26.8054" height="55.9819" filterUnits="userSpaceOnUse" color-interpolation-filters="sRGB">
<feFlood flood-opacity="0" result="BackgroundImageFix"/>
<feColorMatrix in="SourceAlpha" type="matrix" values="0 0 0 0 0 0 0 0 0 0 0 0 0 0 0 0 0 0 127 0"/>
<feOffset/>
<feGaussianBlur stdDeviation="6"/>
<feColorMatrix type="matrix" values="0 0 0 0 0 0 0 0 0 0 0 0 0 0 0 0 0 0 0.06 0"/>
<feBlend mode="normal" in2="BackgroundImageFix" result="effect1_dropShadow"/>
<feBlend mode="normal" in="SourceGraphic" in2="effect1_dropShadow" result="shape"/>
</filter>
<filter id="filter3_d" x="124" y="37.2987" width="92" height="116.701" filterUnits="userSpaceOnUse" color-interpolation-filters="sRGB">
<feFlood flood-opacity="0" result="BackgroundImageFix"/>
<feColorMatrix in="SourceAlpha" type="matrix" values="0 0 0 0 0 0 0 0 0 0 0 0 0 0 0 0 0 0 127 0"/>
<feOffset/>
<feGaussianBlur stdDeviation="6"/>
<feColorMatrix type="matrix" values="0 0 0 0 0 0 0 0 0 0 0 0 0 0 0 0 0 0 0.06 0"/>
<feBlend mode="normal" in2="BackgroundImageFix" result="effect1_dropShadow"/>
<feBlend mode="normal" in="SourceGraphic" in2="effect1_dropShadow" result="shape"/>
</filter>
<filter id="filter4_d" x="130" y="45" width="80" height="103" filterUnits="userSpaceOnUse" color-interpolation-filters="sRGB">
<feFlood flood-opacity="0" result="BackgroundImageFix"/>
<feColorMatrix in="SourceAlpha" type="matrix" values="0 0 0 0 0 0 0 0 0 0 0 0 0 0 0 0 0 0 127 0"/>
<feOffset/>
<feGaussianBlur stdDeviation="6"/>
<feColorMatrix type="matrix" values="0 0 0 0 0 0 0 0 0 0 0 0 0 0 0 0 0 0 0.06 0"/>
<feBlend mode="normal" in2="BackgroundImageFix" result="effect1_dropShadow"/>
<feBlend mode="normal" in="SourceGraphic" in2="effect1_dropShadow" result="shape"/>
</filter>
<filter id="filter5_d" x="140.833" y="7" width="58.7873" height="31.8552" filterUnits="userSpaceOnUse" color-interpolation-filters="sRGB">
<feFlood flood-opacity="0" result="BackgroundImageFix"/>
<feColorMatrix in="SourceAlpha" type="matrix" values="0 0 0 0 0 0 0 0 0 0 0 0 0 0 0 0 0 0 127 0"/>
<feOffset/>
<feGaussianBlur stdDeviation="6"/>
<feColorMatrix type="matrix" values="0 0 0 0 0 0 0 0 0 0 0 0 0 0 0 0 0 0 0.06 0"/>
<feBlend mode="normal" in2="BackgroundImageFix" result="effect1_dropShadow"/>
<feBlend mode="normal" in="SourceGraphic" in2="effect1_dropShadow" result="shape"/>
</filter>
<filter id="filter6_d" x="132" y="71" width="76" height="33" filterUnits="userSpaceOnUse" color-interpolation-filters="sRGB">
<feFlood flood-opacity="0" result="BackgroundImageFix"/>
<feColorMatrix in="SourceAlpha" type="matrix" values="0 0 0 0 0 0 0 0 0 0 0 0 0 0 0 0 0 0 127 0"/>
<feOffset/>
<feGaussianBlur stdDeviation="6"/>
<feColorMatrix type="matrix" values="0 0 0 0 0 0 0 0 0 0 0 0 0 0 0 0 0 0 0.06 0"/>
<feBlend mode="normal" in2="BackgroundImageFix" result="effect1_dropShadow"/>
<feBlend mode="normal" in="SourceGraphic" in2="effect1_dropShadow" result="shape"/>
</filter>
<filter id="filter7_d" x="132" y="59" width="76" height="33" filterUnits="userSpaceOnUse" color-interpolation-filters="sRGB">
<feFlood flood-opacity="0" result="BackgroundImageFix"/>
<feColorMatrix in="SourceAlpha" type="matrix" values="0 0 0 0 0 0 0 0 0 0 0 0 0 0 0 0 0 0 127 0"/>
<feOffset/>
<feGaussianBlur stdDeviation="6"/>
<feColorMatrix type="matrix" values="0 0 0 0 0 0 0 0 0 0 0 0 0 0 0 0 0 0 0.06 0"/>
<feBlend mode="normal" in2="BackgroundImageFix" result="effect1_dropShadow"/>
<feBlend mode="normal" in="SourceGraphic" in2="effect1_dropShadow" result="shape"/>
</filter>
<filter id="filter8_d" x="132" y="47" width="76" height="33" filterUnits="userSpaceOnUse" color-interpolation-filters="sRGB">
<feFlood flood-opacity="0" result="BackgroundImageFix"/>
<feColorMatrix in="SourceAlpha" type="matrix" values="0 0 0 0 0 0 0 0 0 0 0 0 0 0 0 0 0 0 127 0"/>
<feOffset/>
<feGaussianBlur stdDeviation="6"/>
<feColorMatrix type="matrix" values="0 0 0 0 0 0 0 0 0 0 0 0 0 0 0 0 0 0 0.06 0"/>
<feBlend mode="normal" in2="BackgroundImageFix" result="effect1_dropShadow"/>
<feBlend mode="normal" in="SourceGraphic" in2="effect1_dropShadow" result="shape"/>
</filter>
<filter id="filter9_d" x="164" y="49" width="42" height="29" filterUnits="userSpaceOnUse" color-interpolation-filters="sRGB">
<feFlood flood-opacity="0" result="BackgroundImageFix"/>
<feColorMatrix in="SourceAlpha" type="matrix" values="0 0 0 0 0 0 0 0 0 0 0 0 0 0 0 0 0 0 127 0"/>
<feOffset/>
<feGaussianBlur stdDeviation="6"/>
<feColorMatrix type="matrix" values="0 0 0 0 0 0 0 0 0 0 0 0 0 0 0 0 0 0 0.06 0"/>
<feBlend mode="normal" in2="BackgroundImageFix" result="effect1_dropShadow"/>
<feBlend mode="normal" in="SourceGraphic" in2="effect1_dropShadow" result="shape"/>
</filter>
<filter id="filter10_d" x="164" y="61" width="42" height="29" filterUnits="userSpaceOnUse" color-interpolation-filters="sRGB">
<feFlood flood-opacity="0" result="BackgroundImageFix"/>
<feColorMatrix in="SourceAlpha" type="matrix" values="0 0 0 0 0 0 0 0 0 0 0 0 0 0 0 0 0 0 127 0"/>
<feOffset/>
<feGaussianBlur stdDeviation="6"/>
<feColorMatrix type="matrix" values="0 0 0 0 0 0 0 0 0 0 0 0 0 0 0 0 0 0 0.06 0"/>
<feBlend mode="normal" in2="BackgroundImageFix" result="effect1_dropShadow"/>
<feBlend mode="normal" in="SourceGraphic" in2="effect1_dropShadow" result="shape"/>
</filter>
<filter id="filter11_d" x="164" y="73" width="42" height="29" filterUnits="userSpaceOnUse" color-interpolation-filters="sRGB">
<feFlood flood-opacity="0" result="BackgroundImageFix"/>
<feColorMatrix in="SourceAlpha" type="matrix" values="0 0 0 0 0 0 0 0 0 0 0 0 0 0 0 0 0 0 127 0"/>
<feOffset/>
<feGaussianBlur stdDeviation="6"/>
<feColorMatrix type="matrix" values="0 0 0 0 0 0 0 0 0 0 0 0 0 0 0 0 0 0 0.06 0"/>
<feBlend mode="normal" in2="BackgroundImageFix" result="effect1_dropShadow"/>
<feBlend mode="normal" in="SourceGraphic" in2="effect1_dropShadow" result="shape"/>
</filter>
<filter id="filter12_d" x="132" y="83" width="76" height="33" filterUnits="userSpaceOnUse" color-interpolation-filters="sRGB">
<feFlood flood-opacity="0" result="BackgroundImageFix"/>
<feColorMatrix in="SourceAlpha" type="matrix" values="0 0 0 0 0 0 0 0 0 0 0 0 0 0 0 0 0 0 127 0"/>
<feOffset/>
<feGaussianBlur stdDeviation="6"/>
<feColorMatrix type="matrix" values="0 0 0 0 0 0 0 0 0 0 0 0 0 0 0 0 0 0 0.06 0"/>
<feBlend mode="normal" in2="BackgroundImageFix" result="effect1_dropShadow"/>
<feBlend mode="normal" in="SourceGraphic" in2="effect1_dropShadow" result="shape"/>
</filter>
<filter id="filter13_d" x="164" y="85" width="42" height="29" filterUnits="userSpaceOnUse" color-interpolation-filters="sRGB">
<feFlood flood-opacity="0" result="BackgroundImageFix"/>
<feColorMatrix in="SourceAlpha" type="matrix" values="0 0 0 0 0 0 0 0 0 0 0 0 0 0 0 0 0 0 127 0"/>
<feOffset/>
<feGaussianBlur stdDeviation="6"/>
<feColorMatrix type="matrix" values="0 0 0 0 0 0 0 0 0 0 0 0 0 0 0 0 0 0 0.06 0"/>
<feBlend mode="normal" in2="BackgroundImageFix" result="effect1_dropShadow"/>
<feBlend mode="normal" in="SourceGraphic" in2="effect1_dropShadow" result="shape"/>
</filter>
<filter id="filter14_d" x="132" y="95" width="76" height="33" filterUnits="userSpaceOnUse" color-interpolation-filters="sRGB">
<feFlood flood-opacity="0" result="BackgroundImageFix"/>
<feColorMatrix in="SourceAlpha" type="matrix" values="0 0 0 0 0 0 0 0 0 0 0 0 0 0 0 0 0 0 127 0"/>
<feOffset/>
<feGaussianBlur stdDeviation="6"/>
<feColorMatrix type="matrix" values="0 0 0 0 0 0 0 0 0 0 0 0 0 0 0 0 0 0 0.06 0"/>
<feBlend mode="normal" in2="BackgroundImageFix" result="effect1_dropShadow"/>
<feBlend mode="normal" in="SourceGraphic" in2="effect1_dropShadow" result="shape"/>
</filter>
<filter id="filter15_d" x="164" y="97" width="42" height="29" filterUnits="userSpaceOnUse" color-interpolation-filters="sRGB">
<feFlood flood-opacity="0" result="BackgroundImageFix"/>
<feColorMatrix in="SourceAlpha" type="matrix" values="0 0 0 0 0 0 0 0 0 0 0 0 0 0 0 0 0 0 127 0"/>
<feOffset/>
<feGaussianBlur stdDeviation="6"/>
<feColorMatrix type="matrix" values="0 0 0 0 0 0 0 0 0 0 0 0 0 0 0 0 0 0 0.06 0"/>
<feBlend mode="normal" in2="BackgroundImageFix" result="effect1_dropShadow"/>
<feBlend mode="normal" in="SourceGraphic" in2="effect1_dropShadow" result="shape"/>
</filter>
<filter id="filter16_d" x="110" y="50" width="53" height="58" filterUnits="userSpaceOnUse" color-interpolation-filters="sRGB">
<feFlood flood-opacity="0" result="BackgroundImageFix"/>
<feColorMatrix in="SourceAlpha" type="matrix" values="0 0 0 0 0 0 0 0 0 0 0 0 0 0 0 0 0 0 127 0"/>
<feOffset/>
<feGaussianBlur stdDeviation="6"/>
<feColorMatrix type="matrix" values="0 0 0 0 0 0 0 0 0 0 0 0 0 0 0 0 0 0 0.06 0"/>
<feBlend mode="normal" in2="BackgroundImageFix" result="effect1_dropShadow"/>
<feBlend mode="normal" in="SourceGraphic" in2="effect1_dropShadow" result="shape"/>
</filter>
<filter id="filter17_d" x="83" y="75.1904" width="108.185" height="73.7" filterUnits="userSpaceOnUse" color-interpolation-filters="sRGB">
<feFlood flood-opacity="0" result="BackgroundImageFix"/>
<feColorMatrix in="SourceAlpha" type="matrix" values="0 0 0 0 0 0 0 0 0 0 0 0 0 0 0 0 0 0 127 0"/>
<feOffset/>
<feGaussianBlur stdDeviation="6"/>
<feColorMatrix type="matrix" values="0 0 0 0 0 0 0 0 0 0 0 0 0 0 0 0 0 0 0.06 0"/>
<feBlend mode="normal" in2="BackgroundImageFix" result="effect1_dropShadow"/>
<feBlend mode="normal" in="SourceGraphic" in2="effect1_dropShadow" result="shape"/>
</filter>
<filter id="filter18_d" x="89.0088" y="94.9342" width="96.1671" height="49.8712" filterUnits="userSpaceOnUse" color-interpolation-filters="sRGB">
<feFlood flood-opacity="0" result="BackgroundImageFix"/>
<feColorMatrix in="SourceAlpha" type="matrix" values="0 0 0 0 0 0 0 0 0 0 0 0 0 0 0 0 0 0 127 0"/>
<feOffset/>
<feGaussianBlur stdDeviation="6"/>
<feColorMatrix type="matrix" values="0 0 0 0 0 0 0 0 0 0 0 0 0 0 0 0 0 0 0.06 0"/>
<feBlend mode="normal" in2="BackgroundImageFix" result="effect1_dropShadow"/>
<feBlend mode="normal" in="SourceGraphic" in2="effect1_dropShadow" result="shape"/>
</filter>
<filter id="filter19_d" x="134" y="46" width="106.773" height="105.206" filterUnits="userSpaceOnUse" color-interpolation-filters="sRGB">
<feFlood flood-opacity="0" result="BackgroundImageFix"/>
<feColorMatrix in="SourceAlpha" type="matrix" values="0 0 0 0 0 0 0 0 0 0 0 0 0 0 0 0 0 0 127 0"/>
<feOffset/>
<feGaussianBlur stdDeviation="6"/>
<feColorMatrix type="matrix" values="0 0 0 0 0 0 0 0 0 0 0 0 0 0 0 0 0 0 0.15 0"/>
<feBlend mode="normal" in2="BackgroundImageFix" result="effect1_dropShadow"/>
<feBlend mode="normal" in="SourceGraphic" in2="effect1_dropShadow" result="shape"/>
</filter>
</defs>
</svg>
