<svg width="53" height="67" viewBox="0 0 53 67" fill="none" xmlns="http://www.w3.org/2000/svg">
<path d="M36.5 20.2001C36 19.2001 35 18.6001 33.9 18.6001C32.7 18.6001 31.7 19.3001 31.3 20.2001C30.4 19.6001 29.2 19.6001 28.2 20.1001C27.2 20.7001 26.7 21.8001 26.7 22.8001C25.6 22.7001 24.5 23.3001 24 24.3001C23.6 25.0001 23.5 25.8001 23.7 26.5001C23.8 26.8001 23.9 27.1001 24.1 27.4001C23.1 27.9001 22.5 28.9001 22.5 30.0001C22.5 31.2001 23.2 32.2001 24.1 32.6001C23.5 33.5001 23.4 34.7001 24 35.7001C24.4 36.4001 25.2 37.0001 26 37.1001L22.5 47.4001L26.4 46.6001L28.9 49.4001L31.9 40.6001C32.4 41.1001 33.2 41.5001 34 41.5001C34.8 41.5001 35.5 41.2001 36 40.7001L39 49.4001L41.5 46.6001L45.4 47.4001L41.7 37.2001C42.6 37.1001 43.3 36.6001 43.8 35.8001C44.2 35.1001 44.3 34.3001 44.1 33.6001C44 33.3001 43.9 33.0001 43.7 32.7001C44.7 32.2001 45.3 31.2001 45.3 30.1001C45.3 28.9001 44.6 27.9001 43.7 27.5001C44.3 26.6001 44.4 25.4001 43.8 24.4001C43.2 23.4001 42.2 22.9001 41.1 22.9001C41.1 22.6001 41.1 22.3001 41 22.0001C40.8 21.2001 40.3 20.6001 39.6 20.2001C38.6 19.6001 37.4 19.6001 36.5 20.2001ZM28.1 46.6001L26.7 45.1001L24.5 45.6001L26.8 38.8001C27 39.3001 27.4 39.7001 28 40.0001C28.7 40.4001 29.5 40.5001 30.2 40.3001L28.1 46.6001ZM40.8 45.1001L39.4 46.6001L37.2 40.2001C38 40.4001 38.8 40.4001 39.5 39.9001C40 39.6001 40.4 39.2001 40.6 38.8001L42.9 45.5001L40.8 45.1001ZM40.2 24.7001L40.3 24.6001C40.3 24.6001 40.4 24.5001 40.5 24.5001C41.2 24.1001 42.1 24.4001 42.5 25.0001C42.9 25.7001 42.7 26.6001 42 27.0001C41.9 27.0001 41.9 27.1001 41.8 27.1001C41.7 27.1001 41.7 27.2001 41.6 27.2001L42 28.6001C42.1 28.6001 42.1 28.6001 42.2 28.6001C42.2 28.6001 42.3 28.6001 42.4 28.6001C43.2 28.6001 43.9 29.3001 43.9 30.1001C43.9 30.9001 43.2 31.6001 42.4 31.6001C42.3 31.6001 42.3 31.6001 42.2 31.6001L41.3 31.5001V32.2001L41.1 32.8001L41.7 33.1001C41.8 33.1001 41.8 33.2001 41.9 33.2001C42.2 33.4001 42.5 33.7001 42.6 34.1001C42.7 34.5001 42.6 34.9001 42.5 35.2001C42.1 35.9001 41.2 36.1001 40.5 35.7001C40.5 35.7001 40.4 35.6001 40.3 35.6001L40.2 35.5001L39.2 36.6001L39.3 36.7001C39.3 36.7001 39.4 36.8001 39.4 36.9001C39.8 37.6001 39.6 38.5001 38.9 38.9001C38.2 39.3001 37.3 39.0001 36.9 38.4001C36.9 38.3001 36.8 38.3001 36.8 38.2001C36.8 38.1001 36.7 38.1001 36.7 38.0001L35.3 38.4001C35.3 38.5001 35.3 38.5001 35.3 38.6001C35.3 38.7001 35.3 38.7001 35.3 38.8001C35.3 39.6001 34.6 40.3001 33.8 40.3001C33 40.3001 32.3 39.6001 32.3 38.8001C32.3 38.7001 32.3 38.7001 32.3 38.6001C32.3 38.5001 32.3 38.5001 32.3 38.5001V38.4001L31.9 38.0001L31 37.8001C31 37.9001 31 37.9001 30.9 37.9001C30.9 38.0001 30.8 38.0001 30.8 38.1001C30.4 38.8001 29.5 39.0001 28.8 38.6001C28.1 38.2001 27.9 37.3001 28.3 36.6001C28.3 36.6001 28.4 36.5001 28.4 36.4001L28.5 36.3001L27.4 35.3001L27.3 35.4001L27.2 35.5001C26.5 35.9001 25.6 35.6001 25.2 35.0001C24.8 34.3001 25 33.4001 25.7 33.0001C25.8 33.0001 25.8 32.9001 25.9 32.9001C26 32.9001 26 32.8001 26.1 32.8001L25.7 31.4001C25.6 31.4001 25.6 31.4001 25.5 31.4001C25.4 31.4001 25.4 31.4001 25.3 31.4001C24.5 31.4001 23.8 30.7001 23.8 29.9001C23.8 29.1001 24.5 28.4001 25.3 28.4001C25.4 28.4001 25.4 28.4001 25.5 28.4001H25.6H25.7L26 26.9001C26 26.9001 25.9 26.9001 25.9 26.8001C25.8 26.8001 25.8 26.7001 25.7 26.7001C25.4 26.5001 25.1 26.2001 25 25.8001C24.9 25.4001 25 25.0001 25.1 24.7001C25.5 24.0001 26.4 23.8001 27.1 24.2001C27.2 24.2001 27.2 24.3001 27.3 24.3001L27.4 24.4001L28.4 23.3001L28.3 23.2001C28.3 23.2001 28.2 23.1001 28.2 23.0001C27.8 22.3001 28 21.4001 28.7 21.0001C29.4 20.6001 30.3 20.9001 30.7 21.5001C30.7 21.6001 30.8 21.6001 30.8 21.7001C30.8 21.8001 30.9 21.8001 30.9 21.9001L32.3 21.5001C32.3 21.4001 32.3 21.4001 32.3 21.3001C32.3 21.2001 32.3 21.2001 32.3 21.1001C32.3 20.3001 33 19.6001 33.8 19.6001C34.6 19.6001 35.3 20.3001 35.3 21.1001C35.3 21.2001 35.3 21.2001 35.3 21.3001L35.2 21.9001L36.5 22.3001L36.8 21.7001C36.8 21.6001 36.9 21.6001 36.9 21.5001C37.3 20.8001 38.2 20.6001 38.9 21.0001C39.2 21.2001 39.5 21.5001 39.6 21.9001C39.7 22.3001 39.6 22.7001 39.4 23.0001C39.4 23.1001 39.3 23.1001 39.3 23.1001C39.3 23.1001 39.2 23.2001 39.1 23.3001L40.2 24.7001Z" fill="white"/>
<path d="M33.7992 24C30.4992 24 27.6992 26.7 27.6992 30.1C27.6992 33.4 30.3992 36.2 33.7992 36.2C37.1992 36.2 39.8992 33.5 39.8992 30.1C39.8992 26.7 37.1992 24 33.7992 24ZM33.7992 34.6C31.2992 34.6 29.1992 32.5 29.1992 30C29.1992 27.5 31.2992 25.4 33.7992 25.4C36.2992 25.4 38.3992 27.5 38.3992 30C38.3992 32.6 36.2992 34.6 33.7992 34.6Z" fill="white"/>
<path d="M27.0004 6.1001H25.4004V7.6001H27.0004V6.1001Z" fill="white"/>
<path d="M39.5 9.5V8.7C39.5 7.2 38.2 5.9 36.7 5.9H31.8C31.5 3.2 29.1 1 26.2 1C23.3 1 20.9 3.2 20.6 5.9H15.7C14.2 5.9 12.9 7.2 12.9 8.7V9.4H1V66H51.3V9.5H39.5ZM14.3 8.7C14.3 8 14.9 7.4 15.6 7.4H22V6.7C22 4.4 23.9 2.5 26.2 2.5C28.5 2.5 30.4 4.4 30.4 6.7V7.4H36.8C37.5 7.4 38.1 8 38.1 8.7V12.2H14.3V8.7ZM49.9 64.5H2.5V10.9H12.8V13.6H39.5V10.9H49.8V64.5H49.9Z" fill="white"/>
<path d="M46 59H6.5V60.5H46V59Z" fill="white"/>
<path d="M35 54.6001H6.5V56.1001H35V54.6001Z" fill="white"/>
<path d="M20.7 21.3999H6.5V22.8999H20.7V21.3999Z" fill="white"/>
<path d="M15.9004 25.7002H14.4004V27.2002H15.9004V25.7002Z" fill="white"/>
<path d="M8 25.7002H6.5V27.2002H8V25.7002Z" fill="white"/>
<path d="M11.9004 25.7002H10.4004V27.2002H11.9004V25.7002Z" fill="white"/>
</svg>
