<svg width="68" height="84" viewBox="0 0 68 84" fill="none" xmlns="http://www.w3.org/2000/svg">
<path d="M39.1087 2.13716C38.2514 2.1125 37.6476 2.41369 37.1537 2.73205C36.4953 3.15654 35.9959 3.56951 34.7703 3.56951C33.5447 3.56951 33.0456 3.15651 32.3871 2.73205C31.8933 2.41369 31.2893 2.11291 30.4318 2.13753C30.146 2.14579 29.832 2.19015 29.4846 2.28215C28.0947 2.65016 27.5544 3.41311 27.1989 4.10607C26.8434 4.79904 26.62 5.40329 25.5586 6.00883C24.4972 6.61442 23.856 6.5034 23.0709 6.46115C22.2859 6.41888 21.3471 6.50027 20.3296 7.50565C19.3122 8.5111 19.2303 9.4389 19.2731 10.2147C19.3158 10.9904 19.4278 11.6242 18.815 12.6731C18.2022 13.7221 17.5908 13.9428 16.8896 14.294C16.1884 14.6453 15.4164 15.1793 15.044 16.5528C14.6716 17.9263 15.0701 18.7706 15.4996 19.4213C15.9291 20.072 16.3467 20.5651 16.3467 21.7763C16.3467 22.9876 15.9292 23.4811 15.4996 24.1318C15.0701 24.7825 14.6716 25.6264 15.044 26.9999C15.4164 28.3733 16.1884 28.9078 16.8896 29.259C17.5908 29.6103 18.2023 29.831 18.815 30.8799C19.4278 31.9288 19.3158 32.5626 19.2731 33.3384C19.2303 34.1142 19.3122 35.042 20.3296 36.0474C21.3471 37.053 22.2859 37.1338 23.0709 37.0916C23.8559 37.0492 24.4972 36.9387 25.5586 37.5442C26.6201 38.1498 26.8434 38.7541 27.1989 39.447C27.5543 40.14 28.0947 40.9029 29.4846 41.2709C30.8744 41.6389 31.7287 41.2453 32.3871 40.8206C33.0456 40.3962 33.5446 39.9835 34.7703 39.9835C35.9958 39.9835 36.4953 40.3962 37.1537 40.8206C37.8122 41.2451 38.6661 41.6389 40.056 41.2709C41.4458 40.9029 41.9865 40.14 42.342 39.447C42.6975 38.7541 42.9208 38.1498 43.9822 37.5442C45.0436 36.9387 45.6849 37.0494 46.4699 37.0916C47.2549 37.1339 48.1938 37.0526 49.2112 36.0474C50.2286 35.042 50.3106 34.1142 50.2678 33.3384C50.225 32.5626 50.113 31.9288 50.7258 30.8799C51.3386 29.831 51.95 29.6103 52.6512 29.259C53.3525 28.9077 54.1245 28.3733 54.4969 26.9999C54.8693 25.6264 54.4708 24.7825 54.0413 24.1318C53.6117 23.4811 53.1941 22.9876 53.1941 21.7763C53.1941 20.5651 53.6117 20.072 54.0413 19.4213C54.4708 18.7706 54.8693 17.9263 54.4969 16.5528C54.1245 15.1793 53.3525 14.6453 52.6512 14.294C51.95 13.9427 51.3386 13.722 50.7258 12.6731C50.113 11.6242 50.225 10.9905 50.2678 10.2147C50.3106 9.4389 50.2286 8.5111 49.2112 7.50565C48.1938 6.50021 47.2549 6.41888 46.4699 6.46115C45.6849 6.50342 45.0436 6.61442 43.9822 6.00883C42.9208 5.40324 42.6974 4.79904 42.342 4.10607C41.9865 3.41311 41.4458 2.6502 40.056 2.28215C39.7085 2.19014 39.3945 2.14539 39.1087 2.13716ZM38.9179 2.97101C39.1657 2.97077 39.4598 3.01325 39.8312 3.11157C41.0197 3.42627 41.2338 3.84567 41.5665 4.49429C41.8992 5.14287 42.2974 6.0394 43.5476 6.75273C44.7978 7.46606 45.7824 7.35865 46.5171 7.31911C47.2519 7.2796 47.7267 7.25321 48.5967 8.11297C49.4667 8.97273 49.44 9.44196 49.4 10.1681C49.36 10.8942 49.2513 11.8671 49.9731 13.1026C50.6949 14.3381 51.6018 14.7313 52.2581 15.0601C52.9144 15.3889 53.3388 15.6009 53.6573 16.7753C53.9757 17.9497 53.7154 18.3428 53.3133 18.9519C52.9113 19.561 52.325 20.3498 52.325 21.7764C52.325 23.203 52.9113 23.9918 53.3133 24.6009C53.7154 25.2099 53.9757 25.6034 53.6573 26.7777C53.3388 27.9522 52.9144 28.1638 52.2581 28.4926C51.6018 28.8214 50.6949 29.215 49.9731 30.4504C49.2513 31.686 49.36 32.6588 49.4 33.3849C49.44 34.1111 49.4667 34.5803 48.5967 35.44C47.7267 36.2999 47.2519 36.2735 46.5171 36.2339C45.7824 36.1949 44.7979 36.087 43.5476 36.8004C42.2974 37.5136 41.8992 38.4098 41.5665 39.0584C41.2338 39.707 41.0196 40.1264 39.8312 40.4412C38.6428 40.7558 38.2451 40.4983 37.6287 40.1012C37.0124 39.7039 36.2139 39.1246 34.7703 39.1246C33.3266 39.1246 32.5284 39.7039 31.9121 40.1012C31.2959 40.4985 30.8981 40.7558 29.7096 40.4412C28.5212 40.1264 28.3067 39.707 27.974 39.0584C27.6413 38.4098 27.2434 37.5136 25.9932 36.8004C24.743 36.087 23.7585 36.1944 23.0237 36.2339C22.289 36.2735 21.8141 36.2997 20.9442 35.44C20.0742 34.5803 20.1008 34.1111 20.1409 33.3849C20.1809 32.6588 20.2896 31.686 19.5678 30.4504C18.8459 29.215 17.9391 28.8214 17.2827 28.4926C16.6264 28.1639 16.202 27.9522 15.8836 26.7777C15.5651 25.6033 15.8255 25.2098 16.2275 24.6009C16.6295 23.9918 17.2159 23.203 17.2159 21.7764C17.2159 20.3497 16.6296 19.561 16.2275 18.9519C15.8255 18.3429 15.5651 17.9498 15.8836 16.7753C16.202 15.6009 16.6264 15.3889 17.2827 15.0601C17.9391 14.7313 18.8459 14.3381 19.5678 13.1026C20.2896 11.8672 20.1809 10.8942 20.1409 10.1681C20.1008 9.44196 20.0742 8.97273 20.9442 8.11297C21.8141 7.25321 22.289 7.27953 23.0237 7.31911C23.7585 7.35863 24.743 7.46604 25.9932 6.75273C27.2434 6.0394 27.6413 5.1429 27.974 4.49429C28.3067 3.84569 28.5212 3.42627 29.7096 3.11157C30.0067 3.03289 30.2544 2.9903 30.4684 2.97638C31.1106 2.93465 31.4499 3.15381 31.9121 3.45179C32.5284 3.84909 33.3265 4.42858 34.7702 4.42858C36.2138 4.42858 37.0124 3.84912 37.6286 3.45179C38.0523 3.17864 38.3728 2.97153 38.9178 2.97101H38.9179ZM30.8932 13.1713C28.9917 13.1713 27.4409 14.7038 27.4409 16.5829C27.4409 18.4621 28.9917 19.9946 30.8932 19.9946C32.7947 19.9946 34.3455 18.4621 34.3455 16.5829C34.3455 14.7038 32.7947 13.1713 30.8932 13.1713ZM40.1569 13.7628L28.2242 29.3707L28.9179 29.8884L40.8505 14.2812L40.1569 13.7631V13.7628ZM30.8932 14.0303C32.325 14.0303 33.4763 15.168 33.4763 16.5829C33.4763 17.9978 32.325 19.1357 30.8932 19.1357C29.4615 19.1357 28.3101 17.9979 28.3101 16.5829C28.3101 15.168 29.4614 14.0303 30.8932 14.0303ZM38.2638 24.2702C36.3623 24.2702 34.8115 25.8027 34.8115 27.6819C34.8115 29.561 36.3623 31.0935 38.2638 31.0935C40.1652 31.0935 41.716 29.561 41.716 27.6819C41.716 25.8027 40.1652 24.2702 38.2638 24.2702ZM38.2638 25.1291C39.6955 25.1291 40.8469 26.2669 40.8469 27.6819C40.8469 29.0968 39.6956 30.2345 38.2638 30.2345C36.832 30.2345 35.6806 29.0967 35.6806 27.6819C35.6806 26.267 36.8319 25.1291 38.2638 25.1291ZM5.94811 40.276C5.48554 40.276 5.09961 40.6577 5.09961 41.1148V64.2088C5.09961 64.666 5.48551 65.0473 5.94811 65.0473H14.7079C15.1704 65.0473 15.5564 64.666 15.5564 64.2088V59.3406C16.6236 58.526 18.1172 58.3648 19.942 58.6205C21.8536 58.8884 24.08 59.6143 26.3712 60.416C30.9538 62.0195 35.7756 63.9873 39.2912 62.9305C44.3717 61.4032 50.2093 57.6178 54.8082 54.2153C59.4069 50.813 62.7587 47.7845 62.7587 47.7845C62.8434 47.708 62.8941 47.6015 62.8996 47.4882C62.9051 47.3749 62.8651 47.2641 62.7883 47.1799C61.3669 45.6224 60.0178 44.8375 58.6494 44.6796C57.2811 44.5217 55.9595 44.9902 54.5898 45.7586C51.9516 47.2388 49.0157 49.857 44.8855 51.9696C44.6075 50.2086 43.7088 48.9938 42.426 48.26C41.0166 47.4539 39.2223 47.1397 37.3216 46.9188C33.5202 46.4771 29.2962 46.3858 26.9407 44.2326C25.5772 42.986 23.6743 42.5694 21.7063 42.5536C19.5974 42.5368 17.3903 42.9793 15.5565 43.4451V41.1146C15.5565 40.6574 15.1706 40.2757 14.708 40.2757H5.94821L5.94811 40.276ZM5.96882 41.135H14.6871V43.9981C14.6871 44.0003 14.6871 44.0026 14.6871 44.0048V59.1382V64.1916H5.96882V41.138V41.135ZM21.6993 43.4129C23.5466 43.4277 25.2142 43.825 26.3504 44.8637C29.0636 47.344 33.4884 47.3388 37.2195 47.7724C39.0852 47.9892 40.778 48.3101 41.9902 49.0034C43.0916 49.6333 43.8014 50.5602 44.0338 52.0943C42.3282 52.1413 40.7652 52.182 39.2082 52.2171C37.4277 52.2581 35.6081 52.2933 33.4485 52.3306V52.3309C33.4459 52.331 33.445 52.3308 33.4424 52.3309C33.3284 52.3354 33.2208 52.3841 33.1428 52.4663C33.0648 52.5486 33.0226 52.6577 33.0254 52.7704C33.0281 52.8831 33.0756 52.9903 33.1576 53.0687C33.2395 53.1471 33.3494 53.1905 33.4634 53.1896C35.6217 53.152 37.4409 53.1163 39.2211 53.0761H39.2279C39.2289 53.0761 39.2302 53.0761 39.2313 53.0761C41.2585 53.0613 42.7671 53.0761 44.6202 53.0304C44.6836 53.0289 44.746 53.0138 44.8029 52.986C49.3107 50.776 52.4331 47.9568 55.0185 46.5063C56.3112 45.781 57.4413 45.4059 58.5482 45.5337C59.5652 45.651 60.6256 46.2249 61.8269 47.4481C61.365 47.8614 58.4977 50.4135 54.2871 53.5285C49.7242 56.9043 43.9117 60.6444 39.0381 62.1093C36.047 63.0085 31.2643 61.218 26.6607 59.607C24.3589 58.8014 22.0968 58.0558 20.0638 57.771C18.3706 57.5336 16.8078 57.6263 15.5559 58.3236V44.3447C17.4021 43.8662 19.6316 43.3967 21.6989 43.4133L21.6993 43.4129Z" fill="#6231D6"/>
</svg>
