<svg width="63" height="66" viewBox="0 0 63 66" fill="none" xmlns="http://www.w3.org/2000/svg">
<path d="M48.1099 3.07007C44.7123 3.07007 41.5125 4.32727 39.0228 6.59845L27.4229 1.07251C27.2188 0.97583 26.9814 0.97583 26.7773 1.07251L1.42725 13.1526C1.16651 13.2771 1 13.5408 1 13.8298V26.9597C1 43.492 11.3813 58.5583 26.833 64.4509C26.9189 64.4832 27.0093 64.4998 27.1001 64.4998C27.1904 64.4998 27.2812 64.4832 27.3672 64.4509C42.2214 58.7909 52.2799 44.9603 53.1309 29.1312C58.2254 27.0875 61.6196 22.1149 61.6196 16.5901C61.6196 9.13501 55.5591 3.07007 48.1099 3.07007ZM27.1001 62.946C12.3735 57.2029 2.50001 42.7786 2.50001 26.9597V14.3035L27.1001 2.58033L37.9019 7.72633C37.3669 8.34021 36.7374 9.22773 36.2536 10.1142L27.4224 5.91286C27.2183 5.81618 26.9815 5.81618 26.7774 5.91286L5.78713 15.9129C5.52639 16.0374 5.35988 16.301 5.35988 16.5901V26.9597C5.35988 41.1419 13.7749 53.9998 26.7988 59.7166C26.8945 59.7586 26.9976 59.7801 27.1001 59.7801C27.2027 59.7801 27.3052 59.7586 27.4014 59.7166C39.251 54.5194 47.5337 42.9399 48.6861 30.0915C49.8479 30.0427 50.5677 29.8981 51.6113 29.6511C50.5811 44.5437 41.0669 57.5066 27.1001 62.946ZM47.1987 30.0803C46.0645 42.2341 38.2569 53.1824 27.1001 58.2097C14.793 52.6667 6.85988 40.4372 6.85988 26.9597V17.0637L27.1001 7.42064L35.5991 11.4641C35.0066 12.9165 34.5899 14.7898 34.5899 16.5901C34.5899 23.7335 40.2598 29.6183 47.1987 30.0803ZM48.1099 28.6101H48.0151C41.4395 28.5627 36.0899 23.1707 36.0899 16.5901C36.0899 10.0692 41.3614 4.57007 48.1099 4.57007C54.7319 4.57007 60.1196 9.96216 60.1196 16.5901C60.1196 23.184 54.7657 28.6101 48.1099 28.6101Z" fill="#6231D6"/>
<path d="M52.2834 9.73547L44.7956 17.2242L43.9294 16.3585C42.8215 15.2496 40.8893 15.2487 39.7804 16.3585C38.6336 17.5044 38.6326 19.3606 39.7804 20.5075L42.7209 23.4479C43.8894 24.6174 45.7495 24.5702 46.8698 23.4479L56.4323 13.8844C57.5792 12.7385 57.5802 10.8823 56.4323 9.73547C55.2861 8.58823 53.4307 8.58812 52.2834 9.73547ZM55.3718 12.8239L45.8088 22.3878C45.2756 22.921 44.3156 22.9215 43.7814 22.3873L40.841 19.4469C40.2812 18.8871 40.2791 17.981 40.841 17.4191C41.4008 16.8593 42.3069 16.8572 42.8688 17.4191L44.2653 18.8151C44.5583 19.108 45.0329 19.108 45.3259 18.8151L53.3439 10.796C53.8864 10.254 54.8307 10.255 55.3718 10.796C55.9315 11.3558 55.9337 12.2619 55.3718 12.8239Z" fill="#6231D6"/>
</svg>
