<svg width="60" height="75" viewBox="0 0 60 75" fill="none" xmlns="http://www.w3.org/2000/svg">
<path d="M58.5379 10.4625L49.3807 1.30524C49.1881 1.14546 48.9562 1.04008 48.7092 1H48.4955H2.52621C2.12143 1 1.73323 1.1608 1.44702 1.44702C1.1608 1.73323 1 2.12143 1 2.52621V72.7317C1 73.1364 1.1608 73.5246 1.44702 73.8109C1.73323 74.0971 2.12143 74.2579 2.52621 74.2579H57.4696C57.8744 74.2579 58.2626 74.0971 58.5488 73.8109C58.835 73.5246 58.9958 73.1364 58.9958 72.7317V11.6834C59.0123 11.4589 58.9799 11.2335 58.9009 11.0227C58.8218 10.8119 58.698 10.6208 58.5379 10.4625ZM53.8678 10.1572H49.8386V6.21962L53.8678 10.1572ZM4.05241 71.2055V4.05241H46.7862V11.714C46.7942 12.1134 46.9585 12.4938 47.2438 12.7735C47.5292 13.0531 47.9128 13.2097 48.3124 13.2096H55.9434V71.2055H4.05241Z" fill="#3D3D50"/>
<path d="M48.3133 25.4194H11.6844C11.2796 25.4194 10.8914 25.5802 10.6052 25.8664C10.319 26.1527 10.1582 26.5409 10.1582 26.9456C10.1582 27.3504 10.319 27.7386 10.6052 28.0248C10.8914 28.311 11.2796 28.4718 11.6844 28.4718H48.3133C48.7181 28.4718 49.1063 28.311 49.3925 28.0248C49.6788 27.7386 49.8395 27.3504 49.8395 26.9456C49.8395 26.5409 49.6788 26.1527 49.3925 25.8664C49.1063 25.5802 48.7181 25.4194 48.3133 25.4194Z" fill="#3D3D50"/>
<path d="M48.3133 34.5767H11.6844C11.2796 34.5767 10.8914 34.7375 10.6052 35.0237C10.319 35.3099 10.1582 35.6981 10.1582 36.1029C10.1582 36.5076 10.319 36.8958 10.6052 37.1821C10.8914 37.4683 11.2796 37.6291 11.6844 37.6291H48.3133C48.7181 37.6291 49.1063 37.4683 49.3925 37.1821C49.6788 36.8958 49.8395 36.5076 49.8395 36.1029C49.8395 35.6981 49.6788 35.3099 49.3925 35.0237C49.1063 34.7375 48.7181 34.5767 48.3133 34.5767Z" fill="#3D3D50"/>
<path d="M48.3133 43.7339H11.6844C11.2796 43.7339 10.8914 43.8947 10.6052 44.1809C10.319 44.4671 10.1582 44.8553 10.1582 45.2601C10.1582 45.6649 10.319 46.0531 10.6052 46.3393C10.8914 46.6255 11.2796 46.7863 11.6844 46.7863H48.3133C48.7181 46.7863 49.1063 46.6255 49.3925 46.3393C49.6788 46.0531 49.8395 45.6649 49.8395 45.2601C49.8395 44.8553 49.6788 44.4671 49.3925 44.1809C49.1063 43.8947 48.7181 43.7339 48.3133 43.7339Z" fill="#3D3D50"/>
</svg>
