<svg width="66" height="72" viewBox="0 0 66 72" fill="none" xmlns="http://www.w3.org/2000/svg">
<path d="M54.0552 41.6144C50.4797 41.6144 46.7602 42.3838 44.7079 43.8403V30.7865C44.7079 27.4255 38.6473 25.6113 32.9444 25.6113C27.2415 25.6113 21.1809 27.4247 21.1809 30.7865V43.7629C19.1067 42.358 15.4608 41.6144 11.9495 41.6144C6.64185 41.6144 1 43.3029 1 46.4311V66.6353C1 69.7594 6.64185 71.4447 11.9495 71.4447C16.119 71.4447 20.4827 70.4006 22.1679 68.4398C24.1083 70.4022 28.6246 71.4447 32.9444 71.4447C37.3112 71.4447 41.876 70.3781 43.7796 68.3738C45.4225 70.3773 49.8386 71.4447 54.0552 71.4447C59.3628 71.4447 65.0046 69.7586 65.0046 66.6345V46.4311C65.0046 43.3021 59.3628 41.6144 54.0552 41.6144ZM11.9495 43.2264C17.0716 43.2264 20.4483 44.6749 21.1809 45.9348V46.9273C20.4483 48.1848 17.0716 49.6301 11.9495 49.6301C6.13543 49.6301 2.56544 47.7667 2.56544 46.4311C2.56544 45.093 6.13543 43.2264 11.9495 43.2264ZM2.56544 48.9977C4.60991 50.4703 8.35366 51.2477 11.9495 51.2477C15.4639 51.2477 19.1082 50.5001 21.1809 49.0919V51.9776C20.4483 53.2343 17.0716 54.6803 11.9495 54.6803C6.13543 54.6803 2.56544 52.817 2.56544 51.4821V48.9977ZM2.56544 54.0455C4.60991 55.5157 8.35366 56.2923 11.9495 56.2923C15.4639 56.2923 19.1082 55.5463 21.1809 54.1398V57.0294C20.4483 58.287 17.0716 59.7322 11.9495 59.7322C6.13543 59.7322 2.56544 57.8688 2.56544 56.5332V54.0455ZM2.56544 59.0966C4.60991 60.5676 8.35366 61.3434 11.9495 61.3434C15.4639 61.3434 19.1082 60.5974 21.1809 59.1908V62.0805C20.4483 63.338 17.0716 64.7832 11.9495 64.7832C6.13543 64.7832 2.56544 62.9199 2.56544 61.5842V59.0966ZM11.9495 69.8335C6.13543 69.8335 2.56544 67.9702 2.56544 66.6353V64.1468C4.60991 65.6178 8.35366 66.3936 11.9495 66.3936C15.4639 66.3936 19.1082 65.6476 21.1809 64.2411V67.1307C20.4483 68.3883 17.0716 69.8335 11.9495 69.8335ZM43.0258 66.2768C43.0258 67.7116 39.1905 69.7135 32.9444 69.7135C27.0184 69.7135 23.2692 67.913 22.899 66.5032V63.9833C25.1023 65.5478 29.0997 66.3751 32.9444 66.3751C36.8079 66.3751 40.8303 65.5413 43.0258 63.9607V66.2768ZM43.0258 61.2072C43.0258 62.642 39.1905 64.6439 32.9444 64.6439C27.0184 64.6439 23.2692 62.8434 22.899 61.4336V58.9145C25.1023 60.479 29.0997 61.3063 32.9444 61.3063C36.8079 61.3063 40.8303 60.4725 43.0258 58.8919V61.2072ZM43.0258 56.1376C43.0258 57.5724 39.1905 59.5743 32.9444 59.5743C27.0184 59.5743 23.2692 57.7738 22.899 56.364V53.8441C25.1023 55.4086 29.0997 56.2359 32.9444 56.2359C36.8079 56.2359 40.8303 55.4021 43.0258 53.8216V56.1376ZM43.0258 51.0672C43.0258 52.502 39.1905 54.5039 32.9444 54.5039C27.0184 54.5039 23.2692 52.7034 22.899 51.2936V48.7737C25.1023 50.3382 29.0997 51.1655 32.9444 51.1655C36.8079 51.1655 40.8303 50.3317 43.0258 48.7512V51.0672ZM43.0258 45.9968C43.0258 47.4316 39.1905 49.4335 32.9444 49.4335C26.6983 49.4335 22.863 47.4324 22.863 45.9968V43.68C25.0593 45.2597 29.0809 46.0943 32.9444 46.0943C36.8079 46.0943 40.8303 45.2605 43.0258 43.68V45.9968ZM43.0258 40.9264C43.0258 42.3612 39.1905 44.3631 32.9444 44.3631C26.6983 44.3631 22.863 42.362 22.863 40.9264V38.6104C25.0593 40.1901 29.0809 41.0247 32.9444 41.0247C36.8079 41.0247 40.8303 40.1909 43.0258 38.6104V40.9264ZM43.0258 35.8569C43.0258 37.2916 39.1905 39.2935 32.9444 39.2935C26.6983 39.2935 22.863 37.2924 22.863 35.8569V33.544C25.0593 35.1262 29.0809 35.9616 32.9444 35.9616C36.8079 35.9616 40.8303 35.1262 43.0258 33.544V35.8569ZM32.9444 34.2231C26.6983 34.2231 22.863 32.222 22.863 30.7865C22.863 29.3477 26.6983 27.3425 32.9444 27.3425C39.1905 27.3425 43.0258 29.3485 43.0258 30.7865C43.0258 32.222 39.1905 34.2231 32.9444 34.2231ZM63.4392 66.6345C63.4392 67.9702 59.8684 69.8335 54.0552 69.8335C48.5652 69.8335 45.0797 68.1724 44.7079 66.8625V64.1694C46.7594 65.6243 50.4789 66.3936 54.0552 66.3936C57.651 66.3936 61.3947 65.617 63.4392 64.1468V66.6345ZM63.4392 61.5842C63.4392 62.9199 59.8684 64.7832 54.0552 64.7832C48.5652 64.7832 45.0797 63.1221 44.7079 61.8122V59.1183C46.7594 60.5732 50.4789 61.3426 54.0552 61.3426C57.651 61.3426 61.3947 60.566 63.4392 59.0958V61.5842ZM63.4392 56.5324C63.4392 57.868 59.8684 59.7314 54.0552 59.7314C48.5652 59.7314 45.0797 58.0702 44.7079 56.7604V54.0673C46.7594 55.5222 50.4789 56.2915 54.0552 56.2915C57.651 56.2915 61.3947 55.5149 63.4392 54.0447V56.5324ZM63.4392 51.4821C63.4392 52.8178 59.8684 54.6811 54.0552 54.6811C48.5652 54.6811 45.0797 53.02 44.7079 51.7101V49.021C46.7594 50.4783 50.4789 51.2485 54.0552 51.2485C57.651 51.2485 61.3947 50.4711 63.4392 48.9985V51.4821ZM54.0552 49.6301C48.5652 49.6301 45.0797 47.9689 44.7079 46.659V46.2023C45.0797 44.8891 48.5652 43.2248 54.0552 43.2248C59.8692 43.2248 63.4392 45.0914 63.4392 46.4302C63.4392 47.7667 59.8692 49.6301 54.0552 49.6301Z" fill="#6231D6"/>
<path d="M33.775 1.35366C33.6662 1.24168 33.5355 1.15226 33.3915 1.09103C33.3852 1.08862 33.3789 1.08781 33.3735 1.08539C33.2396 1.03142 33.0956 1 32.9445 1C32.7935 1 32.6494 1.03222 32.5164 1.08539C32.5101 1.08781 32.5039 1.08862 32.4984 1.09103C32.3536 1.15226 32.2236 1.24168 32.1148 1.35366L26.844 6.77851C26.3853 7.25059 26.3853 8.0151 26.844 8.48717C27.3027 8.95925 28.0455 8.95925 28.5042 8.48717L31.7712 5.12463V20.9424C31.7712 21.6095 32.2972 22.1508 32.9453 22.1508C33.5934 22.1508 34.1194 21.6095 34.1194 20.9424V5.12544L37.3865 8.48798C37.6158 8.72402 37.9164 8.84163 38.2169 8.84163C38.5175 8.84163 38.8181 8.72402 39.0474 8.48798C39.5061 8.0159 39.5061 7.2514 39.0474 6.77932L33.775 1.35366Z" fill="#6231D6"/>
<path d="M12.7039 17.8468C12.5951 17.7348 12.4644 17.6454 12.3204 17.5842C12.3141 17.5818 12.3078 17.581 12.3024 17.5786C12.1693 17.5246 12.0261 17.4932 11.8742 17.4932C11.7224 17.4932 11.5791 17.5254 11.4461 17.5786C11.4398 17.581 11.4335 17.5818 11.4281 17.5842C11.2833 17.6454 11.1533 17.7348 11.0445 17.8468L5.77369 23.2717C5.31502 23.7438 5.31502 24.5083 5.77369 24.9803C6.23237 25.4524 6.97517 25.4524 7.43384 24.9803L10.7009 21.6178V37.4356C10.7009 38.1026 11.2269 38.644 11.875 38.644C12.5231 38.644 13.0491 38.1026 13.0491 37.4356V21.6178L16.3162 24.9803C16.5455 25.2164 16.8461 25.334 17.1466 25.334C17.4472 25.334 17.7478 25.2164 17.9771 24.9803C18.4358 24.5083 18.4358 23.7438 17.9771 23.2717L12.7039 17.8468Z" fill="#6231D6"/>
<path d="M60.1173 23.2717L54.8465 17.8468C54.7377 17.7348 54.607 17.6454 54.4629 17.5842C54.4567 17.5818 54.4504 17.581 54.4449 17.5786C54.3119 17.5246 54.1686 17.4932 54.0168 17.4932C53.8649 17.4932 53.7217 17.5254 53.5886 17.5786C53.5824 17.581 53.5761 17.5818 53.5706 17.5842C53.4258 17.6454 53.2959 17.7348 53.1871 17.8468L47.9163 23.2717C47.4576 23.7438 47.4576 24.5083 47.9163 24.9803C48.3749 25.4524 49.1177 25.4524 49.5764 24.9803L52.8435 21.6178V37.4356C52.8435 38.1026 53.3695 38.644 54.0176 38.644C54.6657 38.644 55.1917 38.1026 55.1917 37.4356V21.6178L58.4587 24.9803C58.6881 25.2164 58.9886 25.334 59.2892 25.334C59.5898 25.334 59.8903 25.2164 60.1197 24.9803C60.576 24.5083 60.576 23.7438 60.1173 23.2717Z" fill="#6231D6"/>
</svg>
