<svg width="49" height="72" viewBox="0 0 49 72" fill="none" xmlns="http://www.w3.org/2000/svg">
<path d="M47.4715 8.22325H38.292C37.69 6.19171 35.809 4.76211 33.6269 4.76211H29.7143C29.0372 2.58009 27.0056 1 24.6731 1C22.3406 1 20.3091 2.58009 19.6319 4.76211H15.7193C13.5373 4.76211 11.6562 6.19171 11.0543 8.22325H1.87473C1.27279 8.22325 0.746094 8.74995 0.746094 9.35188V69.7714C0.746094 70.3733 1.27279 70.9 1.87473 70.9H47.4715C48.0734 70.9 48.6001 70.3733 48.6001 69.7714V9.35188C48.6001 8.74995 48.0734 8.22325 47.4715 8.22325ZM13.1611 9.57761C13.1611 9.50237 13.1611 9.42713 13.1611 9.42713C13.2363 8.07277 14.3649 7.01938 15.7193 7.01938H20.5348C21.1367 7.01938 21.5882 6.56792 21.6634 5.96599C21.8139 4.46114 23.093 3.25727 24.6731 3.25727C26.2532 3.25727 27.5323 4.46114 27.6828 5.96599C27.758 6.56792 28.2095 7.01938 28.8114 7.01938H33.6269C34.9813 7.01938 36.1099 8.07277 36.1852 9.42713C36.1852 9.50237 36.1852 9.57761 36.1852 9.57761V10.4805H13.1611V9.57761ZM46.3429 68.6427H3.00336V10.4805H10.8285V11.6092C10.8285 12.2111 11.3552 12.7378 11.9572 12.7378H37.3138C37.9157 12.7378 38.4424 12.2111 38.4424 11.6092V10.4805H46.2676V68.6427H46.3429Z" fill="#3D3D50"/>
<path d="M36.5616 58.3345H20.3845C19.7826 58.3345 19.2559 58.8612 19.2559 59.4631C19.2559 60.065 19.7826 60.5917 20.3845 60.5917H36.5616C37.1635 60.5917 37.6902 60.065 37.6902 59.4631C37.6902 58.8612 37.1635 58.3345 36.5616 58.3345Z" fill="#3D3D50"/>
<path d="M40.8504 51.563H20.3845C19.7826 51.563 19.2559 52.0897 19.2559 52.6916C19.2559 53.2936 19.7826 53.8203 20.3845 53.8203H40.8504C41.4523 53.8203 41.979 53.2936 41.979 52.6916C41.979 52.0897 41.4523 51.563 40.8504 51.563Z" fill="#3D3D50"/>
<path d="M20.3845 44.791H36.5616C37.1635 44.791 37.6902 44.2643 37.6902 43.6623C37.6902 43.0604 37.1635 42.5337 36.5616 42.5337H20.3845C19.7826 42.5337 19.2559 43.0604 19.2559 43.6623C19.2559 44.2643 19.7826 44.791 20.3845 44.791Z" fill="#3D3D50"/>
<path d="M40.8504 35.7622H20.3845C19.7826 35.7622 19.2559 36.2889 19.2559 36.8908C19.2559 37.4928 19.7826 38.0195 20.3845 38.0195H40.8504C41.4523 38.0195 41.979 37.4928 41.979 36.8908C41.979 36.2889 41.4523 35.7622 40.8504 35.7622Z" fill="#3D3D50"/>
<path d="M20.3845 28.9902H36.5616C37.1635 28.9902 37.6902 28.4635 37.6902 27.8615C37.6902 27.2596 37.1635 26.7329 36.5616 26.7329H20.3845C19.7826 26.7329 19.2559 27.2596 19.2559 27.8615C19.2559 28.4635 19.7826 28.9902 20.3845 28.9902Z" fill="#3D3D50"/>
<path d="M19.2559 21.0896C19.2559 21.6915 19.7826 22.2182 20.3845 22.2182H40.8504C41.4523 22.2182 41.979 21.6915 41.979 21.0896C41.979 20.4876 41.4523 19.9609 40.8504 19.9609H20.3845C19.7826 19.9609 19.2559 20.4876 19.2559 21.0896Z" fill="#3D3D50"/>
<path d="M15.9444 20.4124C15.4177 20.0362 14.7406 20.1867 14.3644 20.6382L10.7527 25.6794L9.39837 23.7983C9.02216 23.2716 8.34498 23.1964 7.81828 23.5726C7.29159 23.9488 7.21634 24.626 7.59255 25.1527L9.84982 28.3129C10.0755 28.6138 10.3765 28.7643 10.7527 28.7643C11.1289 28.7643 11.4299 28.6138 11.6556 28.3129L16.1702 21.9925C16.5464 21.4658 16.4711 20.7887 15.9444 20.4124Z" fill="#3D3D50"/>
<path d="M15.9444 36.2132C15.4177 35.837 14.7406 35.9875 14.3644 36.439L10.7527 41.4802L9.39837 39.5991C9.02216 39.0724 8.34498 38.9972 7.81828 39.3734C7.29159 39.7496 7.21634 40.4268 7.59255 40.9535L9.84982 44.1137C10.0755 44.4146 10.3765 44.5651 10.7527 44.5651C11.1289 44.5651 11.4299 44.4146 11.6556 44.1137L16.1702 37.7933C16.5464 37.2666 16.4711 36.5894 15.9444 36.2132Z" fill="#3D3D50"/>
<path d="M15.9444 52.0145C15.4177 51.6383 14.7406 51.7888 14.3644 52.2402L10.7527 57.2815L9.39837 55.4004C9.02216 54.8737 8.34498 54.7985 7.81828 55.1747C7.29159 55.5509 7.21634 56.2281 7.59255 56.7548L9.84982 59.9149C10.0755 60.2159 10.3765 60.3664 10.7527 60.3664C11.1289 60.3664 11.4299 60.2159 11.6556 59.9149L16.1702 53.5946C16.5464 53.0679 16.4711 52.3907 15.9444 52.0145Z" fill="#3D3D50"/>
</svg>
