<svg width="79" height="79" viewBox="0 0 79 79" fill="none" xmlns="http://www.w3.org/2000/svg">
<path d="M76.7581 3.48387H61.8548V2.24194C61.8548 1.55639 61.2985 1 60.6129 1H53.1613C52.4757 1 51.9194 1.55639 51.9194 2.24194V3.48387H27.0806V2.24194C27.0806 1.55639 26.5243 1 25.8387 1H18.3871C17.7015 1 17.1452 1.55639 17.1452 2.24194V3.48387H2.24194C1.55639 3.48387 1 4.04026 1 4.72581V9.69355C1 10.3791 1.55639 10.9355 2.24194 10.9355H17.1452V18.3871H7.20968C6.52413 18.3871 5.96774 18.9435 5.96774 19.629V76.7581C5.96774 77.4449 6.52413 78 7.20968 78H37.0161C37.7017 78 38.2581 77.4449 38.2581 76.7581V19.629C38.2581 18.9435 37.7017 18.3871 37.0161 18.3871H27.0806V10.9355H51.9194V18.3871H41.9839C41.2983 18.3871 40.7419 18.9435 40.7419 19.629V76.7581C40.7419 77.4449 41.2983 78 41.9839 78H71.7903C72.4759 78 73.0323 77.4449 73.0323 76.7581V19.629C73.0323 18.9435 72.4759 18.3871 71.7903 18.3871H61.8548V10.9355H76.7581C77.4436 10.9355 78 10.3791 78 9.69355V4.72581C78 4.04026 77.4436 3.48387 76.7581 3.48387ZM54.4032 3.48387H59.371V4.72581V9.69355V30.8065H54.4032V9.69355V4.72581V3.48387ZM19.629 3.48387H24.5968V4.72581V9.69355V30.8065H19.629V9.69355V4.72581V3.48387ZM3.48387 8.45161V5.96774H17.1452V8.45161H3.48387ZM35.7742 20.871V75.5161H8.45161V20.871H17.1452V23.3548C16.4596 23.3548 15.9032 23.9112 15.9032 24.5968C15.9032 26.6509 14.2316 28.3226 12.1774 28.3226C11.4919 28.3226 10.9355 28.879 10.9355 29.5645V40.7419H13.4194V30.681C14.9333 30.373 16.2485 29.5099 17.1452 28.3164V32.0484C17.1452 32.7339 17.7015 33.2903 18.3871 33.2903H25.8387C26.5243 33.2903 27.0806 32.7339 27.0806 32.0484V28.3176C27.9773 29.5111 29.2925 30.373 30.8065 30.6823V40.7419H33.2903V29.5645C33.2903 28.879 32.7339 28.3226 32.0484 28.3226C29.9942 28.3226 28.3226 26.6509 28.3226 24.5968C28.3226 23.9112 27.7662 23.3548 27.0806 23.3548V20.871H35.7742ZM27.0806 8.45161V5.96774H51.9194V8.45161H27.0806ZM70.5484 20.871V75.5161H43.2258V20.871H51.9194V23.3548C51.2338 23.3548 50.6774 23.9112 50.6774 24.5968C50.6774 26.6509 49.0058 28.3226 46.9516 28.3226C46.2661 28.3226 45.7097 28.879 45.7097 29.5645V40.7419H48.1936V30.681C49.7075 30.373 51.0227 29.5099 51.9194 28.3164V32.0484C51.9194 32.7339 52.4757 33.2903 53.1613 33.2903H60.6129C61.2985 33.2903 61.8548 32.7339 61.8548 32.0484V28.3176C62.7515 29.5111 64.0667 30.373 65.5806 30.6823V40.7419H68.0645V29.5645C68.0645 28.879 67.5081 28.3226 66.8226 28.3226C64.7684 28.3226 63.0968 26.6509 63.0968 24.5968C63.0968 23.9112 62.5404 23.3548 61.8548 23.3548V20.871H70.5484ZM75.5161 8.45161H61.8548V5.96774H75.5161V8.45161Z" fill="#6231D6"/>
<path d="M25.8388 43.2256C23.0991 43.2256 20.871 45.4536 20.871 48.1933C20.871 49.5632 19.757 50.6772 18.3872 50.6772C17.0173 50.6772 15.9033 49.5632 15.9033 48.1933C15.9033 46.8235 17.0173 45.7095 18.3872 45.7095V43.2256C16.0796 43.2256 14.1509 44.814 13.5958 46.9514H10.9355V49.4353H13.5958C14.1509 51.5726 16.0796 53.1611 18.3872 53.1611C21.1269 53.1611 23.3549 50.933 23.3549 48.1933C23.3549 46.8235 24.4689 45.7095 25.8388 45.7095C27.2086 45.7095 28.3226 46.8235 28.3226 48.1933C28.3226 49.5632 27.2086 50.6772 25.8388 50.6772V53.1611C28.1463 53.1611 30.075 51.5726 30.6302 49.4353H33.2904V46.9514H30.6302C30.075 44.814 28.1463 43.2256 25.8388 43.2256Z" fill="#6231D6"/>
<path d="M30.8065 65.7059C28.3773 66.2002 26.4585 68.119 25.9642 70.5482H18.263C17.7687 68.119 15.8499 66.2002 13.4207 65.7059V55.645H10.9355V66.8224C10.9355 67.5092 11.4919 68.0644 12.1775 68.0644C14.2316 68.0644 15.9033 69.736 15.9033 71.7902C15.9033 72.477 16.4597 73.0321 17.1452 73.0321H27.0807C27.7663 73.0321 28.3226 72.477 28.3226 71.7902C28.3226 69.736 29.9943 68.0644 32.0485 68.0644C32.734 68.0644 33.2904 67.5092 33.2904 66.8224V55.645H30.8065V65.7059Z" fill="#6231D6"/>
<path d="M23.355 38.2583H20.8711V40.7422H23.355V38.2583Z" fill="#6231D6"/>
<path d="M23.355 55.645H20.8711V58.1289H23.355V55.645Z" fill="#6231D6"/>
<path d="M33.2905 23.355H30.8066V25.8389H33.2905V23.355Z" fill="#6231D6"/>
<path d="M13.4194 23.355H10.9355V25.8389H13.4194V23.355Z" fill="#6231D6"/>
<path d="M13.4194 70.5483H10.9355V73.0322H13.4194V70.5483Z" fill="#6231D6"/>
<path d="M33.2905 70.5483H30.8066V73.0322H33.2905V70.5483Z" fill="#6231D6"/>
<path d="M60.6122 43.2256C57.8725 43.2256 55.6445 45.4536 55.6445 48.1933C55.6445 49.5632 54.5305 50.6772 53.1606 50.6772C51.7907 50.6772 50.6767 49.5632 50.6767 48.1933C50.6767 46.8235 51.7907 45.7095 53.1606 45.7095V43.2256C50.8531 43.2256 48.9244 44.814 48.3692 46.9514H45.709V49.4353H48.3692C48.9244 51.5726 50.8531 53.1611 53.1606 53.1611C55.9003 53.1611 58.1283 50.933 58.1283 48.1933C58.1283 46.8235 59.2424 45.7095 60.6122 45.7095C61.9821 45.7095 63.0961 46.8235 63.0961 48.1933C63.0961 49.5632 61.9821 50.6772 60.6122 50.6772V53.1611C62.9197 53.1611 64.8485 51.5726 65.4036 49.4353H68.0638V46.9514H65.4036C64.8485 44.814 62.9197 43.2256 60.6122 43.2256Z" fill="#6231D6"/>
<path d="M65.5826 65.7059C63.1534 66.2002 61.2346 68.119 60.7403 70.5482H53.0391C52.5448 68.119 50.626 66.2002 48.1968 65.7059V55.645H45.7129V66.8224C45.7129 67.5092 46.2693 68.0644 46.9548 68.0644C49.009 68.0644 50.6806 69.736 50.6806 71.7902C50.6806 72.477 51.237 73.0321 51.9226 73.0321H61.8581C62.5436 73.0321 63.1 72.477 63.1 71.7902C63.1 69.736 64.7716 68.0644 66.8258 68.0644C67.5113 68.0644 68.0677 67.5092 68.0677 66.8224V55.645H65.5839V65.7059H65.5826Z" fill="#6231D6"/>
<path d="M58.1284 38.2583H55.6445V40.7422H58.1284V38.2583Z" fill="#6231D6"/>
<path d="M58.1284 55.645H55.6445V58.1289H58.1284V55.645Z" fill="#6231D6"/>
<path d="M68.0639 23.355H65.5801V25.8389H68.0639V23.355Z" fill="#6231D6"/>
<path d="M48.1929 23.355H45.709V25.8389H48.1929V23.355Z" fill="#6231D6"/>
<path d="M48.1929 70.5483H45.709V73.0322H48.1929V70.5483Z" fill="#6231D6"/>
<path d="M68.0639 70.5483H65.5801V73.0322H68.0639V70.5483Z" fill="#6231D6"/>
</svg>
