<svg width="80" height="85" viewBox="0 0 80 85" fill="none" xmlns="http://www.w3.org/2000/svg">
<path d="M73.8812 38.2201H44.4882C43.9886 38.2201 43.5723 37.8037 43.5723 37.3041V8.16091C43.5723 6.57885 44.8213 5.32985 46.4033 5.32985H47.9021V3.83106C47.9021 2.249 49.2344 1 50.8164 1H73.8812C74.3808 1 74.7971 1.41633 74.7971 1.91593V37.3041C74.7971 37.8037 74.3808 38.2201 73.8812 38.2201ZM45.4874 36.3882H72.9653V2.83186H50.8164C50.2336 2.83186 49.8172 3.24819 49.8172 3.83106V6.24578C49.8172 6.74538 49.4009 7.16171 48.9013 7.16171H46.4866C45.9037 7.16171 45.4874 7.57804 45.4874 8.16091V36.3882Z" fill="#3D3D50"/>
<path d="M35.8285 84.2665H6.43546C5.93586 84.2665 5.51953 83.8501 5.51953 83.3505V54.2073C5.51953 52.6252 6.76853 51.3762 8.35059 51.3762H9.84938V49.8774C9.84938 48.2954 11.0984 47.0464 12.6804 47.0464H35.7452C36.2448 47.0464 36.6612 47.4627 36.6612 47.9623V83.3505C36.7444 83.8501 36.3281 84.2665 35.8285 84.2665ZM7.43466 82.4346H34.9126V48.8782H12.7637C12.1808 48.8782 11.7645 49.2946 11.7645 49.8774V52.2922C11.7645 52.7918 11.3482 53.2081 10.8486 53.2081H8.43385C7.85099 53.2081 7.43466 53.6244 7.43466 54.2073V82.4346Z" fill="#3D3D50"/>
<path d="M45.8206 77.7721C42.9896 77.7721 40.9912 77.439 40.8247 77.3557C40.3251 77.2725 39.992 76.7729 40.0753 76.2733C40.1585 75.7737 40.6581 75.4406 41.1577 75.5239C41.241 75.5239 53.2313 77.6888 62.2241 70.7777C68.3025 66.1148 71.7997 58.371 72.5491 47.8795C72.5491 47.3799 73.0487 46.9635 73.5483 47.0468C74.0479 47.0468 74.4643 47.5464 74.381 48.046C73.5483 59.1204 69.8846 67.2805 63.3066 72.2765C57.3947 76.8562 50.4835 77.7721 45.8206 77.7721Z" fill="#3D3D50"/>
<path d="M78.2106 49.1286C77.9608 49.1286 77.6278 49.0453 77.4612 48.7955L74.0473 44.4657L69.7175 47.8796C69.3011 48.2126 68.7183 48.1294 68.3852 47.713C68.0521 47.2967 68.1354 46.7139 68.5517 46.3808L73.631 42.4673C73.7975 42.3007 74.0473 42.2175 74.2971 42.3007C74.5469 42.3007 74.7967 42.4673 74.88 42.6338L78.7935 47.713C79.1266 48.1294 79.0433 48.7122 78.627 49.0453C78.627 49.0453 78.3772 49.1286 78.2106 49.1286Z" fill="#3D3D50"/>
<path d="M6.60232 36.9714C6.60232 36.9714 6.51905 36.9714 6.60232 36.9714C6.01946 36.9714 5.60312 36.4718 5.68639 35.9722C6.51905 24.8977 10.1828 16.7376 16.7608 11.7417C26.503 4.24768 38.8264 6.49587 39.326 6.57914C39.8256 6.6624 40.1587 7.162 40.0754 7.6616C39.9921 8.1612 39.4925 8.49426 38.9929 8.411C38.9097 8.411 26.9193 6.24607 17.9265 13.1572C11.7648 17.9034 8.26765 25.6471 7.51825 36.1387C7.51825 36.6383 7.10192 36.9714 6.60232 36.9714Z" fill="#3D3D50"/>
<path d="M5.85337 41.8839H5.7701C5.5203 41.8839 5.2705 41.7174 5.18724 41.5509L1.27372 36.4716C0.857386 35.972 0.940652 35.3892 1.35698 35.0561C1.77332 34.723 2.35618 34.8063 2.68925 35.2226L6.10317 39.5525L10.433 36.1386C10.8493 35.8055 11.4322 35.8888 11.7653 36.3051C12.0983 36.7214 12.0151 37.3043 11.5987 37.6374L6.5195 41.5509C6.2697 41.8007 6.10317 41.8839 5.85337 41.8839Z" fill="#3D3D50"/>
<path d="M21.1709 73.8577C18.7562 73.8577 16.7578 71.8593 16.7578 69.4446C16.7578 68.945 17.1741 68.5287 17.6737 68.5287C18.1733 68.5287 18.5897 68.945 18.5897 69.4446C18.5897 70.8601 19.7554 72.0259 21.1709 72.0259C22.5865 72.0259 23.7522 70.8601 23.7522 69.4446C23.7522 68.3621 23.2526 67.6127 20.9211 66.8633C19.9219 66.5303 16.7578 65.5311 16.7578 62.4502C16.7578 60.0355 18.7562 58.0371 21.1709 58.0371C23.5857 58.0371 25.584 60.0355 25.584 62.4502C25.584 62.9498 25.1677 63.3662 24.6681 63.3662C24.1685 63.3662 23.7522 62.9498 23.7522 62.4502C23.7522 61.0347 22.5865 59.869 21.1709 59.869C19.7554 59.869 18.5897 61.0347 18.5897 62.4502C18.5897 63.1996 18.9227 64.2821 21.4207 65.0315C23.3359 65.6976 25.584 66.6968 25.584 69.4446C25.584 71.8593 23.5857 73.8577 21.1709 73.8577Z" fill="#3D3D50"/>
<path d="M21.1698 59.8688C20.6702 59.8688 20.2539 59.4525 20.2539 58.9529V56.9545C20.2539 56.4549 20.6702 56.0386 21.1698 56.0386C21.6694 56.0386 22.0858 56.4549 22.0858 56.9545V58.9529C22.0858 59.4525 21.6694 59.8688 21.1698 59.8688Z" fill="#3D3D50"/>
<path d="M21.1698 75.8561C20.6702 75.8561 20.2539 75.4398 20.2539 74.9402V72.9418C20.2539 72.4422 20.6702 72.0259 21.1698 72.0259C21.6694 72.0259 22.0858 72.4422 22.0858 72.9418V74.9402C22.0858 75.4398 21.6694 75.8561 21.1698 75.8561Z" fill="#3D3D50"/>
<path d="M59.2276 27.5618C56.8128 27.5618 54.8145 25.5634 54.8145 23.1487C54.8145 22.6491 55.2308 22.2328 55.7304 22.2328C56.23 22.2328 56.6463 22.6491 56.6463 23.1487C56.6463 24.5642 57.812 25.73 59.2276 25.73C60.6431 25.73 61.8088 24.5642 61.8088 23.1487C61.8088 22.0662 61.3092 21.3168 58.9778 20.5674C57.9786 20.2344 54.8145 19.2352 54.8145 16.1543C54.8145 13.7396 56.8128 11.7412 59.2276 11.7412C61.6423 11.7412 63.6407 13.7396 63.6407 16.1543C63.6407 16.6539 63.2244 17.0703 62.7248 17.0703C62.2252 17.0703 61.8088 16.6539 61.8088 16.1543C61.8088 14.7388 60.6431 13.5731 59.2276 13.5731C57.812 13.5731 56.6463 14.7388 56.6463 16.1543C56.6463 16.9037 56.9794 17.9862 59.4774 18.7356C61.3925 19.4017 63.6407 20.4009 63.6407 23.1487C63.6407 25.5634 61.6423 27.5618 59.2276 27.5618Z" fill="#3D3D50"/>
<path d="M59.2265 13.5729C58.7269 13.5729 58.3105 13.1566 58.3105 12.657V10.6586C58.3105 10.159 58.7269 9.74268 59.2265 9.74268C59.7261 9.74268 60.1424 10.159 60.1424 10.6586V12.657C60.1424 13.1566 59.7261 13.5729 59.2265 13.5729Z" fill="#3D3D50"/>
<path d="M59.2265 29.5602C58.7269 29.5602 58.3105 29.1439 58.3105 28.6443V26.6459C58.3105 26.1463 58.7269 25.73 59.2265 25.73C59.7261 25.73 60.1424 26.1463 60.1424 26.6459V28.6443C60.1424 29.1439 59.7261 29.5602 59.2265 29.5602Z" fill="#3D3D50"/>
</svg>
