<svg width="34" height="26" viewBox="0 0 34 26" fill="none" xmlns="http://www.w3.org/2000/svg">
<path d="M25.8138 25.161V17.196C25.8138 16.663 25.9041 14.01 27.6745 14.01C28.0084 14.01 28.8505 14.0876 29.4301 14.8004C29.5729 14.9781 29.7094 15.1557 29.8417 15.3273C30.3814 16.0319 30.7363 16.4608 31.1017 16.4608C32.051 16.4608 33.1094 14.9004 33.1094 12.6621C33.1094 10.4237 32.051 8.86336 31.1017 8.86336C30.7363 8.86336 30.3835 9.29224 29.8417 9.99684C29.7094 10.1684 29.5729 10.3461 29.4301 10.5238C28.8505 11.2386 28.0084 11.3141 27.6745 11.3141C25.902 11.3141 25.8138 8.65912 25.8138 8.12812V0.163086H17.6237C15.5708 0.163086 10.3523 0.163086 8.29952 0.163086H0.109375V25.1631H25.8138V25.161Z" fill="#F20001"/>
</svg>
