<svg width="780" height="722" viewBox="0 0 780 722" fill="none" xmlns="http://www.w3.org/2000/svg">
<path d="M359.517 374.095C360.402 374.98 360.747 376.27 360.422 377.478L320.68 525.283C320.356 526.488 319.415 527.43 318.209 527.754L170.405 567.496C169.196 567.821 167.906 567.476 167.021 566.591L58.9708 458.541C58.0858 457.656 57.7407 456.366 58.0657 455.157L97.8077 307.353C98.1318 306.147 99.0734 305.205 100.279 304.881L248.083 265.139C249.292 264.814 250.582 265.159 251.467 266.044L359.517 374.095Z" stroke="#F1E9FF" stroke-width="3"/>
<path d="M679.925 288.642C680.81 289.527 681.155 290.817 680.83 292.026L611.253 550.792C610.929 551.998 609.987 552.939 608.782 553.263L350.015 622.841C348.807 623.166 347.516 622.821 346.632 621.936L157.455 432.76C156.57 431.875 156.225 430.585 156.55 429.376L226.128 170.61C226.452 169.404 227.393 168.463 228.599 168.138L487.365 98.5609C488.574 98.2359 489.864 98.581 490.749 99.4659L679.925 288.642Z" stroke="#F1E9FF" stroke-width="3"/>
</svg>
