<svg width="216" height="31" viewBox="0 0 216 31" fill="none" xmlns="http://www.w3.org/2000/svg">
<path fill-rule="evenodd" clip-rule="evenodd" d="M19.8172 30.047V29.0432C17.9651 28.8115 17.6564 28.4254 16.6532 25.9544C14.8011 21.244 13.0261 16.3791 11.2512 11.5915L9.78493 11.9776L3.99707 26.1088C3.07101 28.5026 2.76232 28.8887 0.833031 29.0432L0.755859 30.047H7.08393V29.0432C5.0003 28.8115 5.0003 28.3482 5.38615 27.1127C5.69484 25.9544 6.0807 24.9505 6.38938 24.0239H11.8686C12.3316 25.1822 12.7946 26.4177 13.0261 27.2671C13.412 28.4254 13.3348 28.8115 11.6371 29.0432V30.047H19.8172ZM11.4055 22.5567H6.92958C7.62413 20.6262 8.39584 18.6185 9.16756 16.6108H9.24473L11.4055 22.5567ZM48.9881 30.047V29.0432C46.7501 28.8115 46.5958 28.5799 46.5958 25.9544L46.2871 15.8386C46.2099 13.522 46.3643 13.2131 48.6022 12.9815V11.9776H42.9687L37.258 24.1783L31.7017 11.9776H25.8366V12.9815C28.3061 13.2131 28.5376 13.5992 28.2289 16.7652L27.7659 22.0934C27.5344 25.105 27.3029 26.4949 27.1485 27.4216C26.9942 28.4254 26.454 28.8887 24.8334 29.0432V30.047H31.7017V29.0432C29.7724 28.8887 29.3093 28.6571 29.155 27.4216C29.0778 26.4949 29.0007 25.2594 29.155 22.9428L29.5409 15.6842H29.618L35.4831 29.8926H36.2548L42.5829 15.5297H42.7372L42.8144 26.1088C42.8915 28.6571 42.66 28.966 40.5764 29.1976V30.2015H48.9881V30.047ZM66.506 30.047V29.0432C64.4224 28.8115 64.1137 28.6571 64.1137 26.2633V15.6842C64.1137 13.2904 64.3452 13.1359 66.506 12.9815V11.9776H58.0172V12.9815C60.1008 13.1359 60.4095 13.3676 60.4095 15.6842V26.2633C60.4095 28.6571 60.1008 28.8115 58.0172 29.0432V30.047H66.506ZM93.0531 29.352C92.3585 29.1204 91.9727 28.8115 91.3553 28.1938C90.8151 27.576 90.1977 26.7266 89.1945 25.1822C88.3456 23.9467 87.3424 22.0934 86.8793 21.3212C88.7314 20.6262 90.4292 19.2363 90.4292 16.7652C90.4292 15.0664 89.6575 13.8309 88.5771 13.0587C87.4195 12.2865 85.9533 12.0548 83.4066 12.0548H75.5351V13.0587C77.6187 13.2131 77.8503 13.522 77.8503 15.7614V26.3405C77.8503 28.5799 77.4644 28.8887 75.3808 29.1204V30.1242H83.8696V29.1204C81.7088 28.8887 81.4773 28.6571 81.4773 26.3405V22.3251H82.0175C82.9436 22.3251 83.4838 22.6339 83.9468 23.4834C84.7957 24.9505 85.4902 26.4177 86.262 27.576C87.4195 29.2748 88.4999 30.1242 92.127 30.2787C92.4357 30.2787 92.7444 30.2787 92.8987 30.2787L93.0531 29.352ZM81.5545 21.244V14.4487C81.5545 13.9081 81.6317 13.5992 81.786 13.4448C82.0175 13.2904 82.4034 13.1359 83.0979 13.1359C84.7185 13.1359 86.4163 14.217 86.4163 17.1513C86.4163 18.5413 86.0304 19.6224 85.0272 20.4718C84.4098 21.0123 83.4066 21.244 82.1719 21.244H81.5545ZM114.044 24.9505C112.577 27.8077 110.957 29.352 108.024 29.352C103.548 29.352 100.384 25.8772 100.384 20.6262C100.384 16.5336 102.931 12.5954 107.793 12.5954C110.88 12.5954 112.809 13.8309 113.581 16.8425L114.43 16.688C114.275 15.1436 114.044 13.9081 113.812 12.3637C113.04 12.2093 110.957 11.5915 108.565 11.5915C102.005 11.5915 97.2975 15.4525 97.2975 21.244C97.2975 25.6455 100.539 30.4331 107.87 30.4331C109.954 30.4331 112.5 29.8154 113.272 29.6609C113.735 28.8115 114.507 26.5721 114.893 25.2594L114.044 24.9505ZM133.8 29.9698V29.1976C131.948 29.0432 131.562 28.7343 130.636 26.2633C128.783 21.3984 126.931 16.4564 125.156 11.5915L124.153 11.8232L118.211 26.2633C117.208 28.7343 116.822 28.8887 114.97 29.1976V29.9698H121.221V29.1976C119.06 28.966 118.828 28.6571 119.446 26.9582C119.832 25.8772 120.217 24.7961 120.68 23.4834H126.777C127.394 25.105 127.857 26.4177 128.32 27.576C128.706 28.6571 128.475 28.966 126.7 29.1976V29.9698H133.8ZM126.391 22.3251H121.144C121.992 20.0857 122.918 17.6919 123.767 15.4525H123.845L126.391 22.3251ZM136.578 11.9776V12.7498C138.661 12.9043 138.893 12.9815 138.893 15.4525V26.4177C138.893 28.7343 138.661 28.966 136.423 29.1204V29.8926H144.295V29.1204C141.748 28.966 141.44 28.8115 141.44 26.4177V22.1706L143.523 22.7112C143.832 22.7112 144.449 22.7112 144.835 22.6339C147.613 22.3251 150.392 20.549 150.392 16.9197C150.392 15.0664 149.697 13.8309 148.539 12.9815C147.382 12.2093 145.761 11.9004 143.755 11.9004H136.578V11.9776ZM141.594 14.5259C141.594 13.7537 141.671 13.4448 141.903 13.2904C142.134 13.0587 142.674 12.9815 143.446 12.9815C145.684 12.9815 147.613 14.217 147.613 17.2286C147.613 20.7807 145.375 21.7073 143.6 21.7073C142.674 21.7073 141.903 21.4756 141.594 21.3984V14.5259ZM161.118 29.9698V29.1976C158.803 29.0432 158.572 28.8887 158.572 26.4949V15.5297C158.572 13.1359 158.803 12.9815 161.118 12.827V11.9776H153.401V12.827C155.716 12.9815 155.948 13.1359 155.948 15.5297V26.4949C155.948 28.8887 155.716 29.0432 153.401 29.1976V29.9698H161.118ZM180.334 16.3791C180.18 14.6803 180.025 12.5954 180.025 11.3599H179.408C178.945 11.9004 178.714 12.0548 177.942 12.0548H166.443C165.594 12.0548 165.286 12.0548 164.823 11.3599H164.205C164.128 12.9043 164.051 14.6803 163.897 16.5336H164.745C165.131 15.2208 165.363 14.4486 165.749 13.9081C166.135 13.2904 166.752 13.0587 169.221 13.0587H170.842V26.5721C170.842 28.8115 170.61 29.1204 167.987 29.2748V30.047H176.398V29.2748C173.697 29.1204 173.466 28.8115 173.466 26.5721V13.0587H175.395C177.556 13.0587 178.019 13.2904 178.559 13.9081C178.945 14.3714 179.254 15.1436 179.485 16.5336L180.334 16.3791ZM199.241 29.9698V29.1976C197.389 29.0432 197.003 28.7343 196.077 26.2633C194.225 21.3984 192.373 16.4564 190.598 11.5915L189.595 11.8232L183.652 26.2633C182.649 28.7343 182.263 28.8887 180.411 29.1976V29.9698H186.662V29.1976C184.501 28.966 184.27 28.6571 184.887 26.9582C185.273 25.8772 185.659 24.7961 186.122 23.4834H192.219C192.836 25.105 193.299 26.4177 193.762 27.576C194.148 28.6571 193.916 28.966 192.141 29.1976V29.9698H199.241ZM191.755 22.3251H186.585C187.434 20.0857 188.36 17.6919 189.209 15.4525H189.286L191.755 22.3251ZM214.984 25.4138C214.521 26.7266 213.981 27.6532 213.441 28.1938C212.823 28.8887 211.82 29.1204 210.277 29.1204C209.196 29.1204 208.193 29.0432 207.653 28.7343C207.113 28.4254 206.958 27.8849 206.958 26.4177V15.6069C206.958 13.2131 207.19 13.0587 209.428 12.9043V12.0548H201.788V12.9043C204.103 13.0587 204.334 13.2131 204.334 15.6069V26.4177C204.334 28.8115 204.103 29.0432 201.633 29.1976V29.9698H214.675C214.984 29.1204 215.524 26.4949 215.756 25.4911L214.984 25.4138Z" fill="#542AC8"/>
<path fill-rule="evenodd" clip-rule="evenodd" d="M63.9612 0.394745L62.6492 1.70748L63.5753 3.86963L62.1862 2.47968L60.9515 3.86963L61.8004 1.70748L60.4113 0.471965L62.1862 1.3986L63.9612 0.394745ZM62.1862 0.163086C61.9547 0.163086 61.8004 0.317525 61.8004 0.549184C61.8004 0.780843 61.9547 0.935283 62.1862 0.935283C62.4177 0.935283 62.5721 0.780843 62.5721 0.549184C62.6492 0.317525 62.4177 0.163086 62.1862 0.163086Z" fill="#542AC8"/>
<path fill-rule="evenodd" clip-rule="evenodd" d="M60.4117 0.394775L59.4857 2.01639L60.9519 3.79244L59.3313 2.86581L58.4824 4.56464L58.7139 2.24805L57.0162 1.39863L58.9455 1.70751L60.4117 0.394775ZM58.6368 0.703654C58.4053 0.780874 58.3281 1.01253 58.3281 1.24419C58.4053 1.47585 58.6368 1.55307 58.8683 1.55307C59.0998 1.55307 59.177 1.24419 59.177 1.01253C59.0998 0.780874 58.8683 0.626435 58.6368 0.703654Z" fill="#542AC8"/>
<path fill-rule="evenodd" clip-rule="evenodd" d="M56.9395 1.47559L56.5537 3.32886L58.483 4.56437L56.6308 4.17827L56.3222 6.03155L55.8591 3.79218L54.007 3.4833L56.0135 3.25164L56.9395 1.47559ZM55.3961 2.24778C55.2418 2.40222 55.1646 2.63388 55.3189 2.86554C55.4733 3.01998 55.7048 3.0972 55.9363 2.94276C56.0906 2.78832 56.1678 2.55666 56.0135 2.325C55.782 2.17056 55.5504 2.17056 55.3961 2.24778Z" fill="#542AC8"/>
<path fill-rule="evenodd" clip-rule="evenodd" d="M54.0073 3.48364L54.1616 5.33692L56.3996 5.95467L54.5475 6.10911L54.779 7.96239L53.6214 5.95467L51.7693 6.26355L53.5442 5.41413L54.0073 3.48364ZM52.6953 4.71916C52.541 4.8736 52.541 5.18248 52.7725 5.33692C52.9269 5.49135 53.2355 5.49135 53.3899 5.2597C53.5442 5.10526 53.4671 4.79638 53.3127 4.64194C53.0812 4.4875 52.8497 4.56472 52.6953 4.71916Z" fill="#542AC8"/>
<path fill-rule="evenodd" clip-rule="evenodd" d="M51.7692 6.26318L52.4638 7.96202H54.7789L53.004 8.65699L53.7757 10.3558L52.0779 8.73421L50.3801 9.50641L51.8464 8.19368L51.7692 6.26318ZM50.9203 7.80758C50.8432 8.03924 50.9203 8.2709 51.1518 8.34812C51.3834 8.42533 51.6149 8.34811 51.692 8.11646C51.7692 7.8848 51.692 7.65314 51.4605 7.57592C51.229 7.4987 50.9975 7.65314 50.9203 7.80758Z" fill="#542AC8"/>
<path fill-rule="evenodd" clip-rule="evenodd" d="M50.4576 9.66089L51.6151 11.1281L53.8531 10.4331L52.3869 11.5914L53.6216 12.9813L51.538 11.9003L50.1489 13.1358L51.1521 11.4369L50.4576 9.66089ZM50.0717 11.3597C50.0717 11.5914 50.2261 11.823 50.4576 11.823C50.6891 11.823 50.9206 11.6686 50.9206 11.4369C50.9206 11.2053 50.7663 10.9736 50.5347 10.9736C50.3032 10.9736 50.0717 11.1281 50.0717 11.3597Z" fill="#542AC8"/>
<path fill-rule="evenodd" clip-rule="evenodd" d="M50.1479 13.2131L51.6914 14.2942L53.6207 12.9814L52.5403 14.5258L54.1609 15.4525L51.8457 15.0664L50.9197 16.688L51.3827 14.7575L50.1479 13.2131ZM50.3023 14.9892C50.3795 15.2208 50.611 15.3753 50.7653 15.298C50.9968 15.2208 51.1512 14.9892 51.074 14.8347C50.9968 14.6031 50.7653 14.4486 50.611 14.5258C50.3795 14.5258 50.3023 14.7575 50.3023 14.9892Z" fill="#542AC8"/>
<path fill-rule="evenodd" clip-rule="evenodd" d="M50.9969 16.688L52.7719 17.2285L54.161 15.3752L53.6208 17.1513L55.3957 17.6146L53.0806 17.9235L52.6175 19.6995L52.5404 17.6918L50.9969 16.688ZM51.6143 18.3868C51.6915 18.6185 52.0002 18.6957 52.1545 18.5413C52.386 18.464 52.4632 18.1552 52.3089 18.0007C52.2317 17.7691 51.923 17.6918 51.7687 17.8463C51.5371 17.9235 51.5371 18.1552 51.6143 18.3868Z" fill="#542AC8"/>
<path fill-rule="evenodd" clip-rule="evenodd" d="M52.6949 19.7769H54.5471L55.3959 17.6147V19.468L57.2481 19.3908L55.1644 20.3174L55.2416 22.1707L54.6242 20.3947L52.6949 19.7769ZM53.8525 21.1669C54.0069 21.3213 54.3156 21.3213 54.4699 21.1669C54.6242 21.0124 54.6242 20.7035 54.4699 20.5491C54.3156 20.3947 54.0069 20.3947 53.8525 20.5491C53.621 20.7808 53.6982 21.0124 53.8525 21.1669Z" fill="#542AC8"/>
<path fill-rule="evenodd" clip-rule="evenodd" d="M55.3186 22.2475L57.0935 21.707L57.2479 19.3904L57.7881 21.1664L59.563 20.5487L57.8653 22.0931L58.4826 23.8691L57.3251 22.3247L55.3186 22.2475ZM56.7849 23.2514C57.0164 23.3286 57.2479 23.2514 57.3251 23.0969C57.4022 22.8653 57.3251 22.6336 57.1707 22.5564C56.9392 22.4792 56.7077 22.5564 56.6305 22.7108C56.4762 22.9425 56.5533 23.1741 56.7849 23.2514Z" fill="#542AC8"/>
<path fill-rule="evenodd" clip-rule="evenodd" d="M67.435 1.47578L65.7372 2.3252L65.9688 4.64179L65.1199 2.94295L63.4993 3.86959L64.9655 2.09354L64.0395 0.471924L65.4286 1.86188L67.435 1.47578ZM65.8144 0.703583C65.5829 0.626363 65.3514 0.780803 65.2742 1.01246C65.197 1.24412 65.3514 1.47578 65.5829 1.553C65.8144 1.63022 66.0459 1.47578 66.1231 1.24412C66.1231 1.01246 66.0459 0.780803 65.8144 0.703583Z" fill="#542AC8"/>
<path fill-rule="evenodd" clip-rule="evenodd" d="M70.3671 3.48361L68.515 3.79249L68.052 6.03186L67.7433 4.17859L65.9683 4.56469L67.8976 3.25195L67.5118 1.39868L68.4378 3.25195L70.3671 3.48361ZM69.0552 2.2481C68.9008 2.09366 68.5922 2.17088 68.4378 2.32532C68.2835 2.47976 68.3606 2.78864 68.515 2.94308C68.6693 3.09751 68.978 3.0203 69.1324 2.86586C69.2867 2.71142 69.2867 2.40254 69.0552 2.2481Z" fill="#542AC8"/>
<path fill-rule="evenodd" clip-rule="evenodd" d="M72.6049 6.26355L70.7528 6.03189L69.6724 8.0396L69.9039 6.18633L68.0518 6.03189L70.2898 5.33691L70.4441 3.48364L70.83 5.41413L72.6049 6.26355ZM71.756 4.71916C71.6017 4.56472 71.3702 4.4875 71.1387 4.64194C70.9843 4.79638 70.9072 5.02804 71.0615 5.2597C71.2159 5.41413 71.4474 5.49135 71.6789 5.33691C71.8332 5.18248 71.8332 4.8736 71.756 4.71916Z" fill="#542AC8"/>
<path fill-rule="evenodd" clip-rule="evenodd" d="M73.9943 9.66102L72.2966 8.88883L70.5988 10.5104L71.3705 8.81161L69.6727 8.11663H71.9879L72.6824 6.34058L72.5281 8.27107L73.9943 9.66102ZM73.5313 7.88497C73.4541 7.65331 73.2226 7.57609 72.9911 7.65331C72.7596 7.73053 72.6824 7.96219 72.7596 8.19385C72.8368 8.42551 73.0683 8.50273 73.2998 8.42551C73.5313 8.34829 73.6856 8.11663 73.5313 7.88497Z" fill="#542AC8"/>
<path fill-rule="evenodd" clip-rule="evenodd" d="M74.2255 13.2906L72.8364 12.0551L70.8299 13.059L72.0646 11.669L70.5984 10.5107L72.7592 11.2057L73.9168 9.73853L73.1451 11.5918L74.2255 13.2906ZM74.3798 11.5146C74.3798 11.2829 74.1483 11.1285 73.9168 11.1285C73.6853 11.1285 73.5309 11.3601 73.5309 11.5918C73.5309 11.8235 73.7624 11.9779 73.9939 11.9779C74.2255 11.9779 74.3798 11.7462 74.3798 11.5146Z" fill="#542AC8"/>
<path fill-rule="evenodd" clip-rule="evenodd" d="M73.454 16.7654L72.528 15.1438L70.2128 15.5299L71.8334 14.6032L70.8302 13.0588L72.6823 14.3716L74.2257 13.3677L72.991 14.9121L73.454 16.7654ZM74.0714 15.1438C74.1486 14.9121 73.9942 14.6805 73.7627 14.6032C73.5312 14.526 73.2997 14.6805 73.2225 14.9121C73.1453 15.1438 73.2997 15.3754 73.5312 15.4526C73.7627 15.5299 73.9942 15.3754 74.0714 15.1438Z" fill="#542AC8"/>
<path fill-rule="evenodd" clip-rule="evenodd" d="M71.6018 19.9313L71.216 18.078L68.9008 17.7692L70.7529 17.3058L70.2127 15.5298L71.6018 17.3831L73.3768 16.8425L71.7562 17.9236L71.6018 19.9313ZM72.7594 18.4641C72.9137 18.2325 72.8366 18.0008 72.6051 17.9236C72.3735 17.7692 72.142 17.8464 72.0649 18.078C71.9105 18.3097 71.9877 18.5413 72.2192 18.6186C72.3735 18.773 72.6051 18.6958 72.7594 18.4641Z" fill="#542AC8"/>
<path fill-rule="evenodd" clip-rule="evenodd" d="M68.9784 22.3253L69.1327 20.472L67.0491 19.4681L68.9012 19.6226V17.7693L69.6729 19.9314H71.525L69.5957 20.472L68.9784 22.3253ZM70.4446 21.3214C70.599 21.167 70.599 20.9353 70.4446 20.7036C70.2903 20.5492 70.0588 20.5492 69.8272 20.7036C69.6729 20.8581 69.6729 21.0897 69.8272 21.3214C70.0588 21.4758 70.2903 21.4758 70.4446 21.3214Z" fill="#542AC8"/>
<path fill-rule="evenodd" clip-rule="evenodd" d="M65.7371 23.8695L66.4316 22.1706L64.7338 20.6262L66.5088 21.3212L67.049 19.5452L67.2033 21.8618L68.9783 22.4023L66.9718 22.3251L65.7371 23.8695ZM67.4348 23.3289C67.6663 23.2517 67.7435 22.9428 67.6663 22.7884C67.5892 22.5567 67.2805 22.4795 67.1261 22.5567C66.8946 22.634 66.8175 22.9428 66.8946 23.0973C66.9718 23.3289 67.2805 23.4834 67.4348 23.3289Z" fill="#542AC8"/>
</svg>
