<svg width="958" height="710" viewBox="0 0 958 710" fill="none" xmlns="http://www.w3.org/2000/svg">
<path d="M582.381 538.814C583.101 538.814 583.82 538.67 584.396 538.238C586.124 537.086 586.556 534.927 585.404 533.199L507.523 415.154C506.371 413.426 504.212 412.995 502.484 414.146C500.757 415.298 500.325 417.457 501.477 419.185L579.358 537.23C580.077 538.382 581.229 538.814 582.381 538.814Z" fill="#DFDCE9"/>
<path d="M423.452 538.813C424.603 538.813 425.755 538.237 426.475 537.23L504.356 419.184C505.508 417.457 504.932 415.297 503.348 414.146C501.621 412.994 499.461 413.57 498.31 415.153L420.429 533.199C419.277 534.926 419.853 537.086 421.436 538.237C422.012 538.669 422.732 538.813 423.452 538.813Z" fill="#DFDCE9"/>
<path d="M287.555 430.988H693.516C706.616 430.988 717.269 420.335 717.269 407.235V59.577C717.269 46.4768 706.616 35.824 693.516 35.824H287.411C274.311 35.824 263.658 46.4768 263.658 59.577V407.235C263.658 420.335 274.311 430.988 287.555 430.988Z" fill="#542AC8"/>
<path d="M305.116 435.018H702.44C715.252 435.018 725.761 424.653 725.761 411.697V72.3888C725.761 59.5765 715.396 49.0676 702.44 49.0676H305.116C292.304 49.0676 281.795 59.4326 281.795 72.3888V411.841C281.795 424.509 292.304 435.018 305.116 435.018Z" fill="#F8F8FB"/>
<path d="M333.619 250.897H470.235L438.276 49.5002H313.033V230.311C312.889 241.684 322.246 250.897 333.619 250.897Z" fill="#542AC8"/>
<path d="M432.951 398.452H687.9C689.916 398.452 691.499 396.869 691.499 394.853C691.499 392.838 689.916 391.254 687.9 391.254H432.951C430.936 391.254 429.352 392.838 429.352 394.853C429.352 396.869 430.936 398.452 432.951 398.452Z" fill="white"/>
<path d="M432.951 415.871H687.9C689.916 415.871 691.499 414.288 691.499 412.273C691.499 410.257 689.916 408.674 687.9 408.674H432.951C430.936 408.674 429.352 410.257 429.352 412.273C429.352 414.288 430.936 415.871 432.951 415.871Z" fill="white"/>
<path d="M482.186 373.836H676.242C681.424 373.836 685.599 369.661 685.599 364.479V282.711C685.599 277.529 681.424 273.354 676.242 273.354H482.186C477.004 273.354 472.829 277.529 472.829 282.711V364.479C472.829 369.518 477.004 373.836 482.186 373.836Z" fill="#542AC8"/>
<path d="M488.087 367.502H682.142C687.324 367.502 691.499 363.327 691.499 358.145V276.377C691.499 271.194 687.324 267.019 682.142 267.019H488.087C482.904 267.019 478.73 271.194 478.73 276.377V358.145C478.73 363.183 482.904 367.502 488.087 367.502Z" fill="white"/>
<path d="M658.532 350.37H668.465C670.481 350.37 672.208 348.643 672.208 346.627V295.954C672.208 293.939 670.481 292.211 668.465 292.211H658.532C656.517 292.211 654.789 293.939 654.789 295.954V346.627C654.645 348.787 656.373 350.37 658.532 350.37Z" fill="#F26A08"/>
<path d="M632.189 350.371H642.122C644.137 350.371 645.865 348.644 645.865 346.628V309.775C645.865 307.76 644.137 306.032 642.122 306.032H632.189C630.174 306.032 628.446 307.76 628.446 309.775V346.772C628.446 348.788 630.03 350.371 632.189 350.371Z" fill="#FFA32A"/>
<path d="M605.846 350.374H615.779C617.794 350.374 619.522 348.646 619.522 346.631V328.492C619.522 326.477 617.794 324.749 615.779 324.749H605.846C603.83 324.749 602.103 326.477 602.103 328.492V346.631C602.103 348.79 603.83 350.374 605.846 350.374Z" fill="#FFA32A"/>
<path d="M579.501 350.371H589.434C591.45 350.371 593.177 348.643 593.177 346.628V291.924C593.177 289.909 591.45 288.181 589.434 288.181H579.501C577.486 288.181 575.758 289.909 575.758 291.924V346.628C575.758 348.787 577.486 350.371 579.501 350.371Z" fill="#F26A08"/>
<path d="M498.021 350.371H507.954C509.969 350.371 511.697 348.643 511.697 346.628V291.924C511.697 289.909 509.969 288.181 507.954 288.181H498.021C496.005 288.181 494.278 289.909 494.278 291.924V346.628C494.278 348.787 496.005 350.371 498.021 350.371Z" fill="#F26A08"/>
<path d="M574.32 354.975H677.825C678.257 354.975 678.545 354.687 678.545 354.255C678.545 353.823 678.257 353.535 677.825 353.535H574.32C573.888 353.535 573.6 353.823 573.6 354.255C573.6 354.687 573.888 354.975 574.32 354.975Z" fill="#BCB9C8"/>
<path d="M574.607 284.583H633.197C633.629 284.583 633.917 284.295 633.917 283.863C633.917 283.431 633.629 283.144 633.197 283.144H574.607C574.175 283.144 573.887 283.431 573.887 283.863C573.887 284.295 574.319 284.583 574.607 284.583Z" fill="#BCB9C8"/>
<path d="M574.607 276.519H633.197C633.629 276.519 633.917 276.231 633.917 275.8C633.917 275.368 633.629 275.08 633.197 275.08H574.607C574.175 275.08 573.887 275.368 573.887 275.8C573.887 276.231 574.319 276.519 574.607 276.519Z" fill="#BCB9C8"/>
<path d="M494.998 209.869H564.098C573.455 209.869 580.941 202.383 580.941 193.026V123.926C580.941 114.569 573.455 107.083 564.098 107.083H494.998C485.641 107.083 478.155 114.569 478.155 123.926V193.026C478.155 202.239 485.641 209.869 494.998 209.869Z" fill="#542AC8"/>
<path d="M499.027 206.847H568.127C577.484 206.847 584.97 199.362 584.97 190.004V120.905C584.97 111.547 577.484 104.062 568.127 104.062H499.027C489.67 104.062 482.184 111.547 482.184 120.905V190.004C482.184 199.218 489.67 206.847 499.027 206.847Z" fill="#ECEAF4"/>
<path d="M499.603 148.541H567.695C571.582 148.541 574.893 145.374 574.893 141.344V132.562C574.893 128.675 571.726 125.364 567.695 125.364H499.603C495.716 125.364 492.405 128.531 492.405 132.562V141.344C492.405 145.374 495.573 148.541 499.603 148.541Z" fill="#F6F5FA"/>
<path d="M499.603 184.82H567.695C571.582 184.82 574.893 181.653 574.893 177.622V168.84C574.893 164.954 571.726 161.643 567.695 161.643H499.603C495.716 161.643 492.405 164.81 492.405 168.84V177.622C492.405 181.653 495.573 184.82 499.603 184.82Z" fill="#F6F5FA"/>
<path d="M511.41 148.543C505.05 148.543 499.894 143.387 499.894 137.027C499.894 130.666 505.05 125.51 511.41 125.51C517.771 125.51 522.927 130.666 522.927 137.027C522.927 143.387 517.771 148.543 511.41 148.543Z" fill="#BCB9C8"/>
<path d="M537.755 184.964C531.395 184.964 526.238 179.808 526.238 173.447C526.238 167.087 531.395 161.931 537.755 161.931C544.115 161.931 549.272 167.087 549.272 173.447C549.272 179.808 544.115 184.964 537.755 184.964Z" fill="#BCB9C8"/>
<path d="M341.245 246.433H448.206C460.299 246.433 470.088 236.644 470.088 224.552V34.8154C470.088 22.723 460.299 12.9338 448.206 12.9338H341.245C329.153 12.9338 319.364 22.723 319.364 34.8154V224.408C319.364 236.5 329.153 246.433 341.245 246.433Z" fill="white"/>
<path d="M449.933 42.8787C444.606 42.8787 440.288 38.5604 440.288 33.2336C440.288 27.9067 444.606 23.5884 449.933 23.5884C455.26 23.5884 459.578 27.9067 459.578 33.2336C459.578 38.5604 455.26 42.8787 449.933 42.8787Z" fill="#542AC8"/>
<path d="M401.275 29.9218H434.385C434.817 29.9218 435.105 29.6338 435.105 29.202C435.105 28.7701 434.817 28.4822 434.385 28.4822H401.275C400.843 28.4822 400.555 28.7701 400.555 29.202C400.555 29.6338 400.987 29.9218 401.275 29.9218Z" fill="#ECEAF4"/>
<path d="M364.998 36.5436H434.529C434.961 36.5436 435.249 36.2557 435.249 35.8238C435.249 35.3919 434.961 35.104 434.529 35.104H364.998C364.566 35.104 364.278 35.3919 364.278 35.8238C364.278 36.2557 364.566 36.5436 364.998 36.5436Z" fill="#ECEAF4"/>
<path d="M331.311 220.81H400.843C401.275 220.81 401.563 220.522 401.563 220.09C401.563 219.658 401.275 219.37 400.843 219.37H331.311C330.879 219.37 330.591 219.658 330.591 220.09C330.591 220.522 330.879 220.81 331.311 220.81Z" fill="#ECEAF4"/>
<path d="M331.311 231.175H400.843C401.275 231.175 401.563 230.887 401.563 230.455C401.563 230.023 401.275 229.735 400.843 229.735H331.311C330.879 229.735 330.591 230.023 330.591 230.455C330.591 230.887 330.879 231.175 331.311 231.175Z" fill="#ECEAF4"/>
<path d="M447.053 156.029C447.485 156.029 447.773 155.741 447.773 155.309V69.5103C447.773 69.0784 447.485 68.7905 447.053 68.7905C446.621 68.7905 446.333 69.0784 446.333 69.5103V155.309C446.333 155.597 446.621 156.029 447.053 156.029Z" fill="#00407A"/>
<path d="M442.446 145.234H451.515C452.811 145.234 453.819 144.226 453.819 142.931V81.8927C453.819 80.597 452.811 79.5894 451.515 79.5894H442.302C441.006 79.5894 439.999 80.597 439.999 81.8927V142.787C439.999 144.226 441.15 145.234 442.446 145.234Z" fill="#7038E4"/>
<path d="M357.656 110.538H357.8C358.088 110.538 358.376 110.25 358.376 109.962V45.3251C358.376 45.0372 358.088 44.7493 357.8 44.7493H357.656C357.368 44.7493 357.081 45.0372 357.081 45.3251V109.962C357.081 110.394 357.368 110.538 357.656 110.538Z" fill="#00407A"/>
<path d="M352.617 95.8549H362.838C363.846 95.8549 364.71 94.9912 364.71 93.9835V57.2743C364.71 56.2666 363.846 55.4028 362.838 55.4028H352.617C351.61 55.4028 350.746 56.2666 350.746 57.2743V93.9835C350.746 95.1352 351.61 95.8549 352.617 95.8549Z" fill="#542AC8"/>
<path d="M339.372 110.538H339.516C339.804 110.538 340.091 110.25 340.091 109.962V45.3251C340.091 45.0372 339.804 44.7493 339.516 44.7493H339.372C339.084 44.7493 338.796 45.0372 338.796 45.3251V109.962C338.652 110.394 338.94 110.538 339.372 110.538Z" fill="#00407A"/>
<path d="M334.189 95.8549H344.41C345.418 95.8549 346.281 94.9912 346.281 93.9835V57.2743C346.281 56.2666 345.418 55.4028 344.41 55.4028H334.189C333.181 55.4028 332.317 56.2666 332.317 57.2743V93.9835C332.317 95.1352 333.181 95.8549 334.189 95.8549Z" fill="#542AC8"/>
<path d="M382.129 210.158C382.561 210.158 382.849 209.87 382.849 209.438V55.835C382.849 55.4031 382.561 55.1152 382.129 55.1152C381.697 55.1152 381.41 55.4031 381.41 55.835V209.438C381.41 209.87 381.697 210.158 382.129 210.158Z" fill="#00407A"/>
<path d="M377.807 161.068H386.157C387.74 161.068 388.892 159.772 388.892 158.333V73.9735C388.892 72.3899 387.596 71.2383 386.157 71.2383H377.807C376.223 71.2383 375.072 72.5339 375.072 73.9735V158.333C375.072 159.772 376.367 161.068 377.807 161.068Z" fill="#8C46FF"/>
<path d="M427.618 209.006C428.05 209.006 428.338 208.718 428.338 208.286V64.472C428.338 64.0401 428.05 63.7522 427.618 63.7522C427.186 63.7522 426.898 64.0401 426.898 64.472V208.286C427.042 208.574 427.33 209.006 427.618 209.006Z" fill="#00407A"/>
<path d="M423.588 199.792H431.65C433.234 199.792 434.529 198.496 434.529 196.913V102.764C434.529 101.181 433.234 99.885 431.65 99.885H423.588C422.005 99.885 420.709 101.181 420.709 102.764V196.913C420.709 198.496 422.005 199.792 423.588 199.792Z" fill="#7038E4"/>
<path d="M405.737 209.006C406.169 209.006 406.457 208.718 406.457 208.286V64.472C406.457 64.0401 406.169 63.7522 405.737 63.7522C405.305 63.7522 405.017 64.0401 405.017 64.472V208.286C405.017 208.574 405.449 209.006 405.737 209.006Z" fill="#00407A"/>
<path d="M401.704 199.792H409.766C411.349 199.792 412.645 198.496 412.645 196.913V102.764C412.645 101.181 411.349 99.885 409.766 99.885H401.704C400.12 99.885 398.825 101.181 398.825 102.764V196.913C398.681 198.496 400.12 199.792 401.704 199.792Z" fill="#8C46FF"/>
<path d="M797.305 295.667C787.084 295.667 778.735 287.317 778.735 277.096C778.735 266.875 787.084 258.526 797.305 258.526C807.526 258.526 815.876 266.875 815.876 277.096C816.164 287.317 807.67 295.667 797.305 295.667Z" fill="#F1E9FF" fill-opacity="0.15"/>
<path d="M561.933 538.526C561.933 538.526 572.586 535.215 572.586 551.626C572.586 568.037 575.182 569.059 559.409 569.059C549.192 569.059 550.045 563.646 550.997 554.337C551.809 546.401 550.406 536.803 561.933 538.526Z" fill="#7038E4"/>
<path d="M560.459 383.987C560.459 383.987 527.861 423.945 514.426 435.307C511.547 440.058 510.683 445.816 512.267 451.287C516.298 465.97 522.92 497.209 520.472 533.343H503.629L482.612 446.104C481.748 442.361 482.036 438.331 483.331 434.588L514.714 349.653L560.459 383.987Z" fill="#A168FF"/>
<path d="M534.584 392.985L514.142 356.852L531.561 363.618L534.584 392.985Z" fill="#6231D6"/>
<path d="M574.891 362.465L567.549 442.217C567.261 445.528 567.261 448.839 567.693 452.15C569.853 467.41 573.883 518.947 569.997 541.692H554.017C554.017 541.692 538.182 489.291 540.341 448.407C542.501 407.523 523.93 356.562 523.93 356.562L574.891 362.465Z" fill="#CCAFFF"/>
<path d="M567.263 370.959C567.263 370.959 523.068 370.959 508.24 352.389L530.698 229.449L556.754 235.783L567.263 370.959Z" fill="white"/>
<path d="M562.511 226.857C562.511 226.857 577.338 234.631 580.793 243.844C584.248 253.058 582.089 360.45 577.77 383.052L534.151 345.191L545.668 237.942L562.511 226.857Z" fill="#6231D6"/>
<path d="M459.436 205.265L447.344 189.718C447.344 189.718 447.92 181.944 444.465 178.489C441.01 175.034 440.29 176.33 436.835 173.883C433.236 171.435 429.637 167.117 427.765 167.836C425.894 168.7 432.948 175.034 432.804 176.474C432.66 177.913 427.478 185.975 429.493 188.566C431.364 191.158 433.092 193.317 436.403 195.044C439.714 196.772 446.912 209.728 446.912 209.728L459.436 205.265Z" fill="#FBCC9E"/>
<path d="M441.918 203.209L454.261 196.083L460.811 207.428L448.469 214.554L441.918 203.209Z" fill="#FFA32A"/>
<path d="M458.575 201.522L444.179 210.879L467.932 250.612C469.228 252.771 471.243 254.067 473.691 254.499L517.31 261.409C517.31 261.409 527.099 227.291 526.667 227.435C526.379 227.579 499.027 232.905 487.223 235.064C484.056 235.64 480.745 234.345 478.873 231.609L458.575 201.522Z" fill="#8C46FF"/>
<path d="M539.045 224.554C539.045 224.554 530.263 223.69 526.952 227.289C523.641 230.888 513.132 251.906 512.557 288.615C511.981 325.469 505.215 358.003 505.215 358.003L526.808 342.024L539.045 224.554Z" fill="#6231D6"/>
<path d="M550.565 212.318C550.565 212.318 557.835 218.895 562.567 211.534C564.87 200.306 576.487 201.075 573.608 186.823C570.729 172.571 554.135 165.016 546.793 167.895C539.307 170.774 542.587 164.741 539.913 163.804C539.913 163.804 529.26 171.434 541.208 179.783C553.301 188.421 550.565 212.318 550.565 212.318Z" fill="#113655"/>
<path d="M556.322 207.999C556.322 207.999 555.315 220.091 560.209 227.289C560.209 227.289 551.14 239.381 541.783 236.934C536.6 235.638 538.38 234.142 538.38 230.462C538.906 227.307 538.903 224.698 537.176 222.25C536.168 220.811 535.017 219.083 534.009 217.5C530.698 212.893 556.322 207.999 556.322 207.999Z" fill="#FBCC9E"/>
<path d="M556.178 208.432C556.178 208.432 547.108 221.676 537.175 222.252L534.584 218.365L556.178 208.432Z" fill="#E8B689"/>
<path d="M540.919 179.928C540.919 179.928 531.273 196.195 527.675 210.591C527.243 212.606 527.675 214.622 529.114 216.061C530.986 217.933 534.297 219.948 539.623 219.372C549.268 218.221 556.178 208.432 556.178 208.432C556.178 208.432 560.209 211.311 562.944 205.552C564.672 201.953 564.24 199.506 561.073 198.21C557.906 196.915 554.451 202.961 554.451 202.961L552.003 199.074C552.003 199.074 559.633 188.421 553.731 183.527C547.685 179.064 540.919 179.928 540.919 179.928Z" fill="#FBCC9E"/>
<path d="M601.236 298.406L527.242 265.727L507.375 313.377L579.642 347.639L601.236 298.406Z" fill="white"/>
<path d="M527.242 288.184C527.242 288.184 521.484 278.107 517.597 281.274C513.566 284.441 510.399 293.51 520.476 296.389C530.697 299.412 527.242 288.184 527.242 288.184Z" fill="#FBCC9E"/>
<path d="M527.242 265.58L555.169 310.783L601.236 298.402L552.29 316.541L524.794 271.338L527.242 265.58Z" fill="#A1B1BA"/>
<path d="M526.665 285.88L563.23 298.836L559.2 260.544C558.912 257.952 558.336 255.361 557.616 252.77C556.176 248.307 555.169 239.814 565.678 236.215C580.217 231.176 582.953 246.004 582.953 246.004C586.264 266.446 588.279 299.268 588.999 315.248C589.287 320.574 584.536 324.893 578.634 324.605C563.806 323.885 537.174 319.135 519.755 296.533L526.665 285.88Z" fill="#8C46FF"/>
<path d="M556.781 542.245H567.29C568.873 542.245 569.708 544.429 569.708 542.845V533.632H553.296V542.845C553.44 544.429 555.197 542.245 556.781 542.245Z" fill="#FBCC9E"/>
<path d="M503.487 523.843H519.61V539.966H503.487V523.843Z" fill="#FBCC9E"/>
<path d="M562.511 226.858L562.655 223.115L547.108 233.48L545.38 238.663L547.108 239.526L562.223 231.897L562.511 226.858Z" fill="#582CBF"/>
<path d="M537.605 237.367L537.029 227.002L533.574 234.919L537.605 237.367Z" fill="#582CBF"/>
<path d="M556.78 448.657C556.78 448.657 544.688 456.071 540.34 446.248C540.34 446.248 539.908 452.007 540.196 453.59C540.34 455.174 551.742 460.893 556.78 448.657Z" fill="#6231D6"/>
<path d="M550.418 531.76H572.011V541.549H550.418V531.76Z" fill="#6231D6"/>
<path d="M500.896 523.555H522.49V533.344H500.896V523.555Z" fill="#6231D6"/>
<path d="M519.977 540.141C519.977 540.141 520.343 553.812 519.977 556.966C508.411 557.492 472.132 556.966 472.132 556.966C472.132 556.966 470.86 550.37 473.183 549.08C481.645 544.379 490.513 546.713 497.895 539.616C500.774 536.737 502.802 535.453 506.833 536.461C510.72 537.325 519.977 540.141 519.977 540.141Z" fill="#7038E4"/>
<path d="M262.787 65.4784C246.011 65.4784 232.411 51.879 232.411 35.1034C232.411 18.3277 246.011 4.72827 262.787 4.72827C279.562 4.72827 293.162 18.3277 293.162 35.1034C293.162 51.879 279.562 65.4784 262.787 65.4784Z" fill="#CCAFFF"/>
<path d="M247.638 34.6723C251.093 39.135 256.132 45.757 260.019 51.6593C261.458 53.8187 264.625 53.6747 265.921 51.5153C272.975 39.2789 291.545 8.90383 305.941 0.698242C305.941 0.698242 276.862 3.28948 263.042 35.2481L257.571 27.3304C255.556 24.4513 251.525 23.8754 248.79 26.0348C246.055 28.0502 245.623 31.9371 247.638 34.6723Z" fill="white"/>
<path d="M264.517 115.577C257.044 115.577 250.985 109.518 250.985 102.045C250.985 94.5712 257.044 88.5127 264.517 88.5127C271.991 88.5127 278.049 94.5712 278.049 102.045C278.049 109.518 271.991 115.577 264.517 115.577Z" fill="#CCAFFF"/>
<path d="M264.52 158.475C258.954 158.475 254.443 153.963 254.443 148.398C254.443 142.832 258.954 138.321 264.52 138.321C270.085 138.321 274.597 142.832 274.597 148.398C274.597 153.963 270.085 158.475 264.52 158.475Z" fill="#CCAFFF"/>
<path d="M796.012 312.222C786.799 302.289 787.375 286.454 797.596 277.24C807.529 268.027 823.364 268.603 832.578 278.824C841.791 288.757 841.215 304.592 830.994 313.806C821.061 322.875 805.514 322.299 796.012 312.222Z" fill="#FFBF2C"/>
<path d="M814.147 318.271C801.623 318.271 791.402 308.05 791.402 295.526C791.402 283.001 801.623 272.78 814.147 272.78C826.672 272.78 836.893 283.001 836.893 295.526C837.18 308.05 826.959 318.271 814.147 318.271Z" fill="#F26A08"/>
<path d="M814.436 307.761C807.526 307.761 801.912 302.147 801.912 295.237C801.912 288.327 807.526 282.712 814.436 282.712C821.346 282.712 826.96 288.327 826.96 295.237C826.96 302.147 821.346 307.761 814.436 307.761Z" fill="#FFBF2C"/>
<path d="M809.111 281.561L814.438 274.363L819.764 281.561C818.037 280.841 816.165 280.553 814.438 280.553C812.71 280.553 810.695 280.841 809.111 281.561Z" fill="#FFBF2C"/>
<path d="M800.473 300.993L793.275 295.667L800.473 290.341C799.753 292.068 799.465 293.94 799.465 295.667C799.465 297.395 799.609 299.122 800.473 300.993Z" fill="#FFBF2C"/>
<path d="M819.764 309.633L814.438 316.831L809.111 309.633C810.839 310.353 812.71 310.641 814.438 310.641C816.309 310.641 818.037 310.353 819.764 309.633Z" fill="#FFBF2C"/>
<path d="M828.542 290.198L835.74 295.524L828.542 300.851C829.262 299.123 829.55 297.252 829.55 295.524C829.55 293.509 828.974 291.782 828.542 290.198Z" fill="#FFBF2C"/>
<path d="M800.617 289.191L799.321 280.554L808.247 281.849C806.663 282.569 805.224 283.577 803.928 284.872C802.489 286.168 801.481 287.608 800.617 289.191Z" fill="#FFBF2C"/>
<path d="M808.389 309.343L799.464 310.639L800.759 301.713C801.479 303.297 802.487 304.736 803.783 306.032C805.078 307.328 806.518 308.623 808.389 309.343Z" fill="#FFBF2C"/>
<path d="M828.253 301.713L829.549 310.351L820.623 309.055C822.207 308.335 823.647 307.328 824.942 306.032C826.382 304.736 827.533 303.153 828.253 301.713Z" fill="#FFBF2C"/>
<path d="M820.623 281.849L829.549 280.554L828.253 289.191C827.533 287.608 826.526 286.168 825.23 284.872C823.934 283.577 822.063 282.569 820.623 281.849Z" fill="#FFBF2C"/>
<path d="M169.851 358.582C148.21 358.582 130.544 340.916 130.544 319.275C130.544 297.634 148.21 279.968 169.851 279.968C191.492 279.968 209.159 297.634 209.159 319.275C209.6 340.916 191.934 358.582 169.851 358.582Z" fill="#F1E9FF" fill-opacity="0.15"/>
<path d="M408.044 375.998C390.552 375.998 376.373 361.819 376.373 344.327C376.373 326.836 390.552 312.657 408.044 312.657C425.535 312.657 439.714 326.836 439.714 344.327C439.714 361.819 425.535 375.998 408.044 375.998Z" fill="white"/>
<path d="M206.793 306.608C197.58 296.675 198.156 280.84 208.377 271.626C218.31 262.413 234.145 262.989 243.359 273.21C252.572 283.143 251.996 298.978 241.775 308.192C231.842 317.261 216.151 316.685 206.793 306.608Z" fill="#FFBF2C"/>
<path d="M224.932 312.653C212.408 312.653 202.187 302.432 202.187 289.907C202.187 277.383 212.408 267.162 224.932 267.162C237.456 267.162 247.678 277.383 247.678 289.907C247.822 302.432 237.6 312.653 224.932 312.653Z" fill="#F26A08"/>
<path d="M225.079 302.147C218.169 302.147 212.554 296.533 212.554 289.623C212.554 282.713 218.169 277.098 225.079 277.098C231.989 277.098 237.603 282.713 237.603 289.623C237.603 296.533 231.989 302.147 225.079 302.147Z" fill="#FFBF2C"/>
<path d="M219.751 275.944L225.077 268.746L230.404 275.944C228.676 275.224 226.805 274.936 225.077 274.936C223.35 274.936 221.334 275.08 219.751 275.944Z" fill="#FFBF2C"/>
<path d="M211.113 295.378L203.915 290.052L211.113 284.725C210.393 286.453 210.105 288.324 210.105 290.052C210.105 291.779 210.393 293.507 211.113 295.378Z" fill="#FFBF2C"/>
<path d="M230.546 304.016L225.22 311.214L219.893 304.016C221.621 304.736 223.492 305.024 225.22 305.024C226.947 305.024 228.675 304.736 230.546 304.016Z" fill="#FFBF2C"/>
<path d="M239.185 284.583L246.383 289.909L239.185 295.235C239.905 293.508 240.193 291.636 240.193 289.909C240.193 287.894 239.617 286.166 239.185 284.583Z" fill="#FFBF2C"/>
<path d="M211.401 283.573L210.105 274.936L219.031 276.231C217.447 276.951 216.007 277.959 214.712 279.255C213.128 280.55 212.121 281.99 211.401 283.573Z" fill="#FFBF2C"/>
<path d="M219.031 303.727L210.105 305.023L211.401 296.097C212.121 297.681 213.128 299.12 214.424 300.416C215.719 301.712 217.303 303.007 219.031 303.727Z" fill="#FFBF2C"/>
<path d="M238.896 296.097L240.192 304.735L231.266 303.439C232.85 302.719 234.289 301.712 235.585 300.416C237.169 299.12 238.176 297.537 238.896 296.097Z" fill="#FFBF2C"/>
<path d="M231.266 276.231L240.192 274.936L238.896 283.573C238.176 281.99 237.169 280.55 235.873 279.255C234.577 277.959 232.85 276.951 231.266 276.231Z" fill="#FFBF2C"/>
<path d="M178.143 358.434C170.226 349.796 170.658 336.264 179.439 328.346C188.077 320.429 201.609 320.861 209.526 329.642C217.444 338.28 217.012 351.812 208.231 359.729C199.593 367.647 186.205 367.215 178.143 358.434Z" fill="#FFBF2C"/>
<path d="M193.69 363.615C182.893 363.615 174.112 354.834 174.112 344.037C174.112 333.24 182.893 324.458 193.69 324.458C204.487 324.458 213.268 333.24 213.268 344.037C213.556 354.834 204.775 363.615 193.69 363.615Z" fill="#F26A08"/>
<path d="M193.982 354.687C188.079 354.687 183.185 349.792 183.185 343.89C183.185 337.988 188.079 333.093 193.982 333.093C199.884 333.093 204.778 337.988 204.778 343.89C204.778 349.792 199.884 354.687 193.982 354.687Z" fill="#FFBF2C"/>
<path d="M189.371 331.943L193.977 325.753L198.584 331.943C197 331.224 195.561 331.08 193.977 331.08C192.394 331.08 190.666 331.368 189.371 331.943Z" fill="#FFBF2C"/>
<path d="M181.888 348.645L175.698 344.038L181.888 339.432C181.168 341.015 181.024 342.455 181.024 344.038C181.024 345.622 181.168 347.205 181.888 348.645Z" fill="#FFBF2C"/>
<path d="M198.584 356.128L193.977 362.318L189.371 356.128C190.954 356.848 192.394 356.992 193.977 356.992C195.561 356.992 197 356.848 198.584 356.128Z" fill="#FFBF2C"/>
<path d="M206.072 339.432L212.263 344.038L206.072 348.645C206.792 347.061 206.936 345.622 206.936 344.038C206.936 342.311 206.504 340.727 206.072 339.432Z" fill="#FFBF2C"/>
<path d="M182.03 338.568L180.878 331.082L188.508 332.234C187.212 332.954 185.917 333.817 184.765 334.825C183.613 335.977 182.75 337.272 182.03 338.568Z" fill="#FFBF2C"/>
<path d="M188.65 355.982L181.021 357.134L182.172 349.504C182.892 350.8 183.756 352.096 184.763 353.247C185.771 354.255 187.067 355.263 188.65 355.982Z" fill="#FFBF2C"/>
<path d="M205.783 349.364L206.935 356.85L199.305 355.698C200.601 354.978 201.897 354.115 203.048 353.107C204.344 351.955 205.208 350.66 205.783 349.364Z" fill="#FFBF2C"/>
<path d="M199.16 332.234L206.789 331.082L205.638 338.568C204.918 337.272 204.054 335.977 203.047 334.825C202.039 333.673 200.599 332.81 199.16 332.234Z" fill="#FFBF2C"/>
<path d="M169.94 245.859C164.758 240.245 165.045 231.319 170.804 225.993C176.418 220.81 185.343 221.098 190.67 226.857C195.852 232.471 195.564 241.396 189.806 246.723C184.192 251.905 175.41 251.617 169.94 245.859Z" fill="#FFBF2C"/>
<path d="M180.305 249.317C173.251 249.317 167.492 243.558 167.492 236.504C167.492 229.45 173.251 223.692 180.305 223.692C187.359 223.692 193.117 229.45 193.117 236.504C193.261 243.558 187.503 249.317 180.305 249.317Z" fill="#F26A08"/>
<path d="M180.449 243.411C176.562 243.411 173.395 240.244 173.395 236.357C173.395 232.47 176.562 229.303 180.449 229.303C184.335 229.303 187.503 232.47 187.503 236.357C187.503 240.244 184.335 243.411 180.449 243.411Z" fill="#FFBF2C"/>
<path d="M177.426 228.44L180.449 224.409L183.472 228.44C182.465 228.008 181.457 227.864 180.449 227.864C179.442 227.864 178.29 228.008 177.426 228.44Z" fill="#FFBF2C"/>
<path d="M172.533 239.525L168.502 236.502L172.533 233.479C172.101 234.486 171.957 235.494 171.957 236.502C171.957 237.51 172.101 238.517 172.533 239.525Z" fill="#FFBF2C"/>
<path d="M183.472 244.422L180.449 248.452L177.426 244.422C178.434 244.854 179.442 244.997 180.449 244.997C181.457 244.997 182.465 244.854 183.472 244.422Z" fill="#FFBF2C"/>
<path d="M188.366 233.479L192.396 236.502L188.366 239.525C188.798 238.517 188.941 237.51 188.941 236.502C188.941 235.35 188.654 234.343 188.366 233.479Z" fill="#FFBF2C"/>
<path d="M172.676 232.905L171.956 228.01L176.995 228.73C176.131 229.162 175.267 229.738 174.547 230.458C173.684 231.177 173.108 232.041 172.676 232.905Z" fill="#FFBF2C"/>
<path d="M176.995 244.277L171.956 244.997L172.676 239.958C173.108 240.822 173.684 241.685 174.403 242.405C175.123 243.125 175.987 243.845 176.995 244.277Z" fill="#FFBF2C"/>
<path d="M188.223 239.958L188.942 244.853L183.904 244.133C184.768 243.701 185.631 243.125 186.351 242.405C187.215 241.685 187.791 240.822 188.223 239.958Z" fill="#FFBF2C"/>
<path d="M183.904 228.583L188.942 227.864L188.223 232.758C187.791 231.894 187.215 231.031 186.495 230.311C185.775 229.591 184.768 229.015 183.904 228.583Z" fill="#FFBF2C"/>
<path d="M731.228 229.159H656.37C645.861 229.159 637.368 220.666 637.368 210.157V49.644H708.483C721.151 49.644 731.372 59.865 731.372 72.5333V229.159H731.228Z" fill="#ECEAF4"/>
<path d="M708.052 91.1039H728.638V70.9498C728.638 59.1452 719.137 49.644 707.332 49.644H687.178V70.23C687.178 81.8906 696.536 91.1039 708.052 91.1039Z" fill="#542AC8"/>
<path d="M710.5 91.104H731.086V71.8137C731.086 59.5773 721.153 49.5002 708.772 49.5002H689.482V70.0862C689.77 81.7468 698.983 91.104 710.5 91.104Z" fill="white"/>
<path d="M717.411 166.249C718.706 166.249 720.002 165.817 721.153 164.809C723.601 162.794 723.889 159.051 721.729 156.748L651.91 74.9798C649.894 72.5325 646.151 72.2446 643.848 74.404C641.401 76.4194 641.113 80.1623 643.272 82.4656L713.092 164.234C714.243 165.529 715.827 166.249 717.411 166.249Z" fill="#F6F5FA"/>
<path d="M717.264 196.914C718.128 196.914 718.848 196.626 719.567 196.05C721.151 194.755 721.295 192.451 719.999 191.012L661.265 121.48C659.969 119.896 657.666 119.753 656.226 121.048C654.643 122.344 654.499 124.647 655.794 126.087L714.529 195.618C715.105 196.482 716.256 196.914 717.264 196.914Z" fill="#F6F5FA"/>
<path d="M697.834 227H729.505C730.512 227 731.376 226.136 731.376 225.128V155.309C731.376 150.126 727.201 145.951 722.019 145.951H697.834C692.651 145.951 688.477 150.126 688.477 155.309V217.642C688.477 222.825 692.651 227 697.834 227Z" fill="#542AC8"/>
<path d="M708.054 221.962H763.334C770.388 221.962 776.146 216.204 776.146 209.15V153.87C776.146 146.816 770.388 141.058 763.334 141.058H708.054C701 141.058 695.242 146.816 695.242 153.87V209.15C695.242 216.204 701 221.962 708.054 221.962Z" fill="white"/>
<path d="M695.242 166.682H776.146V153.87C776.146 146.816 770.388 141.058 763.334 141.058H708.054C701 141.058 695.242 146.816 695.242 153.87V166.682Z" fill="#FFA32A"/>
<path d="M745.773 212.317C746.205 212.317 746.493 212.029 746.493 211.597V176.184C746.493 175.752 746.205 175.464 745.773 175.464C745.341 175.464 745.053 175.752 745.053 176.184V211.597C745.053 211.885 745.341 212.317 745.773 212.317Z" fill="#F26A08"/>
<path d="M706.905 194.179H764.488C764.92 194.179 765.208 193.891 765.208 193.459C765.208 193.027 764.92 192.739 764.488 192.739H706.905C706.473 192.739 706.185 193.027 706.185 193.459C706.185 193.891 706.473 194.179 706.905 194.179Z" fill="#F26A08"/>
<path d="M726.481 212.317C726.913 212.317 727.2 212.029 727.2 211.597V176.184C727.2 175.752 726.913 175.464 726.481 175.464C726.049 175.464 725.761 175.752 725.761 176.184V211.597C725.761 211.885 726.049 212.317 726.481 212.317Z" fill="#F26A08"/>
<path d="M755.562 148.831C757.145 148.831 758.441 147.535 758.441 145.951V132.851C758.441 131.268 757.145 129.972 755.562 129.972C753.978 129.972 752.682 131.268 752.682 132.851V145.951C752.682 147.535 753.978 148.831 755.562 148.831Z" fill="#542AC8"/>
<path d="M714.245 148.831C715.829 148.831 717.125 147.535 717.125 145.951V132.851C717.125 131.268 715.829 129.972 714.245 129.972C712.662 129.972 711.366 131.268 711.366 132.851V145.951C711.366 147.535 712.662 148.831 714.245 148.831Z" fill="#542AC8"/>
<path d="M362.84 398.454C390.624 398.454 413.226 375.852 413.226 348.069C413.226 320.285 390.624 297.683 362.84 297.683C335.057 297.683 312.455 320.285 312.455 348.069C312.455 375.852 335.057 398.454 362.84 398.454ZM362.84 312.079C382.707 312.079 398.83 328.202 398.83 348.069C398.83 367.935 382.707 384.058 362.84 384.058C342.974 384.058 326.851 367.935 326.851 348.069C326.851 328.202 342.974 312.079 362.84 312.079Z" fill="#542AC8"/>
<path d="M372.2 391.111C399.983 391.111 422.585 368.51 422.585 340.726C422.585 312.942 399.983 290.341 372.2 290.341C344.416 290.341 321.814 312.942 321.814 340.726C321.814 368.51 344.272 391.111 372.2 391.111ZM372.2 304.736C392.066 304.736 408.189 320.86 408.189 340.726C408.189 360.592 392.066 376.715 372.2 376.715C352.333 376.715 336.21 360.592 336.21 340.726C336.21 320.86 352.333 304.736 372.2 304.736Z" fill="#F8F8FB"/>
<path d="M369.032 394.422C385.587 394.422 402.142 387.08 412.939 372.828C431.653 348.644 427.191 313.662 403.006 295.091C397.679 290.916 389.906 291.924 385.875 297.251C381.7 302.577 382.708 310.351 388.034 314.382C401.566 324.891 404.013 344.325 393.648 357.857C383.14 371.389 363.705 373.836 350.173 363.471C344.847 359.296 337.073 360.304 333.042 365.631C328.868 370.957 329.875 378.731 335.202 382.762C345.279 390.679 357.227 394.422 369.032 394.422Z" fill="#A168FF"/>
<path d="M680.699 677.732C682.715 677.732 684.298 676.148 684.298 674.133V490.443C684.298 488.427 682.715 486.844 680.699 486.844C678.684 486.844 677.1 488.427 677.1 490.443V673.989C677.1 676.148 678.684 677.732 680.699 677.732Z" fill="#DFDCE9"/>
<path d="M705.028 642.463C707.044 642.463 708.627 640.879 708.627 638.864V455.318C708.627 453.303 707.044 451.719 705.028 451.719C703.013 451.719 701.429 453.303 701.429 455.318V638.864C701.429 640.879 703.157 642.463 705.028 642.463Z" fill="#DFDCE9"/>
<path d="M907.434 677.732C909.449 677.732 911.032 676.148 911.032 674.133V490.443C911.032 488.427 909.449 486.844 907.434 486.844C905.418 486.844 903.835 488.427 903.835 490.443V673.989C903.835 676.148 905.418 677.732 907.434 677.732Z" fill="#DFDCE9"/>
<path d="M664.287 480.799H924.13V492.316H664.287V480.799Z" fill="#E4E4EC"/>
<path d="M664.144 480.943H924.42L887.423 428.398H701.142L664.144 480.943Z" fill="white"/>
<path d="M750.377 436.172H863.096V356.275C863.096 352.1 859.641 348.645 855.466 348.645H758.151C753.976 348.645 750.521 352.1 750.521 356.275V436.172H750.377Z" fill="#998ACD"/>
<path d="M755.99 433.001H857.049V362.462C857.049 358.575 853.882 355.408 849.995 355.408H762.9C759.013 355.408 755.846 358.575 755.846 362.462V433.001H755.99Z" fill="#E6F7FF"/>
<path d="M736.269 460.933H884.977L863.24 435.596H750.377L736.269 460.933Z" fill="#998ACD"/>
<path d="M736.269 460.931H884.977V464.818H736.269V460.931Z" fill="#542AC8"/>
<path d="M801.77 456.469C801.77 456.469 788.958 450.422 785.647 450.566C782.336 450.71 773.41 450.71 767.076 459.492C760.742 468.129 767.364 468.129 770.963 466.114C774.562 464.098 779.456 461.363 783.919 463.235C788.382 465.106 797.451 468.273 803.066 466.114C808.68 463.954 801.77 456.469 801.77 456.469Z" fill="#FBCC9E"/>
<path d="M165.225 616.892L148.256 619.521L156.231 635.971L170.864 629.345L165.225 616.892Z" fill="#FBCC9E"/>
<path d="M150.36 624.456C150.36 624.456 149.633 638.448 151.938 638.448C163.886 638.448 187.69 635.294 196.102 634.768C196.103 630.036 195.577 627.933 190.845 627.933C184.01 627.933 178.433 627.479 174.258 624.456C171.091 622.153 171.103 619.849 167.185 622.149C165.845 623.529 168.414 627.174 166.133 627.407C162.896 627.739 150.36 624.456 150.36 624.456Z" fill="#7038E4"/>
<path d="M68.159 499.368C68.159 499.368 107.702 585.739 149.306 622.16L166.131 618.48C166.131 618.48 124.303 522.833 96.5187 502.391C68.8788 481.805 68.159 499.368 68.159 499.368Z" fill="#8C46FF"/>
<path d="M113.252 628.995L96.7308 627.418L95.1534 642.665L115.032 642.161L113.252 628.995Z" fill="#FBCC9E"/>
<path d="M96.0237 633.047C96.0237 633.047 92.3536 646.569 94.6058 647.056C106.284 649.584 130.217 651.536 138.55 652.801C139.551 648.176 139.482 646.01 134.857 645.009C128.176 643.563 122.821 641.94 119.381 638.102C116.772 635.181 117.272 632.932 112.956 634.351C111.355 635.416 113.095 639.522 110.816 639.268C107.582 638.907 96.0237 633.047 96.0237 633.047Z" fill="#7038E4"/>
<path d="M48.885 556.966H54.1427V651.605H48.885V556.966Z" fill="#7A7F8A"/>
<path d="M50.6882 561.377H51.6959C58.7498 561.377 64.3642 555.619 64.3642 548.709V536.904H38.0199V548.709C38.0199 555.619 43.6343 561.377 50.6882 561.377Z" fill="#7A7F8A"/>
<path d="M11.2449 540.215H93.0129C98.1954 540.215 102.514 535.896 102.514 530.714C102.514 525.531 98.1954 521.212 93.0129 521.212H11.2449C6.06245 521.212 1.74367 525.531 1.74367 530.714C1.74367 536.04 6.06245 540.215 11.2449 540.215Z" fill="#7A7F8A"/>
<path d="M23.4836 642.143H79.4831C84.9535 642.143 89.4162 646.605 89.4162 652.076H13.5505C13.5505 646.605 18.0132 642.143 23.4836 642.143Z" fill="#7A7F8A"/>
<path d="M26.699 475.614C26.699 475.614 6.68877 517.794 45.9892 529.023C85.2897 540.251 118.4 529.742 118.4 529.742C118.4 529.742 108.179 539.244 94.6469 631.808L115.089 631.377C115.089 631.377 148.775 547.305 150.79 512.899C152.518 484.972 26.699 475.614 26.699 475.614Z" fill="#A168FF"/>
<path d="M111.058 488.572L94.7911 484.397L74.493 481.806L58.5138 483.389C58.5138 483.389 56.3544 486.557 80.1074 489.58C104.004 492.603 111.058 488.572 111.058 488.572Z" fill="#7038E4"/>
<path d="M109.041 373.406C109.041 373.406 104.146 367.36 105.01 357.859C105.874 348.357 101.411 343.751 100.26 341.879C98.9639 340.008 99.6836 337.704 103.283 340.296C106.738 342.743 109.617 348.213 109.761 350.661C109.761 350.661 121.421 344.183 124.156 357.715C126.892 371.247 118.398 373.982 118.398 373.982L109.041 373.406Z" fill="#FBCC9E"/>
<path d="M48.1474 367.933C48.1474 367.933 24.6823 372.396 17.6283 388.951C10.4304 405.938 24.5384 395.285 30.0088 409.249C35.4792 423.213 48.1474 367.933 48.1474 367.933Z" fill="#E9E9E9"/>
<path d="M115.236 446.247L98.5364 448.262L75.0713 379.019L111.637 416.16L115.236 446.247Z" fill="#F0F0F0"/>
<path d="M68.4513 368.221C68.4513 368.221 94.2197 401.332 101.849 447.254C109.479 493.177 37.0685 486.123 26.1277 476.478C26.1277 476.478 29.7267 467.408 28.2871 429.691C26.9915 391.974 45.9939 368.221 52.0401 364.047C58.0863 360.016 68.4513 368.221 68.4513 368.221Z" fill="#E9E9E9"/>
<path d="M67.7264 319.996C67.7264 319.996 70.7496 311.503 65.5671 308.336C60.3846 305.169 56.7856 306.752 56.7856 306.752C56.7856 306.752 54.4823 300.562 47.5724 303.009C40.8063 305.457 42.5338 310.351 42.5338 310.351C42.5338 310.351 35.7678 305.888 29.2897 313.086C24.3951 318.557 29.0018 323.883 29.0018 323.883C29.0018 323.883 21.5159 325.179 22.6676 337.847C23.8193 349.796 34.1842 349.076 34.1842 349.076C34.1842 349.076 31.3051 356.993 41.0943 361.024C50.8834 365.055 54.1944 362.032 54.1944 362.032L67.7264 319.996Z" fill="#F26A08"/>
<path d="M883.967 449.99C883.967 449.99 855.607 464.817 800.04 455.028L798.024 467.409C798.024 467.409 826.096 478.062 851.721 477.774C877.345 477.486 888.574 472.447 888.574 472.447L883.967 449.99Z" fill="#FAFAFA"/>
<path d="M871.013 592.94H875.619V686.8H871.013V592.94Z" fill="#7A7F8A"/>
<path d="M872.739 596.826H873.603C880.081 596.826 885.407 591.5 885.407 585.021V574.081H860.934V585.021C860.934 591.5 866.261 596.826 872.739 596.826Z" fill="#7A7F8A"/>
<path d="M836.173 577.25H912.183C917.077 577.25 920.964 573.363 920.964 568.468C920.964 563.574 917.077 559.687 912.183 559.687H836.173C831.279 559.687 827.392 563.574 827.392 568.468C827.392 573.219 831.279 577.25 836.173 577.25Z" fill="#7A7F8A"/>
<path d="M847.401 677.591H899.369C904.408 677.591 908.583 681.766 908.583 686.805H838.043C838.187 681.766 842.362 677.591 847.401 677.591Z" fill="#7A7F8A"/>
<path d="M90.9042 672.406C92.9196 672.406 94.5032 670.822 94.5032 668.807V485.261C94.5032 483.245 92.9196 481.662 90.9042 481.662C88.8888 481.662 87.3053 483.245 87.3053 485.261V668.807C87.3053 670.822 88.8888 672.406 90.9042 672.406Z" fill="#CBCAD6"/>
<path d="M74.4937 475.472H400.558V486.989H74.4937V475.472Z" fill="#E4E4EC"/>
<path d="M74.2059 475.615H400.846L354.492 423.071H120.704L74.2059 475.615Z" fill="white"/>
<path d="M244.507 432.86H357.226V352.963C357.226 348.788 353.771 345.333 349.596 345.333H252.281C248.106 345.333 244.651 348.788 244.651 352.963V432.86H244.507Z" fill="#998ACD"/>
<path d="M250.266 429.55H351.324V359.011C351.324 355.124 348.157 351.957 344.27 351.957H257.176C253.289 351.957 250.122 355.124 250.122 359.011V429.55H250.266Z" fill="white"/>
<path d="M230.543 457.476H379.251L357.514 432.284H244.651L230.543 457.476Z" fill="#998ACD"/>
<path d="M230.543 457.477H379.251V461.364H230.543V457.477Z" fill="#542AC8"/>
<path d="M304.411 555.914H309.669V681.048H304.411V555.914Z" fill="#7A7F8A"/>
<path d="M417.373 623.561C419.757 622.748 422.652 623.665 423.948 625.857C425.384 628.08 424.779 630.895 420.704 635.467C411.518 646.009 407.207 643.463 399.973 651.773C392.708 660.225 378.549 647.317 383.199 640.07C386.117 635.397 399.161 629.512 399.161 629.512L417.373 623.561Z" fill="#7038E4"/>
<path d="M330.698 637.334C330.698 637.334 330.468 642.065 344.203 640.901C345.021 640.901 349.354 638.763 349.354 637.408C349.625 636.353 350.038 636.079 351.203 635.302C352.78 634.25 354.884 634.776 355.935 633.725C362.004 630.079 368.729 625.838 366.976 623.209C364.873 620.055 356.771 621.259 354.358 621.632C351.498 622.074 343.983 621.537 339.636 623.209C336.449 624.29 335.011 625.335 332.276 630.57C330.592 633.792 330.698 637.334 330.698 637.334Z" fill="#7038E4"/>
<path d="M326.126 491.592C326.126 491.592 337.355 494.039 342.105 498.646C347 503.252 350.678 627.416 350.678 627.416C351.203 630.044 342.792 636.879 342.792 636.879C333.854 639.508 331.021 634.254 331.021 634.254L308.275 514.193L326.126 491.592Z" fill="#737782"/>
<path d="M306.547 560.549H307.555C314.608 560.549 320.223 554.79 320.223 547.88V536.076H293.879V547.88C293.879 554.79 299.493 560.549 306.547 560.549Z" fill="#7A7F8A"/>
<path d="M350.457 491.737C350.457 491.737 361.829 492.313 367.444 496.055C373.058 499.798 400.102 634.252 400.102 634.252C395.37 637.406 393.333 643.834 390.112 643.846C381.7 645.819 379.68 638.718 379.68 638.718L334.381 507.541C334.381 507.541 314.401 490.19 350.457 491.737Z" fill="#7A7F8A"/>
<path d="M267.105 539.388H348.873C354.056 539.388 358.374 535.07 358.374 529.887C358.374 524.705 354.056 520.386 348.873 520.386H267.105C261.923 520.386 257.604 524.705 257.604 529.887C257.604 535.214 261.923 539.388 267.105 539.388Z" fill="#7A7F8A"/>
<path d="M269.12 509.587C269.12 509.587 266.097 529.597 299.639 529.597C333.325 529.597 354.919 512.61 354.919 512.61L350.6 491.592C350.456 491.736 315.906 494.183 269.12 509.587Z" fill="#7A7F8A"/>
<path d="M281.066 343.461C281.066 343.461 282.218 356.993 276.604 365.199C276.604 365.199 286.825 378.875 297.19 376.14C302.948 374.7 302.804 371.533 301.508 368.942C299.925 365.919 300.357 362.32 302.228 359.441C303.38 357.713 304.531 355.842 305.827 354.114C309.714 348.932 281.066 343.461 281.066 343.461Z" fill="#FBCC9E"/>
<path d="M289.848 338.854C289.848 338.854 288.121 361.6 276.316 359.44C276.316 359.44 281.211 355.841 276.892 351.522C272.573 347.348 253.859 349.651 261.201 326.618C261.201 326.618 256.594 302.865 284.378 305.744C287.113 306.032 289.704 305.312 292.296 304.304C292.871 304.016 293.735 304.016 295.031 304.592C300.357 306.752 293.447 315.677 293.447 315.677L289.848 338.854Z" fill="#22232D"/>
<path d="M287.401 343.173C287.401 343.173 290.424 358.577 302.661 359.008L307.843 351.523L287.401 343.173Z" fill="#E8B689"/>
<path d="M295.607 312.51C295.607 312.51 308.419 328.49 315.041 343.749C315.905 345.765 315.905 348.212 314.897 350.083C313.602 352.531 310.867 355.41 305.684 355.698C296.327 356.418 290.425 345.621 290.425 345.621C290.425 345.621 287.401 349.508 283.371 343.893C280.923 340.294 278.044 338.567 280.779 336.695C283.659 334.824 288.265 340.15 288.265 340.15L288.409 339.719C288.409 339.719 279.916 325.755 284.378 319.277C288.841 312.798 295.607 312.51 295.607 312.51Z" fill="#FBCC9E"/>
<path d="M324.831 389.238C324.831 389.238 308.852 363.901 275.598 362.749C274.158 362.749 272.719 363.613 271.999 364.909C267.824 373.114 254.292 403.921 262.93 445.093C273.151 493.607 263.505 510.882 263.505 510.882C263.505 510.882 300.215 531.612 345.849 510.882C345.849 510.882 333.757 493.463 328.718 448.116C323.68 402.77 324.831 389.238 324.831 389.238Z" fill="#ADB5C1"/>
<path d="M309.716 376.716C311.156 375.853 313.027 375.709 314.611 376.428C318.21 378.012 325.12 382.619 332.75 396.007C343.69 415.441 358.23 456.469 358.23 456.469C358.23 456.469 362.837 469.569 351.176 472.304C337.932 475.327 333.613 462.947 333.613 462.947L306.981 397.014C306.981 396.87 300.215 382.331 309.716 376.716Z" fill="#B8C0CD"/>
<path d="M279.341 675.79H335.34C340.811 675.79 345.273 680.253 345.273 685.723H269.407C269.407 680.253 273.87 675.79 279.341 675.79Z" fill="#7A7F8A"/>
<path d="M382.85 672.406C384.865 672.406 386.449 670.822 386.449 668.807V491.595C386.449 489.579 384.865 487.996 382.85 487.996C380.835 487.996 379.251 489.579 379.251 491.595V668.807C379.251 670.822 380.979 672.406 382.85 672.406Z" fill="#DFDCE9"/>
<path d="M52.3227 347.781C52.3227 347.781 53.3304 360.306 48.2919 367.935C48.2919 367.935 57.7931 380.604 67.4383 378.156C72.7647 376.717 72.6208 373.838 71.4691 371.534C70.0295 368.799 70.4614 365.344 72.1889 362.753C73.1966 361.169 74.3483 359.442 75.6439 357.858C78.9549 352.82 52.3227 347.781 52.3227 347.781Z" fill="#FBCC9E"/>
<path d="M52.3274 348.212C52.3274 348.212 61.8286 362.032 72.1936 362.608L74.9288 358.433L52.3274 348.212Z" fill="#E8B689"/>
<path d="M68.304 318.413C68.304 318.413 78.5251 335.4 82.124 350.515C82.5559 352.531 82.124 354.69 80.5404 356.274C78.669 358.289 75.214 360.304 69.4557 359.729C59.3786 358.577 52.1807 348.356 52.1807 348.356C52.1807 348.356 48.006 351.235 45.1269 345.477C43.2554 341.734 43.6872 339.143 47.1422 337.847C50.5972 336.695 54.0523 342.886 54.0523 342.886L56.6435 338.855C56.6435 338.855 48.7258 327.626 54.916 322.588C61.1062 317.405 68.304 318.413 68.304 318.413Z" fill="#FBCC9E"/>
<path d="M874.034 454.02C874.034 454.02 862.806 455.027 856.615 477.773L864.821 477.485L874.034 454.02Z" fill="#E9E9E9"/>
<path d="M122.576 370.381C122.576 370.381 148.92 450.997 120.992 448.118C94.7919 445.527 115.378 411.697 108.756 373.116L122.576 370.381Z" fill="#FAFAFA"/>
<path d="M129.776 456.901C129.776 456.901 140.429 450.711 153.386 460.932C153.386 460.932 156.984 463.379 153.673 466.978C150.362 470.577 145.9 464.099 140.573 465.106C135.247 466.114 125.458 468.417 125.458 468.417L129.776 456.901Z" fill="#FBCC9E"/>
<path d="M83.1282 448.838C80.8249 448.838 78.9535 447.254 78.5216 444.951C75.9304 429.547 65.4214 376.427 48.4344 378.73C28.5682 381.465 60.3829 467.984 60.3829 467.984C60.3829 467.984 90.1822 473.31 127.467 469.28L130.922 455.316C130.922 455.316 98.8196 448.694 83.1282 448.838Z" fill="#FAFAFA"/>
<path d="M112.353 350.517C112.353 350.517 110.482 359.155 114.945 363.185C119.407 367.216 124.014 366.928 124.014 366.928C124.014 366.928 123.87 367.648 123.438 368.656C123.438 368.656 108.179 367.36 112.353 350.517Z" fill="#E8B689"/>
<path d="M379.396 486.987H386.594V492.17H379.396V486.987Z" fill="#7A7F8A"/>
<path d="M87.305 486.987H94.5029V492.17H87.305V486.987Z" fill="#7A7F8A"/>
<path d="M192.105 443.082H202.038L233.853 362.465C235.005 359.586 232.701 356.419 229.534 356.419C227.663 356.419 225.791 357.571 225.215 359.298L192.105 443.082Z" fill="#998ACD"/>
<path d="M118.259 442.939H202.042V449.417H118.259V442.939Z" fill="#998ACD"/>
<path d="M927.299 392.839C927.299 392.839 945.726 386.361 952.636 408.387C959.546 430.412 923.988 445.672 937.952 461.651C949.901 475.183 956.235 457.764 950.189 449.559C950.189 449.559 964.441 467.265 952.924 480.654C946.734 487.995 935.937 489.723 927.443 485.404C912.904 477.918 905.706 461.219 910.312 445.528C912.472 438.33 915.207 431.276 918.518 426.813L927.299 392.839Z" fill="#EAA824"/>
<path d="M863.24 469.136C867.702 457.619 879.219 448.838 887.569 443.656L913.481 452.869L924.998 462.226L905.419 512.179C905.419 512.179 905.707 512.611 906.139 513.331L861.944 514.771C860.217 500.663 859.497 478.493 863.24 469.136Z" fill="white"/>
<path d="M900.957 552.344C900.957 552.344 893.039 561.99 874.756 561.99C856.33 561.99 830.417 561.99 830.417 561.99C830.417 561.99 825.369 610.344 821.77 673.686C821.77 673.686 813.483 674.362 805.997 672.634L798.891 556.087C798.637 551.707 798.249 548.327 799.688 544.872L800.984 541.705C802.279 538.538 803.497 536.653 806.808 535.789L866.983 526.144L883.394 528.591L900.957 552.344Z" fill="#E8B689"/>
<path d="M913.912 555.799C913.912 555.799 906.57 566.02 888.144 566.02C869.717 566.02 843.805 566.02 843.805 566.02C843.805 566.02 849.424 567.545 858.573 587.985C869.096 611.497 868.562 629.012 888.144 674.737C888.144 674.737 883.847 679.995 874.346 679.995L811.846 559.398C810.119 556.519 809.975 553.064 811.126 549.897L812.566 546.154C813.862 542.987 816.597 540.54 819.908 539.676L872.164 526.288L903.835 529.887L913.912 555.799Z" fill="#FBCC9E"/>
<path d="M911.175 423.934C911.175 423.934 904.409 444.088 913.479 452.726C913.479 452.726 898.363 470.001 882.528 465.25C865.829 460.211 888.286 442.937 888.286 442.937L889.294 426.237L911.175 423.934Z" fill="#FBCC9E"/>
<path d="M889.151 429.981L904.699 426.382C904.699 426.382 904.555 433.724 888.863 435.74L889.151 429.981Z" fill="#E8B689"/>
<path d="M926.867 399.316C926.723 410.401 919.669 420.19 909.592 424.94C902.106 428.395 891.885 431.131 879.217 429.835C876.194 429.547 873.89 426.812 874.322 423.789C875.618 412.56 881.376 386.072 908.728 384.2C923.412 382.905 927.011 390.966 926.867 399.316Z" fill="#FBCC9E"/>
<path d="M913.769 555.943L910.602 552.632C898.222 539.243 881.667 530.174 863.672 526.863C863.672 526.863 862.808 521.825 861.945 514.771L906.14 513.331C909.451 519.233 922.551 544.138 913.769 555.943Z" fill="white"/>
<path d="M906.425 390.535C899.084 383.913 889.438 391.111 889.438 391.111C889.438 391.111 892.893 378.442 908.153 378.442C923.412 378.442 931.042 392.406 931.042 392.406C931.042 392.406 938.528 403.923 930.754 420.91C924.708 434.298 908.297 433.29 905.994 423.789C907.433 424.653 908.297 425.804 913.335 421.918C919.67 416.879 920.101 410.689 911.464 413.136C911.464 413.136 913.767 397.013 906.425 390.535Z" fill="#FFBF2C"/>
<path d="M913.768 555.943C913.768 555.943 907.866 565.445 891.311 566.164C874.756 566.74 857.913 566.164 857.913 566.164C857.913 566.164 858.488 538.381 831.568 531.902L863.815 526.288C863.815 526.288 896.781 531.327 913.768 555.943Z" fill="#542AC8"/>
<path d="M844.813 524.993C844.813 524.993 831.713 522.401 822.788 530.751C813.862 539.1 829.41 532.622 846.973 533.774L844.813 524.993Z" fill="#FBCC9E"/>
<path d="M924.996 462.082C924.996 462.082 933.057 469.424 927.155 493.033C921.253 516.642 905.561 537.66 905.561 537.66C905.561 537.66 867.988 543.275 843.516 534.781V524.416C843.516 524.416 868.564 518.802 891.741 521.393C893.757 521.681 895.484 520.241 895.916 518.37L898.795 505.99C898.939 506.133 907.577 454.741 924.996 462.082Z" fill="#FAFAFA"/>
<path d="M823.343 670.632C825.972 677.468 818.085 685.88 815.982 694.818C815.302 694.818 814.409 694.718 812.306 694.718C813.363 692.515 816.994 681.823 815.456 681.674C803.792 680.541 803.363 693.241 796.528 693.241C777.075 692.189 781.812 686.832 782.863 684.728C783.871 683.577 784.275 682.1 786.544 682.1C793.904 682.1 795.181 679.151 798.636 675.265C801.371 672.241 803.368 669.777 805.32 669.777C809.351 670.353 821.24 665.901 823.343 670.632Z" fill="#7038E4"/>
<path d="M889.45 669.586C894.834 674.55 891.488 685.585 893.561 694.53C892.951 694.831 891.675 695.462 889.789 696.393C888.792 694.373 888.713 682.431 887.268 682.978C876.309 687.128 881.548 698.704 875.42 701.731C869.616 705.231 860.141 703.376 860.152 701.025C860.546 699.546 857.983 695.548 861.204 695.242C867.708 694.758 866.599 690.676 867.976 685.661C869.09 681.739 868.916 677.811 872.912 676.8C876.781 675.532 885.469 666.274 889.45 669.586Z" fill="#7038E4"/>
<path fill-rule="evenodd" clip-rule="evenodd" d="M828.112 411.551C827.968 411.983 827.68 412.415 827.536 412.558C827.248 412.846 826.96 412.846 826.385 412.846C825.953 412.846 825.665 412.846 825.377 412.702C825.233 412.559 825.089 412.415 825.089 411.839V407.808C825.089 406.944 825.233 406.8 825.953 406.8V406.512H823.073V406.8C823.937 406.8 824.081 406.944 824.081 407.808V411.839C824.081 412.702 823.937 412.846 823.073 412.846V413.134H827.968C828.112 412.846 828.256 411.839 828.4 411.551H828.112ZM819.475 410.399H817.603C817.891 409.535 818.179 408.672 818.611 407.808L819.475 410.399ZM822.21 413.134V412.846C821.49 412.846 821.346 412.702 821.058 411.695C820.338 409.967 819.762 408.096 819.043 406.224L818.611 406.368L816.451 411.695C816.02 412.558 815.876 412.702 815.3 412.846V413.134H817.603V412.846C816.739 412.702 816.739 412.702 816.883 411.983C817.027 411.551 817.171 411.119 817.315 410.687H819.618C819.906 411.263 820.05 411.839 820.194 412.127C820.338 412.559 820.194 412.702 819.618 412.702V412.99H822.21V413.134ZM815.156 408.096C815.156 407.52 815.012 406.656 815.012 406.224H814.724C814.58 406.368 814.436 406.512 814.148 406.512H809.829C809.541 406.512 809.397 406.512 809.254 406.224H808.966C808.966 406.8 808.966 407.52 808.822 408.096H809.11C809.254 407.664 809.398 407.376 809.398 407.088C809.541 406.944 809.685 406.8 810.693 406.8H811.269V411.839C811.269 412.702 811.125 412.702 810.261 412.846V413.134H813.428V412.846C812.421 412.846 812.277 412.702 812.277 411.839V406.8H812.996C813.86 406.8 814.004 406.944 814.148 407.088C814.292 407.232 814.436 407.52 814.436 408.096H815.156ZM808.102 413.134V412.846C807.238 412.846 807.094 412.702 807.094 411.839V407.808C807.094 406.944 807.238 406.8 808.102 406.8V406.512H805.223V406.8C806.086 406.8 806.23 406.944 806.23 407.808V411.839C806.23 412.702 806.086 412.846 805.223 412.846V413.134H808.102ZM800.76 407.52C800.76 407.232 800.76 407.088 800.904 407.088C801.048 406.944 801.192 406.944 801.48 406.944C802.344 406.944 803.063 407.376 803.063 408.528C803.063 409.823 802.2 410.255 801.624 410.255C801.336 410.255 801.048 410.111 800.904 410.111V407.52H800.76ZM799.033 406.512V406.8C799.752 406.8 799.896 406.944 799.896 407.808V411.839C799.896 412.702 799.752 412.702 799.033 412.846V413.134H801.912V412.846C800.904 412.846 800.904 412.702 800.904 411.839V410.255L801.624 410.399C801.768 410.399 801.912 410.399 802.056 410.399C803.063 410.255 804.071 409.679 804.071 408.24C804.071 407.52 803.783 407.088 803.351 406.8C802.919 406.512 802.344 406.368 801.624 406.368H799.033V406.512ZM795.146 410.399H793.274C793.562 409.535 793.85 408.672 794.282 407.808L795.146 410.399ZM798.025 413.134V412.846C797.305 412.846 797.161 412.702 796.873 411.695C796.153 409.967 795.578 408.096 794.858 406.224L794.426 406.368L792.267 411.695C791.835 412.558 791.691 412.702 791.115 412.846V413.134H793.418V412.846C792.554 412.702 792.554 412.702 792.698 411.983C792.842 411.551 792.986 411.119 793.13 410.687H795.434C795.721 411.263 795.865 411.839 796.009 412.127C796.153 412.559 796.009 412.702 795.434 412.702V412.99H798.025V413.134ZM790.683 411.263C790.107 412.271 789.531 412.846 788.38 412.846C786.796 412.846 785.501 411.551 785.501 409.679C785.501 408.096 786.508 406.656 788.236 406.656C789.387 406.656 790.107 407.088 790.395 408.24H790.683C790.683 407.664 790.539 407.232 790.395 406.656C790.107 406.656 789.387 406.368 788.38 406.368C785.932 406.368 784.205 407.808 784.205 409.967C784.205 411.551 785.357 413.422 788.092 413.422C788.812 413.422 789.819 413.134 790.107 413.134C790.251 412.846 790.539 411.983 790.683 411.551V411.263Z" fill="#542AC8"/>
<path fill-rule="evenodd" clip-rule="evenodd" d="M822.931 398.881V395.714C822.931 395.426 822.931 395.282 823.075 395.282C823.219 395.138 823.363 395.138 823.651 395.138C824.371 395.138 825.234 395.714 825.234 397.01C825.234 397.73 825.091 398.162 824.659 398.593C824.371 398.881 823.939 398.881 823.363 398.881H822.931ZM828.402 402.624C828.114 402.48 827.826 402.336 827.538 402.048C827.25 401.76 826.962 401.329 826.53 400.609C826.098 400.033 825.666 399.169 825.378 398.737C826.242 398.449 827.106 397.73 827.106 396.578C827.106 395.714 826.674 395.138 826.242 394.85C825.666 394.419 824.947 394.419 823.795 394.419H820.052V394.85C821.06 394.994 821.204 395.138 821.204 396.146V401.185C821.204 402.336 821.06 402.336 820.052 402.48V402.912H824.083V402.48C823.075 402.336 822.931 402.192 822.931 401.185V399.313H823.219C823.651 399.313 823.939 399.457 824.083 399.889C824.515 400.609 824.803 401.329 825.234 401.904C825.81 402.768 826.242 403.056 827.97 403.2C828.114 403.2 828.258 403.2 828.258 403.2L828.402 402.624ZM815.733 403.056V402.624C814.726 402.48 814.582 402.48 814.582 401.329V396.146C814.582 394.994 814.726 394.994 815.733 394.85V394.419H811.702V394.85C812.71 394.994 812.854 394.994 812.854 396.146V401.185C812.854 402.336 812.71 402.336 811.702 402.48V402.912H815.733V403.056ZM807.384 403.056V402.624C806.232 402.48 806.232 402.336 806.232 401.185L806.088 396.29C806.088 395.138 806.088 394.994 807.24 394.994V394.563H804.505L801.769 400.321L799.178 394.563H796.443V394.994C797.595 395.138 797.739 395.282 797.595 396.866L797.451 399.457C797.307 400.897 797.307 401.616 797.163 402.048C797.019 402.48 796.875 402.768 796.011 402.768V403.2H799.322V402.768C798.458 402.624 798.17 402.624 798.026 402.048C798.026 401.616 798.026 401.041 798.026 399.889L798.17 396.434L800.906 403.2H801.338L804.361 396.29H804.505V401.329C804.505 402.48 804.505 402.624 803.497 402.768V403.2H807.384V403.056ZM789.533 399.457H787.374C787.662 398.593 788.093 397.586 788.381 396.578L789.533 399.457ZM793.564 403.056V402.624C792.7 402.48 792.556 402.336 792.124 401.185C791.26 398.881 790.397 396.578 789.533 394.275L788.813 394.419L786.078 401.185C785.646 402.336 785.502 402.48 784.494 402.624V403.056H787.518V402.624C786.51 402.48 786.51 402.336 786.654 401.76C786.798 401.185 786.942 400.753 787.086 400.321H789.677C789.965 400.897 790.109 401.473 790.253 401.904C790.397 402.48 790.397 402.624 789.533 402.768V403.2H793.564V403.056Z" fill="#542AC8"/>
<path fill-rule="evenodd" clip-rule="evenodd" d="M811.989 366.495L807.67 370.525L810.549 377.291L806.519 372.973L802.488 377.291L805.223 370.525L800.904 366.495L806.519 369.374L811.989 366.495ZM841.644 418.032L838.765 412.993L831.567 414.145L836.606 411.122L833.295 406.227L839.197 410.402L844.092 407.091L840.205 411.985L841.644 418.032ZM843.804 412.849C843.948 412.129 843.516 411.409 842.796 411.265C842.076 411.122 841.356 411.553 841.212 412.273C841.068 412.993 841.5 413.713 842.22 413.857C842.796 414.001 843.516 413.425 843.804 412.849ZM844.236 406.947L841.069 401.62L843.516 395.862L839.773 400.469L832.863 398.165L837.47 401.908L833.439 406.227L839.917 402.916L844.236 406.947ZM844.667 401.332C844.667 402.052 844.236 402.628 843.372 402.772C842.652 402.772 842.076 402.34 841.932 401.476C841.932 400.757 842.364 400.181 843.228 400.037C843.948 400.037 844.667 400.613 844.667 401.332ZM843.372 395.574L838.045 392.983L832.719 398.021L835.166 392.695L829.696 390.536L837.038 390.68L839.197 385.209L838.621 391.399L843.372 395.574ZM842.076 390.104C841.788 389.384 841.069 389.096 840.349 389.384C839.629 389.672 839.341 390.392 839.629 391.111C839.917 391.831 840.637 392.119 841.356 391.831C842.076 391.543 842.364 390.68 842.076 390.104ZM839.197 384.777L833.583 382.186L832.287 376.14L831.855 382.042L824.945 384.057L826.385 376.86L832.143 375.996L825.953 375.132L822.93 369.662L824.225 375.42L818.179 379.451L823.938 378.155L824.945 383.914L830.704 384.345L829.84 390.248L833.295 383.77L839.197 384.777ZM836.318 380.027C836.75 380.602 836.75 381.466 836.174 381.898C835.598 382.33 834.734 382.33 834.302 381.754C833.871 381.178 833.871 380.315 834.446 379.883C835.022 379.307 835.886 379.451 836.318 380.027ZM827.968 372.253C828.544 372.685 828.688 373.549 828.256 374.124C827.824 374.7 826.961 374.844 826.385 374.412C825.809 373.98 825.665 373.117 826.097 372.541C826.529 372.109 827.393 371.965 827.968 372.253ZM822.786 369.662L816.596 370.669L812.133 366.351L815.012 371.389L810.405 377.004L815.444 374.124L818.035 379.451L817.315 372.109L822.786 369.662ZM817.603 367.358C818.323 367.502 818.755 368.366 818.467 368.942C818.323 369.662 817.459 370.094 816.884 369.806C816.164 369.662 815.732 368.798 816.02 368.222C816.164 367.502 817.028 367.07 817.603 367.358ZM768.37 406.659L773.264 409.97L779.167 405.795L772.689 402.484L768.37 406.659L771.537 401.188L769.234 395.43L772.833 400.037L779.742 397.733L775.136 401.476L779.023 405.795L775.712 410.69L780.75 413.713L773.552 412.417L770.529 417.456L772.113 411.409L768.37 406.659ZM768.802 412.273C768.946 412.993 769.665 413.425 770.385 413.281C771.105 413.137 771.537 412.417 771.393 411.697C771.249 410.978 770.529 410.546 769.809 410.69C769.234 410.834 768.658 411.553 768.802 412.273ZM768.082 401.044C768.082 401.764 768.514 402.34 769.234 402.484C769.953 402.628 770.529 402.052 770.673 401.332C770.673 400.613 770.241 400.037 769.521 399.893C768.802 399.749 768.082 400.181 768.082 401.044ZM773.408 384.921L773.984 391.111L769.378 395.286L774.704 392.839L779.886 397.877L777.439 392.551L782.91 390.392L782.046 384.633L787.948 384.201L780.894 382.186L780.462 376.284L779.167 382.33L773.408 384.921L779.311 383.914L782.91 390.248L775.712 390.392L773.408 384.921ZM770.673 389.816C770.961 389.096 771.681 388.808 772.401 389.096C773.12 389.384 773.408 390.104 773.12 390.823C772.833 391.543 772.113 391.831 771.393 391.543C770.817 391.255 770.385 390.536 770.673 389.816ZM776.431 380.027C776.863 379.451 777.727 379.307 778.303 379.883C778.879 380.315 779.023 381.178 778.447 381.754C778.015 382.33 777.151 382.474 776.575 381.898C776 381.466 776 380.602 776.431 380.027ZM789.82 369.806L788.524 375.564L794.714 379.595L788.956 378.299L788.092 384.057L786.509 377.004L780.75 376.14L786.94 375.276L789.82 369.806ZM784.781 372.253C784.205 372.685 784.061 373.549 784.493 374.124C784.925 374.7 785.789 374.844 786.365 374.412C786.94 373.98 787.084 373.117 786.652 372.541C786.221 372.109 785.357 371.965 784.781 372.253ZM800.616 366.495L796.154 370.813L789.964 369.806L795.29 372.397L794.714 379.595L797.305 374.268L802.488 377.147L797.881 371.533L800.616 366.495ZM795.146 367.358C794.426 367.502 793.994 368.366 794.282 368.942C794.426 369.662 795.29 370.094 795.866 369.806C796.586 369.662 797.017 368.798 796.73 368.222C796.586 367.502 795.722 367.07 795.146 367.358ZM806.375 365.631C805.655 365.631 805.079 366.207 805.079 366.927C805.079 367.646 805.655 368.222 806.375 368.222C807.094 368.222 807.67 367.646 807.67 366.927C807.67 366.207 807.094 365.631 806.375 365.631Z" fill="#542AC8"/>
<path d="M831.71 418.319H781.037C780.893 418.319 780.749 418.175 780.749 418.031C780.749 417.887 780.893 417.743 781.037 417.743H831.71C831.854 417.743 831.998 417.887 831.998 418.031C831.998 418.175 831.854 418.319 831.71 418.319Z" fill="#542AC8"/>
<path d="M824.803 423.213H788.094C787.95 423.213 787.806 423.069 787.806 422.925C787.806 422.781 787.95 422.637 788.094 422.637H824.803C824.947 422.637 825.091 422.781 825.091 422.925C825.091 423.069 824.947 423.213 824.803 423.213Z" fill="#542AC8"/>
</svg>
