<svg width="671" height="498" viewBox="0 0 671 498" fill="none" xmlns="http://www.w3.org/2000/svg">
<path d="M263.692 378.194C263.188 378.194 262.683 378.093 262.28 377.791C261.068 376.983 260.766 375.469 261.573 374.258L316.171 291.503C316.979 290.292 318.493 289.989 319.704 290.797C320.915 291.604 321.217 293.118 320.41 294.329L265.812 377.084C265.307 377.892 264.5 378.194 263.692 378.194Z" fill="#DFDCE9"/>
<path d="M375.109 378.194C374.302 378.194 373.494 377.79 372.99 377.084L318.391 294.328C317.584 293.117 317.988 291.604 319.098 290.796C320.309 289.989 321.823 290.393 322.63 291.503L377.228 374.258C378.036 375.469 377.632 376.983 376.522 377.79C376.118 378.093 375.614 378.194 375.109 378.194Z" fill="#DFDCE9"/>
<path d="M470.379 302.604H185.782C176.598 302.604 169.13 295.135 169.13 285.952V42.2269C169.13 33.0431 176.598 25.575 185.782 25.575H470.48C479.664 25.575 487.132 33.0431 487.132 42.2269V285.952C487.132 295.135 479.664 302.604 470.379 302.604Z" fill="#542AC8"/>
<path d="M458.068 305.429H179.525C170.543 305.429 163.176 298.163 163.176 289.08V51.2086C163.176 42.2266 170.443 34.8594 179.525 34.8594H458.068C467.05 34.8594 474.417 42.1257 474.417 51.2086V289.181C474.417 298.062 467.05 305.429 458.068 305.429Z" fill="#F8F8FB"/>
<path d="M438.086 176.351H342.312L364.717 35.1626H452.518V161.92C452.619 169.892 446.059 176.351 438.086 176.351Z" fill="#542AC8"/>
<path d="M368.45 279.794H189.718C188.305 279.794 187.195 278.684 187.195 277.271C187.195 275.858 188.305 274.748 189.718 274.748H368.45C369.863 274.748 370.973 275.858 370.973 277.271C370.973 278.684 369.863 279.794 368.45 279.794Z" fill="white"/>
<path d="M368.45 292.006H189.718C188.305 292.006 187.195 290.896 187.195 289.483C187.195 288.07 188.305 286.96 189.718 286.96H368.45C369.863 286.96 370.973 288.07 370.973 289.483C370.973 290.896 369.863 292.006 368.45 292.006Z" fill="white"/>
<path d="M333.933 262.537H197.892C194.258 262.537 191.332 259.611 191.332 255.977V198.654C191.332 195.021 194.258 192.094 197.892 192.094H333.933C337.566 192.094 340.493 195.021 340.493 198.654V255.977C340.493 259.51 337.566 262.537 333.933 262.537Z" fill="#542AC8"/>
<path d="M329.797 258.097H193.755C190.122 258.097 187.195 255.17 187.195 251.537V194.214C187.195 190.58 190.122 187.654 193.755 187.654H329.797C333.43 187.654 336.357 190.58 336.357 194.214V251.537C336.357 255.069 333.43 258.097 329.797 258.097Z" fill="white"/>
<path d="M210.307 246.087H203.343C201.93 246.087 200.719 244.875 200.719 243.463V207.938C200.719 206.525 201.93 205.314 203.343 205.314H210.307C211.72 205.314 212.931 206.525 212.931 207.938V243.463C213.032 244.976 211.821 246.087 210.307 246.087Z" fill="#F26A08"/>
<path d="M228.775 246.087H221.811C220.398 246.087 219.187 244.876 219.187 243.463V217.628C219.187 216.215 220.398 215.004 221.811 215.004H228.775C230.187 215.004 231.399 216.215 231.399 217.628V243.564C231.399 244.977 230.288 246.087 228.775 246.087Z" fill="#FFA32A"/>
<path d="M247.242 246.089H240.279C238.866 246.089 237.655 244.878 237.655 243.465V230.749C237.655 229.336 238.866 228.125 240.279 228.125H247.242C248.655 228.125 249.866 229.336 249.866 230.749V243.465C249.866 244.979 248.655 246.089 247.242 246.089Z" fill="#FFA32A"/>
<path d="M265.711 246.087H258.748C257.335 246.087 256.124 244.876 256.124 243.463V205.113C256.124 203.7 257.335 202.489 258.748 202.489H265.711C267.124 202.489 268.335 203.7 268.335 205.113V243.463C268.335 244.977 267.124 246.087 265.711 246.087Z" fill="#F26A08"/>
<path d="M322.833 246.087H315.869C314.456 246.087 313.245 244.876 313.245 243.463V205.113C313.245 203.7 314.456 202.489 315.869 202.489H322.833C324.246 202.489 325.457 203.7 325.457 205.113V243.463C325.457 244.977 324.246 246.087 322.833 246.087Z" fill="#F26A08"/>
<path d="M269.344 249.315H196.781C196.479 249.315 196.277 249.113 196.277 248.81C196.277 248.507 196.479 248.305 196.781 248.305H269.344C269.646 248.305 269.848 248.507 269.848 248.81C269.848 249.113 269.646 249.315 269.344 249.315Z" fill="#BCB9C8"/>
<path d="M269.142 199.966H228.068C227.765 199.966 227.563 199.765 227.563 199.462C227.563 199.159 227.765 198.957 228.068 198.957H269.142C269.445 198.957 269.647 199.159 269.647 199.462C269.647 199.765 269.344 199.966 269.142 199.966Z" fill="#BCB9C8"/>
<path d="M269.142 194.314H228.068C227.765 194.314 227.563 194.112 227.563 193.809C227.563 193.506 227.765 193.305 228.068 193.305H269.142C269.445 193.305 269.647 193.506 269.647 193.809C269.647 194.112 269.344 194.314 269.142 194.314Z" fill="#BCB9C8"/>
<path d="M324.952 147.588H276.51C269.95 147.588 264.702 142.341 264.702 135.781V87.3385C264.702 80.7787 269.95 75.5308 276.51 75.5308H324.952C331.512 75.5308 336.76 80.7787 336.76 87.3385V135.781C336.76 142.24 331.512 147.588 324.952 147.588Z" fill="#542AC8"/>
<path d="M322.127 145.47H273.685C267.125 145.47 261.877 140.222 261.877 133.663V85.2204C261.877 78.6605 267.125 73.4126 273.685 73.4126H322.127C328.687 73.4126 333.935 78.6605 333.935 85.2204V133.663C333.935 140.121 328.687 145.47 322.127 145.47Z" fill="#ECEAF4"/>
<path d="M321.723 104.595H273.988C271.263 104.595 268.942 102.375 268.942 99.5493V93.3931C268.942 90.6682 271.162 88.347 273.988 88.347H321.723C324.448 88.347 326.769 90.5673 326.769 93.3931V99.5493C326.769 102.375 324.549 104.595 321.723 104.595Z" fill="#F6F5FA"/>
<path d="M321.723 130.028H273.988C271.263 130.028 268.942 127.808 268.942 124.982V118.826C268.942 116.101 271.162 113.78 273.988 113.78H321.723C324.448 113.78 326.769 116 326.769 118.826V124.982C326.769 127.808 324.549 130.028 321.723 130.028Z" fill="#F6F5FA"/>
<path d="M313.446 104.596C317.905 104.596 321.52 100.982 321.52 96.5228C321.52 92.0638 317.905 88.4491 313.446 88.4491C308.987 88.4491 305.372 92.0638 305.372 96.5228C305.372 100.982 308.987 104.596 313.446 104.596Z" fill="#BCB9C8"/>
<path d="M294.977 130.129C299.436 130.129 303.051 126.514 303.051 122.055C303.051 117.596 299.436 113.982 294.977 113.982C290.518 113.982 286.904 117.596 286.904 122.055C286.904 126.514 290.518 130.129 294.977 130.129Z" fill="#BCB9C8"/>
<path d="M432.74 173.222H357.755C349.278 173.222 342.415 166.359 342.415 157.882V24.868C342.415 16.3906 349.278 9.52795 357.755 9.52795H432.74C441.217 9.52795 448.08 16.3906 448.08 24.868V157.781C448.08 166.259 441.217 173.222 432.74 173.222Z" fill="white"/>
<path d="M356.545 30.5206C360.279 30.5206 363.306 27.4933 363.306 23.7589C363.306 20.0245 360.279 16.9972 356.545 16.9972C352.81 16.9972 349.783 20.0245 349.783 23.7589C349.783 27.4933 352.81 30.5206 356.545 30.5206Z" fill="#542AC8"/>
<path d="M390.656 21.4373H367.444C367.141 21.4373 366.94 21.2355 366.94 20.9327C366.94 20.6299 367.141 20.4281 367.444 20.4281H390.656C390.959 20.4281 391.161 20.6299 391.161 20.9327C391.161 21.2355 390.858 21.4373 390.656 21.4373Z" fill="#ECEAF4"/>
<path d="M416.088 26.0795H367.343C367.041 26.0795 366.839 25.8777 366.839 25.5749C366.839 25.2722 367.041 25.0703 367.343 25.0703H416.088C416.391 25.0703 416.593 25.2722 416.593 25.5749C416.593 25.8777 416.391 26.0795 416.088 26.0795Z" fill="#ECEAF4"/>
<path d="M439.704 155.259H390.959C390.656 155.259 390.454 155.057 390.454 154.754C390.454 154.451 390.656 154.25 390.959 154.25H439.704C440.007 154.25 440.209 154.451 440.209 154.754C440.209 155.057 440.007 155.259 439.704 155.259Z" fill="#ECEAF4"/>
<path d="M439.704 162.525H390.959C390.656 162.525 390.454 162.324 390.454 162.021C390.454 161.718 390.656 161.516 390.959 161.516H439.704C440.007 161.516 440.209 161.718 440.209 162.021C440.209 162.324 440.007 162.525 439.704 162.525Z" fill="#ECEAF4"/>
<path d="M358.564 109.844C358.261 109.844 358.059 109.643 358.059 109.34V49.1908C358.059 48.888 358.261 48.6862 358.564 48.6862C358.866 48.6862 359.068 48.888 359.068 49.1908V109.34C359.068 109.542 358.866 109.844 358.564 109.844Z" fill="#00407A"/>
<path d="M361.793 102.277H355.435C354.527 102.277 353.821 101.57 353.821 100.662V57.8714C353.821 56.9632 354.527 56.2567 355.435 56.2567H361.894C362.803 56.2567 363.509 56.9632 363.509 57.8714V100.561C363.509 101.57 362.702 102.277 361.793 102.277Z" fill="#7038E4"/>
<path d="M421.235 77.9532H421.134C420.932 77.9532 420.73 77.7514 420.73 77.5496V32.236C420.73 32.0341 420.932 31.8323 421.134 31.8323H421.235C421.437 31.8323 421.638 32.0341 421.638 32.236V77.5496C421.638 77.8523 421.437 77.9532 421.235 77.9532Z" fill="#00407A"/>
<path d="M424.767 67.6596H417.602C416.895 67.6596 416.29 67.0541 416.29 66.3477V40.6128C416.29 39.9063 416.895 39.3008 417.602 39.3008H424.767C425.474 39.3008 426.079 39.9063 426.079 40.6128V66.3477C426.079 67.155 425.474 67.6596 424.767 67.6596Z" fill="#542AC8"/>
<path d="M434.053 77.9532H433.952C433.75 77.9532 433.549 77.7514 433.549 77.5496V32.236C433.549 32.0341 433.75 31.8323 433.952 31.8323H434.053C434.255 31.8323 434.457 32.0341 434.457 32.236V77.5496C434.558 77.8523 434.356 77.9532 434.053 77.9532Z" fill="#00407A"/>
<path d="M437.687 67.6596H430.521C429.815 67.6596 429.209 67.0541 429.209 66.3477V40.6128C429.209 39.9063 429.815 39.3008 430.521 39.3008H437.687C438.393 39.3008 438.999 39.9063 438.999 40.6128V66.3477C438.999 67.155 438.393 67.6596 437.687 67.6596Z" fill="#542AC8"/>
<path d="M404.078 147.791C403.775 147.791 403.574 147.589 403.574 147.286V39.6035C403.574 39.3007 403.775 39.0989 404.078 39.0989C404.381 39.0989 404.583 39.3007 404.583 39.6035V147.286C404.583 147.589 404.381 147.791 404.078 147.791Z" fill="#00407A"/>
<path d="M407.108 113.377H401.255C400.145 113.377 399.337 112.469 399.337 111.459V52.3196C399.337 51.2095 400.246 50.4021 401.255 50.4021H407.108C408.218 50.4021 409.026 51.3104 409.026 52.3196V111.459C409.026 112.469 408.117 113.377 407.108 113.377Z" fill="#8C46FF"/>
<path d="M372.188 146.984C371.886 146.984 371.684 146.782 371.684 146.479V45.6589C371.684 45.3561 371.886 45.1543 372.188 45.1543C372.491 45.1543 372.693 45.3561 372.693 45.6589V146.479C372.592 146.681 372.39 146.984 372.188 146.984Z" fill="#00407A"/>
<path d="M375.013 140.524H369.362C368.252 140.524 367.343 139.616 367.343 138.506V72.5034C367.343 71.3933 368.252 70.485 369.362 70.485H375.013C376.124 70.485 377.032 71.3933 377.032 72.5034V138.506C377.032 139.616 376.124 140.524 375.013 140.524Z" fill="#7038E4"/>
<path d="M387.528 146.984C387.225 146.984 387.024 146.782 387.024 146.479V45.6589C387.024 45.3561 387.225 45.1543 387.528 45.1543C387.831 45.1543 388.033 45.3561 388.033 45.6589V146.479C388.033 146.681 387.73 146.984 387.528 146.984Z" fill="#00407A"/>
<path d="M390.355 140.524H384.704C383.594 140.524 382.685 139.616 382.685 138.506V72.5034C382.685 71.3933 383.594 70.485 384.704 70.485H390.355C391.466 70.485 392.374 71.3933 392.374 72.5034V138.506C392.475 139.616 391.466 140.524 390.355 140.524Z" fill="#8C46FF"/>
<path d="M113.02 207.737C120.186 207.737 126.039 201.884 126.039 194.718C126.039 187.553 120.186 181.699 113.02 181.699C105.855 181.699 100.002 187.553 100.002 194.718C99.7997 201.884 105.754 207.737 113.02 207.737Z" fill="#F1E9FF" fill-opacity="0.15"/>
<path d="M278.027 377.993C278.027 377.993 270.559 375.671 270.559 387.176C270.559 398.681 268.739 399.398 279.797 399.398C286.959 399.398 286.362 395.603 285.694 389.077C285.125 383.513 286.108 376.785 278.027 377.993Z" fill="#7038E4"/>
<path d="M279.06 269.653C279.06 269.653 301.913 297.666 311.332 305.631C313.35 308.962 313.956 312.999 312.846 316.834C310.02 327.128 305.377 349.027 307.093 374.359H318.901L333.635 313.2C334.241 310.576 334.039 307.751 333.131 305.127L311.13 245.583L279.06 269.653Z" fill="#A168FF"/>
<path d="M297.2 275.962L311.531 250.63L299.319 255.374L297.2 275.962Z" fill="#6231D6"/>
<path d="M268.943 254.565L274.09 310.475C274.292 312.797 274.292 315.118 273.989 317.439C272.475 328.137 269.65 364.266 272.374 380.212H283.577C283.577 380.212 294.678 343.477 293.164 314.815C291.65 286.153 304.669 250.427 304.669 250.427L268.943 254.565Z" fill="#CCAFFF"/>
<path d="M274.291 260.521C274.291 260.521 305.274 260.521 315.668 247.502L299.925 161.315L281.658 165.756L274.291 260.521Z" fill="white"/>
<path d="M277.622 159.498C277.622 159.498 267.227 164.948 264.805 171.407C262.383 177.866 263.897 253.153 266.925 268.998L297.504 242.455L289.43 167.269L277.622 159.498Z" fill="#6231D6"/>
<path d="M349.882 144.361L358.36 133.462C358.36 133.462 357.956 128.012 360.378 125.59C362.8 123.168 363.305 124.076 365.727 122.36C368.25 120.645 370.773 117.617 372.085 118.122C373.397 118.727 368.452 123.168 368.553 124.177C368.654 125.186 372.287 130.838 370.874 132.654C369.562 134.471 368.351 135.985 366.03 137.196C363.709 138.407 358.663 147.49 358.663 147.49L349.882 144.361Z" fill="#FBCC9E"/>
<path d="M362.163 142.92L353.511 137.924L348.919 145.878L357.571 150.873L362.163 142.92Z" fill="#FFA32A"/>
<path d="M350.486 141.737L360.578 148.297L343.926 176.151C343.018 177.665 341.605 178.573 339.889 178.876L309.31 183.72C309.31 183.72 302.448 159.802 302.75 159.903C302.952 160.004 322.127 163.738 330.403 165.252C332.623 165.655 334.944 164.747 336.256 162.829L350.486 141.737Z" fill="#8C46FF"/>
<path d="M294.073 157.884C294.073 157.884 300.229 157.278 302.55 159.801C304.872 162.324 312.239 177.059 312.642 202.794C313.046 228.629 317.789 251.438 317.789 251.438L302.651 240.235L294.073 157.884Z" fill="#6231D6"/>
<path d="M285.997 149.305C285.997 149.305 280.9 153.916 277.583 148.756C275.968 140.884 267.824 141.423 269.843 131.432C271.861 121.441 283.494 116.145 288.641 118.163C293.889 120.181 291.59 115.951 293.465 115.295C293.465 115.295 300.933 120.644 292.556 126.497C284.079 132.552 285.997 149.305 285.997 149.305Z" fill="#113655"/>
<path d="M281.961 146.277C281.961 146.277 282.667 154.754 279.236 159.801C279.236 159.801 285.594 168.278 292.154 166.562C295.787 165.654 294.539 164.605 294.539 162.025C294.17 159.813 294.172 157.984 295.383 156.268C296.09 155.259 296.897 154.048 297.603 152.938C299.925 149.708 281.961 146.277 281.961 146.277Z" fill="#FBCC9E"/>
<path d="M282.062 146.581C282.062 146.581 288.42 155.866 295.384 156.269L297.2 153.545L282.062 146.581Z" fill="#E8B689"/>
<path d="M292.759 126.599C292.759 126.599 299.521 138.003 302.044 148.095C302.347 149.508 302.044 150.921 301.035 151.93C299.723 153.242 297.402 154.655 293.668 154.251C286.906 153.444 282.062 146.581 282.062 146.581C282.062 146.581 279.236 148.599 277.318 144.563C276.107 142.039 276.41 140.324 278.63 139.416C280.851 138.507 283.273 142.746 283.273 142.746L284.988 140.021C284.988 140.021 279.64 132.553 283.777 129.122C288.016 125.993 292.759 126.599 292.759 126.599Z" fill="#FBCC9E"/>
<path d="M250.474 209.657L302.348 186.748L316.275 220.153L265.612 244.172L250.474 209.657Z" fill="white"/>
<path d="M302.347 202.491C302.347 202.491 306.384 195.426 309.109 197.647C311.935 199.867 314.155 206.225 307.09 208.243C299.925 210.363 302.347 202.491 302.347 202.491Z" fill="#FBCC9E"/>
<path d="M302.348 186.645L282.769 218.334L250.474 209.655L284.787 222.371L304.063 190.682L302.348 186.645Z" fill="#A1B1BA"/>
<path d="M302.752 200.876L277.118 209.959L279.944 183.114C280.145 181.297 280.549 179.481 281.054 177.664C282.063 174.536 282.769 168.581 275.402 166.058C265.209 162.526 263.292 172.921 263.292 172.921C260.97 187.252 259.557 210.262 259.053 221.464C258.851 225.198 262.181 228.226 266.319 228.024C276.714 227.519 295.384 224.189 307.596 208.344L302.752 200.876Z" fill="#8C46FF"/>
<path d="M281.639 380.6H274.272C273.162 380.6 272.577 382.131 272.577 381.021V374.562H284.082V381.021C283.981 382.131 282.749 380.6 281.639 380.6Z" fill="#FBCC9E"/>
<path d="M319.001 367.699H307.698V379.002H319.001V367.699Z" fill="#FBCC9E"/>
<path d="M277.622 159.499L277.521 156.875L288.42 164.141L289.631 167.774L288.42 168.38L277.824 163.031L277.622 159.499Z" fill="#582CBF"/>
<path d="M295.082 166.865L295.486 159.599L297.908 165.15L295.082 166.865Z" fill="#582CBF"/>
<path d="M281.639 314.99C281.639 314.99 290.117 320.188 293.165 313.302C293.165 313.302 293.468 317.338 293.266 318.448C293.165 319.559 285.172 323.568 281.639 314.99Z" fill="#6231D6"/>
<path d="M286.1 373.25H270.962V380.112H286.1V373.25Z" fill="#6231D6"/>
<path d="M320.817 367.497H305.679V374.36H320.817V367.497Z" fill="#6231D6"/>
<path d="M307.44 379.125C307.44 379.125 307.184 388.709 307.44 390.92C315.549 391.289 340.982 390.92 340.982 390.92C340.982 390.92 341.874 386.296 340.245 385.391C334.313 382.096 328.096 383.733 322.921 378.757C320.903 376.738 319.481 375.839 316.655 376.545C313.93 377.151 307.44 379.125 307.44 379.125Z" fill="#7038E4"/>
<path d="M487.743 46.3641C499.504 46.3641 509.037 36.8303 509.037 25.0698C509.037 13.3092 499.504 3.77539 487.743 3.77539C475.982 3.77539 466.449 13.3092 466.449 25.0698C466.449 36.8303 475.982 46.3641 487.743 46.3641Z" fill="#CCAFFF"/>
<path d="M475.227 24.7676C477.65 27.8961 481.182 32.5385 483.907 36.6763C484.916 38.1901 487.136 38.0892 488.044 36.5754C492.99 27.9971 506.008 6.7027 516.101 0.950195C516.101 0.950195 495.714 2.76678 486.026 25.1713L482.191 19.6206C480.778 17.6022 477.952 17.1985 476.035 18.7123C474.117 20.1252 473.815 22.8501 475.227 24.7676Z" fill="white"/>
<path d="M486.53 81.4853C491.769 81.4853 496.016 77.238 496.016 71.9987C496.016 66.7594 491.769 62.5121 486.53 62.5121C481.29 62.5121 477.043 66.7594 477.043 71.9987C477.043 77.238 481.29 81.4853 486.53 81.4853Z" fill="#CCAFFF"/>
<path d="M486.528 111.559C490.43 111.559 493.592 108.396 493.592 104.495C493.592 100.593 490.43 97.4301 486.528 97.4301C482.626 97.4301 479.463 100.593 479.463 104.495C479.463 108.396 482.626 111.559 486.528 111.559Z" fill="#CCAFFF"/>
<path d="M113.927 219.343C120.386 212.38 119.982 201.278 112.816 194.819C105.853 188.36 94.7516 188.764 88.2926 195.929C81.8337 202.893 82.2373 213.994 89.4027 220.453C96.3663 226.811 107.266 226.408 113.927 219.343Z" fill="#FFBF2C"/>
<path d="M101.213 223.584C109.993 223.584 117.159 216.418 117.159 207.638C117.159 198.858 109.993 191.693 101.213 191.693C92.4331 191.693 85.2677 198.858 85.2677 207.638C85.0659 216.418 92.2313 223.584 101.213 223.584Z" fill="#F26A08"/>
<path d="M101.011 216.215C105.855 216.215 109.791 212.279 109.791 207.435C109.791 202.591 105.855 198.655 101.011 198.655C96.1666 198.655 92.2307 202.591 92.2307 207.435C92.2307 212.279 96.1666 216.215 101.011 216.215Z" fill="#FFBF2C"/>
<path d="M104.744 197.848L101.01 192.802L97.2756 197.848C98.4866 197.343 99.7986 197.141 101.01 197.141C102.221 197.141 103.634 197.343 104.744 197.848Z" fill="#FFBF2C"/>
<path d="M110.799 211.471L115.845 207.737L110.799 204.003C111.304 205.214 111.506 206.526 111.506 207.737C111.506 208.948 111.405 210.159 110.799 211.471Z" fill="#FFBF2C"/>
<path d="M97.2756 217.528L101.01 222.574L104.744 217.528C103.533 218.032 102.221 218.234 101.01 218.234C99.6977 218.234 98.4866 218.032 97.2756 217.528Z" fill="#FFBF2C"/>
<path d="M91.1216 203.903L86.0755 207.637L91.1216 211.371C90.617 210.16 90.4151 208.848 90.4151 207.637C90.4151 206.224 90.8188 205.013 91.1216 203.903Z" fill="#FFBF2C"/>
<path d="M110.699 203.197L111.607 197.142L105.35 198.05C106.46 198.555 107.469 199.262 108.377 200.17C109.387 201.078 110.093 202.087 110.699 203.197Z" fill="#FFBF2C"/>
<path d="M105.25 217.325L111.507 218.233L110.599 211.976C110.094 213.086 109.388 214.095 108.479 215.004C107.571 215.912 106.562 216.82 105.25 217.325Z" fill="#FFBF2C"/>
<path d="M91.3243 211.976L90.416 218.031L96.6731 217.123C95.563 216.618 94.5538 215.912 93.6455 215.004C92.6363 214.095 91.8289 212.985 91.3243 211.976Z" fill="#FFBF2C"/>
<path d="M96.6731 198.05L90.416 197.142L91.3243 203.197C91.8289 202.087 92.5354 201.078 93.4437 200.17C94.3519 199.262 95.6639 198.555 96.6731 198.05Z" fill="#FFBF2C"/>
<path d="M552.895 251.844C568.066 251.844 580.451 239.459 580.451 224.287C580.451 209.116 568.066 196.731 552.895 196.731C537.724 196.731 525.339 209.116 525.339 224.287C525.029 239.459 537.414 251.844 552.895 251.844Z" fill="#F1E9FF" fill-opacity="0.15"/>
<path d="M385.911 264.053C398.173 264.053 408.114 254.113 408.114 241.85C408.114 229.588 398.173 219.648 385.911 219.648C373.649 219.648 363.708 229.588 363.708 241.85C363.708 254.113 373.649 264.053 385.911 264.053Z" fill="white"/>
<path d="M526.997 215.407C533.456 208.444 533.052 197.343 525.887 190.884C518.923 184.425 507.822 184.828 501.363 191.994C494.904 198.957 495.308 210.059 502.473 216.518C509.437 222.876 520.437 222.472 526.997 215.407Z" fill="#FFBF2C"/>
<path d="M514.281 219.645C523.061 219.645 530.226 212.479 530.226 203.699C530.226 194.919 523.061 187.754 514.281 187.754C505.501 187.754 498.335 194.919 498.335 203.699C498.234 212.479 505.4 219.645 514.281 219.645Z" fill="#F26A08"/>
<path d="M514.178 212.28C519.022 212.28 522.958 208.344 522.958 203.5C522.958 198.656 519.022 194.72 514.178 194.72C509.334 194.72 505.398 198.656 505.398 203.5C505.398 208.344 509.334 212.28 514.178 212.28Z" fill="#FFBF2C"/>
<path d="M517.913 193.91L514.179 188.864L510.445 193.91C511.656 193.406 512.968 193.204 514.179 193.204C515.39 193.204 516.803 193.305 517.913 193.91Z" fill="#FFBF2C"/>
<path d="M523.969 207.535L529.015 203.8L523.969 200.066C524.473 201.277 524.675 202.589 524.675 203.8C524.675 205.012 524.473 206.223 523.969 207.535Z" fill="#FFBF2C"/>
<path d="M510.345 213.59L514.079 218.636L517.813 213.59C516.602 214.095 515.29 214.297 514.079 214.297C512.868 214.297 511.657 214.095 510.345 213.59Z" fill="#FFBF2C"/>
<path d="M504.289 199.967L499.243 203.701L504.289 207.435C503.784 206.224 503.582 204.912 503.582 203.701C503.582 202.288 503.986 201.077 504.289 199.967Z" fill="#FFBF2C"/>
<path d="M523.767 199.259L524.675 193.203L518.418 194.112C519.528 194.616 520.537 195.323 521.446 196.231C522.556 197.139 523.262 198.149 523.767 199.259Z" fill="#FFBF2C"/>
<path d="M518.418 213.387L524.675 214.296L523.767 208.039C523.262 209.149 522.556 210.158 521.648 211.066C520.739 211.974 519.629 212.883 518.418 213.387Z" fill="#FFBF2C"/>
<path d="M504.491 208.039L503.583 214.094L509.84 213.186C508.73 212.681 507.721 211.974 506.813 211.066C505.702 210.158 504.996 209.048 504.491 208.039Z" fill="#FFBF2C"/>
<path d="M509.84 194.112L503.583 193.203L504.491 199.259C504.996 198.149 505.702 197.139 506.611 196.231C507.519 195.323 508.73 194.616 509.84 194.112Z" fill="#FFBF2C"/>
<path d="M547.082 251.739C552.632 245.684 552.33 236.197 546.174 230.647C540.118 225.096 530.632 225.399 525.081 231.555C519.53 237.61 519.833 247.097 525.989 252.648C532.045 258.198 541.43 257.895 547.082 251.739Z" fill="#FFBF2C"/>
<path d="M536.183 255.372C543.752 255.372 549.908 249.216 549.908 241.647C549.908 234.078 543.752 227.921 536.183 227.921C528.614 227.921 522.458 234.078 522.458 241.647C522.256 249.216 528.412 255.372 536.183 255.372Z" fill="#F26A08"/>
<path d="M535.979 249.113C540.116 249.113 543.548 245.681 543.548 241.544C543.548 237.406 540.116 233.974 535.979 233.974C531.841 233.974 528.409 237.406 528.409 241.544C528.409 245.681 531.841 249.113 535.979 249.113Z" fill="#FFBF2C"/>
<path d="M539.211 233.168L535.982 228.829L532.752 233.168C533.862 232.664 534.872 232.563 535.982 232.563C537.092 232.563 538.303 232.765 539.211 233.168Z" fill="#FFBF2C"/>
<path d="M544.457 244.877L548.796 241.648L544.457 238.418C544.961 239.528 545.062 240.538 545.062 241.648C545.062 242.758 544.961 243.868 544.457 244.877Z" fill="#FFBF2C"/>
<path d="M532.752 250.123L535.982 254.463L539.211 250.123C538.101 250.628 537.092 250.728 535.982 250.728C534.872 250.728 533.862 250.628 532.752 250.123Z" fill="#FFBF2C"/>
<path d="M527.502 238.418L523.163 241.648L527.502 244.877C526.998 243.767 526.897 242.758 526.897 241.648C526.897 240.437 527.2 239.327 527.502 238.418Z" fill="#FFBF2C"/>
<path d="M544.357 237.813L545.165 232.565L539.816 233.372C540.724 233.877 541.632 234.482 542.44 235.189C543.247 235.996 543.853 236.904 544.357 237.813Z" fill="#FFBF2C"/>
<path d="M539.716 250.021L545.065 250.828L544.257 245.48C543.753 246.388 543.147 247.296 542.441 248.104C541.734 248.81 540.826 249.516 539.716 250.021Z" fill="#FFBF2C"/>
<path d="M527.705 245.381L526.898 250.629L532.246 249.821C531.338 249.317 530.43 248.711 529.622 248.005C528.714 247.197 528.109 246.289 527.705 245.381Z" fill="#FFBF2C"/>
<path d="M532.348 233.372L527 232.565L527.807 237.813C528.312 236.904 528.917 235.996 529.624 235.189C530.33 234.381 531.339 233.776 532.348 233.372Z" fill="#FFBF2C"/>
<path d="M552.833 172.819C556.466 168.884 556.264 162.626 552.227 158.892C548.291 155.259 542.034 155.461 538.3 159.498C534.667 163.434 534.869 169.691 538.906 173.425C542.842 177.058 548.998 176.856 552.833 172.819Z" fill="#FFBF2C"/>
<path d="M545.567 175.244C550.512 175.244 554.549 171.207 554.549 166.262C554.549 161.317 550.512 157.28 545.567 157.28C540.622 157.28 536.585 161.317 536.585 166.262C536.484 171.207 540.521 175.244 545.567 175.244Z" fill="#F26A08"/>
<path d="M545.466 171.103C548.191 171.103 550.411 168.883 550.411 166.158C550.411 163.433 548.191 161.213 545.466 161.213C542.741 161.213 540.521 163.433 540.521 166.158C540.521 168.883 542.741 171.103 545.466 171.103Z" fill="#FFBF2C"/>
<path d="M547.585 160.608L545.465 157.782L543.346 160.608C544.052 160.305 544.759 160.204 545.465 160.204C546.172 160.204 546.979 160.305 547.585 160.608Z" fill="#FFBF2C"/>
<path d="M551.015 168.379L553.841 166.26L551.015 164.14C551.318 164.847 551.419 165.553 551.419 166.26C551.419 166.966 551.318 167.673 551.015 168.379Z" fill="#FFBF2C"/>
<path d="M543.346 171.812L545.465 174.638L547.585 171.812C546.878 172.115 546.172 172.216 545.465 172.216C544.759 172.216 544.052 172.115 543.346 171.812Z" fill="#FFBF2C"/>
<path d="M539.916 164.14L537.09 166.26L539.916 168.379C539.613 167.673 539.512 166.966 539.512 166.26C539.512 165.452 539.714 164.746 539.916 164.14Z" fill="#FFBF2C"/>
<path d="M550.915 163.738L551.419 160.307L547.887 160.811C548.493 161.114 549.098 161.518 549.603 162.022C550.208 162.527 550.612 163.133 550.915 163.738Z" fill="#FFBF2C"/>
<path d="M547.887 171.71L551.419 172.215L550.915 168.683C550.612 169.288 550.208 169.894 549.704 170.398C549.199 170.903 548.594 171.408 547.887 171.71Z" fill="#FFBF2C"/>
<path d="M540.016 168.683L539.511 172.114L543.044 171.609C542.438 171.307 541.832 170.903 541.328 170.398C540.722 169.894 540.319 169.288 540.016 168.683Z" fill="#FFBF2C"/>
<path d="M543.044 160.708L539.511 160.204L540.016 163.635C540.319 163.029 540.722 162.424 541.227 161.919C541.731 161.415 542.438 161.011 543.044 160.708Z" fill="#FFBF2C"/>
<path d="M159.343 161.112H211.822C219.19 161.112 225.144 155.158 225.144 147.791V35.2635H175.289C166.408 35.2635 159.242 42.4289 159.242 51.31V161.112H159.343Z" fill="#ECEAF4"/>
<path d="M175.591 64.3288H161.159V50.1999C161.159 41.9243 167.82 35.2635 176.096 35.2635H190.224V49.6953C190.224 57.8699 183.665 64.3288 175.591 64.3288Z" fill="#542AC8"/>
<path d="M173.875 64.3288H159.443V50.8054C159.443 42.2271 166.407 35.1626 175.086 35.1626H188.609V49.5943C188.407 57.7689 181.949 64.3288 173.875 64.3288Z" fill="white"/>
<path d="M169.03 117.009C168.122 117.009 167.214 116.706 166.406 116C164.691 114.587 164.489 111.963 166.003 110.348L214.949 53.0251C216.362 51.3094 218.986 51.1076 220.601 52.6214C222.317 54.0343 222.518 56.6583 221.005 58.273L172.058 115.596C171.25 116.504 170.14 117.009 169.03 117.009Z" fill="#F6F5FA"/>
<path d="M169.133 138.507C168.527 138.507 168.023 138.305 167.518 137.901C166.408 136.993 166.307 135.378 167.215 134.369L208.391 85.624C209.299 84.5139 210.914 84.4129 211.923 85.3212C213.033 86.2295 213.134 87.8443 212.226 88.8535L171.05 137.598C170.647 138.204 169.839 138.507 169.133 138.507Z" fill="#F6F5FA"/>
<path d="M182.754 159.598H160.552C159.845 159.598 159.24 158.993 159.24 158.286V109.339C159.24 105.706 162.166 102.779 165.8 102.779H182.754C186.388 102.779 189.314 105.706 189.314 109.339V153.038C189.314 156.671 186.388 159.598 182.754 159.598Z" fill="#542AC8"/>
<path d="M175.589 156.066H136.836C131.891 156.066 127.854 152.029 127.854 147.084V108.33C127.854 103.385 131.891 99.3485 136.836 99.3485H175.589C180.535 99.3485 184.571 103.385 184.571 108.33V147.084C184.571 152.029 180.535 156.066 175.589 156.066Z" fill="white"/>
<path d="M184.571 117.312H127.854V108.33C127.854 103.385 131.891 99.3485 136.836 99.3485H175.589C180.535 99.3485 184.571 103.385 184.571 108.33V117.312Z" fill="#FFA32A"/>
<path d="M149.147 149.305C148.844 149.305 148.642 149.103 148.642 148.8V123.974C148.642 123.671 148.844 123.469 149.147 123.469C149.449 123.469 149.651 123.671 149.651 123.974V148.8C149.651 149.002 149.449 149.305 149.147 149.305Z" fill="#F26A08"/>
<path d="M176.395 136.589H136.027C135.724 136.589 135.522 136.387 135.522 136.084C135.522 135.782 135.724 135.58 136.027 135.58H176.395C176.698 135.58 176.9 135.782 176.9 136.084C176.9 136.387 176.698 136.589 176.395 136.589Z" fill="#F26A08"/>
<path d="M162.672 149.305C162.369 149.305 162.167 149.103 162.167 148.8V123.974C162.167 123.671 162.369 123.469 162.672 123.469C162.974 123.469 163.176 123.671 163.176 123.974V148.8C163.176 149.002 162.974 149.305 162.672 149.305Z" fill="#F26A08"/>
<path d="M142.285 104.798C141.174 104.798 140.266 103.89 140.266 102.779V93.5956C140.266 92.4854 141.174 91.5771 142.285 91.5771C143.395 91.5771 144.303 92.4854 144.303 93.5956V102.779C144.303 103.89 143.395 104.798 142.285 104.798Z" fill="#542AC8"/>
<path d="M171.249 104.798C170.139 104.798 169.231 103.89 169.231 102.779V93.5956C169.231 92.4854 170.139 91.5771 171.249 91.5771C172.359 91.5771 173.268 92.4854 173.268 93.5956V102.779C173.268 103.89 172.359 104.798 171.249 104.798Z" fill="#542AC8"/>
<path d="M417.601 279.796C398.123 279.796 382.278 263.951 382.278 244.473C382.278 224.996 398.123 209.151 417.601 209.151C437.078 209.151 452.923 224.996 452.923 244.473C452.923 263.951 437.078 279.796 417.601 279.796ZM417.601 219.243C403.673 219.243 392.37 230.546 392.37 244.473C392.37 258.4 403.673 269.704 417.601 269.704C431.528 269.704 442.831 258.4 442.831 244.473C442.831 230.546 431.528 219.243 417.601 219.243Z" fill="#542AC8"/>
<path d="M411.039 274.648C391.562 274.648 375.717 258.803 375.717 239.325C375.717 219.848 391.562 204.003 411.039 204.003C430.517 204.003 446.362 219.848 446.362 239.325C446.362 258.803 430.618 274.648 411.039 274.648ZM411.039 214.095C397.112 214.095 385.809 225.398 385.809 239.325C385.809 253.252 397.112 264.556 411.039 264.556C424.966 264.556 436.27 253.252 436.27 239.325C436.27 225.398 424.966 214.095 411.039 214.095Z" fill="#F8F8FB"/>
<path d="M413.26 276.969C401.654 276.969 390.048 271.822 382.479 261.831C369.359 244.876 372.488 220.352 389.443 207.334C393.177 204.407 398.627 205.113 401.452 208.847C404.379 212.582 403.673 218.031 399.939 220.857C390.452 228.224 388.736 241.849 396.003 251.335C403.37 260.822 416.994 262.537 426.481 255.271C430.215 252.344 435.665 253.051 438.49 256.785C441.417 260.519 440.711 265.969 436.977 268.795C429.912 274.345 421.536 276.969 413.26 276.969Z" fill="#A168FF"/>
<path d="M194.767 475.582C193.354 475.582 192.243 474.472 192.243 473.059V344.284C192.243 342.871 193.354 341.761 194.767 341.761C196.179 341.761 197.29 342.871 197.29 344.284V472.958C197.29 474.472 196.179 475.582 194.767 475.582Z" fill="#DFDCE9"/>
<path d="M177.711 450.857C176.298 450.857 175.188 449.747 175.188 448.334V319.66C175.188 318.247 176.298 317.137 177.711 317.137C179.124 317.137 180.234 318.247 180.234 319.66V448.334C180.234 449.747 179.023 450.857 177.711 450.857Z" fill="#DFDCE9"/>
<path d="M35.8151 475.582C34.4022 475.582 33.2921 474.472 33.2921 473.059V344.284C33.2921 342.871 34.4022 341.761 35.8151 341.761C37.228 341.761 38.3382 342.871 38.3382 344.284V472.958C38.3382 474.472 37.228 475.582 35.8151 475.582Z" fill="#DFDCE9"/>
<path d="M206.273 337.524H24.1098V345.597H206.273V337.524Z" fill="#E4E4EC"/>
<path d="M206.372 337.624H23.9068L49.8435 300.788H180.436L206.372 337.624Z" fill="white"/>
<path d="M145.919 306.237H66.8978V250.226C66.8978 247.3 69.3199 244.877 72.2466 244.877H140.469C143.396 244.877 145.818 247.3 145.818 250.226V306.237H145.919Z" fill="#998ACD"/>
<path d="M141.984 304.015H71.1373V254.563C71.1373 251.839 73.3576 249.618 76.0825 249.618H137.14C139.865 249.618 142.085 251.839 142.085 254.563V304.015H141.984Z" fill="#E6F7FF"/>
<path d="M155.81 323.596H51.558L66.7971 305.834H145.919L155.81 323.596Z" fill="#998ACD"/>
<path d="M155.81 323.595H51.558V326.32H155.81V323.595Z" fill="#542AC8"/>
<path d="M109.89 320.467C109.89 320.467 118.872 316.228 121.193 316.329C123.515 316.43 129.772 316.43 134.212 322.586C138.653 328.641 134.01 328.641 131.487 327.228C128.964 325.816 125.533 323.898 122.405 325.21C119.276 326.522 112.918 328.742 108.982 327.228C105.046 325.715 109.89 320.467 109.89 320.467Z" fill="#FBCC9E"/>
<path d="M556.138 432.931L568.034 434.774L562.443 446.306L552.185 441.661L556.138 432.931Z" fill="#FBCC9E"/>
<path d="M566.559 438.234C566.559 438.234 567.069 448.043 565.453 448.043C557.077 448.043 540.389 445.832 534.492 445.463C534.492 442.146 534.86 440.671 538.178 440.671C542.969 440.671 546.879 440.353 549.806 438.234C552.026 436.619 552.017 435.004 554.764 436.617C555.703 437.584 553.902 440.139 555.501 440.303C557.771 440.535 566.559 438.234 566.559 438.234Z" fill="white"/>
<path d="M624.186 350.541C624.186 350.541 596.464 411.091 567.298 436.624L555.503 434.044C555.503 434.044 584.827 366.991 604.305 352.66C623.681 338.229 624.186 350.541 624.186 350.541Z" fill="#8C46FF"/>
<path d="M592.574 441.415L604.156 440.31L605.262 450.999L591.326 450.645L592.574 441.415Z" fill="#FBCC9E"/>
<path d="M604.652 444.257C604.652 444.257 607.225 453.736 605.646 454.078C597.459 455.849 580.681 457.218 574.839 458.105C574.137 454.863 574.186 453.344 577.428 452.642C582.111 451.629 585.865 450.491 588.277 447.8C590.106 445.753 589.756 444.175 592.781 445.171C593.904 445.918 592.684 448.796 594.282 448.617C596.549 448.365 604.652 444.257 604.652 444.257Z" fill="white"/>
<path d="M637.698 390.92H634.012V457.266H637.698V390.92Z" fill="#7A7F8A"/>
<path d="M636.434 394.012H635.727C630.782 394.012 626.846 389.976 626.846 385.131V376.856H645.315V385.131C645.315 389.976 641.379 394.012 636.434 394.012Z" fill="#7A7F8A"/>
<path d="M664.085 379.177H606.762C603.129 379.177 600.102 376.149 600.102 372.516C600.102 368.883 603.129 365.855 606.762 365.855H664.085C667.719 365.855 670.746 368.883 670.746 372.516C670.746 376.25 667.719 379.177 664.085 379.177Z" fill="#7A7F8A"/>
<path d="M655.506 450.633H616.247C612.412 450.633 609.284 453.761 609.284 457.596H662.469C662.469 453.761 659.341 450.633 655.506 450.633Z" fill="#7A7F8A"/>
<path d="M653.252 333.889C653.252 333.889 667.28 363.459 639.728 371.33C612.177 379.202 588.965 371.835 588.965 371.835C588.965 371.835 596.13 378.496 605.617 443.388L591.286 443.085C591.286 443.085 567.67 384.147 566.258 360.027C565.046 340.449 653.252 333.889 653.252 333.889Z" fill="#A168FF"/>
<path d="M594.112 342.973L605.516 340.046L619.746 338.229L630.948 339.339C630.948 339.339 632.462 341.56 615.81 343.679C599.057 345.798 594.112 342.973 594.112 342.973Z" fill="#7038E4"/>
<path d="M595.526 262.236C595.526 262.236 598.957 257.997 598.352 251.336C597.746 244.676 600.875 241.446 601.682 240.134C602.59 238.822 602.086 237.208 599.563 239.024C597.141 240.74 595.122 244.575 595.021 246.29C595.021 246.29 586.847 241.749 584.929 251.236C583.012 260.722 588.966 262.64 588.966 262.64L595.526 262.236Z" fill="#FBCC9E"/>
<path d="M638.215 258.399C638.215 258.399 654.665 261.528 659.61 273.134C664.657 285.042 654.766 277.574 650.931 287.364C647.096 297.153 638.215 258.399 638.215 258.399Z" fill="#E9E9E9"/>
<path d="M591.183 313.301L602.89 314.713L619.34 266.17L593.706 292.208L591.183 313.301Z" fill="#F0F0F0"/>
<path d="M623.981 258.601C623.981 258.601 605.916 281.813 600.567 314.007C595.219 346.201 645.982 341.256 653.652 334.494C653.652 334.494 651.129 328.136 652.138 301.695C653.046 275.253 639.725 258.601 635.486 255.675C631.247 252.849 623.981 258.601 623.981 258.601Z" fill="#E9E9E9"/>
<path d="M624.489 224.793C624.489 224.793 622.37 218.839 626.003 216.619C629.636 214.398 632.159 215.508 632.159 215.508C632.159 215.508 633.774 211.169 638.618 212.884C643.362 214.6 642.151 218.031 642.151 218.031C642.151 218.031 646.894 214.903 651.435 219.949C654.867 223.784 651.637 227.518 651.637 227.518C651.637 227.518 656.885 228.426 656.078 237.307C655.27 245.684 648.004 245.179 648.004 245.179C648.004 245.179 650.022 250.73 643.16 253.556C636.297 256.381 633.976 254.262 633.976 254.262L624.489 224.793Z" fill="#F26A08"/>
<path d="M52.2662 315.925C52.2662 315.925 72.1477 326.319 111.103 319.457L112.516 328.136C112.516 328.136 92.8365 335.604 74.8726 335.402C56.9086 335.201 49.0367 331.668 49.0367 331.668L52.2662 315.925Z" fill="#FAFAFA"/>
<path d="M61.3479 416.139H58.1184V481.94H61.3479V416.139Z" fill="#7A7F8A"/>
<path d="M60.1377 418.864H59.5322C54.9907 418.864 51.2567 415.13 51.2567 410.588V402.918H68.4133V410.588C68.4133 415.13 64.6792 418.864 60.1377 418.864Z" fill="#7A7F8A"/>
<path d="M85.772 405.14H32.4856C29.0543 405.14 26.3294 402.415 26.3294 398.983C26.3294 395.552 29.0543 392.827 32.4856 392.827H85.772C89.2033 392.827 91.9282 395.552 91.9282 398.983C91.9282 402.314 89.2033 405.14 85.772 405.14Z" fill="#7A7F8A"/>
<path d="M77.901 475.484H41.4685C37.9362 475.484 35.0095 478.411 35.0095 481.943H84.4609C84.36 478.411 81.4333 475.484 77.901 475.484Z" fill="#7A7F8A"/>
<path d="M608.241 471.849C606.828 471.849 605.718 470.739 605.718 469.326V340.651C605.718 339.238 606.828 338.128 608.241 338.128C609.654 338.128 610.764 339.238 610.764 340.651V469.326C610.764 470.739 609.654 471.849 608.241 471.849Z" fill="#CBCAD6"/>
<path d="M619.745 333.789H391.159V341.863H619.745V333.789Z" fill="#E4E4EC"/>
<path d="M619.947 333.889H390.957L423.453 297.053H587.349L619.947 333.889Z" fill="white"/>
<path d="M500.558 303.916H421.536V247.905C421.536 244.978 423.959 242.556 426.885 242.556H495.108C498.035 242.556 500.457 244.978 500.457 247.905V303.916H500.558Z" fill="#998ACD"/>
<path d="M496.521 301.596H425.674V252.144C425.674 249.419 427.894 247.199 430.619 247.199H491.676C494.401 247.199 496.622 249.419 496.622 252.144V301.596H496.521Z" fill="white"/>
<path d="M510.347 321.173H406.096L421.335 303.512H500.457L510.347 321.173Z" fill="#998ACD"/>
<path d="M510.347 321.173H406.096V323.898H510.347V321.173Z" fill="#542AC8"/>
<path d="M458.562 390.183H454.876V477.907H458.562V390.183Z" fill="#7A7F8A"/>
<path d="M379.37 437.606C377.699 437.036 375.67 437.679 374.761 439.216C373.754 440.774 374.179 442.748 377.035 445.953C383.475 453.343 386.498 451.558 391.569 457.384C396.662 463.309 406.588 454.26 403.328 449.18C401.282 445.903 392.138 441.778 392.138 441.778L379.37 437.606Z" fill="white"/>
<path d="M440.134 447.262C440.134 447.262 440.295 450.579 430.666 449.762C430.093 449.762 427.055 448.263 427.055 447.314C426.865 446.574 426.576 446.382 425.759 445.837C424.653 445.1 423.179 445.469 422.442 444.731C418.187 442.176 413.472 439.203 414.701 437.36C416.176 435.148 421.856 435.993 423.547 436.254C425.552 436.564 430.82 436.187 433.868 437.36C436.102 438.118 437.11 438.85 439.028 442.52C440.208 444.779 440.134 447.262 440.134 447.262Z" fill="white"/>
<path d="M443.339 345.09C443.339 345.09 435.467 346.805 432.137 350.035C428.705 353.264 426.127 440.308 426.127 440.308C425.759 442.151 431.656 446.943 431.656 446.943C437.922 448.786 439.908 445.102 439.908 445.102L455.853 360.934L443.339 345.09Z" fill="#737782"/>
<path d="M457.065 393.432H456.359C451.413 393.432 447.478 389.395 447.478 384.55V376.275H465.946V384.55C465.946 389.395 462.01 393.432 457.065 393.432Z" fill="#7A7F8A"/>
<path d="M426.282 345.191C426.282 345.191 418.309 345.595 414.373 348.219C410.437 350.843 391.478 445.101 391.478 445.101C394.796 447.312 396.224 451.818 398.482 451.827C404.379 453.21 405.795 448.232 405.795 448.232L437.552 356.271C437.552 356.271 451.559 344.107 426.282 345.191Z" fill="#7A7F8A"/>
<path d="M484.715 378.597H427.392C423.759 378.597 420.731 375.57 420.731 371.936C420.731 368.303 423.759 365.276 427.392 365.276H484.715C488.349 365.276 491.376 368.303 491.376 371.936C491.376 375.671 488.349 378.597 484.715 378.597Z" fill="#7A7F8A"/>
<path d="M483.303 357.705C483.303 357.705 485.422 371.733 461.908 371.733C438.292 371.733 423.154 359.824 423.154 359.824L426.182 345.09C426.283 345.191 450.504 346.906 483.303 357.705Z" fill="#7A7F8A"/>
<path d="M474.928 241.243C474.928 241.243 474.121 250.73 478.057 256.482C478.057 256.482 470.891 266.07 463.625 264.152C459.588 263.143 459.689 260.923 460.597 259.106C461.707 256.987 461.405 254.464 460.093 252.446C459.285 251.234 458.478 249.923 457.57 248.711C454.845 245.078 474.928 241.243 474.928 241.243Z" fill="#FBCC9E"/>
<path d="M468.771 238.013C468.771 238.013 469.983 253.959 478.258 252.445C478.258 252.445 474.827 249.922 477.854 246.894C480.882 243.968 494.002 245.582 488.855 229.435C488.855 229.435 492.084 212.783 472.606 214.801C470.689 215.003 468.872 214.499 467.056 213.792C466.652 213.59 466.047 213.59 465.138 213.994C461.404 215.508 466.248 221.765 466.248 221.765L468.771 238.013Z" fill="#22232D"/>
<path d="M470.487 241.041C470.487 241.041 468.368 251.84 459.789 252.143L456.156 246.895L470.487 241.041Z" fill="#E8B689"/>
<path d="M464.734 219.545C464.734 219.545 455.752 230.748 451.11 241.445C450.504 242.858 450.504 244.574 451.211 245.886C452.119 247.601 454.037 249.62 457.67 249.822C464.23 250.326 468.367 242.757 468.367 242.757C468.367 242.757 470.487 245.482 473.313 241.546C475.028 239.023 477.047 237.812 475.129 236.5C473.111 235.188 469.881 238.922 469.881 238.922L469.78 238.619C469.78 238.619 475.735 228.83 472.606 224.289C469.478 219.747 464.734 219.545 464.734 219.545Z" fill="#FBCC9E"/>
<path d="M444.247 273.334C444.247 273.334 455.449 255.572 478.762 254.765C479.771 254.765 480.78 255.37 481.285 256.279C484.211 262.031 493.698 283.628 487.643 312.492C480.477 346.502 487.239 358.613 487.239 358.613C487.239 358.613 461.504 373.145 429.512 358.613C429.512 358.613 437.99 346.401 441.522 314.611C445.054 282.821 444.247 273.334 444.247 273.334Z" fill="#ADB5C1"/>
<path d="M454.843 264.557C453.834 263.951 452.522 263.85 451.412 264.355C448.889 265.465 444.044 268.694 438.696 278.08C431.026 291.704 420.833 320.467 420.833 320.467C420.833 320.467 417.603 329.651 425.778 331.568C435.062 333.688 438.09 325.008 438.09 325.008L456.761 278.786C456.761 278.686 461.504 268.492 454.843 264.557Z" fill="#B8C0CD"/>
<path d="M476.138 474.221H436.88C433.045 474.221 429.916 477.35 429.916 481.185H483.101C483.101 477.35 479.973 474.221 476.138 474.221Z" fill="#7A7F8A"/>
<path d="M403.573 471.849C402.16 471.849 401.05 470.739 401.05 469.326V345.092C401.05 343.679 402.16 342.569 403.573 342.569C404.986 342.569 406.096 343.679 406.096 345.092V469.326C406.096 470.739 404.885 471.849 403.573 471.849Z" fill="#DFDCE9"/>
<path d="M635.288 244.272C635.288 244.272 634.582 253.052 638.114 258.401C638.114 258.401 631.453 267.282 624.691 265.566C620.957 264.557 621.058 262.538 621.866 260.924C622.875 259.006 622.572 256.584 621.361 254.768C620.654 253.657 619.847 252.446 618.939 251.336C616.618 247.804 635.288 244.272 635.288 244.272Z" fill="#FBCC9E"/>
<path d="M635.285 244.573C635.285 244.573 628.624 254.262 621.358 254.666L619.44 251.739L635.285 244.573Z" fill="#E8B689"/>
<path d="M624.084 223.683C624.084 223.683 616.919 235.592 614.396 246.188C614.093 247.601 614.396 249.115 615.506 250.225C616.818 251.638 619.24 253.051 623.277 252.647C630.342 251.84 635.388 244.675 635.388 244.675C635.388 244.675 638.314 246.693 640.333 242.656C641.645 240.032 641.342 238.216 638.92 237.307C636.498 236.5 634.076 240.84 634.076 240.84L632.259 238.014C632.259 238.014 637.81 230.142 633.47 226.61C629.13 222.976 624.084 223.683 624.084 223.683Z" fill="#FBCC9E"/>
<path d="M59.2296 318.75C59.2296 318.75 67.1015 319.456 71.4411 335.402L65.6886 335.2L59.2296 318.75Z" fill="#E9E9E9"/>
<path d="M586.037 260.115C586.037 260.115 567.569 316.631 587.148 314.613C605.515 312.796 591.083 289.079 595.726 262.033L586.037 260.115Z" fill="#FAFAFA"/>
<path d="M580.989 320.77C580.989 320.77 573.521 316.43 564.438 323.595C564.438 323.595 561.915 325.311 564.236 327.834C566.558 330.357 569.686 325.816 573.42 326.522C577.154 327.228 584.017 328.843 584.017 328.843L580.989 320.77Z" fill="#FBCC9E"/>
<path d="M613.692 315.117C615.307 315.117 616.619 314.007 616.921 312.392C618.738 301.594 626.105 264.354 638.014 265.968C651.941 267.886 629.638 328.54 629.638 328.54C629.638 328.54 608.747 332.274 582.608 329.448L580.186 319.658C580.186 319.658 602.692 315.016 613.692 315.117Z" fill="#FAFAFA"/>
<path d="M593.204 246.19C593.204 246.19 594.516 252.245 591.387 255.071C588.259 257.897 585.029 257.695 585.029 257.695C585.029 257.695 585.13 258.199 585.433 258.906C585.433 258.906 596.13 257.997 593.204 246.19Z" fill="#E8B689"/>
<path d="M405.994 341.861H400.948V345.494H405.994V341.861Z" fill="#7A7F8A"/>
<path d="M610.764 341.861H605.718V345.494H610.764V341.861Z" fill="#7A7F8A"/>
<path d="M537.294 311.082H530.33L508.027 254.566C507.219 252.547 508.834 250.327 511.054 250.327C512.366 250.327 513.678 251.135 514.082 252.346L537.294 311.082Z" fill="#998ACD"/>
<path d="M589.064 310.982H530.328V315.523H589.064V310.982Z" fill="#998ACD"/>
<path d="M21.8882 275.859C21.8882 275.859 8.97031 271.318 4.1261 286.759C-0.718121 302.2 24.2094 312.897 14.4201 324.1C6.04359 333.586 1.60306 321.375 5.84175 315.622C5.84175 315.622 -4.14944 328.036 3.92425 337.421C8.26386 342.568 15.833 343.779 21.7873 340.752C31.9803 335.504 37.0264 323.797 33.7969 312.796C32.2831 307.75 30.3656 302.805 28.0444 299.677L21.8882 275.859Z" fill="#EAA824"/>
<path d="M66.7971 329.347C63.6686 321.273 55.5949 315.117 49.7414 311.484L31.5756 317.943L23.502 324.503L37.2272 359.523C37.2272 359.523 37.0254 359.825 36.7226 360.33L67.7054 361.339C68.9165 351.449 69.4211 335.907 66.7971 329.347Z" fill="white"/>
<path d="M40.3558 387.68C40.3558 387.68 45.9064 394.442 58.7234 394.442C71.6413 394.442 89.8071 394.442 89.8071 394.442C89.8071 394.442 93.3459 428.341 95.869 472.746C95.869 472.746 101.679 473.22 106.927 472.009L111.909 390.304C112.087 387.233 112.359 384.864 111.35 382.441L110.441 380.221C109.533 378.001 108.679 376.68 106.358 376.074L64.1732 369.312L52.6682 371.028L40.3558 387.68Z" fill="#E8B689"/>
<path d="M31.2733 390.102C31.2733 390.102 36.4203 397.268 49.3382 397.268C62.2561 397.268 80.4219 397.268 80.4219 397.268C80.4219 397.268 76.4827 398.336 70.0689 412.666C62.6915 429.149 63.0657 441.427 49.3382 473.483C49.3382 473.483 52.3504 477.169 59.0112 477.169L102.826 392.625C104.037 390.607 104.138 388.185 103.331 385.964L102.322 383.34C101.414 381.12 99.496 379.405 97.1748 378.799L60.5404 369.413L38.3378 371.936L31.2733 390.102Z" fill="#FBCC9E"/>
<path d="M33.1919 297.659C33.1919 297.659 37.9352 311.788 31.5772 317.843C31.5772 317.843 42.1739 329.953 53.2753 326.623C64.9821 323.091 49.2384 310.98 49.2384 310.98L48.532 299.273L33.1919 297.659Z" fill="#FBCC9E"/>
<path d="M48.6319 301.898L37.7324 299.375C37.7324 299.375 37.8333 304.521 48.8337 305.934L48.6319 301.898Z" fill="#E8B689"/>
<path d="M22.1915 280.4C22.2924 288.171 27.2375 295.034 34.302 298.364C39.5499 300.786 46.7153 302.704 55.5964 301.795C57.7157 301.593 59.3305 299.676 59.0277 297.557C58.1194 289.685 54.0826 271.115 34.9075 269.803C24.6136 268.895 22.0906 274.547 22.1915 280.4Z" fill="#FBCC9E"/>
<path d="M31.3734 390.203L33.5937 387.881C42.2729 378.496 53.8789 372.138 66.494 369.816C66.494 369.816 67.0995 366.284 67.7051 361.339L36.7223 360.33C34.4011 364.468 25.2173 381.927 31.3734 390.203Z" fill="white"/>
<path d="M36.5219 274.244C41.6689 269.602 48.4306 274.648 48.4306 274.648C48.4306 274.648 46.0085 265.767 35.3109 265.767C24.6132 265.767 19.2644 275.556 19.2644 275.556C19.2644 275.556 14.0165 283.63 19.4662 295.538C23.7049 304.924 35.2099 304.218 36.8247 297.557C35.8155 298.162 35.2099 298.97 31.6777 296.245C27.2372 292.713 26.9344 288.373 32.9897 290.089C32.9897 290.089 31.3749 278.786 36.5219 274.244Z" fill="#FFBF2C"/>
<path d="M31.3743 390.203C31.3743 390.203 35.512 396.864 47.118 397.368C58.7239 397.772 70.5317 397.368 70.5317 397.368C70.5317 397.368 70.128 377.891 89.0002 373.349L66.3939 369.413C66.3939 369.413 43.283 372.946 31.3743 390.203Z" fill="#542AC8"/>
<path d="M79.7148 368.505C79.7148 368.505 88.8986 366.689 95.1557 372.542C101.413 378.395 90.5134 373.854 78.201 374.661L79.7148 368.505Z" fill="#FBCC9E"/>
<path d="M23.5033 324.402C23.5033 324.402 17.8517 329.549 21.9894 346.1C26.1272 362.651 37.1276 377.386 37.1276 377.386C37.1276 377.386 63.468 381.322 80.6246 375.367V368.101C80.6246 368.101 63.0644 364.165 46.816 365.982C45.4032 366.184 44.1921 365.174 43.8893 363.862L41.8709 355.183C41.77 355.284 35.7147 319.255 23.5033 324.402Z" fill="#FAFAFA"/>
<path d="M94.7668 470.606C92.9238 475.397 98.4527 481.295 99.927 487.561C100.404 487.561 101.029 487.491 102.504 487.491C101.763 485.946 99.2175 478.451 100.296 478.346C108.473 477.552 108.773 486.455 113.565 486.455C127.203 485.718 123.882 481.962 123.145 480.488C122.438 479.68 122.155 478.645 120.565 478.645C115.404 478.645 114.509 476.578 112.087 473.853C110.17 471.734 108.77 470.006 107.402 470.006C104.576 470.41 96.2411 467.288 94.7668 470.606Z" fill="white"/>
<path d="M48.4223 469.872C44.648 473.352 46.9936 481.088 45.5407 487.359C45.9681 487.57 46.8626 488.012 48.1846 488.665C48.8838 487.249 48.9388 478.877 49.9518 479.26C57.6352 482.17 53.9619 490.285 58.2581 492.407C62.327 494.861 68.9697 493.561 68.9617 491.912C68.6858 490.876 70.4822 488.072 68.2245 487.858C63.6643 487.519 64.4418 484.657 63.4768 481.141C62.696 478.392 62.818 475.638 60.0162 474.929C57.3038 474.04 51.2132 467.55 48.4223 469.872Z" fill="white"/>
<path fill-rule="evenodd" clip-rule="evenodd" d="M121.901 288.977C121.8 289.28 121.598 289.582 121.497 289.683C121.296 289.885 121.094 289.885 120.69 289.885C120.387 289.885 120.185 289.885 119.984 289.784C119.883 289.683 119.782 289.582 119.782 289.179V286.353C119.782 285.747 119.883 285.646 120.387 285.646V285.445H118.369V285.646C118.974 285.646 119.075 285.747 119.075 286.353V289.179C119.075 289.784 118.974 289.885 118.369 289.885V290.087H121.8C121.901 289.885 122.002 289.179 122.103 288.977H121.901ZM115.846 288.17H114.534C114.736 287.564 114.938 286.958 115.24 286.353L115.846 288.17ZM117.763 290.087V289.885C117.259 289.885 117.158 289.784 116.956 289.078C116.451 287.867 116.048 286.555 115.543 285.243L115.24 285.344L113.726 289.078C113.424 289.683 113.323 289.784 112.919 289.885V290.087H114.534V289.885C113.928 289.784 113.928 289.784 114.029 289.28C114.13 288.977 114.231 288.674 114.332 288.371H115.947C116.149 288.775 116.249 289.179 116.35 289.381C116.451 289.683 116.35 289.784 115.947 289.784V289.986H117.763V290.087ZM112.818 286.555C112.818 286.151 112.717 285.546 112.717 285.243H112.515C112.414 285.344 112.314 285.445 112.112 285.445H109.084C108.882 285.445 108.781 285.445 108.68 285.243H108.479C108.479 285.646 108.479 286.151 108.378 286.555H108.579C108.68 286.252 108.781 286.05 108.781 285.848C108.882 285.747 108.983 285.646 109.69 285.646H110.093V289.179C110.093 289.784 109.992 289.784 109.387 289.885V290.087H111.607V289.885C110.901 289.885 110.8 289.784 110.8 289.179V285.646H111.304C111.91 285.646 112.011 285.747 112.112 285.848C112.213 285.949 112.314 286.151 112.314 286.555H112.818ZM107.873 290.087V289.885C107.267 289.885 107.167 289.784 107.167 289.179V286.353C107.167 285.747 107.267 285.646 107.873 285.646V285.445H105.855V285.646C106.46 285.646 106.561 285.747 106.561 286.353V289.179C106.561 289.784 106.46 289.885 105.855 289.885V290.087H107.873ZM102.726 286.151C102.726 285.949 102.726 285.848 102.827 285.848C102.928 285.747 103.029 285.747 103.231 285.747C103.836 285.747 104.341 286.05 104.341 286.858C104.341 287.766 103.735 288.069 103.332 288.069C103.13 288.069 102.928 287.968 102.827 287.968V286.151H102.726ZM101.515 285.445V285.646C102.02 285.646 102.121 285.747 102.121 286.353V289.179C102.121 289.784 102.02 289.784 101.515 289.885V290.087H103.533V289.885C102.827 289.885 102.827 289.784 102.827 289.179V288.069L103.332 288.17C103.432 288.17 103.533 288.17 103.634 288.17C104.341 288.069 105.047 287.665 105.047 286.656C105.047 286.151 104.845 285.848 104.543 285.646C104.24 285.445 103.836 285.344 103.332 285.344H101.515V285.445ZM98.7901 288.17H97.4781C97.68 287.564 97.8818 286.958 98.1846 286.353L98.7901 288.17ZM100.809 290.087V289.885C100.304 289.885 100.203 289.784 100.001 289.078C99.4966 287.867 99.0929 286.555 98.5883 285.243L98.2855 285.344L96.7717 289.078C96.4689 289.683 96.368 289.784 95.9643 289.885V290.087H97.5791V289.885C96.9735 289.784 96.9735 289.784 97.0745 289.28C97.1754 288.977 97.2763 288.674 97.3772 288.371H98.992C99.1938 288.775 99.2947 289.179 99.3956 289.381C99.4966 289.683 99.3956 289.784 98.992 289.784V289.986H100.809V290.087ZM95.6616 288.775C95.2579 289.481 94.8542 289.885 94.0468 289.885C92.9367 289.885 92.0284 288.977 92.0284 287.665C92.0284 286.555 92.7348 285.546 93.9459 285.546C94.7533 285.546 95.2579 285.848 95.4597 286.656H95.6616C95.6616 286.252 95.5606 285.949 95.4597 285.546C95.2579 285.546 94.7533 285.344 94.0468 285.344C92.3312 285.344 91.1201 286.353 91.1201 287.867C91.1201 288.977 91.9275 290.289 93.845 290.289C94.3496 290.289 95.056 290.087 95.2579 290.087C95.3588 289.885 95.5606 289.28 95.6616 288.977V288.775Z" fill="#542AC8"/>
<path fill-rule="evenodd" clip-rule="evenodd" d="M118.269 280.095V277.875C118.269 277.673 118.269 277.572 118.37 277.572C118.471 277.471 118.572 277.471 118.774 277.471C119.278 277.471 119.884 277.875 119.884 278.783C119.884 279.288 119.783 279.591 119.48 279.893C119.278 280.095 118.976 280.095 118.572 280.095H118.269ZM122.104 282.719C121.902 282.618 121.7 282.517 121.499 282.316C121.297 282.114 121.095 281.811 120.792 281.306C120.489 280.903 120.187 280.297 119.985 279.994C120.59 279.793 121.196 279.288 121.196 278.481C121.196 277.875 120.893 277.471 120.59 277.27C120.187 276.967 119.682 276.967 118.875 276.967H116.251V277.27C116.957 277.37 117.058 277.471 117.058 278.178V281.71C117.058 282.517 116.957 282.517 116.251 282.618V282.921H119.076V282.618C118.37 282.517 118.269 282.416 118.269 281.71V280.398H118.471C118.774 280.398 118.976 280.499 119.076 280.802C119.379 281.306 119.581 281.811 119.884 282.215C120.287 282.82 120.59 283.022 121.801 283.123C121.902 283.123 122.003 283.123 122.003 283.123L122.104 282.719ZM113.223 283.022V282.719C112.517 282.618 112.416 282.618 112.416 281.811V278.178C112.416 277.37 112.517 277.37 113.223 277.27V276.967H110.397V277.27C111.104 277.37 111.205 277.37 111.205 278.178V281.71C111.205 282.517 111.104 282.517 110.397 282.618V282.921H113.223V283.022ZM107.37 283.022V282.719C106.562 282.618 106.562 282.517 106.562 281.71L106.461 278.279C106.461 277.471 106.461 277.37 107.269 277.37V277.068H105.351L103.434 281.105L101.617 277.068H99.6996V277.37C100.507 277.471 100.608 277.572 100.507 278.682L100.406 280.499C100.305 281.508 100.305 282.013 100.204 282.316C100.103 282.618 100.002 282.82 99.3968 282.82V283.123H101.718V282.82C101.112 282.719 100.911 282.719 100.81 282.316C100.81 282.013 100.81 281.609 100.81 280.802L100.911 278.38L102.828 283.123H103.131L105.25 278.279H105.351V281.811C105.351 282.618 105.351 282.719 104.645 282.82V283.123H107.37V283.022ZM94.8554 280.499H93.3415C93.5434 279.893 93.8461 279.187 94.048 278.481L94.8554 280.499ZM97.6812 283.022V282.719C97.0756 282.618 96.9747 282.517 96.6719 281.71C96.0664 280.095 95.4609 278.481 94.8554 276.866L94.3508 276.967L92.4332 281.71C92.1305 282.517 92.0296 282.618 91.3231 282.719V283.022H93.4425V282.719C92.736 282.618 92.736 282.517 92.8369 282.114C92.9379 281.71 93.0388 281.407 93.1397 281.105H94.9563C95.1581 281.508 95.259 281.912 95.36 282.215C95.4609 282.618 95.4609 282.719 94.8554 282.82V283.123H97.6812V283.022Z" fill="#542AC8"/>
<path fill-rule="evenodd" clip-rule="evenodd" d="M110.598 257.391L107.57 260.216L109.589 264.96L106.763 261.932L103.937 264.96L105.855 260.216L102.827 257.391L106.763 259.409L110.598 257.391ZM131.388 293.52L129.369 289.988L124.323 290.796L127.856 288.676L125.534 285.245L129.672 288.172L133.104 285.85L130.379 289.282L131.388 293.52ZM132.902 289.887C133.003 289.383 132.7 288.878 132.195 288.777C131.691 288.676 131.186 288.979 131.085 289.484C130.984 289.988 131.287 290.493 131.792 290.594C132.195 290.695 132.7 290.291 132.902 289.887ZM133.204 285.75L130.984 282.015L132.7 277.979L130.076 281.208L125.232 279.593L128.461 282.217L125.635 285.245L130.177 282.924L133.204 285.75ZM133.507 281.814C133.507 282.318 133.204 282.722 132.599 282.823C132.094 282.823 131.691 282.52 131.59 281.915C131.59 281.41 131.892 281.006 132.498 280.905C133.003 280.905 133.507 281.309 133.507 281.814ZM132.599 277.777L128.865 275.96L125.131 279.492L126.846 275.758L123.011 274.245L128.158 274.345L129.672 270.51L129.269 274.85L132.599 277.777ZM131.691 273.942C131.489 273.437 130.984 273.235 130.48 273.437C129.975 273.639 129.773 274.144 129.975 274.648C130.177 275.153 130.681 275.355 131.186 275.153C131.691 274.951 131.892 274.345 131.691 273.942ZM129.672 270.208L125.736 268.391L124.828 264.152L124.525 268.29L119.681 269.703L120.69 264.657L124.727 264.051L120.387 263.446L118.268 259.611L119.176 263.648L114.938 266.474L118.975 265.565L119.681 269.602L123.718 269.905L123.112 274.043L125.534 269.501L129.672 270.208ZM127.654 266.877C127.957 267.281 127.957 267.887 127.553 268.189C127.149 268.492 126.544 268.492 126.241 268.088C125.938 267.685 125.938 267.079 126.342 266.776C126.745 266.373 127.351 266.474 127.654 266.877ZM121.8 261.428C122.204 261.73 122.305 262.336 122.002 262.74C121.699 263.143 121.094 263.244 120.69 262.941C120.287 262.639 120.186 262.033 120.488 261.629C120.791 261.327 121.397 261.226 121.8 261.428ZM118.167 259.611L113.828 260.317L110.699 257.29L112.717 260.822L109.488 264.758L113.02 262.74L114.837 266.474L114.332 261.327L118.167 259.611ZM114.534 257.996C115.039 258.097 115.341 258.703 115.14 259.106C115.039 259.611 114.433 259.914 114.029 259.712C113.525 259.611 113.222 259.005 113.424 258.602C113.525 258.097 114.13 257.794 114.534 257.996ZM80.019 285.548L83.4503 287.869L87.5881 284.942L83.0466 282.621L80.019 285.548L82.2393 281.713L80.6245 277.676L83.1475 280.905L87.9918 279.291L84.7623 281.915L87.4872 284.942L85.166 288.373L88.6982 290.493L83.6521 289.585L81.5328 293.117L82.6429 288.878L80.019 285.548ZM80.3217 289.484C80.4227 289.988 80.9273 290.291 81.4319 290.19C81.9365 290.089 82.2392 289.585 82.1383 289.08C82.0374 288.575 81.5328 288.273 81.0282 288.373C80.6245 288.474 80.2208 288.979 80.3217 289.484ZM79.8171 281.612C79.8171 282.116 80.1199 282.52 80.6245 282.621C81.1291 282.722 81.5328 282.318 81.6337 281.814C81.6337 281.309 81.331 280.905 80.8264 280.804C80.3217 280.703 79.8171 281.006 79.8171 281.612ZM83.5512 270.309L83.9549 274.648L80.7254 277.575L84.4595 275.859L88.0927 279.392L86.377 275.657L90.212 274.144L89.6065 270.107L93.7443 269.804L88.7991 268.391L88.4964 264.253L87.5881 268.492L83.5512 270.309L87.689 269.602L90.212 274.043L85.166 274.144L83.5512 270.309ZM81.6337 273.74C81.8356 273.235 82.3402 273.033 82.8448 273.235C83.3494 273.437 83.5512 273.942 83.3494 274.446C83.1475 274.951 82.6429 275.153 82.1383 274.951C81.7346 274.749 81.4319 274.245 81.6337 273.74ZM85.6706 266.877C85.9733 266.474 86.5789 266.373 86.9825 266.776C87.3862 267.079 87.4872 267.685 87.0835 268.088C86.7807 268.492 86.1752 268.593 85.7715 268.189C85.3678 267.887 85.3678 267.281 85.6706 266.877ZM95.0562 259.712L94.148 263.749L98.4876 266.575L94.4507 265.666L93.8452 269.703L92.7351 264.758L88.6982 264.152L93.0378 263.547L95.0562 259.712ZM91.524 261.428C91.1203 261.73 91.0194 262.336 91.3222 262.74C91.6249 263.143 92.2305 263.244 92.6341 262.941C93.0378 262.639 93.1387 262.033 92.836 261.629C92.5332 261.327 91.9277 261.226 91.524 261.428ZM102.625 257.391L99.4968 260.418L95.1572 259.712L98.8912 261.528L98.4876 266.575L100.304 262.84L103.937 264.859L100.708 260.923L102.625 257.391ZM98.7903 257.996C98.2857 258.097 97.983 258.703 98.1848 259.106C98.2857 259.611 98.8912 259.914 99.2949 259.712C99.7995 259.611 100.102 259.005 99.9005 258.602C99.7995 258.097 99.194 257.794 98.7903 257.996ZM106.662 256.785C106.158 256.785 105.754 257.189 105.754 257.693C105.754 258.198 106.158 258.602 106.662 258.602C107.167 258.602 107.57 258.198 107.57 257.693C107.57 257.189 107.167 256.785 106.662 256.785Z" fill="#542AC8"/>
<path d="M124.424 293.722H88.8993C88.7984 293.722 88.6975 293.621 88.6975 293.52C88.6975 293.419 88.7984 293.318 88.8993 293.318H124.424C124.525 293.318 124.625 293.419 124.625 293.52C124.625 293.621 124.525 293.722 124.424 293.722Z" fill="#542AC8"/>
<path d="M119.582 297.153H93.8466C93.7457 297.153 93.6448 297.052 93.6448 296.951C93.6448 296.85 93.7457 296.749 93.8466 296.749H119.582C119.682 296.749 119.783 296.85 119.783 296.951C119.783 297.052 119.682 297.153 119.582 297.153Z" fill="#542AC8"/>
</svg>
