<svg width="41" height="41" viewBox="0 0 41 41" fill="none" xmlns="http://www.w3.org/2000/svg">
<rect x="-0.5" y="0.5" width="39" height="39" rx="19.5" transform="matrix(-1 0 0 1 39.756 0.164551)" stroke="white"/>
<path d="M26.3677 21.0289C25.8501 21.5063 25.0109 21.5063 24.4933 21.0289L17.1442 14.2512C16.6266 13.7739 16.6266 12.9999 17.1442 12.5226C17.6618 12.0452 18.501 12.0452 19.0186 12.5226L26.3677 19.3003C26.8854 19.7776 26.8854 20.5515 26.3677 21.0289Z" fill="white"/>
<path d="M26.3677 19.3003C26.8854 19.7776 26.8854 20.5515 26.3677 21.0289L19.0186 27.8065C18.501 28.2839 17.6618 28.2839 17.1442 27.8065C16.6266 27.3292 16.6266 26.5552 17.1442 26.0779L24.4933 19.3003C25.0109 18.8229 25.8501 18.8229 26.3677 19.3003Z" fill="white"/>
</svg>
