<svg width="292" height="217" viewBox="0 0 292 217" fill="none" xmlns="http://www.w3.org/2000/svg">
<path d="M177.195 164.465C177.413 164.465 177.631 164.422 177.806 164.291C178.33 163.941 178.461 163.286 178.112 162.762L154.479 126.941C154.129 126.417 153.474 126.286 152.95 126.635C152.426 126.984 152.295 127.64 152.644 128.164L176.277 163.985C176.496 164.334 176.845 164.465 177.195 164.465Z" fill="#DFDCE9"/>
<path d="M128.968 164.465C129.317 164.465 129.666 164.291 129.885 163.985L153.518 128.164C153.867 127.64 153.693 126.984 153.212 126.635C152.688 126.285 152.033 126.46 151.683 126.941L128.05 162.762C127.701 163.286 127.875 163.941 128.356 164.291C128.531 164.422 128.749 164.465 128.968 164.465Z" fill="#DFDCE9"/>
<path d="M87.7297 131.746H210.919C214.894 131.746 218.127 128.513 218.127 124.538V19.0408C218.127 15.0655 214.894 11.8329 210.919 11.8329H87.686C83.7107 11.8329 80.4781 15.0655 80.4781 19.0408V124.538C80.4781 128.513 83.7107 131.746 87.7297 131.746Z" fill="#542AC8"/>
<path d="M93.0587 132.969H213.627C217.515 132.969 220.703 129.823 220.703 125.892V22.9285C220.703 19.0406 217.558 15.8517 213.627 15.8517H93.0587C89.1708 15.8517 85.9819 18.9969 85.9819 22.9285V125.936C85.9819 129.78 89.1708 132.969 93.0587 132.969Z" fill="#F8F8FB"/>
<path d="M101.708 77.097H143.164L133.466 15.983H95.4611V70.8502C95.4174 74.3013 98.2568 77.097 101.708 77.097Z" fill="#542AC8"/>
<path d="M131.85 121.873H209.215C209.826 121.873 210.307 121.392 210.307 120.781C210.307 120.169 209.826 119.688 209.215 119.688H131.85C131.238 119.688 130.758 120.169 130.758 120.781C130.758 121.392 131.238 121.873 131.85 121.873Z" fill="white"/>
<path d="M131.85 127.158H209.215C209.826 127.158 210.307 126.678 210.307 126.066C210.307 125.455 209.826 124.974 209.215 124.974H131.85C131.238 124.974 130.758 125.455 130.758 126.066C130.758 126.678 131.238 127.158 131.85 127.158Z" fill="white"/>
<path d="M146.791 114.403H205.677C207.249 114.403 208.516 113.136 208.516 111.563V86.7508C208.516 85.1782 207.249 83.9114 205.677 83.9114H146.791C145.218 83.9114 143.951 85.1782 143.951 86.7508V111.563C143.951 113.092 145.218 114.403 146.791 114.403Z" fill="#542AC8"/>
<path d="M148.581 112.481H207.467C209.04 112.481 210.307 111.214 210.307 109.641V84.8287C210.307 83.2561 209.04 81.9893 207.467 81.9893H148.581C147.008 81.9893 145.742 83.2561 145.742 84.8287V109.641C145.742 111.17 147.008 112.481 148.581 112.481Z" fill="white"/>
<path d="M200.303 107.282H203.317C203.929 107.282 204.453 106.758 204.453 106.146V90.7695C204.453 90.1579 203.929 89.6337 203.317 89.6337H200.303C199.691 89.6337 199.167 90.1579 199.167 90.7695V106.146C199.123 106.802 199.648 107.282 200.303 107.282Z" fill="#F26A08"/>
<path d="M192.309 107.282H195.323C195.935 107.282 196.459 106.758 196.459 106.147V94.9635C196.459 94.352 195.935 93.8278 195.323 93.8278H192.309C191.697 93.8278 191.173 94.352 191.173 94.9635V106.19C191.173 106.802 191.654 107.282 192.309 107.282Z" fill="#FFA32A"/>
<path d="M184.315 107.283H187.329C187.941 107.283 188.465 106.759 188.465 106.147V100.643C188.465 100.032 187.941 99.5073 187.329 99.5073H184.315C183.704 99.5073 183.179 100.032 183.179 100.643V106.147C183.179 106.803 183.704 107.283 184.315 107.283Z" fill="#FFA32A"/>
<path d="M176.321 107.282H179.335C179.947 107.282 180.471 106.758 180.471 106.147V89.5466C180.471 88.935 179.947 88.4108 179.335 88.4108H176.321C175.709 88.4108 175.185 88.935 175.185 89.5466V106.147C175.185 106.802 175.709 107.282 176.321 107.282Z" fill="#F26A08"/>
<path d="M151.595 107.282H154.61C155.221 107.282 155.745 106.758 155.745 106.147V89.5466C155.745 88.935 155.221 88.4108 154.61 88.4108H151.595C150.984 88.4108 150.46 88.935 150.46 89.5466V106.147C150.46 106.802 150.984 107.282 151.595 107.282Z" fill="#F26A08"/>
<path d="M174.749 108.679H206.157C206.288 108.679 206.376 108.592 206.376 108.461C206.376 108.33 206.288 108.243 206.157 108.243H174.749C174.618 108.243 174.53 108.33 174.53 108.461C174.53 108.592 174.618 108.679 174.749 108.679Z" fill="#BCB9C8"/>
<path d="M174.836 87.3188H192.615C192.746 87.3188 192.833 87.2314 192.833 87.1004C192.833 86.9693 192.746 86.882 192.615 86.882H174.836C174.704 86.882 174.617 86.9693 174.617 87.1004C174.617 87.2314 174.748 87.3188 174.836 87.3188Z" fill="#BCB9C8"/>
<path d="M174.836 84.8721H192.615C192.746 84.8721 192.833 84.7848 192.833 84.6537C192.833 84.5227 192.746 84.4353 192.615 84.4353H174.836C174.704 84.4353 174.617 84.5227 174.617 84.6537C174.617 84.7848 174.748 84.8721 174.836 84.8721Z" fill="#BCB9C8"/>
<path d="M150.678 64.647H171.647C174.486 64.647 176.758 62.3754 176.758 59.5359V38.5676C176.758 35.7281 174.486 33.4565 171.647 33.4565H150.678C147.839 33.4565 145.567 35.7281 145.567 38.5676V59.5359C145.567 62.3317 147.839 64.647 150.678 64.647Z" fill="#542AC8"/>
<path d="M151.901 63.7301H172.869C175.709 63.7301 177.98 61.4585 177.98 58.6191V37.6507C177.98 34.8112 175.709 32.5397 172.869 32.5397H151.901C149.061 32.5397 146.79 34.8112 146.79 37.6507V58.6191C146.79 61.4148 149.061 63.7301 151.901 63.7301Z" fill="#ECEAF4"/>
<path d="M152.076 46.0373H172.738C173.918 46.0373 174.922 45.0762 174.922 43.8531V41.1884C174.922 40.0089 173.961 39.0042 172.738 39.0042H152.076C150.896 39.0042 149.892 39.9652 149.892 41.1884V43.8531C149.892 45.0762 150.853 46.0373 152.076 46.0373Z" fill="#F6F5FA"/>
<path d="M152.076 57.0459H172.738C173.918 57.0459 174.922 56.0849 174.922 54.8617V52.197C174.922 51.0176 173.961 50.0128 172.738 50.0128H152.076C150.896 50.0128 149.892 50.9739 149.892 52.197V54.8617C149.892 56.0849 150.853 57.0459 152.076 57.0459Z" fill="#F6F5FA"/>
<path d="M155.658 46.0377C153.728 46.0377 152.164 44.473 152.164 42.5429C152.164 40.6129 153.728 39.0482 155.658 39.0482C157.589 39.0482 159.153 40.6129 159.153 42.5429C159.153 44.473 157.589 46.0377 155.658 46.0377Z" fill="#BCB9C8"/>
<path d="M163.653 57.0895C161.723 57.0895 160.158 55.5249 160.158 53.5948C160.158 51.6647 161.723 50.1001 163.653 50.1001C165.583 50.1001 167.148 51.6647 167.148 53.5948C167.148 55.5249 165.583 57.0895 163.653 57.0895Z" fill="#BCB9C8"/>
<path d="M104.022 75.7424H136.479C140.149 75.7424 143.119 72.7719 143.119 69.1024V11.5268C143.119 7.85736 140.149 4.88684 136.479 4.88684H104.022C100.353 4.88684 97.382 7.85736 97.382 11.5268V69.0587C97.382 72.7282 100.353 75.7424 104.022 75.7424Z" fill="white"/>
<path d="M137.003 13.9735C135.387 13.9735 134.076 12.6632 134.076 11.0467C134.076 9.43026 135.387 8.11987 137.003 8.11987C138.62 8.11987 139.93 9.43026 139.93 11.0467C139.93 12.6632 138.62 13.9735 137.003 13.9735Z" fill="#542AC8"/>
<path d="M122.238 10.0418H132.285C132.416 10.0418 132.504 9.95445 132.504 9.8234C132.504 9.69235 132.416 9.60498 132.285 9.60498H122.238C122.107 9.60498 122.02 9.69235 122.02 9.8234C122.02 9.95445 122.151 10.0418 122.238 10.0418Z" fill="#ECEAF4"/>
<path d="M111.23 12.0513H132.329C132.46 12.0513 132.547 11.964 132.547 11.8329C132.547 11.7019 132.46 11.6145 132.329 11.6145H111.23C111.099 11.6145 111.011 11.7019 111.011 11.8329C111.011 11.964 111.099 12.0513 111.23 12.0513Z" fill="#ECEAF4"/>
<path d="M101.007 67.9669H122.107C122.238 67.9669 122.325 67.8795 122.325 67.7484C122.325 67.6174 122.238 67.53 122.107 67.53H101.007C100.876 67.53 100.789 67.6174 100.789 67.7484C100.789 67.8795 100.876 67.9669 101.007 67.9669Z" fill="#ECEAF4"/>
<path d="M101.007 71.1124H122.107C122.238 71.1124 122.325 71.025 122.325 70.894C122.325 70.7629 122.238 70.6755 122.107 70.6755H101.007C100.876 70.6755 100.789 70.7629 100.789 70.894C100.789 71.025 100.876 71.1124 101.007 71.1124Z" fill="#ECEAF4"/>
<path d="M136.129 48.3091C136.26 48.3091 136.348 48.2217 136.348 48.0907V22.055C136.348 21.9239 136.26 21.8365 136.129 21.8365C135.998 21.8365 135.911 21.9239 135.911 22.055V48.0907C135.911 48.178 135.998 48.3091 136.129 48.3091Z" fill="#00407A"/>
<path d="M134.731 45.0333H137.483C137.877 45.0333 138.182 44.7275 138.182 44.3344V25.8123C138.182 25.4192 137.877 25.1134 137.483 25.1134H134.688C134.294 25.1134 133.989 25.4192 133.989 25.8123V44.2907C133.989 44.7275 134.338 45.0333 134.731 45.0333Z" fill="#7038E4"/>
<path d="M109.002 34.5048H109.046C109.133 34.5048 109.22 34.4174 109.22 34.33V14.7159C109.22 14.6285 109.133 14.5411 109.046 14.5411H109.002C108.915 14.5411 108.827 14.6285 108.827 14.7159V34.33C108.827 34.4611 108.915 34.5048 109.002 34.5048Z" fill="#00407A"/>
<path d="M107.473 30.0494H110.574C110.88 30.0494 111.142 29.7873 111.142 29.4815V18.3421C111.142 18.0363 110.88 17.7742 110.574 17.7742H107.473C107.167 17.7742 106.905 18.0363 106.905 18.3421V29.4815C106.905 29.831 107.167 30.0494 107.473 30.0494Z" fill="#542AC8"/>
<path d="M103.453 34.5048H103.497C103.585 34.5048 103.672 34.4174 103.672 34.33V14.7159C103.672 14.6285 103.585 14.5411 103.497 14.5411H103.453C103.366 14.5411 103.279 14.6285 103.279 14.7159V34.33C103.235 34.4611 103.322 34.5048 103.453 34.5048Z" fill="#00407A"/>
<path d="M101.881 30.0494H104.982C105.288 30.0494 105.55 29.7873 105.55 29.4815V18.3421C105.55 18.0363 105.288 17.7742 104.982 17.7742H101.881C101.575 17.7742 101.313 18.0363 101.313 18.3421V29.4815C101.313 29.831 101.575 30.0494 101.881 30.0494Z" fill="#542AC8"/>
<path d="M116.428 64.7345C116.559 64.7345 116.647 64.6471 116.647 64.5161V17.9052C116.647 17.7741 116.559 17.6868 116.428 17.6868C116.297 17.6868 116.21 17.7741 116.21 17.9052V64.5161C116.21 64.6471 116.297 64.7345 116.428 64.7345Z" fill="#00407A"/>
<path d="M115.117 49.8382H117.65C118.131 49.8382 118.48 49.445 118.48 49.0082V23.4093C118.48 22.9288 118.087 22.5793 117.65 22.5793H115.117C114.636 22.5793 114.287 22.9725 114.287 23.4093V49.0082C114.287 49.445 114.68 49.8382 115.117 49.8382Z" fill="#8C46FF"/>
<path d="M130.232 64.385C130.363 64.385 130.45 64.2976 130.45 64.1665V20.5262C130.45 20.3951 130.363 20.3077 130.232 20.3077C130.101 20.3077 130.013 20.3951 130.013 20.5262V64.1665C130.057 64.2539 130.144 64.385 130.232 64.385Z" fill="#00407A"/>
<path d="M129.009 61.589H131.455C131.936 61.589 132.329 61.1958 132.329 60.7153V32.1459C132.329 31.6654 131.936 31.2722 131.455 31.2722H129.009C128.528 31.2722 128.135 31.6654 128.135 32.1459V60.7153C128.135 61.1958 128.528 61.589 129.009 61.589Z" fill="#7038E4"/>
<path d="M123.592 64.385C123.723 64.385 123.81 64.2976 123.81 64.1665V20.5262C123.81 20.3951 123.723 20.3077 123.592 20.3077C123.461 20.3077 123.374 20.3951 123.374 20.5262V64.1665C123.374 64.2539 123.505 64.385 123.592 64.385Z" fill="#00407A"/>
<path d="M122.368 61.589H124.815C125.295 61.589 125.688 61.1958 125.688 60.7153V32.1459C125.688 31.6654 125.295 31.2722 124.815 31.2722H122.368C121.888 31.2722 121.495 31.6654 121.495 32.1459V60.7153C121.451 61.1958 121.888 61.589 122.368 61.589Z" fill="#8C46FF"/>
<path d="M242.414 90.6824C239.312 90.6824 236.778 88.1487 236.778 85.0471C236.778 81.9455 239.312 79.4119 242.414 79.4119C245.515 79.4119 248.049 81.9455 248.049 85.0471C248.136 88.1487 245.559 90.6824 242.414 90.6824Z" fill="#F1E9FF" fill-opacity="0.15"/>
<path d="M170.99 164.378C170.99 164.378 174.222 163.373 174.222 168.353C174.222 173.333 175.01 173.643 170.224 173.643C167.123 173.643 167.382 172.001 167.671 169.176C167.917 166.768 167.492 163.856 170.99 164.378Z" fill="white"/>
<path d="M170.542 117.483C170.542 117.483 160.651 129.608 156.574 133.056C155.7 134.498 155.438 136.245 155.918 137.905C157.142 142.361 159.151 151.84 158.408 162.805H153.297L146.92 136.333C146.657 135.197 146.745 133.974 147.138 132.838L156.661 107.064L170.542 117.483Z" fill="#A168FF"/>
<path d="M162.691 120.214L156.488 109.249L161.773 111.302L162.691 120.214Z" fill="#6231D6"/>
<path d="M174.922 110.952L172.694 135.153C172.607 136.158 172.607 137.163 172.738 138.167C173.393 142.798 174.616 158.437 173.437 165.339H168.588C168.588 165.339 163.782 149.438 164.438 137.032C165.093 124.625 159.458 109.161 159.458 109.161L174.922 110.952Z" fill="#CCAFFF"/>
<path d="M172.607 113.53C172.607 113.53 159.196 113.53 154.697 107.895L161.511 70.5886L169.418 72.5107L172.607 113.53Z" fill="white"/>
<path d="M171.165 69.8021C171.165 69.8021 175.664 72.1611 176.713 74.9568C177.761 77.7526 177.106 110.341 175.795 117.199L162.559 105.71L166.054 73.1658L171.165 69.8021Z" fill="#6231D6"/>
<path d="M139.887 63.2501L136.218 58.5323C136.218 58.5323 136.392 56.1733 135.344 55.1249C134.295 54.0765 134.077 54.4696 133.029 53.727C131.936 52.9844 130.844 51.6739 130.276 51.8923C129.709 52.1544 131.849 54.0765 131.805 54.5133C131.762 54.9502 130.189 57.3965 130.801 58.1828C131.369 58.9691 131.893 59.6244 132.898 60.1486C133.902 60.6728 136.086 64.6043 136.086 64.6043L139.887 63.2501Z" fill="#FBCC9E"/>
<path d="M134.571 62.6262L138.316 60.4639L140.304 63.9064L136.559 66.0688L134.571 62.6262Z" fill="#FFA32A"/>
<path d="M139.626 62.1141L135.257 64.9536L142.465 77.0104C142.858 77.6657 143.47 78.0588 144.212 78.1899L157.449 80.2867C157.449 80.2867 160.419 69.9336 160.288 69.9773C160.201 70.021 151.901 71.6373 148.319 72.2925C147.358 72.4673 146.353 72.0741 145.785 71.2441L139.626 62.1141Z" fill="#8C46FF"/>
<path d="M164.044 69.1033C164.044 69.1033 161.379 68.8411 160.375 69.9332C159.37 71.0254 156.181 77.4032 156.006 88.5427C155.832 99.7258 153.778 109.598 153.778 109.598L160.331 104.749L164.044 69.1033Z" fill="#6231D6"/>
<path d="M167.54 65.3901C167.54 65.3901 169.746 67.386 171.182 65.1524C171.881 61.745 175.406 61.9785 174.532 57.6537C173.659 53.329 168.623 51.0364 166.395 51.9101C164.124 52.7838 165.119 50.9528 164.307 50.6686C164.307 50.6686 161.075 52.9838 164.701 55.5175C168.37 58.1386 167.54 65.3901 167.54 65.3901Z" fill="#113655"/>
<path d="M169.287 64.0793C169.287 64.0793 168.981 67.7488 170.467 69.933C170.467 69.933 167.715 73.6025 164.875 72.8598C163.302 72.4667 163.843 72.0126 163.843 70.8958C164.002 69.9385 164.001 69.1467 163.477 68.4041C163.171 67.9672 162.822 67.443 162.516 66.9625C161.511 65.5646 169.287 64.0793 169.287 64.0793Z" fill="#FBCC9E"/>
<path d="M169.243 64.2109C169.243 64.2109 166.491 68.2299 163.477 68.4046L162.691 67.2251L169.243 64.2109Z" fill="#E8B689"/>
<path d="M164.613 55.5614C164.613 55.5614 161.686 60.4977 160.594 64.8661C160.463 65.4777 160.594 66.0893 161.031 66.5261C161.599 67.094 162.603 67.7056 164.22 67.5309C167.147 67.1814 169.243 64.2109 169.243 64.2109C169.243 64.2109 170.467 65.0846 171.297 63.3372C171.821 62.2451 171.69 61.5025 170.729 61.1093C169.768 60.7161 168.719 62.5509 168.719 62.5509L167.977 61.3714C167.977 61.3714 170.292 58.1388 168.501 56.6535C166.666 55.2993 164.613 55.5614 164.613 55.5614Z" fill="#FBCC9E"/>
<path d="M182.916 91.5136L160.463 81.5973L154.434 96.0567L176.364 106.454L182.916 91.5136Z" fill="white"/>
<path d="M160.463 88.4117C160.463 88.4117 158.715 85.3538 157.536 86.3148C156.313 87.2759 155.352 90.028 158.41 90.9017C161.511 91.819 160.463 88.4117 160.463 88.4117Z" fill="#FBCC9E"/>
<path d="M160.463 81.5526L168.937 95.2694L182.916 91.5126L168.064 97.0168L159.72 83.3L160.463 81.5526Z" fill="#A1B1BA"/>
<path d="M160.288 87.7128L171.383 91.6443L170.16 80.0244C170.073 79.2381 169.898 78.4518 169.68 77.6654C169.243 76.3112 168.937 73.7339 172.126 72.6418C176.538 71.1128 177.368 75.6123 177.368 75.6123C178.373 81.8154 178.984 91.7754 179.203 96.6243C179.29 98.2406 177.849 99.5512 176.058 99.4638C171.558 99.2454 163.477 97.8038 158.191 90.9454L160.288 87.7128Z" fill="#8C46FF"/>
<path d="M169.426 165.507H172.615C173.096 165.507 173.349 166.169 173.349 165.689V162.893H168.369V165.689C168.413 166.169 168.946 165.507 169.426 165.507Z" fill="#FBCC9E"/>
<path d="M153.254 159.922H158.147V164.815H153.254V159.922Z" fill="#FBCC9E"/>
<path d="M171.165 69.8025L171.209 68.6667L166.491 71.812L165.967 73.3846L166.491 73.6467L171.078 71.3315L171.165 69.8025Z" fill="#582CBF"/>
<path d="M163.607 72.9912L163.433 69.8459L162.384 72.2486L163.607 72.9912Z" fill="#582CBF"/>
<path d="M169.426 137.107C169.426 137.107 165.757 139.357 164.437 136.376C164.437 136.376 164.306 138.124 164.394 138.604C164.437 139.085 167.897 140.82 169.426 137.107Z" fill="#6231D6"/>
<path d="M167.495 162.325H174.048V165.296H167.495V162.325Z" fill="#6231D6"/>
<path d="M152.468 159.835H159.021V162.806H152.468V159.835Z" fill="#6231D6"/>
<path d="M158.258 164.869C158.258 164.869 158.369 169.017 158.258 169.974C154.748 170.134 143.74 169.974 143.74 169.974C143.74 169.974 143.354 167.972 144.059 167.581C146.626 166.154 149.317 166.863 151.557 164.709C152.431 163.835 153.046 163.446 154.27 163.752C155.449 164.014 158.258 164.869 158.258 164.869Z" fill="white"/>
<path d="M80.2136 20.8315C75.123 20.8315 70.9962 16.7048 70.9962 11.6142C70.9962 6.52359 75.123 2.39685 80.2136 2.39685C85.3042 2.39685 89.4309 6.52359 89.4309 11.6142C89.4309 16.7048 85.3042 20.8315 80.2136 20.8315Z" fill="#CCAFFF"/>
<path d="M74.5246 11.4835C75.5731 12.8377 77.102 14.8472 78.2815 16.6382C78.7183 17.2935 79.6794 17.2498 80.0725 16.5945C82.213 12.8814 87.8483 3.66406 92.2167 1.17407C92.2167 1.17407 83.3925 1.96039 79.1988 11.6582L77.5388 9.25563C76.9273 8.38194 75.7041 8.20721 74.8741 8.86247C74.0441 9.47405 73.9131 10.6535 74.5246 11.4835Z" fill="white"/>
<path d="M80.7389 36.0339C78.4711 36.0339 76.6326 34.1954 76.6326 31.9276C76.6326 29.6597 78.4711 27.8213 80.7389 27.8213C83.0068 27.8213 84.8452 29.6597 84.8452 31.9276C84.8452 34.1954 83.0068 36.0339 80.7389 36.0339Z" fill="#CCAFFF"/>
<path d="M80.7396 49.0513C79.0508 49.0513 77.6817 47.6823 77.6817 45.9934C77.6817 44.3046 79.0508 42.9355 80.7396 42.9355C82.4284 42.9355 83.7975 44.3046 83.7975 45.9934C83.7975 47.6823 82.4284 49.0513 80.7396 49.0513Z" fill="#CCAFFF"/>
<path d="M242.021 95.7061C239.225 92.6919 239.4 87.8866 242.502 85.0909C245.516 82.2951 250.321 82.4698 253.117 85.5714C255.913 88.5856 255.738 93.3908 252.637 96.1866C249.622 98.9387 244.904 98.764 242.021 95.7061Z" fill="#FFBF2C"/>
<path d="M247.524 97.5416C243.724 97.5416 240.622 94.44 240.622 90.6395C240.622 86.839 243.724 83.7374 247.524 83.7374C251.325 83.7374 254.426 86.839 254.426 90.6395C254.514 94.44 251.412 97.5416 247.524 97.5416Z" fill="#F26A08"/>
<path d="M247.612 94.3524C245.515 94.3524 243.811 92.6487 243.811 90.5518C243.811 88.455 245.515 86.7513 247.612 86.7513C249.709 86.7513 251.412 88.455 251.412 90.5518C251.412 92.6487 249.709 94.3524 247.612 94.3524Z" fill="#FFBF2C"/>
<path d="M245.996 86.4019L247.612 84.2177L249.229 86.4019C248.705 86.1834 248.137 86.0961 247.612 86.0961C247.088 86.0961 246.477 86.1834 245.996 86.4019Z" fill="#FFBF2C"/>
<path d="M243.375 92.2987L241.191 90.6824L243.375 89.066C243.156 89.5902 243.069 90.1581 243.069 90.6824C243.069 91.2066 243.113 91.7308 243.375 92.2987Z" fill="#FFBF2C"/>
<path d="M249.229 94.9203L247.612 97.1045L245.996 94.9203C246.52 95.1387 247.088 95.2261 247.612 95.2261C248.18 95.2261 248.705 95.1387 249.229 94.9203Z" fill="#FFBF2C"/>
<path d="M251.892 89.0228L254.077 90.6391L251.892 92.2554C252.111 91.7312 252.198 91.1634 252.198 90.6391C252.198 90.0276 252.024 89.5034 251.892 89.0228Z" fill="#FFBF2C"/>
<path d="M243.419 88.7175L243.025 86.0964L245.734 86.4896C245.253 86.708 244.816 87.0138 244.423 87.407C243.986 87.8001 243.681 88.237 243.419 88.7175Z" fill="#FFBF2C"/>
<path d="M245.777 94.8325L243.069 95.2256L243.462 92.5172C243.68 92.9977 243.986 93.4346 244.379 93.8277C244.772 94.2209 245.209 94.6141 245.777 94.8325Z" fill="#FFBF2C"/>
<path d="M251.805 92.5172L252.198 95.1383L249.49 94.7451C249.97 94.5267 250.407 94.2209 250.8 93.8277C251.237 93.4346 251.586 92.9541 251.805 92.5172Z" fill="#FFBF2C"/>
<path d="M249.49 86.4896L252.198 86.0964L251.805 88.7175C251.586 88.237 251.281 87.8001 250.887 87.407C250.494 87.0138 249.926 86.708 249.49 86.4896Z" fill="#FFBF2C"/>
<path d="M52.0124 109.774C45.4454 109.774 40.0845 104.413 40.0845 97.8462C40.0845 91.2792 45.4454 85.9183 52.0124 85.9183C58.5794 85.9183 63.9403 91.2792 63.9403 97.8462C64.0743 104.413 58.7134 109.774 52.0124 109.774Z" fill="#F1E9FF" fill-opacity="0.15"/>
<path d="M124.292 115.059C118.984 115.059 114.681 110.756 114.681 105.448C114.681 100.141 118.984 95.8379 124.292 95.8379C129.6 95.8379 133.902 100.141 133.902 105.448C133.902 110.756 129.6 115.059 124.292 115.059Z" fill="white"/>
<path d="M63.2223 94.0026C60.4265 90.9884 60.6013 86.1831 63.7028 83.3874C66.717 80.5916 71.5223 80.7663 74.3181 83.8679C77.1139 86.8821 76.9391 91.6873 73.8375 94.4831C70.8233 97.2352 66.0618 97.0605 63.2223 94.0026Z" fill="#FFBF2C"/>
<path d="M68.7266 95.8368C64.9261 95.8368 61.8245 92.7352 61.8245 88.9347C61.8245 85.1342 64.9261 82.0326 68.7266 82.0326C72.5271 82.0326 75.6287 85.1342 75.6287 88.9347C75.6724 92.7352 72.5708 95.8368 68.7266 95.8368Z" fill="#F26A08"/>
<path d="M68.7713 92.6489C66.6744 92.6489 64.9707 90.9452 64.9707 88.8484C64.9707 86.7515 66.6744 85.0479 68.7713 85.0479C70.8681 85.0479 72.5718 86.7515 72.5718 88.8484C72.5718 90.9452 70.8681 92.6489 68.7713 92.6489Z" fill="#FFBF2C"/>
<path d="M67.1545 84.6975L68.7708 82.5133L70.3871 84.6975C69.8629 84.4791 69.295 84.3917 68.7708 84.3917C68.2466 84.3917 67.635 84.4354 67.1545 84.6975Z" fill="#FFBF2C"/>
<path d="M64.5332 90.5948L62.349 88.9785L64.5332 87.3622C64.3148 87.8864 64.2274 88.4543 64.2274 88.9785C64.2274 89.5027 64.3148 90.0269 64.5332 90.5948Z" fill="#FFBF2C"/>
<path d="M70.4302 93.2161L68.8139 95.4003L67.1975 93.2161C67.7218 93.4345 68.2897 93.5219 68.8139 93.5219C69.3381 93.5219 69.8623 93.4345 70.4302 93.2161Z" fill="#FFBF2C"/>
<path d="M73.0518 87.319L75.236 88.9353L73.0518 90.5516C73.2702 90.0274 73.3576 89.4595 73.3576 88.9353C73.3576 88.3237 73.1828 87.7995 73.0518 87.319Z" fill="#FFBF2C"/>
<path d="M64.6207 87.0125L64.2275 84.3915L66.9359 84.7846C66.4554 85.0031 66.0185 85.3088 65.6254 85.702C65.1449 86.0952 64.8391 86.532 64.6207 87.0125Z" fill="#FFBF2C"/>
<path d="M66.9359 93.1282L64.2275 93.5214L64.6207 90.813C64.8391 91.2935 65.1449 91.7304 65.538 92.1235C65.9312 92.5167 66.4117 92.9098 66.9359 93.1282Z" fill="#FFBF2C"/>
<path d="M72.964 90.813L73.3572 93.434L70.6488 93.0409C71.1293 92.8225 71.5661 92.5167 71.9593 92.1235C72.4398 91.7304 72.7456 91.2498 72.964 90.813Z" fill="#FFBF2C"/>
<path d="M70.6488 84.7846L73.3572 84.3915L72.964 87.0125C72.7456 86.532 72.4398 86.0952 72.0467 85.702C71.6535 85.3088 71.1293 85.0031 70.6488 84.7846Z" fill="#FFBF2C"/>
<path d="M54.5286 109.729C52.126 107.108 52.257 103.002 54.9218 100.599C57.5428 98.1963 61.6491 98.3273 64.0517 100.992C66.4544 103.613 66.3233 107.719 63.6586 110.122C61.0375 112.525 56.9749 112.394 54.5286 109.729Z" fill="#FFBF2C"/>
<path d="M59.2463 111.301C55.97 111.301 53.3053 108.637 53.3053 105.36C53.3053 102.084 55.97 99.4192 59.2463 99.4192C62.5226 99.4192 65.1874 102.084 65.1874 105.36C65.2747 108.637 62.61 111.301 59.2463 111.301Z" fill="#F26A08"/>
<path d="M59.3347 108.592C57.5436 108.592 56.0584 107.107 56.0584 105.316C56.0584 103.525 57.5436 102.039 59.3347 102.039C61.1257 102.039 62.611 103.525 62.611 105.316C62.611 107.107 61.1257 108.592 59.3347 108.592Z" fill="#FFBF2C"/>
<path d="M57.9354 101.69L59.3333 99.812L60.7312 101.69C60.2507 101.472 59.8138 101.428 59.3333 101.428C58.8528 101.428 58.3286 101.516 57.9354 101.69Z" fill="#FFBF2C"/>
<path d="M55.6648 106.759L53.7864 105.361L55.6648 103.963C55.4464 104.443 55.4027 104.88 55.4027 105.361C55.4027 105.841 55.4464 106.322 55.6648 106.759Z" fill="#FFBF2C"/>
<path d="M60.7312 109.029L59.3333 110.908L57.9354 109.029C58.416 109.248 58.8528 109.291 59.3333 109.291C59.8138 109.291 60.2507 109.248 60.7312 109.029Z" fill="#FFBF2C"/>
<path d="M63.0037 103.963L64.8821 105.361L63.0037 106.759C63.2221 106.278 63.2658 105.841 63.2658 105.361C63.2658 104.836 63.1347 104.356 63.0037 103.963Z" fill="#FFBF2C"/>
<path d="M55.7079 103.701L55.3585 101.429L57.6737 101.779C57.2805 101.997 56.8874 102.259 56.5379 102.565C56.1885 102.914 55.9263 103.307 55.7079 103.701Z" fill="#FFBF2C"/>
<path d="M57.7169 108.985L55.4016 109.335L55.7511 107.019C55.9696 107.412 56.2317 107.806 56.5374 108.155C56.8432 108.461 57.2364 108.767 57.7169 108.985Z" fill="#FFBF2C"/>
<path d="M62.9159 106.977L63.2654 109.248L60.9501 108.899C61.3433 108.68 61.7365 108.418 62.0859 108.112C62.4791 107.763 62.7412 107.37 62.9159 106.977Z" fill="#FFBF2C"/>
<path d="M60.9061 101.779L63.2213 101.429L62.8718 103.701C62.6534 103.307 62.3913 102.914 62.0855 102.565C61.7797 102.215 61.3429 101.953 60.9061 101.779Z" fill="#FFBF2C"/>
<path d="M52.0393 75.5683C50.4666 73.8646 50.554 71.1562 52.3014 69.5399C54.005 67.9673 56.7134 68.0546 58.3297 69.802C59.9024 71.5057 59.815 74.2141 58.0677 75.8304C56.364 77.403 53.6993 77.3156 52.0393 75.5683Z" fill="#FFBF2C"/>
<path d="M55.1844 76.6176C53.0439 76.6176 51.2966 74.8702 51.2966 72.7297C51.2966 70.5892 53.0439 68.8418 55.1844 68.8418C57.3249 68.8418 59.0723 70.5892 59.0723 72.7297C59.116 74.8702 57.3686 76.6176 55.1844 76.6176Z" fill="#F26A08"/>
<path d="M55.2281 74.8255C54.0487 74.8255 53.0876 73.8644 53.0876 72.685C53.0876 71.5055 54.0487 70.5444 55.2281 70.5444C56.4076 70.5444 57.3687 71.5055 57.3687 72.685C57.3687 73.8644 56.4076 74.8255 55.2281 74.8255Z" fill="#FFBF2C"/>
<path d="M54.311 70.2824L55.2284 69.0592L56.1458 70.2824C55.84 70.1513 55.5342 70.1076 55.2284 70.1076C54.9226 70.1076 54.5731 70.1513 54.311 70.2824Z" fill="#FFBF2C"/>
<path d="M52.8259 73.6463L51.6028 72.7289L52.8259 71.8115C52.6949 72.1173 52.6512 72.4231 52.6512 72.7289C52.6512 73.0347 52.6949 73.3405 52.8259 73.6463Z" fill="#FFBF2C"/>
<path d="M56.1458 75.1321L55.2284 76.3552L54.311 75.1321C54.6168 75.2631 54.9226 75.3068 55.2284 75.3068C55.5342 75.3068 55.84 75.2631 56.1458 75.1321Z" fill="#FFBF2C"/>
<path d="M57.6306 71.8115L58.8538 72.7289L57.6306 73.6463C57.7617 73.3405 57.8053 73.0347 57.8053 72.7289C57.8053 72.3794 57.718 72.0736 57.6306 71.8115Z" fill="#FFBF2C"/>
<path d="M52.8694 71.6372L52.651 70.152L54.1799 70.3704C53.9178 70.5015 53.6557 70.6762 53.4373 70.8946C53.1752 71.113 53.0005 71.3751 52.8694 71.6372Z" fill="#FFBF2C"/>
<path d="M54.1799 75.0882L52.651 75.3067L52.8694 73.7777C53.0005 74.0398 53.1752 74.3019 53.3936 74.5203C53.612 74.7388 53.8741 74.9572 54.1799 75.0882Z" fill="#FFBF2C"/>
<path d="M57.5871 73.7777L57.8055 75.263L56.2766 75.0445C56.5387 74.9135 56.8008 74.7388 57.0192 74.5203C57.2813 74.3019 57.4561 74.0398 57.5871 73.7777Z" fill="#FFBF2C"/>
<path d="M56.2766 70.326L57.8055 70.1075L57.5871 71.5928C57.4561 71.3307 57.2814 71.0686 57.0629 70.8502C56.8445 70.6318 56.5387 70.457 56.2766 70.326Z" fill="#FFBF2C"/>
<path d="M222.363 70.5006H199.647C196.458 70.5006 193.881 67.9233 193.881 64.7343V16.0266H215.46C219.305 16.0266 222.406 19.1282 222.406 22.9724V70.5006H222.363Z" fill="#ECEAF4"/>
<path d="M215.33 28.6076H221.577V22.4919C221.577 18.9098 218.693 16.0266 215.111 16.0266H208.996V22.2734C208.996 25.8118 211.835 28.6076 215.33 28.6076Z" fill="#542AC8"/>
<path d="M216.073 28.6077H222.319V22.7541C222.319 19.0409 219.305 15.983 215.548 15.983H209.695V22.2299C209.782 25.7683 212.578 28.6077 216.073 28.6077Z" fill="white"/>
<path d="M218.17 51.4105C218.563 51.4105 218.956 51.2795 219.305 50.9737C220.048 50.3621 220.135 49.2263 219.48 48.5274L198.293 23.7148C197.682 22.9722 196.546 22.8848 195.847 23.5401C195.104 24.1517 195.017 25.2874 195.672 25.9864L216.859 50.7989C217.208 51.1921 217.689 51.4105 218.17 51.4105Z" fill="#F6F5FA"/>
<path d="M218.125 60.7156C218.387 60.7156 218.606 60.6282 218.824 60.4535C219.305 60.0603 219.348 59.3614 218.955 58.9246L201.132 37.8251C200.739 37.3446 200.04 37.3009 199.603 37.6941C199.123 38.0872 199.079 38.7862 199.472 39.223L217.295 60.3224C217.47 60.5845 217.819 60.7156 218.125 60.7156Z" fill="#F6F5FA"/>
<path d="M212.229 69.845H221.84C222.145 69.845 222.407 69.5829 222.407 69.2771V48.0903C222.407 46.5177 221.141 45.2509 219.568 45.2509H212.229C210.656 45.2509 209.39 46.5177 209.39 48.0903V67.0055C209.39 68.5782 210.656 69.845 212.229 69.845Z" fill="#542AC8"/>
<path d="M215.33 68.3164H232.105C234.246 68.3164 235.993 66.5691 235.993 64.4286V47.6539C235.993 45.5134 234.246 43.766 232.105 43.766H215.33C213.19 43.766 211.443 45.5134 211.443 47.6539V64.4286C211.443 66.5691 213.19 68.3164 215.33 68.3164Z" fill="white"/>
<path d="M211.443 51.5418H235.993V47.6539C235.993 45.5134 234.246 43.766 232.105 43.766H215.33C213.19 43.766 211.443 45.5134 211.443 47.6539V51.5418Z" fill="#FFA32A"/>
<path d="M226.776 65.3897C226.907 65.3897 226.995 65.3023 226.995 65.1712V54.425C226.995 54.2939 226.907 54.2065 226.776 54.2065C226.645 54.2065 226.558 54.2939 226.558 54.425V65.1712C226.558 65.2586 226.645 65.3897 226.776 65.3897Z" fill="#F26A08"/>
<path d="M214.982 59.8856H232.455C232.586 59.8856 232.674 59.7982 232.674 59.6672C232.674 59.5361 232.586 59.4487 232.455 59.4487H214.982C214.851 59.4487 214.763 59.5361 214.763 59.6672C214.763 59.7982 214.851 59.8856 214.982 59.8856Z" fill="#F26A08"/>
<path d="M220.922 65.3897C221.053 65.3897 221.14 65.3023 221.14 65.1712V54.425C221.14 54.2939 221.053 54.2065 220.922 54.2065C220.791 54.2065 220.704 54.2939 220.704 54.425V65.1712C220.704 65.2586 220.791 65.3897 220.922 65.3897Z" fill="#F26A08"/>
<path d="M229.746 46.1247C230.227 46.1247 230.62 45.7316 230.62 45.251V41.2758C230.62 40.7953 230.227 40.4021 229.746 40.4021C229.266 40.4021 228.873 40.7953 228.873 41.2758V45.251C228.873 45.7316 229.266 46.1247 229.746 46.1247Z" fill="#542AC8"/>
<path d="M217.209 46.1247C217.69 46.1247 218.083 45.7316 218.083 45.251V41.2758C218.083 40.7953 217.69 40.4021 217.209 40.4021C216.729 40.4021 216.335 40.7953 216.335 41.2758V45.251C216.335 45.7316 216.729 46.1247 217.209 46.1247Z" fill="#542AC8"/>
<path d="M110.575 121.873C119.006 121.873 125.864 115.015 125.864 106.584C125.864 98.1527 119.006 91.2943 110.575 91.2943C102.144 91.2943 95.2855 98.1527 95.2855 106.584C95.2855 115.015 102.144 121.873 110.575 121.873ZM110.575 95.6627C116.603 95.6627 121.496 100.555 121.496 106.584C121.496 112.612 116.603 117.505 110.575 117.505C104.547 117.505 99.654 112.612 99.654 106.584C99.654 100.555 104.547 95.6627 110.575 95.6627Z" fill="#542AC8"/>
<path d="M113.415 119.645C121.846 119.645 128.704 112.786 128.704 104.355C128.704 95.9244 121.846 89.066 113.415 89.066C104.984 89.066 98.1256 95.9244 98.1256 104.355C98.1256 112.786 104.94 119.645 113.415 119.645ZM113.415 93.4344C119.443 93.4344 124.336 98.3271 124.336 104.355C124.336 110.384 119.443 115.276 113.415 115.276C107.387 115.276 102.494 110.384 102.494 104.355C102.494 98.3271 107.387 93.4344 113.415 93.4344Z" fill="#F8F8FB"/>
<path d="M112.454 120.65C117.477 120.65 122.501 118.422 125.777 114.097C131.456 106.758 130.102 96.143 122.763 90.5078C121.147 89.241 118.788 89.5467 117.565 91.1631C116.298 92.7794 116.604 95.1383 118.22 96.3615C122.326 99.5504 123.069 105.448 119.924 109.554C116.735 113.66 110.837 114.403 106.731 111.258C105.115 109.991 102.756 110.297 101.533 111.913C100.266 113.529 100.572 115.888 102.188 117.111C105.246 119.514 108.872 120.65 112.454 120.65Z" fill="#A168FF"/>
<path d="M207.029 206.62C207.641 206.62 208.122 206.14 208.122 205.528V149.787C208.122 149.176 207.641 148.695 207.029 148.695C206.418 148.695 205.937 149.176 205.937 149.787V205.484C205.937 206.14 206.418 206.62 207.029 206.62Z" fill="#DFDCE9"/>
<path d="M214.412 195.918C215.024 195.918 215.504 195.437 215.504 194.826V139.129C215.504 138.517 215.024 138.037 214.412 138.037C213.801 138.037 213.32 138.517 213.32 139.129V194.826C213.32 195.437 213.844 195.918 214.412 195.918Z" fill="#DFDCE9"/>
<path d="M275.832 206.62C276.444 206.62 276.924 206.14 276.924 205.528V149.787C276.924 149.176 276.444 148.695 275.832 148.695C275.221 148.695 274.74 149.176 274.74 149.787V205.484C274.74 206.14 275.221 206.62 275.832 206.62Z" fill="#DFDCE9"/>
<path d="M202.049 146.861H280.899V150.356H202.049V146.861Z" fill="#E4E4EC"/>
<path d="M202.006 146.904H280.987L269.76 130.96H213.233L202.006 146.904Z" fill="white"/>
<path d="M228.173 133.319H262.378V109.074C262.378 107.807 261.329 106.759 260.063 106.759H230.532C229.265 106.759 228.217 107.807 228.217 109.074V133.319H228.173Z" fill="#998ACD"/>
<path d="M229.877 132.357H260.543V110.951C260.543 109.772 259.582 108.811 258.402 108.811H231.973C230.794 108.811 229.833 109.772 229.833 110.951V132.357H229.877Z" fill="#E6F7FF"/>
<path d="M223.892 140.832H269.018L262.421 133.144H228.173L223.892 140.832Z" fill="#998ACD"/>
<path d="M223.892 140.832H269.018V142.011H223.892V140.832Z" fill="#542AC8"/>
<path d="M243.768 139.478C243.768 139.478 239.881 137.643 238.876 137.687C237.871 137.73 235.163 137.73 233.241 140.395C231.318 143.016 233.328 143.016 234.42 142.405C235.512 141.793 236.997 140.963 238.352 141.531C239.706 142.099 242.458 143.06 244.162 142.405C245.865 141.749 243.768 139.478 243.768 139.478Z" fill="#FBCC9E"/>
<path d="M50.6085 188.158L45.4592 188.956L47.8793 193.948L52.3196 191.937L50.6085 188.158Z" fill="#FBCC9E"/>
<path d="M46.0977 190.454C46.0977 190.454 45.8772 194.7 46.5764 194.7C50.2022 194.7 57.4255 193.742 59.9783 193.583C59.9783 192.147 59.8187 191.509 58.3828 191.509C56.3087 191.509 54.6163 191.371 53.3495 190.454C52.3884 189.755 52.3922 189.056 51.2033 189.754C50.7967 190.172 51.5763 191.278 50.8842 191.349C49.9018 191.45 46.0977 190.454 46.0977 190.454Z" fill="white"/>
<path d="M21.1537 152.496C21.1537 152.496 33.1531 178.705 45.7778 189.757L50.8833 188.64C50.8833 188.64 38.1905 159.616 29.7595 153.413C21.3721 147.166 21.1537 152.496 21.1537 152.496Z" fill="#8C46FF"/>
<path d="M34.7852 191.853L29.7718 191.375L29.2932 196.002L35.3254 195.848L34.7852 191.853Z" fill="#FBCC9E"/>
<path d="M29.5571 193.083C29.5571 193.083 28.4434 197.186 29.1269 197.334C32.6706 198.101 39.933 198.693 42.4617 199.077C42.7655 197.674 42.7445 197.016 41.3411 196.713C39.3139 196.274 37.6889 195.781 36.6448 194.617C35.8533 193.73 36.0049 193.048 34.6952 193.479C34.2093 193.802 34.7373 195.048 34.0458 194.971C33.0644 194.861 29.5571 193.083 29.5571 193.083Z" fill="white"/>
<path d="M15.3051 169.974H16.9005V198.692H15.3051V169.974Z" fill="#7A7F8A"/>
<path d="M15.8522 171.312H16.158C18.2985 171.312 20.0022 169.565 20.0022 167.468V163.886H12.008V167.468C12.008 169.565 13.7117 171.312 15.8522 171.312Z" fill="#7A7F8A"/>
<path d="M3.88317 164.891H28.6957C30.2683 164.891 31.5789 163.58 31.5789 162.008C31.5789 160.435 30.2683 159.124 28.6957 159.124H3.88317C2.31055 159.124 1.00001 160.435 1.00001 162.008C1.00001 163.624 2.31055 164.891 3.88317 164.891Z" fill="#7A7F8A"/>
<path d="M7.59695 195.821H24.59C26.25 195.821 27.6042 197.175 27.6042 198.835H4.58274C4.58274 197.175 5.93696 195.821 7.59695 195.821Z" fill="#7A7F8A"/>
<path d="M8.57277 145.288C8.57277 145.288 2.50067 158.087 14.4264 161.494C26.3522 164.902 36.3995 161.713 36.3995 161.713C36.3995 161.713 33.2979 164.596 29.1916 192.685L35.3948 192.554C35.3948 192.554 45.6168 167.042 46.2284 156.602C46.7526 148.127 8.57277 145.288 8.57277 145.288Z" fill="#A168FF"/>
<path d="M34.1716 149.219L29.2353 147.953L23.0759 147.166L18.2269 147.647C18.2269 147.647 17.5717 148.608 24.7796 149.525C32.0311 150.443 34.1716 149.219 34.1716 149.219Z" fill="#7038E4"/>
<path d="M33.5593 114.272C33.5593 114.272 32.074 112.438 32.3361 109.555C32.5982 106.671 31.244 105.273 30.8946 104.706C30.5014 104.138 30.7198 103.439 31.8119 104.225C32.8603 104.968 33.734 106.628 33.7777 107.37C33.7777 107.37 37.3161 105.405 38.1461 109.511C38.9761 113.617 36.3987 114.447 36.3987 114.447L33.5593 114.272Z" fill="#FBCC9E"/>
<path d="M15.0813 112.612C15.0813 112.612 7.96079 113.966 5.82027 118.989C3.63607 124.144 7.91712 120.912 9.57712 125.149C11.2371 129.386 15.0813 112.612 15.0813 112.612Z" fill="#E9E9E9"/>
<path d="M35.4392 136.376L30.3718 136.988L23.2513 115.975L34.3471 127.246L35.4392 136.376Z" fill="#F0F0F0"/>
<path d="M21.2426 112.699C21.2426 112.699 29.062 122.747 31.3772 136.682C33.6925 150.617 11.7194 148.476 8.39943 145.55C8.39943 145.55 9.49153 142.798 9.05469 131.352C8.66153 119.907 14.4278 112.699 16.2626 111.432C18.0973 110.209 21.2426 112.699 21.2426 112.699Z" fill="#E9E9E9"/>
<path d="M21.0225 98.065C21.0225 98.065 21.9398 95.4877 20.3672 94.5266C18.7946 93.5656 17.7025 94.0461 17.7025 94.0461C17.7025 94.0461 17.0035 92.1677 14.9067 92.9103C12.8535 93.6529 13.3778 95.1382 13.3778 95.1382C13.3778 95.1382 11.3246 93.784 9.35882 95.9682C7.87356 97.6282 9.27145 99.2445 9.27145 99.2445C9.27145 99.2445 6.99986 99.6377 7.34934 103.482C7.69881 107.108 10.8441 106.889 10.8441 106.889C10.8441 106.889 9.9704 109.292 12.9409 110.515C15.9114 111.738 16.9162 110.821 16.9162 110.821L21.0225 98.065Z" fill="#F26A08"/>
<path d="M268.711 137.512C268.711 137.512 260.105 142.011 243.243 139.041L242.632 142.797C242.632 142.797 251.15 146.03 258.926 145.943C266.702 145.855 270.109 144.326 270.109 144.326L268.711 137.512Z" fill="#FAFAFA"/>
<path d="M264.78 180.89H266.178V209.372H264.78V180.89Z" fill="#7A7F8A"/>
<path d="M265.304 182.069H265.566C267.532 182.069 269.148 180.453 269.148 178.487V175.167H261.722V178.487C261.722 180.453 263.338 182.069 265.304 182.069Z" fill="#7A7F8A"/>
<path d="M254.208 176.129H277.273C278.759 176.129 279.938 174.949 279.938 173.464C279.938 171.979 278.759 170.799 277.273 170.799H254.208C252.723 170.799 251.543 171.979 251.543 173.464C251.543 174.905 252.723 176.129 254.208 176.129Z" fill="#7A7F8A"/>
<path d="M257.615 206.578H273.385C274.914 206.578 276.181 207.844 276.181 209.373H254.776C254.819 207.844 256.086 206.578 257.615 206.578Z" fill="#7A7F8A"/>
<path d="M28.0558 205.004C28.6674 205.004 29.1479 204.523 29.1479 203.912V148.215C29.1479 147.603 28.6674 147.123 28.0558 147.123C27.4443 147.123 26.9637 147.603 26.9637 148.215V203.912C26.9637 204.523 27.4443 205.004 28.0558 205.004Z" fill="#CBCAD6"/>
<path d="M23.0761 145.244H122.021V148.739H23.0761V145.244Z" fill="#E4E4EC"/>
<path d="M22.9887 145.288H122.108L108.042 129.343H37.0986L22.9887 145.288Z" fill="white"/>
<path d="M74.6667 132.314H108.871V108.069C108.871 106.802 107.823 105.754 106.556 105.754H77.0256C75.7588 105.754 74.7104 106.802 74.7104 108.069V132.314H74.6667Z" fill="#998ACD"/>
<path d="M76.4142 131.309H107.08V109.904C107.08 108.725 106.119 107.764 104.94 107.764H78.5111C77.3316 107.764 76.3705 108.725 76.3705 109.904V131.309H76.4142Z" fill="white"/>
<path d="M70.4293 139.784H115.555L108.959 132.139H74.7103L70.4293 139.784Z" fill="#998ACD"/>
<path d="M70.4293 139.784H115.555V140.963H70.4293V139.784Z" fill="#542AC8"/>
<path d="M92.8446 169.655H94.4401V207.627H92.8446V169.655Z" fill="#7A7F8A"/>
<path d="M127.123 190.182C127.846 189.935 128.725 190.214 129.118 190.879C129.554 191.553 129.37 192.408 128.134 193.795C125.346 196.994 124.038 196.221 121.843 198.743C119.638 201.308 115.342 197.391 116.753 195.192C117.638 193.774 121.597 191.988 121.597 191.988L127.123 190.182Z" fill="white"/>
<path d="M100.821 194.362C100.821 194.362 100.752 195.797 104.92 195.444C105.168 195.444 106.483 194.795 106.483 194.384C106.565 194.064 106.69 193.981 107.044 193.745C107.522 193.426 108.16 193.585 108.48 193.266C110.321 192.16 112.362 190.873 111.83 190.075C111.192 189.118 108.733 189.484 108.001 189.597C107.133 189.731 104.853 189.568 103.534 190.075C102.566 190.403 102.13 190.721 101.3 192.309C100.789 193.287 100.821 194.362 100.821 194.362Z" fill="white"/>
<path d="M99.4342 150.136C99.4342 150.136 102.842 150.879 104.283 152.277C105.768 153.675 106.885 191.352 106.885 191.352C107.044 192.15 104.491 194.224 104.491 194.224C101.779 195.021 100.919 193.427 100.919 193.427L94.0173 156.995L99.4342 150.136Z" fill="#737782"/>
<path d="M93.4927 171.061H93.7985C95.939 171.061 97.6427 169.314 97.6427 167.217V163.635H89.6485V167.217C89.6485 169.314 91.3522 171.061 93.4927 171.061Z" fill="#7A7F8A"/>
<path d="M106.817 150.18C106.817 150.18 110.268 150.355 111.972 151.491C113.676 152.626 121.882 193.426 121.882 193.426C120.446 194.384 119.828 196.334 118.851 196.338C116.298 196.936 115.685 194.782 115.685 194.782L101.939 154.976C101.939 154.976 95.8761 149.711 106.817 150.18Z" fill="#7A7F8A"/>
<path d="M81.524 164.64H106.337C107.909 164.64 109.22 163.329 109.22 161.757C109.22 160.184 107.909 158.874 106.337 158.874H81.524C79.9514 158.874 78.6409 160.184 78.6409 161.757C78.6409 163.373 79.9514 164.64 81.524 164.64Z" fill="#7A7F8A"/>
<path d="M82.1354 155.597C82.1354 155.597 81.2181 161.669 91.3965 161.669C101.619 161.669 108.171 156.514 108.171 156.514L106.861 150.136C106.817 150.18 96.3328 150.922 82.1354 155.597Z" fill="#7A7F8A"/>
<path d="M85.7606 105.186C85.7606 105.186 86.1101 109.292 84.4064 111.782C84.4064 111.782 87.508 115.932 90.6532 115.102C92.4006 114.665 92.3569 113.704 91.9637 112.918C91.4832 112.001 91.6143 110.908 92.1822 110.035C92.5316 109.511 92.8811 108.943 93.2743 108.418C94.4537 106.846 85.7606 105.186 85.7606 105.186Z" fill="#FBCC9E"/>
<path d="M88.4254 103.788C88.4254 103.788 87.9012 110.69 84.3191 110.035C84.3191 110.035 85.8044 108.942 84.4939 107.632C83.1833 106.365 77.5044 107.064 79.7323 100.075C79.7323 100.075 78.3344 92.8668 86.7654 93.7404C87.5954 93.8278 88.3818 93.6094 89.1681 93.3036C89.3428 93.2162 89.6049 93.2162 89.9981 93.391C91.6144 94.0462 89.5175 96.7546 89.5175 96.7546L88.4254 103.788Z" fill="#22232D"/>
<path d="M87.6828 105.098C87.6828 105.098 88.6002 109.773 92.3133 109.904L93.886 107.632L87.6828 105.098Z" fill="#E8B689"/>
<path d="M90.1729 95.7938C90.1729 95.7938 94.0608 100.643 96.0703 105.273C96.3324 105.885 96.3324 106.627 96.0266 107.195C95.6334 107.938 94.8035 108.812 93.2308 108.899C90.3914 109.117 88.6003 105.841 88.6003 105.841C88.6003 105.841 87.683 107.021 86.4598 105.317C85.7172 104.225 84.8435 103.701 85.6735 103.133C86.5472 102.565 87.945 104.181 87.945 104.181L87.9887 104.05C87.9887 104.05 85.4114 99.8128 86.7656 97.847C88.1198 95.8812 90.1729 95.7938 90.1729 95.7938Z" fill="#FBCC9E"/>
<path d="M99.0412 119.077C99.0412 119.077 94.1923 111.388 84.1012 111.039C83.6644 111.039 83.2276 111.301 83.0091 111.694C81.7423 114.184 77.636 123.532 80.257 136.026C83.3586 150.748 80.4318 155.99 80.4318 155.99C80.4318 155.99 91.5712 162.28 105.419 155.99C105.419 155.99 101.75 150.704 100.221 136.943C98.6917 123.183 99.0412 119.077 99.0412 119.077Z" fill="#ADB5C1"/>
<path d="M94.4545 115.277C94.8913 115.015 95.4592 114.971 95.9398 115.19C97.0319 115.67 99.1287 117.068 101.444 121.131C104.764 127.028 109.176 139.478 109.176 139.478C109.176 139.478 110.574 143.453 107.036 144.283C103.017 145.201 101.706 141.444 101.706 141.444L93.6245 121.436C93.6245 121.393 91.5714 116.981 94.4545 115.277Z" fill="#B8C0CD"/>
<path d="M85.237 206.031H102.23C103.89 206.031 105.244 207.385 105.244 209.045H82.2228C82.2228 207.385 83.577 206.031 85.237 206.031Z" fill="#7A7F8A"/>
<path d="M116.647 205.004C117.258 205.004 117.739 204.523 117.739 203.912V150.137C117.739 149.525 117.258 149.045 116.647 149.045C116.035 149.045 115.555 149.525 115.555 150.137V203.912C115.555 204.523 116.079 205.004 116.647 205.004Z" fill="#DFDCE9"/>
<path d="M16.3482 106.497C16.3482 106.497 16.654 110.297 15.125 112.612C15.125 112.612 18.0082 116.457 20.935 115.714C22.5513 115.277 22.5076 114.403 22.1581 113.704C21.7213 112.874 21.8524 111.826 22.3766 111.04C22.6824 110.559 23.0318 110.035 23.425 109.554C24.4297 108.026 16.3482 106.497 16.3482 106.497Z" fill="#FBCC9E"/>
<path d="M16.3497 106.627C16.3497 106.627 19.2329 110.821 22.3781 110.996L23.2081 109.729L16.3497 106.627Z" fill="#E8B689"/>
<path d="M21.1978 97.5846C21.1978 97.5846 24.2994 102.739 25.3915 107.326C25.5225 107.938 25.3915 108.593 24.9109 109.074C24.343 109.685 23.2946 110.297 21.5473 110.122C18.4894 109.773 16.3052 106.671 16.3052 106.671C16.3052 106.671 15.0383 107.545 14.1647 105.797C13.5968 104.661 13.7278 103.875 14.7762 103.482C15.8246 103.133 16.8731 105.011 16.8731 105.011L17.6594 103.788C17.6594 103.788 15.2568 100.38 17.1352 98.8515C19.0136 97.2789 21.1978 97.5846 21.1978 97.5846Z" fill="#FBCC9E"/>
<path d="M265.697 138.735C265.697 138.735 262.29 139.04 260.411 145.942L262.901 145.855L265.697 138.735Z" fill="#E9E9E9"/>
<path d="M37.6665 113.354C37.6665 113.354 45.6607 137.817 37.186 136.944C29.2355 136.157 35.4823 125.892 33.4729 114.184L37.6665 113.354Z" fill="#FAFAFA"/>
<path d="M39.8517 139.609C39.8517 139.609 43.0843 137.73 47.0159 140.832C47.0159 140.832 48.108 141.575 47.1032 142.667C46.0985 143.759 44.7443 141.793 43.128 142.099C41.5117 142.405 38.5412 143.104 38.5412 143.104L39.8517 139.609Z" fill="#FBCC9E"/>
<path d="M25.6961 137.162C24.9972 137.162 24.4293 136.682 24.2982 135.983C23.5119 131.308 20.323 115.189 15.1683 115.888C9.13985 116.718 18.794 142.972 18.794 142.972C18.794 142.972 27.8366 144.588 39.1508 143.365L40.1992 139.128C40.1992 139.128 30.4577 137.118 25.6961 137.162Z" fill="#FAFAFA"/>
<path d="M34.5648 107.327C34.5648 107.327 33.9969 109.948 35.3511 111.171C36.7053 112.394 38.1031 112.307 38.1031 112.307C38.1031 112.307 38.0595 112.525 37.9284 112.831C37.9284 112.831 33.2979 112.438 34.5648 107.327Z" fill="#E8B689"/>
<path d="M115.599 148.739H117.783V150.311H115.599V148.739Z" fill="#7A7F8A"/>
<path d="M26.9636 148.739H29.1478V150.311H26.9636V148.739Z" fill="#7A7F8A"/>
<path d="M58.7654 135.415H61.7796L71.4337 110.952C71.7832 110.079 71.0843 109.118 70.1232 109.118C69.5553 109.118 68.9874 109.467 68.8127 109.991L58.7654 135.415Z" fill="#998ACD"/>
<path d="M36.3565 135.372H61.7806V137.338H36.3565V135.372Z" fill="#998ACD"/>
<path d="M281.86 120.169C281.86 120.169 287.452 118.204 289.549 124.887C291.646 131.571 280.856 136.201 285.093 141.05C288.719 145.157 290.641 139.871 288.806 137.381C288.806 137.381 293.131 142.754 289.636 146.817C287.758 149.044 284.481 149.569 281.904 148.258C277.492 145.987 275.308 140.919 276.706 136.158C277.361 133.973 278.191 131.833 279.196 130.479L281.86 120.169Z" fill="#EAA824"/>
<path d="M262.422 143.322C263.776 139.827 267.27 137.162 269.804 135.59L277.667 138.385L281.162 141.225L275.221 156.383C275.221 156.383 275.308 156.514 275.439 156.733L262.028 157.17C261.504 152.888 261.286 146.161 262.422 143.322Z" fill="white"/>
<path d="M273.867 168.571C273.867 168.571 271.464 171.498 265.916 171.498C260.325 171.498 252.462 171.498 252.462 171.498C252.462 171.498 250.93 186.171 249.838 205.392C249.838 205.392 247.323 205.598 245.051 205.073L242.895 169.707C242.818 168.378 242.7 167.352 243.137 166.304L243.53 165.343C243.923 164.382 244.293 163.81 245.297 163.548L263.557 160.621L268.537 161.363L273.867 168.571Z" fill="#E8B689"/>
<path d="M277.798 169.62C277.798 169.62 275.57 172.721 269.979 172.721C264.387 172.721 256.524 172.721 256.524 172.721C256.524 172.721 258.229 173.184 261.005 179.387C264.199 186.521 264.037 191.836 269.979 205.712C269.979 205.712 268.675 207.307 265.792 207.307L246.826 170.712C246.302 169.838 246.258 168.79 246.608 167.829L247.044 166.693C247.438 165.732 248.268 164.989 249.272 164.727L265.13 160.665L274.74 161.757L277.798 169.62Z" fill="#FBCC9E"/>
<path d="M276.968 129.605C276.968 129.605 274.915 135.721 277.667 138.342C277.667 138.342 273.08 143.584 268.275 142.143C263.207 140.614 270.022 135.372 270.022 135.372L270.328 130.304L276.968 129.605Z" fill="#FBCC9E"/>
<path d="M270.284 131.44L275.002 130.348C275.002 130.348 274.959 132.576 270.197 133.187L270.284 131.44Z" fill="#E8B689"/>
<path d="M281.729 122.135C281.685 125.499 279.545 128.469 276.487 129.911C274.215 130.959 271.114 131.789 267.27 131.396C266.352 131.308 265.653 130.479 265.784 129.561C266.178 126.154 267.925 118.116 276.225 117.548C280.681 117.155 281.773 119.601 281.729 122.135Z" fill="#FBCC9E"/>
<path d="M277.755 169.663L276.794 168.659C273.037 164.596 268.013 161.844 262.553 160.839C262.553 160.839 262.291 159.31 262.029 157.17L275.44 156.733C276.444 158.524 280.42 166.081 277.755 169.663Z" fill="white"/>
<path d="M275.526 119.47C273.298 117.461 270.371 119.645 270.371 119.645C270.371 119.645 271.42 115.801 276.05 115.801C280.681 115.801 282.996 120.038 282.996 120.038C282.996 120.038 285.268 123.533 282.909 128.687C281.074 132.75 276.094 132.444 275.395 129.561C275.832 129.823 276.094 130.173 277.623 128.993C279.545 127.464 279.676 125.586 277.055 126.329C277.055 126.329 277.754 121.436 275.526 119.47Z" fill="#FFBF2C"/>
<path d="M277.754 169.663C277.754 169.663 275.963 172.547 270.94 172.765C265.916 172.94 260.805 172.765 260.805 172.765C260.805 172.765 260.98 164.334 252.811 162.368L262.596 160.665C262.596 160.665 272.6 162.193 277.754 169.663Z" fill="#542AC8"/>
<path d="M256.83 160.271C256.83 160.271 252.855 159.485 250.146 162.019C247.438 164.552 252.156 162.587 257.485 162.936L256.83 160.271Z" fill="#FBCC9E"/>
<path d="M281.161 141.181C281.161 141.181 283.608 143.409 281.817 150.573C280.025 157.738 275.264 164.115 275.264 164.115C275.264 164.115 263.862 165.819 256.436 163.242V160.097C256.436 160.097 264.037 158.393 271.07 159.179C271.682 159.267 272.206 158.83 272.337 158.262L273.211 154.505C273.254 154.549 275.876 138.953 281.161 141.181Z" fill="#FAFAFA"/>
<path d="M250.315 204.466C251.112 206.54 248.719 209.093 248.081 211.805C247.875 211.805 247.604 211.775 246.966 211.775C247.286 211.106 248.388 207.862 247.922 207.816C244.382 207.473 244.252 211.326 242.178 211.326C236.275 211.007 237.712 209.381 238.031 208.743C238.337 208.394 238.459 207.946 239.148 207.946C241.382 207.946 241.769 207.051 242.818 205.871C243.648 204.954 244.253 204.206 244.846 204.206C246.069 204.381 249.677 203.03 250.315 204.466Z" fill="white"/>
<path d="M270.375 204.148C272.009 205.655 270.994 209.003 271.622 211.718C271.437 211.809 271.05 212 270.478 212.283C270.175 211.67 270.152 208.046 269.713 208.212C266.387 209.472 267.977 212.984 266.118 213.903C264.356 214.965 261.481 214.402 261.485 213.689C261.604 213.24 260.826 212.027 261.804 211.934C263.778 211.787 263.441 210.548 263.859 209.026C264.197 207.836 264.144 206.644 265.357 206.338C266.531 205.953 269.167 203.144 270.375 204.148Z" fill="white"/>
<path fill-rule="evenodd" clip-rule="evenodd" d="M251.762 125.847C251.718 125.978 251.631 126.109 251.587 126.153C251.5 126.241 251.412 126.241 251.238 126.241C251.106 126.241 251.019 126.241 250.932 126.197C250.888 126.153 250.844 126.109 250.844 125.935V124.712C250.844 124.45 250.888 124.406 251.106 124.406V124.318H250.233V124.406C250.495 124.406 250.539 124.45 250.539 124.712V125.935C250.539 126.197 250.495 126.241 250.233 126.241V126.328H251.718C251.762 126.241 251.805 125.935 251.849 125.847H251.762ZM249.141 125.498H248.573C248.66 125.236 248.748 124.974 248.879 124.712L249.141 125.498ZM249.971 126.328V126.241C249.752 126.241 249.709 126.197 249.621 125.891C249.403 125.367 249.228 124.799 249.01 124.231L248.879 124.275L248.223 125.891C248.092 126.153 248.049 126.197 247.874 126.241V126.328H248.573V126.241C248.311 126.197 248.311 126.197 248.354 125.978C248.398 125.847 248.442 125.716 248.485 125.585H249.184C249.272 125.76 249.315 125.935 249.359 126.022C249.403 126.153 249.359 126.197 249.184 126.197V126.284H249.971V126.328ZM247.83 124.799C247.83 124.624 247.786 124.362 247.786 124.231H247.699C247.655 124.275 247.612 124.318 247.524 124.318H246.214C246.127 124.318 246.083 124.318 246.039 124.231H245.952C245.952 124.406 245.952 124.624 245.908 124.799H245.995C246.039 124.668 246.083 124.581 246.083 124.493C246.127 124.45 246.17 124.406 246.476 124.406H246.651V125.935C246.651 126.197 246.607 126.197 246.345 126.241V126.328H247.306V126.241C247 126.241 246.957 126.197 246.957 125.935V124.406H247.175C247.437 124.406 247.481 124.45 247.524 124.493C247.568 124.537 247.612 124.624 247.612 124.799H247.83ZM245.69 126.328V126.241C245.428 126.241 245.384 126.197 245.384 125.935V124.712C245.384 124.45 245.428 124.406 245.69 124.406V124.318H244.816V124.406C245.078 124.406 245.122 124.45 245.122 124.712V125.935C245.122 126.197 245.078 126.241 244.816 126.241V126.328H245.69ZM243.462 124.624C243.462 124.537 243.462 124.493 243.505 124.493C243.549 124.45 243.593 124.449 243.68 124.449C243.942 124.449 244.161 124.581 244.161 124.93C244.161 125.323 243.899 125.454 243.724 125.454C243.637 125.454 243.549 125.411 243.505 125.411V124.624H243.462ZM242.938 124.318V124.406C243.156 124.406 243.2 124.45 243.2 124.712V125.935C243.2 126.197 243.156 126.197 242.938 126.241V126.328H243.811V126.241C243.505 126.241 243.505 126.197 243.505 125.935V125.454L243.724 125.498C243.768 125.498 243.811 125.498 243.855 125.498C244.161 125.454 244.467 125.279 244.467 124.843C244.467 124.624 244.379 124.493 244.248 124.406C244.117 124.318 243.942 124.275 243.724 124.275H242.938V124.318ZM241.758 125.498H241.19C241.278 125.236 241.365 124.974 241.496 124.712L241.758 125.498ZM242.632 126.328V126.241C242.413 126.241 242.37 126.197 242.282 125.891C242.064 125.367 241.889 124.799 241.671 124.231L241.54 124.275L240.884 125.891C240.753 126.153 240.71 126.197 240.535 126.241V126.328H241.234V126.241C240.972 126.197 240.972 126.197 241.015 125.978C241.059 125.847 241.103 125.716 241.147 125.585H241.845C241.933 125.76 241.977 125.935 242.02 126.022C242.064 126.153 242.02 126.197 241.845 126.197V126.284H242.632V126.328ZM240.404 125.76C240.229 126.066 240.054 126.241 239.705 126.241C239.224 126.241 238.831 125.847 238.831 125.279C238.831 124.799 239.137 124.362 239.661 124.362C240.011 124.362 240.229 124.493 240.317 124.843H240.404C240.404 124.668 240.36 124.537 240.317 124.362C240.229 124.362 240.011 124.275 239.705 124.275C238.962 124.275 238.438 124.712 238.438 125.367C238.438 125.847 238.788 126.415 239.618 126.415C239.836 126.415 240.142 126.328 240.229 126.328C240.273 126.241 240.36 125.978 240.404 125.847V125.76Z" fill="#542AC8"/>
<path fill-rule="evenodd" clip-rule="evenodd" d="M250.19 122.003V121.042C250.19 120.954 250.19 120.911 250.233 120.911C250.277 120.867 250.321 120.867 250.408 120.867C250.627 120.867 250.889 121.042 250.889 121.435C250.889 121.653 250.845 121.784 250.714 121.916C250.627 122.003 250.496 122.003 250.321 122.003H250.19ZM251.85 123.139C251.762 123.095 251.675 123.051 251.588 122.964C251.5 122.877 251.413 122.745 251.282 122.527C251.151 122.352 251.02 122.09 250.932 121.959C251.195 121.872 251.457 121.653 251.457 121.304C251.457 121.042 251.326 120.867 251.195 120.78C251.02 120.649 250.801 120.649 250.452 120.649H249.316V120.78C249.622 120.823 249.666 120.867 249.666 121.173V122.702C249.666 123.051 249.622 123.051 249.316 123.095V123.226H250.539V123.095C250.233 123.051 250.19 123.008 250.19 122.702V122.134H250.277C250.408 122.134 250.496 122.178 250.539 122.309C250.67 122.527 250.758 122.745 250.889 122.92C251.063 123.182 251.195 123.27 251.719 123.313C251.762 123.313 251.806 123.313 251.806 123.313L251.85 123.139ZM248.006 123.27V123.139C247.7 123.095 247.656 123.095 247.656 122.745V121.173C247.656 120.823 247.7 120.823 248.006 120.78V120.649H246.782V120.78C247.088 120.823 247.132 120.823 247.132 121.173V122.702C247.132 123.051 247.088 123.051 246.782 123.095V123.226H248.006V123.27ZM245.472 123.27V123.139C245.122 123.095 245.122 123.051 245.122 122.702L245.079 121.217C245.079 120.867 245.079 120.823 245.428 120.823V120.692H244.598L243.768 122.44L242.982 120.692H242.152V120.823C242.501 120.867 242.545 120.911 242.501 121.391L242.458 122.178C242.414 122.614 242.414 122.833 242.37 122.964C242.327 123.095 242.283 123.182 242.021 123.182V123.313H243.026V123.182C242.763 123.139 242.676 123.139 242.632 122.964C242.632 122.833 242.632 122.658 242.632 122.309L242.676 121.26L243.506 123.313H243.637L244.555 121.217H244.598V122.745C244.598 123.095 244.598 123.139 244.292 123.182V123.313H245.472V123.27ZM240.055 122.178H239.4C239.487 121.915 239.618 121.61 239.706 121.304L240.055 122.178ZM241.278 123.27V123.139C241.016 123.095 240.972 123.051 240.841 122.702C240.579 122.003 240.317 121.304 240.055 120.605L239.837 120.649L239.007 122.702C238.876 123.051 238.832 123.095 238.526 123.139V123.27H239.443V123.139C239.138 123.095 239.138 123.051 239.181 122.877C239.225 122.702 239.269 122.571 239.312 122.44H240.099C240.186 122.614 240.23 122.789 240.273 122.92C240.317 123.095 240.317 123.139 240.055 123.182V123.313H241.278V123.27Z" fill="#542AC8"/>
<path fill-rule="evenodd" clip-rule="evenodd" d="M246.869 112.175L245.559 113.398L246.432 115.451L245.209 114.141L243.986 115.451L244.816 113.398L243.506 112.175L245.209 113.049L246.869 112.175ZM255.868 127.814L254.995 126.285L252.81 126.634L254.339 125.717L253.335 124.232L255.126 125.499L256.611 124.494L255.431 125.979L255.868 127.814ZM256.523 126.241C256.567 126.023 256.436 125.805 256.218 125.761C255.999 125.717 255.781 125.848 255.737 126.067C255.693 126.285 255.825 126.503 256.043 126.547C256.218 126.591 256.436 126.416 256.523 126.241ZM256.655 124.45L255.693 122.834L256.436 121.087L255.3 122.485L253.203 121.786L254.601 122.921L253.378 124.232L255.344 123.227L256.655 124.45ZM256.786 122.747C256.786 122.965 256.655 123.14 256.392 123.183C256.174 123.183 255.999 123.052 255.956 122.79C255.956 122.572 256.087 122.397 256.349 122.353C256.567 122.353 256.786 122.528 256.786 122.747ZM256.392 120.999L254.776 120.213L253.16 121.742L253.902 120.126L252.242 119.47L254.47 119.514L255.126 117.854L254.951 119.732L256.392 120.999ZM255.999 119.339C255.912 119.121 255.693 119.033 255.475 119.121C255.257 119.208 255.169 119.427 255.257 119.645C255.344 119.863 255.562 119.951 255.781 119.863C255.999 119.776 256.087 119.514 255.999 119.339ZM255.126 117.723L253.422 116.937L253.029 115.102L252.898 116.893L250.801 117.505L251.238 115.32L252.985 115.058L251.107 114.796L250.189 113.136L250.582 114.883L248.748 116.107L250.495 115.713L250.801 117.461L252.548 117.592L252.286 119.383L253.335 117.417L255.126 117.723ZM254.252 116.281C254.383 116.456 254.383 116.718 254.208 116.849C254.033 116.98 253.771 116.98 253.64 116.806C253.509 116.631 253.509 116.369 253.684 116.238C253.859 116.063 254.121 116.107 254.252 116.281ZM251.718 113.922C251.893 114.053 251.937 114.316 251.806 114.49C251.675 114.665 251.412 114.709 251.238 114.578C251.063 114.447 251.019 114.185 251.15 114.01C251.281 113.879 251.543 113.835 251.718 113.922ZM250.146 113.136L248.267 113.442L246.913 112.131L247.787 113.66L246.389 115.364L247.918 114.49L248.704 116.107L248.486 113.879L250.146 113.136ZM248.573 112.437C248.791 112.481 248.922 112.743 248.835 112.918C248.791 113.136 248.529 113.267 248.355 113.18C248.136 113.136 248.005 112.874 248.092 112.699C248.136 112.481 248.398 112.35 248.573 112.437ZM233.633 124.363L235.118 125.368L236.909 124.101L234.944 123.096L233.633 124.363L234.594 122.703L233.895 120.956L234.987 122.353L237.084 121.655L235.686 122.79L236.866 124.101L235.861 125.586L237.39 126.503L235.206 126.11L234.288 127.639L234.769 125.805L233.633 124.363ZM233.764 126.067C233.808 126.285 234.026 126.416 234.245 126.372C234.463 126.329 234.594 126.11 234.55 125.892C234.507 125.673 234.288 125.542 234.07 125.586C233.895 125.63 233.72 125.848 233.764 126.067ZM233.546 122.659C233.546 122.878 233.677 123.052 233.895 123.096C234.114 123.14 234.288 122.965 234.332 122.747C234.332 122.528 234.201 122.353 233.982 122.31C233.764 122.266 233.546 122.397 233.546 122.659ZM235.162 117.767L235.337 119.645L233.939 120.912L235.555 120.169L237.128 121.698L236.385 120.082L238.045 119.427L237.783 117.679L239.574 117.548L237.434 116.937L237.302 115.146L236.909 116.98L235.162 117.767L236.953 117.461L238.045 119.383L235.861 119.427L235.162 117.767ZM234.332 119.252C234.419 119.033 234.638 118.946 234.856 119.033C235.075 119.121 235.162 119.339 235.075 119.558C234.987 119.776 234.769 119.863 234.55 119.776C234.376 119.689 234.245 119.47 234.332 119.252ZM236.079 116.281C236.21 116.107 236.472 116.063 236.647 116.238C236.822 116.369 236.866 116.631 236.691 116.806C236.56 116.98 236.298 117.024 236.123 116.849C235.948 116.718 235.948 116.456 236.079 116.281ZM240.142 113.18L239.749 114.927L241.627 116.15L239.88 115.757L239.618 117.505L239.137 115.364L237.39 115.102L239.268 114.84L240.142 113.18ZM238.613 113.922C238.438 114.053 238.395 114.316 238.526 114.49C238.657 114.665 238.919 114.709 239.094 114.578C239.268 114.447 239.312 114.185 239.181 114.01C239.05 113.879 238.788 113.835 238.613 113.922ZM243.418 112.175L242.064 113.486L240.186 113.18L241.802 113.966L241.627 116.15L242.414 114.534L243.986 115.408L242.588 113.704L243.418 112.175ZM241.758 112.437C241.54 112.481 241.409 112.743 241.496 112.918C241.54 113.136 241.802 113.267 241.977 113.18C242.195 113.136 242.326 112.874 242.239 112.699C242.195 112.481 241.933 112.35 241.758 112.437ZM245.166 111.913C244.947 111.913 244.772 112.088 244.772 112.306C244.772 112.525 244.947 112.699 245.166 112.699C245.384 112.699 245.559 112.525 245.559 112.306C245.559 112.088 245.384 111.913 245.166 111.913Z" fill="#542AC8"/>
<path d="M252.854 127.901H237.477C237.433 127.901 237.39 127.858 237.39 127.814C237.39 127.77 237.433 127.727 237.477 127.727H252.854C252.897 127.727 252.941 127.77 252.941 127.814C252.941 127.858 252.897 127.901 252.854 127.901Z" fill="#542AC8"/>
<path d="M250.758 129.386H239.618C239.575 129.386 239.531 129.343 239.531 129.299C239.531 129.255 239.575 129.212 239.618 129.212H250.758C250.801 129.212 250.845 129.255 250.845 129.299C250.845 129.343 250.801 129.386 250.758 129.386Z" fill="#542AC8"/>
</svg>
