<svg width="57" height="58" viewBox="0 0 57 58" fill="none" xmlns="http://www.w3.org/2000/svg">
    <path fill-rule="evenodd" clip-rule="evenodd" d="M38.5196 0.0634766C37.437 0.0634766 36.5489 0.95156 36.5489 2.03418C36.5489 3.11679 37.437 4.00488 38.5196 4.00488C39.6022 4.00488 40.4903 3.11679 40.4903 2.03418C40.4903 0.95156 39.6022 0.0634666 38.5196 0.0634766ZM1.06452 0.069458C0.38836 0.059458 0.38836 1.07902 1.06452 1.06946H4.23444C4.9106 1.07946 4.9106 0.059898 4.23444 0.069458H1.06452ZM5.86335 0.069458C5.18719 0.059458 5.18719 1.07902 5.86335 1.06946H14.9102C15.5864 1.07946 15.5864 0.059898 14.9102 0.069458H5.86335ZM52.961 0.282349C52.8299 0.285349 52.705 0.338949 52.6133 0.432739L50.6231 2.48157C50.6213 2.48357 50.621 2.48555 50.6192 2.48755L43.2247 10.1068C42.186 9.59005 41.0191 9.28991 39.7813 9.30011C37.6409 9.31711 35.7153 10.2229 34.3438 11.6594C34.3296 11.6587 34.3196 11.6494 34.3048 11.6494H19.6251C18.4475 8.99561 15.7915 7.13959 12.7052 7.13965C12.429 7.13968 12.2052 7.36352 12.2052 7.63965V14.5752L8.70515 20.5654C8.56485 20.8043 8.64542 21.1117 8.88484 21.251C9.85022 21.8149 10.9598 22.1533 12.1368 22.2412V32.7334C12.1368 33.3712 12.6649 33.8994 13.3028 33.8994H26.9005V40.6963L26.002 42.2529L15.6094 48.2529C15.2474 48.0883 14.8772 47.9259 14.4766 47.9248C12.9292 47.9248 11.6641 49.1899 11.6641 50.7373C11.6641 52.2847 12.9293 53.5498 14.4766 53.5498C15.9806 53.5498 17.174 52.3364 17.2423 50.8486L26.9005 45.2705V51.9873C26.1407 52.506 25.6198 53.3153 25.6192 54.251C25.6192 55.7984 26.8843 57.0635 28.4317 57.0635C29.9791 57.0635 31.2442 55.7984 31.2442 54.251C31.2428 53.3171 30.7207 52.5096 29.963 51.9912V45.2705L39.4942 50.7744C39.4929 50.8054 39.4867 50.8355 39.4864 50.8665C39.4864 52.4139 40.7515 53.679 42.2989 53.679C43.8463 53.679 45.1114 52.4139 45.1114 50.8665C45.1114 49.3191 43.8463 48.054 42.2989 48.054H42.2969C41.9588 48.0546 41.6422 48.174 41.3282 48.2922L30.8594 42.2493L29.9629 40.6926V33.8997H43.4707C44.1087 33.8997 44.6368 33.3714 44.6368 32.7336V22.7844C44.6368 22.7844 44.6348 22.7844 44.6348 22.7744C46.3651 21.3676 47.4689 19.2223 47.4492 16.8252C47.4392 15.61 47.1314 14.4678 46.6133 13.4522L54.0469 5.7998L56.0254 3.7627C56.2171 3.56553 56.2136 3.2505 56.0176 3.05762L53.3223 0.415039C53.226 0.320739 53.0957 0.269351 52.9609 0.272461L52.961 0.282349ZM38.5196 1.0636C39.0618 1.0636 39.4903 1.49212 39.4903 2.0343C39.4903 2.57647 39.0618 3.005 38.5196 3.005C37.9774 3.005 37.5489 2.57647 37.5489 2.0343C37.5489 1.49212 37.9774 1.0636 38.5196 1.0636ZM22.7989 1.4679C22.3509 1.46804 22.1291 2.01195 22.4493 2.32532L24.2618 4.13782C24.733 4.62869 25.4597 3.90204 24.9688 3.43079L23.1563 1.61829C23.0623 1.52209 22.9334 1.46791 22.7989 1.4679ZM28.8477 1.4679C28.718 1.4719 28.5947 1.5254 28.504 1.61829L26.6915 3.43079C26.2006 3.90204 26.9273 4.62869 27.3985 4.13782L29.211 2.32532C29.5363 2.00732 29.3024 1.45543 28.8477 1.4679ZM52.9805 1.49127L54.963 3.43268L53.961 4.46393L51.9805 2.52252L52.9805 1.49127ZM5.0235 2.0694C4.34734 2.0594 4.34734 3.07896 5.0235 3.0694H11.1798C11.8559 3.0794 11.8559 2.05984 11.1798 2.0694H5.0235V2.0694ZM12.7794 2.0694C12.1032 2.0594 12.1032 3.07896 12.7794 3.0694H15.3438C16.02 3.0794 16.02 2.05984 15.3438 2.0694H12.7794ZM51.2833 3.23737L51.918 3.85846L41.92 14.1495L42.6368 14.8467L52.6309 4.55963L53.2637 5.18073L43.3165 15.421L40.5977 16.2315L41.3438 13.4815L51.2833 3.23737V3.23737ZM24.6055 5.70996C24.4758 5.71396 24.3525 5.76745 24.2618 5.86035L22.4493 7.67285C21.9591 8.14411 22.685 8.87002 23.1563 8.37982L24.9688 6.56738C25.2941 6.24937 25.0603 5.6975 24.6055 5.70996ZM27.0411 5.70996C26.5931 5.71011 26.3713 6.254 26.6915 6.56738L28.504 8.37982C28.9752 8.87002 29.7012 8.14411 29.211 7.67285L27.3985 5.86035C27.3044 5.76415 27.1756 5.70998 27.0411 5.70996ZM10.2891 7.55371C10.2443 7.55771 10.2003 7.5687 10.1583 7.5849C7.22843 8.63134 5.13286 11.4328 5.13288 14.7158C5.13288 16.6038 5.82725 18.3367 6.97272 19.6629C7.40892 20.1681 8.16673 19.5139 7.73053 19.0086C6.73559 17.8566 6.13288 16.3593 6.13288 14.7157C6.13286 11.8577 7.95413 9.43345 10.4942 8.52625C11.0616 8.33975 10.8835 7.49524 10.2891 7.55365V7.55371ZM13.2051 8.24701C16.4274 8.50161 19.0076 10.9972 19.252 14.2158H13.2051V8.25092V8.24701ZM39.7891 10.2998C40.7537 10.2898 41.6646 10.4995 42.4923 10.8623L40.4454 12.9697L40.1251 14.1494C40.0378 14.1394 39.951 14.1294 39.8614 14.1294C39.8451 14.1286 39.8288 14.1286 39.8126 14.1294C39.1466 14.1624 39.1948 15.1597 39.8594 15.1294L39.1622 17.7017L41.6094 16.9713C41.5693 17.9231 40.7919 18.6705 39.8282 18.6626C38.8438 18.6526 38.0643 17.8623 38.0723 16.8813C38.0858 16.208 37.0723 16.1962 37.0723 16.8693C37.0598 18.3919 38.2962 19.6482 39.8204 19.6603C41.3444 19.6733 42.6028 18.4388 42.6153 16.9162C42.616 16.8342 42.6082 16.7546 42.6016 16.674L43.8516 16.301L45.8751 14.2189C46.2328 15.021 46.4416 15.9036 46.4493 16.84C46.4792 20.4873 43.5533 23.4587 39.8985 23.4885C39.2239 23.4885 39.2318 24.5017 39.9063 24.4885C41.2657 24.4775 42.5366 24.1041 43.6368 23.4689V32.7366C43.6368 32.8379 43.5717 32.9025 43.4708 32.9025H13.3028C13.2019 32.9025 13.1368 32.8376 13.1368 32.7366V22.2619C17.1109 22.0364 20.2754 18.7429 20.2754 14.7131C20.2754 13.9984 20.1702 13.3083 19.9844 12.6525H33.5391C32.7076 13.8813 32.2253 15.3649 32.2383 16.9572C32.2383 17.6306 33.2518 17.6189 33.2383 16.9453C33.2084 13.298 36.1343 10.3266 39.7891 10.2968L39.7891 10.2998ZM39.8008 11.7548C36.9621 11.7778 34.6682 14.1052 34.6915 16.9404C34.7021 18.2352 35.2099 19.4008 36.0118 20.2998L32.5587 24.8779C32.2435 24.7116 31.8908 24.6104 31.5118 24.6104C30.8786 24.6104 30.3058 24.8737 29.8926 25.2959L25.461 22.0263C25.6613 21.6883 25.7833 21.3008 25.7833 20.8818C25.7833 19.6333 24.7604 18.6105 23.5118 18.6104C22.2632 18.6104 21.2403 19.6333 21.2403 20.8818C21.2403 21.4285 21.4443 21.9241 21.7696 22.3173L18.2325 26.7373C18.0046 26.6603 17.7649 26.6104 17.5118 26.6104C16.2632 26.6104 15.2403 27.6333 15.2403 28.8818C15.2403 30.1304 16.2632 31.1533 17.5118 31.1533C18.7604 31.1533 19.7833 30.1304 19.7833 28.8818C19.7833 28.2486 19.518 27.6738 19.0958 27.2607L22.5567 22.9326C22.8486 23.0698 23.1696 23.1533 23.5118 23.1533C23.9864 23.1533 24.4274 23.0028 24.793 22.7509L29.3731 26.1494C29.2934 26.3803 29.2403 26.6248 29.2403 26.8818C29.2403 28.1304 30.2632 29.1533 31.5118 29.1533C32.7604 29.1533 33.7833 28.1304 33.7833 26.8818C33.7833 26.3731 33.608 25.9062 33.3223 25.5263L36.7481 20.9794C37.6239 21.6433 38.7037 22.0516 39.8848 22.0419C42.7236 22.0189 45.0175 19.6896 44.9942 16.8544C44.9942 16.181 43.9807 16.1909 43.9942 16.8644C44.013 19.1582 42.1762 21.0233 39.877 21.0421C37.5778 21.0611 35.7103 19.2266 35.6915 16.9328C35.6727 14.639 37.5094 12.7738 39.8087 12.755C40.4833 12.755 40.4754 11.7418 39.8009 11.755L39.8008 11.7548ZM52.6915 12.2158C52.4161 12.2158 52.196 12.4462 52.1993 12.7216V17.7841C52.1897 18.4603 53.2089 18.4603 53.1993 17.7841V12.7216C53.2026 12.4401 52.973 12.2114 52.6915 12.2158ZM54.6915 12.2158C54.4161 12.2158 54.196 12.4462 54.1993 12.7216V14.4677C54.1897 15.1439 55.2088 15.1439 55.1993 14.4677V12.7216C55.2026 12.4401 54.973 12.2114 54.6915 12.2158ZM12.9923 15.2158H19.2501C18.9943 18.6151 16.1711 21.2861 12.7051 21.2861C11.6772 21.2861 10.7554 20.9448 9.89069 20.5263L12.9923 15.2158V15.2158ZM54.6915 15.458C54.4161 15.458 54.196 15.6884 54.1993 15.9638V21.0283C54.1897 21.7044 55.2089 21.7044 55.1993 21.0283V15.9638C55.2026 15.6823 54.973 15.4536 54.6915 15.458ZM0.910223 16.29C0.634835 16.29 0.41478 16.5204 0.418036 16.7959V21.8584C0.408476 22.5345 1.4276 22.5345 1.41804 21.8584V16.7959C1.42137 16.5143 1.19173 16.2856 0.910223 16.29ZM52.6915 18.7744C52.4153 18.7744 52.195 19.006 52.1993 19.2822V21.0283C52.1897 21.7044 53.2088 21.7044 53.1993 21.0283V19.2822C53.2037 18.9999 52.9737 18.77 52.6915 18.7744ZM23.5118 19.6104C24.2199 19.6104 24.7833 20.1737 24.7833 20.8818C24.7833 21.59 24.2199 22.1533 23.5118 22.1533C22.8037 22.1533 22.2403 21.59 22.2403 20.8818C22.2403 20.1737 22.8037 19.6104 23.5118 19.6104ZM0.910223 22.8486C0.634083 22.8486 0.413722 23.0803 0.418036 23.3564V25.1025C0.408476 25.7787 1.4276 25.7787 1.41804 25.1025V23.3564C1.42245 23.0741 1.19248 22.8442 0.910223 22.8486ZM31.5118 25.6104C32.2199 25.6104 32.7833 26.1737 32.7833 26.8818C32.7833 27.59 32.2199 28.1533 31.5118 28.1533C30.8037 28.1533 30.2403 27.59 30.2403 26.8818C30.2403 26.1737 30.8037 25.6104 31.5118 25.6104ZM52.1817 26.3369C51.0991 26.3369 50.211 27.225 50.211 28.3076C50.211 29.3902 51.0991 30.2802 52.1817 30.2802C53.2643 30.2802 54.1524 29.3902 54.1524 28.3076C54.1524 27.225 53.2643 26.3369 52.1817 26.3369V26.3369ZM52.1817 27.3369C52.7239 27.3369 53.1524 27.7654 53.1524 28.3076C53.1524 28.8498 52.7239 29.2802 52.1817 29.2802C51.6395 29.2802 51.211 28.8498 51.211 28.3076C51.211 27.7654 51.6395 27.3369 52.1817 27.3369ZM17.5118 27.6104C18.2199 27.6104 18.7833 28.1737 18.7833 28.8818C18.7833 29.59 18.2199 30.1533 17.5118 30.1533C16.8037 30.1533 16.2403 29.59 16.2403 28.8818C16.2403 28.1737 16.8037 27.6104 17.5118 27.6104ZM3.711 33.3936C2.62839 33.3936 1.73835 34.2816 1.73835 35.3643C1.73835 36.4469 2.62839 37.335 3.711 37.335C4.79362 37.335 5.68171 36.4469 5.68171 35.3643C5.68171 34.2816 4.79362 33.3936 3.711 33.3936ZM27.9005 33.9053H28.963V40.833C28.9628 40.921 28.9857 41.0069 29.0294 41.083L30.0606 42.8701C30.1046 42.9461 30.1679 43.0097 30.2442 43.0537L40.9844 49.2549C41.1324 49.3399 41.3136 49.3438 41.4649 49.2648C41.7232 49.1305 42.0088 49.0602 42.2989 49.0597C43.3058 49.0597 44.1114 49.8653 44.1114 50.8722C44.1114 51.8792 43.3058 52.6847 42.2989 52.6847C41.292 52.6847 40.4864 51.8792 40.4864 50.8722C40.4874 50.7762 40.4955 50.68 40.5118 50.5851C40.5473 50.3789 40.4507 50.1724 40.2696 50.0675L29.713 43.9718C29.3794 43.7793 28.9626 44.0208 28.963 44.4054V52.1868C28.9628 52.376 29.0693 52.5489 29.2383 52.6339C29.8538 52.9405 30.2432 53.5656 30.2442 54.2532C30.2442 55.2602 29.4387 56.0657 28.4317 56.0657C27.4248 56.0657 26.6192 55.2602 26.6192 54.2532C26.6196 53.5651 27.0072 52.939 27.6231 52.6321C27.7929 52.5481 27.9003 52.3743 27.9005 52.1847V44.4054C27.9008 44.0203 27.484 43.7793 27.1505 43.9718L16.5294 50.1066C16.3597 50.2046 16.2628 50.3923 16.2813 50.5872C16.286 50.6372 16.2887 50.6878 16.2891 50.7394C16.2891 51.7464 15.4836 52.5519 14.4766 52.5519C13.4697 52.5519 12.6641 51.7464 12.6641 50.7394C12.6641 49.7331 13.4687 48.9279 14.4747 48.9269C14.8138 48.9278 15.1464 49.0239 15.4337 49.2043C15.5904 49.3033 15.7888 49.3065 15.9493 49.2144L26.6192 43.0542C26.6948 43.0102 26.7574 42.9466 26.8008 42.8706L27.8321 41.0835C27.8764 41.0075 27.9 40.9214 27.9004 40.8335V33.9058L27.9005 33.9053ZM3.711 34.3936C4.25318 34.3936 4.68171 34.8221 4.68171 35.3643C4.68171 35.9064 4.25318 36.335 3.711 36.335C3.16883 36.335 2.73835 35.9064 2.73835 35.3643C2.73835 34.8221 3.16883 34.3936 3.711 34.3936ZM10.0938 36.2998C9.64344 36.2998 9.42055 36.846 9.74421 37.1592L11.5567 38.9717C12.028 39.4601 12.7521 38.7359 12.2637 38.2646L10.4512 36.4521C10.3575 36.3551 10.2286 36.3003 10.0938 36.2998V36.2998ZM16.1426 36.2998C16.0126 36.2998 15.8893 36.3588 15.7989 36.4521L13.9864 38.2646C13.498 38.7359 14.2221 39.4601 14.6934 38.9717L16.5059 37.1592C16.8348 36.8414 16.5998 36.2853 16.1426 36.2998ZM38.5235 38.96C37.8473 38.95 37.8473 39.9696 38.5235 39.96H41.6934C42.3696 39.97 42.3696 38.9505 41.6934 38.96H38.5235ZM43.3223 38.96C42.6462 38.95 42.6462 39.9696 43.3223 39.96H52.3692C53.0454 39.97 53.0454 38.9505 52.3692 38.96H43.3223ZM11.9005 40.5439C11.7707 40.5439 11.6474 40.6019 11.5567 40.6943L9.74421 42.5068C9.25581 42.9781 9.97991 43.7023 10.4512 43.2139L12.2637 41.4014C12.5892 41.0834 12.3553 40.5314 11.9005 40.5439ZM14.336 40.5439C13.8879 40.544 13.6661 41.0881 13.9864 41.4014L15.7989 43.2139C16.2702 43.7022 16.9943 42.9781 16.5059 42.5068L14.6934 40.6943C14.5994 40.5983 14.4705 40.5439 14.336 40.5439V40.5439ZM42.4825 40.96C41.8063 40.95 41.8063 41.9696 42.4825 41.96H48.6387C49.3149 41.97 49.3149 40.9505 48.6387 40.96H42.4825ZM50.2403 40.96C49.5641 40.95 49.5641 41.9696 50.2403 41.96H52.8028C53.479 41.97 53.479 40.9505 52.8028 40.96H50.2403ZM1.44147 46.165C1.16609 46.165 0.94603 46.3954 0.949286 46.6709V51.7354C0.939726 52.4116 1.95885 52.4116 1.94929 51.7354V46.6709C1.95262 46.3893 1.72298 46.1606 1.44147 46.165ZM3.44147 46.165C3.16608 46.165 2.94603 46.3954 2.94929 46.6709V48.4169C2.93973 49.0931 3.95885 49.0931 3.94929 48.4169V46.6709C3.95262 46.3893 3.72298 46.1606 3.44147 46.165ZM49.3653 46.663C48.9159 46.6631 48.6947 47.21 49.0176 47.5225L50.8301 49.335C51.3015 49.8233 52.0255 49.0992 51.5372 48.6279L49.7247 46.8154C49.6305 46.7184 49.5008 46.663 49.3653 46.663ZM55.4161 46.663C55.2861 46.663 55.1627 46.722 55.0723 46.8154L53.2598 48.6279C52.7714 49.0992 53.4955 49.8234 53.9669 49.335L55.7794 47.5225C56.1083 47.2047 55.8732 46.6486 55.4161 46.663ZM3.44147 49.4072C3.16533 49.4072 2.94497 49.6389 2.94929 49.915V54.9775C2.93973 55.6537 3.95885 55.6537 3.94929 54.9775V49.915C3.9537 49.6327 3.72373 49.4028 3.44147 49.4072ZM53.6075 50.9053C53.1582 50.9055 52.937 51.4521 53.2598 51.7646L55.0723 53.5771C55.5436 54.069 56.2712 53.3413 55.7794 52.8701L53.9669 51.0576C53.8727 50.9606 53.743 50.9053 53.6075 50.9053ZM51.1739 50.9053C51.0441 50.9053 50.9209 50.9633 50.8301 51.0557L49.0176 52.8682C48.5258 53.3394 49.2535 54.0669 49.7247 53.5751L51.5372 51.7626C51.8624 51.4446 51.6286 50.8928 51.1739 50.9053ZM1.44147 52.7217C1.16533 52.7217 0.944972 52.9533 0.949286 53.2294V54.9755C0.939726 55.6517 1.95885 55.6517 1.94929 54.9755V53.2294C1.9537 52.9471 1.72373 52.7173 1.44147 52.7217Z" fill="#22232D"/>
</svg>
