<svg width="295" height="64" viewBox="0 0 295 64" fill="none" xmlns="http://www.w3.org/2000/svg">
<path d="M91.1827 5.87793H83.983L68.6836 30.4699H74.6833L78.5832 24.7718H95.9825L99.8823 30.4699H106.182L91.1827 5.87793ZM92.3826 19.6734H82.783V19.0736L86.9828 12.7757H88.1828L92.3826 19.0736V19.6734Z" fill="#FF8C00"/>
<path d="M109.18 5.57812V30.47H115.479V15.175H116.979L126.279 28.0708H132.279L141.278 15.175H142.778V30.47H149.078V5.57812H142.178L129.879 22.6725H128.379L116.079 5.57812H109.18Z" fill="#FF8C00"/>
<path d="M159.279 5.57812H152.68V30.47H159.279V5.57812Z" fill="#FF8C00"/>
<path d="M195.577 11.5762C195.367 11.1083 195.202 10.7634 194.977 10.3766C194.5 9.55183 194.17 9.009 192.877 7.67744C192.088 6.8647 191.311 6.35187 190.711 6.03697C190.708 6.03398 190.708 6.03398 190.705 6.03398C190.03 5.68009 189.577 5.57812 189.577 5.57812H162.578V30.47H169.178V21.4729H181.477L188.677 30.47H196.177L188.377 22.0727V21.173L188.425 21.164L190.177 20.8731C190.177 20.8731 190.519 20.7742 190.969 20.6182C190.972 20.6182 190.975 20.6182 190.975 20.6152C193.849 19.4666 195.877 16.6565 195.877 13.3756L195.577 11.5762ZM169.178 16.0747V11.2763H187.477C188.803 11.2763 189.877 12.3499 189.877 13.6755C189.877 15.001 188.803 16.0747 187.477 16.0747H169.178Z" fill="#FF8C00"/>
<path d="M68.6836 34.0684L79.4832 58.6603H85.7829L93.2826 42.4656H94.4825L102.282 58.6603H108.282L119.382 34.0684H112.482L105.582 50.563H104.382L97.1824 34.0684H90.8827L83.683 50.8629H82.183L75.2833 34.0684H68.6836Z" fill="#22232D"/>
<path d="M142.78 34.0684H135.581L120.281 58.6603H126.281L130.181 52.9622H147.58L151.48 58.6603H157.78L142.78 34.0684ZM143.98 47.8639H134.381V47.264L138.58 40.9661H139.78L143.98 47.264V47.8639Z" fill="#22232D"/>
<path d="M161.078 34.0684V58.6603H189.877V53.8619H167.078V34.0684H161.078Z" fill="#22232D"/>
<path d="M194.375 34.0684V58.6603H223.474V53.8619H200.375V34.0684H194.375Z" fill="#22232D"/>
<path d="M227.676 34.0684V58.6603H257.975V53.8619H233.676V48.7636H254.375V43.9651H233.676V38.8668H257.975V34.0684H227.676Z" fill="#22232D"/>
<path d="M275.371 39.1667V58.6603H281.371V39.1667H294.571V34.0684H262.172V39.1667H275.371Z" fill="#22232D"/>
<path d="M12.0327 11.7749C10.7487 5.246 9.1438 6.26267 7.96484 10.3293C8.33983 11.0791 8.76581 12.3627 9.0898 14.1831C10.0528 13.3254 11.0157 12.5216 12.0327 11.7749Z" fill="url(#paint0_radial)"/>
<path d="M46.9832 7.4929C46.4492 2.30159 44.7363 0.964031 41.5234 9.73917C42.7804 10.387 43.9803 11.1367 45.1083 11.9854C45.8043 10.0631 46.3952 8.56355 46.9832 7.4929Z" fill="url(#paint1_radial)"/>
<path d="M4.53906 41.364C9.03588 50.0851 15.6176 17.9266 25.5202 17.9266C34.1898 17.9266 43.3425 52.7063 51.7991 40.5063C47.3023 44.8398 43.6095 38.4189 42.2715 36.0647C46.8223 34.5142 48.5863 19.4231 48.9612 15.3565C43.6125 9.7213 36.1818 6.52734 28.4091 6.52734C19.1485 6.52734 10.5868 11.0229 5.23503 18.5144C5.18104 22.2602 4.80605 35.3149 9.73185 36.3856C8.6069 38.9018 6.89097 43.5053 4.53906 41.364Z" fill="url(#paint2_radial)"/>
<path d="M28.4655 63.2475C44.1308 63.2505 56.8293 50.5586 56.8323 34.8977C56.8323 31.5328 56.2353 28.1979 55.0654 25.043C54.8524 39.7052 50.3016 53.3477 42.6489 53.7766C32.9623 54.3134 21.6677 20.0136 17.2789 30.3932C19.2588 26.7014 24.1846 34.8348 26.0566 39.1144C20.4888 37.6149 17.3329 52.0641 11.3392 52.0641C5.5584 52.0641 1.59856 39.7022 1.33158 26.7014C0.512609 29.3706 0.0956266 32.1476 0.101626 34.9427C0.0986265 50.5676 12.7821 63.2475 28.4655 63.2475Z" fill="url(#paint3_radial)"/>
<path d="M42.6494 53.7767C32.9598 54.3135 21.6682 20.0137 17.2794 30.3933C19.2593 26.7015 24.1851 34.8348 26.0571 39.1144C20.4893 37.6149 17.3334 52.0642 11.3397 52.0642C6.57586 52.0642 3.045 43.664 1.81205 33.3893C0.957087 48.6933 13.1036 61.5891 28.466 61.5891C45.1123 61.5891 57.5288 46.606 54.7989 30.3933C53.6739 42.8632 49.3391 53.4018 42.6494 53.7767Z" fill="url(#paint4_linear)"/>
<path d="M31.8919 44.5213C30.7579 44.6923 29.612 44.7823 28.466 44.7883C25.6071 44.7883 22.7722 44.2424 20.1173 43.1838C21.9383 40.5626 23.8102 38.5293 26.1111 39.1171C24.2392 34.8375 19.3134 26.7042 17.3335 30.396C20.0633 23.7591 25.6821 35.3713 31.8919 44.5213ZM48.2142 21.6718C45.8593 13.9133 37.8856 8.24219 28.463 8.24219C17.1685 8.24219 7.96484 16.4295 7.96484 26.4882C7.96484 30.126 9.19479 33.5509 11.2287 36.388C15.0326 29.0044 19.6884 17.926 25.5201 17.926C31.1929 17.926 37.0277 32.6392 42.7004 39.543C43.0754 39.2221 43.4504 38.8472 43.7714 38.5263C43.2134 37.7436 42.7124 36.9188 42.2714 36.0641C45.4843 35.0504 47.2512 27.5589 48.2142 21.6718Z" fill="url(#paint5_linear)"/>
<path d="M25.5219 17.9265C30.2317 17.9265 35.0495 28.0932 39.8133 35.4768C35.2625 27.9882 30.2287 16.1631 25.5219 16.1631C18.9912 16.1631 15.1393 28.3091 11.6055 35.6927C15.2983 28.3631 19.9001 17.9265 25.5219 17.9265Z" fill="url(#paint6_radial)"/>
<path d="M25.5199 16.9096C28.8378 16.9096 32.1557 22.1519 35.6355 28.093C32.2637 22.047 28.8408 16.2139 25.5199 16.2139C20.6482 16.2139 17.2763 22.9017 14.4414 29.3766C17.5463 23.0096 20.6512 16.9096 25.5199 16.9096Z" fill="url(#paint7_radial)"/>
<path d="M11.2862 53.4554C14.1751 53.4554 16.53 48.801 18.6179 45.4301C16.476 48.747 14.2291 52.0639 11.3912 52.0639C5.61047 52.0639 1.65063 39.7019 1.38364 26.7012C0.579672 39.9718 4.38052 53.4554 11.2862 53.4554Z" fill="url(#paint8_radial)"/>
<path d="M11.2854 53.4557C13.4783 53.4557 15.4072 50.6726 17.1202 47.8895C15.2992 50.6186 13.4813 52.9728 11.2854 52.9728C5.93363 52.9728 2.39977 44.4646 1.38281 33.8721C2.07878 44.4136 5.66364 53.4557 11.2854 53.4557Z" fill="url(#paint9_radial)"/>
<path d="M42.8059 55.543C50.4586 55.1142 55.8644 39.8131 55.0094 25.043C54.7964 39.7052 50.2456 53.3477 42.5929 53.7766C38.0421 54.0435 33.1193 46.552 28.7305 39.7052C32.8523 46.6599 37.9371 55.8099 42.8059 55.543Z" fill="url(#paint10_radial)"/>
<path d="M42.8077 55.5426C47.0345 55.3297 50.6224 50.5133 52.7643 43.7715C50.2474 50.4053 47.0375 54.7419 42.8077 55.0088C39.3818 55.2217 36.064 51.371 32.7461 46.4466C35.959 51.368 39.4358 55.7046 42.8077 55.5426Z" fill="url(#paint11_radial)"/>
<path opacity="0.3" d="M9.78883 36.4423C5.667 34.5709 7.16694 16.2169 12.0897 11.7754C10.1428 13.1699 8.37889 14.8044 6.84595 16.6458C5.82899 24.5632 6.20398 34.8349 9.78883 36.4423Z" fill="#000105"/>
<path opacity="0.3" d="M42.3276 36.0676C45.1115 33.8753 46.9294 22.3711 47.1454 13.5959C45.4235 12.0784 43.5186 10.7828 41.4727 9.74219C46.2875 13.8598 45.1085 33.9263 42.3276 36.0676Z" fill="#000105"/>
<path d="M9.71848 36.4427C6.18463 34.8382 5.75864 24.5636 6.7216 16.6462C7.73856 8.35086 10.1475 2.57175 11.9654 11.7757C12.2474 11.5478 12.5534 11.3529 12.8744 11.1879C9.98547 -1.22502 5.43466 7.925 5.22167 18.5715C5.11667 22.3173 4.79568 35.372 9.71848 36.4427Z" fill="url(#paint12_radial)"/>
<path d="M47.1447 13.5928C46.9317 22.3679 45.1108 33.9261 42.3269 36.0644C46.9827 34.5139 48.7496 19.4768 49.0706 15.3562C49.9796 2.19349 46.5537 -7.6523 40.293 9.09723C40.722 9.31016 41.0939 9.47211 41.5229 9.68504C45.7527 -1.92417 47.3607 4.28381 47.1447 13.5928Z" fill="url(#paint13_radial)"/>
<defs>
<radialGradient id="paint0_radial" cx="0" cy="0" r="1" gradientUnits="userSpaceOnUse" gradientTransform="translate(-1825.75 -988.483) rotate(180) scale(13.0721 13.0684)">
<stop stop-color="white"/>
<stop offset="0.5" stop-color="#DD8144"/>
<stop offset="1" stop-color="#DD8144"/>
</radialGradient>
<radialGradient id="paint1_radial" cx="0" cy="0" r="1" gradientUnits="userSpaceOnUse" gradientTransform="translate(-2161.32 -897.952) rotate(180) scale(16.082 16.0774)">
<stop stop-color="white"/>
<stop offset="0.5" stop-color="#DD8144"/>
<stop offset="1" stop-color="#DD8144"/>
</radialGradient>
<radialGradient id="paint2_radial" cx="0" cy="0" r="1" gradientUnits="userSpaceOnUse" gradientTransform="translate(-1372.58 -699.544) rotate(180) scale(36.7616 36.7511)">
<stop stop-color="white"/>
<stop offset="0.5" stop-color="#DD8144"/>
<stop offset="1" stop-color="#BD6847"/>
</radialGradient>
<radialGradient id="paint3_radial" cx="0" cy="0" r="1" gradientUnits="userSpaceOnUse" gradientTransform="translate(-1387.54 -926.675) rotate(180) scale(38.8521 38.841)">
<stop stop-color="white"/>
<stop offset="0.5" stop-color="#DD8144"/>
<stop offset="1" stop-color="#BD6847"/>
</radialGradient>
<linearGradient id="paint4_linear" x1="29.2615" y1="42.3412" x2="30.0427" y2="61.5214" gradientUnits="userSpaceOnUse">
<stop stop-color="#FF8C00"/>
<stop offset="1" stop-color="#FF6600"/>
</linearGradient>
<linearGradient id="paint5_linear" x1="28.0892" y1="8.23787" x2="28.0892" y2="44.7863" gradientUnits="userSpaceOnUse">
<stop stop-color="#FF6600"/>
<stop offset="1" stop-color="#FF8C00"/>
</linearGradient>
<radialGradient id="paint6_radial" cx="0" cy="0" r="1" gradientUnits="userSpaceOnUse" gradientTransform="translate(-1260.71 -715.025) rotate(180) scale(32.1154 32.1062)">
<stop stop-color="white"/>
<stop offset="0.5" stop-color="#DD8144"/>
<stop offset="1" stop-color="#BD6847"/>
</radialGradient>
<radialGradient id="paint7_radial" cx="0" cy="0" r="1" gradientUnits="userSpaceOnUse" gradientTransform="translate(-1214.12 -670.209) rotate(180) scale(20.9687 20.9628)">
<stop stop-color="white"/>
<stop offset="0.33" stop-color="white"/>
<stop offset="0.66" stop-color="white" stop-opacity="0"/>
<stop offset="1" stop-color="white" stop-opacity="0"/>
</radialGradient>
<radialGradient id="paint8_radial" cx="0" cy="0" r="1" gradientUnits="userSpaceOnUse" gradientTransform="translate(-1794.48 -1203.66) rotate(180) scale(18.8994 18.894)">
<stop stop-color="white"/>
<stop offset="0.5" stop-color="#DD8144"/>
<stop offset="1" stop-color="#BD6847"/>
</radialGradient>
<radialGradient id="paint9_radial" cx="0" cy="0" r="1" gradientUnits="userSpaceOnUse" gradientTransform="translate(9.24366 43.6531) rotate(62.5272) scale(11.0426 13.7519)">
<stop stop-color="#DD8144"/>
<stop offset="1" stop-color="#E2934B"/>
</radialGradient>
<radialGradient id="paint10_radial" cx="0" cy="0" r="1" gradientUnits="userSpaceOnUse" gradientTransform="translate(-1815.02 -993.597) rotate(180) scale(33.5845 33.5749)">
<stop stop-color="white"/>
<stop offset="0.493" stop-color="#DD8144"/>
<stop offset="1" stop-color="#DD8144"/>
</radialGradient>
<radialGradient id="paint11_radial" cx="0" cy="0" r="1" gradientUnits="userSpaceOnUse" gradientTransform="translate(-1319.95 -842.607) rotate(180) scale(16.8015 16.7967)">
<stop stop-color="white"/>
<stop offset="0.33" stop-color="white"/>
<stop offset="0.66" stop-color="white" stop-opacity="0"/>
<stop offset="1" stop-color="white" stop-opacity="0"/>
</radialGradient>
<radialGradient id="paint12_radial" cx="0" cy="0" r="1" gradientUnits="userSpaceOnUse" gradientTransform="translate(-3604.67 -1896.09) rotate(180) scale(16.4826 16.4779)">
<stop stop-color="#E2944C"/>
<stop offset="0.5" stop-color="#DD8144"/>
<stop offset="1" stop-color="#BD6847"/>
</radialGradient>
<radialGradient id="paint13_radial" cx="0" cy="0" r="1" gradientUnits="userSpaceOnUse" gradientTransform="translate(-4466.08 -1756.25) rotate(180) scale(20.8857 20.8797)">
<stop stop-color="white"/>
<stop offset="0.5" stop-color="#DD8144"/>
<stop offset="1" stop-color="#BD6847"/>
</radialGradient>
</defs>
</svg>
