<svg width="49" height="52" viewBox="0 0 49 52" fill="none" xmlns="http://www.w3.org/2000/svg">
<path d="M48.4307 44C48.4307 47.866 45.2967 51 41.4307 51L8.0105 51C3.27089 51 -0.0986595 46.3886 1.34145 41.8731L5.67642 28.2805C6.11488 26.9057 6.11774 25.429 5.68459 24.0525L1.29451 10.1011C-0.124729 5.59087 3.24346 1 7.97174 1L41.4307 1C45.2967 1 48.4307 4.13401 48.4307 8L48.4307 44Z" fill="#CCAFFF"/>
<rect x="34.5996" y="26" width="14" height="2" rx="1" transform="rotate(135 34.5996 26)" fill="#353742"/>
<rect x="33.1855" y="27.4141" width="14" height="2" rx="1" transform="rotate(-135 33.1855 27.4141)" fill="#353742"/>
</svg>
