<svg width="1420" height="303" viewBox="0 0 1420 303" fill="none" xmlns="http://www.w3.org/2000/svg">
<path d="M1311.6 5.08668L1413.94 107.427C1416.16 109.646 1417.02 112.881 1416.21 115.912L1378.56 255.928C1377.75 258.951 1375.38 261.312 1372.36 262.125L1232.35 299.772C1229.31 300.587 1226.08 299.722 1223.86 297.503L1121.52 195.163C1119.3 192.943 1118.44 189.708 1119.25 186.677L1156.9 46.6617C1157.71 43.6387 1160.07 41.2774 1163.1 40.4646L1303.11 2.81694C1306.14 2.00199 1309.38 2.86741 1311.6 5.08668Z" stroke="#6231D6" stroke-width="5"/>
<path d="M1305.42 25.1094L1393.91 113.602C1395.75 115.435 1396.46 118.108 1395.79 120.612L1363.23 241.682C1362.56 244.18 1360.61 246.13 1358.11 246.802L1237.04 279.355C1234.54 280.029 1231.87 279.314 1230.03 277.48L1141.54 188.988C1139.71 187.154 1138.99 184.481 1139.67 181.978L1172.22 60.9076C1172.89 58.4101 1174.84 56.4594 1177.34 55.7879L1298.41 23.2343C1300.91 22.561 1303.59 23.276 1305.42 25.1094Z" stroke="#6231D6" stroke-width="5"/>
<path d="M1298.33 48.1049L1370.92 120.693C1372.31 122.084 1372.85 124.111 1372.34 126.009L1345.63 225.321C1345.13 227.214 1343.65 228.694 1341.75 229.203L1242.44 255.906C1240.54 256.416 1238.52 255.874 1237.12 254.484L1164.54 181.895C1163.15 180.505 1162.6 178.478 1163.11 176.579L1189.82 77.2683C1190.33 75.3744 1191.81 73.8951 1193.7 73.3859L1293.01 46.6829C1294.91 46.1724 1296.94 46.7145 1298.33 48.1049Z" stroke="#6231D6" stroke-width="5"/>
<path d="M1290.84 72.3756L1346.65 128.179C1347.57 129.101 1347.93 130.446 1347.59 131.707L1327.06 208.053C1326.72 209.31 1325.74 210.292 1324.48 210.629L1248.14 231.158C1246.88 231.496 1245.53 231.137 1244.61 230.214L1188.81 174.411C1187.88 173.488 1187.52 172.143 1187.86 170.883L1208.39 94.5366C1208.73 93.2798 1209.71 92.2981 1210.97 91.9601L1287.31 71.4319C1288.57 71.0931 1289.92 71.4529 1290.84 72.3756Z" stroke="#6231D6" stroke-width="5"/>
<path d="M1283.01 97.7687L1321.25 136.01C1321.69 136.444 1321.86 137.075 1321.7 137.667L1307.63 189.987C1307.47 190.577 1307.01 191.038 1306.42 191.197L1254.1 205.265C1253.51 205.424 1252.88 205.255 1252.44 204.822L1214.2 166.58C1213.77 166.147 1213.6 165.515 1213.76 164.923L1227.83 112.603C1227.98 112.013 1228.45 111.552 1229.04 111.393L1281.36 97.3255C1281.95 97.1663 1282.58 97.3353 1283.01 97.7687Z" stroke="#6231D6" stroke-width="5"/>
<path d="M939.53 5.08668L1041.87 107.427C1044.09 109.646 1044.95 112.881 1044.14 115.912L1006.49 255.928C1005.68 258.951 1003.32 261.312 1000.29 262.125L860.279 299.772C857.248 300.587 854.013 299.722 851.794 297.503L749.454 195.163C747.235 192.943 746.369 189.708 747.184 186.677L784.832 46.6617C785.645 43.6387 788.006 41.2774 791.029 40.4646L931.044 2.81694C934.075 2.00199 937.311 2.86741 939.53 5.08668Z" stroke="#6231D6" stroke-width="5"/>
<path d="M933.354 25.1094L1021.85 113.602C1023.68 115.435 1024.39 118.108 1023.72 120.612L991.168 241.682C990.497 244.18 988.546 246.13 986.048 246.802L864.978 279.355C862.474 280.029 859.801 279.314 857.968 277.48L769.476 188.988C767.642 187.154 766.927 184.481 767.601 181.978L800.154 60.9076C800.826 58.4101 802.776 56.4594 805.274 55.7879L926.344 23.2343C928.848 22.561 931.521 23.276 933.354 25.1094Z" stroke="#6231D6" stroke-width="5"/>
<path d="M926.261 48.1049L998.849 120.693C1000.24 122.084 1000.78 124.111 1000.27 126.009L973.568 225.321C973.059 227.214 971.58 228.694 969.686 229.203L870.375 255.906C868.476 256.416 866.449 255.874 865.059 254.484L792.47 181.895C791.08 180.505 790.538 178.478 791.048 176.579L817.751 77.2683C818.26 75.3744 819.74 73.8951 821.634 73.3859L920.945 46.6829C922.843 46.1724 924.87 46.7145 926.261 48.1049Z" stroke="#6231D6" stroke-width="5"/>
<path d="M918.776 72.3756L974.579 128.179C975.502 129.101 975.862 130.446 975.523 131.707L954.995 208.053C954.657 209.31 953.675 210.292 952.418 210.629L876.072 231.158C874.812 231.496 873.467 231.137 872.544 230.214L816.741 174.411C815.818 173.488 815.458 172.143 815.797 170.883L836.325 94.5366C836.663 93.2798 837.645 92.2981 838.902 91.9601L915.248 71.4319C916.508 71.0931 917.853 71.4529 918.776 72.3756Z" stroke="#6231D6" stroke-width="5"/>
<path d="M910.946 97.7687L949.188 136.01C949.621 136.444 949.79 137.075 949.631 137.667L935.563 189.987C935.404 190.577 934.943 191.038 934.353 191.197L882.033 205.265C881.442 205.424 880.81 205.255 880.376 204.822L842.135 166.58C841.702 166.147 841.533 165.515 841.692 164.923L855.76 112.603C855.918 112.013 856.379 111.552 856.97 111.393L909.289 97.3255C909.881 97.1663 910.513 97.3353 910.946 97.7687Z" stroke="#6231D6" stroke-width="5"/>
<path d="M567.463 5.08668L669.803 107.427C672.023 109.646 672.888 112.881 672.073 115.912L634.425 255.928C633.613 258.951 631.251 261.312 628.228 262.125L488.213 299.772C485.182 300.587 481.947 299.722 479.727 297.503L377.387 195.163C375.168 192.943 374.303 189.708 375.118 186.677L412.765 46.6617C413.578 43.6387 415.939 41.2774 418.962 40.4646L558.978 2.81694C562.009 2.00199 565.244 2.86741 567.463 5.08668Z" stroke="#6231D6" stroke-width="5"/>
<path d="M561.288 25.1094L649.78 113.602C651.614 115.435 652.328 118.108 651.655 120.612L619.102 241.682C618.43 244.18 616.479 246.13 613.982 246.802L492.912 279.355C490.408 280.029 487.735 279.314 485.902 277.48L397.409 188.988C395.576 187.154 394.861 184.481 395.534 181.978L428.088 60.9076C428.759 58.4101 430.71 56.4594 433.207 55.7879L554.277 23.2343C556.781 22.561 559.454 23.276 561.288 25.1094Z" stroke="#6231D6" stroke-width="5"/>
<path d="M554.194 48.1049L626.783 120.693C628.173 122.084 628.715 124.111 628.205 126.009L601.502 225.321C600.992 227.214 599.513 228.694 597.619 229.203L498.308 255.906C496.409 256.416 494.382 255.874 492.992 254.484L420.404 181.895C419.013 180.505 418.471 178.478 418.982 176.579L445.685 77.2683C446.194 75.3744 447.673 73.8951 449.567 73.3859L548.878 46.6829C550.777 46.1724 552.804 46.7145 554.194 48.1049Z" stroke="#6231D6" stroke-width="5"/>
<path d="M546.71 72.3756L602.513 128.179C603.435 129.101 603.795 130.446 603.456 131.707L582.928 208.053C582.59 209.31 581.609 210.292 580.352 210.629L504.005 231.158C502.745 231.496 501.4 231.137 500.478 230.214L444.674 174.411C443.752 173.488 443.392 172.143 443.731 170.883L464.259 94.5366C464.597 93.2798 465.579 92.2981 466.835 91.9601L543.182 71.4319C544.442 71.0931 545.787 71.4529 546.71 72.3756Z" stroke="#6231D6" stroke-width="5"/>
<path d="M538.88 97.7687L577.121 136.01C577.555 136.444 577.724 137.075 577.565 137.667L563.497 189.987C563.338 190.577 562.877 191.038 562.287 191.197L509.967 205.265C509.375 205.424 508.743 205.255 508.31 204.822L470.069 166.58C469.635 166.147 469.466 165.515 469.625 164.923L483.693 112.603C483.852 112.013 484.313 111.552 484.903 111.393L537.223 97.3255C537.815 97.1663 538.447 97.3353 538.88 97.7687Z" stroke="#6231D6" stroke-width="5"/>
<path d="M195.397 5.08668L297.737 107.427C299.956 109.646 300.822 112.881 300.007 115.912L262.359 255.928C261.546 258.951 259.185 261.312 256.162 262.125L116.147 299.772C113.116 300.587 109.88 299.722 107.661 297.503L5.32104 195.163C3.10177 192.943 2.23637 189.708 3.05131 186.677L40.6989 46.6617C41.5118 43.6387 43.873 41.2774 46.896 40.4646L186.911 2.81694C189.942 2.00199 193.178 2.86741 195.397 5.08668Z" stroke="#6231D6" stroke-width="5"/>
<path d="M189.221 25.1094L277.714 113.602C279.547 115.435 280.262 118.108 279.589 120.612L247.035 241.682C246.364 244.18 244.413 246.13 241.916 246.802L120.846 279.355C118.342 280.029 115.669 279.314 113.835 277.48L25.3428 188.988C23.5094 187.154 22.7944 184.481 23.4677 181.978L56.0212 60.9076C56.6927 58.4101 58.6435 56.4594 61.1409 55.7879L182.211 23.2343C184.715 22.561 187.388 23.276 189.221 25.1094Z" stroke="#6231D6" stroke-width="5"/>
<path d="M182.128 48.1049L254.716 120.693C256.107 122.084 256.649 124.111 256.138 126.009L229.435 225.321C228.926 227.214 227.447 228.694 225.553 229.203L126.242 255.906C124.343 256.416 122.316 255.874 120.926 254.484L48.3373 181.895C46.947 180.505 46.4048 178.478 46.9154 176.579L73.6183 77.2683C74.1276 75.3744 75.6069 73.8951 77.5007 73.3859L176.812 46.6829C178.711 46.1724 180.738 46.7145 182.128 48.1049Z" stroke="#6231D6" stroke-width="5"/>
<path d="M174.643 72.3756L230.446 128.179C231.369 129.101 231.729 130.446 231.39 131.707L210.862 208.053C210.524 209.31 209.542 210.292 208.285 210.629L131.939 231.158C130.679 231.496 129.334 231.137 128.411 230.214L72.608 174.411C71.6853 173.488 71.3256 172.143 71.6644 170.883L92.1926 94.5366C92.5305 93.2798 93.5122 92.2981 94.769 91.9601L171.115 71.4319C172.376 71.0931 173.721 71.4529 174.643 72.3756Z" stroke="#6231D6" stroke-width="5"/>
<path d="M166.813 97.7687L205.055 136.01C205.488 136.444 205.657 137.075 205.498 137.667L191.43 189.987C191.272 190.577 190.81 191.038 190.22 191.197L137.901 205.265C137.309 205.424 136.677 205.255 136.244 204.822L98.0021 166.58C97.5687 166.147 97.3997 165.515 97.5589 164.923L111.627 112.603C111.785 112.013 112.247 111.552 112.837 111.393L165.156 97.3255C165.748 97.1663 166.38 97.3353 166.813 97.7687Z" stroke="#6231D6" stroke-width="5"/>
</svg>
