<svg viewBox="0 0 1709 596" fill="none" xmlns="http://www.w3.org/2000/svg">
<path d="M1.05382 90.5572C1.74266 92.1809 3.57939 92.8767 5.18667 92.6447L28.8368 182.871C28.8368 182.871 28.6071 182.871 28.6071 183.103C26.5406 184.03 25.8518 186.582 26.7702 188.669C27.4591 190.061 28.8367 190.757 30.2144 190.989L37.3323 290.956C36.8731 290.956 36.6435 291.188 36.4139 291.42C34.3474 292.348 33.6587 294.899 34.5771 296.987C35.4955 299.074 38.0211 299.77 40.0876 298.842C40.5468 298.61 41.0061 298.147 41.4654 297.683L102.083 334.33C101.623 335.489 101.623 336.649 102.083 337.809C103.001 339.896 105.527 340.592 107.593 339.664C108.053 339.432 108.282 339.201 108.741 338.969L147.775 367.961C147.087 369.121 147.087 370.513 147.775 371.905C148.235 372.832 148.923 373.528 149.842 373.76L133.31 440.328C132.621 440.328 131.703 440.328 131.014 440.792C128.947 441.719 128.258 444.271 129.177 446.358C130.095 447.982 131.932 448.91 133.539 448.446L150.301 497.154C148.235 498.082 147.546 500.633 148.464 502.721C149.383 504.808 151.908 505.504 153.975 504.576C155.123 504.112 155.812 502.952 156.041 502.025L218.496 509.447C218.496 510.143 218.725 510.607 218.955 511.302C219.873 513.39 222.399 514.086 224.465 513.158C226.532 512.23 227.221 509.679 226.302 507.591C226.302 507.591 226.302 507.359 226.073 507.359L327.331 427.571L327.561 427.803L327.791 427.107L329.398 425.715L328.02 425.947L346.848 351.957C347.537 351.957 348.456 351.957 349.145 351.494C350.752 350.798 351.441 349.174 351.441 347.55L409.762 333.866C409.762 334.098 409.762 334.098 409.992 334.33C410.91 336.417 413.436 337.113 415.502 336.185C417.339 335.257 418.028 333.17 417.569 331.314L580.134 345.231C580.134 345.695 580.363 346.391 580.593 346.855C581.511 348.942 584.037 349.638 586.103 348.71C588.17 347.782 588.859 345.231 587.94 343.144C587.481 342.448 587.022 341.752 586.333 341.52L634.092 214.183C635.011 214.415 635.929 214.415 636.848 213.951C637.766 213.487 638.225 212.791 638.684 212.096L692.873 230.187C692.643 231.115 692.873 232.043 693.332 232.739C694.25 234.826 696.776 235.522 698.843 234.594C700.22 233.898 701.139 232.507 701.139 230.883L752.801 224.621C752.801 224.853 753.031 225.084 753.031 225.548C753.949 227.636 756.475 228.332 758.542 227.404C760.608 226.476 761.297 223.925 760.378 221.837C760.378 221.605 760.149 221.605 760.149 221.373L830.18 158.749C831.328 159.908 833.165 160.14 834.772 159.213C836.839 158.285 837.528 155.733 836.609 153.646C835.921 152.254 834.772 151.558 833.395 151.326L830.869 97.2837C831.328 97.2837 831.788 97.0517 832.247 96.8198C834.084 95.892 835.002 93.8045 834.313 91.717L864.852 79.1921C866 79.424 867.377 78.9602 868.296 78.0324L921.106 120.942C920.877 121.406 920.647 121.638 920.647 122.102C920.188 124.189 921.566 126.509 923.632 126.972C925.239 127.436 926.847 126.74 927.765 125.349L938.327 130.22L996.648 156.661C996.189 158.749 997.567 160.836 999.633 161.532C1001.7 161.996 1004 160.604 1004.46 158.517C1004.68 157.821 1004.68 157.357 1004.46 156.661L1064.61 134.395C1065.07 135.322 1065.99 136.25 1067.37 136.482L1063.92 173.825L1152.78 182.407C1152.78 184.262 1154.16 185.886 1156 186.118C1156.92 186.35 1157.84 186.118 1158.75 185.886L1187.46 228.332C1186.77 228.796 1186.31 229.491 1186.31 230.419C1185.85 232.507 1187.23 234.826 1189.29 235.29C1190.21 235.522 1191.36 235.29 1192.05 234.826L1241.64 302.322C1241.18 302.786 1240.73 303.481 1240.5 304.409C1240.04 306.497 1241.41 308.816 1243.48 309.28C1245.55 309.744 1247.84 308.352 1248.3 306.265C1248.53 305.337 1248.3 304.641 1248.07 303.713L1295.83 275.648C1296.29 276.344 1297.21 276.808 1298.13 277.04C1299.97 277.504 1301.8 276.576 1302.72 274.72L1428.55 313.687L1428.78 313.223C1428.55 314.615 1428.78 316.006 1429.7 316.934L1396.86 357.524C1396.4 357.292 1396.17 357.06 1395.71 357.06C1393.65 356.596 1391.35 357.988 1390.89 360.076C1390.43 362.163 1391.81 364.482 1393.88 364.946C1395.25 365.178 1396.4 364.946 1397.32 364.019L1479.75 440.56C1479.52 441.024 1479.29 441.488 1479.29 441.952C1478.83 443.575 1479.52 445.199 1480.9 446.126L1456.79 487.412C1456.56 487.412 1456.56 487.412 1456.33 487.18C1454.26 486.717 1451.97 488.108 1451.51 490.196C1451.05 492.283 1452.43 494.603 1454.49 495.067C1455.64 495.298 1456.79 495.067 1457.71 494.371L1554.6 589.236C1554.37 589.699 1553.92 590.163 1553.92 590.859C1553.46 592.947 1554.83 595.266 1556.9 595.73C1558.97 596.194 1561.26 594.802 1561.72 592.715C1562.18 591.091 1561.26 589.236 1559.89 588.308L1598.69 503.88L1598.92 503.88C1600.99 504.344 1603.28 502.953 1603.74 500.865C1603.97 499.473 1603.51 497.85 1602.59 496.922L1660.23 415.742C1660.45 415.974 1660.91 415.974 1661.14 416.206C1663.21 416.67 1665.51 415.278 1665.97 413.191C1666.42 411.103 1665.05 408.784 1662.98 408.32C1662.29 408.088 1661.83 408.088 1661.14 408.32L1637.72 341.288C1638.87 340.824 1639.56 339.896 1639.79 338.505C1640.25 336.417 1638.87 334.098 1636.8 333.634C1636.35 333.634 1635.89 333.402 1635.43 333.634L1623.95 286.318C1625.09 285.854 1626.01 284.694 1626.47 283.534C1626.7 282.606 1626.47 281.447 1626.01 280.751L1681.12 240.393C1681.58 240.857 1682.27 241.321 1683.19 241.552C1685.25 242.016 1687.55 240.625 1688.01 238.537C1688.47 236.682 1687.55 234.826 1685.94 234.13L1703.85 186.118C1705.92 186.582 1707.98 185.19 1708.67 182.871C1709.13 180.783 1707.75 178.464 1705.69 178C1704.54 177.768 1703.39 178 1702.47 178.696L1659.54 132.075C1660 131.611 1660.23 130.916 1660.45 130.452C1660.91 128.364 1659.54 126.045 1657.47 125.581C1655.4 125.117 1653.11 126.509 1652.65 128.596L1652.65 128.828L1524.75 124.653L1524.75 124.189L1524.3 124.653L1522.23 124.653L1523.38 125.349L1462.3 169.882C1461.84 169.418 1461.15 168.954 1460.23 168.722C1458.63 168.258 1457.02 168.954 1456.1 170.346L1402.6 143.208C1402.6 142.977 1402.6 142.977 1402.83 142.745C1403.29 140.657 1401.91 138.338 1399.85 137.874C1397.78 137.41 1395.94 138.57 1395.25 140.425L1279.3 25.1493C1279.53 24.6854 1279.99 24.2216 1279.99 23.5257C1280.45 21.4382 1279.07 19.1188 1277 18.6549C1274.94 18.191 1272.64 19.5827 1272.18 21.6702C1271.95 22.5979 1272.18 23.2938 1272.41 23.9896L1155.08 90.3254C1154.62 89.6296 1153.7 88.9337 1152.78 88.7018C1151.87 88.4698 1150.95 88.7018 1150.26 88.9337L1120.18 40.2256C1120.87 39.7618 1121.33 38.834 1121.56 37.9062C1122.02 35.8187 1120.64 33.4993 1118.57 33.0354C1116.96 32.8034 1115.59 33.2673 1114.67 34.4271L1071.27 5.89801C1071.5 5.66607 1071.5 5.43416 1071.5 4.97027C1071.96 2.88278 1070.58 0.563358 1068.52 0.0994712C1066.45 -0.364416 1064.15 1.02721 1063.7 3.1147C1063.7 3.34665 1063.7 3.34665 1063.7 3.57859L970.473 6.36189C970.243 4.73829 969.095 3.34664 967.488 3.11469C965.421 2.65081 963.125 4.04248 962.666 6.12997C962.436 7.52163 962.896 8.91324 963.814 9.84102L931.668 52.9825C931.209 52.7506 930.98 52.5186 930.291 52.5186C928.224 52.0547 926.387 53.2144 925.699 55.07L872.429 37.6742L872.429 37.4423C872.888 35.3548 871.51 33.0354 869.444 32.5715C868.066 32.3395 866.688 32.8034 865.77 33.7312C865.081 34.427 864.622 35.3548 864.392 36.2826L795.968 38.3701C795.968 37.9062 795.739 37.4423 795.509 37.2103C794.591 35.1229 792.065 34.427 789.998 35.3548C788.621 36.0506 787.702 37.6742 787.702 39.2978L776.451 42.3131L714.686 59.7088C713.538 57.8533 711.242 56.9255 709.405 58.0852C707.338 59.013 706.649 61.5644 707.568 63.6519C707.797 64.3477 708.257 64.8116 708.716 65.0435L676.341 121.174C675.193 120.71 674.045 120.71 672.896 121.406L651.772 90.3254L577.608 141.353C576.46 139.961 574.393 139.497 572.786 140.425C571.867 140.889 571.179 141.585 570.949 142.513L521.812 128.364C522.042 127.436 521.812 126.74 521.353 125.813C520.435 123.725 517.909 123.029 515.842 123.957C514.924 124.421 514.235 125.117 514.006 126.045L432.723 106.097C432.723 105.402 432.723 104.474 432.264 103.778C431.345 101.691 428.82 100.995 426.753 101.923C424.687 102.85 423.998 105.402 424.916 107.489C425.376 108.185 425.835 108.881 426.753 109.345L407.696 161.764C406.777 161.532 405.859 161.764 404.94 161.996C403.103 162.924 402.414 164.779 402.874 166.635L280.95 218.358L281.18 218.822C280.491 217.662 279.343 216.734 277.965 216.734L277.506 164.083C277.965 164.083 278.424 163.851 278.883 163.619C280.95 162.692 281.639 160.14 280.72 158.053C279.802 155.965 277.276 155.269 275.21 156.197C274.062 156.893 273.373 157.821 273.143 159.212L160.863 153.646C160.863 153.182 160.634 152.718 160.404 152.254C159.715 150.863 158.108 149.935 156.501 149.935L148.924 102.386C149.153 102.386 149.153 102.154 149.383 102.154C151.449 101.227 152.138 98.6753 151.22 96.5878C150.301 94.5003 147.775 93.8045 145.709 94.7322C144.561 95.1961 143.872 96.1239 143.642 97.2836L8.8605 86.8462C8.8605 86.3823 8.63091 85.6864 8.4013 85.2225C7.48285 83.135 4.95715 82.4392 2.89065 83.367C0.824144 86.1503 -0.0942331 88.4698 1.05382 90.5572ZM39.3988 290.956C38.9396 290.724 38.4804 290.724 38.2507 290.724L31.133 190.757C31.5922 190.757 31.8216 190.525 32.0512 190.293C32.5104 190.061 32.9698 189.597 33.429 189.133L80.2696 216.502L39.3988 290.956ZM154.434 367.498C154.204 367.034 153.745 366.338 153.286 366.106L173.033 330.851L157.189 374.224L154.204 371.673C155.123 370.513 155.123 368.889 154.434 367.498ZM140.657 286.781C140.887 286.781 141.117 286.549 141.346 286.317L172.803 322.269C172.114 322.964 171.885 324.124 171.885 325.052L145.939 328.995L140.198 287.013C140.198 287.013 140.428 286.781 140.657 286.781ZM137.213 279.359L113.563 243.64L140.657 279.359C139.739 278.895 138.361 278.895 137.213 279.359ZM142.953 282.374L166.604 313.687L142.265 285.622C142.724 284.694 143.183 283.534 142.953 282.374ZM171.885 326.212C171.885 326.444 172.114 326.676 172.114 326.908C172.344 327.603 172.803 328.067 173.262 328.299L152.368 365.642C151.908 365.41 151.449 365.41 150.76 365.41L145.939 330.155L171.885 326.212ZM174.87 328.995C175.558 329.227 176.477 329.227 177.166 328.763L236.176 442.415L236.176 442.879L235.946 443.111L158.337 374.92L174.87 328.995ZM178.084 328.299C178.314 328.067 178.543 327.835 178.773 327.603L250.871 373.528L238.472 441.951C238.013 441.951 237.324 441.951 236.865 442.183L178.084 328.299ZM257.53 319.485C257.07 320.181 256.841 320.877 256.841 321.573L179.691 324.356C179.691 323.892 179.462 323.66 179.232 323.196C179.232 323.196 179.232 322.964 179.002 322.964L223.547 287.477L257.53 319.485ZM195.764 259.644C195.994 259.18 196.223 258.716 196.453 258.252L246.508 265.443C246.508 266.138 246.738 266.834 246.968 267.298C246.968 267.298 246.967 267.53 247.197 267.53L224.006 286.085L195.764 259.644ZM343.404 349.406L275.669 384.198C275.21 383.502 274.521 383.038 273.832 382.806L287.609 330.387L343.175 347.319C343.175 348.014 343.175 348.71 343.404 349.406ZM272.914 382.574C272.684 382.574 272.454 382.574 272.225 382.574L262.122 325.98C262.351 325.98 262.581 325.748 262.811 325.748C263.729 325.284 264.418 324.588 264.648 323.66L286.69 330.387L272.914 382.574ZM271.077 382.574C270.847 382.574 270.617 382.806 270.388 382.806C269.929 383.038 269.469 383.502 269.01 383.734L252.019 372.832L260.515 325.748C260.744 325.748 260.744 325.748 260.974 325.748L271.077 382.574ZM251.33 372.368L179.462 326.676C179.691 326.212 179.691 325.748 179.921 325.284L257.07 322.501C257.07 322.964 257.3 323.196 257.53 323.66C257.989 324.588 258.907 325.284 259.826 325.748L251.33 372.368ZM252.019 374.224L268.781 384.893C268.321 386.053 268.321 387.213 268.781 388.373C269.01 388.836 269.469 389.3 269.929 389.764L261.663 404.377L240.079 442.183L239.85 442.183L252.019 374.224ZM270.847 390.228C271.995 390.692 273.143 390.692 274.291 389.996C275.898 389.068 276.817 387.213 276.358 385.357L291.282 397.65L241.227 442.879C241.227 442.879 241.227 442.879 240.998 442.647L270.847 390.228ZM277.047 384.661L343.863 350.334L291.971 397.186L277.047 384.661ZM343.634 346.391L288.068 329.227L304.141 267.298C304.83 267.298 305.289 267.298 305.978 267.066L345.011 344.535C344.323 345.231 343.863 345.695 343.634 346.391ZM286.92 328.995L264.877 322.269C264.877 321.573 264.877 320.645 264.418 319.949C264.188 319.485 263.959 319.253 263.729 318.789L302.533 266.834C302.763 266.834 302.763 267.066 302.993 267.066L286.92 328.995ZM262.581 318.326C262.352 318.326 262.122 318.094 261.892 318.094L270.617 265.211L300.467 264.283C300.467 264.747 300.697 264.979 300.926 265.443C301.156 265.906 301.385 266.138 301.615 266.602L262.581 318.326ZM269.929 264.051L254.545 264.515C254.545 264.283 254.315 264.051 254.315 263.819C254.085 263.355 253.626 262.891 253.167 262.427L275.899 225.548C276.128 225.548 276.128 225.78 276.358 225.78L269.929 264.051ZM254.545 265.443L269.699 264.979L260.974 317.862C260.744 317.862 260.515 317.862 260.055 317.862L251.789 269.386C252.019 269.386 252.019 269.386 252.249 269.154C253.856 268.458 254.545 267.066 254.545 265.443ZM259.137 318.094C258.678 318.326 258.448 318.558 258.218 318.558L224.465 286.781L247.656 268.458C248.575 269.386 249.723 269.617 250.871 269.617L259.137 318.094ZM246.738 264.515L196.683 257.325C196.683 256.629 196.453 255.933 196.223 255.469C195.994 255.237 195.994 255.005 195.764 254.541L218.496 228.564L247.656 262.891C247.197 263.355 246.738 263.819 246.738 264.515ZM223.088 286.781L178.773 322.037C178.314 321.573 177.854 321.341 177.395 321.109L192.32 261.268C193.009 261.268 193.927 261.268 194.616 260.804C194.846 260.572 195.075 260.572 195.305 260.34L223.088 286.781ZM176.247 320.877C175.558 320.877 174.64 320.877 173.951 321.341L173.721 321.341L106.905 232.738C107.364 232.275 107.593 232.043 107.823 231.579L188.417 256.397C188.187 257.324 188.417 258.02 188.876 258.948C189.335 259.876 190.024 260.572 190.942 260.804L176.247 320.877ZM188.876 255.469L108.282 230.651C108.512 229.723 108.282 228.795 107.823 228.1C107.593 227.636 107.364 227.172 106.905 226.94L124.814 201.194L189.105 255.005C188.876 255.237 188.876 255.469 188.876 255.469ZM96.8018 181.247C96.8018 181.479 97.0313 181.943 97.0313 182.175C97.2609 182.871 97.7202 183.335 98.1794 183.567L80.7288 215.575L33.8882 188.205C34.1178 187.741 34.1179 187.278 34.1179 186.814L96.8018 181.247ZM37.1026 185.654L150.99 157.125L104.149 178.232C103.001 176.376 100.705 175.68 98.8683 176.608C97.4906 177.304 96.8017 178.696 96.5721 180.087L37.1026 185.654ZM99.0978 184.03C99.557 184.262 100.016 184.262 100.246 184.262L103.001 225.78C102.772 225.78 102.312 226.012 102.083 226.012C101.623 226.244 101.164 226.708 100.705 227.172L81.4177 215.807L99.0978 184.03ZM101.394 184.262C101.853 184.262 102.083 184.03 102.542 183.798C103.001 183.566 103.231 183.335 103.461 183.103L124.126 200.498L106.216 226.244C105.757 226.012 105.068 225.78 104.379 225.78L101.394 184.262ZM124.585 199.803L103.92 182.639C104.608 181.711 104.608 180.551 104.379 179.392L152.827 157.589C153.056 157.821 153.286 158.285 153.516 158.517L124.585 199.803ZM152.597 155.501L34.1179 185.19C34.1179 184.958 34.1178 184.958 33.8882 184.726C33.8882 184.726 33.8882 184.726 33.8882 184.494L103.92 132.539L152.827 153.878C152.597 154.574 152.597 155.038 152.597 155.501ZM40.547 291.652C40.3173 291.652 40.3173 291.652 40.547 291.652L81.1882 216.966L100.475 228.332C100.016 229.491 100.016 230.651 100.705 231.811C100.705 232.043 100.935 232.275 101.164 232.507L40.547 291.652ZM41.2357 292.348L101.853 232.97C102.542 233.434 103.231 233.666 103.92 233.898L104.608 286.549L42.1543 293.74C42.1543 293.508 41.9246 293.044 41.9246 292.812C41.4653 292.812 41.2357 292.58 41.2357 292.348ZM103.69 331.778C103.231 332.01 102.772 332.474 102.312 332.938L41.6949 296.523C41.9245 296.059 41.9246 295.595 41.9246 294.899L104.379 287.709L104.838 331.546C104.609 331.546 104.149 331.778 103.69 331.778ZM104.838 233.898C105.297 233.898 105.527 233.666 105.986 233.666L136.524 279.823C135.606 280.519 134.917 281.679 134.917 283.07L105.527 286.549L104.838 233.898ZM107.134 331.778C106.675 331.546 106.216 331.546 105.986 331.314L105.527 287.245L135.147 283.766C135.147 283.998 135.376 284.462 135.376 284.694C135.606 285.158 136.065 285.622 136.295 285.854L107.134 331.778ZM108.053 332.474L137.213 286.781C137.902 287.013 138.361 287.245 139.05 287.245L144.79 329.227L109.43 334.562C109.43 334.33 109.201 334.098 109.201 333.866C108.741 333.17 108.512 332.706 108.053 332.474ZM149.153 365.874C148.694 366.106 148.464 366.338 148.005 366.802L108.971 337.809C109.201 337.113 109.43 336.417 109.43 335.721L144.79 330.387L149.612 365.642C149.612 365.642 149.383 365.642 149.153 365.874ZM150.531 373.528C151.22 373.528 152.138 373.528 152.827 373.064C153.056 372.832 153.516 372.6 153.745 372.368L156.96 375.152L135.376 434.297L150.531 373.528ZM157.649 376.079L235.028 443.807C234.798 444.271 234.569 444.967 234.339 445.431L136.295 443.343C136.295 442.879 136.065 442.415 135.836 441.951C135.376 441.256 134.917 440.56 133.999 440.096L157.649 376.079ZM234.798 447.75L182.906 479.99L135.836 445.894C136.065 445.431 136.295 444.967 136.295 444.503L234.339 446.59C234.569 447.054 234.568 447.286 234.798 447.75ZM150.76 496.226L133.999 447.518C134.458 447.286 134.688 447.054 135.147 446.59L181.987 480.454L154.893 497.386C153.745 496.458 152.368 495.994 150.76 496.226ZM218.496 508.287L155.582 500.169C155.582 499.705 155.353 499.009 155.123 498.546L182.676 481.382L218.725 507.591C218.725 507.823 218.496 508.055 218.496 508.287ZM220.562 505.736C220.103 505.968 219.873 506.2 219.414 506.664L183.824 480.686L234.568 449.142L222.629 505.504C221.94 505.272 221.251 505.504 220.562 505.736ZM225.154 506.432C224.695 505.968 224.236 505.736 223.777 505.504L235.717 449.142C236.865 450.301 238.701 450.533 240.309 449.837C241.916 449.142 242.605 447.518 242.605 445.894L325.265 428.035L225.154 506.432ZM242.146 444.735C242.146 444.503 241.916 444.503 241.916 444.271C241.916 444.039 241.686 444.039 241.686 443.807L291.971 398.578L325.954 426.643L242.146 444.735ZM326.872 425.947L292.66 397.882L344.323 351.262C344.782 351.494 345.012 351.725 345.471 351.957L326.872 425.947ZM348.456 344.303C347.537 344.071 346.619 344.071 345.7 344.303L306.667 266.834C306.896 266.602 307.355 266.37 307.585 266.138L368.432 304.873L348.456 344.303ZM308.503 262.891L358.099 250.134L372.795 246.423L398.97 239.697C399.429 240.393 399.889 241.088 400.577 241.32L368.891 303.945L308.044 265.443C308.503 264.515 308.733 263.587 308.503 262.891ZM409.303 332.938L350.981 346.623C350.981 346.391 350.981 346.391 350.752 346.159C350.522 345.463 350.063 344.999 349.374 344.535L369.35 305.105L409.762 330.619C409.532 331.314 409.303 332.242 409.303 332.938ZM411.599 328.763C411.14 328.995 410.68 329.459 410.221 329.691L369.81 304.177L401.496 241.552C401.955 241.552 402.185 241.784 402.644 241.784L404.481 257.556L412.288 328.531C412.058 328.531 411.828 328.763 411.599 328.763ZM413.436 328.299L405.629 258.02L403.792 241.32C404.022 241.32 404.251 241.088 404.481 241.088C405.17 240.625 405.629 240.161 406.088 239.465L439.382 252.222L414.125 328.299C413.895 328.299 413.665 328.299 413.436 328.299ZM553.728 271.937C553.499 271.937 553.269 271.937 553.039 271.937L543.396 232.275L536.737 204.905C536.967 204.905 536.967 204.905 537.196 204.673C538.344 204.209 539.033 203.05 539.263 201.89L564.52 204.21L553.728 271.937ZM565.668 204.441L631.107 210.472C631.107 210.936 631.337 211.632 631.566 212.096C631.566 212.096 631.566 212.328 631.796 212.328L556.484 273.097C556.024 272.633 555.335 272.401 554.876 272.169L565.668 204.441ZM542.477 232.971L552.121 271.937C551.891 271.937 551.891 271.937 551.662 272.169C551.202 272.401 550.743 272.865 550.284 273.329L497.244 240.393L532.834 204.441C533.752 205.137 534.67 205.369 535.819 205.369L542.477 232.971ZM476.808 264.515C476.808 263.819 476.579 263.355 476.349 262.659C476.12 262.427 476.12 262.195 475.89 261.963L496.555 241.088L549.825 274.256C549.825 274.488 549.595 274.72 549.595 274.952L476.808 264.515ZM549.595 276.808L511.709 292.116L476.349 266.602C476.579 266.37 476.579 265.906 476.808 265.674L549.595 275.88C549.366 276.112 549.595 276.576 549.595 276.808ZM475.201 261.268C474.283 260.572 472.905 260.34 471.757 260.572L454.536 216.502C454.766 216.271 454.995 215.807 454.995 215.343L495.407 240.393L475.201 261.268ZM496.325 239.697L455.225 214.183C455.225 213.951 455.225 213.719 455.225 213.487L531.226 202.122C531.226 202.354 531.456 202.586 531.456 202.818C531.686 203.05 531.686 203.282 531.915 203.514L496.325 239.697ZM531.226 201.194L480.712 208.616L454.995 212.328C454.995 212.328 454.995 212.328 454.995 212.096C454.766 211.632 454.536 211.4 454.307 211.168L491.504 162.692L531.915 198.411C531.456 199.571 531.226 200.266 531.226 201.194ZM470.839 261.036C470.15 261.5 469.691 261.963 469.231 262.659L440.759 251.758L451.781 218.358C452.24 218.358 452.699 218.126 453.159 217.894C453.388 217.662 453.618 217.662 453.847 217.43L470.839 261.036ZM439.611 251.294L406.547 238.769C406.777 238.073 406.777 237.377 406.547 236.682L447.877 216.502C448.566 217.43 449.485 218.126 450.633 218.358L439.611 251.294ZM447.418 215.343L406.318 235.522C405.858 234.594 404.94 233.898 404.022 233.666L415.273 176.376L448.107 211.632C447.418 212.791 446.959 214.183 447.418 215.343ZM415.732 328.995C415.502 328.995 415.502 328.763 415.273 328.763L440.53 252.686L469.002 263.587C468.772 264.515 468.772 265.443 469.231 266.37C469.461 266.602 469.461 266.834 469.691 267.066L415.732 328.995ZM416.65 330.155C416.65 329.923 416.421 329.923 416.421 329.691L470.379 267.994C471.527 268.922 473.135 268.922 474.512 268.226C474.972 267.994 475.431 267.762 475.66 267.298L510.332 292.58L416.65 330.155ZM579.904 344.071L419.406 330.155L511.709 293.276L580.363 343.144C580.134 343.376 579.904 343.839 579.904 344.071ZM580.822 342.216L512.628 292.812L550.054 277.967C550.973 279.591 553.039 280.519 554.647 279.823L581.741 341.52C581.282 341.752 581.052 341.984 580.822 342.216ZM584.726 341.056C584.037 340.824 583.348 340.824 582.659 341.056L555.565 279.359C557.402 278.199 558.091 275.88 557.172 274.024C557.172 274.024 557.172 273.793 556.943 273.793L632.255 213.023C632.485 213.255 632.714 213.487 633.174 213.719L584.726 341.056ZM638.684 208.385C638.455 207.689 637.766 207.225 637.307 206.761L647.41 184.726L692.413 209.312C692.413 209.544 692.184 210.008 692.184 210.24L639.144 209.776C639.144 209.312 638.914 208.848 638.684 208.385ZM695.169 227.172C694.25 227.636 693.791 228.332 693.332 229.027L639.144 210.936L639.144 210.704L692.184 211.168C692.184 211.632 692.413 212.096 692.643 212.56C693.332 213.951 694.48 214.647 695.858 214.879L696.317 226.708C695.858 226.94 695.398 226.94 695.169 227.172ZM699.302 227.636C698.613 227.172 697.924 226.94 697.235 226.708L696.776 214.879C697.235 214.879 697.465 214.647 697.924 214.415C698.843 213.951 699.531 213.023 699.991 212.096L711.93 214.647L699.302 227.636ZM699.761 209.08C699.761 208.848 699.761 208.848 699.761 209.08L778.288 147.383L712.849 213.951L700.22 211.168C700.22 210.472 700.22 209.776 699.761 209.08ZM752.342 166.171L699.072 207.921C698.613 207.457 697.924 206.993 697.235 206.761L704.812 130.452L780.355 141.585C780.355 142.281 780.584 142.977 780.814 143.44C780.814 143.44 780.814 143.672 781.043 143.672L752.342 166.171ZM752.572 223.461L700.909 229.723C700.909 229.491 700.679 229.259 700.679 228.796C700.45 228.564 700.45 228.332 700.22 228.1L713.308 214.647L752.572 222.997C752.572 223.461 752.572 223.461 752.572 223.461ZM757.393 219.518C756.475 219.286 755.557 219.518 754.638 219.982C753.72 220.446 753.031 221.373 752.572 222.301L713.997 214.183L781.732 145.064C781.962 145.296 782.192 145.296 782.421 145.528L757.393 219.518ZM783.569 145.76C784.488 145.992 785.406 145.76 786.324 145.296C787.243 144.832 787.932 144.136 788.161 143.208L799.183 146.224L759.001 218.126L783.569 145.76ZM826.277 95.1962C826.277 95.4281 826.506 95.4281 826.506 95.66L786.784 138.57C786.324 138.338 785.865 138.106 785.176 137.874L789.08 82.9032L826.047 92.6448C825.818 93.3406 825.818 94.2684 826.277 95.1962ZM787.932 139.961C787.702 139.729 787.702 139.497 787.472 139.265L827.195 96.5879L799.642 145.76L788.391 142.513C788.391 141.585 788.391 140.657 787.932 139.961ZM759.23 220.446L759.001 220.214L800.101 146.688L828.573 154.806C828.343 155.501 828.573 156.429 829.032 157.357C829.032 157.589 829.262 157.589 829.262 157.821L759.23 220.446ZM832.017 151.558C831.558 151.558 831.328 151.79 830.869 152.022C829.951 152.486 829.262 153.182 829.032 154.11L800.79 145.992L828.114 97.0517C828.573 97.2837 829.032 97.5156 829.491 97.5156L832.017 151.558ZM833.624 91.4851C833.395 91.0212 833.165 90.5573 832.706 90.3254L853.83 59.013L865.311 62.4922L864.392 71.538C862.555 71.538 860.948 72.9296 860.719 74.7851C860.259 76.6407 861.178 78.2643 862.555 79.1921L833.165 91.2531L833.624 91.4851ZM866.459 62.7241L885.746 68.5227C885.746 68.7547 885.746 68.9866 885.746 69.2185L868.525 74.0894C868.066 72.9296 866.918 72.0019 865.77 71.7699L866.459 62.7241ZM868.525 76.4088C868.525 75.9449 868.755 75.481 868.525 75.0171L882.302 71.0741L868.525 76.4088ZM886.665 66.4352C886.435 66.6672 886.205 67.131 885.976 67.363L866.688 61.5644L868.525 41.3853C868.985 41.3853 869.214 41.1534 869.673 40.9214L881.154 57.8533L886.665 66.4352ZM867.377 41.3853L865.54 61.1005L854.519 57.8533L866 40.9214C866.459 41.3853 866.918 41.3853 867.377 41.3853ZM921.795 120.014L868.296 77.8004L885.746 70.6102L885.746 70.8421C886.665 72.6977 888.731 73.3935 890.568 72.9297L921.795 120.014ZM996.878 155.733L980.805 148.311L928.454 124.421C928.454 124.189 928.684 123.957 928.684 123.725C928.913 122.334 928.683 121.174 927.765 120.014L953.482 92.8767L997.337 155.038C997.337 155.27 997.108 155.501 996.878 155.733ZM998.256 154.11L954.17 92.1809L992.056 52.2867C992.515 52.5186 992.975 52.7506 993.664 52.9825C993.893 52.9825 994.123 52.9825 994.352 52.9825L999.633 153.414C998.945 153.878 998.485 153.878 998.256 154.11ZM1034.08 51.1269L1101.35 53.4464C1101.35 54.1422 1101.81 54.8381 1102.04 55.5339L1048.08 109.113L997.337 51.8228C997.797 51.3589 998.026 50.6631 998.256 49.9672L998.256 49.7353L1034.08 51.1269ZM1002.39 49.0395L1094.46 40.2256L1102.5 50.4311C1102.04 50.895 1101.58 51.5909 1101.35 52.2867L1101.35 52.5186L1002.39 49.0395ZM995.271 45.3284C994.352 45.0964 993.434 45.3284 992.515 45.7923L986.086 36.2826L1062.09 7.28968L997.337 46.952C996.878 46.0242 996.189 45.5603 995.271 45.3284ZM991.597 46.2562C990.908 46.7201 990.449 47.4159 990.449 48.3436C990.449 48.5756 990.449 49.0395 990.449 49.2714L933.046 56.4617L985.168 36.5145L991.597 46.2562ZM1002.85 154.11C1002.39 153.878 1001.93 153.646 1001.47 153.646C1001.01 153.646 1000.55 153.414 1000.32 153.646L995.041 53.4464C995.5 53.4464 996.189 53.2144 996.648 52.7505L1047.39 109.809L1002.85 154.11ZM1064.38 131.379C1064.15 132.075 1064.15 132.539 1064.38 133.235L1004.23 155.501C1004 155.27 1004 155.038 1003.77 154.806L1048.31 110.736L1065.3 129.988C1064.84 130.22 1064.38 130.915 1064.38 131.379ZM1065.99 129.06L1049 109.809L1102.96 56.2297L1103.19 56.4617L1091.48 81.2796L1069.44 128.364C1069.21 128.364 1069.21 128.364 1068.98 128.364C1068.06 128.132 1066.91 128.364 1065.99 129.06ZM1147.96 94.2684L1126.38 104.474L1107.32 56.6936C1107.55 56.4617 1107.78 56.4617 1108.01 56.2297L1148.42 90.7893C1148.19 91.2532 1147.96 91.7171 1147.96 92.1809C1147.73 92.8768 1147.73 93.5726 1147.96 94.2684ZM1125.46 104.938L1071.73 130.452C1071.5 129.988 1071.04 129.524 1070.58 129.06L1092.63 81.7435L1104.11 57.1575L1104.34 57.1575C1105.03 57.3894 1105.71 57.3894 1106.17 57.1575L1125.46 104.938ZM1153.01 181.247L1065.07 172.665L1068.29 136.482C1069.44 136.482 1070.58 135.786 1071.27 134.859L1153.01 180.551C1153.01 180.783 1153.01 181.015 1153.01 181.247ZM1153.7 179.624L1071.96 133.931C1071.96 133.699 1072.19 133.467 1072.19 133.235C1072.42 132.539 1072.42 131.843 1072.19 131.147L1125.92 105.866L1154.85 178.696C1154.39 178.928 1153.93 179.392 1153.7 179.624ZM1191.36 227.404C1191.13 227.404 1191.13 227.404 1190.9 227.404C1189.98 227.172 1189.06 227.404 1188.14 227.636L1159.44 185.19C1160.13 184.726 1160.59 184.031 1160.59 183.103C1160.82 182.639 1160.82 181.943 1160.59 181.479L1218.45 165.707C1218.68 166.403 1219.37 167.099 1220.06 167.562L1191.36 227.404ZM1297.9 205.369L1327.29 187.046L1344.74 217.894C1344.05 218.358 1343.59 218.822 1343.36 219.518L1299.05 208.385C1299.05 207.457 1298.82 206.297 1297.9 205.369ZM1297.21 204.673C1296.75 204.441 1296.29 204.21 1295.83 204.21C1295.6 204.21 1295.37 204.21 1294.91 204.21L1309.38 159.908C1310.07 160.14 1310.99 159.908 1311.68 159.676L1326.6 186.35L1297.21 204.673ZM1291.01 208.385L1232 221.373L1223.73 168.026C1224.42 167.794 1225.11 167.331 1225.8 166.635L1269.2 193.308L1291.24 206.761C1291.24 206.761 1291.24 206.761 1291.24 206.993C1291.01 207.689 1291.01 207.921 1291.01 208.385ZM1226.03 165.707C1226.03 165.475 1226.26 165.243 1226.26 165.011C1226.26 164.779 1226.26 164.547 1226.26 164.315L1276.32 159.445L1291.7 205.369C1291.47 205.601 1291.47 205.833 1291.24 206.065L1226.03 165.707ZM1277.69 159.445L1306.39 156.661C1306.62 157.821 1307.54 158.749 1308.46 159.445L1293.77 204.21C1293.31 204.21 1293.08 204.441 1292.62 204.673L1277.69 159.445ZM1308 152.486L1258.86 97.7476C1259.09 97.5157 1259.32 97.2837 1259.32 96.8198L1297.9 109.577L1308.69 151.79C1308.46 152.022 1308.23 152.254 1308 152.486ZM1307.08 153.182C1306.62 153.646 1306.39 154.11 1306.16 154.806C1306.16 155.038 1306.16 155.27 1306.16 155.733L1277.23 158.517L1257.26 98.9073C1257.49 98.9073 1257.72 98.6754 1257.72 98.6754L1307.08 153.182ZM1276.32 158.517L1226.49 163.156C1226.26 162.228 1225.57 161.3 1224.88 160.604L1237.28 134.859L1254.5 98.9073C1254.73 98.9073 1254.73 98.9073 1254.96 98.9073C1255.42 99.1393 1256.11 99.1393 1256.57 98.9073L1276.32 158.517ZM1235.9 135.09L1223.73 160.372C1223.5 160.372 1223.5 160.372 1223.27 160.372C1222.13 160.14 1220.75 160.372 1219.83 161.068L1201.92 142.977L1252.89 98.2115C1253.12 98.4434 1253.12 98.4434 1253.35 98.6754L1235.9 135.09ZM1219.14 161.764C1218.91 162.228 1218.45 162.692 1218.45 163.388C1218.45 163.851 1218.22 164.315 1218.45 164.779L1160.59 180.551C1160.36 180.319 1160.36 180.087 1160.13 179.856L1201.23 143.44L1219.14 161.764ZM1192.28 227.868L1221.21 168.026C1221.44 168.026 1221.44 168.026 1221.67 168.026C1221.9 168.026 1222.36 168.026 1222.59 168.026L1230.85 221.605L1193.88 229.723C1193.65 229.027 1192.97 228.332 1192.28 227.868ZM1242.56 301.626L1192.97 234.13C1193.43 233.666 1193.88 232.971 1194.11 232.043C1194.11 231.579 1194.34 231.115 1194.11 230.883L1231.08 222.765L1243.25 301.394C1243.02 301.394 1242.79 301.626 1242.56 301.626ZM1245.32 301.162C1245.09 301.162 1244.63 301.162 1244.4 301.162L1232.23 222.533L1291.24 209.544C1291.47 210.24 1291.93 210.936 1292.62 211.4L1245.78 301.394C1245.78 301.394 1245.55 301.394 1245.32 301.162ZM1247.15 302.322C1246.92 302.09 1246.92 302.09 1246.7 301.858L1293.54 211.864C1293.77 211.864 1293.77 212.096 1294 212.096C1294.22 212.096 1294.45 212.096 1294.68 212.096L1297.67 261.036L1247.15 302.322ZM1295.14 272.169C1294.91 273.097 1295.14 273.793 1295.37 274.72L1250.14 301.394L1297.67 262.195L1298.13 269.154C1296.75 269.386 1295.37 270.545 1295.14 272.169ZM1295.83 212.096C1297.21 211.864 1298.36 210.936 1298.82 209.776L1343.13 220.678C1342.9 221.837 1343.13 222.765 1343.59 223.693L1298.82 260.34L1295.83 212.096ZM1301.34 269.85C1300.88 269.618 1300.42 269.386 1299.97 269.154C1299.74 269.154 1299.51 269.154 1299.28 269.154L1298.82 261.5L1341.52 226.708L1301.34 269.85ZM1429.01 312.759L1302.95 274.025C1303.18 272.865 1302.72 271.705 1302.03 270.777L1344.51 224.853C1344.97 225.084 1345.43 225.316 1345.89 225.548C1347.26 225.78 1348.41 225.548 1349.33 224.621L1429.7 311.367C1429.47 311.599 1429.01 312.063 1429.01 312.759ZM1350.25 223.925C1350.25 223.693 1350.48 223.693 1350.48 223.461L1412.24 253.15L1434.52 263.819C1434.52 264.051 1434.52 264.051 1434.52 264.283C1434.06 266.37 1435.44 268.69 1437.5 269.154L1433.14 310.208C1432.22 310.208 1431.3 310.44 1430.61 310.904L1350.25 223.925ZM1350.71 219.982L1414.31 192.38L1436.58 261.036C1435.89 261.268 1435.44 261.963 1434.98 262.427L1388.82 240.393L1375.28 233.898L1350.94 222.301C1350.94 221.605 1350.94 220.678 1350.71 219.982ZM1533.25 170.578L1600.07 168.258L1600.07 168.49L1544.04 189.597C1543.58 188.669 1542.66 187.742 1541.29 187.51C1539.45 187.046 1537.61 187.974 1536.92 189.597L1533.25 170.578ZM1536.01 189.829L1462.99 173.129L1532.1 170.81L1536.01 189.829ZM1477.91 295.363L1465.97 286.086L1505.93 251.294C1506.16 251.526 1506.39 251.758 1506.62 251.758L1482.28 294.204C1482.05 294.204 1482.05 294.204 1481.82 293.972C1480.44 293.74 1478.83 294.204 1477.91 295.363ZM1481.36 347.087L1398.93 359.612C1398.93 359.38 1398.7 359.148 1398.7 358.684L1478.37 300.466C1478.83 300.93 1479.52 301.394 1480.44 301.626C1480.67 301.626 1480.67 301.626 1480.9 301.626L1481.36 347.087ZM1477 298.842L1436.35 312.527C1436.35 312.295 1436.12 312.295 1436.12 312.063L1465.29 286.781L1477.45 296.291C1477.45 296.523 1477.23 296.755 1477.23 296.987C1477 297.683 1477 298.379 1477 298.842ZM1577.34 360.539C1578.48 360.539 1579.63 360.076 1580.55 359.148L1605.35 375.384L1572.74 415.974C1572.51 415.742 1572.05 415.742 1571.82 415.51L1577.34 360.539ZM1571.82 402.753L1573.66 357.988C1574.12 359.148 1575.04 359.844 1576.19 360.307L1571.82 402.753ZM1578.48 352.421C1578.25 352.421 1578.02 352.421 1577.79 352.421L1576.42 304.641C1577.34 304.409 1578.25 303.945 1578.94 303.249L1601.22 316.934L1579.17 352.885C1578.94 352.653 1578.71 352.421 1578.48 352.421ZM1576.65 352.421C1575.5 352.653 1574.58 353.349 1573.89 354.509L1575.5 315.31L1576.65 352.421ZM1570.45 415.278C1569.99 415.278 1569.53 415.51 1569.07 415.51L1522.92 344.535C1523.61 344.071 1524.07 343.144 1524.3 342.448C1524.52 341.52 1524.3 340.36 1523.84 339.665L1572.74 303.481C1573.2 303.945 1573.89 304.409 1574.81 304.641L1575.04 304.641L1570.45 415.278ZM1487.33 442.415L1535.78 429.195L1540.6 455.636C1539.45 456.1 1538.53 456.796 1538.07 457.956L1487.1 443.575C1487.33 443.111 1487.33 442.879 1487.33 442.415ZM1536.92 429.195L1567 421.077C1567.23 421.541 1567.69 422.236 1568.15 422.468L1544.27 456.1C1544.04 455.868 1543.58 455.868 1543.35 455.636C1542.89 455.636 1542.66 455.636 1542.21 455.636L1536.92 429.195ZM1566.54 418.525C1566.54 418.989 1566.31 419.453 1566.54 419.917L1536.69 428.035L1521.54 345.463C1521.77 345.463 1522 345.231 1522 345.231L1568.15 416.206C1567.46 416.902 1566.77 417.597 1566.54 418.525ZM1515.57 299.538L1571.82 301.162C1571.82 301.626 1572.05 302.322 1572.28 302.786L1523.15 339.201C1522.69 338.737 1522 338.273 1521.08 338.041C1520.85 338.041 1520.39 338.041 1520.16 338.041L1515.57 299.538ZM1519.24 337.809C1518.78 338.041 1518.33 338.041 1517.87 338.505L1484.11 300.698C1484.57 300.234 1484.8 299.538 1485.03 299.074L1485.03 298.842L1514.42 299.77L1519.24 337.809ZM1572.97 297.683L1512.13 250.134C1512.36 249.67 1512.59 249.439 1512.59 248.975C1512.81 247.815 1512.59 246.887 1512.13 245.959L1547.95 215.807L1574.12 296.987C1573.66 297.219 1573.2 297.451 1572.97 297.683ZM1511.44 245.264L1511.21 245.032L1539.22 195.164C1539.45 195.164 1539.68 195.396 1539.91 195.396C1540.37 195.628 1541.06 195.628 1541.52 195.396L1547.72 214.647L1511.44 245.264ZM1511.44 251.062L1572.28 298.611C1572.05 299.074 1571.82 299.306 1571.82 299.77L1571.82 300.002L1515.34 298.379L1509.6 252.222C1510.29 251.99 1510.98 251.526 1511.44 251.062ZM1514.19 298.379L1484.8 297.683C1484.57 296.523 1484.11 295.363 1482.97 294.667L1507.3 252.222C1507.3 252.222 1507.3 252.222 1507.53 252.222C1507.76 252.222 1508.22 252.222 1508.45 252.222L1514.19 298.379ZM1483.42 301.394L1517.18 339.201C1516.72 339.665 1516.49 340.36 1516.26 340.824C1516.26 341.056 1516.26 341.52 1516.26 341.752L1482.51 346.855L1481.82 301.858C1482.28 301.858 1482.74 301.626 1483.42 301.394ZM1516.26 342.912C1516.49 344.071 1517.18 344.767 1518.33 345.463L1484.34 438.936C1484.11 438.936 1484.11 438.936 1483.88 438.936L1482.51 348.246L1516.26 342.912ZM1519.24 345.695C1519.7 345.695 1519.93 345.695 1520.39 345.695L1535.55 428.267L1487.1 441.488C1486.87 440.56 1486.18 439.864 1485.26 439.4L1519.24 345.695ZM1486.64 445.199L1596.16 498.778C1596.16 499.01 1596.16 499.01 1596.16 499.242C1596.16 499.242 1596.16 499.242 1596.16 499.473L1509.6 494.139L1485.72 446.358C1485.95 445.895 1486.41 445.663 1486.64 445.199ZM1488.94 445.199L1538.07 459.115C1537.84 461.203 1538.99 463.29 1541.06 463.754C1542.43 463.986 1544.04 463.522 1544.96 462.594L1594.1 496.69L1488.94 445.199ZM1544.73 456.796L1568.84 422.932C1569.07 423.164 1569.53 423.164 1569.76 423.164C1570.45 423.396 1570.91 423.396 1571.6 423.164L1579.17 444.271L1545.65 457.492C1545.19 457.26 1544.96 457.028 1544.73 456.796ZM1572.51 422.932C1573.43 422.468 1574.35 421.541 1574.58 420.149C1574.58 419.917 1574.58 419.685 1574.58 419.453L1658.16 413.191C1658.16 413.191 1658.16 413.191 1658.16 413.423L1580.09 444.039L1572.51 422.932ZM1658.39 411.567C1658.39 411.799 1658.39 412.031 1658.39 412.263L1574.58 418.757C1574.35 418.061 1574.12 417.366 1573.66 416.67L1606.04 375.848L1658.62 410.639C1658.39 410.871 1658.39 411.103 1658.39 411.567ZM1605.81 374.456L1581.01 357.988C1581.24 357.756 1581.24 357.524 1581.24 357.06C1581.47 356.596 1581.47 355.901 1581.24 355.437L1632.21 339.201C1632.44 339.665 1632.67 339.896 1632.9 340.36L1605.81 374.456ZM1632.21 336.881C1631.98 337.345 1631.98 338.041 1632.21 338.505L1581.24 354.741C1581.01 354.045 1580.55 353.581 1580.09 353.117L1601.9 317.398L1632.44 336.185C1632.44 336.417 1632.21 336.649 1632.21 336.881ZM1601.67 316.006L1579.4 302.322C1579.4 302.09 1579.63 301.858 1579.63 301.626C1579.86 300.93 1579.86 300.466 1579.63 299.77L1619.12 284.462C1619.35 284.926 1619.81 285.39 1620.04 285.622L1601.67 316.006ZM1618.9 281.679C1618.67 282.375 1618.67 282.838 1618.9 283.534L1581.7 297.915L1621.19 274.952L1621.88 278.895C1620.27 279.127 1619.12 280.287 1618.9 281.679ZM1578.94 298.147C1578.48 297.451 1577.79 296.987 1577.11 296.755L1603.74 171.738L1603.97 171.506L1604.2 171.506L1620.73 273.561L1578.94 298.147ZM1576.19 296.523C1575.73 296.523 1575.5 296.523 1575.04 296.523L1548.63 214.879L1601.22 170.346C1601.67 170.81 1602.13 171.042 1602.59 171.274L1576.19 296.523ZM1548.4 213.951L1542.21 194.932C1543.35 194.468 1544.04 193.54 1544.5 192.149C1544.73 191.453 1544.73 190.989 1544.5 190.293L1560.11 184.494L1600.53 169.418C1600.53 169.418 1600.53 169.65 1600.76 169.65L1548.4 213.951ZM1538.07 194.468L1510.06 244.336C1509.83 244.336 1509.6 244.104 1509.37 244.104C1508.45 243.872 1507.3 244.104 1506.62 244.568L1493.99 225.316L1537.61 194.004C1537.84 194.236 1537.84 194.468 1538.07 194.468ZM1505.7 245.264C1505.24 245.727 1504.78 246.423 1504.55 247.351C1504.55 247.815 1504.32 248.279 1504.55 248.743L1442.09 263.587C1442.09 263.355 1441.86 263.355 1441.86 263.123L1493.3 226.244L1505.7 245.264ZM1442.32 265.907C1442.32 265.443 1442.55 264.979 1442.32 264.515L1505.01 249.902C1505.01 250.134 1505.24 250.366 1505.24 250.598L1465.06 285.622L1441.64 267.298C1441.86 266.602 1442.09 266.138 1442.32 265.907ZM1464.37 286.086L1435.67 311.135C1435.21 310.672 1434.75 310.44 1434.06 310.208L1438.42 268.922C1439.57 268.922 1440.49 268.458 1441.18 267.762L1464.37 286.086ZM1397.78 357.988L1430.61 317.398C1431.07 317.63 1431.3 317.862 1431.76 317.862C1433.83 318.326 1436.12 316.934 1436.58 314.847C1436.58 314.383 1436.81 313.919 1436.58 313.455L1477.45 299.77L1397.78 357.988ZM1480.67 439.864L1398.24 363.323C1398.47 362.859 1398.7 362.395 1398.93 361.931C1398.93 361.699 1398.93 361.235 1398.93 361.003L1481.36 348.246L1482.74 438.936C1482.05 438.936 1481.36 439.4 1480.67 439.864ZM1457.71 487.876L1481.82 446.59C1482.05 446.59 1482.28 446.822 1482.51 446.822C1483.19 447.054 1483.88 446.822 1484.57 446.822L1508.22 493.907L1459.54 490.892C1459.54 489.732 1458.86 488.572 1457.71 487.876ZM1555.29 588.54L1458.63 493.675C1459.09 493.211 1459.32 492.515 1459.54 492.051L1508.91 495.067L1555.52 588.308C1555.29 588.308 1555.29 588.308 1555.29 588.54ZM1558.97 587.844L1558.74 587.844C1558.05 587.612 1557.13 587.844 1556.44 588.076L1510.06 495.298L1595.93 500.633C1595.93 502.025 1596.62 503.185 1597.77 503.88L1558.97 587.844ZM1596.85 497.386L1545.65 461.435C1545.88 461.203 1545.88 460.739 1546.11 460.507C1546.34 459.811 1546.34 459.115 1546.11 458.651L1579.63 445.431L1598.23 496.458C1597.54 496.69 1597.31 496.922 1596.85 497.386ZM1601.9 496.458C1601.67 496.226 1601.22 496.226 1600.99 495.994C1600.3 495.762 1599.84 495.762 1599.15 495.994L1580.55 444.967L1658.62 414.35C1658.85 414.814 1659.08 415.046 1659.31 415.278L1601.9 496.458ZM1637.03 341.752L1660.45 408.784C1660 409.016 1659.54 409.248 1659.31 409.711L1606.96 375.152L1634.28 341.288C1634.74 341.52 1634.97 341.752 1635.43 341.752C1635.89 341.752 1636.35 341.752 1637.03 341.752ZM1634.74 333.866C1634.05 334.098 1633.59 334.562 1633.13 335.026L1602.59 316.238L1621.19 286.086C1621.42 286.086 1621.65 286.318 1621.88 286.318C1622.34 286.318 1622.8 286.549 1623.26 286.318L1634.74 333.866ZM1625.78 279.823C1625.32 279.359 1624.64 278.895 1623.72 278.663C1623.49 278.663 1623.03 278.663 1622.8 278.663L1622.11 274.488L1675.84 243.176L1625.78 279.823ZM1680.2 239.001L1621.65 273.097L1605.12 171.274C1605.58 171.042 1606.27 170.81 1606.73 170.346L1680.43 235.058C1680.2 235.522 1679.97 235.986 1679.74 236.45C1679.74 237.378 1679.97 238.305 1680.2 239.001ZM1681.35 234.594L1607.64 169.882C1607.87 169.418 1608.1 169.186 1608.1 168.722L1668.03 177.304L1682.5 233.898C1682.04 233.898 1681.58 234.13 1681.35 234.594ZM1702.7 185.654L1684.79 233.666C1684.33 233.666 1683.88 233.434 1683.42 233.666L1668.95 177.536L1700.41 182.175C1700.64 183.567 1701.33 184.958 1702.7 185.654ZM1658.62 132.771L1701.56 179.392C1701.1 179.856 1700.87 180.319 1700.87 181.015L1668.95 176.376L1657.93 133.235C1658.16 133.003 1658.39 133.003 1658.62 132.771ZM1655.4 133.467C1655.86 133.467 1656.32 133.699 1656.78 133.467L1667.8 176.144L1609.02 167.794L1653.57 132.307C1654.03 132.771 1654.71 133.235 1655.4 133.467ZM1652.19 129.756C1652.19 130.452 1652.42 130.916 1652.65 131.379L1607.87 166.867C1607.64 165.243 1606.5 163.851 1604.89 163.388C1603.28 162.924 1601.67 163.62 1600.76 165.011L1526.13 125.581L1652.19 129.756ZM1600.3 166.171C1600.3 166.403 1600.3 166.403 1600.07 166.635C1600.07 166.867 1600.07 166.867 1600.07 167.099L1533.02 169.418L1524.52 126.045L1600.3 166.171ZM1523.61 126.045L1532.1 169.418L1462.99 171.738C1462.99 171.274 1462.76 170.81 1462.53 170.578L1523.61 126.045ZM1462.76 174.057L1536.46 190.989C1536.46 191.685 1536.46 192.612 1536.92 193.308L1493.53 224.621L1461.61 175.681C1462.07 175.217 1462.53 174.753 1462.76 174.057ZM1460.69 176.376L1492.61 225.316L1441.18 262.427C1440.72 261.963 1440.26 261.5 1439.57 261.268L1458.63 176.84C1459.32 176.84 1460.23 176.608 1460.69 176.376ZM1457.71 176.376L1438.65 260.804C1438.19 260.804 1437.96 260.804 1437.5 260.804L1415.23 191.917L1455.64 174.521C1456.1 175.449 1456.79 176.144 1457.71 176.376ZM1401.91 144.136L1455.18 171.274C1455.18 171.506 1455.18 171.506 1454.95 171.738C1454.72 172.433 1454.72 173.129 1454.95 173.825L1414.77 191.221L1400.08 145.76C1400.76 145.296 1401.45 144.832 1401.91 144.136ZM1397.55 145.992C1398.01 146.224 1398.7 146.224 1399.16 145.992L1413.85 191.685L1350.02 219.286C1349.79 219.054 1349.56 218.59 1349.33 218.358L1358.06 205.137L1396.63 145.76C1397.09 145.76 1397.32 145.76 1397.55 145.992ZM1395.94 145.064L1357.6 203.746L1348.64 217.662C1348.41 217.662 1348.18 217.43 1347.95 217.43C1347.26 217.198 1346.35 217.43 1345.66 217.662L1328.21 186.582L1395.48 144.6C1395.48 144.832 1395.71 144.832 1395.94 145.064ZM1394.79 143.672L1327.52 185.654L1312.59 158.981C1313.28 158.517 1313.97 157.589 1314.2 156.661C1314.2 156.429 1314.2 155.965 1314.2 155.733L1394.56 143.208C1394.79 143.208 1394.79 143.44 1394.79 143.672ZM1394.56 142.049L1314.2 154.574C1313.74 153.182 1312.82 152.022 1311.22 151.558C1310.76 151.558 1310.3 151.326 1309.84 151.558L1299.05 109.809L1394.56 141.353C1394.56 141.817 1394.56 141.817 1394.56 142.049ZM1278.38 26.0771L1392.5 139.961L1298.59 108.881L1277.46 26.541C1277.92 26.3091 1278.15 26.309 1278.38 26.0771ZM1276.54 26.7729L1297.67 108.417L1259.78 95.892C1260.24 94.0365 1259.09 92.181 1257.49 91.4851L1275.63 26.7729C1275.86 26.7729 1276.09 26.7729 1276.54 26.7729ZM1272.87 25.1493C1273.33 25.6132 1273.79 26.0771 1274.48 26.541L1256.34 91.2532C1254.27 91.0212 1252.21 92.181 1251.75 94.2684L1251.75 94.5004L1155.77 92.4129C1155.77 91.949 1155.54 91.7171 1155.54 91.2532L1272.87 25.1493ZM1155.77 93.8045L1155.77 93.5726L1251.75 95.6601C1251.75 96.3559 1251.98 96.8198 1252.44 97.5156L1201.46 142.281L1155.08 95.6601C1155.31 94.9642 1155.54 94.5004 1155.77 93.8045ZM1154.16 96.124L1200.54 142.745L1159.44 178.928C1158.98 178.464 1158.52 178.232 1157.84 178.232C1157.61 178.232 1157.15 178.232 1156.92 178.232L1152.55 97.0517C1153.01 96.8198 1153.7 96.5879 1154.16 96.124ZM1150.95 96.8198C1151.18 96.8198 1151.41 96.8198 1151.64 96.8198L1156 178L1155.77 178L1126.84 105.17L1148.42 94.9643C1148.88 95.8921 1149.8 96.5878 1150.95 96.8198ZM1115.36 40.9215C1115.82 41.1534 1116.05 41.3854 1116.51 41.3854C1117.42 41.6173 1118.34 41.3853 1119.03 41.1534L1149.11 89.8615C1149.11 89.8615 1149.11 89.8615 1148.88 90.0935L1108.47 55.5339C1108.7 55.07 1108.93 54.6061 1108.93 54.1422C1109.16 52.7506 1108.7 51.3589 1107.78 50.4311L1115.36 40.9215ZM1114.44 40.2256L1107.32 49.7353C1106.86 49.5034 1106.63 49.2714 1106.17 49.2714C1105.03 49.0395 1104.11 49.2714 1103.19 49.7353L1095.61 39.9937L1113.52 38.3701C1113.52 39.0659 1113.98 39.7618 1114.44 40.2256ZM1070.35 7.28969L1113.75 35.8187C1113.52 36.0507 1113.52 36.2826 1113.52 36.7465C1113.52 36.9784 1113.52 37.2104 1113.52 37.4423L1095.15 39.2979L1070.35 7.28969C1070.12 7.28968 1070.12 7.28968 1070.35 7.28969ZM1066.22 8.44939C1067.37 8.68134 1068.29 8.44943 1069.21 7.98554L1093.77 39.0659L998.256 48.3436C998.256 48.1117 998.026 47.8798 998.026 47.6478L1064.15 7.05772C1064.61 7.75355 1065.3 8.21745 1066.22 8.44939ZM970.014 8.44938C970.014 8.21744 970.014 8.21748 970.014 7.98553L1063.24 5.20219L1063.24 5.43412L985.398 35.1229L968.636 10.5369C969.325 10.073 969.784 9.37716 970.014 8.44938ZM964.044 11.2327C964.273 11.4646 964.733 11.4646 965.192 11.6966C966.11 11.9285 967.029 11.6966 967.947 11.2327L984.479 35.5868L932.587 55.5339C932.357 55.07 932.128 54.6061 931.898 54.3742L964.044 11.2327ZM932.817 58.0853C932.817 57.8533 932.817 57.8533 932.817 57.6214L990.449 50.4311C990.679 50.895 990.908 51.5909 991.138 52.0548L953.482 91.717L931.209 60.6366C932.128 59.7089 932.587 59.013 932.817 58.0853ZM929.143 61.1005C929.602 61.1005 930.061 60.8686 930.52 60.8686L952.793 92.1809L926.847 119.55C926.387 119.318 925.928 119.086 925.469 119.086C925.239 119.086 925.01 119.086 925.01 119.086L929.143 61.1005ZM925.239 58.7811C925.699 59.9408 926.847 60.8686 927.995 61.1005L923.862 118.854C923.402 118.854 923.173 119.086 922.714 119.318L891.716 72.4657C893.323 71.538 893.783 69.4505 893.323 67.8269L925.239 58.7811ZM924.78 56.6936L925.01 56.2297C925.01 56.6936 924.78 57.1575 925.01 57.6214L893.094 66.8991C891.946 65.2755 889.65 64.5797 887.813 65.5074C887.583 65.5074 887.583 65.7394 887.583 65.7394L881.843 57.1575L870.822 40.4576C871.051 40.2256 871.051 40.2256 871.281 39.9937C871.51 39.7617 871.51 39.7617 871.74 39.5298L924.78 56.6936ZM795.279 40.2256L863.704 38.1381C863.704 38.602 863.933 39.0659 864.163 39.2978C864.392 39.7617 864.622 40.2256 865.081 40.4576L853.371 57.6214L795.279 40.2256ZM795.05 41.3853L852.912 58.5491L831.788 89.6295C830.64 89.1657 829.262 88.9337 828.114 89.6295L794.361 42.3131C794.59 42.0811 794.82 41.8492 795.05 41.3853ZM791.835 43.7047C792.294 43.7047 792.754 43.4728 793.213 43.2409C793.442 43.2409 793.442 43.0089 793.672 43.0089L827.195 90.0934C826.736 90.3254 826.507 90.7892 826.277 91.2531L789.08 81.5115L791.835 43.7047ZM731.677 56.4616L787.243 40.9214C787.243 41.1534 787.472 41.3853 787.472 41.6173C788.161 42.777 789.309 43.7047 790.458 43.7047L787.932 81.2796L714.686 62.0283C714.686 61.7963 714.686 61.5644 714.686 61.1005L731.677 56.4616ZM714.686 63.188L787.932 82.4393L784.028 137.642C783.569 137.642 782.88 137.874 782.421 138.106C782.192 138.106 781.962 138.338 781.962 138.338L714.227 64.3477C714.456 64.1157 714.686 63.6519 714.686 63.188ZM711.242 66.4352C711.701 66.4352 712.16 66.2033 712.619 65.9713C713.079 65.7394 713.308 65.5074 713.538 65.2755L781.273 139.265C780.814 139.729 780.584 140.193 780.584 140.889L705.042 129.756L711.242 66.4352ZM709.175 66.2032C709.405 66.2032 709.864 66.4352 710.094 66.4352L703.894 129.524L678.637 125.813C678.637 125.117 678.407 124.653 678.178 123.957C677.948 123.261 677.489 122.797 677.03 122.565L709.175 66.2032ZM676.341 129.292C677.489 128.828 678.178 127.668 678.407 126.74L703.894 130.452L696.317 206.761C696.087 206.761 696.087 206.761 695.858 206.761L688.969 180.087L676.111 129.524C676.111 129.292 676.111 129.292 676.341 129.292ZM673.126 129.524C673.585 129.756 674.274 129.756 674.963 129.756L688.051 180.551L694.71 206.993C694.71 206.993 694.48 206.993 694.48 207.225C693.791 207.457 693.332 207.921 693.102 208.385L648.098 183.798L673.126 129.524ZM646.95 183.335L578.297 145.992C578.526 145.528 578.526 145.064 578.526 144.368L670.6 126.74C670.6 126.972 670.83 127.204 670.83 127.436C671.06 128.132 671.748 128.596 672.208 129.06L646.95 183.335ZM651.313 92.4128L671.748 122.565C670.83 123.493 670.371 124.653 670.371 125.813L578.297 143.44C578.297 143.208 578.067 143.208 578.067 142.976L651.313 92.4128ZM577.837 146.92L646.491 184.262L636.388 206.297C635.47 206.065 634.322 206.065 633.403 206.529C633.174 206.529 632.944 206.761 632.944 206.761L577.837 146.92ZM576.23 148.311C576.46 148.079 576.689 148.079 576.919 147.847L631.796 207.457C631.337 207.921 631.107 208.616 630.878 209.08L565.438 203.05L574.164 148.543C575.082 148.775 575.771 148.775 576.23 148.311ZM572.786 148.311C573.015 148.543 573.245 148.543 573.704 148.543L564.979 203.05L539.492 200.73C539.492 200.266 539.263 199.571 539.033 199.107C538.803 198.643 538.574 198.179 538.115 197.947L572.786 148.311ZM519.287 131.843C520.205 131.379 520.894 130.683 521.123 129.756L570.26 143.904C570.031 144.832 570.26 145.528 570.719 146.456C570.949 146.92 571.408 147.383 571.638 147.615L536.967 197.251C536.278 196.787 535.359 196.787 534.67 196.787L518.827 131.843C519.057 132.075 519.287 132.075 519.287 131.843ZM517.909 132.307L533.752 197.251C533.522 197.251 533.522 197.251 533.293 197.483C533.063 197.715 532.604 197.947 532.374 198.179L491.963 162.228L515.383 131.843C516.302 132.307 517.22 132.539 517.909 132.307ZM432.264 107.953L513.546 127.9C513.546 128.596 513.546 129.524 514.006 130.22C514.235 130.683 514.465 130.915 514.694 131.147L491.274 161.532L431.805 108.881C432.034 108.417 432.264 108.185 432.264 107.953ZM430.427 110.041C430.657 109.809 431.116 109.577 431.345 109.577L490.815 162.228L453.388 210.704C452.699 210.24 451.781 210.008 451.092 210.24L429.968 110.504C429.968 110.272 430.197 110.272 430.427 110.041ZM428.36 110.504C428.59 110.504 428.82 110.504 429.049 110.504L450.174 210.24C449.944 210.24 449.944 210.472 449.714 210.472C449.485 210.472 449.255 210.704 449.255 210.704L415.961 174.985L428.36 110.504ZM426.753 113.056L414.813 174.289L409.992 169.186C410.91 168.026 411.14 166.171 410.451 164.779C409.992 164.083 409.532 163.387 408.614 162.924L426.753 113.056ZM407.007 170.578C407.466 170.578 408.155 170.346 408.614 170.114C408.843 170.114 409.073 169.882 409.073 169.882L414.354 175.449L403.562 229.955L407.007 170.578ZM403.333 168.722C404.022 169.882 404.94 170.578 406.088 170.578L402.414 233.434C401.955 233.434 401.266 233.666 400.807 233.898C399.659 234.594 398.97 235.522 398.741 236.682L281.639 221.837C281.639 221.373 281.639 220.909 281.409 220.214L403.333 168.722ZM281.409 222.997L398.741 237.841C398.741 238.073 398.741 238.305 398.741 238.305L332.383 255.469L308.274 261.731C308.274 261.731 308.274 261.499 308.044 261.499C307.126 259.412 304.6 258.716 302.763 259.644L280.031 225.084C280.72 224.62 281.18 223.925 281.409 222.997ZM279.113 225.548L301.845 260.108C301.156 260.804 300.467 261.731 300.467 262.891L270.847 263.819L277.047 225.78C277.735 226.012 278.424 225.78 279.113 225.548ZM276.587 165.243L277.047 217.894C276.587 217.894 276.128 218.126 275.669 218.358C273.602 219.286 272.913 221.837 273.832 223.925C274.062 224.389 274.291 224.852 274.75 225.084L252.019 261.963L276.587 165.243ZM274.75 164.547C274.98 164.779 275.21 164.779 275.439 165.011L250.871 261.499C250.182 261.499 249.264 261.499 248.575 261.963C248.345 261.963 248.345 262.195 248.116 262.195L218.955 227.868L274.75 164.547ZM160.634 155.965L272.914 161.532C272.914 161.996 273.143 162.46 273.373 163.156C273.602 163.387 273.602 163.619 273.832 164.083L218.496 226.94L159.715 157.821C160.175 157.357 160.404 156.661 160.634 155.965ZM158.567 158.981C158.797 158.981 158.797 158.749 159.026 158.749L217.807 227.868L194.846 253.845C193.927 253.15 192.779 252.918 191.631 253.15L158.567 158.981C158.338 158.981 158.338 158.981 158.567 158.981ZM157.419 159.212L190.713 253.613C190.254 253.845 190.024 254.077 189.794 254.309L125.503 200.498L154.664 158.981C155.353 159.212 156.501 159.444 157.419 159.212ZM147.775 104.01L155.353 151.326C155.123 151.326 154.893 151.558 154.664 151.558C153.975 152.022 153.516 152.486 153.057 152.95L104.838 131.843L144.331 102.618C145.25 103.546 146.627 104.01 147.775 104.01ZM8.63081 89.3975L143.413 99.835C143.413 100.531 143.642 100.995 143.872 101.691L103.92 131.379L8.63081 89.6295C8.4012 89.6295 8.63081 89.6294 8.63081 89.3975ZM6.33478 92.1808C7.02361 91.717 7.48287 91.2531 7.94209 90.5572L102.772 132.075L33.1993 183.798C32.2809 182.871 31.1328 182.407 29.7552 182.639L6.10527 92.4128C6.33488 92.4128 6.33478 92.4128 6.33478 92.1808Z" fill="#542AC8" fill-opacity="0.15"/>
</svg>
