<svg width="178" height="200" viewBox="0 0 178 200" fill="none" xmlns="http://www.w3.org/2000/svg">
<g filter="url(#filter0_dd)">
<path d="M89 11L162.612 53.5V138.5L89 181L15.3878 138.5V53.5L89 11Z" fill="white"/>
</g>
<path d="M49.1492 43.3348C49.6675 43.705 50.1117 44.0752 50.63 44.5195C51.1483 44.8897 51.5185 45.482 52.2589 45.5561C52.5551 45.7782 52.8513 46.0003 53.2215 46.2225C53.2215 46.1484 53.2955 46.1484 53.3696 46.0744L53.4436 46.1484C53.5917 46.2965 53.7398 46.3706 53.8879 46.5186C54.184 46.7408 54.5543 47.0369 54.8504 47.2591C55.3687 47.8514 56.0351 48.2216 56.6274 48.6659C56.7755 48.7399 56.8496 48.814 56.9977 48.888C57.664 49.4063 58.3304 49.9246 58.9968 50.4429C58.9228 50.5169 58.9228 50.5169 58.8487 50.591C59.293 50.9612 59.7372 51.2574 60.1815 51.6276C60.2555 51.7016 60.3296 51.7016 60.3296 51.7757C60.5517 51.8497 60.7738 51.9978 60.9219 51.9237C60.996 51.9237 61.07 51.9978 61.07 51.9978C61.07 51.9978 61.07 51.9978 61.144 51.9978C61.2181 52.1459 61.2921 52.294 61.4402 52.442C62.6249 53.3306 63.7355 54.2931 64.9202 55.1816C65.1423 55.2557 65.4385 55.4037 65.6606 55.4778C65.7347 55.5518 65.8087 55.6259 65.8828 55.6259C65.8828 55.6259 65.8828 55.6999 65.9568 55.6999C66.0308 55.774 66.1789 55.922 66.253 55.9961C66.327 56.2923 66.6972 56.4403 66.8453 56.6625C66.9194 56.7365 66.9934 56.8105 67.0674 56.8846C67.1415 56.9586 67.2896 57.1067 67.3636 57.1808C67.1415 57.8471 66.8453 57.1067 66.6232 57.1067C66.9194 57.8471 67.6598 58.1433 68.2521 58.5876C68.2521 58.5876 68.2521 58.6616 68.2521 58.7357C68.3262 58.9578 68.5483 59.1059 68.7704 59.1799C68.8445 59.1799 68.9185 59.1799 68.9925 59.1799C69.8811 59.9203 70.8436 60.6608 71.7321 61.3271C71.6581 61.4752 71.584 61.5493 71.51 61.6974C70.6215 60.9569 69.6589 60.2905 68.7704 59.5501C68.6964 59.402 68.6223 59.254 68.5483 59.1059C68.2521 58.8097 68.03 58.5876 67.6598 58.4395C67.5857 58.4395 67.5117 58.4395 67.3636 58.3654C66.9194 58.0693 66.4011 57.9212 65.9568 57.551C65.8087 57.4769 65.6606 57.3288 65.4385 57.4029C64.55 56.8846 63.9577 55.922 62.9211 55.6999C62.6989 55.5518 62.5508 55.4037 62.3287 55.2557C61.7364 54.7374 61.07 54.2931 60.4777 53.7748C60.1074 53.3306 59.6632 53.0344 59.1449 53.0344C59.0709 53.0344 58.9968 53.0344 58.9228 53.0344C58.8487 52.7382 58.7006 52.6642 58.4045 52.5901C58.4045 52.5901 58.4045 52.6642 58.3304 52.6642C58.2564 52.5901 58.1823 52.5901 58.1083 52.5161C57.9602 52.5161 57.8121 52.5161 57.664 52.5901C57.664 52.6642 57.664 52.6642 57.664 52.7382C57.3679 52.6642 57.1457 52.5161 56.8496 52.6642C56.6274 52.0718 56.1092 51.7757 55.5909 51.4795C55.3687 51.4054 55.2206 51.3314 54.9985 51.4054C55.0726 51.8497 55.5909 51.9978 55.813 52.294C56.1091 52.5161 56.4053 52.7382 56.7015 52.9603C57.3679 53.4786 58.0343 54.071 58.7006 54.5893C58.7006 54.5893 58.7747 54.5893 58.7747 54.5152C58.9968 54.6633 59.2189 54.8854 59.4411 55.0335C59.4411 55.1076 59.4411 55.1816 59.5151 55.2557C59.8853 55.6259 60.4036 55.848 60.6998 56.2923C60.6998 56.3663 60.7738 56.5144 60.7738 56.5884C60.8479 56.6625 60.996 56.8105 61.07 56.8846C61.144 57.2548 61.3662 57.4769 61.7364 57.625V57.551V57.625C61.8104 57.6991 61.8104 57.6991 61.8845 57.7731C61.7364 58.3654 61.8845 58.9578 62.4768 59.328C62.6249 59.402 62.773 59.4761 62.9211 59.6242C63.2913 60.1425 62.9211 60.2905 62.5508 60.4386C62.3287 60.2905 62.1066 60.2165 61.8845 60.2905C61.6623 60.2905 61.5883 60.5867 61.3662 60.5867C61.2921 60.5867 61.2921 60.6608 61.2181 60.6608C61.07 60.5867 60.9219 60.5867 60.7738 60.5127C60.6998 60.5127 60.6998 60.5127 60.6257 60.5127C60.6998 60.5127 60.6998 60.5127 60.7738 60.5127C60.3296 60.2165 59.8853 59.9203 59.5151 59.6242C59.0709 59.6242 58.7747 59.1799 58.4045 59.0318C58.4045 58.9578 58.4045 58.8837 58.3304 58.8097C56.9236 57.551 55.2947 56.5884 54.036 55.1816C53.5917 54.6633 52.9994 54.071 52.1849 54.2191V54.2931C52.1849 54.2931 52.1849 54.2931 52.1109 54.2931L52.0368 54.2191L51.9628 54.145C51.8887 53.7748 51.5185 53.6267 51.2964 53.4046C51.2223 53.3306 51.1483 53.2565 51.0743 53.1825C51.0002 53.1084 50.9262 52.9603 50.8521 52.8863C50.8521 52.8123 50.7781 52.8123 50.7781 52.7382C50.8521 52.6642 50.8521 52.6642 50.9262 52.5901C51.0743 53.0344 51.4445 53.1084 51.8147 53.2565C52.0368 53.4046 52.1849 53.4786 52.407 53.6267C52.7032 53.9229 52.9994 54.145 53.3696 54.4412C53.6657 54.6633 53.7398 54.4412 53.7398 54.2191C53.3696 53.9229 52.9994 53.6267 52.6292 53.4046C52.1109 52.9603 51.5185 52.5161 51.0002 52.0718C51.1483 51.8497 51.4445 51.6276 51.2964 51.2574C50.8521 51.2574 50.4819 51.3314 50.0377 51.3314C50.0377 51.2574 50.0377 51.1833 50.0377 51.1093C49.6675 50.591 49.2972 50.2208 48.6309 50.0727C48.5568 50.0727 48.5568 50.0727 48.5568 50.1467C48.4828 49.7025 48.2606 49.4803 47.8164 49.7025C47.6683 49.4063 47.4462 49.1842 47.15 49.1842C47.2241 49.0361 47.2241 48.888 47.15 48.6659C48.1126 48.6659 48.7789 49.4063 49.5934 49.7025C49.6675 49.7765 49.7415 49.8506 49.8155 49.9246C49.8896 49.9246 49.9636 49.9246 49.9636 49.9246C50.1117 49.4803 49.8896 49.1101 49.5934 48.7399C48.5568 48.5178 47.8164 47.7033 46.7798 47.4072C46.4836 47.4072 46.0394 47.0369 45.5951 46.6667C45.0028 46.2225 44.4845 45.8523 43.8921 45.408C43.596 45.1859 43.5219 45.334 43.4479 45.5561C43.8181 45.7782 44.3364 45.9263 44.5585 46.4446C44.7066 46.6667 44.9287 46.7408 45.2249 46.6667C45.2249 46.6667 45.2249 46.6667 45.1509 46.7408C45.1509 47.0369 45.2249 47.111 45.5211 47.185C45.6692 47.2591 45.7432 47.4072 45.8913 47.4812C46.0394 47.7033 46.2615 47.9995 46.5577 47.9995C46.4096 48.2216 46.5577 48.7399 46.0394 48.5178C45.9653 48.4437 45.8913 48.4437 45.7432 48.3697H45.6692C45.5211 48.2216 45.373 48.0735 45.1509 47.9995C45.0028 47.8514 44.9287 47.7774 44.7806 47.6293C44.7066 47.6293 44.6326 47.5552 44.6326 47.5552C44.6326 47.6293 44.7066 47.7774 44.7066 47.8514C44.6326 48.0735 44.8547 48.2216 44.9287 48.3697C45.0768 48.888 45.373 49.2582 45.8172 49.4803C46.1875 49.8506 46.4096 49.3323 46.7798 49.4063C47.0019 49.7765 47.076 50.2948 47.6683 50.2208C47.8904 50.3689 48.1866 50.591 48.4087 50.7391C48.6309 50.9612 48.853 51.1093 49.0751 51.3314C49.0751 51.7016 49.1492 52.0718 49.1492 52.442C49.2972 52.7382 49.5934 52.8863 49.8155 53.0344C49.8896 53.0344 49.9636 53.0344 49.9636 53.0344C50.556 53.4786 51.1483 53.9969 51.7406 54.4412C51.7406 54.5152 51.6666 54.5893 51.6666 54.5893C51.9628 54.8114 52.2589 55.0335 52.5551 55.2557C52.6292 55.2557 52.6292 55.1816 52.7032 55.1816C52.9253 55.3297 53.0734 55.4778 53.2955 55.6259C53.2955 55.6259 53.2955 55.6259 53.3696 55.6999C53.4436 55.848 53.5917 55.922 53.7398 55.9961C53.8879 56.1442 54.036 56.2923 54.184 56.4403C54.4062 56.5884 54.5543 56.6625 54.7764 56.8106C54.8504 56.8846 54.8504 56.9586 54.9245 57.0327C54.9985 57.1808 55.0726 57.2548 55.1466 57.3288C55.2206 57.4029 55.2947 57.4029 55.3687 57.4769C55.3687 57.551 55.3687 57.6991 55.2947 57.7731C55.2947 57.7731 55.2947 57.6991 55.2947 57.625C55.1466 57.4029 54.8504 57.2548 54.5543 57.2548H54.4802L54.4062 57.1808C53.8879 57.2548 54.184 57.6991 54.036 57.9212C53.5177 57.4029 52.9253 57.0327 52.333 56.6625C51.9628 56.3663 51.5926 56.0701 51.2223 55.774C51.2223 55.9961 51.2223 56.2923 51.2223 56.5144C50.63 56.1442 50.0377 55.774 49.4453 55.4037C49.3713 55.3297 49.2972 55.3297 49.2232 55.2557C49.0751 55.1076 48.853 54.9595 48.7049 54.7374C48.3347 54.6633 47.9645 54.5152 47.5943 54.4412C47.6683 54.5152 47.8164 54.5893 47.8904 54.6633C48.1126 55.4778 48.927 55.6259 49.3713 56.0701C49.5934 56.2923 49.8896 56.5144 50.1117 56.7365C50.556 57.1808 50.9262 57.7731 51.4445 58.1433C51.5185 58.2174 51.6666 58.2914 51.7406 58.3654C51.2964 58.0693 50.8521 57.8471 50.4819 57.551C50.4819 57.551 50.4819 57.4769 50.4079 57.4769C49.8896 57.1067 49.3713 56.7365 48.927 56.3663C48.7049 56.1442 48.4087 55.9961 48.1866 55.774C48.0385 55.6999 47.8164 55.6999 47.6683 55.6259C47.4462 55.4778 47.2981 55.4037 47.076 55.2557C46.8538 54.9595 46.5577 54.8854 46.1875 54.8114C46.1134 54.8854 46.1134 54.8854 46.1134 54.9595C46.2615 55.1076 46.4836 55.2557 46.6317 55.4037C46.8538 55.5518 47.0019 55.6999 47.224 55.848C47.3721 56.1442 47.4462 56.5144 47.9645 56.4403C48.0385 56.5144 48.1126 56.5144 48.1866 56.5884C48.5568 56.8846 48.927 57.1808 49.2972 57.4769C49.2972 57.625 49.4453 57.7731 49.5194 57.9212C49.5934 57.9952 49.6675 57.9952 49.6675 58.0693C49.6675 58.1433 49.7415 58.2914 49.7415 58.3654V58.4395V58.3654C49.1492 58.2914 48.6309 58.2174 48.1866 57.6991C48.1126 57.6991 48.0385 57.625 47.9645 57.625C47.8164 57.551 47.7423 57.4029 47.5943 57.3288C47.2981 57.3288 47.076 57.2548 46.7798 57.2548C46.0394 56.6625 45.2989 56.0701 44.5585 55.5518C44.1883 55.2557 43.8181 54.9595 43.4479 54.6633C43.2258 54.8854 43.2998 55.1076 43.4479 55.4037C43.8181 55.3297 44.0402 55.6259 44.3364 55.848C44.4845 55.9961 44.7066 56.1442 44.8547 56.2923C45.0028 56.8105 45.5211 57.0327 45.8172 57.3288C46.1134 57.625 46.5577 57.8471 46.4836 58.3654C46.2615 58.1433 45.9653 57.9952 45.7432 57.7731C45.0768 57.2548 44.4104 56.6625 43.7441 56.1442C43.596 56.0701 43.5219 55.9961 43.3738 55.922L43.2998 55.9961C43.9662 56.6625 44.7066 57.3288 45.373 57.9952C45.447 58.1433 45.5211 58.1433 45.5951 58.1433C45.5951 58.1433 45.5951 58.1433 45.6692 58.1433C45.7432 58.2174 45.8913 58.2914 45.9653 58.3654C45.7432 58.2914 45.5211 58.1433 45.2989 58.1433C44.8547 57.9212 44.4845 57.6991 44.0402 57.4769C43.9662 57.551 43.9662 57.551 43.8921 57.625C43.3738 57.3288 43.0036 56.6625 42.2632 56.6625C42.4853 57.3288 43.1517 57.551 43.67 57.9952C43.9662 58.3654 44.1883 58.8097 44.4845 59.1059C44.7066 59.402 44.7806 59.5501 44.4845 59.6982C44.2623 59.5501 43.9662 59.328 43.7441 59.1799C43.596 59.0318 43.3738 58.8837 43.2258 58.7357C43.0036 58.7357 42.8555 58.6616 42.5594 58.6616C42.9296 58.9578 43.1517 59.1059 43.3738 59.328C43.8181 59.6982 44.1883 60.2165 44.7806 60.2165C45.0028 60.3646 45.1509 60.4386 45.373 60.5867C45.447 60.6608 45.447 60.7348 45.5211 60.7348C45.5211 61.2531 46.1875 61.3271 46.1875 61.7714C46.2615 61.9935 46.4836 62.2157 46.1134 62.2897C45.8172 62.5118 46.1134 62.6599 46.2615 62.734C46.3355 62.734 46.3355 62.734 46.4096 62.734C46.5577 62.882 46.7058 63.0301 46.8538 63.1042C46.8538 63.1782 46.7798 63.2522 46.7798 63.2522C47.0019 63.7705 47.5943 64.1408 47.3721 64.8071C47.224 64.7331 47.15 64.6591 47.0019 64.585C46.7058 64.6591 46.5577 64.4369 46.3355 64.3629C44.9287 63.2522 43.5219 62.1416 42.0411 61.031C41.967 60.9569 41.893 60.9569 41.8189 60.8829C41.5228 60.7348 41.4487 60.2905 41.0785 60.2905C40.9304 60.3646 40.7824 60.4386 40.6343 60.5127C40.116 59.9203 39.4496 59.9944 38.7832 59.6982C39.0794 60.1425 39.0794 60.7348 39.5977 61.031C39.5977 61.105 39.6717 61.2531 39.6717 61.3271C40.0419 61.6233 40.4121 61.9195 40.7824 62.2157C41.5228 62.9561 42.5594 63.3263 43.0777 64.2888C43.0777 64.2888 43.0777 64.2888 43.0777 64.3629C42.7815 64.0667 42.3372 64.0667 42.0411 63.8446C41.893 63.7705 41.8189 63.6225 41.6709 63.5484C41.1526 63.1782 40.7083 62.808 40.19 62.3637C39.9679 62.1416 39.7458 61.8454 39.5977 61.6233C39.5236 61.6974 39.4496 61.8454 39.3755 61.9195C39.4496 61.9935 39.4496 61.9935 39.5236 62.0676C39.5977 62.2897 39.8198 62.4378 40.0419 62.5118C40.116 62.5118 40.116 62.5118 40.116 62.5118C40.19 62.6599 40.2641 62.808 40.3381 62.9561C40.7083 63.2522 41.0785 63.5484 41.4487 63.8446C42.3372 64.585 43.2258 65.3254 44.1883 66.0659C44.4845 66.7322 45.2989 67.1025 45.5211 67.9169C45.8913 68.2871 46.2615 68.7314 46.7058 69.1016C46.7798 69.1016 46.8538 69.1016 46.9279 69.0276C47.4462 69.3978 47.8164 69.842 48.0385 70.3603H47.9645C47.3721 70.5825 46.9279 70.1382 46.4096 69.9161C46.2615 69.842 46.1875 69.768 46.0394 69.6939C45.8172 69.842 45.8172 70.0642 45.8913 70.2863C46.0394 70.5825 46.1875 70.8046 46.4096 71.0267C46.5577 71.1748 46.7058 71.2488 46.8538 71.3229C47.8164 71.8412 48.4828 72.8037 49.5194 73.0999C49.5934 73.0259 49.5934 73.0259 49.6675 72.9518V73.0259C49.6675 73.248 49.8155 73.3961 49.8896 73.5442C49.8155 73.6922 49.7415 73.6922 49.5934 73.7663C49.4453 73.6922 49.3713 73.6182 49.2232 73.4701C48.6309 73.0259 48.1126 72.5816 47.5202 72.1374L47.4462 72.0633L47.3721 71.9893C47.224 71.8412 47.0019 71.6931 46.7798 71.545C46.4836 71.3969 46.2615 71.0267 45.8913 71.1008C45.6692 71.6931 46.1875 71.9152 46.4836 72.3595C46.5577 72.5076 46.6317 72.6556 46.7058 72.8037C47.5943 72.9518 48.1866 73.7663 48.927 74.2105C49.2232 74.4327 49.5194 74.7288 49.8896 74.951C50.0377 75.025 50.1117 75.1731 50.2598 75.2471C50.4079 75.2471 50.4819 75.3212 50.556 75.3952C50.4819 75.3212 50.3338 75.3212 50.2598 75.2471C50.63 75.5433 51.0002 75.8395 51.2964 76.1356C51.4445 76.2837 51.5926 76.4318 51.4445 76.5799C51.3704 76.6539 51.2223 76.6539 51.0743 76.6539C50.8521 76.6539 50.63 76.5799 50.4819 76.5059C50.1858 76.2837 49.8896 76.0616 49.5194 75.7654C48.6309 75.1731 47.7423 74.5067 46.7798 73.9144C46.6317 73.8403 46.1134 73.322 46.3355 74.1365C46.2615 74.2105 46.2615 74.2105 46.2615 74.2846C46.5577 74.5067 46.8538 74.8029 47.15 75.025C46.8538 75.3952 46.1875 75.2471 46.0394 75.7654C45.7432 76.1356 46.2615 76.4318 46.2615 76.728C46.3355 77.0242 46.6317 77.3203 46.1134 77.3944C45.5951 77.0242 45.1509 76.6539 44.6326 76.2837L44.5585 76.3578C44.5585 76.3578 44.5585 76.3578 44.4845 76.3578C44.1883 76.2097 43.9662 75.7654 43.596 75.9135C43.4479 75.6173 43.2258 75.4693 42.8555 75.4693C42.6334 75.8395 42.6334 75.8395 43.5219 76.5059C43.596 76.8761 43.8921 77.0242 44.1883 77.2463C44.7066 77.6165 44.9287 78.1348 45.2249 78.579C45.2989 78.7271 45.373 78.8752 45.447 79.0233C45.5951 79.0973 45.6692 79.1714 45.8172 79.3195C45.8913 79.4676 45.9653 79.6156 46.0394 79.8378C46.1875 79.9118 46.2615 80.0599 46.4096 80.1339C46.4096 80.1339 46.4096 80.1339 46.4096 80.0599C46.4096 80.0599 46.4096 80.0599 46.4096 80.1339C46.4836 80.208 46.5577 80.208 46.5577 80.282C47.15 80.8003 47.8164 81.2446 48.4087 81.7629C48.4828 81.6888 48.4828 81.6888 48.5568 81.6148C49.7415 82.5033 50.9262 83.4659 52.0368 84.3544C51.9628 84.5024 52.0368 85.0948 51.6666 84.7246C51.4445 84.5024 51.2223 84.3544 51.0002 84.2063C50.7781 83.9842 50.556 83.8361 50.3338 83.688C50.2598 83.6139 50.1858 83.5399 50.1858 83.3918C49.8155 83.1697 49.4453 82.9476 49.0751 82.7254C48.927 82.5773 48.7049 82.4293 48.5568 82.2812C48.3347 82.059 48.0385 81.8369 47.7423 81.6148C47.7423 81.6148 47.7423 81.5407 47.7423 81.4667C47.224 81.2446 46.8538 80.0599 46.1134 80.9484C46.7058 81.6888 47.4462 82.2812 48.1866 82.8735C48.853 83.3178 48.853 84.4284 49.6675 84.7246C50.704 85.1688 51.0743 85.9833 51.2964 86.9459C51.2223 87.7603 52.0368 88.1305 52.333 88.7969C52.333 88.871 52.2589 88.945 52.1849 88.945C52.2589 89.1671 52.0368 89.3152 52.0368 89.4633C51.7406 89.5373 51.7406 89.8335 51.6666 90.0556C51.8887 90.4258 52.1849 90.8701 52.407 91.3144C52.0368 91.9807 52.6292 92.351 52.9994 92.7952C53.2955 93.1654 53.8138 93.2395 54.036 93.6837C54.036 93.7578 54.11 93.9059 54.11 93.9799C54.4802 94.3501 54.4062 94.7944 54.6283 95.2386C54.7023 95.7569 54.7764 96.3493 54.7023 96.8676C54.7764 97.0156 54.9245 97.0897 54.9985 97.2378C54.9985 97.1637 55.0726 97.1637 55.0726 97.0897C55.2206 97.3118 55.0726 97.5339 54.9985 97.682C54.8504 98.3484 55.2206 99.0888 55.2206 99.7552C55.2206 99.8293 55.2206 99.9773 55.2206 100.051C55.2206 100.125 55.2206 100.199 55.2947 100.274C54.9245 100.644 54.9985 101.162 55.2206 101.68C55.2947 101.754 55.3687 101.754 55.3687 101.828C55.4428 102.421 55.6649 102.939 55.887 103.383C55.9611 103.754 55.9611 104.124 56.0351 104.494C56.1832 105.382 56.7015 105.605 57.4419 105.308C58.1083 104.864 56.9977 104.05 57.59 103.531C57.664 103.457 57.7381 103.309 57.8121 103.235C57.8862 103.087 57.9602 102.939 58.0343 102.865C58.2564 102.569 58.6266 102.347 58.4785 101.902C58.4785 101.31 58.9228 100.644 57.8862 100.348C57.8862 100.274 57.8121 100.125 57.8121 100.051C58.5526 99.0148 57.7381 98.1263 57.2938 97.1637C57.664 96.4973 58.3304 96.7195 58.9968 96.8676C58.9968 96.9416 59.0709 97.0897 59.0709 97.1637C58.6266 97.2378 57.8862 96.4233 57.8862 97.4599C57.8862 97.8301 58.1083 98.3484 58.7006 98.4965C58.7006 98.7927 58.7006 99.0148 58.7006 99.311C59.0709 98.8667 59.367 98.4965 60.0334 98.7186C60.2555 98.7927 60.4777 98.8667 60.6998 98.9407C60.9219 98.5705 60.6257 98.4224 60.4036 98.2003C59.9594 97.7561 60.3296 97.682 60.6257 97.5339C60.9219 97.9041 61.2921 98.2003 61.5883 98.5705C61.6623 98.6446 61.7364 98.6446 61.7364 98.7186C61.7364 98.7927 61.8104 98.8667 61.8104 98.9407C62.1806 99.6812 62.847 99.9773 63.5134 100.274C63.6615 100.348 63.8096 100.496 63.9577 100.496C64.3279 100.496 64.55 100.718 64.6981 101.088C64.624 101.162 64.624 101.236 64.55 101.236C64.55 101.236 64.476 101.236 64.476 101.31C64.4019 101.384 64.4019 101.458 64.476 101.532C64.7721 101.976 65.0683 102.051 65.4385 101.902V101.976C65.5866 102.347 65.8087 102.717 66.1049 103.087C66.4011 103.383 66.327 103.605 65.8828 103.679C65.7347 103.679 65.5866 103.754 65.5125 103.902C65.1423 103.976 64.8462 104.05 64.476 104.198C64.4019 104.494 64.2538 104.716 64.1798 105.012C64.3279 105.16 64.55 105.308 64.6981 105.456C64.7721 105.753 64.9202 105.975 64.9943 106.197C65.8828 106.641 65.5125 107.382 65.6606 108.048C65.6606 108.048 65.6606 108.048 65.5866 108.048C64.9202 108.122 64.8462 108.566 64.9202 109.085C65.6606 110.714 66.6972 111.232 67.8819 110.639C67.956 110.639 68.104 110.639 68.1781 110.639C68.3262 110.639 68.5483 110.714 68.6964 110.714C68.7704 110.491 68.6964 110.195 69.0666 110.269C69.807 110.343 70.2513 110.714 70.2513 111.454C70.4734 111.528 70.6215 111.38 70.6955 111.232C70.9177 111.084 71.0657 110.862 70.9917 110.565C71.0657 110.565 71.1398 110.565 71.2138 110.565C71.2879 110.639 71.3619 110.639 71.436 110.714C71.8062 111.01 72.1764 111.306 72.5466 111.602C72.6206 111.602 72.7687 111.602 72.8428 111.602C72.9908 111.528 72.9908 111.38 72.9168 111.158C72.7687 110.936 72.6206 110.639 72.3245 110.565C72.3985 110.195 72.2504 109.899 72.0283 109.677C72.1023 109.751 72.1764 109.751 72.1764 109.825C72.3985 109.825 72.4725 109.677 72.4725 109.455C72.6206 109.677 72.6947 109.973 72.6947 110.269C72.9168 110.491 73.213 110.639 73.4351 110.862C73.5091 111.01 73.5832 111.158 73.6572 111.306C73.287 111.454 73.3611 111.75 73.5091 112.046C73.5832 112.12 73.6572 112.268 73.6572 112.342C73.7313 112.565 74.0274 112.565 74.1015 112.787C74.3976 113.083 74.8419 113.231 74.9159 113.675C75.1381 113.897 75.4342 114.045 75.6564 114.268C75.7304 114.49 75.6564 114.638 75.5823 114.786C76.1747 114.786 76.2487 115.452 76.693 115.674C76.767 115.748 76.8411 115.748 76.9151 115.822C76.9151 116.267 77.3594 116.415 77.5074 116.711C77.2113 116.637 76.9891 116.637 76.767 116.785C76.693 116.933 76.6189 117.081 76.693 117.229C76.693 117.229 76.693 117.229 76.693 117.303H76.6189C76.5449 117.303 76.5449 117.377 76.6189 117.451C76.6189 117.525 76.693 117.674 76.693 117.748C76.8411 117.97 76.8411 118.266 77.2113 118.192C77.2113 118.266 77.2853 118.414 77.2853 118.488C77.3594 118.562 77.4334 118.562 77.5074 118.636C77.7296 118.858 77.8776 119.154 78.0998 119.376C78.544 119.673 78.9142 120.117 79.2845 120.561C79.2845 120.931 79.6547 121.079 79.8768 121.302C79.5806 121.005 80.0249 120.487 79.5066 120.191C79.5066 120.117 79.4325 119.969 79.4325 119.895C80.0249 120.043 80.173 120.709 80.7653 120.931C80.9134 121.079 81.1355 121.228 81.2836 121.376C81.4317 121.894 81.95 122.042 82.3202 122.412C82.3942 122.486 82.4683 122.486 82.4683 122.56C82.3942 122.634 82.3942 122.708 82.3942 122.708C82.5423 122.856 82.7645 123.005 82.9125 123.153C83.0606 123.301 83.2827 123.449 83.4308 123.597C83.5049 123.671 83.5789 123.671 83.5789 123.745C83.5789 123.819 83.653 123.967 83.653 124.041C83.653 124.115 83.5789 124.189 83.5789 124.189C84.1713 124.708 84.9857 125.004 85.2819 125.818C86.3925 126.633 87.3551 127.595 88.1696 128.632C88.0215 128.632 87.8734 128.632 87.7253 128.632C87.133 128.039 86.7627 127.077 85.8002 126.855C85.8002 126.707 85.7262 126.559 85.5781 126.485C85.5781 126.485 85.5781 126.485 85.504 126.485C85.43 126.262 85.2819 126.114 85.1338 126.04C84.9857 125.966 84.8376 125.892 84.6155 125.892C84.6155 125.818 84.6155 125.744 84.6896 125.67C84.5415 125.3 84.2453 125.004 83.801 125.004V124.93C83.727 124.633 83.4308 124.411 83.2828 124.115C83.1347 123.819 82.9125 123.523 82.6164 123.449C82.5423 123.449 82.5423 123.449 82.4683 123.449C82.4683 123.375 82.3942 123.375 82.3202 123.301C82.0981 123.153 81.8019 122.708 81.6538 123.375C81.5798 123.449 81.5798 123.523 81.5057 123.523C81.5057 123.597 81.5798 123.745 81.5798 123.819C82.2462 124.263 82.9866 124.559 83.5789 125.078C83.727 125.596 84.0232 125.966 84.4674 126.262C84.5415 126.336 84.6155 126.336 84.6896 126.411C84.9117 126.633 85.1338 126.929 85.2819 127.151C85.43 127.299 85.6521 127.447 85.8002 127.595C85.8002 127.595 85.8002 127.669 85.8742 127.669C86.3925 128.484 86.9108 129.298 87.7253 129.891C87.7993 129.965 87.8734 129.965 87.9474 130.039C88.0955 130.335 88.3176 130.631 88.5398 130.779C88.6879 130.927 88.91 131.075 89.1321 131.223C89.4283 131.519 89.6504 131.816 89.9466 132.112C90.1687 132.334 90.4649 132.482 90.687 132.704C90.9832 133.148 91.3534 133.371 91.7976 133.593C91.9457 133.667 92.0198 133.741 92.1679 133.889L92.0938 133.963C91.7236 133.963 91.2793 133.889 91.2053 134.407C91.3534 134.555 91.5755 134.703 91.7236 134.851C91.8717 134.925 91.9457 135.073 92.0938 135.148C92.2419 135.37 92.39 135.518 92.6121 135.592C92.6121 135.814 92.6861 135.888 92.8342 136.036C92.9823 136.702 93.4266 137.221 93.9449 137.739C93.9449 138.331 94.7593 138.405 94.8334 138.924C94.6853 139.072 94.5372 139.294 94.3891 139.442C94.3151 139.368 94.241 139.368 94.167 139.294C94.167 138.998 93.9449 138.85 93.7227 138.702C93.7227 138.628 93.6487 138.553 93.5006 138.479C93.4266 138.405 93.3525 138.405 93.2044 138.331C93.0564 138.183 92.9083 138.109 92.7602 137.961C92.6862 137.887 92.6121 137.813 92.6121 137.665C92.5381 137.517 92.39 137.443 92.2419 137.517C91.9457 137.739 91.4274 137.369 91.2053 137.739C91.7976 138.183 92.3159 138.628 92.7602 139.22C92.8342 139.294 92.8342 139.294 92.9083 139.368C93.6487 140.553 94.7593 141.293 95.7959 142.182C95.87 142.182 95.944 142.182 95.944 142.182C95.87 142.182 95.7959 142.182 95.7959 142.182C96.1661 142.478 96.4623 142.848 96.7585 143.218H96.8325H96.7585C97.0547 143.885 97.721 144.107 98.1653 144.551C98.3134 145.069 98.8317 145.291 99.2019 145.588C99.35 145.958 99.7202 145.884 99.9423 146.18C100.164 146.624 100.683 146.92 100.831 147.513C100.905 147.883 101.423 148.475 101.793 148.623C103.644 149.29 104.977 150.845 106.606 151.733C106.976 152.622 107.939 152.918 108.531 153.51C109.272 154.102 110.012 154.695 110.753 155.213C111.641 154.991 112.011 155.879 112.678 156.176C112.974 156.398 113.418 156.768 113.492 156.694C114.158 156.176 114.455 156.842 114.899 157.138C115.121 156.25 114.233 156.398 113.936 156.102C113.788 155.953 113.566 155.805 113.344 155.657C112.826 154.769 111.789 154.547 111.123 153.88C110.901 153.658 110.604 153.51 110.382 153.288C110.012 152.992 109.642 152.696 109.272 152.399C109.272 152.177 109.198 152.029 109.05 151.955C108.976 151.437 108.605 151.141 108.235 150.771C107.124 149.882 105.718 149.364 104.829 148.031C104.459 147.439 103.718 147.216 103.052 147.661C102.904 147.29 102.608 146.994 102.238 146.772C102.164 146.476 102.016 146.402 101.719 146.328H101.645C101.719 146.254 101.719 146.254 101.793 146.18C101.645 145.662 101.201 145.365 100.905 144.921C100.831 144.699 100.905 144.551 100.979 144.403C100.609 144.107 100.313 144.181 100.016 144.477L99.9423 144.403L99.8683 144.329C99.7202 143.885 99.424 143.662 99.0538 143.514C98.9798 143.44 98.9798 143.44 98.9057 143.366C98.8317 143.366 98.7576 143.292 98.6836 143.292V143.218C98.6096 142.922 98.5355 142.7 98.2393 142.552H98.1653C98.1653 142.404 98.0913 142.33 97.9432 142.182C97.721 141.811 97.1287 141.885 96.9806 141.441C96.8325 141.293 96.6844 141.219 96.5364 141.145C96.5364 141.071 96.5364 141.071 96.5364 140.997C96.5364 140.923 96.4623 140.849 96.3883 140.775C96.5364 140.701 96.6844 140.627 96.8325 140.553C96.9066 140.627 97.0547 140.701 97.1287 140.849C97.4249 141.293 97.7951 141.589 98.2393 141.737C98.3134 141.811 98.3874 141.811 98.4615 141.885C98.6096 142.033 98.8317 142.182 98.9798 142.33C99.0538 142.7 99.35 142.848 99.6461 143.07C100.387 143.292 100.683 144.033 101.275 144.403C101.275 144.625 101.497 144.847 101.645 144.995C101.867 145.143 102.09 145.291 102.312 145.439C102.534 145.662 102.83 145.884 103.052 146.18C103.052 146.254 103.052 146.328 103.052 146.402C103.126 146.55 103.274 146.624 103.496 146.624C103.867 146.846 104.089 147.29 104.533 147.142C104.755 147.142 104.903 146.624 105.125 146.55C105.273 146.698 105.496 146.846 105.718 147.068C105.866 147.216 106.014 147.291 106.162 147.439C106.384 147.587 106.68 147.809 106.902 147.957C106.828 148.179 106.976 148.401 107.198 148.475C107.717 148.697 108.013 149.142 108.531 149.29H108.605C107.939 150.4 109.124 149.882 109.42 150.178C109.494 150.4 109.494 150.622 109.568 150.845C110.012 151.067 110.234 151.511 110.53 151.881C110.604 151.881 110.753 151.881 110.827 151.881C111.419 152.399 111.715 153.436 112.826 153.14C112.456 153.14 112.233 152.918 112.085 152.548C112.085 152.473 112.011 152.325 112.011 152.251C111.937 152.177 111.863 152.103 111.789 152.103V152.029C111.789 151.807 111.863 151.585 111.789 151.363C111.715 151.289 111.715 151.289 111.641 151.215C111.715 150.104 110.456 150.4 110.086 149.734C110.012 149.216 109.568 149.142 109.272 148.845L109.198 148.771L109.124 148.697C108.753 148.327 108.161 148.475 107.865 148.031C107.643 147.883 107.495 147.735 107.273 147.587C107.05 147.365 106.828 147.216 106.532 146.994C106.236 146.328 105.644 146.032 105.273 145.513C105.199 145.291 105.199 145.143 105.347 145.069C105.866 145.513 106.458 145.958 106.976 146.402C107.124 146.92 107.643 147.068 107.939 147.439C109.198 148.401 110.382 149.364 111.641 150.326C111.641 150.326 111.641 150.326 111.715 150.252H111.641C112.233 150.696 112.752 151.141 113.344 151.585C114.455 152.473 115.565 153.288 116.676 154.176C117.194 154.547 117.638 154.991 118.157 155.361C118.305 155.435 118.379 155.583 118.527 155.657C118.897 155.953 119.267 156.25 119.638 156.546C120.082 156.102 119.415 155.731 119.415 155.287C118.897 154.991 119.119 154.325 118.601 154.102C118.453 153.954 118.231 153.806 118.009 153.658C117.861 153.51 117.638 153.362 117.49 153.214C116.824 152.399 116.084 151.659 115.121 151.141C114.233 149.956 113.196 149.068 112.011 148.179C111.641 147.809 111.345 147.513 111.049 147.142C110.901 146.92 110.753 146.772 110.604 146.55C110.604 146.476 110.53 146.402 110.456 146.402C110.456 146.254 110.456 146.106 110.53 145.884C110.901 145.439 110.012 144.921 110.382 144.477C110.753 144.773 111.123 145.069 111.493 145.291C111.789 145.588 112.011 145.884 112.307 146.18C112.381 146.254 112.456 146.328 112.456 146.402C113.048 146.846 113.714 147.365 114.307 147.809C114.677 148.105 115.047 148.475 115.565 148.549C116.084 148.845 116.454 149.512 117.194 149.512C117.12 149.438 117.046 149.438 117.046 149.364C116.898 149.068 116.602 148.919 116.38 148.623C116.454 148.623 116.528 148.697 116.602 148.771C116.75 148.771 116.972 148.771 116.972 148.697C117.046 148.475 116.75 148.401 116.676 148.327C115.936 147.883 115.195 147.365 114.529 146.92C114.084 146.698 114.01 146.032 113.418 146.032L113.344 145.958L113.64 145.884C114.307 145.291 114.677 146.624 115.343 146.328V146.402C115.343 146.032 115.047 145.736 114.899 145.439C114.899 144.995 114.455 144.699 114.233 144.107C114.825 144.551 115.269 144.921 115.639 145.217C116.232 145.662 116.75 146.106 117.268 146.55C117.342 146.476 117.342 146.476 117.416 146.402C117.787 146.698 118.157 146.994 118.527 147.29C118.601 147.216 118.601 147.142 118.601 147.142C118.231 146.846 117.861 146.55 117.49 146.254C116.972 145.81 116.38 145.365 115.861 144.921C115.861 144.773 115.861 144.625 115.936 144.403C116.898 145.143 117.787 145.884 118.749 146.55C118.897 146.476 118.971 146.328 118.897 146.106C119.119 146.18 119.267 146.254 119.49 146.328C119.564 146.402 119.638 146.476 119.712 146.476C120.452 146.92 120.97 147.735 121.859 147.957C121.933 148.031 122.007 148.031 122.081 148.105C122.525 148.623 123.192 148.697 123.71 149.068C123.784 148.993 123.784 148.993 123.858 148.919C123.636 148.697 123.414 148.549 123.118 148.327C123.044 148.253 122.97 148.253 122.895 148.179C122.821 148.179 122.747 148.179 122.747 148.179C122.821 148.179 122.895 148.179 122.895 148.179C122.673 147.957 122.377 147.809 122.155 147.587C122.007 147.439 121.785 147.291 121.637 147.216C121.637 147.142 121.563 147.068 121.563 146.994C120.896 146.55 120.452 145.958 119.934 145.365C119.712 145.069 119.49 144.773 119.267 144.477C119.045 144.255 118.749 144.107 118.527 143.885C118.305 143.514 118.009 143.366 117.638 143.144C117.564 143.144 117.564 143.144 117.49 143.144C117.342 142.996 117.194 142.848 116.972 142.7C116.528 142.33 115.936 142.108 115.787 141.515C115.417 141.367 115.121 141.071 114.825 140.775C114.751 140.479 114.603 140.331 114.307 140.331C114.603 140.108 114.233 139.886 114.158 139.664C114.381 139.886 114.529 140.256 114.899 140.256C115.047 140.256 115.195 140.331 115.417 140.331C116.158 140.331 115.861 139.812 115.861 139.368C116.38 139.368 116.158 139.072 116.01 138.85C116.158 138.628 116.528 138.553 116.454 138.183C116.75 138.183 116.972 138.257 117.268 138.331C118.231 139.072 119.267 139.886 120.23 140.627C120.23 140.701 120.23 140.775 120.156 140.775C120.452 140.997 120.748 141.219 121.044 141.515C121.785 142.256 122.747 142.7 123.562 143.218C123.71 143.292 123.858 143.44 123.932 143.44C124.154 143.292 123.932 143.07 123.858 142.996C123.044 142.33 122.229 141.663 121.415 140.997C121.267 140.923 121.118 140.849 120.97 140.701C120.378 140.182 119.786 139.738 119.193 139.22C119.193 139.146 119.119 139.072 119.045 139.072C118.897 138.85 118.675 138.628 118.453 138.405H118.379V138.331C118.305 138.257 118.305 138.257 118.231 138.183C118.231 138.035 118.231 137.961 118.157 137.887C117.787 137.591 117.416 137.295 117.046 136.999C117.268 136.48 117.564 136.628 117.935 136.925C117.787 136.628 117.638 136.332 117.49 136.036C117.713 135.888 117.935 135.74 118.083 135.592C118.157 135.666 118.231 135.666 118.305 135.666C119.786 136.11 121.118 136.776 122.229 137.887C122.599 138.702 123.414 138.998 124.154 139.368C124.302 139.442 124.376 139.59 124.524 139.664C125.339 140.256 126.153 140.923 126.968 141.515C127.042 141.589 127.042 141.589 127.116 141.663C127.264 141.811 127.338 141.885 127.486 142.033C127.93 142.33 128.449 142.626 128.893 142.922C129.115 142.848 129.189 142.774 129.189 142.552C129.263 142.33 129.411 142.033 129.485 141.737C129.485 141.663 129.485 141.663 129.485 141.589C129.559 141.071 129.559 141.071 128.745 141.071C128.819 141.145 128.967 141.293 129.041 141.367C129.041 141.367 128.967 141.367 128.967 141.441C128.449 142.108 128.078 141.441 127.708 141.219C127.634 141.219 127.56 141.219 127.486 141.219C127.338 141.071 127.264 140.997 127.116 141.071C127.116 140.997 127.042 140.997 127.042 140.923C126.82 140.553 126.45 140.331 126.079 140.034C126.005 139.96 126.005 139.96 125.931 139.886C125.931 139.59 125.857 139.294 125.561 139.294C124.45 139.146 123.932 138.257 123.118 137.739C123.044 137.665 122.895 137.591 122.821 137.443C122.821 137.147 122.451 136.925 122.673 136.628C122.747 136.554 123.044 136.702 123.266 136.702C123.562 136.925 123.858 137.147 124.228 137.443C124.821 137.887 125.339 138.331 125.931 138.776C126.153 138.924 126.301 139.072 126.524 139.22C126.672 139.442 126.82 139.59 126.968 139.812C127.116 140.034 127.264 140.182 127.486 140.331C127.56 140.405 127.708 140.479 127.782 140.479C128.078 140.849 128.375 140.997 128.893 141.071C128.671 140.849 128.523 140.479 128.153 140.479C128.227 140.034 127.634 139.664 127.856 139.22C127.782 139.22 127.634 139.22 127.56 139.22C127.412 139.146 127.338 139.072 127.19 138.924C126.894 138.702 126.524 138.405 126.227 138.183C125.931 137.813 125.265 137.887 125.117 137.295C124.969 137.147 124.895 137.073 124.747 136.925L124.821 136.851C125.043 136.999 125.191 137.147 125.413 137.295C125.783 137.517 126.005 137.961 126.45 137.887C126.894 138.183 127.264 138.628 127.782 138.109C127.856 138.035 127.856 138.035 127.93 137.961C127.93 137.813 127.93 137.665 127.93 137.443C127.782 137.295 127.56 137.147 127.412 136.999C127.19 136.851 126.968 136.406 126.672 136.702C126.375 136.999 126.746 137.295 127.042 137.517C126.672 137.591 126.45 137.221 126.153 137.073C126.079 136.999 126.005 136.925 126.005 136.925C125.931 136.925 125.857 136.851 125.783 136.851C125.635 136.776 125.561 136.628 125.413 136.554C125.339 136.48 125.191 136.332 125.043 136.258C124.969 136.036 124.821 135.962 124.673 135.962C124.673 135.888 124.673 135.814 124.673 135.74C125.265 135.888 125.413 135.296 125.857 135.222C126.227 134.851 126.375 134.555 125.709 134.259C125.561 134.111 125.413 134.111 125.265 134.111C125.117 134.037 125.043 133.963 124.895 133.889C124.673 133.815 124.45 133.593 124.154 133.519C124.228 133.519 124.302 133.445 124.302 133.445C124.598 133.296 124.747 133 124.598 132.63C124.524 132.556 124.45 132.556 124.45 132.482C124.598 132.038 124.302 131.742 124.154 131.445C124.228 131.445 124.228 131.519 124.302 131.519C124.376 131.519 124.45 131.519 124.45 131.519C124.524 131.593 124.598 131.668 124.747 131.668C124.895 131.816 125.043 131.89 125.191 132.038C125.339 132.186 125.487 132.334 125.709 132.408C125.783 132.482 125.931 132.556 126.005 132.63V132.704C126.153 132.852 126.227 132.926 126.375 133.074C126.524 133.296 126.672 133.445 126.894 133.593C126.894 133.667 126.968 133.667 127.042 133.741C127.116 133.741 127.19 133.741 127.338 133.741C127.856 133.741 128.078 134.111 128.449 134.407C128.153 134.481 128.004 134.555 128.078 134.925C128.153 135.296 128.449 135.444 128.745 135.444C129.041 135.518 129.337 135.444 129.633 135.518C129.707 135.518 129.781 135.444 129.855 135.444L129.781 135.37L129.707 135.296C129.855 135.296 129.93 135.296 130.078 135.296C130.374 135.592 130.744 135.222 131.04 135.518C131.114 135.444 131.114 135.444 131.188 135.37C131.41 135.518 131.633 135.518 131.929 135.518C132.003 135.666 132.077 135.666 132.225 135.592C132.447 135.666 132.669 135.74 132.891 135.814C133.187 135.74 133.41 135.592 133.484 135.296C133.41 135.222 133.261 135.073 133.187 134.999H133.113L133.039 134.925C132.373 134.999 132.003 134.407 131.484 134.111C131.41 134.037 131.41 134.037 131.336 134.037C131.336 134.037 131.336 133.963 131.336 133.889L131.262 133.815L131.188 133.741C131.188 133.593 130.966 133.296 131.04 133.222C131.336 133.148 131.707 133.296 131.855 133.667C132.077 133.815 132.225 133.963 132.447 134.037C132.447 134.111 132.521 134.111 132.521 134.185C132.891 134.185 132.965 134.037 132.891 133.741C132.965 133.222 133.113 132.704 132.521 132.26L132.447 132.334C132.447 132.334 132.447 132.334 132.373 132.334C132.373 132.334 132.447 132.334 132.447 132.26C132.447 132.112 132.447 131.964 132.447 131.816C132.669 131.89 132.891 131.964 133.113 132.038C133.928 132.408 134.372 133.519 135.335 133.519C134.594 132.26 133.187 131.668 132.077 130.779C131.929 130.631 131.707 130.705 131.558 130.853C131.558 131.075 131.707 131.223 131.855 131.371C130.67 131.593 130.004 130.335 129.041 129.816C129.189 129.816 129.337 129.816 129.559 129.891V129.965C129.855 130.261 130.004 129.891 130.226 129.891C130.374 129.594 130.522 129.224 130.67 128.928C130.67 128.854 130.744 128.78 130.744 128.78C130.67 128.41 130.3 128.336 130.078 128.188C130.226 128.113 130.374 128.113 130.522 128.039C130.67 128.188 130.892 128.262 131.04 128.41C131.336 128.632 131.484 128.928 131.929 128.854C131.781 128.336 131.114 128.188 131.04 127.669C130.966 127.521 130.892 127.373 130.818 127.225H130.892C131.188 127.299 131.484 127.373 131.781 127.373C131.855 127.373 132.003 127.373 132.077 127.373C132.743 127.373 133.41 127.521 133.558 126.559L133.484 126.485L133.41 126.411C133.632 126.114 133.78 125.892 134.002 125.596V125.522V125.596C134.372 125.818 135.038 125.744 135.113 126.411C135.261 126.559 135.483 126.707 135.705 126.855C136.519 127.373 137.186 127.299 137.556 126.411C138.222 125.892 138.889 125.448 139.629 124.93C140.147 124.559 140.444 124.041 140.37 123.375C140.518 122.856 140.666 122.412 140.814 121.894C140.592 121.524 140.74 121.153 140.74 120.783C140.592 120.561 140.444 120.339 140.295 120.191C139.629 119.525 139.185 120.043 138.741 120.265C138.667 120.265 138.518 120.265 138.444 120.265C138 119.895 137.482 119.525 137.482 118.784C137.26 118.488 137.112 118.266 136.89 117.97C136.445 117.007 136.075 117.451 135.705 117.896C135.187 117.896 135.038 118.562 134.446 118.488C133.632 117.822 133.41 116.637 132.373 116.193C132.299 116.637 132.077 116.859 131.707 117.007C131.188 117.007 130.744 116.637 130.226 116.933C130.152 116.933 130.004 116.933 129.93 116.933H129.855C129.189 117.007 128.671 117.303 128.227 117.748C128.004 117.748 127.782 117.822 127.56 117.822C127.19 117.599 126.746 117.377 126.375 117.081C126.301 116.933 126.227 116.859 126.153 116.785C126.005 116.637 125.857 116.489 125.709 116.341C125.413 116.119 125.117 115.822 124.747 115.6C124.747 115.526 124.673 115.378 124.673 115.304C124.524 114.86 124.006 114.786 123.784 114.416C123.636 114.193 123.636 113.971 123.414 113.823C123.414 113.675 123.414 113.601 123.414 113.453C123.118 112.935 123.636 113.083 123.784 113.009C124.154 113.231 124.524 113.453 124.821 113.823C124.673 113.971 124.747 114.119 124.821 114.342C125.043 114.712 125.339 114.934 125.709 115.082C125.857 115.082 125.931 115.082 126.079 115.082C126.301 114.934 126.598 115.156 126.82 115.156C126.82 115.23 126.894 115.378 126.968 115.452C127.042 115.452 127.116 115.452 127.264 115.452C127.93 115.008 127.782 114.342 127.412 113.675C127.412 113.379 127.19 113.231 126.968 113.083C126.746 112.861 126.524 112.713 126.301 112.491C125.857 111.972 125.931 111.75 126.598 111.676C127.56 111.972 128.597 112.342 129.115 113.379C129.781 114.193 130.374 115.156 131.558 114.638C132.003 114.416 132.299 114.934 132.669 115.082C133.187 115.304 133.335 116.119 134.076 115.971C134.89 115.822 134.298 114.934 134.742 114.564C134.742 114.49 134.742 114.416 134.816 114.342C134.742 114.268 134.594 114.119 134.52 114.045C134.742 113.601 134.372 113.379 134.076 113.157C133.41 112.491 134.15 112.713 134.372 112.639C134.52 112.787 134.668 112.861 134.89 112.787C135.261 113.009 135.483 113.379 135.927 113.305C136.223 113.527 136.519 113.749 136.89 113.971C137.186 114.193 137.408 114.49 137.778 114.416C137.852 114.49 137.926 114.49 137.926 114.564C138.074 114.564 138.222 114.638 138.444 114.638C138.518 114.416 138.741 114.119 138.518 113.823C138.296 113.601 138.074 113.823 137.778 113.823C137.704 113.749 137.63 113.749 137.556 113.749C137.408 113.527 137.112 113.453 137.112 113.157C137.038 112.268 136.445 112.416 135.927 112.416C135.853 112.491 135.853 112.491 135.779 112.565C135.705 112.491 135.631 112.491 135.557 112.416C135.113 112.046 135.261 111.528 135.038 111.158C135.038 111.01 134.89 110.936 134.816 111.01C134.742 110.862 134.742 110.714 134.668 110.491L134.594 110.565C134.52 110.269 134.372 109.899 134.002 109.825C134.002 109.603 133.854 109.529 133.632 109.529C133.261 108.344 132.595 107.53 131.336 107.159C131.188 107.085 130.966 107.011 130.818 106.863C130.596 106.641 130.3 106.345 130.004 106.345C129.93 106.419 129.855 106.493 129.855 106.567C129.263 105.901 128.523 105.382 127.708 105.234C127.486 105.234 127.264 105.234 127.042 105.234C126.82 105.012 126.524 104.864 126.301 104.642C124.895 103.605 126.598 104.124 126.672 103.754C126.746 103.828 126.746 103.828 126.82 103.902C126.894 103.976 126.968 104.05 127.042 104.05C127.116 104.05 127.264 104.05 127.338 104.05C127.486 103.976 127.708 104.05 127.634 103.679C127.486 103.161 126.968 102.939 126.598 102.643C126.153 102.199 125.487 101.976 125.487 101.236C125.413 100.348 124.673 99.9033 124.154 99.311V99.385C123.858 99.1629 123.562 98.8667 123.266 98.6446C123.488 97.682 122.673 97.4599 122.155 96.9416C122.155 96.8676 122.081 96.8675 122.081 96.7935C121.563 95.905 120.6 95.5348 119.86 94.8684C119.86 94.7944 119.86 94.7944 119.786 94.7203C119.341 93.8318 118.231 93.6097 117.861 92.7212C117.713 92.6471 117.638 92.499 117.49 92.425C117.342 92.351 117.268 92.2029 117.12 92.1288C117.268 92.0548 117.416 91.9807 117.564 91.9807C117.638 92.0548 117.713 92.0548 117.787 92.1288C118.231 92.2769 118.231 93.0914 118.897 93.0173C118.971 93.0914 119.045 93.0914 119.045 93.1654C119.267 93.6097 119.712 93.8318 120.008 94.202C120.156 94.2761 120.23 94.4241 120.378 94.4982C120.526 94.6463 120.674 94.7203 120.748 94.8684C120.822 94.8684 120.822 94.9424 120.896 94.9424C121.118 95.5348 121.711 95.7569 122.155 96.1271C122.673 97.0897 123.71 97.5339 124.45 98.2003C125.043 98.6446 125.561 99.0888 126.153 99.5331C126.227 99.6071 126.227 99.6071 126.301 99.6812C126.301 99.7552 126.301 99.8293 126.227 99.8293C126.746 100.125 127.116 100.718 127.782 100.866C128.078 101.014 128.375 101.162 128.671 101.236C128.819 101.31 128.893 101.458 129.041 101.532C129.189 101.754 129.337 101.902 129.485 102.125C129.485 102.199 129.559 102.347 129.559 102.421C129.411 102.791 129.707 103.161 130.004 103.309C130.374 103.457 130.818 103.605 131.188 103.383C131.484 103.087 131.262 102.865 130.892 102.717C130.818 102.199 130.3 102.051 130.004 101.68C130.004 101.606 130.004 101.532 130.004 101.532C129.707 101.236 129.411 101.014 128.967 100.94C128.819 100.866 128.745 100.792 128.597 100.718C128.078 100.348 127.708 99.7552 127.042 99.6812C126.968 99.7552 126.968 99.7552 126.968 99.8293C126.968 99.7552 126.968 99.7552 126.968 99.6812C126.968 99.6071 126.894 99.6071 126.82 99.5331C126.894 99.459 126.894 99.459 126.894 99.385C126.82 99.0148 127.338 99.0148 127.412 98.7186C127.708 98.8667 128.078 99.0148 128.375 98.9407C128.819 98.8667 129.411 99.7552 129.781 98.9407C129.411 98.6446 129.041 98.3484 128.745 98.0522L128.671 98.1263C128.671 98.1263 128.671 98.1263 128.597 98.0522H128.671C127.856 97.0156 126.746 96.3493 125.783 95.6088C125.339 95.1646 124.895 94.7203 124.45 94.2761C124.228 93.9059 124.006 93.5356 123.784 93.1654C123.71 93.0914 123.636 93.0914 123.562 93.0173C123.118 92.5731 122.673 92.1288 122.229 91.6846L122.155 91.6105L122.081 91.5365C121.933 91.1663 121.563 90.8701 121.267 90.648C120.748 90.0556 120.23 89.4633 119.564 89.019C119.49 88.871 119.415 88.7969 119.267 88.7229C118.601 87.9824 117.787 87.3901 116.972 86.7978L116.898 86.7237L116.824 86.6497V86.5756H116.75C115.491 85.0948 114.01 83.9101 112.456 82.7254C112.011 82.1331 111.419 81.5407 110.753 81.0965C110.53 80.6522 110.086 80.3561 109.716 80.0599C109.494 79.7637 109.198 79.3935 108.976 79.0973C109.05 79.0233 109.05 79.0233 109.05 78.9493C108.605 78.579 108.235 78.2829 107.791 77.9127C107.791 77.9127 107.717 77.9127 107.717 77.9867H107.791C107.569 77.3944 106.976 77.1722 106.606 76.802C106.014 76.2837 105.421 75.8395 104.829 75.3212C105.57 75.4693 105.94 76.1356 106.606 76.5059C107.05 76.8761 107.421 77.1722 107.865 77.5425C108.087 77.5425 108.309 77.6905 108.309 77.3944C108.309 77.3203 108.383 77.2463 108.383 77.2463C108.309 77.1722 108.309 77.1722 108.235 77.0982C107.939 76.8761 107.643 76.5799 107.273 76.3578C107.273 76.2837 107.198 76.1356 107.198 76.0616C107.124 75.9876 107.05 75.9876 106.976 75.9135C106.754 75.6173 106.532 75.3952 106.236 75.2471C105.644 74.7288 105.199 74.0625 104.533 73.6922C104.459 73.322 104.385 73.322 104.311 73.322C104.237 72.8778 103.941 72.6556 103.496 72.5816C103.422 72.6556 103.422 72.6556 103.422 72.7297V72.6556C103.274 72.5076 103.052 72.3595 102.83 72.2114C102.682 72.1374 102.608 71.9893 102.46 71.9152C102.312 71.8412 102.238 71.6931 102.09 71.6191C101.719 70.8786 100.905 70.5825 100.387 69.9901C99.35 69.1756 98.2393 68.3612 97.2027 67.5467C96.9806 67.3246 96.7585 67.1765 96.4623 66.9544C96.4623 66.9544 96.4623 66.9544 96.5364 66.9544C96.5364 66.8803 96.6104 66.8063 96.6104 66.8063C96.5364 66.7322 96.5364 66.6582 96.4623 66.5842C96.5364 66.5842 96.5364 66.6582 96.6104 66.6582C96.8325 66.8063 97.0547 66.8803 97.3508 66.9544C97.4249 66.9544 97.573 66.9544 97.647 66.9544C97.7951 67.0284 97.9432 67.0284 98.0913 67.0284H98.1653C98.3134 67.1025 98.4615 67.1025 98.5355 67.1765C98.6096 67.2505 98.7576 67.2505 98.8317 67.3246C98.9798 67.4727 99.2019 67.6948 99.35 67.8429C99.7202 68.2871 100.238 68.5093 100.609 68.9535C100.683 69.0276 100.683 69.0276 100.757 69.1016C100.757 69.1016 100.757 69.1016 100.757 69.0276C100.979 69.1756 101.201 69.3237 101.423 69.3237C101.497 69.3237 101.571 69.3237 101.645 69.3237H101.719C101.719 69.3237 101.719 69.3978 101.645 69.3978C101.645 69.3978 101.645 69.3978 101.571 69.3237V69.3978C100.979 69.6199 101.497 69.9161 101.571 70.2122C101.719 70.5084 101.867 70.8046 102.164 70.9527C102.608 71.3229 103.052 71.6191 103.422 71.9893C103.57 72.6556 104.237 72.8037 104.607 73.1739C104.829 73.3961 105.125 73.5442 105.347 73.7663H105.273C105.199 73.9144 105.199 73.9884 105.273 74.1365C106.162 75.2471 107.495 75.7654 108.605 76.5799C108.901 76.802 109.272 77.0982 109.568 77.3203C109.568 77.3944 109.568 77.4684 109.568 77.6165C110.382 78.431 111.123 79.3935 112.159 79.9859C112.752 80.0599 113.196 80.7263 113.862 80.6522C113.862 80.3561 113.566 80.1339 113.862 79.9118C114.01 79.9859 114.084 80.0599 114.233 80.1339C114.307 80.1339 114.381 80.0599 114.381 79.9859C114.455 79.9859 114.455 80.0599 114.529 80.0599C114.751 80.282 114.973 80.282 115.121 80.0599C114.973 79.9118 114.751 79.7637 114.603 79.6156C114.381 79.3935 114.233 79.0973 114.01 78.8012C114.01 78.7271 114.084 78.7271 114.084 78.6531C113.788 78.431 113.492 78.1348 113.196 77.9127C112.9 77.4684 112.678 77.0242 112.381 76.5059C111.789 75.9876 111.123 75.5433 110.53 75.025C110.382 74.8769 110.16 74.7288 110.012 74.5808C109.568 73.7663 108.753 73.3961 108.087 72.8037C108.013 72.4335 107.643 72.3595 107.347 72.2114C107.124 71.9893 106.828 71.8412 106.606 71.6191C106.532 71.545 106.532 71.545 106.458 71.471C106.31 70.9527 105.792 70.7305 105.421 70.4344C105.051 70.1382 104.681 69.842 104.311 69.5459C103.867 68.7314 102.978 68.3612 102.386 67.7688C101.571 67.0284 100.831 66.1399 99.8683 65.5476C98.7576 64.6591 97.721 63.6965 96.5364 62.9561H96.4623H96.5364C95.87 62.5118 95.3517 61.9195 94.5372 61.6233L94.4632 61.5493L94.3891 61.4752C94.167 60.8829 93.5747 60.7348 93.2044 60.2905C92.9083 59.9944 92.5381 59.7722 92.2419 59.4761C92.464 59.4761 92.6861 59.4761 92.9083 59.402C92.2419 58.8097 91.7976 57.9952 90.8351 57.7731C90.687 57.6991 90.613 57.625 90.4649 57.551C89.7244 56.8846 88.8359 56.2923 87.9474 55.774C87.7993 55.6999 87.7253 55.5518 87.5772 55.4778C86.9849 55.1076 86.5406 54.4412 85.8002 54.2931C85.5781 54.145 85.2819 53.9229 84.9857 53.7748C84.5415 53.4786 84.0972 53.1825 83.5789 52.8863C83.2087 52.6642 82.9866 52.2199 82.4683 52.294C81.95 51.9237 81.5057 51.4054 80.8393 51.2574C80.3951 50.9612 80.0249 50.4429 79.4325 50.4429L79.3585 50.3689L79.2845 50.2948C78.9883 50.0727 78.6921 49.7025 78.2479 49.7025C77.8776 49.3323 77.4334 49.1842 76.9891 49.0361C76.9151 49.0361 76.6189 48.888 76.2487 48.888C76.0266 48.7399 75.8785 48.5918 75.6564 48.4437C75.5823 48.4437 75.5823 48.4437 75.5083 48.4437C75.5823 48.4437 75.5823 48.4437 75.6564 48.4437C75.4342 48.2216 75.1381 48.0735 74.9159 47.8514C74.5457 47.9254 74.4717 48.1476 74.6938 48.4437C75.3602 48.888 75.8785 49.6284 76.693 49.7765C76.767 49.7765 76.8411 49.8506 76.9151 49.9246C77.3594 50.1467 77.5815 50.665 78.1738 50.665C78.2479 50.665 78.3959 50.665 78.47 50.665C78.6181 50.7391 78.6921 50.8871 78.8402 50.9612C78.9142 50.9612 78.9883 50.9612 79.0623 51.0352C78.9883 51.0352 78.9142 50.9612 78.8402 50.9612C79.2104 51.2574 79.5806 51.5535 79.9508 51.8497H80.0249C80.0989 51.9237 80.0989 51.9237 80.173 51.9978C80.173 52.2199 80.3951 52.5901 80.0249 52.6642C79.3585 52.294 78.6921 51.8497 77.9517 51.4795L78.0257 51.4054H77.9517L77.8776 51.3314C77.6555 51.2574 77.4334 51.1093 77.1372 51.0352C77.0632 50.9612 76.9891 50.8871 76.9891 50.7391C76.8411 50.591 76.693 50.5169 76.5449 50.4429C76.3228 50.1467 76.0266 49.9986 75.7304 49.7765C75.5083 49.6284 75.3602 49.4803 75.1381 49.3323C74.8419 49.3323 74.6198 49.1842 74.3236 49.1842C74.2496 49.1842 74.1015 49.1842 74.0274 49.1842C73.9534 49.1842 73.8794 49.1101 73.8794 49.1101C73.7313 48.962 73.6572 48.888 73.5091 48.814C73.3611 48.814 73.213 48.6659 72.9908 48.6659C72.9908 49.0361 73.287 49.1842 73.5832 49.3323C73.5832 49.4803 73.6572 49.5544 73.8053 49.5544C74.2496 49.8506 74.5457 50.4429 75.1381 50.5169C75.7304 50.9612 76.2487 51.4054 76.8411 51.8497C76.5449 52.2199 76.2487 51.9237 76.0266 51.9978C75.9525 51.9978 75.8045 51.9978 75.7304 52.0718H75.8045C75.6564 52.0718 75.4342 52.1459 75.2121 52.1459H75.1381C74.3977 51.5535 73.5832 51.1833 72.6947 51.0352C72.5466 50.9612 72.3985 50.9612 72.1764 50.8871C72.0283 50.8131 71.9542 50.665 71.8062 50.591C71.6581 50.5169 71.584 50.4429 71.436 50.2948C71.1398 49.9986 70.5474 50.1467 70.4734 49.5544C70.1032 49.3323 69.6589 49.1101 69.2147 48.888C69.1406 48.962 69.1406 49.0361 69.0666 49.0361C69.3628 49.2582 69.6589 49.5544 70.0291 49.7765C69.9551 49.8506 69.9551 49.9246 69.8811 49.9246C69.2887 49.8506 68.9185 49.3323 68.4742 49.0361C68.03 48.6659 67.5857 48.3697 67.1415 47.9995C66.7713 47.7033 66.4011 47.4072 66.0308 47.111C65.8087 47.0369 65.8087 47.111 65.8828 47.3331C65.8828 47.4072 65.8087 47.4072 65.8087 47.4812C66.9934 49.1842 68.5483 50.4429 70.3253 51.3314C70.9177 51.7757 71.436 52.1459 71.9542 52.5901C72.0283 52.8123 72.0283 52.9603 72.1023 53.1825C71.7321 52.9603 71.4359 52.442 70.9177 52.5161C71.3619 52.8863 71.7321 53.1825 72.1764 53.5527C72.2504 53.6267 72.3245 53.6267 72.3245 53.7008C72.3245 53.8488 72.2504 53.8489 72.1764 53.7748C72.0283 53.7008 71.8062 53.4786 71.584 53.6267C71.436 53.5527 71.3619 53.6267 71.436 53.7748C71.3619 54.071 71.8062 54.2191 71.8062 54.5152C71.584 54.5152 71.1398 53.9969 71.1398 54.6633C71.0657 54.7374 71.0657 54.7374 70.9917 54.8114C70.1772 54.4412 69.5108 53.7748 68.6964 53.5527L68.6223 53.4786H68.5483C68.5483 53.4046 68.5483 53.3306 68.5483 53.2565C67.9559 52.5161 67.1415 52.0718 66.327 51.7016C65.4385 51.2574 64.4019 51.1093 63.5874 50.4429C63.3653 50.2948 62.9211 49.8506 62.773 50.5169C63.0691 50.8871 63.4394 51.2574 63.7355 51.5535C63.7355 51.9237 64.1057 52.0718 64.3279 52.294C64.4019 52.5901 64.624 52.8123 64.8462 53.0344C64.9202 53.1084 64.9943 53.1084 64.9943 53.1825C64.9202 53.1825 64.7721 53.1825 64.6981 53.3306C64.6981 53.2565 64.624 53.1825 64.624 53.1084C64.476 52.8123 64.1057 52.7382 63.8836 52.5901C63.4394 52.294 63.1432 51.9237 62.6989 51.7757C62.5508 51.7016 62.4768 51.6276 62.3287 51.5535C62.2547 51.5535 62.2547 51.6276 62.1806 51.6276C61.4402 51.1093 60.5517 50.9612 59.8853 50.3689C59.1449 49.7765 58.4045 49.2582 57.59 48.6659C57.516 48.5918 57.516 48.5178 57.4419 48.4437C56.5534 47.7774 55.7389 47.111 54.8504 46.4446C54.184 46.0744 53.6657 45.482 52.9253 45.334C52.2589 44.9637 51.5926 44.5195 50.9262 44.1493C50.7781 44.0752 50.704 43.9272 50.556 43.8531C50.0377 43.4829 49.5934 43.1127 49.0751 42.6684C48.4087 42.5203 48.1126 41.7799 47.4462 41.6318C47.7423 42.5203 48.6309 42.8165 49.1492 43.3348ZM61.5143 56.1442C61.4402 56.1442 61.4402 56.1442 61.3662 56.1442C61.2921 55.9961 61.144 55.774 60.996 55.6259C61.07 55.5518 61.07 55.4778 61.144 55.4037C61.2181 55.4037 61.2181 55.4778 61.2921 55.4778C61.4402 55.774 61.5883 55.922 61.8104 56.1442C61.7364 56.2182 61.6623 56.1442 61.5143 56.1442ZM61.8104 57.3288C61.8104 57.2548 61.8104 57.2548 61.8104 57.3288C61.8104 57.2548 61.8104 57.2548 61.8104 57.3288C61.8104 57.2548 61.8104 57.2548 61.8104 57.3288C61.8104 57.2548 61.8104 57.2548 61.8104 57.3288ZM62.9211 57.0327L62.847 56.9586C62.9211 56.9586 62.9951 57.0327 62.9211 57.0327C62.9951 57.0327 62.9951 57.0327 62.9211 57.0327ZM45.2249 58.6616C45.2249 58.6616 45.1509 58.6616 45.2249 58.6616V58.6616ZM45.373 60.4386C45.373 60.3646 45.373 60.3646 45.373 60.4386V60.4386ZM47.5202 59.0318C47.4462 59.0318 47.4462 58.9578 47.5202 59.0318C47.5202 59.0318 47.5943 59.0318 47.6683 59.1059C47.5943 59.0318 47.5202 59.0318 47.5202 59.0318ZM45.9653 78.431C45.8913 78.2829 45.8172 78.1348 45.6692 78.1348C45.7432 78.0607 45.7432 78.0607 45.7432 77.9867C45.9653 78.1348 46.1134 78.3569 46.3355 78.505C46.1875 78.431 46.1134 78.431 45.9653 78.431ZM51.1483 80.9484C51.0743 80.8744 51.0743 80.8744 51.1483 80.9484C51.0743 80.8744 51.1483 80.8744 51.1483 80.9484C51.1483 80.8744 51.1483 80.8744 51.1483 80.9484C51.1483 80.8744 51.1483 80.8744 51.1483 80.9484ZM61.144 63.2522C61.144 63.3263 61.144 63.2522 61.144 63.2522V63.2522ZM47.2981 65.3995C47.224 65.3995 47.224 65.3995 47.2981 65.3995C47.224 65.3995 47.2981 65.3995 47.2981 65.3995ZM46.9279 67.8429C47.0019 67.8429 47.0019 67.8429 46.9279 67.8429C47.0019 67.8429 47.0019 67.8429 46.9279 67.8429C47.0019 67.8429 47.0019 67.8429 46.9279 67.8429ZM50.1858 69.5459C50.1858 69.4718 50.1858 69.4718 50.1858 69.3978C50.2598 69.4718 50.2598 69.5459 50.2598 69.6199C50.2598 69.6199 50.2598 69.6199 50.1858 69.5459ZM52.7032 72.6556C52.7032 72.6556 52.7772 72.6556 52.7032 72.6556C52.7772 72.6556 52.7772 72.6556 52.7032 72.6556C52.7772 72.6556 52.7032 72.6556 52.7032 72.6556ZM49.5194 77.9127C49.4453 77.9127 49.4453 77.9127 49.5194 77.9127V77.9127ZM49.0011 81.5407C49.0011 81.5407 49.0011 81.4667 48.927 81.4667C49.0011 81.4667 49.0751 81.4667 49.0011 81.5407ZM51.4445 82.5773C51.1483 82.4293 50.8521 82.2071 50.556 81.985C50.2598 81.8369 49.9636 81.6888 49.6675 81.6148C49.4453 81.3927 49.1492 81.2446 48.927 81.0225C48.927 81.0225 48.927 81.0224 48.927 80.9484C48.7049 80.5042 48.4087 80.208 47.8904 80.1339H47.8164C47.6683 79.9859 47.4462 79.8378 47.224 79.6897C47.15 79.6156 47.15 79.6156 47.076 79.5416C47.076 79.5416 47.076 79.5416 47.0019 79.5416C47.076 79.4676 47.076 79.3935 47.15 79.2454C47.0019 78.9493 46.7798 78.7271 46.5577 78.579C46.6317 78.579 46.7058 78.579 46.8538 78.579C47.3721 78.6531 47.3721 79.3935 47.9645 79.5416C48.1866 79.6156 48.3347 79.5416 48.4828 79.3195C48.7049 79.5416 49.0011 79.6897 49.2232 79.8378C49.8155 80.5782 50.63 81.0965 51.2964 81.7629C51.2223 82.1331 51.7406 82.3552 51.4445 82.5773ZM52.7032 82.4293V82.3552H52.7772C52.7032 82.4293 52.7032 82.4293 52.7032 82.4293ZM58.4045 76.2837C58.3304 76.2097 58.3304 76.2097 58.4045 76.2837C58.3304 76.2097 58.3304 76.2097 58.4045 76.2837C58.3304 76.2097 58.3304 76.2097 58.4045 76.2837C58.4045 76.2097 58.4045 76.2837 58.4045 76.2837ZM97.7951 143.662C97.7951 143.662 97.8691 143.662 97.7951 143.662V143.662ZM109.864 150.178C109.864 150.178 109.864 150.252 109.864 150.178C109.864 150.252 109.864 150.178 109.864 150.178ZM109.42 147.587C109.42 147.661 109.42 147.661 109.42 147.587C109.42 147.661 109.42 147.661 109.42 147.587ZM125.339 137.147C125.339 137.221 125.339 137.221 125.339 137.147C125.339 137.221 125.339 137.221 125.339 137.147C125.339 137.221 125.339 137.221 125.339 137.147ZM130.078 134.629C130.004 134.629 130.004 134.703 129.93 134.703C129.855 134.629 129.781 134.481 129.707 134.407C129.633 134.333 129.485 134.333 129.337 134.333C129.189 134.185 129.041 134.111 128.893 133.963C128.819 133.889 128.745 133.741 128.597 133.667C128.523 133.593 128.523 133.593 128.449 133.519C129.115 133.815 129.707 133.963 130.078 134.629ZM136.297 121.153C136.297 121.079 136.297 121.153 136.297 121.153V121.153ZM136.741 120.413C136.815 120.413 136.815 120.413 136.741 120.413C136.815 120.413 136.815 120.487 136.741 120.413C136.815 120.487 136.815 120.413 136.741 120.413ZM120.748 133.889C120.748 133.815 120.748 133.815 120.748 133.889C120.748 133.815 120.748 133.815 120.748 133.889C120.748 133.815 120.748 133.889 120.748 133.889ZM125.339 127.965C125.413 127.965 125.413 127.965 125.339 127.965V127.965ZM126.598 127.003H126.672L126.746 127.077C126.746 127.151 126.672 127.077 126.598 127.003ZM133.261 119.302C133.187 119.228 133.261 119.302 133.261 119.302V119.302ZM102.016 143.736C102.09 143.811 102.164 143.885 102.164 143.959C102.09 143.885 102.016 143.811 102.016 143.736ZM105.421 143.588V143.514C105.421 143.514 105.421 143.514 105.421 143.588C105.421 143.514 105.421 143.588 105.421 143.588ZM108.087 145.069C108.087 144.995 108.087 144.995 108.087 145.069C108.087 144.995 108.087 145.069 108.087 145.069ZM110.901 143.662C110.901 143.662 110.827 143.662 110.901 143.662C110.827 143.662 110.901 143.662 110.901 143.662ZM111.419 137.665C111.419 137.665 111.493 137.665 111.419 137.665V137.665ZM122.377 116.415C122.377 116.489 122.377 116.489 122.377 116.415V116.415ZM122.673 114.49C122.673 114.564 122.673 114.49 122.673 114.49V114.49ZM107.717 134.407C107.643 134.407 107.717 134.407 107.717 134.407V134.407ZM105.57 135.962C105.866 136.11 106.088 136.48 106.458 136.628C106.606 136.628 106.754 136.628 106.754 136.48C106.902 136.554 106.976 136.628 107.124 136.776C108.235 138.257 109.938 139.072 111.271 140.256C111.049 140.553 111.271 140.849 111.493 140.997C111.789 141.293 112.011 141.589 112.307 141.811C112.233 141.811 112.159 141.885 112.085 141.959C112.085 141.663 111.863 141.441 111.641 141.293C109.938 139.886 108.457 138.257 106.68 136.851C106.162 136.702 106.014 136.036 105.421 136.036C105.496 136.036 105.421 135.888 105.57 135.962ZM103.941 136.628C103.941 136.628 104.015 136.702 103.941 136.628C104.533 137.369 105.347 137.739 105.866 138.479C106.31 138.924 106.68 139.368 107.347 139.516C107.421 139.516 107.421 139.516 107.495 139.516C107.569 139.812 107.865 139.738 108.013 139.886C108.013 139.886 107.939 139.886 107.939 139.96C107.939 140.701 108.605 140.849 108.976 141.293C109.42 141.663 109.864 141.959 110.234 142.404C110.678 142.774 111.123 143.218 111.567 143.588L111.641 143.662C111.641 143.736 111.641 143.811 111.715 143.811C111.641 143.736 111.567 143.662 111.493 143.662C111.271 143.44 110.975 143.218 110.827 142.922C110.604 142.996 110.678 143.292 110.456 143.292C110.456 143.292 110.456 143.366 110.456 143.44C110.234 143.292 110.012 143.144 109.79 143.292C109.79 143.218 109.79 143.218 109.79 143.144C109.198 141.959 108.235 141.219 107.05 140.701L106.976 140.775C106.976 140.553 106.828 140.331 106.606 140.182C106.532 140.108 106.458 140.108 106.458 140.034C106.014 139.442 105.866 138.628 104.977 138.405C104.829 138.331 104.755 138.183 104.607 138.109C104.607 137.517 103.793 137.369 103.718 136.554C103.718 136.48 103.867 136.554 103.941 136.628ZM123.118 109.825C123.044 109.825 122.97 109.751 122.895 109.677C122.97 109.751 123.044 109.825 123.118 109.825ZM120.896 91.7586C120.97 91.7586 120.97 91.7586 120.896 91.7586C120.97 91.7586 120.896 91.7586 120.896 91.7586ZM120.156 92.7952C120.082 92.8693 120.082 92.8693 120.008 92.8693C120.008 92.7952 120.008 92.7952 120.082 92.7212L120.156 92.7952ZM85.7262 123.967L85.8002 124.041C85.8002 124.041 85.7262 124.041 85.7262 123.967ZM88.7619 129.298C88.7619 129.298 88.7619 129.224 88.8359 129.224C88.91 129.298 88.91 129.372 88.984 129.446C88.91 129.298 88.8359 129.298 88.7619 129.298ZM95.4257 139.664C95.5738 139.664 95.7219 139.812 95.7959 139.738L95.87 139.812C95.7959 139.886 95.7959 139.886 95.7959 139.96C95.6479 139.886 95.5738 139.738 95.4257 139.664ZM122.599 109.529C122.525 109.529 122.451 109.529 122.377 109.677C122.303 109.455 122.081 109.233 121.933 109.085C122.155 109.233 122.377 109.381 122.599 109.529ZM119.712 111.972C119.712 112.046 119.638 111.898 119.712 111.972C119.712 111.898 119.712 111.898 119.712 111.972ZM102.83 135.592C102.83 135.666 102.904 135.74 102.978 135.74C102.904 135.74 102.83 135.74 102.682 135.74C102.608 135.666 102.534 135.592 102.46 135.518C102.312 135.296 102.09 135.148 101.941 134.925L102.016 134.999C102.312 135.222 102.608 135.444 102.83 135.592ZM119.564 106.345C119.564 106.345 119.564 106.419 119.564 106.345C119.267 106.789 119.712 107.085 120.008 107.308C120.6 107.752 121.118 108.27 121.637 108.714C121.489 108.566 121.341 108.492 121.193 108.418C120.748 108.196 120.304 107.974 119.934 107.678C119.712 107.456 119.415 107.308 119.119 107.159C118.971 107.085 118.897 107.011 118.749 106.863C118.601 106.715 118.453 106.567 118.231 106.419C118.601 106.197 119.045 106.345 119.564 106.345ZM107.643 121.153C107.643 121.228 107.643 121.302 107.643 121.45C107.569 121.376 107.495 121.228 107.495 121.079C107.569 121.079 107.643 121.153 107.643 121.153ZM122.229 100.792C122.229 100.792 122.303 100.792 122.229 100.792C122.303 100.792 122.377 100.866 122.377 100.94C122.155 100.94 121.933 100.792 121.785 100.644C121.933 100.718 122.081 100.792 122.229 100.792ZM117.638 105.456L117.564 105.382C117.638 105.382 117.638 105.382 117.638 105.456ZM121.118 100.274C121.118 100.274 121.044 100.274 121.118 100.274C121.044 100.274 121.044 100.199 121.118 100.274C121.044 100.199 121.044 100.274 121.118 100.274ZM98.3874 131.371H98.4615C98.4615 131.371 98.4615 131.445 98.5355 131.445C98.6836 131.593 98.9057 131.668 99.1278 131.668C99.2019 131.668 99.2019 131.668 99.2019 131.668C99.2759 131.742 99.1278 131.742 99.1278 131.816C99.1278 131.89 99.1278 132.038 99.2019 132.112C99.424 132.408 99.7202 132.63 99.9423 132.926C99.9423 133.074 100.016 133.296 99.7202 133.074C99.35 132.778 99.0538 132.334 98.6836 131.964C98.4615 131.816 98.2393 131.593 98.0913 131.371C98.1653 131.297 98.2393 131.371 98.3874 131.371ZM97.2768 134.629C97.2768 134.555 97.2768 134.555 97.2768 134.629C97.2768 134.555 97.2768 134.555 97.2768 134.629ZM97.0547 136.925C96.9806 136.925 96.9806 136.999 96.9066 136.999C96.9066 137.147 96.9066 137.221 96.9806 137.369C97.2768 137.813 97.7951 138.109 97.9432 138.479C97.721 138.331 97.4989 137.887 97.1287 138.109C97.0547 137.591 96.6104 137.369 96.1661 137.147H96.0921V137.073C95.944 136.925 95.7219 136.776 95.5738 136.702C95.4998 136.628 95.4257 136.554 95.4257 136.406C95.3517 136.332 95.2776 136.258 95.2036 136.258H95.1296C94.7593 135.74 94.5372 135.073 93.7968 134.925V134.851C93.7227 134.777 93.7227 134.629 93.6487 134.555C93.4266 134.333 93.2044 134.111 92.9083 133.963C92.8342 133.889 92.8342 133.889 92.7602 133.815C92.464 133.222 91.8717 132.926 91.4274 132.482C91.3534 132.038 90.9091 131.89 90.613 131.593C90.613 131.519 90.687 131.445 90.687 131.445C90.687 131.371 90.687 131.371 90.687 131.297C90.4649 130.853 90.0206 130.631 89.7985 130.261C89.5764 130.039 89.4283 129.816 89.1321 129.594C89.2062 129.668 89.2802 129.668 89.3542 129.668C89.3542 129.668 89.3542 129.668 89.3542 129.594C90.3908 130.483 91.5015 131.149 92.39 132.26C92.3159 132.26 92.3159 132.334 92.3159 132.408C92.6861 132.778 93.0564 133.074 93.4266 133.445C94.5372 134.555 95.6479 135.888 97.0547 136.925ZM91.7236 127.003C91.7236 127.077 91.7236 127.077 91.7236 127.003V127.003ZM90.761 128.632C90.761 128.706 90.761 128.706 90.761 128.632C90.761 128.706 90.761 128.706 90.761 128.706C90.761 128.706 90.761 128.706 90.761 128.632ZM116.232 98.5705C116.676 98.9407 117.046 99.6812 117.713 99.459C117.787 99.5331 117.787 99.6071 117.861 99.6071C118.009 99.7552 118.083 99.9033 118.231 99.9773C118.083 100.051 117.935 100.051 117.787 100.051C117.638 99.9773 117.49 99.8293 117.416 99.7552C117.12 99.5331 116.824 99.311 116.454 99.385C116.454 99.311 116.454 99.311 116.454 99.2369C116.232 98.7927 115.787 98.4965 115.417 98.2003C114.677 97.608 113.862 97.0897 113.196 96.3493C113.492 95.831 113.048 95.3127 112.826 94.7944C112.9 94.9424 113.048 95.1646 113.196 95.2386L113.27 95.3127C113.344 95.905 113.862 96.0531 114.381 96.1271C114.381 96.1271 114.381 96.2012 114.381 96.2752C114.677 96.7935 115.047 97.1637 115.639 97.3118L115.713 97.3858C115.861 97.5339 116.084 97.7561 116.306 97.7561V97.8301C116.232 97.9041 116.232 98.0522 116.306 98.1263C116.232 98.2744 116.01 98.4224 116.232 98.5705ZM96.5364 129.52L96.4623 129.594C96.4623 129.742 96.4623 129.891 96.6104 129.965C96.4623 129.891 96.3142 129.891 96.0921 129.816C96.2402 129.742 96.3142 129.52 96.5364 129.52ZM113.714 105.975L113.788 106.049C113.788 106.049 113.788 106.049 113.714 106.049C113.788 106.049 113.714 105.975 113.714 105.975ZM96.4623 127.003C96.4623 127.003 96.3883 127.003 96.4623 127.003C96.3883 127.003 96.4623 127.003 96.4623 127.003ZM93.7227 128.336C93.7227 128.336 93.6487 128.336 93.7227 128.336C93.6487 128.336 93.6487 128.336 93.7227 128.336ZM119.045 95.1646C119.045 95.1646 118.971 95.1646 119.045 95.1646C118.971 95.1646 118.971 95.1646 119.045 95.1646C118.971 95.1646 118.971 95.1646 119.045 95.1646ZM113.936 93.3876C114.751 93.8318 115.195 94.7944 116.158 95.0165C116.232 95.0905 116.232 95.0905 116.306 95.1646C116.306 95.2386 116.38 95.2386 116.38 95.3127C116.454 95.3867 116.528 95.5348 116.602 95.6088C116.676 95.6829 116.75 95.6829 116.824 95.7569C117.194 96.2752 117.787 96.5714 118.305 96.9416C118.379 97.0897 118.453 97.1637 118.527 97.3118C118.601 97.3858 118.675 97.4599 118.749 97.5339C118.749 97.5339 118.749 97.5339 118.823 97.5339C118.675 98.0522 119.193 98.2744 119.49 98.5705C119.786 98.7186 120.008 98.9407 120.304 98.9407C120.378 99.311 120.526 99.6812 120.748 99.9773C120.526 99.8293 120.304 99.6071 120.082 99.5331C119.934 99.459 119.86 99.311 119.712 99.2369C119.564 99.0888 119.341 98.9407 119.193 98.7927C118.749 98.4965 118.379 98.1263 117.935 97.8301C117.12 96.8675 116.306 95.905 115.047 95.5348V95.6088V95.5348C115.121 95.4607 115.121 95.3867 115.121 95.3867C114.529 94.7944 113.862 94.202 113.788 93.3135C113.788 93.3135 113.862 93.3135 113.936 93.3876ZM109.716 98.5705L109.642 98.6446C109.79 99.0888 110.086 99.311 110.53 99.385C110.16 99.459 109.938 99.0888 109.642 99.0888C109.346 98.7927 109.346 98.5705 109.716 98.5705ZM91.7236 123.375C91.7236 123.301 91.7236 123.301 91.7236 123.227C91.7976 123.227 91.7236 123.301 91.7236 123.375ZM117.12 88.3527C117.12 88.2786 117.12 88.3527 117.12 88.3527V88.3527ZM91.0572 121.968C91.0572 121.894 91.0572 121.968 91.0572 121.968V121.968ZM88.5398 112.491C88.4657 112.491 88.4657 112.491 88.3917 112.491C88.3917 112.416 88.3176 112.416 88.3176 112.342C88.3917 112.416 88.4657 112.416 88.5398 112.491ZM85.0598 118.044C85.1338 118.044 85.2819 118.044 85.3559 118.044C85.504 118.118 85.5781 118.266 85.7262 118.34C85.9483 118.932 86.4666 119.154 86.9108 119.525C86.9849 119.673 87.0589 119.821 87.133 119.969C87.281 120.339 87.5032 120.561 87.8734 120.709C87.5772 120.783 87.5032 120.931 87.7253 121.302C87.8734 121.598 88.1696 121.746 88.4657 121.894C88.6138 121.894 88.6879 121.968 88.7619 121.894C88.8359 122.116 88.984 122.264 89.1321 122.412C89.5023 122.856 90.0206 123.227 90.3908 123.671C90.761 123.967 91.0572 124.411 91.3534 124.708C91.9457 125.522 92.8342 126.04 93.6487 126.633C93.5747 126.707 93.5747 126.707 93.5006 126.781C93.2785 126.559 92.9823 126.485 92.7602 126.781C93.0564 126.929 93.2785 127.299 93.5747 127.299V127.373C93.6487 127.447 93.6487 127.521 93.7227 127.669C93.4266 127.669 93.2044 127.373 92.9823 127.225C92.3159 126.855 91.9457 126.188 91.4274 125.744C91.2793 125.078 90.687 124.856 90.2427 124.485C89.7985 124.189 89.3542 123.893 88.984 123.449C88.91 123.375 88.8359 123.301 88.7619 123.227L88.6879 123.153V123.079C88.3176 122.708 88.0215 122.412 87.6513 122.042C87.5772 121.968 87.5032 121.82 87.4291 121.746C87.3551 121.672 87.281 121.672 87.133 121.672C87.133 121.672 87.133 121.598 87.133 121.524C86.4666 120.635 85.8742 119.673 84.9857 118.932C84.8376 118.858 84.6896 118.784 84.6155 118.71C84.4674 118.34 84.3193 118.044 84.0972 117.822C84.3193 118.118 84.6896 118.118 85.0598 118.044ZM87.4291 111.602C87.5032 111.676 87.6513 111.75 87.7253 111.824C87.5772 111.676 87.3551 111.602 87.207 111.454C87.281 111.454 87.3551 111.528 87.4291 111.602ZM80.9134 113.823C80.9874 113.897 80.9874 113.971 81.0615 114.045C81.2096 114.268 81.3576 114.416 81.5798 114.564H81.6538C81.5798 115.082 82.2462 115.082 82.4683 115.452C82.5423 115.526 82.6164 115.6 82.6904 115.674C82.8385 115.822 82.9125 115.971 83.0606 116.119C82.6164 115.971 82.0981 115.896 81.8019 115.526C81.3576 114.86 80.7653 114.416 80.5432 113.675C80.6913 113.601 80.7653 113.749 80.9134 113.823ZM85.504 106.715C85.504 106.789 85.43 106.789 85.3559 106.641C85.3559 106.715 85.43 106.715 85.504 106.715ZM80.7653 106.789C80.8393 106.789 80.9134 106.863 80.9134 106.937C80.8394 106.863 80.8393 106.863 80.7653 106.789ZM80.6172 109.159C80.5432 109.085 80.5432 109.085 80.6172 109.159C80.6172 109.085 80.6172 109.085 80.6172 109.159C80.6172 109.085 80.6172 109.159 80.6172 109.159ZM84.3934 105.901C84.3193 105.901 84.2453 105.827 84.0972 105.827C84.0972 105.827 84.0972 105.827 84.0232 105.827C84.0232 105.827 84.0232 105.827 84.0232 105.753C83.9491 105.531 83.727 105.308 83.5789 105.16C83.9491 105.382 84.1713 105.679 84.3934 105.901ZM83.4308 104.272C83.4308 104.272 83.4308 104.346 83.4308 104.272C82.8385 104.346 82.3942 103.976 81.8759 103.754C82.3942 103.754 82.8385 104.42 83.4308 104.272ZM81.0615 104.864C80.9874 104.864 80.9874 104.864 81.0615 104.864C80.9874 104.79 80.9874 104.79 81.0615 104.864C80.9874 104.864 80.9874 104.864 81.0615 104.864ZM78.6921 103.902C78.8402 103.902 78.9142 103.828 78.9142 103.754C79.0623 103.828 79.2104 103.902 79.3585 103.828C79.8768 104.198 80.173 104.938 80.7653 105.16C81.7279 105.531 82.3202 106.271 82.8385 107.085C82.9866 107.604 83.3568 107.826 83.801 108.048C83.4308 107.826 82.9866 107.752 82.7645 107.382C82.5423 107.159 82.3202 107.011 82.024 107.085C82.024 107.085 82.024 107.085 82.024 107.011C81.95 106.641 81.6538 106.419 81.3576 106.197C80.5432 105.753 79.9508 105.012 79.0623 104.568C79.2845 104.124 78.7662 103.976 78.47 103.754C78.6181 103.902 78.6181 103.902 78.6921 103.902ZM74.3236 107.974C74.3236 107.974 74.2496 107.974 74.3236 107.974V107.974ZM75.5083 104.346C75.5083 104.346 75.5823 104.346 75.5083 104.346C75.5823 104.346 75.5083 104.346 75.5083 104.346ZM113.27 77.8386C113.196 77.8386 113.27 77.9127 113.27 77.8386V77.8386ZM106.754 73.6182C106.68 73.5442 106.68 73.5442 106.754 73.6182V73.6182ZM103.274 69.5459C103.274 69.5459 103.274 69.4718 103.274 69.5459C103.274 69.4718 103.274 69.4718 103.274 69.5459C103.274 69.6199 103.348 69.768 103.422 69.842C103.57 69.9901 103.793 70.1382 103.941 70.1382C104.163 70.3603 104.385 70.5825 104.607 70.8046C104.755 70.9527 104.903 71.1008 105.125 71.2488C105.347 71.3229 105.495 71.3969 105.644 71.545C105.718 71.6191 105.792 71.6931 105.866 71.7671C105.866 71.8412 105.94 71.8412 105.94 71.9152C106.014 71.9893 106.088 72.0633 106.236 72.0633C106.31 72.0633 106.384 72.1374 106.458 72.0633C106.532 72.2854 106.68 72.4335 106.976 72.4335V72.5076C106.976 72.8037 107.124 72.9518 107.273 73.1739C107.124 73.0999 107.05 73.0999 106.902 73.0999C106.68 72.8778 106.384 72.7297 106.162 72.5816C105.866 72.3595 105.57 72.0633 105.199 71.8412C105.125 71.7671 105.051 71.7671 105.051 71.6931C105.051 71.6191 105.125 71.545 105.125 71.545C104.829 71.3229 104.533 71.1008 104.237 70.8046C104.089 70.7305 104.015 70.5825 103.867 70.5084C103.718 70.0642 103.274 69.842 102.904 69.5459C102.682 69.4718 102.46 69.3237 102.238 69.2497C101.867 68.9535 101.497 68.6574 101.201 68.3612C101.201 68.3612 101.201 68.3612 101.201 68.2871C101.793 68.6574 102.386 69.4718 103.274 69.5459ZM98.7576 65.6957C98.7576 65.7697 98.7576 65.7697 98.7576 65.6957C98.7576 65.7697 98.7576 65.6957 98.7576 65.6957ZM74.8419 48.2957C74.8419 48.2957 74.9159 48.2957 74.8419 48.2957C74.9159 48.3697 74.9159 48.3697 74.8419 48.2957C74.9159 48.3697 74.8419 48.3697 74.8419 48.2957ZM56.0351 84.5024C56.1092 84.5024 56.1092 84.5024 56.0351 84.5024C56.1092 84.5024 56.1092 84.5024 56.0351 84.5024C56.1092 84.5024 56.1092 84.5024 56.0351 84.5024ZM69.8811 65.5476L69.9551 65.4735C69.9551 65.5476 69.9551 65.5476 69.9551 65.6216C69.9551 65.6216 69.9551 65.5476 69.8811 65.5476ZM76.8411 55.6259C77.0632 55.6999 77.2113 55.848 77.4334 55.922C77.8036 55.922 78.1738 56.4403 78.544 56.2182C78.544 56.1442 78.6181 56.1442 78.6181 56.0701C78.9142 56.5144 79.3585 56.6625 79.7287 56.8846C80.0989 57.0327 80.3951 57.3288 80.8393 57.4769C81.0615 57.6991 81.2836 57.9212 81.4317 58.2174C81.2836 58.3654 81.1355 58.4395 81.1355 58.6616C81.2096 58.7357 81.2096 58.8097 81.2836 58.8097C81.0615 58.6616 80.9134 58.5135 80.6913 58.4395C80.247 58.0693 79.6547 58.0693 79.1364 57.7731C79.1364 57.7731 79.1364 57.7731 79.1364 57.6991C78.9142 57.4769 78.6921 57.2548 78.3959 57.1067C78.47 57.1067 78.47 57.0327 78.47 57.0327C78.3219 56.3663 77.8776 56.0701 77.2853 55.774C77.1372 55.774 76.9891 55.6999 76.8411 55.6259ZM79.8768 64.8812L79.8028 64.8071C79.8768 64.8071 79.8768 64.8071 79.8768 64.8812ZM77.8776 58.5135C77.8776 58.5135 77.8776 58.5876 77.8776 58.5135C77.8776 58.5876 77.8776 58.5135 77.8776 58.5135ZM73.8053 64.8071C73.8053 64.8812 73.8794 64.8812 73.8053 64.8071C73.8794 64.8812 73.8794 64.8812 73.8053 64.8071C73.8053 64.8812 73.8053 64.8812 73.8053 64.8071ZM63.2172 91.7586C63.2172 91.7586 63.2913 91.7586 63.2172 91.7586V91.7586ZM62.4028 97.0897C62.4028 97.0156 62.4028 97.0156 62.4028 97.0897C62.4028 97.0897 62.4028 97.0156 62.4028 97.0897ZM66.4011 93.4616C66.4011 93.4616 66.4011 93.3876 66.4011 93.4616C66.4011 93.3876 66.4011 93.3876 66.4011 93.4616C66.4751 93.3135 66.4751 93.4616 66.4011 93.4616ZM65.6606 96.5714C65.6606 96.5714 65.6606 96.6454 65.6606 96.5714C65.6606 96.6454 65.6606 96.5714 65.6606 96.5714ZM66.9194 104.124L66.9934 104.05C67.0674 104.05 67.0674 104.124 67.1415 104.124C67.0674 104.05 66.9934 104.05 66.9194 104.124ZM68.6964 102.791C68.6964 102.791 68.7704 102.791 68.6964 102.791C68.7704 102.791 68.7704 102.791 68.6964 102.791C68.7704 102.791 68.7704 102.791 68.6964 102.791ZM71.8802 107.678V107.752C71.6581 107.678 71.4359 107.604 71.2879 107.678C71.2879 107.604 71.2138 107.456 71.2138 107.382C70.8436 106.937 70.6955 106.271 70.1032 106.049C70.2513 106.049 70.3994 106.049 70.4734 106.049C70.6215 106.049 70.8436 106.123 70.9917 106.197C71.1398 106.345 71.2879 106.419 71.436 106.567C72.2504 106.863 71.51 107.382 71.8802 107.678ZM97.4989 69.3237C97.4989 69.3978 97.4989 69.3978 97.4989 69.3237C97.573 69.3978 97.4989 69.3978 97.4989 69.3978C97.4989 69.3978 97.4989 69.3978 97.4989 69.3237ZM95.3517 62.734C95.2776 62.734 95.2776 62.734 95.3517 62.734C95.2776 62.6599 95.3517 62.6599 95.3517 62.5859C95.3517 62.6599 95.3517 62.734 95.3517 62.734ZM94.0189 62.4378C94.0189 62.5118 94.0189 62.5118 94.0189 62.4378C94.0189 62.5118 94.0189 62.5118 94.0189 62.4378C94.0189 62.5118 94.0189 62.5118 94.0189 62.4378ZM92.0938 62.0676C92.1679 62.2157 92.0938 62.2157 92.0938 62.0676V62.0676ZM88.6138 64.3629C89.3542 64.9552 90.0947 65.5476 90.8351 66.0659C90.9832 66.2139 91.2053 66.362 91.3534 66.4361C91.3534 66.5101 91.4274 66.5101 91.4274 66.5842C91.0572 66.5842 90.5389 65.9918 90.2427 66.5842C90.2427 66.5842 90.2427 66.5842 90.1687 66.5101C89.4283 65.9178 88.6879 65.4735 88.1696 64.6591C88.2436 64.585 88.2436 64.511 88.3176 64.4369C88.2436 64.1408 88.1696 63.9186 88.0955 63.6965C88.1696 63.9927 88.3917 64.1408 88.6138 64.3629ZM65.7347 93.9799C65.2164 93.6097 64.8462 93.1654 64.1798 93.0914C64.624 92.9433 64.9202 93.6097 65.3645 93.4616C65.4385 93.4616 65.4385 93.3876 65.4385 93.3876C65.5126 93.5356 65.6606 93.7578 65.7347 93.9799ZM91.2793 58.2914C91.3534 58.2914 91.3534 58.3654 91.4274 58.3654C91.3534 58.3654 91.2793 58.3654 91.2793 58.2914C91.2793 58.3654 91.2793 58.2914 91.2793 58.2914ZM88.1696 56.5144C88.1696 56.5884 88.1696 56.5884 88.1696 56.5144C88.0955 56.5884 88.0955 56.5884 88.1696 56.5144C88.0955 56.5884 88.0955 56.5144 88.1696 56.5144ZM78.544 52.5161C78.6921 52.5901 78.7662 52.6642 78.9142 52.7382C79.3585 53.1084 79.8028 53.4046 80.247 53.7748L80.3211 53.7008C80.6913 53.9969 81.0615 54.2931 81.5057 54.5893C81.6538 54.6633 81.7279 54.6633 81.8019 54.5893C81.8019 54.5152 81.8019 54.5152 81.8759 54.5152C82.024 54.6633 82.2462 54.8114 82.3942 54.8854C82.5423 55.0335 82.7645 55.1816 82.9866 55.3297C83.727 55.922 84.3934 56.4403 85.1338 57.0327C85.3559 57.1808 85.7262 57.3288 85.5781 57.625C84.9857 58.8097 86.0223 59.1059 86.7627 59.6982C87.133 59.9944 87.7993 60.0684 87.5032 60.8088C86.4666 61.2531 87.133 61.7714 87.6513 62.2157C87.6513 62.5859 87.6513 62.9561 87.8734 63.2522C87.8734 63.3263 87.8734 63.4003 87.9474 63.4744C87.5032 63.0301 86.9108 62.7339 86.2445 62.4378C85.7262 62.1416 85.43 61.6233 84.8376 61.5493C84.6896 61.4012 84.4674 61.2531 84.3193 61.105C84.1713 60.5867 83.801 60.2905 83.4308 60.1425C82.7645 59.7723 82.2462 59.328 81.6538 58.9578C81.8019 58.9578 81.8759 58.9578 82.024 58.7357C82.024 58.6616 82.0981 58.6616 82.0981 58.5876C82.3202 58.8097 82.6164 58.9578 82.8385 59.1799C83.1347 59.9944 83.801 60.2165 84.4674 60.4386C84.1713 60.2165 83.8751 59.9944 83.5789 59.6982C83.5789 59.5501 83.653 59.402 83.653 59.1799C83.5049 59.1059 83.4308 58.9578 83.2828 58.8837C82.9125 58.5876 82.5423 58.2914 82.1721 57.9952C82.3202 57.9952 82.3942 57.7731 82.4683 57.625C82.5423 57.4769 82.5423 57.2548 82.5423 57.1067C83.3568 57.3288 83.5789 57.1808 83.5789 56.5144C83.5049 56.4403 83.3568 56.3663 83.2828 56.3663C83.2087 56.3663 83.2087 56.3663 83.1347 56.2923C83.0606 56.2182 82.9866 56.2182 82.9125 56.1442C82.7645 55.922 82.5423 55.848 82.3942 55.6999C82.3202 55.6259 82.1721 55.5518 82.0981 55.4778C81.95 55.4037 81.8019 55.3297 81.7279 55.1816C81.5798 55.1076 81.3576 55.0335 81.2096 54.9595C81.1355 54.8854 81.0615 54.8114 80.9874 54.7374C80.0249 54.3671 79.3585 53.4046 78.2479 53.1084C78.3219 53.0344 78.3959 53.0344 78.47 52.9603C78.2479 52.9603 78.544 52.8123 78.544 52.5161Z" fill="#45678D"/>
<path d="M144 84.8686L99.1318 40L44.1062 95.0256L88.9749 139.894L144 84.8686Z" fill="#25374D"/>
<path d="M141.014 95.5571L87.5068 42.0498L33.9996 95.5571L87.5068 149.064L141.014 95.5571Z" stroke="url(#paint0_linear)" stroke-width="2" stroke-miterlimit="10"/>
<path d="M70.7703 107.707C71.1202 107.445 71.4211 107.073 71.5381 106.65L77.6944 91.2956H86.2413H86.4484L86.5949 91.1491L86.6689 91.0751L90.371 87.373L91.2246 86.5194H90.0175H86.3154H79.4943L85.2264 71.8L85.2309 71.7885L85.2348 71.7767C85.2734 71.6608 85.3223 71.5273 85.376 71.3806C85.5 71.042 85.6496 70.6337 85.7569 70.2126C85.7836 70.1404 85.8093 70.0673 85.834 69.9935C85.8619 70.0762 85.8908 70.1582 85.9212 70.2392C85.9976 70.443 86.0705 70.655 86.1438 70.8684C86.262 71.2125 86.3814 71.5601 86.5188 71.8817L91.6987 85.2015L91.9764 85.9157L92.5183 85.3738L96.1464 81.7457L96.38 81.5121L96.2567 81.2055L88.9264 62.9911L88.8003 62.6777H88.4626H83.2796H82.9419L82.8158 62.991L64.8975 107.491L64.621 108.177H65.3613H69.3596C69.9223 108.177 70.3961 107.988 70.7703 107.707Z" fill="#45678D" stroke="url(#paint1_linear)" stroke-miterlimit="10"/>
<path d="M96.6806 104.585H91.5534V96.4217V95.2146L90.6998 96.0681L86.0351 100.733L85.8887 100.879V101.086V125.594C85.8887 127.129 87.1491 128.39 88.684 128.39H91.1274H91.6274V127.89V109.287H96.6065C98.7277 109.287 100.63 108.984 102.311 108.449C103.998 107.912 105.393 107.14 106.56 106.129C107.734 105.111 108.589 103.863 109.206 102.474C109.836 101.057 110.064 99.5009 110.064 97.8285C110.064 96.1376 109.756 94.5953 109.216 93.2047C108.666 91.7909 107.803 90.6192 106.72 89.6136C105.607 88.5796 104.121 87.8853 102.463 87.3573C101.847 87.1524 101.116 87.0082 100.46 86.8787C100.366 86.8603 100.274 86.8421 100.185 86.8242L99.9222 86.7717L99.733 86.9609L98.3262 88.3677L96.253 90.4409L95.3994 91.2944H96.6065C97.6696 91.2944 98.6687 91.4355 99.5467 91.5816C100.801 91.8622 101.75 92.344 102.486 93.0123C103.707 94.167 104.399 95.7326 104.399 97.8285C104.399 98.8944 104.257 99.7873 103.919 100.598C103.577 101.421 103.097 102.107 102.473 102.732C101.883 103.321 101.076 103.735 100.066 104.095C99.1022 104.44 97.9795 104.585 96.6806 104.585Z" fill="#45678D" stroke="url(#paint2_linear)" stroke-miterlimit="10"/>
<defs>
<filter id="filter0_dd" x="0.387695" y="0" width="177.224" height="200" filterUnits="userSpaceOnUse" color-interpolation-filters="sRGB">
<feFlood flood-opacity="0" result="BackgroundImageFix"/>
<feColorMatrix in="SourceAlpha" type="matrix" values="0 0 0 0 0 0 0 0 0 0 0 0 0 0 0 0 0 0 127 0"/>
<feOffset dy="4"/>
<feGaussianBlur stdDeviation="7.5"/>
<feColorMatrix type="matrix" values="0 0 0 0 0.796078 0 0 0 0 0.823529 0 0 0 0 0.866667 0 0 0 1 0"/>
<feBlend mode="normal" in2="BackgroundImageFix" result="effect1_dropShadow"/>
<feColorMatrix in="SourceAlpha" type="matrix" values="0 0 0 0 0 0 0 0 0 0 0 0 0 0 0 0 0 0 127 0"/>
<feOffset dy="4"/>
<feGaussianBlur stdDeviation="2"/>
<feColorMatrix type="matrix" values="0 0 0 0 0 0 0 0 0 0 0 0 0 0 0 0 0 0 0.25 0"/>
<feBlend mode="normal" in2="effect1_dropShadow" result="effect2_dropShadow"/>
<feBlend mode="normal" in="SourceGraphic" in2="effect2_dropShadow" result="shape"/>
</filter>
<linearGradient id="paint0_linear" x1="82.4477" y1="138.082" x2="92.5043" y2="53.018" gradientUnits="userSpaceOnUse">
<stop stop-color="#78431B"/>
<stop offset="0.3629" stop-color="#C28E3B"/>
<stop offset="0.6694" stop-color="#FCF8C9"/>
<stop offset="0.8468" stop-color="#F4E1A7"/>
<stop offset="1" stop-color="#CEA459"/>
</linearGradient>
<linearGradient id="paint1_linear" x1="64.8475" y1="85.4209" x2="96.1667" y2="85.4209" gradientUnits="userSpaceOnUse">
<stop stop-color="#78431B"/>
<stop offset="0.3629" stop-color="#C28E3B"/>
<stop offset="0.6694" stop-color="#FCF8C9"/>
<stop offset="0.8468" stop-color="#F4E1A7"/>
<stop offset="1" stop-color="#CEA459"/>
</linearGradient>
<linearGradient id="paint2_linear" x1="85.9233" y1="107.622" x2="109.922" y2="107.622" gradientUnits="userSpaceOnUse">
<stop stop-color="#78431B"/>
<stop offset="0.3629" stop-color="#C28E3B"/>
<stop offset="0.6694" stop-color="#FCF8C9"/>
<stop offset="0.8468" stop-color="#F4E1A7"/>
<stop offset="1" stop-color="#CEA459"/>
</linearGradient>
</defs>
</svg>
