<svg width="178" height="200" viewBox="0 0 178 200" fill="none" xmlns="http://www.w3.org/2000/svg">
<g filter="url(#filter0_dd)">
<path d="M89 11L162.612 53.5V138.5L89 181L15.3878 138.5V53.5L89 11Z" fill="white"/>
</g>
<path d="M74.5932 92L73.2212 88.052H64.8772L63.5052 92H60.0052L67.1172 72.4H70.9812L78.0652 92H74.5932ZM65.9412 85.028H72.1572L69.0492 76.18L65.9412 85.028ZM95.2649 77.636C96.8516 77.636 98.1302 78.1493 99.1009 79.176C100.072 80.2027 100.557 81.584 100.557 83.32V92H97.5329V83.516C97.5329 82.5453 97.2902 81.7987 96.8049 81.276C96.3196 80.7347 95.6569 80.464 94.8169 80.464C93.8836 80.464 93.1369 80.772 92.5769 81.388C92.0356 82.004 91.7649 82.928 91.7649 84.16V92H88.7409V83.516C88.7409 82.5453 88.5076 81.7987 88.0409 81.276C87.5929 80.7347 86.9489 80.464 86.1089 80.464C85.1942 80.464 84.4476 80.7813 83.8689 81.416C83.2902 82.032 83.0009 82.9467 83.0009 84.16V92H79.9769V78H83.0009V79.68C83.8969 78.3173 85.2316 77.636 87.0049 77.636C88.7969 77.636 90.1222 78.3733 90.9809 79.848C91.9142 78.3733 93.3422 77.636 95.2649 77.636ZM106.649 75.34C106.276 75.7133 105.828 75.9 105.305 75.9C104.783 75.9 104.325 75.7133 103.933 75.34C103.56 74.948 103.373 74.4907 103.373 73.968C103.373 73.4453 103.56 72.9973 103.933 72.624C104.307 72.232 104.764 72.036 105.305 72.036C105.847 72.036 106.304 72.232 106.677 72.624C107.051 72.9973 107.237 73.4453 107.237 73.968C107.237 74.4907 107.041 74.948 106.649 75.34ZM103.793 92V78H106.817V92H103.793ZM113.352 80.352C114.118 78.616 115.555 77.748 117.664 77.748V81.024C116.507 80.9493 115.499 81.2293 114.64 81.864C113.782 82.48 113.352 83.5067 113.352 84.944V92H110.328V78H113.352V80.352ZM70.1471 109.864V111.208C70.1471 113.896 69.2605 116.099 67.4871 117.816C65.7138 119.515 63.3991 120.364 60.5431 120.364C57.5191 120.364 55.0178 119.384 53.0391 117.424C51.0791 115.464 50.0991 113.056 50.0991 110.2C50.0991 107.363 51.0791 104.964 53.0391 103.004C55.0178 101.025 57.4631 100.036 60.3751 100.036C62.2045 100.036 63.8751 100.456 65.3871 101.296C66.8991 102.136 68.0751 103.265 68.9151 104.684L66.1431 106.28C65.6205 105.347 64.8458 104.6 63.8191 104.04C62.7925 103.461 61.6445 103.172 60.3751 103.172C58.3218 103.172 56.6325 103.844 55.3071 105.188C53.9818 106.532 53.3191 108.212 53.3191 110.228C53.3191 112.244 53.9818 113.915 55.3071 115.24C56.6511 116.565 58.4058 117.228 60.5711 117.228C62.3071 117.228 63.7165 116.827 64.7991 116.024C65.9005 115.203 66.6005 114.111 66.8991 112.748H60.3471V109.864H70.1471ZM83.9829 106H87.0069V120H83.9829V117.984C82.8442 119.571 81.2109 120.364 79.0829 120.364C77.1602 120.364 75.5175 119.655 74.1549 118.236C72.7922 116.799 72.1109 115.053 72.1109 113C72.1109 110.928 72.7922 109.183 74.1549 107.764C75.5175 106.345 77.1602 105.636 79.0829 105.636C81.2109 105.636 82.8442 106.42 83.9829 107.988V106ZM76.3949 116.22C77.2349 117.06 78.2895 117.48 79.5589 117.48C80.8282 117.48 81.8829 117.06 82.7229 116.22C83.5629 115.361 83.9829 114.288 83.9829 113C83.9829 111.712 83.5629 110.648 82.7229 109.808C81.8829 108.949 80.8282 108.52 79.5589 108.52C78.2895 108.52 77.2349 108.949 76.3949 109.808C75.5549 110.648 75.1349 111.712 75.1349 113C75.1349 114.288 75.5549 115.361 76.3949 116.22ZM105.82 105.636C107.406 105.636 108.685 106.149 109.656 107.176C110.626 108.203 111.112 109.584 111.112 111.32V120H108.088V111.516C108.088 110.545 107.845 109.799 107.36 109.276C106.874 108.735 106.212 108.464 105.372 108.464C104.438 108.464 103.692 108.772 103.132 109.388C102.59 110.004 102.32 110.928 102.32 112.16V120H99.2956V111.516C99.2956 110.545 99.0622 109.799 98.5956 109.276C98.1476 108.735 97.5036 108.464 96.6636 108.464C95.7489 108.464 95.0022 108.781 94.4236 109.416C93.8449 110.032 93.5556 110.947 93.5556 112.16V120H90.5316V106H93.5556V107.68C94.4516 106.317 95.7862 105.636 97.5596 105.636C99.3516 105.636 100.677 106.373 101.536 107.848C102.469 106.373 103.897 105.636 105.82 105.636ZM116.728 114.288C116.952 115.352 117.465 116.173 118.268 116.752C119.071 117.312 120.051 117.592 121.208 117.592C122.813 117.592 124.017 117.013 124.82 115.856L127.312 117.312C125.931 119.347 123.887 120.364 121.18 120.364C118.903 120.364 117.064 119.673 115.664 118.292C114.264 116.892 113.564 115.128 113.564 113C113.564 110.909 114.255 109.164 115.636 107.764C117.017 106.345 118.791 105.636 120.956 105.636C123.009 105.636 124.689 106.355 125.996 107.792C127.321 109.229 127.984 110.975 127.984 113.028C127.984 113.345 127.947 113.765 127.872 114.288H116.728ZM116.7 111.824H124.932C124.727 110.685 124.251 109.827 123.504 109.248C122.776 108.669 121.917 108.38 120.928 108.38C119.808 108.38 118.875 108.688 118.128 109.304C117.381 109.92 116.905 110.76 116.7 111.824Z" fill="#3D3D50"/>
<defs>
<filter id="filter0_dd" x="0.387695" y="0" width="177.224" height="200" filterUnits="userSpaceOnUse" color-interpolation-filters="sRGB">
<feFlood flood-opacity="0" result="BackgroundImageFix"/>
<feColorMatrix in="SourceAlpha" type="matrix" values="0 0 0 0 0 0 0 0 0 0 0 0 0 0 0 0 0 0 127 0"/>
<feOffset dy="4"/>
<feGaussianBlur stdDeviation="7.5"/>
<feColorMatrix type="matrix" values="0 0 0 0 0.796078 0 0 0 0 0.823529 0 0 0 0 0.866667 0 0 0 1 0"/>
<feBlend mode="normal" in2="BackgroundImageFix" result="effect1_dropShadow"/>
<feColorMatrix in="SourceAlpha" type="matrix" values="0 0 0 0 0 0 0 0 0 0 0 0 0 0 0 0 0 0 127 0"/>
<feOffset dy="4"/>
<feGaussianBlur stdDeviation="2"/>
<feColorMatrix type="matrix" values="0 0 0 0 0 0 0 0 0 0 0 0 0 0 0 0 0 0 0.25 0"/>
<feBlend mode="normal" in2="effect1_dropShadow" result="effect2_dropShadow"/>
<feBlend mode="normal" in="SourceGraphic" in2="effect2_dropShadow" result="shape"/>
</filter>
</defs>
</svg>
