<svg width="178" height="200" viewBox="0 0 178 200" fill="none" xmlns="http://www.w3.org/2000/svg">
<g filter="url(#filter0_dd)">
<path d="M89 11L162.612 53.5V138.5L89 181L15.3878 138.5V53.5L89 11Z" fill="white"/>
</g>
<path fill-rule="evenodd" clip-rule="evenodd" d="M56.143 64.4277L53.2367 67.9774L55.4209 73.5527L52.4424 70.1188L49.7528 73.8999L51.4857 68.0931L48.3447 64.91L52.3341 67.0514L56.143 64.4277Z" fill="#EBCA30"/>
<path fill-rule="evenodd" clip-rule="evenodd" d="M52.2247 64.0022C51.7012 64.0407 51.3041 64.5616 51.3402 65.179C51.3582 65.7963 51.7915 66.2786 52.315 66.24C52.8384 66.2014 53.2356 65.6805 53.1995 65.0632C53.1634 64.4459 52.7301 63.9636 52.2247 64.0022Z" fill="#EBCA30"/>
<path fill-rule="evenodd" clip-rule="evenodd" d="M51.3574 132.701L54.2637 129.151L52.0795 123.576L55.058 127.01L57.7476 123.229L56.0147 129.035L59.1556 132.218L55.1663 130.077L51.3574 132.701Z" fill="#EBCA30"/>
<path fill-rule="evenodd" clip-rule="evenodd" d="M55.2769 133.125C55.7823 133.086 56.1975 132.565 56.1614 131.948C56.1433 131.331 55.7101 130.848 55.1866 130.887C54.6631 130.926 54.266 131.446 54.3021 132.064C54.3201 132.681 54.7714 133.144 55.2769 133.125Z" fill="#EBCA30"/>
<path fill-rule="evenodd" clip-rule="evenodd" d="M23.377 95.8535L26.4998 99.1524L31.3918 96.6638L28.3772 100.059L31.6987 103.126L26.6081 101.159L23.8102 104.747L25.6875 100.213L23.377 95.8535Z" fill="#EBCA30"/>
<path fill-rule="evenodd" clip-rule="evenodd" d="M23.0006 100.328C23.0186 100.906 23.488 101.369 24.0295 101.35C24.5711 101.331 24.9862 100.829 24.9682 100.251C24.9321 99.6718 24.4808 99.2088 23.9393 99.2281C23.3977 99.2474 22.9825 99.7297 23.0006 100.328Z" fill="#EBCA30"/>
<path fill-rule="evenodd" clip-rule="evenodd" d="M76.5246 76.7343L72.2645 76.9079L70.351 82.599L70.369 77.7568L66.127 78.2583L70.9467 75.5382L70.712 70.7539L72.2103 75.4804L76.5246 76.7343Z" fill="#EBCA30"/>
<path fill-rule="evenodd" clip-rule="evenodd" d="M74.0138 73.2631C73.6348 72.8772 73.021 72.9158 72.66 73.3788C72.2989 73.8225 72.2989 74.517 72.6961 74.9029C73.0752 75.2887 73.6889 75.2501 74.0499 74.7871C74.411 74.3434 74.3929 73.6682 74.0138 73.2631Z" fill="#EBCA30"/>
<path fill-rule="evenodd" clip-rule="evenodd" d="M30.7637 121.145L35.0238 120.971L36.9373 115.28L36.9192 120.122L41.1613 119.621L36.3235 122.302L36.5763 127.087L35.078 122.36L30.7637 121.145Z" fill="#EBCA30"/>
<path fill-rule="evenodd" clip-rule="evenodd" d="M33.2725 124.598C33.6516 124.984 34.2654 124.945 34.6264 124.482C34.9874 124.039 34.9874 123.344 34.5903 122.958C34.2112 122.573 33.5975 122.611 33.2364 123.074C32.8754 123.518 32.8934 124.212 33.2725 124.598Z" fill="#EBCA30"/>
<path fill-rule="evenodd" clip-rule="evenodd" d="M72.8424 124.695L72.68 119.834L67.6797 117.654L71.9218 117.673L71.4705 112.831L73.8533 118.329L78.0593 118.059L73.9074 119.757L72.8424 124.695Z" fill="#EBCA30"/>
<path fill-rule="evenodd" clip-rule="evenodd" d="M75.8722 121.82C76.2151 121.376 76.179 120.681 75.7819 120.276C75.3848 119.852 74.7891 119.871 74.428 120.315C74.0851 120.759 74.1212 121.453 74.5364 121.858C74.9154 122.263 75.5292 122.263 75.8722 121.82Z" fill="#EBCA30"/>
<path fill-rule="evenodd" clip-rule="evenodd" d="M33.8497 72.5488L34.0121 77.391L39.0124 79.571L34.7703 79.5517L35.2216 84.3939L32.8388 78.8958L28.6328 79.1659L32.7847 77.4682L33.8497 72.5488Z" fill="#EBCA30"/>
<path fill-rule="evenodd" clip-rule="evenodd" d="M30.8174 75.403C30.4745 75.8467 30.5106 76.5412 30.9077 76.9463C31.3048 77.3708 31.9005 77.3515 32.2616 76.9078C32.6045 76.4641 32.5684 75.7696 32.1533 75.3644C31.7561 74.9593 31.1604 74.9786 30.8174 75.403Z" fill="#EBCA30"/>
<path fill-rule="evenodd" clip-rule="evenodd" d="M63.7978 66.4145L60.1875 68.9996L61.0179 75.0186L58.9058 70.813L55.458 73.6681L58.4545 68.5752L56.144 64.5625L59.5196 67.8035L63.7978 66.4145Z" fill="#EBCA30"/>
<path fill-rule="evenodd" clip-rule="evenodd" d="M60.0967 64.8516C59.5913 64.7358 59.0858 65.1216 58.9775 65.7197C58.8512 66.3177 59.1761 66.9158 59.6815 67.0315C60.187 67.1473 60.6924 66.7614 60.8007 66.1634C60.909 65.5461 60.6021 64.9673 60.0967 64.8516Z" fill="#EBCA30"/>
<path fill-rule="evenodd" clip-rule="evenodd" d="M43.6494 130.944L47.2597 128.359L46.4293 122.34L48.5233 126.545L51.9711 123.69L48.9746 128.783L51.2852 132.796L47.9096 129.555L43.6494 130.944Z" fill="#EBCA30"/>
<path fill-rule="evenodd" clip-rule="evenodd" d="M47.3527 132.507C47.8581 132.623 48.3636 132.237 48.4719 131.639C48.5982 131.041 48.2733 130.443 47.7679 130.327C47.2624 130.211 46.757 130.597 46.6487 131.195C46.5403 131.793 46.8472 132.391 47.3527 132.507Z" fill="#EBCA30"/>
<path fill-rule="evenodd" clip-rule="evenodd" d="M25.0016 87.0938L27.258 91.2029L32.5471 90.2383L28.8646 92.6304L31.3737 96.5659L26.897 93.1513L23.377 95.7943L26.211 91.9552L25.0016 87.0938Z" fill="#EBCA30"/>
<path fill-rule="evenodd" clip-rule="evenodd" d="M23.6303 91.2995C23.522 91.8782 23.865 92.457 24.3885 92.592C24.912 92.7271 25.4355 92.3798 25.5438 91.8011C25.6521 91.2223 25.3091 90.6436 24.7856 90.5085C24.2441 90.3735 23.7387 90.74 23.6303 91.2995Z" fill="#EBCA30"/>
<path fill-rule="evenodd" clip-rule="evenodd" d="M80.6735 84.2969L76.5217 83.2166L73.3808 88.1552L74.4999 83.4867L70.2939 82.715L75.565 81.5189L76.4134 76.8311L76.7744 81.8276L80.6735 84.2969Z" fill="#EBCA30"/>
<path fill-rule="evenodd" clip-rule="evenodd" d="M79.0316 80.2281C78.7427 79.7265 78.147 79.6108 77.6958 79.9387C77.2445 80.2667 77.1001 80.9419 77.3708 81.4242C77.6597 81.9258 78.2554 82.0415 78.7067 81.7136C79.176 81.3856 79.3204 80.7104 79.0316 80.2281Z" fill="#EBCA30"/>
<path fill-rule="evenodd" clip-rule="evenodd" d="M26.3945 113.718L30.5464 114.798L33.6873 109.859L32.5681 114.528L36.7741 115.3L31.5031 116.496L30.6547 121.184L30.2936 116.187L26.3945 113.718Z" fill="#EBCA30"/>
<path fill-rule="evenodd" clip-rule="evenodd" d="M28.0374 117.787C28.3262 118.289 28.9219 118.405 29.3732 118.077C29.8245 117.749 29.9689 117.074 29.6981 116.591C29.4093 116.09 28.8136 115.974 28.3623 116.302C27.893 116.63 27.7485 117.305 28.0374 117.787Z" fill="#EBCA30"/>
<path fill-rule="evenodd" clip-rule="evenodd" d="M66.2145 129.536L67.1712 124.81L62.8389 121.222L66.9365 122.495L67.6045 117.691L68.6514 123.71L72.7672 124.675L68.3807 125.099L66.2145 129.536Z" fill="#EBCA30"/>
<path fill-rule="evenodd" clip-rule="evenodd" d="M69.8076 127.665C70.2408 127.337 70.3491 126.662 70.0603 126.141C69.7715 125.62 69.1938 125.446 68.7606 125.774C68.3273 126.102 68.2191 126.777 68.5079 127.298C68.7967 127.819 69.3743 127.993 69.8076 127.665Z" fill="#EBCA30"/>
<path fill-rule="evenodd" clip-rule="evenodd" d="M40.4033 67.668L39.4465 72.3944L43.7789 75.9827L39.6812 74.7094L39.0133 79.513L37.9663 73.494L33.8506 72.5295L38.2371 72.105L40.4033 67.668Z" fill="#EBCA30"/>
<path fill-rule="evenodd" clip-rule="evenodd" d="M36.826 69.558C36.3928 69.8859 36.2845 70.5611 36.5733 71.082C36.8621 71.6029 37.4398 71.7765 37.873 71.4486C38.3062 71.1206 38.4146 70.4454 38.1257 69.9245C37.8369 69.3844 37.2593 69.23 36.826 69.558Z" fill="#EBCA30"/>
<path fill-rule="evenodd" clip-rule="evenodd" d="M71.0159 70.7732L66.9362 72.1622L66.3225 78.2197L65.2755 73.5319L61.2861 75.2295L65.3658 71.2362L64.0841 66.6641L66.5752 70.8118L71.0159 70.7732Z" fill="#EBCA30"/>
<path fill-rule="evenodd" clip-rule="evenodd" d="M67.8222 68.1498C67.3709 67.8797 66.7933 68.0919 66.5225 68.6514C66.2698 69.1915 66.4323 69.8475 66.8836 70.1175C67.3348 70.3876 67.9125 70.1754 68.1652 69.616C68.454 69.0758 68.2735 68.4199 67.8222 68.1498Z" fill="#EBCA30"/>
<path fill-rule="evenodd" clip-rule="evenodd" d="M36.4326 126.816L40.5122 125.427L41.126 119.369L42.173 124.057L46.1624 122.359L42.0827 126.353L43.3644 130.925L40.8913 126.777L36.4326 126.816Z" fill="#EBCA30"/>
<path fill-rule="evenodd" clip-rule="evenodd" d="M39.6454 129.458C40.0967 129.728 40.6744 129.516 40.9271 128.957C41.1798 128.417 41.0173 127.761 40.566 127.491C40.1148 127.221 39.5371 127.433 39.2844 127.992C39.0136 128.513 39.1761 129.169 39.6454 129.458Z" fill="#EBCA30"/>
<path fill-rule="evenodd" clip-rule="evenodd" d="M28.7758 78.875L29.9853 83.5243L35.3105 84.2188L31.1947 85.3956L32.693 89.9484L29.191 85.2991L25.1836 86.7653L28.83 83.9294L28.7758 78.875Z" fill="#EBCA30"/>
<path fill-rule="evenodd" clip-rule="evenodd" d="M26.467 82.522C26.2323 83.0429 26.4309 83.6988 26.9002 83.9882C27.3696 84.2776 27.9472 84.0846 28.1999 83.5638C28.4346 83.0429 28.236 82.387 27.7667 82.0976C27.2793 81.8082 26.7017 82.0012 26.467 82.522Z" fill="#EBCA30"/>
<path fill-rule="evenodd" clip-rule="evenodd" d="M83.0784 93.1719L79.3237 90.8569L75.1358 94.6574L77.302 90.5097L73.4209 88.484L78.7822 88.947L80.7317 84.6836L79.9194 89.6222L83.0784 93.1719Z" fill="#EBCA30"/>
<path fill-rule="evenodd" clip-rule="evenodd" d="M82.4636 88.734C82.3011 88.1746 81.7596 87.8659 81.2361 88.0395C80.7126 88.2132 80.4238 88.8112 80.5862 89.3707C80.7487 89.9301 81.2902 90.2388 81.8137 90.0652C82.3192 89.8915 82.608 89.2935 82.4636 88.734Z" fill="#EBCA30"/>
<path fill-rule="evenodd" clip-rule="evenodd" d="M23.8486 104.94L27.6033 107.255L31.7913 103.454L29.6071 107.602L33.4881 109.627L28.1268 109.164L26.2134 113.428L27.0257 108.489L23.8486 104.94Z" fill="#EBCA30"/>
<path fill-rule="evenodd" clip-rule="evenodd" d="M24.4801 109.376C24.6426 109.935 25.1841 110.244 25.7076 110.07C26.2311 109.896 26.5199 109.298 26.3755 108.739C26.2131 108.179 25.6715 107.871 25.148 108.044C24.6245 108.218 24.3177 108.816 24.4801 109.376Z" fill="#EBCA30"/>
<path fill-rule="evenodd" clip-rule="evenodd" d="M58.5092 132.354L60.5309 128.09L57.1914 123.306L60.8378 125.775L62.6068 121.357L62.2097 127.473L65.9464 129.672L61.614 128.746L58.5092 132.354Z" fill="#EBCA30"/>
<path fill-rule="evenodd" clip-rule="evenodd" d="M62.4055 131.639C62.8929 131.465 63.1637 130.848 63.0192 130.25C62.8568 129.652 62.3333 129.324 61.8459 129.498C61.3585 129.671 61.0877 130.288 61.2321 130.887C61.3946 131.485 61.9181 131.813 62.4055 131.639Z" fill="#EBCA30"/>
<path fill-rule="evenodd" clip-rule="evenodd" d="M48.1799 64.8701L46.1401 69.1336L49.4796 73.9179L45.8332 71.4486L44.0641 75.8663L44.4613 69.7509L40.7246 67.5517L45.057 68.4776L48.1799 64.8701Z" fill="#EBCA30"/>
<path fill-rule="evenodd" clip-rule="evenodd" d="M44.3019 65.5844C43.8145 65.7581 43.5438 66.3754 43.6882 66.9734C43.8507 67.5715 44.3742 67.8994 44.8615 67.7258C45.3489 67.5522 45.6197 66.9349 45.4753 66.3368C45.3128 65.7388 44.7893 65.4108 44.3019 65.5844Z" fill="#EBCA30"/>
<path d="M130.662 93.8069H127.34V93.3439C127.629 93.3246 127.882 93.286 128.062 93.2088C128.261 93.1509 128.351 93.0738 128.351 92.9773C128.351 92.9387 128.351 92.9001 128.333 92.8423C128.333 92.7844 128.315 92.7458 128.297 92.6879L127.629 90.643H124.813C124.705 90.9517 124.614 91.2025 124.56 91.434C124.488 91.6655 124.434 91.8584 124.38 92.0513C124.326 92.2442 124.289 92.3793 124.271 92.495C124.253 92.6108 124.235 92.7072 124.235 92.7844C124.235 92.958 124.362 93.0931 124.596 93.1895C124.831 93.286 125.102 93.3439 125.391 93.3631V93.8261H122.376V93.3631C122.466 93.3631 122.593 93.3246 122.737 93.286C122.881 93.2474 123.008 93.1895 123.098 93.1124C123.242 92.9966 123.369 92.8809 123.441 92.7458C123.531 92.6108 123.603 92.4371 123.676 92.2249C124.073 91.0867 124.524 89.7942 125.012 88.3666C125.499 86.939 125.932 85.6658 126.311 84.5469H126.762L129.434 92.4179C129.488 92.5915 129.56 92.7265 129.633 92.823C129.705 92.9194 129.795 93.0352 129.94 93.1316C130.03 93.1895 130.138 93.2474 130.283 93.286C130.427 93.3246 130.535 93.3439 130.626 93.3631L130.662 93.8069ZM127.448 90.0643L126.239 86.5146L125.048 90.0643H127.448Z" fill="#EBCA30"/>
<path d="M140.587 93.8073H137.049V93.3443C137.176 93.3443 137.338 93.325 137.537 93.3057C137.735 93.2864 137.88 93.2479 137.952 93.19C138.078 93.1128 138.151 93.0164 138.205 92.9006C138.259 92.8042 138.295 92.6691 138.295 92.5148V85.8785H138.205L135.479 93.653H135.19L132.591 85.7241H132.518V91.1644C132.518 91.6852 132.555 92.0904 132.609 92.3604C132.663 92.6305 132.753 92.8234 132.88 92.9585C132.97 93.0549 133.132 93.1321 133.385 93.2093C133.638 93.2864 133.818 93.325 133.89 93.3443V93.8073H130.659V93.3443C130.822 93.325 131.002 93.2864 131.201 93.2479C131.381 93.2093 131.526 93.1321 131.634 93.0357C131.76 92.9199 131.851 92.727 131.905 92.4762C131.959 92.2254 131.977 91.8203 131.977 91.2222V86.5537C131.977 86.2836 131.941 86.0714 131.887 85.8978C131.833 85.7241 131.742 85.5891 131.652 85.4733C131.544 85.3576 131.399 85.2804 131.219 85.2225C131.056 85.1647 130.876 85.1261 130.713 85.1261V84.6631H133.439L135.732 91.5116L137.699 85.782C137.771 85.5698 137.826 85.3576 137.88 85.1261C137.934 84.8946 137.952 84.7403 137.97 84.6631H140.587V85.1261C140.479 85.1261 140.353 85.1454 140.19 85.184C140.028 85.2225 139.902 85.2418 139.829 85.2804C139.703 85.3383 139.613 85.4155 139.577 85.5312C139.522 85.647 139.504 85.782 139.504 85.917V92.4955C139.504 92.6498 139.522 92.7656 139.577 92.8813C139.631 92.9778 139.703 93.0742 139.829 93.1514C139.902 93.19 140.01 93.2286 140.19 93.2671C140.371 93.3057 140.497 93.325 140.606 93.325V93.8073H140.587Z" fill="#EBCA30"/>
<path d="M145.172 93.8085H141.562V93.3455C141.67 93.3455 141.814 93.3262 141.995 93.3069C142.193 93.2877 142.32 93.2684 142.41 93.2298C142.536 93.1719 142.627 93.0947 142.681 92.9983C142.735 92.9018 142.771 92.7668 142.771 92.5932V85.9761C142.771 85.8218 142.753 85.706 142.717 85.5903C142.681 85.4938 142.572 85.3974 142.428 85.3395C142.32 85.2816 142.175 85.2431 141.995 85.1852C141.832 85.1466 141.688 85.108 141.58 85.108V84.6836H145.19V85.1466C145.064 85.1466 144.937 85.1659 144.775 85.1852C144.612 85.2045 144.468 85.2431 144.36 85.2816C144.215 85.3395 144.125 85.4167 144.071 85.5324C144.017 85.6482 143.998 85.7832 143.998 85.9183V92.516C143.998 92.651 144.035 92.7861 144.089 92.9018C144.143 93.0176 144.233 93.0947 144.36 93.1526C144.432 93.1912 144.576 93.2298 144.739 93.2684C144.919 93.3069 145.064 93.3262 145.19 93.3455L145.172 93.8085Z" fill="#EBCA30"/>
<path d="M153.982 93.8085H151.816C151.346 92.9597 150.913 92.2266 150.516 91.59C150.137 90.9727 149.704 90.336 149.252 89.6608H148.44V92.5546C148.44 92.7089 148.458 92.8439 148.512 92.9404C148.548 93.0562 148.639 93.1333 148.783 93.1912C148.855 93.2298 148.964 93.2491 149.144 93.2684C149.307 93.2877 149.451 93.3069 149.577 93.3069V93.7699H146.184V93.3069C146.274 93.3069 146.4 93.2877 146.581 93.2684C146.743 93.2491 146.87 93.2105 146.942 93.1912C147.05 93.1333 147.14 93.0562 147.194 92.9404C147.249 92.8247 147.267 92.6896 147.267 92.5353V85.9375C147.267 85.7832 147.249 85.6482 147.213 85.5324C147.176 85.4167 147.086 85.3202 146.942 85.2623C146.852 85.2238 146.725 85.1852 146.581 85.1659C146.436 85.1273 146.31 85.108 146.202 85.108V84.6836H149.902C150.245 84.6836 150.552 84.7222 150.859 84.7993C151.166 84.8765 151.419 85.0116 151.671 85.1852C151.906 85.3588 152.086 85.571 152.231 85.8604C152.375 86.1305 152.447 86.4777 152.447 86.8635C152.447 87.2108 152.393 87.5195 152.303 87.7895C152.213 88.0596 152.068 88.2911 151.888 88.484C151.725 88.677 151.509 88.8313 151.274 88.9663C151.039 89.1014 150.769 89.2171 150.48 89.3136C150.877 89.9116 151.202 90.4132 151.473 90.8183C151.743 91.2235 152.05 91.725 152.429 92.3038C152.592 92.5546 152.754 92.7475 152.881 92.8825C153.007 92.9983 153.151 93.114 153.278 93.1912C153.368 93.2491 153.494 93.2877 153.639 93.3262C153.783 93.3648 153.91 93.3648 154 93.3841L153.982 93.8085ZM151.021 86.9986C151.021 86.4391 150.877 86.0147 150.606 85.6868C150.335 85.3588 149.938 85.2045 149.433 85.2045H148.476V89.1207H149.216C149.74 89.1207 150.173 88.9278 150.516 88.5612C150.841 88.1754 151.021 87.6545 151.021 86.9986Z" fill="#EBCA30"/>
<path d="M75.1158 111.904C74.2132 111.904 73.3648 111.731 72.5705 111.403C71.7762 111.075 71.0903 110.573 70.5126 109.956C69.935 109.339 69.4837 108.567 69.1588 107.641C68.8338 106.715 68.6533 105.712 68.6533 104.612C68.6533 103.512 68.8158 102.509 69.1588 101.583C69.5017 100.657 69.9711 99.8471 70.5668 99.1719C71.1625 98.4967 71.8665 97.9758 72.6969 97.6093C73.5272 97.2427 74.4118 97.0498 75.3685 97.0498C76.0544 97.0498 76.6862 97.1463 77.2458 97.3392C77.8054 97.5321 78.2928 97.7443 78.6719 97.9758L79.2134 97.4356H79.9716L80.0438 102.586H79.2856C78.8524 101.005 78.3289 99.8664 77.7152 99.1333C77.1014 98.4002 76.3613 98.0337 75.4948 98.0337C74.4117 98.0337 73.5814 98.5738 73.0037 99.6735C72.4441 100.773 72.1553 102.316 72.1553 104.284C72.1553 105.403 72.2456 106.368 72.4441 107.159C72.6427 107.95 72.8954 108.586 73.2023 109.068C73.5453 109.57 73.9424 109.937 74.3937 110.168C74.845 110.4 75.3504 110.515 75.91 110.515C76.7223 110.515 77.4444 110.265 78.0762 109.763C78.708 109.261 79.2856 108.49 79.8091 107.487L80.5673 108.007C80.3146 108.586 80.0258 109.107 79.7189 109.57C79.394 110.033 79.0329 110.419 78.6177 110.747C78.1665 111.113 77.661 111.403 77.1014 111.596C76.5238 111.808 75.8739 111.904 75.1158 111.904Z" fill="#2C2A60"/>
<path d="M94.8083 111.517H88.0751V110.745C88.382 110.726 88.7611 110.649 89.1763 110.552C89.5914 110.456 89.8081 110.321 89.8081 110.167C89.8081 110.109 89.808 110.051 89.79 109.993C89.79 109.935 89.7539 109.839 89.7178 109.723L88.6708 106.81H84.4107C84.3204 107.08 84.2121 107.408 84.0857 107.755C83.9774 108.122 83.8691 108.45 83.7789 108.72C83.6706 109.086 83.5984 109.356 83.5803 109.53C83.5623 109.704 83.5442 109.819 83.5442 109.877C83.5442 110.089 83.6886 110.263 83.9594 110.417C84.2482 110.572 84.7175 110.668 85.3674 110.745V111.517H80.2949V110.745C80.4935 110.726 80.7101 110.707 80.9448 110.649C81.1794 110.591 81.378 110.514 81.5224 110.417C81.7571 110.263 81.9557 110.07 82.1181 109.839C82.2806 109.607 82.425 109.337 82.5333 109.009C83.2012 107.157 83.8872 105.286 84.5551 103.415C85.223 101.543 85.9811 99.4983 86.7935 97.2412H88.5445C89.6817 100.424 90.5662 102.952 91.2161 104.804C91.8659 106.656 92.4075 108.199 92.8587 109.414C92.9309 109.607 93.0212 109.8 93.1476 109.954C93.2559 110.109 93.4364 110.263 93.653 110.417C93.8155 110.514 93.996 110.61 94.2126 110.649C94.4292 110.707 94.6278 110.726 94.7903 110.745L94.8083 111.517ZM88.3098 105.826L86.5227 100.733L84.7536 105.826H88.3098Z" fill="#2C2A60"/>
<path d="M106.057 98.8829C106.815 99.4424 107.429 100.195 107.88 101.14C108.349 102.066 108.584 103.224 108.584 104.574C108.584 105.77 108.367 106.792 107.97 107.68C107.555 108.567 106.995 109.281 106.327 109.841C105.623 110.4 104.829 110.824 103.945 111.095C103.06 111.365 102.14 111.5 101.165 111.5H94.937V110.728C95.1175 110.728 95.3522 110.709 95.641 110.67C95.9298 110.632 96.1103 110.593 96.2006 110.554C96.4172 110.458 96.5616 110.323 96.6338 110.149C96.7241 109.976 96.7602 109.783 96.7602 109.532V99.5388C96.7602 99.3073 96.7241 99.1144 96.6519 98.9215C96.5797 98.7479 96.4353 98.5935 96.2006 98.4778C95.984 98.362 95.7493 98.2849 95.4966 98.2463C95.2439 98.2077 95.0634 98.1884 94.9189 98.1691V97.3975H101.49C102.194 97.3975 102.952 97.4939 103.746 97.7061C104.54 97.9376 105.317 98.3235 106.057 98.8829ZM104.288 108.972C104.576 108.452 104.775 107.815 104.901 107.082C105.028 106.349 105.1 105.5 105.1 104.555C105.1 103.629 105.01 102.78 104.847 102.008C104.667 101.236 104.414 100.581 104.071 100.04C103.728 99.5002 103.313 99.0758 102.807 98.7865C102.302 98.4971 101.742 98.3428 101.093 98.3428C100.894 98.3428 100.659 98.3428 100.407 98.362C100.154 98.3813 99.9553 98.3813 99.829 98.3813V109.069C99.829 109.3 99.8651 109.513 99.9192 109.706C99.9734 109.879 100.064 110.053 100.208 110.188C100.334 110.323 100.515 110.439 100.695 110.516C100.894 110.593 101.147 110.632 101.454 110.632C102.103 110.632 102.681 110.496 103.15 110.207C103.62 109.918 103.999 109.513 104.288 108.972Z" fill="#2C2A60"/>
<path d="M120.767 101.024H120.099C119.937 100.484 119.648 99.944 119.233 99.4038C118.818 98.8636 118.421 98.5357 118.005 98.4392C117.825 98.4006 117.59 98.362 117.283 98.362C116.977 98.3428 116.724 98.3428 116.507 98.3428H114.72V103.764H116.002C116.327 103.764 116.615 103.725 116.868 103.629C117.139 103.551 117.374 103.378 117.59 103.127C117.717 102.973 117.861 102.703 117.987 102.317C118.114 101.931 118.204 101.603 118.258 101.314H118.926V107.198H118.258C118.222 106.928 118.132 106.561 117.987 106.156C117.843 105.731 117.717 105.442 117.59 105.288C117.392 105.056 117.175 104.883 116.904 104.786C116.634 104.69 116.345 104.651 116.002 104.651H114.72V108.702C114.72 109.127 114.756 109.455 114.81 109.706C114.865 109.956 114.973 110.149 115.117 110.284C115.262 110.4 115.46 110.496 115.713 110.535C115.966 110.574 116.309 110.593 116.742 110.593C116.94 110.593 117.193 110.593 117.482 110.574C117.771 110.574 118.024 110.554 118.24 110.516C118.475 110.477 118.709 110.439 118.926 110.361C119.143 110.304 119.305 110.207 119.395 110.072C119.666 109.744 119.991 109.262 120.334 108.587C120.677 107.931 120.912 107.429 121.02 107.101H121.652L121.417 111.48H109.828V110.709C109.991 110.689 110.207 110.67 110.496 110.632C110.767 110.593 110.965 110.554 111.092 110.496C111.308 110.4 111.453 110.265 111.543 110.091C111.615 109.937 111.651 109.725 111.651 109.474V99.5388C111.651 99.3073 111.615 99.0951 111.561 98.9408C111.489 98.7865 111.344 98.6514 111.092 98.5164C110.947 98.4392 110.731 98.362 110.46 98.3042C110.189 98.2463 109.973 98.1884 109.846 98.1691V97.3975H120.803V101.024H120.767Z" fill="#2C2A60"/>
<path d="M139.665 111.517H132.968V110.746C133.167 110.726 133.402 110.688 133.69 110.649C133.979 110.611 134.178 110.553 134.286 110.495C134.503 110.399 134.647 110.263 134.755 110.09C134.846 109.916 134.9 109.704 134.9 109.434V98.92L130.64 111.305H129.539C129.484 111.093 129.358 110.649 129.159 110.013C128.961 109.357 128.78 108.836 128.654 108.45L125.531 98.7657V107.331C125.531 108.161 125.585 108.778 125.676 109.202C125.766 109.627 125.928 109.936 126.145 110.148C126.289 110.283 126.542 110.418 126.921 110.553C127.3 110.669 127.553 110.746 127.715 110.765V111.537H122.408V110.765C122.553 110.746 122.787 110.707 123.112 110.63C123.437 110.553 123.708 110.437 123.925 110.263C124.159 110.071 124.304 109.762 124.394 109.318C124.484 108.875 124.52 108.257 124.52 107.447V100.463C124.52 100.039 124.466 99.6917 124.376 99.4023C124.286 99.1129 124.141 98.9007 123.961 98.7271C123.726 98.5149 123.491 98.3991 123.239 98.322C122.986 98.2641 122.751 98.2255 122.498 98.2062V97.4346H128.203L131.253 106.714L133.817 99.1901C133.907 98.92 133.979 98.5728 134.069 98.2062C134.16 97.8204 134.196 97.5696 134.196 97.4539H139.665V98.2255C139.485 98.2448 139.286 98.2641 139.088 98.3027C138.889 98.3413 138.691 98.3991 138.51 98.457C138.275 98.5342 138.131 98.6885 138.059 98.8621C137.987 99.0551 137.951 99.248 137.951 99.4795V109.453C137.951 109.685 137.987 109.897 138.059 110.051C138.131 110.206 138.275 110.36 138.51 110.476C138.618 110.534 138.817 110.591 139.088 110.649C139.359 110.707 139.557 110.746 139.701 110.765V111.517H139.665Z" fill="#2C2A60"/>
<path d="M153.984 98.2062C153.768 98.2255 153.587 98.2834 153.407 98.3413C153.226 98.3992 153.064 98.4763 152.901 98.5921C152.649 98.7464 152.432 98.9586 152.233 99.2094C152.035 99.4602 151.854 99.7303 151.656 100.039C151.277 100.676 150.88 101.351 150.464 102.084C150.049 102.817 149.598 103.627 149.11 104.515C148.786 105.074 148.587 105.518 148.533 105.807C148.461 106.116 148.425 106.637 148.425 107.37V109.357C148.425 109.588 148.461 109.8 148.551 109.974C148.623 110.148 148.786 110.302 149.002 110.418C149.11 110.456 149.309 110.534 149.634 110.611C149.959 110.688 150.194 110.726 150.338 110.746V111.517H143.442V110.746C143.605 110.726 143.839 110.707 144.146 110.669C144.453 110.63 144.67 110.591 144.778 110.534C144.995 110.437 145.139 110.283 145.211 110.109C145.284 109.936 145.338 109.723 145.338 109.473V106.984C145.338 106.772 145.338 106.579 145.32 106.405C145.32 106.232 145.302 106.097 145.266 105.981C145.229 105.865 145.157 105.691 145.049 105.498C144.941 105.306 144.814 105.055 144.67 104.746C144.219 103.859 143.785 103.01 143.37 102.2C142.955 101.409 142.558 100.656 142.179 99.9425C141.98 99.5759 141.782 99.2866 141.583 99.0744C141.384 98.8429 141.186 98.6692 140.969 98.5342C140.807 98.4377 140.626 98.3606 140.392 98.3027C140.175 98.2448 139.958 98.2255 139.796 98.2062V97.4346H146.872V98.2062C146.222 98.2255 145.789 98.2834 145.554 98.3606C145.32 98.4377 145.211 98.5535 145.211 98.7078C145.211 98.785 145.247 98.92 145.338 99.1515C145.428 99.3637 145.572 99.711 145.789 100.155C145.988 100.579 146.276 101.177 146.655 101.93C147.035 102.682 147.486 103.569 148.027 104.572C149.129 102.585 149.887 101.196 150.302 100.405C150.717 99.6145 150.916 99.1322 150.916 98.9586C150.916 98.7271 150.789 98.5535 150.555 98.4377C150.32 98.322 149.923 98.2448 149.381 98.2062V97.4346H153.966L153.984 98.2062Z" fill="#2C2A60"/>
<path d="M68.9244 111.498H54.4652V109.839C55.1331 109.781 55.9274 109.646 56.8299 109.414C57.7325 109.202 58.1838 108.913 58.1838 108.585C58.1838 108.469 58.1838 108.334 58.1477 108.199C58.1296 108.064 58.0755 107.871 57.9852 107.62L55.7288 101.35H46.5586C46.342 101.929 46.1254 102.624 45.8546 103.395C45.6019 104.186 45.3853 104.881 45.1867 105.479C44.9521 106.27 44.8077 106.848 44.7716 107.215C44.7355 107.562 44.6993 107.813 44.6993 107.967C44.6993 108.43 45.0062 108.816 45.6019 109.125C46.1976 109.453 47.2085 109.684 48.6165 109.819V111.478H37.7676V109.819C38.1828 109.8 38.6521 109.723 39.1575 109.588C39.681 109.472 40.0782 109.298 40.385 109.086C40.8905 108.739 41.3237 108.334 41.6847 107.832C42.0458 107.331 42.3346 106.752 42.5693 106.057C44.0134 102.064 45.4575 98.0707 46.9197 94.058C48.3818 90.0454 49.9704 85.6276 51.7394 80.8047H55.4761C57.913 87.6532 59.8265 93.0742 61.2164 97.0482C62.6064 101.022 63.7797 104.321 64.7545 106.945C64.917 107.369 65.1156 107.755 65.3683 108.102C65.621 108.45 65.964 108.778 66.4333 109.086C66.7763 109.318 67.1915 109.491 67.6428 109.607C68.1121 109.723 68.5273 109.8 68.8883 109.819V111.498H68.9244ZM54.9706 99.2668L51.1257 88.3477L47.3349 99.2861H54.9706V99.2668Z" fill="#2C2A60"/>
<defs>
<filter id="filter0_dd" x="0.387695" y="0" width="177.224" height="200" filterUnits="userSpaceOnUse" color-interpolation-filters="sRGB">
<feFlood flood-opacity="0" result="BackgroundImageFix"/>
<feColorMatrix in="SourceAlpha" type="matrix" values="0 0 0 0 0 0 0 0 0 0 0 0 0 0 0 0 0 0 127 0"/>
<feOffset dy="4"/>
<feGaussianBlur stdDeviation="7.5"/>
<feColorMatrix type="matrix" values="0 0 0 0 0.796078 0 0 0 0 0.823529 0 0 0 0 0.866667 0 0 0 1 0"/>
<feBlend mode="normal" in2="BackgroundImageFix" result="effect1_dropShadow"/>
<feColorMatrix in="SourceAlpha" type="matrix" values="0 0 0 0 0 0 0 0 0 0 0 0 0 0 0 0 0 0 127 0"/>
<feOffset dy="4"/>
<feGaussianBlur stdDeviation="2"/>
<feColorMatrix type="matrix" values="0 0 0 0 0 0 0 0 0 0 0 0 0 0 0 0 0 0 0.25 0"/>
<feBlend mode="normal" in2="effect1_dropShadow" result="effect2_dropShadow"/>
<feBlend mode="normal" in="SourceGraphic" in2="effect2_dropShadow" result="shape"/>
</filter>
</defs>
</svg>
