<svg width="178" height="200" viewBox="0 0 178 200" fill="none" xmlns="http://www.w3.org/2000/svg">
<g filter="url(#filter0_dd)">
<path d="M89 11L162.612 53.5V138.5L89 181L15.3878 138.5V53.5L89 11Z" fill="white"/>
</g>
<path fill-rule="evenodd" clip-rule="evenodd" d="M119.565 63.8047C123.307 62.7278 127.157 65.0969 128.18 69.1082C129.176 73.1195 126.968 77.2116 123.199 78.2884C119.457 79.3653 115.608 76.9962 114.585 72.9849C113.588 69.0005 115.796 64.8815 119.565 63.8047Z" fill="#0F1073"/>
<path fill-rule="evenodd" clip-rule="evenodd" d="M70.324 107.095L61.5207 90.6455L52.502 107.095H70.324Z" fill="#D11A0D"/>
<path d="M89.1961 130.811H89.1153L89.1691 130.758L61.4131 82.4334L34.1416 130.838H22L61.0631 62L81.2273 96.298H89.4114C92.1305 96.2711 94.3111 95.9749 95.9533 95.3557C97.5956 94.7365 98.9147 93.9558 99.9108 92.9866C100.988 91.8829 101.768 90.6445 102.253 89.2715C102.764 87.8985 103.007 86.4716 103.007 84.9909C103.034 83.3218 102.738 81.6796 102.118 80.1182C101.499 78.5567 100.503 77.2645 99.0763 76.2145C98.134 75.5146 96.8418 75.0031 95.2265 74.68C93.6112 74.357 91.6728 74.1954 89.4114 74.1954H68.2781V63.5345H89.7614C93.315 63.5345 96.411 63.8845 99.0224 64.5575C101.634 65.2306 103.868 66.1998 105.699 67.4651C107.099 68.4612 109.118 70.1034 110.841 72.8224C114.098 77.8837 117.437 82.8911 120.91 87.8177L138.409 63.3999H149.743L127.398 95.4903L153 130.838L141.639 130.865L121.233 103.809L102.468 129.519L96.9764 120.177L114.798 95.948L112.833 93.1751C110.572 98.8286 106.318 103.001 103.922 104.267C100.476 106.097 96.3302 107.04 91.5113 107.067H87.5538L101.553 130.865C99.8031 130.811 91.942 130.811 89.1961 130.811Z" fill="#020204"/>
<defs>
<filter id="filter0_dd" x="0.387695" y="0" width="177.224" height="200" filterUnits="userSpaceOnUse" color-interpolation-filters="sRGB">
<feFlood flood-opacity="0" result="BackgroundImageFix"/>
<feColorMatrix in="SourceAlpha" type="matrix" values="0 0 0 0 0 0 0 0 0 0 0 0 0 0 0 0 0 0 127 0"/>
<feOffset dy="4"/>
<feGaussianBlur stdDeviation="7.5"/>
<feColorMatrix type="matrix" values="0 0 0 0 0.796078 0 0 0 0 0.823529 0 0 0 0 0.866667 0 0 0 1 0"/>
<feBlend mode="normal" in2="BackgroundImageFix" result="effect1_dropShadow"/>
<feColorMatrix in="SourceAlpha" type="matrix" values="0 0 0 0 0 0 0 0 0 0 0 0 0 0 0 0 0 0 127 0"/>
<feOffset dy="4"/>
<feGaussianBlur stdDeviation="2"/>
<feColorMatrix type="matrix" values="0 0 0 0 0 0 0 0 0 0 0 0 0 0 0 0 0 0 0.25 0"/>
<feBlend mode="normal" in2="effect1_dropShadow" result="effect2_dropShadow"/>
<feBlend mode="normal" in="SourceGraphic" in2="effect2_dropShadow" result="shape"/>
</filter>
</defs>
</svg>
