<svg width="178" height="200" viewBox="0 0 178 200" fill="none" xmlns="http://www.w3.org/2000/svg">
<g filter="url(#filter0_dd)">
<path d="M89 11L162.612 53.5L162.612 138.5L89 181L15.3878 138.5L15.3878 53.5L89 11Z" fill="white"/>
</g>
<rect x="58.8994" y="138.977" width="98.2403" height="12.5923" rx="6.29613" transform="rotate(-27.9143 58.8994 138.977)" fill="#0CDA76"/>
<rect x="50.4248" y="122.98" width="98.2403" height="12.5923" rx="6.29613" transform="rotate(-27.9143 50.4248 122.98)" fill="#FF432A"/>
<rect x="41.9502" y="106.985" width="34.8188" height="12.5923" rx="6.29613" transform="rotate(-27.9143 41.9502 106.985)" fill="#F7B70F"/>
<rect x="33.4756" y="90.9883" width="34.8188" height="12.5923" rx="6.29613" transform="rotate(-27.9143 33.4756 90.9883)" fill="#E22BDB"/>
<rect x="25.001" y="74.9902" width="34.8188" height="12.5923" rx="6.29613" transform="rotate(-27.9143 25.001 74.9902)" fill="#7C36F8"/>
<defs>
<filter id="filter0_dd" x="0.387695" y="0" width="177.224" height="200" filterUnits="userSpaceOnUse" color-interpolation-filters="sRGB">
<feFlood flood-opacity="0" result="BackgroundImageFix"/>
<feColorMatrix in="SourceAlpha" type="matrix" values="0 0 0 0 0 0 0 0 0 0 0 0 0 0 0 0 0 0 127 0"/>
<feOffset dy="4"/>
<feGaussianBlur stdDeviation="7.5"/>
<feColorMatrix type="matrix" values="0 0 0 0 0.796078 0 0 0 0 0.823529 0 0 0 0 0.866667 0 0 0 1 0"/>
<feBlend mode="normal" in2="BackgroundImageFix" result="effect1_dropShadow"/>
<feColorMatrix in="SourceAlpha" type="matrix" values="0 0 0 0 0 0 0 0 0 0 0 0 0 0 0 0 0 0 127 0"/>
<feOffset dy="4"/>
<feGaussianBlur stdDeviation="2"/>
<feColorMatrix type="matrix" values="0 0 0 0 0 0 0 0 0 0 0 0 0 0 0 0 0 0 0.25 0"/>
<feBlend mode="normal" in2="effect1_dropShadow" result="effect2_dropShadow"/>
<feBlend mode="normal" in="SourceGraphic" in2="effect2_dropShadow" result="shape"/>
</filter>
</defs>
</svg>
