<svg width="178" height="200" viewBox="0 0 178 200" fill="none" xmlns="http://www.w3.org/2000/svg">
<g filter="url(#filter0_dd)">
<path d="M89 11L162.612 53.5V138.5L89 181L15.3878 138.5V53.5L89 11Z" fill="white"/>
</g>
<path d="M78.7773 73.9609H49.0098V132.385H110.904V104.298C93.1619 104.298 78.7773 90.7167 78.7773 73.9609Z" fill="#2F2E92"/>
<path d="M110.906 43.623C96.5899 43.623 84.4741 52.463 80.3221 64.6783C80.2086 64.9997 80.1179 65.3413 80.0045 65.6627C79.2104 68.2946 78.7793 71.0873 78.7793 73.9603H110.906V104.297C113.856 104.297 116.692 103.916 119.415 103.213C119.755 103.112 120.118 103.032 120.458 102.931C133.55 99.0939 143.056 87.5618 143.056 73.9603C143.056 57.2045 128.672 43.623 110.906 43.623Z" fill="url(#paint0_linear)"/>
<path d="M78.7793 73.9609C78.7793 90.7167 93.1639 104.298 110.906 104.298V73.9609H78.7793Z" fill="#260F81"/>
<path d="M80.3205 64.6797C80.2071 65.0011 80.1164 65.3427 80.0029 65.6641H119.413V103.214C119.753 103.114 120.116 103.033 120.457 102.933V64.6797H80.3205Z" fill="white"/>
<path d="M74.0129 88.2256C71.9482 88.2256 70.3146 88.8283 69.1802 90.0338C68.0457 91.2191 67.4785 92.9068 67.4785 95.0364C67.4785 97.1861 68.0457 98.8738 69.1802 100.059C70.3146 101.265 71.9255 101.867 73.9902 101.867C76.0094 101.867 77.6203 101.244 78.7548 100.019C79.8892 98.8135 80.4564 97.1258 80.4564 95.0364C80.4564 92.9469 79.8892 91.2593 78.7548 90.0539C77.6203 88.8484 76.0322 88.2256 74.0129 88.2256ZM77.0985 98.7532C76.3951 99.5568 75.3968 99.9587 73.9902 99.9587C72.6061 99.9587 71.5852 99.5568 70.8818 98.7532C70.1558 97.9295 69.7927 96.6838 69.7927 95.0565C69.7927 93.4492 70.1558 92.2237 70.8818 91.4C71.5852 90.5762 72.6062 90.1945 74.0129 90.1945C75.3969 90.1945 76.4178 90.5762 77.0985 91.4C77.8018 92.2237 78.1422 93.4492 78.1422 95.0766C78.1649 96.6838 77.8018 97.9295 77.0985 98.7532Z" fill="#0D1468"/>
<path d="M90.7806 96.9639C90.7806 97.9283 90.5083 98.6716 89.9638 99.1739C89.4192 99.6762 88.6251 99.9374 87.5815 99.9374C86.4924 99.9374 85.6757 99.6762 85.1311 99.1739C84.5866 98.6716 84.3143 97.9283 84.3143 96.9639V88.4052L83.0892 87.481L82.0908 96.8635C82.0908 98.3904 82.5673 99.6159 83.5202 100.5C84.4731 101.384 85.7891 101.826 87.4907 101.826C89.1924 101.826 90.531 101.384 91.5293 100.5C92.5049 99.6159 93.0267 98.3904 93.0267 96.8835V88.3851L91.8016 87.4609L90.7806 96.9639Z" fill="#0D1468"/>
<path d="M101.943 95.86C103.622 95.197 104.484 93.9915 104.484 92.3039C104.484 91.0181 104.053 90.0336 103.191 89.3706C102.351 88.7277 101.058 88.4062 99.3338 88.4062H95.3179L94.0928 100.742L95.3179 101.666H97.5414V96.4024H99.8103L101.83 100.742L103.055 101.666H105.687L101.943 95.86ZM101.535 94.0116C101.081 94.3732 100.355 94.554 99.3338 94.554H97.5414V90.3551H99.2431C100.309 90.3551 101.104 90.5158 101.557 90.8372C101.988 91.1386 102.215 91.661 102.215 92.3842C102.193 93.1276 101.988 93.65 101.535 94.0116Z" fill="#0D1468"/>
<path d="M78.7568 116.353L73.3796 103.736L72.1544 102.812L70.9973 105.222L69.9082 118.302L71.1334 119.226H72.8577V107.774C72.8577 107.432 72.8577 107.111 72.835 106.79L76.9417 118.302L78.1669 119.226H79.324L84.6331 106.89C84.6331 107.151 84.6105 107.392 84.6105 107.653L83.3852 118.302L84.6105 119.226H86.3802V103.736L85.155 102.812L83.6576 104.921L78.7568 116.353Z" fill="#0D1468"/>
<path d="M89.4654 119.226H91.2351V103.736L90.01 102.812L89.4654 104.74L88.2402 118.281L89.4654 119.226Z" fill="#0D1468"/>
<path d="M101.284 112.333C102.282 112.011 103.054 111.509 103.576 110.866C104.166 110.123 104.483 109.219 104.483 108.154C104.483 106.687 103.961 105.582 102.963 104.839C101.965 104.116 100.445 103.754 98.4253 103.754H94.3414L93.1162 118.32L94.3414 119.244H96.1111V112.775H99.4917L102.328 118.32L103.553 119.244H105.64L101.284 112.333ZM102.645 108.234C102.645 109.239 102.328 109.962 101.67 110.464C101.012 110.967 100.036 111.228 98.7884 111.228H96.1111V105.301H98.38C99.9228 105.301 101.035 105.542 101.693 106.004C102.328 106.466 102.645 107.189 102.645 108.234Z" fill="#0D1468"/>
<path d="M71.9722 134.796H70.5654V143.495H75.9653V142.189H71.9722V134.796Z" fill="#842A91"/>
<path d="M77.644 134.796H76.2373V143.495H77.644V134.796Z" fill="#842A91"/>
<path d="M83.1568 139.135C82.7938 138.914 82.272 138.693 81.5913 138.472C80.8653 138.231 80.5023 138.07 80.3435 137.97C80.1393 137.849 80.0031 137.729 79.935 137.608C79.867 137.488 79.8216 137.307 79.8216 137.086C79.8216 136.744 79.9577 136.483 80.2073 136.282C80.5023 136.061 80.9107 135.961 81.4325 135.961C81.9997 135.961 82.635 136.081 83.2703 136.342L83.656 136.503L84.1778 135.298L83.7921 135.137C83.0434 134.836 82.2493 134.675 81.4098 134.675C80.5476 134.675 79.8216 134.896 79.2544 135.318C78.6645 135.76 78.3696 136.362 78.3696 137.066C78.3696 137.709 78.5737 138.231 78.9821 138.633C79.3678 139.014 80.0031 139.336 80.9334 139.637C81.5006 139.818 81.909 139.979 82.1813 140.14C82.4308 140.26 82.5896 140.401 82.6804 140.541C82.7712 140.662 82.8165 140.843 82.8165 141.064C82.8165 141.425 82.6804 141.707 82.3627 141.928C82.0451 142.169 81.5687 142.289 80.9787 142.289C80.0939 142.289 79.3905 142.169 78.8233 141.948L78.2334 141.727V143.133L78.483 143.234C79.0956 143.475 79.9123 143.575 81.0014 143.575C81.9543 143.575 82.7258 143.354 83.3157 142.912C83.9283 142.45 84.2459 141.827 84.2459 141.044C84.2459 140.622 84.1552 140.24 83.9736 139.939C83.8148 139.637 83.5425 139.356 83.1568 139.135Z" fill="#842A91"/>
<path d="M90.3498 138.312H86.2885V134.796H84.8818V143.495H86.2885V139.598H90.3498V143.495H91.7792V134.796H90.3498V138.312Z" fill="#842A91"/>
<path d="M94.3666 134.796H92.96V143.495H94.3666V134.796Z" fill="#842A91"/>
<path d="M101.083 140.361C101.083 140.542 101.083 140.723 101.083 140.904L96.772 134.816H95.5469V143.515H96.9309V137.99C96.9309 137.83 96.9309 137.629 96.9309 137.408L101.242 143.495H102.467V134.796H101.06L101.083 140.361Z" fill="#842A91"/>
<path d="M106.958 140.019H109.454V142.129C109.023 142.249 108.501 142.329 107.911 142.329C106.845 142.329 106.028 142.068 105.506 141.546C104.961 141.024 104.712 140.22 104.712 139.135C104.712 138.13 104.984 137.367 105.574 136.804C106.141 136.242 106.913 135.961 107.888 135.961C108.614 135.961 109.295 136.101 109.976 136.403L110.361 136.563L110.929 135.358L110.566 135.197C109.794 134.856 108.909 134.675 107.934 134.675C107.026 134.675 106.209 134.856 105.483 135.237C104.757 135.619 104.19 136.141 103.827 136.845C103.441 137.528 103.26 138.291 103.26 139.175C103.26 140.561 103.645 141.666 104.44 142.43C105.234 143.213 106.345 143.615 107.775 143.615C108.841 143.615 109.817 143.434 110.679 143.093L110.929 142.992V138.733H107.003L106.958 140.019Z" fill="#842A91"/>
<path d="M72.7873 87.3203C70.7226 87.3203 69.089 87.923 67.9546 89.1285C66.8201 90.3139 66.2529 92.0015 66.2529 94.1311C66.2529 96.2808 66.8201 97.9685 67.9546 99.1538C69.089 100.359 70.7 100.962 72.7646 100.962C74.7839 100.962 76.3948 100.339 77.5292 99.1137C78.6637 97.9082 79.2309 96.2206 79.2309 94.1311C79.2309 92.0417 78.6637 90.354 77.5292 89.1486C76.3948 87.923 74.8066 87.3203 72.7873 87.3203ZM75.873 97.8278C75.1696 98.6315 74.1713 99.0333 72.7646 99.0333C71.3806 99.0333 70.3596 98.6315 69.6562 97.8278C68.9302 97.0041 68.5672 95.7585 68.5672 94.1311C68.5672 92.5239 68.9302 91.2983 69.6562 90.4746C70.3596 89.6509 71.3806 89.2691 72.7873 89.2691C74.1713 89.2691 75.1923 89.6709 75.873 90.4746C76.5763 91.2983 76.9166 92.5238 76.9166 94.1512C76.9393 95.7585 76.5763 97.0041 75.873 97.8278Z" fill="white"/>
<path d="M89.556 96.0597C89.556 97.024 89.2837 97.7674 88.7392 98.2697C88.1946 98.7719 87.4005 99.0331 86.3569 99.0331C85.2678 99.0331 84.451 98.7719 83.9065 98.2697C83.3619 97.7674 83.0897 97.024 83.0897 96.0597V87.501H80.8662V95.9592C80.8662 97.4861 81.3427 98.7117 82.2956 99.5957C83.2485 100.48 84.5645 100.942 86.2661 100.942C87.9451 100.942 89.3064 100.5 90.282 99.6158C91.2803 98.7318 91.7794 97.5062 91.7794 95.9994V87.501H89.556V96.0597Z" fill="white"/>
<path d="M100.718 94.9352C102.397 94.2722 103.259 93.0667 103.259 91.3791C103.259 90.0933 102.828 89.1088 101.966 88.4458C101.126 87.8029 99.8328 87.4814 98.1085 87.4814H94.1152V100.741H96.3387V95.4776H98.6076L101.852 100.741H104.484L100.718 94.9352ZM100.332 93.0868C99.8782 93.4484 99.1521 93.6292 98.1311 93.6292H96.3387V89.4302H98.0404C99.1068 89.4302 99.9008 89.591 100.355 89.9124C100.786 90.2138 101.013 90.7362 101.013 91.4594C100.967 92.2028 100.763 92.7252 100.332 93.0868Z" fill="white"/>
<path d="M77.5299 115.448L72.1527 102.831H69.8838V118.321H71.6081V106.869C71.6081 106.528 71.6081 106.206 71.5854 105.885L76.8946 118.321H78.0517L83.3609 105.985C83.3609 106.246 83.3382 106.488 83.3382 106.749V118.321H85.1079V102.831H82.8844L77.5299 115.448Z" fill="#EB8B7A"/>
<path d="M90.01 102.831H88.2402V118.321H90.01V102.831Z" fill="#EB8B7A"/>
<path d="M100.082 111.41C101.081 111.088 101.852 110.586 102.374 109.943C102.964 109.2 103.282 108.296 103.282 107.231C103.282 105.764 102.76 104.659 101.761 103.916C100.763 103.193 99.2429 102.831 97.2236 102.831H93.1396V118.321H94.9094V111.852H98.29L102.351 118.321H104.439L100.082 111.41ZM101.421 107.311C101.421 108.316 101.103 109.039 100.445 109.541C99.7875 110.044 98.8118 110.305 97.5639 110.305H94.8867V104.378H97.1556C98.6984 104.378 99.8101 104.619 100.468 105.081C101.126 105.543 101.421 106.287 101.421 107.311Z" fill="#EB8B7A"/>
<defs>
<filter id="filter0_dd" x="0.387695" y="0" width="177.224" height="200" filterUnits="userSpaceOnUse" color-interpolation-filters="sRGB">
<feFlood flood-opacity="0" result="BackgroundImageFix"/>
<feColorMatrix in="SourceAlpha" type="matrix" values="0 0 0 0 0 0 0 0 0 0 0 0 0 0 0 0 0 0 127 0"/>
<feOffset dy="4"/>
<feGaussianBlur stdDeviation="7.5"/>
<feColorMatrix type="matrix" values="0 0 0 0 0.796078 0 0 0 0 0.823529 0 0 0 0 0.866667 0 0 0 1 0"/>
<feBlend mode="normal" in2="BackgroundImageFix" result="effect1_dropShadow"/>
<feColorMatrix in="SourceAlpha" type="matrix" values="0 0 0 0 0 0 0 0 0 0 0 0 0 0 0 0 0 0 127 0"/>
<feOffset dy="4"/>
<feGaussianBlur stdDeviation="2"/>
<feColorMatrix type="matrix" values="0 0 0 0 0 0 0 0 0 0 0 0 0 0 0 0 0 0 0.25 0"/>
<feBlend mode="normal" in2="effect1_dropShadow" result="effect2_dropShadow"/>
<feBlend mode="normal" in="SourceGraphic" in2="effect2_dropShadow" result="shape"/>
</filter>
<linearGradient id="paint0_linear" x1="138.84" y1="89.7431" x2="91.973" y2="48.0841" gradientUnits="userSpaceOnUse">
<stop stop-color="#842A91"/>
<stop offset="0.1011" stop-color="#943691"/>
<stop offset="0.2965" stop-color="#B8528B"/>
<stop offset="0.5647" stop-color="#F88A7D"/>
<stop offset="0.5799" stop-color="#FB8D7B"/>
<stop offset="0.8321" stop-color="#FACF60"/>
<stop offset="1" stop-color="#F8F74B"/>
</linearGradient>
</defs>
</svg>
