<svg width="9" height="20" viewBox="0 0 9 20" fill="none" xmlns="http://www.w3.org/2000/svg">
<path d="M0.00519591 9.88373C0.0272156 9.6507 0.113554 9.43033 0.252904 9.25147L7.10838 0.414579C7.29127 0.178474 7.55307 0.0309021 7.83619 0.00432749C8.11932 -0.0222472 8.40056 0.0743523 8.61807 0.272875C8.83558 0.471398 8.97153 0.755582 8.99601 1.06291C9.0205 1.37024 8.93151 1.67554 8.74862 1.91164L2.47558 10L8.74862 18.0884C8.83918 18.2053 8.90763 18.3404 8.95008 18.486C8.99253 18.6316 9.00814 18.7849 8.99601 18.9371C8.98389 19.0893 8.94428 19.2374 8.87943 19.3729C8.81458 19.5085 8.72577 19.6288 8.61807 19.7271C8.51037 19.8254 8.3859 19.8997 8.25174 19.9458C8.11758 19.9919 7.97638 20.0088 7.83619 19.9957C7.696 19.9825 7.55958 19.9395 7.4347 19.8691C7.30982 19.7987 7.19894 19.7023 7.10838 19.5854L0.252904 10.7485C0.160426 10.6297 0.090855 10.4919 0.0483068 10.3434C0.00575852 10.1948 -0.00890238 10.0385 0.00519591 9.88373Z" fill="white"/>
</svg>
