<svg width="9" height="20" viewBox="0 0 9 20" fill="none" xmlns="http://www.w3.org/2000/svg">
<path d="M8.9948 9.88397C8.97278 9.65095 8.88645 9.43057 8.7471 9.25171L1.89162 0.414823C1.70873 0.178718 1.44693 0.0311463 1.16381 0.00457163C0.880685 -0.022003 0.599437 0.0745964 0.381928 0.273119C0.164419 0.471642 0.0284672 0.755826 0.00398545 1.06315C-0.0204963 1.37048 0.068493 1.67578 0.251379 1.91189L6.52442 10.0002L0.25138 18.0886C0.160824 18.2055 0.0923699 18.3406 0.0499218 18.4863C0.00747285 18.6319 -0.00813593 18.7852 0.00398623 18.9373C0.0161084 19.0895 0.0557231 19.2376 0.12057 19.3732C0.185417 19.5087 0.274229 19.6291 0.381929 19.7274C0.489629 19.8257 0.614104 19.9 0.74826 19.9461C0.882416 19.9921 1.02362 20.0091 1.16381 19.9959C1.304 19.9828 1.44042 19.9398 1.5653 19.8694C1.69018 19.799 1.80106 19.7026 1.89162 19.5857L8.7471 10.7488C8.83957 10.6299 8.90915 10.4922 8.95169 10.3436C8.99424 10.1951 9.0089 10.0388 8.9948 9.88397Z" fill="white"/>
</svg>
