<svg width="830" height="376" viewBox="0 0 830 376" fill="none" xmlns="http://www.w3.org/2000/svg">
<path d="M256.846 336.052C256.846 336.052 212.807 264.265 254.499 233.572C279.548 215.156 368.537 225.971 361.121 205.948C330.634 124.683 382.874 83.4666 488.177 112.991C523.772 122.93 538.109 82.005 586.558 51.0194C618.858 30.2648 692.521 23.5415 718.888 69.5815C737.674 102.76 743.113 111.968 765.195 105.39C831.771 85.659 739.487 230.649 771.787 226.41C804.086 222.171 839.846 237.226 821.225 287.504C813.479 308.259 802.932 325.798 796.835 337.052L256.846 336.052Z" fill="#BEE0FF"/>
<path d="M533.759 274.908C533.759 274.908 509.779 216.886 519.628 205.325C529.477 193.763 549.388 242.364 554.098 235.085C558.809 227.805 541.466 164.645 558.381 152.655C575.295 140.665 572.94 222.881 581.932 213.675C591.138 204.468 592.637 169.141 602.058 181.345C611.478 193.549 587.927 231.659 597.99 231.873C608.052 232.087 614.261 218.385 617.687 228.448C621.113 238.511 592.637 315.802 592.637 315.802L533.759 274.908Z" fill="#6CCAB3"/>
<path d="M548.103 276.407C547.889 276.407 547.889 276.193 547.889 276.193C547.889 275.979 545.32 258.208 539.325 240.652C533.116 223.095 521.554 208.322 521.554 208.322C521.34 208.108 521.34 207.894 521.554 207.894C521.768 207.68 521.982 207.68 521.982 207.894C522.196 208.108 533.758 222.881 539.967 240.438C546.176 257.994 548.531 275.979 548.531 276.193C548.531 276.193 548.317 276.407 548.103 276.407Z" fill="white"/>
<path d="M569.514 278.334C569.3 278.334 569.3 278.12 569.086 277.906C569.086 277.692 567.587 262.276 562.877 223.309C558.166 184.343 562.877 147.731 562.877 147.303C562.877 147.089 563.091 146.875 563.305 147.089C563.519 147.089 563.519 147.303 563.519 147.517C563.519 147.945 558.809 184.343 563.519 223.309C568.229 262.276 569.728 277.692 569.728 277.906C569.942 278.12 569.728 278.334 569.514 278.334Z" fill="white"/>
<path d="M576.58 276.407C576.365 276.407 576.151 276.193 576.151 275.979C576.151 275.764 578.078 255.425 587.713 218.599C597.562 181.559 605.055 171.924 605.484 171.71C605.698 171.496 605.912 171.496 605.912 171.71C606.126 171.924 606.126 172.139 605.912 172.139C605.912 172.139 597.99 181.987 588.355 218.813C578.721 255.639 576.794 275.764 576.794 275.979C577.008 276.193 576.794 276.407 576.58 276.407Z" fill="white"/>
<path d="M594.35 276.407C594.136 276.407 594.136 276.193 594.136 276.193C594.136 275.765 593.066 267.629 602.058 251.357C603.557 248.574 605.056 246.004 606.34 243.649C612.763 232.088 617.045 224.594 616.831 219.027C616.831 218.813 617.045 218.599 617.045 218.599C617.259 218.599 617.473 218.813 617.473 219.027C617.473 224.808 613.406 232.088 606.768 244.077C605.484 246.433 603.985 249.002 602.486 251.785C593.708 268.057 594.564 276.193 594.564 276.193C594.564 276.193 594.564 276.407 594.35 276.407Z" fill="white"/>
<path d="M596.49 192.05C596.276 192.05 596.276 192.05 596.276 191.836L593.921 183.915C593.921 183.7 593.921 183.486 594.135 183.486C594.349 183.486 594.563 183.486 594.563 183.7L596.918 191.622C596.918 191.836 596.918 192.05 596.49 192.05C596.704 192.05 596.704 192.05 596.49 192.05Z" fill="white"/>
<path d="M592.851 203.184C592.637 203.184 592.637 202.97 592.637 202.97L591.139 193.335C591.139 193.121 591.139 192.907 591.353 192.907C591.567 192.907 591.781 192.907 591.781 193.121L593.28 202.755C593.066 202.97 593.066 203.184 592.851 203.184Z" fill="white"/>
<path d="M588.784 217.314C588.57 217.314 588.57 217.314 588.57 217.1L585.572 208.108C585.572 207.894 585.572 207.68 585.786 207.68C586 207.68 586.215 207.68 586.215 207.894L589.212 216.886C589.212 216.886 588.998 217.1 588.784 217.314Z" fill="white"/>
<path d="M586.215 227.377C586.001 227.377 586.001 227.377 586.001 227.163L581.933 213.675C581.933 213.461 581.933 213.247 582.147 213.247C582.361 213.247 582.575 213.247 582.575 213.461L586.643 226.949C586.429 227.163 586.429 227.377 586.215 227.377Z" fill="white"/>
<path d="M562.235 213.889C562.235 213.889 562.021 213.889 562.021 213.675C561.807 213.461 561.807 213.246 562.021 213.246L576.366 198.687C576.58 198.473 576.794 198.473 576.794 198.687C577.008 198.902 577.008 199.116 576.794 199.116L562.449 213.675C562.449 213.889 562.449 213.889 562.235 213.889Z" fill="white"/>
<path d="M562.235 203.184C562.235 203.184 562.021 203.184 562.021 202.97C561.807 202.756 561.807 202.541 562.021 202.541L574.867 189.053C575.081 188.839 575.295 188.839 575.295 189.053C575.509 189.267 575.509 189.481 575.295 189.481L562.449 202.97C562.449 203.184 562.449 203.184 562.235 203.184Z" fill="white"/>
<path d="M561.164 191.408C561.164 191.408 560.95 191.408 560.95 191.194C560.736 190.98 560.95 190.766 560.95 190.766L572.511 179.418C572.725 179.204 572.939 179.204 572.939 179.418C573.154 179.632 572.939 179.846 572.939 179.846L561.164 191.408C561.378 191.408 561.378 191.408 561.164 191.408Z" fill="white"/>
<path d="M561.164 180.703C561.164 180.703 560.95 180.703 560.95 180.489C560.736 180.275 560.95 180.061 560.95 180.061L572.511 169.355C572.725 169.141 572.939 169.355 572.939 169.355C573.154 169.57 572.939 169.784 572.939 169.784L561.164 180.703C561.378 180.703 561.378 180.703 561.164 180.703Z" fill="white"/>
<path d="M561.592 169.998C561.592 169.998 561.378 169.998 561.378 169.784C561.164 169.57 561.378 169.356 561.378 169.356L569.3 161.434C569.514 161.22 569.728 161.22 569.728 161.434C569.942 161.648 569.728 161.862 569.728 161.862L561.807 169.784C561.807 169.998 561.592 169.998 561.592 169.998Z" fill="white"/>
<path d="M535.899 232.087H518.771C518.557 232.087 518.343 231.873 518.343 231.659C518.343 231.445 518.557 231.231 518.771 231.231H535.899C536.113 231.231 536.327 231.445 536.327 231.659C536.327 231.873 536.113 232.087 535.899 232.087Z" fill="white"/>
<path d="M521.556 245.576C521.342 245.576 521.342 245.362 521.342 245.362C521.342 245.148 521.342 244.934 521.556 244.934L539.755 241.08C539.969 241.08 540.183 241.08 540.183 241.294C540.183 241.508 540.183 241.722 539.969 241.722L521.556 245.576Z" fill="white"/>
<path d="M524.338 257.994C524.124 257.994 524.124 257.994 524.124 257.78C524.124 257.566 524.124 257.352 524.338 257.352L542.965 251.143C543.179 251.143 543.393 251.143 543.393 251.357C543.393 251.571 543.393 251.785 543.179 251.785L524.338 257.994Z" fill="white"/>
<path d="M529.049 268.913C528.835 268.913 528.835 268.913 528.835 268.699C528.835 268.485 528.835 268.271 529.049 268.271L545.749 262.276C545.963 262.276 546.177 262.276 546.177 262.49C546.177 262.704 546.177 262.918 545.963 262.918L529.049 268.913C529.049 268.699 529.049 268.913 529.049 268.913Z" fill="white"/>
<path d="M594.351 272.339C594.137 272.339 594.137 272.339 594.137 272.125C594.137 271.911 594.137 271.697 594.351 271.697L607.197 267.415C607.411 267.415 607.625 267.415 607.625 267.629C607.625 267.843 607.625 268.057 607.411 268.057L594.351 272.339Z" fill="white"/>
<path d="M595.634 266.986C595.42 266.986 595.42 266.986 595.42 266.772C595.42 266.558 595.42 266.344 595.634 266.344L610.193 260.349C610.407 260.349 610.621 260.349 610.621 260.563C610.621 260.777 610.621 260.991 610.407 260.991L595.634 266.986C595.848 266.986 595.634 266.986 595.634 266.986Z" fill="white"/>
<path d="M598.204 259.921C597.99 259.921 597.99 259.707 597.99 259.707C597.99 259.493 597.99 259.278 598.204 259.278L613.406 254.782C613.62 254.782 613.834 254.782 613.834 254.996C613.834 255.21 613.834 255.425 613.62 255.425L598.204 259.921Z" fill="white"/>
<path d="M601.415 253.07C601.201 253.07 601.201 252.856 601.201 252.856C601.201 252.642 601.201 252.428 601.415 252.428L615.974 248.788C616.188 248.788 616.402 248.788 616.402 249.002C616.402 249.216 616.402 249.43 616.188 249.43L601.415 253.07Z" fill="white"/>
<path d="M605.056 246.432C604.842 246.432 604.842 246.218 604.842 246.218C604.842 246.004 604.842 245.79 605.056 245.79L617.046 243.007C617.26 243.007 617.474 243.007 617.474 243.221C617.474 243.435 617.474 243.649 617.26 243.649L605.056 246.432Z" fill="white"/>
<path d="M608.268 240.652C608.054 240.652 608.054 240.652 608.054 240.438C608.054 240.223 608.054 240.009 608.268 240.009L619.401 236.156C619.615 236.156 619.829 236.155 619.829 236.37C619.829 236.584 619.829 236.798 619.615 236.798L608.268 240.652Z" fill="white"/>
<path d="M611.693 234.443C611.479 234.443 611.479 234.443 611.479 234.229C611.479 234.015 611.479 233.801 611.693 233.801L619.4 230.589C619.614 230.589 619.829 230.589 619.829 230.803C619.829 231.017 619.829 231.231 619.614 231.231L611.693 234.443Z" fill="white"/>
<path d="M613.833 230.161C613.619 230.161 613.619 230.161 613.619 229.947C613.619 229.733 613.619 229.518 613.833 229.518L619.4 226.735C619.614 226.735 619.828 226.735 619.828 226.949C619.828 227.163 619.828 227.377 619.614 227.377L613.833 230.161Z" fill="white"/>
<path d="M728.807 332.024L727.737 326.672C727.737 326.244 725.81 317.679 727.737 292.843C729.235 271.005 738.87 220.691 741.225 208.059C735.658 214.696 719.815 235.464 716.175 263.511C711.893 297.768 723.455 323.246 723.455 323.46L721.956 324.103C721.742 323.888 710.18 297.982 714.462 263.297C718.958 228.613 741.653 204.847 741.867 204.633L743.794 202.706L743.366 205.489C743.152 206.132 731.162 268.222 729.235 293.058C728.379 304.833 728.379 312.969 728.593 318.322C730.52 303.549 735.23 272.718 745.935 253.877C760.066 228.398 776.552 222.189 777.194 221.975L778.907 221.333L737.157 325.387L735.658 324.745L775.91 224.33C771.2 226.686 758.567 234.607 747.434 254.733C733.517 279.783 729.449 326.458 729.449 326.886L728.807 332.024Z" fill="white"/>
<path d="M711.25 324.745C711.036 324.531 700.117 304.619 694.978 278.713C689.84 252.592 707.182 224.33 707.182 224.116L708.467 221.975L715.96 324.317L714.247 324.531L707.182 227.328C703.328 234.393 692.195 257.088 696.477 278.499C701.401 304.191 712.321 323.888 712.535 324.103L711.25 324.745Z" fill="white"/>
<path d="M608.91 336.57C608.91 336.57 627.751 312.805 625.824 300.173C623.898 287.755 617.046 300.601 608.91 303.17C600.988 305.525 617.903 269.342 605.056 256.068C592.21 242.793 574.654 267.201 567.374 281.974C560.095 296.747 525.624 229.091 514.063 238.511C502.501 247.932 529.05 336.356 529.05 336.356L608.91 336.57Z" fill="#129C7A"/>
<path d="M542.325 336.356C542.325 336.142 538.899 304.883 532.262 284.757C525.625 264.846 523.056 261.634 523.056 261.42L524.34 260.349C524.554 260.563 527.124 263.775 533.761 284.115C540.612 304.455 544.038 335.928 544.038 336.356H542.325Z" fill="white"/>
<path d="M569.302 336.57H567.589C567.589 336.356 569.73 317.515 575.725 302.528C581.72 287.327 590.07 276.835 590.07 276.621L591.354 277.692C591.354 277.692 583.218 288.183 577.224 303.17C571.443 317.943 569.516 336.356 569.302 336.57Z" fill="white"/>
<path d="M579.365 336.57H577.224C577.224 336.57 584.289 326.721 593.495 318.8C602.702 310.664 615.12 307.452 615.548 307.452L615.976 308.951C615.762 308.951 603.344 312.162 594.566 320.084C585.574 328.006 579.365 336.356 579.365 336.57Z" fill="white"/>
<path d="M538.47 305.097L523.482 299.316L523.911 297.818L537.827 303.17L550.245 288.825L551.316 289.896L538.47 305.097Z" fill="white"/>
<path d="M533.761 286.898L518.773 281.546L519.202 279.833L533.118 284.971L539.756 272.768L541.254 273.41L533.761 286.898Z" fill="white"/>
<path d="M528.408 271.269L518.773 268.914L519.202 267.415L527.552 269.342L532.69 260.564L534.189 261.42L528.408 271.269Z" fill="white"/>
<path d="M541.253 321.583L527.551 311.948L528.407 310.45L541.039 319.442L551.744 304.883L553.029 305.954L541.253 321.583Z" fill="white"/>
<path d="M583.646 288.183L583.432 287.326C582.361 279.19 581.933 274.48 582.361 273.838L583.86 274.48L583.218 274.052L584.074 274.266C583.86 274.908 584.502 280.689 585.145 286.042L599.275 283.258L599.704 284.757L583.646 288.183Z" fill="white"/>
<path d="M576.579 301.886L572.726 287.327L574.438 286.898L577.864 300.173L591.138 299.745V301.243L576.579 301.886Z" fill="white"/>
<path d="M570.8 321.583L563.307 304.455L564.805 303.812L571.657 319.656L582.79 316.23L583.218 317.729L570.8 321.583Z" fill="white"/>
<path d="M604.032 312.021L603.73 313.707L618.484 316.344L618.785 314.657L604.032 312.021Z" fill="white"/>
<path d="M611.051 323.51L593.923 320.085L594.351 318.586L611.479 322.012L611.051 323.51Z" fill="white"/>
<path d="M586.675 325.94L586.235 327.595L601.755 331.719L602.195 330.064L586.675 325.94Z" fill="white"/>
<path d="M381.666 327.313C379.953 323.674 340.13 238.246 342.271 217.05C342.271 216.194 342.699 213.625 344.412 213.196C349.764 212.34 362.397 236.962 377.17 266.936C380.381 273.573 383.593 279.997 385.306 283.208C384.877 280.211 384.021 274.644 383.165 268.435C377.598 230.967 372.459 194.141 377.598 190.287C378.24 189.859 379.097 189.645 379.739 190.073C385.306 192.428 390.23 216.622 396.867 250.45C399.65 265.223 402.862 281.709 404.789 284.493C406.074 280.853 407.144 273.145 408.215 265.009C410.356 248.309 411.854 237.176 416.136 235.463C417.207 235.035 418.492 235.249 419.776 236.32C429.197 244.455 418.92 297.981 418.492 300.336L416.993 300.122C419.99 284.921 425.985 244.027 418.706 237.604C417.635 236.534 416.993 236.962 416.779 236.962C413.353 238.246 411.426 253.234 409.927 265.223C408.857 273.573 408 281.281 406.502 285.135C406.074 286.206 405.431 286.42 405.003 286.42C402.862 286.206 400.935 278.712 395.583 250.879C390.872 226.899 384.449 193.927 379.311 191.572C378.882 191.358 378.882 191.572 378.668 191.572C373.958 195.212 381.452 244.455 384.877 268.221C386.59 278.926 387.447 284.707 387.232 285.991C387.232 286.634 386.804 286.848 386.59 286.848C385.52 287.062 385.091 286.42 375.885 267.793C367.321 250.45 349.764 214.909 345.054 214.909C345.054 214.909 345.054 214.909 344.84 214.909C344.626 214.909 344.198 215.552 343.984 217.264C341.843 238.032 382.736 325.815 383.165 326.671L381.666 327.313Z" fill="white"/>
<path d="M46.248 262.654H161.65L170.856 266.936H61.2353L46.248 262.654Z" fill="white"/>
<path d="M170.855 330.097H61.2344V266.936H170.855V271.861L164.004 275.715L170.855 278.712V279.568V282.352L168.928 287.276L170.855 290.488V293.699L164.646 297.553H170.855V299.266V300.55V303.334L167.644 305.903L170.855 311.042L168.286 316.18L170.855 320.676V322.389V325.172L169.356 326.885L170.855 328.812V330.097Z" fill="white"/>
<path d="M61.2348 330.097L54.1694 328.17L53.7412 264.795L61.2348 266.936V330.097Z" fill="#68C0FF"/>
<path d="M96.5614 284.493H61.2344L79.0049 289.845L96.5614 284.493Z" fill="#F0FFFC"/>
<path d="M61.2343 317.037L74.2946 313.611H61.2343L63.3754 304.833L60.3779 299.266L61.2343 317.037Z" fill="#11B7AE"/>
<path d="M61.2341 281.495H78.1482L59.7354 278.712L61.2341 281.495Z" fill="#11B7AE"/>
<path d="M58.2363 269.72H84.7851L59.7351 267.365L58.2363 269.72Z" fill="#11B7AE"/>
<path d="M58.2363 319.391L84.7851 318.107L59.7351 317.036L58.2363 319.391Z" fill="#11B7AE"/>
<path d="M57.166 327.528H71.5109L58.4506 325.172L57.166 327.528Z" fill="#11B7AE"/>
<path d="M61.2341 279.568L62.9469 275.5L59.7354 271.646L61.2341 279.568Z" fill="#11B7AE"/>
<path d="M46.2463 326.029V320.462L54.1681 322.603L46.2463 319.606V312.54L50.7425 312.754L46.2463 311.256V298.41L47.9591 295.412L46.2463 292.629V288.347L53.5258 288.133L46.0322 285.777V278.712L47.3168 276.357L46.2463 273.788V268.649L53.0976 271.004L46.2463 266.936V262.654L57.1656 265.652V328.812L46.2463 326.029Z" fill="#68C0FF"/>
<path d="M128.463 317.036H82.0029L105.982 320.676L128.463 317.036Z" fill="#68C0FF" fill-opacity="0.4"/>
<path d="M165.289 300.122H132.959L163.148 305.903L165.289 300.122Z" fill="#68C0FF" fill-opacity="0.4"/>
<path d="M170.856 278.712L139.812 278.498L177.708 282.352L170.856 278.712Z" fill="#F0FFFC"/>
<path d="M109.194 303.762H62.9473L77.0781 307.188L109.194 303.762Z" fill="#68C0FF" fill-opacity="0.4"/>
<path d="M143.023 288.775H109.837L131.247 291.558L143.023 288.775Z" fill="#F0FFFC"/>
<path d="M161.221 326.671H128.035L149.66 327.955L161.221 326.671Z" fill="#F0FFFC"/>
<path d="M150.3 294.984L88.8525 294.77L133.6 297.125L150.3 294.984Z" fill="#68C0FF"/>
<path d="M171.283 271.861L131.674 271.646L166.787 274.002L171.283 271.861Z" fill="#68C0FF"/>
<path d="M146.448 321.747H111.978L138.312 323.46L146.448 321.747Z" fill="#68C0FF"/>
<path d="M93.9922 275.286H62.9473L71.5114 277.427L93.9922 275.286Z" fill="#F0FFFC"/>
<path d="M92.0657 325.815H60.8066L69.5849 327.956L92.0657 325.815Z" fill="#F0FFFC"/>
<path d="M57.8087 284.279L46.2472 280.425L42.6074 282.994L57.8087 284.279Z" fill="white"/>
<path d="M61.2339 305.903L47.5312 301.835L51.171 305.903H61.2339Z" fill="white"/>
<path d="M58.4492 210.627H173.637L182.843 214.267H73.4364L58.4492 210.627Z" fill="white"/>
<path d="M182.843 269.077H73.4365V214.267H182.843V218.549L175.992 221.76L182.843 224.544V225.186V227.541L181.13 231.823L182.843 234.606V237.39L176.848 240.601H182.843V242.314V243.385V245.74L179.632 248.095L182.843 252.377L180.274 257.087L182.843 260.727V262.226V264.581L181.344 266.08L182.843 267.792V269.077Z" fill="white"/>
<path d="M73.436 269.077L66.3706 267.15L65.9424 212.34L73.436 214.267V269.077Z" fill="#68C0FF"/>
<path d="M108.549 229.468H73.4365L90.993 234.178L108.549 229.468Z" fill="#BDFFF4"/>
<path d="M73.4375 257.73L86.2837 254.732H73.4375L75.5785 247.024L72.5811 242.314L73.4375 257.73Z" fill="#68C0FF"/>
<path d="M73.4365 226.899H90.1365L71.7236 224.544L73.4365 226.899Z" fill="#68C0FF"/>
<path d="M70.4404 216.836H96.7751L71.7251 214.695L70.4404 216.836Z" fill="#68C0FF"/>
<path d="M70.4404 259.657L96.7751 258.586L71.7251 257.73L70.4404 259.657Z" fill="#68C0FF"/>
<path d="M69.1543 266.722H83.4992L70.4389 264.581L69.1543 266.722Z" fill="#11B7AE"/>
<path d="M73.2223 225.186L74.9352 221.547L71.7236 218.335L73.2223 225.186Z" fill="#11B7AE"/>
<path d="M58.4504 265.437V260.513L66.3723 262.44L58.4504 259.871V253.662L62.7325 253.876L58.4504 252.591V241.672L59.9492 238.889L58.2363 236.533V232.894L65.5158 232.68L58.2363 230.539V224.544L59.3068 222.403L58.4504 220.262V215.765L65.0876 217.692L58.4504 214.267V210.627L69.1556 213.196V267.793L58.4504 265.437Z" fill="#68C0FF"/>
<path d="M140.451 257.73H94.2051L117.971 260.727L140.451 257.73Z" fill="#BDFFF4"/>
<path d="M177.277 242.957H144.947L175.136 248.095L177.277 242.957Z" fill="#F0FFFC"/>
<path d="M182.845 224.543L151.8 224.329L189.696 227.541L182.845 224.543Z" fill="#F0FFFC"/>
<path d="M121.182 246.168H74.9355L89.2804 249.166L121.182 246.168Z" fill="#BDFFF4"/>
<path d="M155.011 233.108H121.825L143.236 235.463L155.011 233.108Z" fill="#BDFFF4"/>
<path d="M173.209 265.866H140.023L161.862 267.15L173.209 265.866Z" fill="#F0FFFC"/>
<path d="M162.288 238.675L100.841 238.46L145.802 240.387L162.288 238.675Z" fill="#68C0FF"/>
<path d="M183.272 218.549L143.877 218.335L178.776 220.262L183.272 218.549Z" fill="#11B7AE"/>
<path d="M158.65 261.583L124.18 261.798L150.3 263.296L158.65 261.583Z" fill="#68C0FF"/>
<path d="M105.98 221.546H74.9355L83.4997 223.473L105.98 221.546Z" fill="#F0FFFC"/>
<path d="M104.053 265.223H73.0078L81.5719 267.15L104.053 265.223Z" fill="#F0FFFC"/>
<path d="M69.797 229.254L58.2354 225.828L54.5957 228.184L69.797 229.254Z" fill="white"/>
<path d="M73.4362 247.881L59.5195 244.455L63.1593 248.095L73.4362 247.881Z" fill="white"/>
<path d="M25.0508 148.537L140.238 147.039L149.445 151.321H40.038L25.0508 148.537Z" fill="white"/>
<path d="M149.445 214.695H40.0381V151.321H149.445V156.245L142.593 160.099L149.445 163.31V163.953V166.736L147.732 171.66L149.445 174.872V178.083L143.45 181.937H149.445V183.65V184.935V187.718L146.233 190.287L149.445 195.426L146.876 200.778L149.445 205.06V206.773V209.557L147.946 211.269L149.445 213.196V214.695Z" fill="white"/>
<path d="M40.0383 214.695L32.9729 212.554L31.9023 150.036L40.0383 151.32V214.695Z" fill="#68C0FF"/>
<path d="M75.151 168.877H40.0381L57.5945 174.444L75.151 168.877Z" fill="#68C0FF" fill-opacity="0.4"/>
<path d="M40.039 201.421L52.8852 198.209H40.039L42.1801 189.431L39.1826 183.65L40.039 201.421Z" fill="#68C0FF"/>
<path d="M40.038 165.88H56.7381L38.3252 163.311L40.038 165.88Z" fill="#68C0FF"/>
<path d="M37.042 154.318H63.3767L38.3266 151.963L37.042 154.318Z" fill="#68C0FF"/>
<path d="M37.042 203.776L63.3767 202.705L38.3266 201.421L37.042 203.776Z" fill="#68C0FF"/>
<path d="M35.7559 211.912H50.1008L37.0405 209.557L35.7559 211.912Z" fill="#68C0FF"/>
<path d="M39.8239 163.953L41.5367 159.885L38.3252 156.031L39.8239 163.953Z" fill="#68C0FF"/>
<path d="M25.052 210.413V204.846L32.9738 206.987L25.052 203.99V196.924L29.3341 197.139L25.052 195.64V183.008L26.5507 180.01L24.8379 177.013V172.731L32.1174 172.517L24.8379 170.162V163.31L25.9084 160.741L25.052 158.386V153.033L31.6892 155.388L25.052 151.32V148.537L40.0392 151.32L35.7571 213.196L25.052 210.413Z" fill="#68C0FF"/>
<path d="M107.053 201.421H60.8066L84.5721 205.06L107.053 201.421Z" fill="#68C0FF" fill-opacity="0.4"/>
<path d="M143.878 184.507H111.549L141.737 190.287L143.878 184.507Z" fill="#68C0FF" fill-opacity="0.4"/>
<path d="M149.446 163.31L118.401 163.096L156.298 166.736L149.446 163.31Z" fill="#F0FFFC"/>
<path d="M87.7834 188.146H41.5371L55.882 191.786L87.7834 188.146Z" fill="#68C0FF" fill-opacity="0.4"/>
<path d="M121.613 173.159H88.4268L109.837 175.942L121.613 173.159Z" fill="#68C0FF" fill-opacity="0.4"/>
<path d="M139.811 211.055H106.625L128.464 212.34L139.811 211.055Z" fill="#F0FFFC"/>
<path d="M128.89 179.582L67.4424 179.368L112.404 181.509L128.89 179.582Z" fill="#68C0FF"/>
<path d="M149.873 156.245L110.479 156.031L145.377 158.386L149.873 156.245Z" fill="#11B7AE"/>
<path d="M125.252 206.131L90.7812 206.345L116.902 207.844L125.252 206.131Z" fill="#68C0FF"/>
<path d="M72.5821 159.885H41.5371L50.1012 162.026L72.5821 159.885Z" fill="#68C0FF" fill-opacity="0.4"/>
<path d="M70.6543 210.199H39.6094L48.1735 212.34L70.6543 210.199Z" fill="#F0FFFC"/>
<path d="M36.3986 168.663L24.837 164.809L21.1973 167.379L36.3986 168.663Z" fill="white"/>
<path d="M40.0378 190.287L26.1211 186.433L29.7608 190.287H40.0378Z" fill="white"/>
<path d="M70.6539 227.541L155.867 214.695L67.4424 215.766L70.6539 227.541Z" fill="#68C0FF"/>
<path opacity="0.42" d="M69.1551 267.793L74.9359 269.077L171.282 269.934L164.003 275.715L59.5204 303.762L57.8076 284.279L59.7345 267.365L69.1551 267.793Z" fill="#68C0FF"/>
<path d="M119.469 149.822H38.752L40.0366 132.908L120.111 132.48L119.469 149.822Z" fill="#004345"/>
<path d="M119.469 149.822H70.8672L39.8223 135.906L40.0364 132.908L120.111 132.48L119.469 149.822Z" fill="#129C7A"/>
<path d="M107.479 136.12L107.265 146.182H83.0713V136.334L107.479 136.12Z" fill="#E6E6FF"/>
<path d="M80.7164 136.334L80.9305 146.183H77.0766L76.6484 136.334H80.7164Z" fill="#E6E6FF"/>
<path d="M116.044 132.908H35.3271L36.3977 115.565H116.686L116.044 132.908Z" fill="#2D3368"/>
<path d="M116.045 132.908L102.556 132.694L43.6777 115.78L116.687 115.565L116.045 132.908Z" fill="#2D48B5"/>
<path d="M104.268 119.205L104.054 129.482H79.6465V119.633L104.268 119.205Z" fill="#E6E6FF"/>
<path d="M77.2916 119.633L77.5057 129.482H73.6518L73.2236 119.633H77.2916Z" fill="#E6E6FF"/>
<path d="M25.2644 115.566H104.911L104.483 99.0796L24.6221 98.4373L25.2644 115.566Z" fill="#A8A7C0"/>
<path d="M104.91 115.566L81.7866 115.78L37.0391 98.4373L104.482 99.0796L104.91 115.566Z" fill="#C5C5E2"/>
<path d="M37.0391 101.863L37.2532 112.14H61.6609V102.291L37.0391 101.863Z" fill="#E6E6FF"/>
<path d="M63.8027 102.291V112.14H67.6566L68.0848 102.291H63.8027Z" fill="#E6E6FF"/>
<path d="M116.044 99.2938L118.185 83.6643L113.475 84.0925L34.2568 92.0143L34.4709 93.513L114.76 86.2335L113.047 97.7951H34.685V99.0797L116.044 99.2938Z" fill="url(#paint0_linear)"/>
<path d="M114.117 91.1581C114.117 91.1581 111.12 85.5914 108.336 86.8761C105.553 88.1607 105.339 91.3722 105.339 91.3722L106.195 91.8004C106.195 91.8004 106.838 87.3042 109.193 87.5183C111.548 87.5183 113.047 91.8004 113.047 91.8004C113.047 91.8004 113.689 94.7978 111.12 96.0825C108.765 97.5812 107.266 96.2966 106.838 95.6543C106.409 95.012 106.195 93.085 106.195 93.085H105.339C105.339 93.085 105.339 95.8684 106.409 96.5107C107.48 97.3671 109.621 97.7953 111.334 97.153C112.618 96.7248 113.903 95.012 113.903 95.012L114.117 91.1581Z" fill="#6F7F87"/>
<path d="M108.551 89.873L35.542 94.3692L34.6855 96.082L35.3279 96.9385L108.979 94.3692V92.2282L109.622 90.3012L108.551 89.873Z" fill="white"/>
<path d="M34.2559 314.895L34.47 317.036L37.0392 318.321H35.1123L77.9329 335.021L80.0739 334.379L81.1444 328.598L34.2559 314.895Z" fill="#68C0FF"/>
<path d="M60.3764 262.012L34.2559 314.895L76.4342 332.238L108.978 267.793L60.3764 262.012Z" fill="#FF3C00"/>
<path d="M108.978 267.793L82.6432 279.354L74.7213 331.595L50.5277 321.104L34.2559 314.895L60.3764 262.012L108.978 267.793Z" fill="#BC2800"/>
<path d="M108.977 267.792L110.475 269.291L109.619 270.79L111.546 269.505L112.188 271.004C112.188 271.004 80.5008 334.379 80.0726 334.379C79.6444 334.379 78.3598 334.379 78.3598 334.379L79.6444 332.452L77.5034 334.379L76.2188 332.452L108.977 267.792Z" fill="white"/>
<path d="M101.911 285.135L110.689 268.649L112.83 267.792L101.911 285.135Z" fill="#D1DEE5"/>
<path d="M87.3525 314.895L101.912 286.848V290.702L87.3525 314.895Z" fill="#D1DEE5"/>
<path d="M0 315.11L13.2744 317.251C20.9821 312.969 40.4655 282.566 40.4655 282.566L88.2105 288.989C88.2105 288.989 62.9463 327.742 56.3091 331.167C49.6719 334.593 35.7552 320.676 35.7552 320.676L0 315.11Z" fill="white"/>
<path d="M68.5124 288.989L83.0714 290.916L82.4291 291.558L67.8701 289.417L68.5124 288.989Z" fill="#576C7C"/>
<path d="M66.5847 291.344L81.786 293.485L81.1437 294.128L65.9424 291.987L66.5847 291.344Z" fill="#576C7C"/>
<path d="M69.5825 294.556L80.5018 295.841L79.8595 296.483L69.1543 295.198L69.5825 294.556Z" fill="#576C7C"/>
<path d="M47.9585 294.127L63.3739 296.268L62.7316 296.911L47.5303 294.77L47.9585 294.127Z" fill="#576C7C"/>
<path d="M37.0388 295.198L77.0761 300.764L76.4338 301.407L36.3965 295.84L37.0388 295.198Z" fill="#576C7C"/>
<path d="M35.1111 297.767L75.1483 303.334L74.506 303.976L34.4688 298.196L35.1111 297.767Z" fill="#576C7C"/>
<path d="M33.1853 300.122L73.2226 305.689L72.5802 306.331L32.543 300.765L33.1853 300.122Z" fill="#576C7C"/>
<path d="M31.6863 302.691L71.7235 308.258L71.0812 308.9L31.0439 303.12L31.6863 302.691Z" fill="#576C7C"/>
<path d="M30.1872 305.047L70.2245 310.613L69.5822 311.256L29.5449 305.689L30.1872 305.047Z" fill="#576C7C"/>
<path d="M28.4753 307.616L68.5126 313.183L67.8703 313.825L27.833 308.044L28.4753 307.616Z" fill="#576C7C"/>
<path d="M26.3335 309.971L66.3708 315.538L65.7285 316.18L25.9053 310.614L26.3335 309.971Z" fill="#576C7C"/>
<path d="M24.406 312.326L64.4433 317.893L63.801 318.749L23.7637 312.968L24.406 312.326Z" fill="#576C7C"/>
<path d="M22.4802 314.896L62.5175 320.462L61.8752 321.105L21.8379 315.324L22.4802 314.896Z" fill="#576C7C"/>
<path d="M19.6968 317.037L59.734 322.817L59.0917 323.46L19.2686 317.679L19.6968 317.037Z" fill="#576C7C"/>
<path d="M17.769 319.606L57.8063 325.173L57.164 325.815L17.3408 320.034L17.769 319.606Z" fill="#576C7C"/>
<path d="M15.8432 321.961L55.8805 327.527L55.2382 328.17L15.415 322.603L15.8432 321.961Z" fill="#576C7C"/>
<path d="M13.9155 324.316L53.9528 330.097L53.3105 330.739L13.4873 324.958L13.9155 324.316Z" fill="#576C7C"/>
<path d="M0 315.11C0 315.11 2.14103 320.034 6.6372 323.031C10.9193 325.815 14.559 326.457 14.559 326.457L52.6694 332.452C52.6694 332.452 45.604 329.669 41.536 326.243C37.468 322.817 35.7552 321.105 35.7552 321.105L0 315.11Z" fill="#68C0FF"/>
<path d="M60.8036 0.59198C68.5113 -0.906741 75.1485 6.37275 73.6498 14.0805C71.7228 24.3574 67.6549 45.7677 67.6549 51.1203C67.6549 58.3998 42.1766 40.201 46.4587 17.5061C48.5997 6.58685 54.8087 1.6625 60.8036 0.59198Z" fill="#129C7A"/>
<path d="M45.8173 47.909C45.8173 47.909 24.407 44.2693 16.4852 32.2795C8.5634 20.2897 29.7596 8.51406 35.5404 14.7231C41.5353 21.1461 49.4571 45.5539 45.8173 47.909Z" fill="#129C7A"/>
<path d="M44.7472 60.1128C44.7472 60.1128 27.619 64.6089 28.4754 57.3294C29.3318 49.8358 37.0395 48.9794 41.3216 50.9063C45.6037 52.8333 46.0319 57.1153 44.7472 60.1128Z" fill="#129C7A"/>
<path d="M82.6436 38.2745C79.6461 42.7706 72.5807 38.9168 74.5077 33.9924C77.9333 24.5719 82.6436 14.0808 86.7115 14.0808C93.777 14.0808 85.8551 33.3501 82.6436 38.2745Z" fill="#129C7A"/>
<path d="M66.1564 88.8026C66.1564 88.8026 66.1564 83.8782 57.3782 66.1076C48.5999 48.3371 31.6858 32.0652 31.6858 32.0652L31.4717 28.8537C31.4717 28.8537 49.4563 47.2666 56.7358 57.7576C64.0154 68.2487 67.0128 71.2461 67.0128 71.2461L57.3782 14.5088C57.3782 14.5088 67.8692 52.405 71.0807 65.2512C75.1487 81.0948 74.0782 87.9462 74.0782 87.9462L66.1564 88.8026Z" fill="#129C7A"/>
<path d="M66.3721 52.1906C66.1579 52.1906 65.9438 52.1906 65.7297 51.9765C65.7297 51.9765 59.949 41.2713 60.3772 27.5687C60.8054 14.0803 67.0144 4.44561 67.0144 4.44561C67.2285 4.2315 67.4426 4.0174 67.8708 4.23151C68.0849 4.44561 68.299 4.65972 68.0849 5.08792C68.0849 5.08792 62.09 14.5085 61.6618 27.5687C61.2336 40.8431 66.8003 51.3342 66.8003 51.3342C66.8003 51.5483 66.8003 51.9765 66.3721 52.1906Z" fill="white"/>
<path d="M64.4442 48.979L64.0159 48.1226C64.0159 48.1226 60.8044 39.1302 55.88 34.6341C52.2403 31.2084 47.7441 30.9943 47.53 30.9943C47.3159 30.9943 46.8877 30.7802 46.8877 30.352C46.8877 30.1379 47.1018 29.7097 47.53 29.7097C47.7441 29.7097 52.6685 29.9238 56.5223 33.7777C60.8044 37.8456 63.5877 44.4828 64.4442 46.838L67.6557 42.9841C67.8698 42.77 68.298 42.77 68.5121 42.9841C68.7262 43.1982 68.7262 43.6264 68.5121 43.8405L64.4442 48.979Z" fill="white"/>
<path d="M61.2326 31.2088C61.0185 31.2088 60.5903 30.9947 60.5903 30.7806C60.5903 30.7806 58.4493 22.4305 54.5954 20.9318C50.7416 19.219 47.7441 19.6472 47.53 19.6472C47.3159 19.6472 46.8877 19.4331 46.8877 19.219C46.8877 19.0049 47.1018 18.5767 47.3159 18.5767C47.53 18.5767 50.7416 18.3626 54.8095 20.0754C59.0916 21.7882 61.2326 30.3524 61.4467 30.5665C61.6608 30.7806 61.4467 31.2088 61.2326 31.2088Z" fill="white"/>
<path d="M61.6612 21.3598C61.233 21.3598 61.0189 21.1457 61.0189 20.7175C61.0189 20.7175 61.0189 15.7932 58.8779 12.7957C56.7368 9.79828 51.5984 9.58418 51.5984 9.58418C51.3843 9.58418 50.9561 9.37007 50.9561 8.94186C50.9561 8.72776 51.1702 8.29956 51.5984 8.29956C51.8125 8.29956 57.3791 8.51366 59.7343 11.9393C62.3035 15.365 62.0894 20.5034 62.0894 20.7175C62.0894 21.1457 61.8753 21.3598 61.6612 21.3598Z" fill="white"/>
<path d="M64.0166 13.4381C63.5884 13.4381 63.3743 13.224 63.3743 13.0099C63.3743 13.0099 62.732 9.156 61.2332 6.80087C59.9486 4.65984 57.3794 4.01754 57.3794 4.01754C57.1653 4.01754 56.9512 3.58932 56.9512 3.37522C56.9512 3.16112 57.3794 2.94702 57.5935 2.94702C57.8076 2.94702 60.5909 3.58933 62.0896 6.37267C63.5884 8.94191 64.2307 12.7958 64.2307 13.0099C64.4448 13.0099 64.2307 13.224 64.0166 13.4381Z" fill="white"/>
<path d="M61.6613 33.9921C61.4472 33.9921 61.2331 33.9921 61.019 33.778C60.8049 33.5639 60.8049 33.1357 61.019 32.9216L68.5126 26.0702C68.7267 25.8561 69.1549 25.8561 69.369 26.0702C69.5831 26.2843 69.5831 26.7126 69.369 26.9267L61.8754 33.778C61.8754 33.9921 61.8754 33.9921 61.6613 33.9921Z" fill="white"/>
<path d="M62.0894 20.7174C61.8753 20.7174 61.6612 20.7174 61.4471 20.5033C61.233 20.2892 61.4471 19.861 61.6612 19.6469L70.4394 15.3648C70.6535 15.1507 71.0817 15.3648 71.2958 15.5789C71.5099 15.793 71.2958 16.2212 71.0817 16.4353L62.0894 20.7174Z" fill="white"/>
<path d="M32.7565 29.9245L17.3411 28.2116C17.1269 28.2116 16.6987 27.9975 16.9128 27.5693C16.9128 27.3552 17.1269 26.927 17.5552 27.1411L32.7565 28.8539C32.9706 28.8539 33.3988 29.0681 33.1847 29.4963C33.1847 29.7104 32.9706 29.9245 32.7565 29.9245Z" fill="white"/>
<path d="M37.2539 37.2033L26.3347 38.4879C26.1206 38.4879 25.6924 38.2738 25.6924 38.0597C25.6924 37.8456 25.9065 37.4174 26.1206 37.4174L37.0398 36.1328C37.254 36.1328 37.6822 36.3469 37.6822 36.561C37.8963 36.7751 37.6822 36.9892 37.2539 37.2033Z" fill="white"/>
<path d="M35.1128 44.0551C34.8987 44.0551 34.6846 44.0551 34.4705 43.841C34.2564 43.6269 34.4705 43.1987 34.6846 42.9846L41.1077 39.773C41.3218 39.5589 41.75 39.773 41.9641 39.9871C42.1782 40.2012 41.9641 40.6294 41.75 40.8435L35.1128 44.0551C35.3269 44.0551 35.3269 44.0551 35.1128 44.0551Z" fill="white"/>
<path d="M41.3208 45.9816C41.1067 45.9816 40.8926 45.9817 40.6785 45.7675C40.4644 45.5534 40.6785 45.1252 40.8926 44.9111L43.8901 43.1983C44.1042 42.9842 44.5324 43.1983 44.7465 43.4124C44.9606 43.6265 44.7465 44.0547 44.5324 44.2688L41.3208 45.9816C41.3208 45.7675 41.3208 45.9816 41.3208 45.9816Z" fill="white"/>
<path d="M46.4602 47.0521C46.2461 47.0521 46.032 47.0521 45.8179 46.838C45.8179 46.838 40.8935 39.9866 37.0397 35.7046C32.9717 31.2084 27.6191 23.5007 27.6191 23.5007C27.405 23.2866 27.405 22.8584 27.8333 22.6443C28.0474 22.4302 28.4756 22.4302 28.6897 22.8584C28.6897 22.8584 34.0422 30.5661 37.8961 34.8482C41.9641 39.3444 46.8884 45.9815 46.8884 46.1956C47.1025 46.4097 47.1025 46.838 46.6743 47.0521C46.6743 46.838 46.6743 47.0521 46.4602 47.0521Z" fill="white"/>
<path d="M779 197C779 197 780.027 172.634 786.532 157.946C793.036 143.258 815.118 137.382 815.973 146.023C816.829 154.49 796.802 155.181 792.009 158.292C787.387 161.229 784.306 174.535 781.91 182.83C779.342 191.125 779 197 779 197Z" fill="#C5FFF4"/>
<path d="M774.352 190.309C773.503 186.334 777.75 154.532 773.503 146.928C769.255 139.323 753.964 136.904 753.115 128.953C752.265 120.83 756.003 115.645 768.406 121.522C780.808 127.398 779.449 155.224 778.26 164.73C777.07 174.235 776.391 191 776.391 191L774.352 190.309Z" fill="#C5FFF4"/>
<path d="M788 186.659C788 186.659 790.427 168.766 803.774 162.12C816.947 155.474 828.561 166.21 826.828 170.3C825.094 174.39 810.187 166.721 802.56 168.766C794.934 170.811 789.56 187 789.56 187L788 186.659Z" fill="#C5FFF4"/>
<path d="M775.97 185C775.794 185 775.618 184.825 775.618 184.65C775.618 184.299 778.959 154.864 777.024 145.578C775.794 139.445 771.046 136.116 767.178 133.313C765.244 131.911 763.661 130.86 762.782 129.633C762.606 129.283 762.079 128.407 762.606 128.056C763.837 127.18 769.991 131.561 772.453 134.364C772.805 134.89 773.332 135.065 773.332 134.89C773.86 134.364 773.86 131.035 770.87 127.005C768.233 123.501 761.903 121.048 758.386 122.275C756.452 122.975 755.573 124.903 755.749 127.531C756.804 136.642 773.156 140.496 773.332 140.496C773.508 140.496 773.684 140.672 773.508 140.847C773.508 141.022 773.332 141.197 773.156 141.022C772.453 140.847 756.1 136.992 755.045 127.356C754.694 123.501 756.452 121.924 758.035 121.398C761.903 119.997 768.585 122.45 771.222 126.304C773.86 130.159 774.739 134.014 773.508 135.065C773.156 135.24 772.629 135.591 771.574 134.364C768.76 131.21 763.485 127.881 762.606 128.232C762.606 128.232 762.606 128.407 762.958 128.933C763.661 129.984 765.244 131.21 767.178 132.437C770.87 135.065 775.97 138.744 777.376 145.052C779.31 154.338 776.145 183.073 775.97 184.299C776.321 184.825 776.145 185 775.97 185Z" fill="white"/>
<path d="M780.346 185C780.173 185 780 184.828 780 184.656C780.173 183.794 784.15 162.264 787.781 158.13C790.029 155.547 795.736 153.997 801.269 152.446C804.554 151.585 807.84 150.724 809.915 149.691C812.163 148.657 813.373 147.107 813.027 146.073C812.682 144.868 810.088 144.007 804.382 145.212C800.577 145.901 797.984 147.451 796.773 149.518C795.563 151.585 795.908 153.48 795.908 153.48C795.908 153.652 795.909 153.824 795.736 153.824C795.563 153.824 795.39 153.824 795.39 153.652C795.39 153.48 794.871 151.413 796.254 149.174C797.638 146.935 800.404 145.384 804.382 144.523C809.569 143.49 813.2 144.007 813.892 145.901C814.411 147.279 813.027 149.002 810.434 150.379C808.186 151.413 805.073 152.274 801.615 153.308C796.254 154.858 790.548 156.236 788.473 158.819C785.015 162.781 780.865 184.828 780.865 185C780.692 185 780.519 185 780.346 185Z" fill="white"/>
<path d="M789.345 184.828C789.345 184.828 789.172 184.828 789.345 184.828C789 184.828 789 184.656 789 184.485C789.172 183.797 793.137 169.196 800.033 166.791C803.998 165.416 810.894 167.306 816.238 168.852C819.858 169.883 823.478 170.914 824.34 170.226C824.685 170.055 824.685 169.539 824.512 169.024C823.65 166.447 818.306 162.153 813.307 161.637C808.997 161.122 806.067 162.324 805.722 163.183C805.549 163.527 806.067 163.87 806.411 164.042C807.446 164.557 809.342 164.558 811.238 164.386C813.479 164.214 815.72 164.214 817.444 165.073C820.72 166.619 821.409 167.993 821.409 167.993C821.582 168.165 821.409 168.337 821.237 168.509C821.065 168.68 820.892 168.509 820.72 168.337C820.72 168.337 820.03 167.134 816.927 165.76C815.376 164.901 813.135 165.073 811.066 165.245C808.997 165.416 807.273 165.416 805.894 164.729C804.688 164.214 804.86 163.355 804.86 163.183C805.205 161.809 808.48 160.606 813.135 161.122C818.479 161.637 823.995 166.275 824.857 169.024C825.202 170.055 824.857 170.57 824.512 170.914C823.478 171.772 820.72 171.085 815.893 169.711C810.549 168.165 803.826 166.275 800.033 167.65C793.482 169.883 789.345 184.828 789.345 185C789.517 184.828 789.517 184.828 789.345 184.828Z" fill="white"/>
<path d="M245.947 73.4556C263.591 73.4556 277.894 59.0266 277.894 41.2277C277.894 23.4287 263.591 8.99976 245.947 8.99976C228.303 8.99976 214 23.4287 214 41.2277C214 59.0266 228.303 73.4556 245.947 73.4556Z" fill="#122861"/>
<path d="M245.945 66.8426C259.981 66.8426 271.359 55.3743 271.359 41.2276C271.359 27.0808 259.981 15.6125 245.945 15.6125C231.91 15.6125 220.531 27.0808 220.531 41.2276C220.531 55.3743 231.91 66.8426 245.945 66.8426Z" fill="white"/>
<path d="M246.424 42.4222L245.069 39.793L261.521 31.1484L262.875 33.7777L246.424 42.4222Z" fill="#B6C1D3"/>
<path d="M257.578 62.1816L256.343 62.819L245.229 41.2275L246.464 40.5901L257.578 62.1816Z" fill="#B6C1D3"/>
<path d="M247.978 41.2277C247.978 42.3431 247.062 43.2594 245.947 43.2594C244.831 43.2594 243.915 42.3431 243.915 41.2277C243.915 40.1123 244.831 39.196 245.947 39.196C247.062 39.196 247.978 40.1123 247.978 41.2277Z" fill="#A3ACBC"/>
<path d="M246.942 16.8069H244.91V21.1092H246.942V16.8069Z" fill="#B6C1D3"/>
<path d="M246.942 61.7427H244.91V66.045H246.942V61.7427Z" fill="#B6C1D3"/>
<path d="M270.365 40.3896H266.103V42.4213H270.365V40.3896Z" fill="#B6C1D3"/>
<path d="M225.791 40.3901H221.528V42.4218H225.791V40.3901Z" fill="#B6C1D3"/>
<path d="M260.923 27.7625L259.489 26.3284L262.477 23.3008L263.911 24.7349L260.923 27.7625Z" fill="#B6C1D3"/>
<path d="M229.375 59.5523L227.941 58.1182L230.969 55.0906L232.403 56.5247L229.375 59.5523Z" fill="#B6C1D3"/>
<path d="M259.489 56.5245L260.923 55.0903L263.911 58.1179L262.477 59.552L259.489 56.5245Z" fill="#B6C1D3"/>
<path d="M227.941 24.7354L229.375 23.3013L232.403 26.3289L230.969 27.763L227.941 24.7354Z" fill="#B6C1D3"/>
<path d="M829.818 103.644H664.905V111.014H829.818V103.644Z" fill="#DB9257"/>
<path d="M820.217 49.3862H798.667V103.445H820.217V49.3862Z" fill="#7878F0"/>
<path d="M820.217 91.9316H798.667V94.76H820.217V91.9316Z" fill="#7070CC"/>
<path d="M820.217 51.8555H798.667V54.6839H820.217V51.8555Z" fill="#7070CC"/>
<path d="M815.239 62.612C815.239 65.5201 812.889 67.8704 810.021 67.8704C807.153 67.8704 804.803 65.5201 804.803 62.612C804.803 59.7039 807.153 57.3535 810.021 57.3535C812.889 57.3137 815.239 59.7039 815.239 62.612Z" fill="#7070CC"/>
<path d="M810.021 66.3164C812.067 66.3164 813.726 64.6577 813.726 62.6116C813.726 60.5654 812.067 58.9067 810.021 58.9067C807.975 58.9067 806.316 60.5654 806.316 62.6116C806.316 64.6577 807.975 66.3164 810.021 66.3164Z" fill="#7878F0"/>
<path d="M798.707 49.3862H776.002V103.445H798.707V49.3862Z" fill="#363683"/>
<path d="M798.707 91.9316H776.002V94.76H798.707V91.9316Z" fill="#323270"/>
<path d="M798.707 51.8555H776.002V54.6839H798.707V51.8555Z" fill="#323270"/>
<path d="M798.668 49.386H796.517V103.444H798.668V49.386Z" fill="#5555E7"/>
<path d="M792.533 62.6117C792.533 65.5198 790.183 67.8702 787.315 67.8702C784.447 67.8702 782.097 65.5198 782.097 62.6117C782.097 59.7036 784.447 57.3533 787.315 57.3533C790.183 57.3533 792.533 59.7036 792.533 62.6117Z" fill="#323270"/>
<path d="M787.315 66.3164C789.361 66.3164 791.019 64.6577 791.019 62.6116C791.019 60.5654 789.361 58.9067 787.315 58.9067C785.269 58.9067 783.61 60.5654 783.61 62.6116C783.61 64.6577 785.269 66.3164 787.315 66.3164Z" fill="#363683"/>
<path d="M776.003 49.3865H753.298V103.445H776.003V49.3865Z" fill="#7878F0"/>
<path d="M776.002 91.9316H753.297V94.76H776.002V91.9316Z" fill="#7070CC"/>
<path d="M776.002 51.8555H753.297V54.6839H776.002V51.8555Z" fill="#7070CC"/>
<path d="M775.963 49.386H773.812V103.444H775.963V49.386Z" fill="#5555E7"/>
<path d="M769.867 62.6117C769.867 65.5198 767.517 67.8702 764.649 67.8702C761.781 67.8702 759.431 65.5198 759.431 62.6117C759.431 59.7036 761.781 57.3533 764.649 57.3533C767.517 57.3134 769.867 59.7036 769.867 62.6117Z" fill="#7070CC"/>
<path d="M764.649 66.3164C766.695 66.3164 768.353 64.6577 768.353 62.6116C768.353 60.5654 766.695 58.9067 764.649 58.9067C762.603 58.9067 760.944 60.5654 760.944 62.6116C760.944 64.6577 762.603 66.3164 764.649 66.3164Z" fill="#EFF2F7"/>
<path d="M753.338 49.3865H730.633V103.445H753.338V49.3865Z" fill="#363683"/>
<path d="M753.338 91.9316H730.633V94.76H753.338V91.9316Z" fill="#323270"/>
<path d="M753.338 51.8555H730.633V54.6839H753.338V51.8555Z" fill="#323270"/>
<path d="M753.299 49.386H751.147V103.444H753.299V49.386Z" fill="#5555E7"/>
<path d="M747.164 62.6117C747.164 65.5198 744.814 67.8702 741.946 67.8702C739.078 67.8702 736.728 65.5198 736.728 62.6117C736.728 59.7036 739.078 57.3533 741.946 57.3533C744.854 57.3134 747.164 59.7036 747.164 62.6117Z" fill="#323270"/>
<path d="M741.946 66.3164C743.992 66.3164 745.65 64.6577 745.65 62.6116C745.65 60.5654 743.992 58.9067 741.946 58.9067C739.9 58.9067 738.241 60.5654 738.241 62.6116C738.241 64.6577 739.9 66.3164 741.946 66.3164Z" fill="#EFF2F7"/>
<path d="M606.63 19.9868H379.417V169.494H606.63V19.9868Z" fill="#122861"/>
<path d="M601.292 40.7419H384.755V162.881H601.292V40.7419Z" fill="white"/>
<path d="M601.294 140.134H567.674V116.232H601.294V114.957H567.674V91.0554H601.294V89.7807H567.674V65.8786H601.294V64.6039H567.674V40.7815H566.399V64.6039H530.628V40.7815H529.353V64.6039H493.583V40.7815H492.308V64.6039H456.537V40.7815H455.262V64.6039H419.491V40.7815H418.217V64.6039H384.637V65.8786H418.217V89.7807H384.637V91.0554H418.217V114.957H384.637V116.232H418.217V140.134H384.637V141.409H418.217V162.642H419.491V141.409H455.262V162.642H456.537V141.409H492.308V162.642H493.583V141.409H529.353V162.642H530.628V141.409H566.399V162.642H567.674V141.409H601.294V140.134ZM492.388 114.918H456.617V91.0156H492.388V114.918ZM493.662 91.0156H529.433V114.918H493.662V91.0156ZM530.668 114.918V91.0156H566.439V114.918H530.668ZM530.668 89.7408V65.8388H566.439V89.7408H530.668ZM529.393 89.7408H493.622V65.8388H529.393V89.7408ZM492.388 89.7408H456.617V65.8388H492.388V89.7408ZM455.382 89.7408H419.611V65.8388H455.382V89.7408ZM455.382 91.0156V114.918H419.611V91.0156H455.382ZM455.382 116.232V140.134H419.611V116.232H455.382ZM456.617 116.232H492.388V140.134H456.617V116.232ZM493.662 116.232H529.433V140.134H493.662V116.232ZM530.668 116.232H566.439V140.134H530.668V116.232Z" fill="#75CDFF"/>
<path d="M471.713 83.9246L460.081 85.7969L457.253 68.0696L468.845 66.1973L471.713 83.9246Z" fill="#EEBD5E"/>
<path d="M449.286 111.532L437.654 109.859L440.124 92.0916L451.795 93.7647L449.286 111.532Z" fill="#E58876"/>
<path d="M452.752 111.97L441.001 111.134L442.276 93.207L453.987 94.0436L452.752 111.97Z" fill="#4747CA"/>
<path d="M436.657 219.21C436.657 219.21 426.977 308.006 424.348 340.473C423.99 344.816 431.479 345.971 432.156 341.668C436.697 313.862 451.236 219.21 451.236 219.21H436.657Z" fill="#F5DBAF"/>
<path d="M776.96 219.21C776.96 219.21 785.444 297.011 787.755 325.455C788.073 329.279 781.501 330.275 780.903 326.53C776.92 302.19 764.173 219.25 764.173 219.25H776.96V219.21Z" fill="#DB9257"/>
<path d="M791.856 219.21C791.856 219.21 801.535 308.006 804.164 340.473C804.523 344.816 797.034 345.971 796.357 341.668C791.816 313.862 777.276 219.21 777.276 219.21H791.856Z" fill="#F5DBAF"/>
<path d="M796.277 224.111H433.669C430.562 224.111 428.092 221.601 428.092 218.533V209.251H801.894V218.533C801.894 221.601 799.384 224.111 796.277 224.111Z" fill="#F5DBAF"/>
<path d="M821.254 207.698H408.694V213.952H821.254V207.698Z" fill="#FBD493"/>
<path d="M428.452 196.384L408.694 207.697H821.294L803.05 196.384H428.452Z" fill="#F5DBAF"/>
<path d="M797.752 184.394L797.433 189.373L797.274 191.724L796.796 199.133C796.557 202.44 771.183 202.758 770.904 199.452L770.306 192.082L770.107 189.692L769.669 184.394H797.752Z" fill="#B3594F"/>
<path d="M783.731 186.146C791.475 186.146 797.753 185.361 797.753 184.393C797.753 183.425 791.475 182.64 783.731 182.64C775.988 182.64 769.71 183.425 769.71 184.393C769.71 185.361 775.988 186.146 783.731 186.146Z" fill="#CC7773"/>
<path d="M794.485 184.393C794.485 184.991 789.666 185.469 783.69 185.469C777.715 185.469 772.896 184.991 772.896 184.393C772.896 183.796 777.715 183.318 783.69 183.318C789.666 183.318 794.485 183.796 794.485 184.393Z" fill="#3C2F1B"/>
<path d="M797.434 189.373L797.274 191.723C794.725 192.6 790.224 193.636 783.332 193.636C776.68 193.636 772.577 192.799 770.307 192.082L770.107 189.692C771.82 190.369 775.764 191.484 783.332 191.484C790.861 191.445 795.402 190.13 797.434 189.373Z" fill="#D9BBE6"/>
<path d="M335.308 284.503H331.922V281.077C331.922 280.32 331.285 279.683 330.528 279.683C329.771 279.683 329.134 280.32 329.134 281.077V284.503H325.748C324.991 284.503 324.354 285.14 324.354 285.897C324.354 286.654 324.991 287.291 325.748 287.291H329.134V290.717C329.134 291.474 329.771 292.112 330.528 292.112C331.285 292.112 331.922 291.474 331.922 290.717V287.291H335.308C336.065 287.291 336.702 286.654 336.702 285.897C336.702 285.14 336.065 284.503 335.308 284.503Z" fill="white"/>
<path d="M693.954 127.82H690.568V124.394C690.568 123.637 689.931 123 689.174 123C688.417 123 687.78 123.637 687.78 124.394V127.82H684.394C683.637 127.82 683 128.458 683 129.215C683 129.971 683.637 130.609 684.394 130.609H687.78V134.035C687.78 134.792 688.417 135.429 689.174 135.429C689.931 135.429 690.568 134.792 690.568 134.035V130.609H693.954C694.711 130.609 695.349 129.971 695.349 129.215C695.349 128.418 694.711 127.82 693.954 127.82Z" fill="white"/>
<path d="M362.954 187.82H359.568V184.394C359.568 183.637 358.931 183 358.174 183C357.417 183 356.78 183.637 356.78 184.394V187.82H353.394C352.637 187.82 352 188.458 352 189.215C352 189.971 352.637 190.609 353.394 190.609H356.78V194.035C356.78 194.792 357.417 195.429 358.174 195.429C358.931 195.429 359.568 194.792 359.568 194.035V190.609H362.954C363.711 190.609 364.349 189.971 364.349 189.215C364.349 188.458 363.711 187.82 362.954 187.82Z" fill="white"/>
<path d="M536.08 284.9H490.868V361.028H536.08V284.9Z" fill="#0298AC"/>
<path d="M491.067 284.901H445.855V361.029H491.067V284.901Z" fill="#C0FFF9"/>
<path d="M487.005 212.916L481.548 239.208L498.557 241.399C498.557 241.399 500.031 214.071 498.557 213.952C497.083 213.792 487.005 212.916 487.005 212.916Z" fill="#DCA992"/>
<path d="M502.898 186.544C502.898 186.544 485.929 188.974 482.861 215.027C482.861 215.027 488.279 220.883 495.17 219.09L502.898 186.544Z" fill="#430DDD"/>
<path d="M510.268 185.628C510.268 185.628 526.799 183.955 532.655 195.746C538.471 207.498 521.461 219.768 527.317 246.698L490.63 244.746V221.003C490.63 221.003 483.938 211.163 493.418 200.646C493.418 200.606 493.976 184.592 510.268 185.628Z" fill="#430DDD"/>
<path d="M455.696 250.481C455.696 250.481 443.786 246.06 440.599 257.652C437.412 269.284 424.147 345.293 424.147 345.293H434.783L441.037 315.097C441.037 315.097 449.84 305.217 452.549 284.143L489.634 279.682L455.696 250.481Z" fill="#ECC0AA"/>
<path d="M480.034 278.288C480.034 278.288 473.74 278.129 462.547 274.504C451.354 270.918 443.387 274.703 447.769 287.411C452.19 300.119 474.418 358.958 474.418 358.958L482.862 356.408L475.573 318.284C475.573 318.284 473.86 299.362 465.933 288.287C465.933 288.287 482.584 289.124 488.24 288.247C493.936 287.451 480.034 278.288 480.034 278.288Z" fill="#DCA992"/>
<path d="M527.316 246.658C527.316 246.658 540.78 263.708 524.568 280.439C524.568 280.439 516.243 290.199 479.516 288.686C479.516 288.686 469.876 255.9 449.401 247.096L491.785 241.36L527.316 246.658Z" fill="#1F3041"/>
<path d="M509.391 142.086C509.391 142.086 505.009 124.12 520.186 124C531.419 123.92 534.765 137.465 520.983 146.508L509.391 142.086Z" fill="#1D1511"/>
<path d="M521.462 149.775C521.462 149.775 524.21 142.723 516.403 139.138C508.595 135.553 506.086 144.038 506.086 144.038L521.462 149.775Z" fill="#DC6C74"/>
<path d="M491.746 165.869C491.746 165.869 480.472 159.136 492.662 145.592C500.27 137.146 513.654 137.624 521.103 145.99C528.552 154.396 521.541 169.175 521.541 169.175L516.482 160.69L512.061 154.117L505.727 151.567L500.748 151.926L496.526 152.483L493.14 153.918L491.746 165.869Z" fill="#281C14"/>
<path d="M503.537 191.444L516.244 189.811L513.655 169.614L500.987 171.287L503.537 191.444Z" fill="#ECC0AA"/>
<path d="M515.008 175.629C515.008 175.629 513.614 182.959 507.798 184.433C505.966 184.911 503.974 184.353 502.899 182.839C502.58 182.441 502.381 181.963 502.301 181.405C502.022 179.294 507.559 175.589 507.559 175.589L515.008 175.629Z" fill="#DCA992"/>
<path d="M506.046 180.848L506.683 180.768C513.973 179.812 519.111 173.119 518.195 165.749L517.438 159.933C516.522 152.603 509.83 147.385 502.54 148.341L501.903 148.42C494.613 149.377 489.475 156.069 490.391 163.439L491.148 169.255C492.104 176.625 498.756 181.804 506.046 180.848Z" fill="#ECC0AA"/>
<path d="M516.802 164.315C516.802 164.315 507.68 161.327 507.879 150.97C507.879 150.97 507.282 143.241 515.288 150.372C523.295 157.543 516.802 164.315 516.802 164.315Z" fill="#281C14"/>
<path d="M514.77 167.144C515.089 169.614 517.319 171.366 519.789 171.048C522.259 170.729 523.972 168.458 523.653 165.989C523.334 163.519 521.104 161.766 518.634 162.085C516.204 162.403 514.451 164.674 514.77 167.144Z" fill="#ECC0AA"/>
<path d="M511.861 159.136L512.26 162.403C513.176 167.024 515.128 165.629 515.845 163.638L511.861 159.136Z" fill="#281C14"/>
<path d="M489.036 157.463C489.036 157.463 498.357 164.514 512.02 154.077C521.461 146.867 507.2 144.277 507.2 144.277L493.896 147.026L489.036 157.463Z" fill="#281C14"/>
<path d="M516.243 189.811C516.243 189.811 508.276 204.192 502.58 199.77C496.485 194.989 510.268 185.628 510.268 185.628L516.243 189.811Z" fill="#ECC0AA"/>
<path d="M512.699 219.05C512.699 219.05 507.759 228.213 504.373 235.423L468.403 233.312C468.403 233.312 461.273 227.416 455.696 232.396L461.193 239.088L506.206 249.127C507.919 249.525 509.711 249.008 510.986 247.812C514.969 244.028 523.613 235.184 527.836 226.141L512.699 219.05Z" fill="#ECC0AA"/>
<path d="M412.914 204.908H457.089C458.523 204.908 459.798 205.944 460.117 207.378L468.442 246.737C468.84 248.649 467.406 250.481 465.415 250.481H420.482C419.008 250.481 417.733 249.446 417.455 247.972L409.886 208.613C409.528 206.701 410.962 204.908 412.914 204.908Z" fill="#ADADAD"/>
<path d="M410.364 204.908H454.54C455.974 204.908 457.248 205.944 457.567 207.378L465.892 246.737C466.291 248.649 464.857 250.481 462.865 250.481H417.932C416.458 250.481 415.184 249.445 414.905 247.971L407.336 208.613C406.978 206.701 408.412 204.908 410.364 204.908Z" fill="#1F3041"/>
<path d="M467.247 247.135H497.441C498.357 247.135 499.114 247.892 499.114 248.808C499.114 249.725 498.357 250.482 497.441 250.482H466.649L467.247 247.135Z" fill="#ADADAD"/>
<path d="M437.73 226.659C437.73 229.328 435.579 231.519 432.91 231.519C430.241 231.519 428.09 229.328 428.09 226.659C428.09 223.99 430.241 221.799 432.91 221.799C435.579 221.799 437.73 223.99 437.73 226.659Z" fill="white"/>
<path d="M527.875 190.009C528.473 190.288 548.27 200.088 528.791 230.484C528.791 230.484 516.363 230.683 509.113 221.321C509.153 221.361 511.543 182.759 527.875 190.009Z" fill="#430DDD"/>
<path d="M485.132 354.775C484.854 353.978 484.017 353.699 483.42 354.217C482.264 355.253 480.233 356.488 477.245 356.169C474.098 355.85 472.943 353.978 472.505 352.663C472.266 351.946 471.589 351.588 470.991 351.906L451.991 361.547C450.835 362.144 449.919 363.22 449.481 364.574C449.043 365.849 449.919 367.204 451.074 367.204L483.898 366.287C485.172 366.248 486.168 364.973 486.088 363.499L485.531 356.209C485.531 356.089 485.491 355.97 485.451 355.85L485.132 354.775Z" fill="#4747CA"/>
<path d="M437.252 342.186C437.212 341.35 436.455 340.832 435.778 341.19C434.424 341.867 432.114 342.545 429.285 341.429C426.338 340.314 425.7 338.202 425.621 336.768C425.581 336.011 425.023 335.494 424.386 335.653L403.553 339.915C402.278 340.194 401.123 340.991 400.366 342.186C399.609 343.302 400.087 344.855 401.242 345.134L433.149 352.902C434.424 353.221 435.699 352.225 435.977 350.791L437.332 343.62C437.372 343.501 437.372 343.381 437.372 343.262L437.252 342.186Z" fill="#4747CA"/>
<path d="M224.889 312.388L228.673 329.717L240.703 327.924L236.839 310.794L224.889 312.388Z" fill="#EBC5A4"/>
<path d="M170.912 310.834L170.793 328.601L182.902 329.478L182.942 311.949L170.912 310.834Z" fill="#EBC5A4"/>
<path d="M227.158 326.888C227.397 326.171 228.313 325.852 228.95 326.331C230.185 327.207 232.376 328.283 235.563 327.924C238.869 327.526 240.024 325.773 240.462 324.578C240.701 323.94 241.379 323.582 242.016 323.821L262.411 331.987C263.646 332.465 264.642 333.461 265.16 334.696C265.638 335.852 264.801 337.126 263.566 337.126L228.911 337.365C227.556 337.365 226.441 336.25 226.521 334.895L226.839 328.203C226.839 328.083 226.879 327.964 226.919 327.884L227.158 326.888Z" fill="#141414"/>
<path d="M184.138 326.888C183.899 326.171 182.983 325.852 182.346 326.331C181.111 327.207 178.92 328.283 175.733 327.924C172.427 327.526 171.272 325.773 170.834 324.578C170.595 323.94 169.917 323.582 169.28 323.821L148.885 331.948C147.65 332.426 146.654 333.421 146.136 334.656C145.658 335.812 146.495 337.086 147.73 337.086L182.385 337.325C183.74 337.325 184.855 336.21 184.775 334.856L184.457 328.163C184.457 328.044 184.417 327.924 184.377 327.844L184.138 326.888Z" fill="#141414"/>
<path d="M184.297 87.9875L195.052 88.9436L212.181 98.5443L214.5 174L190 185.5L166.491 175.5V98.5443L184.297 87.9875Z" fill="#00D19E"/>
<path d="M184.258 94.8793H193.3C194.854 94.8793 196.129 93.6045 196.129 92.0509V77.5105H181.47V92.0907C181.43 93.6444 182.705 94.8793 184.258 94.8793Z" fill="#EBC5A4"/>
<path d="M196.127 83.4063C196.127 83.4063 193.857 87.9876 188.639 87.9876C183.46 87.9876 181.429 83.3267 181.429 83.3267L196.127 83.4063Z" fill="#E3BA97"/>
<path d="M188.639 85.3187H189.117C196.606 85.3187 202.74 79.4229 203.059 71.9734L203.338 64.5638C203.656 56.6761 197.323 50.103 189.396 50.103H188.4C182.425 50.103 174.179 56.6761 174.458 64.5638L174.737 71.9734C174.976 79.4229 181.15 85.3187 188.639 85.3187Z" fill="#EBC5A4"/>
<path d="M198.758 70.1808C198.598 72.6905 200.47 74.8417 202.98 75.0409C205.489 75.2002 207.68 73.3279 207.84 70.8182C207.999 68.3085 206.127 66.1573 203.617 65.9581C201.108 65.7589 198.917 67.6711 198.758 70.1808Z" fill="#EBC5A4"/>
<path d="M169.878 70.1808C169.718 72.6905 171.59 74.8417 174.1 75.0409C176.61 75.2002 178.8 73.3279 178.96 70.8182C179.119 68.3085 177.247 66.1573 174.737 65.9581C172.228 65.7589 170.037 67.6711 169.878 70.1808Z" fill="#EBC5A4"/>
<path d="M214 173.5L238.5 317.367H224.291L183 193.5L214 173.5Z" fill="#141414"/>
<path d="M163.5 179.5L166.491 242.5L170 317.686H184L197.5 175L163.5 179.5Z" fill="#141414"/>
<path d="M211.424 98.8235H212.3C212.3 98.8235 216.642 102.289 237.037 155.75C238.312 159.136 232.416 161.248 228.831 160.73C224.888 160.172 210.229 134.916 210.548 130.932L205.568 115.515C205.568 115.515 207.401 104.44 211.424 98.8235Z" fill="#00D19E"/>
<path d="M204.095 56.0785L203.02 67.4718H201.307L201.068 61.4963C201.068 61.4963 200.152 59.1858 196.129 54.2859C196.129 54.2859 193.499 60.9784 177.247 59.6638L176.291 67.2328L174.618 67.0336L173.742 58.9069C173.144 56.1582 172.945 53.6086 173.423 50.8599C174.419 45.2828 179 42.1755 192.145 46.1193C193.221 46.438 191.03 46.2388 192.145 46.1193C195.929 45.721 205.848 45.6811 204.095 56.0785Z" fill="#312E36"/>
<path d="M180.992 129.777L215.329 149.695C216.644 150.452 217.122 152.045 216.524 153.4L197.205 195.268C196.488 196.822 194.616 197.419 193.142 196.583L160.119 178.138C158.845 177.421 158.287 175.868 158.845 174.513L176.81 131.131C177.487 129.538 179.439 128.9 180.992 129.777Z" fill="#AAAAAA"/>
<path d="M180.076 132.246L214.413 152.165C215.727 152.922 216.205 154.515 215.608 155.87L196.288 197.738C195.571 199.292 193.699 199.889 192.225 199.053L159.242 180.648C157.968 179.931 157.41 178.377 157.968 177.023L175.933 133.641C176.61 132.007 178.562 131.33 180.076 132.246Z" fill="#CDCDCD"/>
<path d="M202.621 179.413C199.156 178.337 197.403 178.537 192.185 175.071C188.361 172.521 183.979 170.45 181.39 168.299L186.01 161.526C190.273 165.152 193.898 166.187 196.527 166.347C199.554 166.586 202.024 166.665 205.21 168.099C207.282 169.016 211.026 169.414 210.429 170.689C209.911 171.844 204.533 170.091 204.334 170.689C203.896 172.083 211.464 174.792 211.305 176.784C211.225 177.979 208.716 180.289 202.621 179.413Z" fill="#EBC5A4"/>
<path d="M284.48 157.622C280.497 158.618 278.903 159.853 271.853 159.534C266.674 159.335 261.217 159.893 257.473 159.335L258.07 150.053C264.284 151.089 268.387 149.894 271.056 148.539C274.123 146.986 276.593 145.592 280.497 145.113C283.046 144.795 286.91 143.002 287.069 144.556C287.229 145.95 281.015 147.424 281.174 148.141C281.532 149.735 290.455 147.902 291.411 149.934C291.969 151.169 290.854 154.913 284.48 157.622Z" fill="#EBC5A4"/>
<path d="M166.492 98.5444C166.492 98.5444 154.263 107.269 153.506 119.698L149.682 148.779C149.443 150.492 148.527 152.444 149.443 153.917C155.617 163.837 190.591 176.067 190.591 176.067L197.562 163.916L168.005 150.292L166.492 98.5444Z" fill="#00D19E"/>
<path d="M193.778 87.9876C195.092 88.9437 201.386 92.4493 201.386 92.4493C201.386 92.4493 201.227 101.293 187.882 100.576C176.171 99.9386 176.211 92.768 176.211 92.768L184.297 87.9478H193.778V87.9876Z" fill="#EBC5A4"/>
<path d="M224.491 155.232C225.486 157.503 226.243 160.012 227.956 160.45C238.393 163.04 249.705 162.203 265.759 161.168C265.918 156.586 266.077 152.005 266.237 147.464C258.389 147.822 248.949 147.543 238.393 145.711C232.975 144.795 228.036 143.56 223.614 142.245C223.893 146.547 224.172 150.89 224.491 155.232Z" fill="#00D19E"/>
<path d="M169.398 150.758L169 150.678L172.824 121L173.222 121.04L172.266 128.33L172.426 128.37L169.398 150.758Z" fill="#141414"/>
<path d="M762.421 67.6715C762.421 67.6715 782.776 54.5254 787.954 72.2129C792.217 86.7533 773.296 83.5664 786.441 100.816C786.441 100.816 768.037 102.29 773.893 77.551C774.212 76.2364 774.092 74.882 773.375 73.7267C772.26 71.934 769.87 70.1016 764.731 71.934L762.421 67.6715Z" fill="#1C213C"/>
<path d="M700.758 157.184L718.564 152.842L720.993 159.893L706.135 163.837L700.758 157.184Z" fill="#EBC4A0"/>
<path d="M713.5 163L752.462 149.656L746.527 135.155L709.5 154L713.5 163Z" fill="#FDD328"/>
<path d="M749.076 96.6726C749.076 96.6726 742.743 96.7921 737.803 110.018L732.426 117.308C730.195 119.977 729.279 123.722 730.036 127.307C731.231 133.083 735.533 140.891 735.373 141.409C735.134 142.206 734.298 163.558 734.298 163.558L762.819 162.244C762.819 162.244 779.43 106.233 761.106 97.8677L749.076 96.6726Z" fill="#FF8200"/>
<path d="M795.164 312.787L805.282 328.243L815.36 323.264L803.967 306.094L795.164 312.787Z" fill="#EBC4A0"/>
<path d="M760.987 177.82L780.944 253.749L808.549 308.205L795.404 317.965L758.438 260.879L745.611 232.436L760.987 177.82Z" fill="#282827"/>
<path d="M727.686 311.671L724.857 340.951L735.852 343.102L738.68 311.671H727.686Z" fill="#EBC4A0"/>
<path d="M734.258 162.044L723.304 327.924H739.795L763.217 200.328C763.217 200.328 778.713 183.795 762.779 162.204L734.258 162.044Z" fill="#3A3938"/>
<path d="M737.684 337.326C737.445 336.688 736.648 336.489 736.13 336.927C735.095 337.764 733.262 338.8 730.514 338.64C727.646 338.441 725.654 337.007 725.216 335.932C724.977 335.374 724.379 335.095 723.822 335.374L707.53 343.5C706.494 343.979 705.657 344.895 705.299 345.97C704.94 347.006 705.737 348.082 706.813 348.002L736.728 346.528C737.923 346.488 738.799 345.413 738.68 344.257L738.082 338.441C738.082 338.362 738.042 338.242 738.003 338.162L737.684 337.326Z" fill="#282827"/>
<path d="M815.559 321.232C815.041 320.794 814.245 320.953 813.966 321.59C813.448 322.825 812.253 324.578 809.744 325.694C807.114 326.849 804.685 326.49 803.808 325.733C803.37 325.335 802.693 325.375 802.334 325.853L791.5 340.593C790.783 341.509 790.464 342.664 790.623 343.819C790.743 344.895 791.938 345.492 792.894 344.935L818.826 329.837C819.861 329.239 820.18 327.924 819.543 326.929L816.396 322.029C816.356 321.949 816.276 321.869 816.197 321.829L815.559 321.232Z" fill="#282827"/>
<path d="M738.958 73.0493C738.958 73.0493 733.66 61.4967 742.304 55.3618C751.227 49.0278 762.381 51.2586 768.475 60.2219C774.57 69.1851 767.041 79.9012 767.041 79.9012L763.217 71.1371L759.792 64.2852L754.016 61.0585L749.196 60.7796H745.093L741.667 61.7357L738.958 73.0493Z" fill="#1C213C"/>
<path d="M747.082 97.6147L759.431 97.6147L759.431 79.4094L747.082 79.4094L747.082 97.6147Z" fill="#EBC4A0"/>
<path d="M759.433 87.7885C759.433 87.7885 757.76 93.047 751.985 93.7242C750.192 93.9234 748.36 93.2063 747.483 91.6129C747.244 91.1746 747.085 90.6966 747.085 90.1787C747.085 88.1072 752.821 85.2788 752.821 85.2788L759.433 87.7885Z" fill="#E2B993"/>
<path d="M751.108 90.7765C758.358 90.7765 764.253 84.8408 764.253 77.5108V70.8979C764.253 63.568 758.358 57.6323 751.108 57.6323C743.858 57.6323 737.963 63.568 737.963 70.8979V77.5108C737.963 84.8408 743.858 90.7765 751.108 90.7765Z" fill="#EBC4A0"/>
<path d="M762.98 75.3594C762.98 75.3594 743.541 71.0969 743.262 61.2174C743.262 61.2174 752.663 55.8792 759.434 63.6872C766.246 71.4952 762.98 75.3594 762.98 75.3594Z" fill="#1C213C"/>
<path d="M764.094 76.3558C764.094 76.3558 760.987 61.1382 747.483 61.6959C747.483 61.6959 739.795 62.0544 737.963 72.8103C737.963 72.8103 735.055 54.9635 752.462 56.9952C767.878 58.748 764.094 76.4753 764.094 76.3558Z" fill="white"/>
<path d="M760.828 77.152C760.828 79.5422 762.78 81.4942 765.13 81.4942C767.52 81.4942 769.432 79.5422 769.432 77.152C769.432 74.7618 767.48 72.8098 765.13 72.8098C762.74 72.8098 760.828 74.722 760.828 77.152Z" fill="#EBC4A0"/>
<path d="M758.238 72.8098L760.947 79.0642L762.262 73.9252L758.238 72.8098Z" fill="#1C213C"/>
<path d="M759.432 97.5885L742.344 106.193C742.344 106.193 745.491 96.6325 749.753 95.6764C755.051 94.4414 759.432 97.5885 759.432 97.5885Z" fill="#EBC4A0"/>
<path d="M773.932 196.782L774.888 188.018C775.088 186.265 773.813 184.712 772.1 184.513L751.625 182.242C749.873 182.043 748.319 183.318 748.12 185.07L747.164 193.834C746.965 195.587 748.24 197.141 749.952 197.34L770.427 199.611C772.18 199.81 773.733 198.535 773.932 196.782Z" fill="#282827"/>
<path d="M762.462 182.083C762.462 182.083 762.86 181.087 762.86 181.047C763.617 179.056 768.477 166.268 769.234 164.276C771.982 165.352 774.691 166.387 777.439 167.463L770.15 182.243L762.462 182.083Z" fill="#EBC4A0"/>
<path d="M775.806 178.418L785.605 142.604C786.083 140.931 785.804 139.099 784.928 137.585L767.918 104.481C766.126 101.453 761.545 97.6686 756.088 101.214C753.1 103.047 751.826 110.058 753.658 113.085L772.699 141.847L763.616 175.031L775.806 178.418Z" fill="#FDD328"/>
<path d="M759.586 121.737L759.254 121.957L768.335 135.675L768.667 135.455L759.586 121.737Z" fill="#4747CA"/>
<path d="M760.587 182.521C759.83 183.596 760.268 184.034 759.034 188.974C758.516 191.125 758.117 192.719 758.277 192.998C759.073 194.591 760.547 191.205 761.463 191.364C762.937 191.643 760.985 198.694 763.136 199.411C764.849 200.009 767.757 198.854 767.917 198.575C770.665 194.273 772.776 183.357 769.39 180.808C767 179.095 762.34 180.091 760.587 182.521Z" fill="#EBC5A4"/>
<path d="M705.577 153.599C704.302 153.28 704.063 153.878 699.004 154.675C696.813 155.033 695.18 155.272 694.981 155.511C693.826 156.866 697.53 156.945 697.729 157.822C698.048 159.296 690.798 160.212 690.958 162.483C691.077 164.315 693.228 166.506 693.587 166.586C698.606 167.462 709.52 165.192 710.556 161.088C711.233 158.22 708.524 154.276 705.577 153.599Z" fill="#EBC5A4"/>
<path d="M646.975 79.8672C646.975 79.8672 651.038 80.1859 651.396 85.8825C651.755 91.5792 651.755 108.032 644.107 109.068C636.459 110.063 641.956 81.9785 641.956 81.9785L646.975 79.8672Z" fill="#23272A"/>
<path d="M620.406 84.9668C620.406 84.9668 617.299 93.6512 623.473 95.2447C629.647 96.8381 628.492 84.2498 628.492 84.2498L620.406 84.9668Z" fill="#23272A"/>
<path d="M670 130L682.029 161.572L682.069 161.612C682.268 161.931 682.428 162.25 682.467 162.608L692 202.5L685.375 203.64L671.5 164.5L670.5 162.608L653.5 143L670 130Z" fill="#EBC5A4"/>
<path d="M623.235 141.614L621 155L611.125 178.901V178.941C610.687 180.296 609.333 181.172 607.978 181.053L568.702 177.906L569.021 173.045L587.5 172.5H602L609.5 141.614L623.235 141.614Z" fill="#EBC5A4"/>
<path d="M616.303 329.365L610.368 345.817L601.724 337.97L607.261 324.784L616.303 329.365Z" fill="#EBC5A4"/>
<path d="M613.834 341.993C613.834 341.196 613.156 340.638 612.439 340.957C611.085 341.555 608.854 342.033 606.225 340.838C603.477 339.603 602.959 337.531 602.959 336.177C602.959 335.46 602.441 334.942 601.843 335.022L581.648 337.969C580.413 338.129 579.258 338.846 578.461 339.961C577.704 340.997 578.063 342.511 579.138 342.829L609.292 352.072C610.487 352.43 611.762 351.594 612.121 350.199L613.834 343.387C613.873 343.268 613.873 343.148 613.873 343.029L613.834 341.993Z" fill="#262A2E"/>
<path d="M695.095 318.171L701.667 331.158L694.019 337.731L685.773 322.194L695.095 318.171Z" fill="#EBC5A4"/>
<path d="M703.062 328.29C702.464 327.772 701.588 327.971 701.389 328.688C700.951 330.082 699.875 332.114 697.286 333.389C694.577 334.703 692.665 333.747 691.669 332.871C691.151 332.393 690.395 332.473 690.076 332.99L679.241 350.399C678.564 351.475 678.365 352.789 678.683 354.144C678.962 355.419 680.317 356.096 681.312 355.498L707.802 338.329C708.838 337.651 709.037 336.098 708.2 334.942L704.177 329.246C704.097 329.166 704.018 329.047 703.938 329.007L703.062 328.29Z" fill="#262A2E"/>
<path d="M622 205.5L648.927 269.092L687.5 329L699 323.5L669.362 261.125L660.5 203L622 205.5Z" fill="#1A2833"/>
<path d="M663.068 197.665C663.068 197.665 670.676 207.561 663.068 222.5L636.698 267.459L615 334.5L604 329.5L617.856 260.368L630.5 207.5L622.955 196.589L663.068 197.665Z" fill="#1F3041"/>
<path d="M640.722 117.115L660.918 121.298C663.308 121.776 665.379 123.17 666.813 125.162L679.639 143.208L662.471 154.522L668.645 203.919C668.645 203.919 638.5 217.5 621.522 206C621.522 206 622.677 167.349 620.247 140.698L621.522 123.13L640.722 117.115Z" fill="#FFB603"/>
<path d="M621.522 123.091L618.176 124.326C615.388 125.361 613.237 127.592 612.321 130.421L605.35 151.932L625.904 155.757L621.522 123.091Z" fill="#FFB603"/>
<path d="M635.025 123.33L637.335 124.604C641.796 124.246 645.979 123.29 645.62 118.788L644.545 105.642L628.412 106.997L629.488 120.143C629.846 124.644 630.563 123.728 635.025 123.33Z" fill="#EBC5A4"/>
<path d="M644.744 107.236C644.744 107.236 642.513 116.996 634.427 116.637C627.336 116.318 628.014 105.642 628.014 105.642L644.744 107.236Z" fill="#E3BA97"/>
<path d="M635.781 113.171L637.135 113.012C643.987 112.255 648.966 106.041 648.209 99.1089L647.373 91.2213C646.616 84.2897 640.481 79.3101 633.59 80.0272L632.236 80.1865C625.384 80.9434 620.405 87.1579 621.162 94.0895L621.999 101.977C622.755 108.909 628.93 113.928 635.781 113.171Z" fill="#EBC5A4"/>
<path d="M656.276 144.755L655.971 145.011L661.173 151.203L661.478 150.946L656.276 144.755Z" fill="#141414"/>
<path d="M620.44 142.089L620.042 142.114L620.825 154.877L621.222 154.852L620.44 142.089Z" fill="#141414"/>
<path d="M635.024 123.329L645.262 117.075C649.643 115.242 652.432 119.505 652.432 119.505L640.243 131.575L635.024 123.329Z" fill="#1F3041"/>
<path d="M635.024 123.329L630.085 131.058L625.146 121.935C625.146 121.935 627.097 118.828 629.766 119.545L635.024 123.329Z" fill="#1F3041"/>
<path d="M544.443 170.616L537.033 134.285C536.834 133.368 537.551 132.532 538.467 132.532H576.19C576.867 132.532 577.465 133.01 577.624 133.687L584.914 170.576H544.443V170.616Z" fill="#454849"/>
<path d="M541.216 135.32L548.107 168.265H582.324L575.393 135.32H541.216Z" fill="#EBEBEB"/>
<path d="M593.548 173H545.452C544.649 173 544 172.106 544 171C544 169.894 544.649 169 545.452 169H593.548C594.351 169 595 169.894 595 171C595 172.106 594.351 173 593.548 173Z" fill="#454849"/>
<path d="M646.616 97.2762H642.393L641.597 92.6551C641.597 92.6551 637.215 90.3048 638.051 85.7235C638.051 85.7235 619.608 92.3763 616.74 84.9666C612.956 75.1668 626.699 72.7766 638.051 73.0156C649.404 73.2945 648.567 87.8747 648.567 87.8747L646.616 97.2762Z" fill="#23272A"/>
<path d="M644.147 96.3204C644.426 98.7903 646.616 100.583 649.046 100.304C651.476 100.025 653.269 97.8342 652.99 95.3643C652.711 92.8944 650.52 91.1018 648.09 91.3806C645.66 91.6595 643.868 93.8505 644.147 96.3204Z" fill="#EBC5A4"/>
<path d="M686.606 202.711C685.899 202.986 684.91 203.399 684.156 204.315C682.696 206.102 682.79 208.806 683.497 209.035C684.203 209.31 685.475 206.79 686.135 207.065C686.7 207.294 686.464 209.219 685.946 210.868C684.91 214.03 682.979 214.947 683.356 215.909C683.827 217.101 687.83 217.605 690.468 215.909C694.99 213.022 694.896 204.04 691.74 202.345C689.95 201.428 686.935 202.62 686.606 202.711Z" fill="#EBC4A0"/>
<path d="M566.629 170.814C565.235 169.938 563.841 170.018 561.291 170.137C558.622 170.297 555.914 170.974 555.953 171.492C555.993 172.049 559.14 171.97 559.299 172.846C559.459 173.842 554.44 174.838 554.32 176.551C554.201 177.905 557.865 179.339 559.658 179.897C563.124 181.052 567.665 178.543 569.338 176.87C570.851 175.276 568.541 172.009 566.629 170.814Z" fill="#EBC5A4"/>
<path d="M292.716 58.8275C294.19 62.8111 294.787 68.4281 292.198 76.515L281.085 79.7816C281.085 79.7816 275.946 74.6825 278.934 67.3525C281.921 60.1022 291.242 54.8836 292.716 58.8275Z" fill="#ECB7A6"/>
<path d="M370 184C371.872 163.763 356.211 151.567 356.211 151.567L364.218 135.354C364.218 135.354 384 157 383 183.5C373 207 352.308 211.96 352.308 211.96L353.662 202.598C353.662 202.598 364.218 198 370 184Z" fill="#FF8200"/>
<path d="M338.006 223.712L335 244.5L336.413 288.287L349.5 358.5C349.5 358.5 354.507 362.245 361 358.5L358.5 288.287C358.5 288.287 361 271 362.5 250C364 229 364 219.5 364 219.5L338.006 223.712Z" fill="#2F3A47"/>
<path d="M310 288V253L312.992 219.927L357 224.5C357 224.5 354 239.5 344.5 253L329 290L317 358.5C308.5 363 305 358 305 358L310 288Z" fill="#3D4956"/>
<path d="M312.5 221C312.46 217.614 317.001 184.5 317.001 184.5C317.145 177.373 311.001 153.5 305.501 144.5C302.5 140 314.542 137.352 318.249 136.469L332.51 133.561L349.559 131.569L357.207 132.764C360.593 133.203 365.214 134.796 365.971 137.744C367.126 142.365 370.877 145.586 370 152C369.363 156.661 364.537 182.648 364.537 189.5C364.537 207.785 365.054 201.483 364.537 219.887C364.537 219.887 364.656 221.282 362.824 222.596C348.922 233.711 331 228.5 331 228.5C324 227 314.5 223.5 312.5 221Z" fill="#FF8200"/>
<path d="M349.878 124.677C349.32 125.315 348.723 125.873 348.125 126.351C344.421 129.219 338.685 131.091 334.303 132.207C333.586 132.366 332.829 132.525 332.072 132.645L332.55 133.641C337.091 135.274 341.314 136.748 344.54 135.911C346.93 135.274 349.48 134.238 349.599 131.41L349.878 124.677Z" fill="#E8A2A7"/>
<path d="M348.006 93.5652C338.764 89.5417 328.169 93.4058 323.548 102.25C319.286 110.416 319.365 121.65 324.026 129.697C326.695 134.318 335.06 132.884 339.322 132.008C345.217 130.773 351.232 127.904 354.419 122.526C357.924 116.591 358.761 108.623 356.331 102.13C354.817 98.0667 351.75 95.1587 348.006 93.5652Z" fill="#ECB8A7"/>
<path d="M338.207 92.0916C341.433 91.6933 344.819 92.1315 348.006 93.5258C351.71 95.1591 354.817 98.0273 356.331 102.13C358.721 108.584 357.924 116.591 354.419 122.527C351.232 127.905 345.217 130.773 339.322 132.008C337.45 132.406 335.089 125.92 332.5 126L332.271 125C334.422 125 335.102 123.528 335.5 120.5C335.898 117.472 333.626 116.95 332.271 116.87C330.917 116.79 330.598 122.965 330.598 122.965L328.607 122.328C328.885 118.065 328.248 112.249 328.248 112.249C328.248 112.249 323.229 112.847 318.768 108.305C318.768 108.265 319.046 93.4859 338.207 92.0916Z" fill="#312E36"/>
<path d="M343.5 360.183C348 360.683 349.486 358 349.486 358C349.486 358 351 359.683 354.5 359.683C358 359.683 361 358.139 361 358.139C362.358 359.707 361.995 372.216 361.995 372.216C359.138 373.715 355.34 373.75 352.204 373.54C349.133 373.341 346.098 371.434 343 370.183C339.067 368.595 337.641 367.909 334.601 365.434C334.427 365.295 334.531 364.284 334.531 364.075C334.531 363.587 334.531 363.099 334.566 362.612C334.544 361.051 335.877 359.763 339 359.683C340.736 359.638 342.882 360.341 343.5 360.183Z" fill="#5874BE"/>
<path d="M334.5 364.183C339.5 367.183 346 370.683 352.5 372.183C358.5 373.731 361.995 371.183 361.995 370.09C361.995 371.38 361.995 372.216 361.995 372.216C361.995 373.683 358.699 376.233 352.5 374.683C349.707 373.984 345.872 372.147 342.5 370.683C338.628 369.002 338.5 368.683 334.5 366.683C334.145 366.399 334.121 363.885 334.5 364.183Z" fill="#58549B"/>
<path d="M299.275 360.365C303.775 360.865 305.262 358.183 305.262 358.183C305.262 358.183 306.775 359.865 310.275 359.865C313.775 359.865 316.775 358.322 316.775 358.322C318.134 359.89 317.77 372.399 317.77 372.399C314.913 373.897 311.115 373.932 307.98 373.723C304.909 373.524 301.874 371.616 298.775 370.365C294.842 368.777 293.416 368.092 290.376 365.617C290.202 365.477 290.306 364.467 290.306 364.258C290.306 363.77 290.306 363.282 290.341 362.794C290.319 361.233 291.652 359.945 294.775 359.865C296.512 359.821 298.658 360.523 299.275 360.365Z" fill="#5874BE"/>
<path d="M290.275 364.365C295.275 367.365 301.775 370.865 308.275 372.365C314.275 373.914 317.77 371.365 317.77 370.273C317.77 371.562 317.77 372.399 317.77 372.399C317.77 373.865 314.475 376.415 308.275 374.865C305.482 374.167 301.647 372.33 298.275 370.865C294.403 369.184 294.275 368.865 290.275 366.865C289.92 366.581 289.897 364.067 290.275 364.365Z" fill="#58549B"/>
<path d="M326.097 134.916C326.097 134.916 296.245 113.566 292.501 76C292.501 76 285 77.5 281 79.5001C281 79.5001 277.539 117.069 315.381 155.989C315.341 155.989 330.797 148.46 326.097 134.916Z" fill="#FF8200"/>
<defs>
<linearGradient id="paint0_linear" x1="34.363" y1="91.4386" x2="118.153" y2="91.4386" gradientUnits="userSpaceOnUse">
<stop offset="0.1072" stop-color="#FFFFA4"/>
<stop offset="0.4147" stop-color="#FFD234"/>
<stop offset="0.7979" stop-color="#FF9200"/>
</linearGradient>
</defs>
</svg>
