<svg width="1920" height="301" viewBox="0 0 1920 301" fill="none" xmlns="http://www.w3.org/2000/svg">
<g clip-path="url(#clip0)">
<rect width="1920" height="301" fill="url(#paint0_radial)"/>
<path d="M950.584 403.781C895.647 403.781 842.359 393.947 792.187 374.548C743.734 355.812 700.217 328.989 662.843 294.83C625.469 260.672 596.129 220.889 575.637 176.601C554.42 130.746 543.664 82.0244 543.664 31.8166C543.664 -18.4002 554.42 -67.1123 575.637 -112.976C596.129 -157.273 625.469 -197.047 662.843 -231.206C700.208 -265.364 743.734 -292.188 792.187 -310.924C842.35 -330.323 895.647 -340.157 950.584 -340.157C1005.52 -340.157 1058.81 -330.323 1108.97 -310.924C1157.43 -292.188 1200.94 -265.364 1238.32 -231.206C1275.68 -197.047 1305.03 -157.264 1325.52 -112.976C1346.74 -67.1123 1357.5 -18.4002 1357.5 31.8166C1357.5 82.0334 1346.75 130.746 1325.52 176.601C1305.03 220.898 1275.69 260.672 1238.32 294.83C1200.94 328.989 1157.43 355.812 1108.97 374.548C1058.8 393.947 1005.51 403.781 950.584 403.781ZM950.584 -339.324C726.718 -339.324 544.587 -172.839 544.587 31.8077C544.587 236.445 726.718 402.939 950.584 402.939C1174.45 402.939 1356.58 236.454 1356.58 31.8077C1356.58 -172.83 1174.45 -339.324 950.584 -339.324Z" stroke="url(#paint1_linear)" stroke-miterlimit="10"/>
<path d="M950.683 447.093C948.856 447.111 947.029 447.084 945.202 447.066L945.22 445.382C947.038 445.4 948.847 445.4 950.683 445.409C952.537 445.409 954.391 445.4 956.245 445.382L956.263 447.066C954.409 447.075 952.546 447.093 950.683 447.093ZM934.141 446.824C930.478 446.708 926.761 446.547 923.089 446.341L923.197 444.657C926.851 444.854 930.55 445.015 934.204 445.14L934.141 446.824ZM967.314 446.815L967.243 445.132C970.897 445.015 974.605 444.854 978.25 444.648L978.366 446.323C974.703 446.529 970.977 446.69 967.314 446.815ZM912.064 445.615C908.401 445.338 904.693 445.006 901.057 444.648L901.254 442.973C904.881 443.331 908.571 443.654 912.216 443.94L912.064 445.615ZM989.391 445.597L989.23 443.922C992.875 443.636 996.556 443.313 1000.19 442.955L1000.39 444.63C996.753 444.988 993.045 445.311 989.391 445.597ZM890.068 443.439C886.432 443 882.751 442.507 879.124 441.988L879.41 440.322C883.029 440.842 886.692 441.334 890.31 441.773L890.068 443.439ZM1011.39 443.403L1011.14 441.737C1014.76 441.289 1018.44 440.797 1022.04 440.277L1022.32 441.943C1018.71 442.463 1015.02 442.955 1011.39 443.403ZM868.215 440.277C864.606 439.668 860.952 439.023 857.36 438.334L857.737 436.686C861.31 437.367 864.946 438.02 868.547 438.62L868.215 440.277ZM1033.23 440.233L1032.9 438.576C1036.5 437.967 1040.14 437.322 1043.71 436.632L1044.09 438.28C1040.5 438.97 1036.85 439.624 1033.23 440.233ZM846.559 436.149C842.986 435.387 839.368 434.563 835.821 433.721L836.287 432.1C839.824 432.942 843.416 433.757 846.98 434.519L846.559 436.149ZM1054.89 436.095L1054.47 434.456C1058.03 433.686 1061.62 432.871 1065.16 432.029L1065.63 433.659C1062.08 434.51 1058.46 435.325 1054.89 436.095ZM825.154 431.061C821.635 430.139 818.07 429.163 814.559 428.16L815.115 426.557C818.607 427.56 822.163 428.536 825.665 429.449L825.154 431.061ZM1076.29 430.981L1075.78 429.36C1079.3 428.437 1082.85 427.461 1086.33 426.458L1086.89 428.061C1083.39 429.073 1079.82 430.058 1076.29 430.981ZM804 424.998C800.516 423.915 796.996 422.777 793.539 421.613L794.175 420.037C797.614 421.192 801.125 422.329 804.6 423.413L804 424.998ZM1097.39 424.918L1096.8 423.332C1100.26 422.258 1103.75 421.12 1107.18 419.965L1107.82 421.541C1104.38 422.705 1100.87 423.843 1097.39 424.918ZM783.177 417.986C779.747 416.741 776.29 415.442 772.913 414.134L773.63 412.585C776.997 413.893 780.437 415.191 783.849 416.418L783.177 417.986ZM1118.15 417.923L1117.47 416.365C1120.87 415.129 1124.28 413.848 1127.62 412.549L1128.34 414.099C1124.99 415.397 1121.56 416.687 1118.15 417.923ZM762.766 410.051C759.408 408.653 756.031 407.202 752.726 405.743L753.532 404.229C756.819 405.68 760.187 407.131 763.527 408.519L762.766 410.051ZM1138.44 410.033L1137.68 408.501C1141 407.113 1144.34 405.68 1147.62 404.229L1148.42 405.743C1145.13 407.202 1141.77 408.644 1138.44 410.033ZM1158.29 401.238L1157.45 399.742C1160.69 398.22 1163.95 396.634 1167.16 395.031L1168.05 396.509C1164.81 398.121 1161.54 399.706 1158.29 401.238ZM742.812 401.211C739.561 399.679 736.256 398.076 733.023 396.464L733.901 394.986C737.125 396.598 740.403 398.193 743.654 399.715L742.812 401.211ZM1177.66 391.574L1176.73 390.114C1179.9 388.448 1183.08 386.72 1186.18 384.982L1187.14 386.415C1184.02 388.153 1180.83 389.89 1177.66 391.574ZM723.359 391.494C720.162 389.81 716.965 388.063 713.839 386.317L714.797 384.884C717.905 386.621 721.102 388.359 724.282 390.043L723.359 391.494ZM1196.49 381.042L1195.5 379.627C1198.58 377.809 1201.67 375.946 1204.67 374.074L1205.71 375.471C1202.69 377.343 1199.59 379.215 1196.49 381.042ZM704.453 380.925C701.363 379.098 698.255 377.217 695.228 375.328L696.258 373.94C699.285 375.82 702.375 377.692 705.447 379.51L704.453 380.925ZM1214.76 369.694L1213.69 368.324C1216.63 366.39 1219.63 364.392 1222.55 362.368L1223.66 363.712C1220.72 365.745 1217.73 367.751 1214.76 369.694ZM686.156 369.533C683.155 367.572 680.155 365.548 677.235 363.533L678.346 362.189C681.257 364.195 684.248 366.201 687.231 368.163L686.156 369.533ZM1232.41 357.541L1231.27 356.215C1234.13 354.147 1237 352.015 1239.81 349.875L1240.99 351.164C1238.16 353.323 1235.27 355.463 1232.41 357.541ZM668.476 357.344C665.593 355.257 662.7 353.108 659.888 350.958L661.07 349.669C663.873 351.8 666.748 353.941 669.623 356.027L668.476 357.344ZM1249.4 344.608L1248.2 343.346C1250.95 341.142 1253.71 338.876 1256.4 336.629L1257.64 337.864C1254.95 340.13 1252.17 342.396 1249.4 344.608ZM651.478 344.384C648.719 342.172 645.943 339.906 643.247 337.632L644.492 336.396C647.188 338.653 649.946 340.918 652.696 343.122L651.478 344.384ZM1265.7 330.941L1264.41 329.732C1267.04 327.431 1269.67 325.048 1272.26 322.657L1273.57 323.839C1270.98 326.239 1268.33 328.631 1265.7 330.941ZM635.187 330.7C632.536 328.371 629.894 325.971 627.323 323.588L628.631 322.406C631.192 324.78 633.834 327.162 636.467 329.482L635.187 330.7ZM1281.25 316.576L1279.91 315.42C1282.43 312.984 1284.93 310.495 1287.37 308.005L1288.74 309.133C1286.29 311.623 1283.78 314.122 1281.25 316.576ZM619.648 316.316C617.122 313.862 614.615 311.363 612.17 308.874L613.54 307.754C615.967 310.235 618.475 312.725 620.991 315.17L619.648 316.316ZM1296.03 301.521L1294.63 300.428C1297.01 297.884 1299.38 295.287 1301.69 292.69L1303.11 293.756C1300.8 296.353 1298.42 298.968 1296.03 301.521ZM604.888 301.261C602.497 298.699 600.124 296.093 597.813 293.496L599.237 292.439C601.53 295.018 603.903 297.625 606.285 300.168L604.888 301.261ZM1310.01 285.83L1308.56 284.8C1310.81 282.149 1313.04 279.444 1315.2 276.757L1316.69 277.751C1314.51 280.447 1312.26 283.161 1310.01 285.83ZM590.953 285.588C588.696 282.919 586.457 280.205 584.298 277.518L585.776 276.524C587.925 279.202 590.155 281.898 592.403 284.558L590.953 285.588ZM1323.13 269.529L1321.63 268.562C1323.73 265.804 1325.82 263.009 1327.83 260.233L1329.36 261.164C1327.34 263.95 1325.24 266.762 1323.13 269.529ZM577.868 269.306C575.772 266.565 573.685 263.753 571.652 260.959L573.184 260.027C575.208 262.812 577.286 265.607 579.372 268.338L577.868 269.306ZM1335.38 252.656L1333.82 251.761C1335.79 248.922 1337.72 246.02 1339.58 243.163L1341.17 244.023C1339.29 246.888 1337.34 249.799 1335.38 252.656ZM565.661 252.486C563.708 249.647 561.774 246.745 559.902 243.87L561.487 243.01C563.35 245.876 565.275 248.76 567.228 251.59L565.661 252.486ZM1346.71 235.254L1345.11 234.431C1346.9 231.52 1348.68 228.537 1350.4 225.582L1352.02 226.37C1350.31 229.344 1348.52 232.335 1346.71 235.254ZM554.367 235.138C552.558 232.209 550.784 229.227 549.074 226.289L550.704 225.501C552.405 228.43 554.179 231.394 555.97 234.314L554.367 235.138ZM1357.12 217.36L1355.47 216.608C1357.11 213.617 1358.73 210.563 1360.29 207.526L1361.96 208.243C1360.39 211.288 1358.76 214.36 1357.12 217.36ZM544.023 217.324C542.384 214.333 540.772 211.279 539.213 208.252L540.879 207.535C542.428 210.554 544.041 213.59 545.671 216.572L544.023 217.324ZM534.637 199.081C533.159 196.009 531.699 192.892 530.311 189.811L532.012 189.175C533.392 192.238 534.843 195.346 536.311 198.409L534.637 199.081ZM1366.55 199.009L1364.87 198.329C1366.34 195.248 1367.8 192.122 1369.19 189.041L1370.89 189.677C1369.51 192.785 1368.04 195.919 1366.55 199.009ZM526.236 180.407C524.919 177.273 523.63 174.084 522.403 170.923L524.14 170.359C525.367 173.502 526.648 176.682 527.955 179.807L526.236 180.407ZM1374.99 180.255L1373.27 179.655C1374.58 176.511 1375.87 173.323 1377.09 170.18L1378.83 170.744C1377.6 173.896 1376.31 177.103 1374.99 180.255ZM518.82 161.349C517.674 158.151 516.554 154.9 515.506 151.703L517.271 151.219C518.319 154.408 519.429 157.641 520.576 160.829L518.82 161.349ZM1382.41 161.134L1380.66 160.614C1381.81 157.426 1382.92 154.175 1383.98 150.969L1385.74 151.452C1384.68 154.677 1383.56 157.928 1382.41 161.134ZM512.443 141.986C511.467 138.726 510.527 135.439 509.649 132.206L511.44 131.803C512.318 135.018 513.249 138.296 514.226 141.547L512.443 141.986ZM1388.79 141.735L1387.01 141.296C1387.98 138.072 1388.91 134.785 1389.79 131.552L1391.58 131.955C1390.7 135.197 1389.76 138.493 1388.79 141.735ZM507.115 122.363C506.317 119.085 505.556 115.753 504.849 112.466L506.649 112.144C507.356 115.413 508.118 118.736 508.906 121.996L507.115 122.363ZM1394.11 122.103L1392.31 121.736C1393.1 118.458 1393.86 115.144 1394.56 111.875L1396.36 112.198C1395.67 115.485 1394.91 118.807 1394.11 122.103ZM502.842 102.516C502.225 99.2204 501.642 95.8619 501.105 92.5302L502.923 92.2884C503.451 95.6021 504.034 98.9518 504.652 102.23L502.842 102.516ZM1398.36 102.257L1396.54 101.97C1397.16 98.6652 1397.74 95.3156 1398.27 92.0198L1400.09 92.2616C1399.57 95.5753 1398.98 98.9338 1398.36 102.257ZM499.636 82.5174C499.188 79.1767 498.785 75.7912 498.436 72.4685L500.263 72.3074C500.612 75.6211 501.015 78.9886 501.463 82.3202L499.636 82.5174ZM1401.56 82.2486L1399.73 82.0427C1400.17 78.7289 1400.57 75.3524 1400.92 72.0297L1402.76 72.191C1402.4 75.5316 1402 78.908 1401.56 82.2486ZM497.496 62.384C497.227 59.0433 497.003 55.6491 496.824 52.2905L498.66 52.2099C498.839 55.5594 499.063 58.9448 499.323 62.2675L497.496 62.384ZM1403.68 62.1154L1401.85 61.99C1402.11 58.6762 1402.33 55.2908 1402.51 51.9412L1404.35 52.0218C1404.17 55.3983 1403.95 58.7926 1403.68 62.1154ZM496.43 42.188C496.34 38.8116 496.287 35.4083 496.287 32.0766H498.132C498.132 35.3903 498.176 38.7847 498.266 42.1432L496.43 42.188ZM1404.75 41.9193L1402.91 41.8746C1403 38.534 1403.04 35.1486 1403.04 31.808V31.2437H1404.88V31.808C1404.87 35.1665 1404.83 38.5697 1404.75 41.9193ZM498.248 22.001L496.403 21.9651C496.493 18.6335 496.618 15.2392 496.797 11.8627L498.633 11.9433C498.463 15.3018 498.338 18.6872 498.248 22.001ZM1402.88 21.1771C1402.8 17.8454 1402.66 14.4689 1402.47 11.1103L1404.31 11.0298C1404.5 14.3973 1404.63 17.7916 1404.72 21.1323L1402.88 21.1771ZM499.296 1.88564L497.46 1.7692C497.72 -1.56246 498.033 -4.95682 498.382 -8.3064L500.209 -8.14525C499.86 -4.80463 499.556 -1.42812 499.296 1.88564ZM1401.8 1.06164C1401.53 -2.26107 1401.22 -5.63748 1400.86 -8.97811L1402.7 -9.13936C1403.06 -5.78979 1403.38 -2.39543 1403.64 0.936239L1401.8 1.06164ZM501.392 -18.1581L499.565 -18.3551C500.003 -21.6957 500.496 -25.0633 501.024 -28.377L502.842 -28.1352C502.323 -24.8483 501.83 -21.4898 501.392 -18.1581ZM1399.65 -18.9821C1399.2 -22.3048 1398.71 -25.6634 1398.18 -28.9592L1400 -29.2009C1400.54 -25.8872 1401.03 -22.5197 1401.48 -19.1791L1399.65 -18.9821ZM504.562 -38.0944L502.753 -38.3721C503.362 -41.65 504.034 -44.9996 504.741 -48.3223L506.55 -47.9999C505.834 -44.6951 505.171 -41.3544 504.562 -38.0944ZM1396.45 -38.9094C1395.83 -42.1873 1395.16 -45.5189 1394.44 -48.8148L1396.25 -49.1462C1396.96 -45.8414 1397.64 -42.4918 1398.25 -39.2049L1396.45 -38.9094ZM508.789 -57.8604L506.989 -58.2276C507.777 -61.4966 508.628 -64.8104 509.506 -68.0704L511.297 -67.6674C510.419 -64.4163 509.577 -61.1204 508.789 -57.8604ZM1392.17 -58.6754C1391.38 -61.9355 1390.53 -65.2314 1389.64 -68.4735L1391.43 -68.8764C1392.32 -65.6164 1393.17 -62.3116 1393.96 -59.0337L1392.17 -58.6754ZM514.064 -77.4116L512.291 -77.8505C513.258 -81.0926 514.288 -84.3705 515.336 -87.5678L517.101 -87.0841C516.053 -83.8958 515.032 -80.6358 514.064 -77.4116ZM1386.85 -78.2177C1385.88 -81.4419 1384.86 -84.7018 1383.8 -87.8902L1385.56 -88.3739C1386.62 -85.1676 1387.66 -81.8986 1388.64 -78.6565L1386.85 -78.2177ZM520.396 -96.7031L518.65 -97.2225C519.787 -100.42 520.996 -103.653 522.223 -106.832L523.961 -106.268C522.725 -103.107 521.525 -99.8915 520.396 -96.7031ZM1380.49 -97.4911C1379.35 -100.662 1378.14 -103.868 1376.91 -107.02L1378.65 -107.585C1379.89 -104.414 1381.09 -101.199 1382.23 -98.0196L1380.49 -97.4911ZM527.767 -115.753L526.048 -116.353C527.364 -119.487 528.735 -122.667 530.132 -125.783L531.833 -125.139C530.445 -122.031 529.075 -118.878 527.767 -115.753ZM1373.09 -116.46C1371.78 -119.586 1370.41 -122.738 1369.01 -125.819L1370.71 -126.455C1372.11 -123.356 1373.48 -120.195 1374.81 -117.06L1373.09 -116.46ZM536.159 -134.435L534.475 -135.116C535.953 -138.197 537.494 -141.295 539.061 -144.349L540.727 -143.633C539.168 -140.597 537.637 -137.498 536.159 -134.435ZM1364.71 -135.053C1363.24 -138.098 1361.7 -141.17 1360.15 -144.188L1361.81 -144.905C1363.37 -141.869 1364.91 -138.788 1366.39 -135.734L1364.71 -135.053ZM545.545 -152.714L543.897 -153.467C545.545 -156.476 547.247 -159.512 548.966 -162.477L550.596 -161.688C548.877 -158.733 547.184 -155.715 545.545 -152.714ZM1355.35 -153.216C1353.72 -156.189 1352.01 -159.19 1350.3 -162.136L1351.92 -162.924C1353.64 -159.969 1355.35 -156.951 1356.98 -153.968L1355.35 -153.216ZM555.88 -170.546L554.277 -171.37C556.086 -174.299 557.949 -177.254 559.821 -180.138L561.406 -179.278C559.535 -176.403 557.681 -173.466 555.88 -170.546ZM1345.02 -170.958C1343.23 -173.86 1341.37 -176.788 1339.5 -179.654L1341.09 -180.514C1342.96 -177.639 1344.82 -174.702 1346.62 -171.782L1345.02 -170.958ZM567.165 -187.885L565.607 -188.781C567.568 -191.629 569.583 -194.495 571.607 -197.289L573.139 -196.357C571.124 -193.572 569.118 -190.724 567.165 -187.885ZM1333.76 -188.216C1331.83 -191.029 1329.81 -193.868 1327.79 -196.662L1329.32 -197.593C1331.35 -194.79 1333.38 -191.942 1335.32 -189.121L1333.76 -188.216ZM579.345 -204.696L577.841 -205.663C579.945 -208.421 582.113 -211.189 584.289 -213.894L585.767 -212.899C583.608 -210.195 581.441 -207.436 579.345 -204.696ZM1321.6 -204.973C1319.51 -207.696 1317.36 -210.445 1315.19 -213.15L1316.66 -214.144C1318.85 -211.431 1321.02 -208.672 1323.1 -205.941L1321.6 -204.973ZM592.412 -220.933L590.953 -221.963C593.2 -224.614 595.511 -227.283 597.831 -229.889L599.255 -228.823C596.944 -226.235 594.642 -223.575 592.412 -220.933ZM1308.55 -221.175C1306.32 -223.808 1304.02 -226.459 1301.71 -229.056L1303.13 -230.113C1305.45 -227.507 1307.76 -224.847 1310 -222.205L1308.55 -221.175ZM606.312 -236.579L604.915 -237.672C607.297 -240.224 609.751 -242.786 612.205 -245.285L613.576 -244.165C611.131 -241.666 608.686 -239.123 606.312 -236.579ZM1294.66 -236.776C1292.29 -239.311 1289.85 -241.854 1287.41 -244.353L1288.78 -245.473C1291.23 -242.974 1293.68 -240.413 1296.07 -237.869L1294.66 -236.776ZM621.018 -251.581L619.675 -252.736C622.191 -255.181 624.78 -257.635 627.35 -260.017L628.658 -258.835C626.105 -256.453 623.526 -254.017 621.018 -251.581ZM1279.94 -251.76C1277.44 -254.187 1274.87 -256.632 1272.3 -259.005L1273.6 -260.188C1276.18 -257.805 1278.76 -255.36 1281.29 -252.915L1279.94 -251.76ZM636.503 -265.901L635.231 -267.111C637.847 -269.421 640.56 -271.75 643.283 -274.034L644.528 -272.798C641.814 -270.532 639.118 -268.203 636.503 -265.901ZM1264.46 -266.081C1261.84 -268.391 1259.14 -270.711 1256.43 -272.977L1257.68 -274.222C1260.39 -271.938 1263.11 -269.609 1265.74 -267.29L1264.46 -266.081ZM652.723 -279.524L651.505 -280.795C654.263 -282.999 657.093 -285.211 659.914 -287.36L661.088 -286.062C658.275 -283.921 655.463 -281.718 652.723 -279.524ZM1248.22 -279.703C1245.47 -281.897 1242.65 -284.1 1239.84 -286.241L1241.02 -287.539C1243.85 -285.39 1246.68 -283.178 1249.44 -280.975L1248.22 -279.703ZM669.632 -292.412L668.485 -293.728C671.36 -295.806 674.298 -297.893 677.227 -299.908L678.337 -298.564C675.417 -296.558 672.489 -294.48 669.632 -292.412ZM1231.28 -292.591C1228.41 -294.669 1225.47 -296.737 1222.55 -298.752L1223.66 -300.096C1226.59 -298.072 1229.53 -295.994 1232.41 -293.907L1231.28 -292.591ZM687.204 -304.529L686.129 -305.899C689.093 -307.843 692.138 -309.786 695.184 -311.685L696.222 -310.297C693.186 -308.398 690.159 -306.464 687.204 -304.529ZM1213.67 -304.717C1210.7 -306.661 1207.66 -308.604 1204.62 -310.485L1205.66 -311.873C1208.71 -309.983 1211.76 -308.031 1214.74 -306.079L1213.67 -304.717ZM705.384 -315.85L704.381 -317.265C707.462 -319.083 710.606 -320.892 713.732 -322.638L714.69 -321.205C711.582 -319.459 708.447 -317.659 705.384 -315.85ZM1195.43 -316.056C1192.35 -317.874 1189.2 -319.674 1186.08 -321.42L1187.04 -322.853C1190.17 -321.107 1193.33 -319.298 1196.43 -317.471L1195.43 -316.056ZM724.139 -326.337L723.216 -327.797C726.378 -329.472 729.611 -331.129 732.835 -332.75L733.722 -331.272C730.506 -329.669 727.291 -328.012 724.139 -326.337ZM1176.59 -326.57C1173.42 -328.245 1170.18 -329.911 1166.97 -331.514L1167.85 -332.992C1171.07 -331.38 1174.33 -329.714 1177.51 -328.03L1176.59 -326.57ZM743.421 -335.983L742.579 -337.479C745.821 -339.01 749.135 -340.524 752.44 -341.992L753.237 -340.479C749.959 -339.019 746.654 -337.505 743.421 -335.983ZM1157.22 -336.234C1153.96 -337.765 1150.64 -339.279 1147.34 -340.739L1148.15 -342.252C1151.45 -340.792 1154.79 -339.27 1158.06 -337.729L1157.22 -336.234ZM763.187 -344.76L762.426 -346.291C765.74 -347.671 769.134 -349.041 772.51 -350.357L773.236 -348.808C769.868 -347.491 766.492 -346.13 763.187 -344.76ZM1137.34 -345.02C1134.01 -346.399 1130.61 -347.76 1127.23 -349.077L1127.94 -350.626C1131.35 -349.301 1134.77 -347.93 1138.1 -346.551L1137.34 -345.02ZM783.383 -352.632L782.702 -354.191C786.115 -355.436 789.59 -356.654 793.029 -357.809L793.665 -356.233C790.243 -355.077 786.777 -353.868 783.383 -352.632ZM1117 -352.91C1113.59 -354.137 1110.12 -355.346 1106.67 -356.51L1107.31 -358.087C1110.77 -356.922 1114.26 -355.704 1117.68 -354.468L1117 -352.91ZM804.045 -359.618L803.454 -361.212C806.929 -362.296 810.457 -363.362 813.959 -364.365L814.514 -362.762C811.031 -361.75 807.502 -360.693 804.045 -359.618ZM1096.25 -359.887C1092.78 -360.961 1089.24 -362.018 1085.73 -363.021L1086.28 -364.625C1089.8 -363.621 1093.35 -362.556 1096.84 -361.481L1096.25 -359.887ZM825.065 -365.663L824.554 -367.284C828.074 -368.207 831.665 -369.111 835.221 -369.962L835.687 -368.332C832.14 -367.481 828.567 -366.586 825.065 -365.663ZM1075.18 -365.905C1071.66 -366.819 1068.09 -367.714 1064.55 -368.556L1065.02 -370.186C1068.56 -369.344 1072.15 -368.449 1075.69 -367.526L1075.18 -365.905ZM846.371 -370.759L845.95 -372.398C849.515 -373.169 853.142 -373.903 856.751 -374.602L857.128 -372.954C853.545 -372.264 849.927 -371.53 846.371 -370.759ZM1053.86 -370.965C1050.29 -371.727 1046.67 -372.452 1043.1 -373.133L1043.48 -374.781C1047.07 -374.1 1050.7 -373.366 1054.28 -372.604L1053.86 -370.965ZM867.938 -374.906L867.606 -376.563C871.215 -377.172 874.879 -377.745 878.506 -378.283L878.792 -376.626C875.183 -376.079 871.529 -375.506 867.938 -374.906ZM1032.29 -375.058C1028.7 -375.658 1025.05 -376.223 1021.43 -376.742L1021.71 -378.399C1025.35 -377.88 1029.01 -377.306 1032.62 -376.706L1032.29 -375.058ZM889.692 -378.077L889.45 -379.742C893.077 -380.19 896.767 -380.602 900.43 -380.969L900.627 -379.295C896.991 -378.927 893.31 -378.515 889.692 -378.077ZM1010.52 -378.184C1006.9 -378.623 1003.22 -379.026 999.574 -379.384L999.771 -381.059C1003.43 -380.701 1007.12 -380.298 1010.75 -379.85L1010.52 -378.184ZM911.599 -380.271L911.446 -381.946C915.1 -382.232 918.817 -382.483 922.48 -382.68L922.588 -380.996C918.934 -380.799 915.235 -380.557 911.599 -380.271ZM988.612 -380.342C984.967 -380.62 981.268 -380.862 977.623 -381.059L977.73 -382.743C981.393 -382.546 985.11 -382.304 988.764 -382.026L988.612 -380.342ZM933.586 -381.498L933.514 -383.182C937.168 -383.307 940.885 -383.388 944.557 -383.432L944.584 -381.749C940.93 -381.704 937.231 -381.623 933.586 -381.498ZM966.625 -381.534C962.98 -381.65 959.272 -381.731 955.609 -381.766L955.627 -383.45C959.308 -383.414 963.024 -383.334 966.687 -383.226L966.625 -381.534Z" stroke="url(#paint2_linear)" stroke-miterlimit="10"/>
<path d="M945.219 529.587C941.547 529.56 937.84 529.489 934.185 529.39L934.239 527.706C937.875 527.805 941.583 527.868 945.237 527.903L945.219 529.587ZM956.262 529.587L956.244 527.903C959.889 527.868 963.588 527.805 967.233 527.706L967.287 529.39C963.624 529.489 959.916 529.551 956.262 529.587ZM923.16 528.996C919.506 528.826 915.799 528.629 912.145 528.396L912.27 526.721C915.906 526.954 919.605 527.151 923.25 527.321L923.16 528.996ZM978.303 528.978L978.214 527.303C981.85 527.133 985.549 526.927 989.194 526.694L989.319 528.369C985.665 528.611 981.957 528.817 978.303 528.978ZM901.137 527.59C897.492 527.294 893.793 526.954 890.157 526.587L890.354 524.912C893.982 525.279 897.663 525.62 901.299 525.915L901.137 527.59ZM1000.33 527.563L1000.17 525.888C1003.79 525.584 1007.47 525.252 1011.11 524.876L1011.31 526.551C1007.66 526.927 1003.96 527.267 1000.33 527.563ZM879.204 525.378C875.559 524.939 871.887 524.464 868.278 523.963L868.555 522.306C872.156 522.807 875.819 523.273 879.446 523.712L879.204 525.378ZM1022.26 525.342L1022.02 523.676C1025.64 523.246 1029.3 522.772 1032.91 522.261L1033.19 523.927C1029.57 524.428 1025.9 524.903 1022.26 525.342ZM857.378 522.36C853.76 521.786 850.115 521.177 846.514 520.541L846.864 518.885C850.446 519.521 854.082 520.13 857.683 520.694L857.378 522.36ZM1044.09 522.306L1043.77 520.649C1047.37 520.085 1051.01 519.476 1054.59 518.831L1054.94 520.479C1051.35 521.124 1047.69 521.733 1044.09 522.306ZM835.704 518.517C832.14 517.819 828.522 517.076 824.939 516.305L825.36 514.666C828.925 515.436 832.534 516.18 836.089 516.878L835.704 518.517ZM1065.75 518.464L1065.37 516.816C1068.93 516.108 1072.54 515.365 1076.09 514.595L1076.52 516.234C1072.95 517.013 1069.32 517.756 1065.75 518.464ZM814.228 513.887C810.69 513.054 807.099 512.168 803.57 511.263L804.071 509.642C807.591 510.538 811.174 511.424 814.693 512.248L814.228 513.887ZM1087.23 513.815L1086.77 512.186C1090.29 511.353 1093.87 510.475 1097.39 509.57L1097.89 511.191C1094.36 512.096 1090.76 512.974 1087.23 513.815ZM792.966 508.451C789.437 507.475 785.882 506.463 782.398 505.424L782.962 503.82C786.437 504.85 789.983 505.871 793.503 506.839L792.966 508.451ZM1108.48 508.361L1107.95 506.749C1111.44 505.782 1114.97 504.77 1118.45 503.74L1119.01 505.343C1115.53 506.382 1111.98 507.394 1108.48 508.361ZM771.892 502.199C768.426 501.098 764.924 499.942 761.467 498.778L762.103 497.202C765.551 498.366 769.044 499.513 772.492 500.605L771.892 502.199ZM1129.47 502.128L1128.87 500.543C1132.32 499.441 1135.8 498.304 1139.23 497.139L1139.86 498.716C1136.43 499.88 1132.94 501.035 1129.47 502.128ZM751.123 495.169C747.693 493.933 744.245 492.652 740.868 491.363L741.576 489.813C744.943 491.103 748.391 492.375 751.804 493.602L751.123 495.169ZM1150.17 495.115L1149.5 493.548C1152.87 492.33 1156.28 491.067 1159.65 489.777L1160.35 491.336C1156.98 492.625 1153.56 493.897 1150.17 495.115ZM730.694 487.368C727.336 486.016 723.95 484.601 720.618 483.186L721.398 481.663C724.72 483.078 728.097 484.484 731.437 485.837L730.694 487.368ZM1170.46 487.368L1169.72 485.828C1173.04 484.484 1176.4 483.087 1179.7 481.69L1180.48 483.212C1177.17 484.619 1173.8 486.025 1170.46 487.368ZM1190.4 478.869L1189.59 477.355C1192.85 475.895 1196.14 474.373 1199.38 472.841L1200.23 474.337C1196.98 475.878 1193.67 477.4 1190.4 478.869ZM710.641 478.815C707.355 477.337 704.032 475.815 700.763 474.265L701.605 472.77C704.865 474.31 708.178 475.833 711.447 477.301L710.641 478.815ZM1209.96 469.635L1209.08 468.157C1212.27 466.581 1215.5 464.942 1218.68 463.285L1219.59 464.745C1216.39 466.402 1213.16 468.05 1209.96 469.635ZM690.992 469.528C687.776 467.933 684.534 466.277 681.328 464.611L682.242 463.151C685.43 464.808 688.672 466.456 691.869 468.05L690.992 469.528ZM1229.1 459.676L1228.15 458.234C1231.28 456.532 1234.42 454.777 1237.52 453.013L1238.5 454.437C1235.39 456.201 1232.23 457.965 1229.1 459.676ZM671.781 459.515C668.637 457.804 665.467 456.031 662.35 454.248L663.326 452.825C666.434 454.598 669.605 456.371 672.73 458.073L671.781 459.515ZM1247.78 449.009L1246.78 447.603C1249.82 445.785 1252.9 443.913 1255.92 442.032L1256.95 443.421C1253.92 445.31 1250.84 447.191 1247.78 449.009ZM653.036 448.812C649.964 446.976 646.874 445.086 643.847 443.197L644.886 441.808C647.904 443.689 650.985 445.57 654.048 447.406L653.036 448.812ZM1265.99 437.662L1264.92 436.292C1267.88 434.366 1270.86 432.378 1273.8 430.389L1274.9 431.742C1271.96 433.739 1268.96 435.736 1265.99 437.662ZM634.783 437.42C631.801 435.476 628.801 433.479 625.854 431.473L626.956 430.121C629.893 432.118 632.885 434.106 635.858 436.041L634.783 437.42ZM1283.7 425.652L1282.57 424.326C1285.45 422.284 1288.35 420.188 1291.19 418.093L1292.35 419.409C1289.5 421.505 1286.59 423.601 1283.7 425.652ZM617.059 425.365C614.175 423.314 611.256 421.209 608.408 419.096L609.563 417.788C612.411 419.893 615.313 421.998 618.188 424.04L617.059 425.365ZM1300.85 412.997L1299.67 411.707C1302.44 409.567 1305.25 407.372 1308 405.16L1309.22 406.432C1306.45 408.644 1303.63 410.847 1300.85 412.997ZM599.89 412.665C597.096 410.516 594.284 408.304 591.525 406.083L592.734 404.82C595.484 407.032 598.296 409.235 601.073 411.385L599.89 412.665ZM1317.44 399.706L1316.2 398.461C1318.9 396.204 1321.61 393.902 1324.25 391.619L1325.51 392.837C1322.87 395.138 1320.16 397.449 1317.44 399.706ZM583.295 399.357C580.608 397.109 577.894 394.789 575.225 392.478L576.488 391.26C579.148 393.571 581.853 395.882 584.531 398.121L583.295 399.357ZM1333.45 385.824L1332.16 384.624C1334.76 382.277 1337.36 379.868 1339.91 377.486L1341.22 378.659C1338.67 381.05 1336.05 383.46 1333.45 385.824ZM567.308 385.448C564.702 383.083 562.087 380.674 559.543 378.274L560.86 377.101C563.394 379.492 566.001 381.901 568.598 384.248L567.308 385.448ZM1348.83 371.351L1347.48 370.205C1349.96 367.777 1352.46 365.279 1354.91 362.78L1356.28 363.899C1353.81 366.407 1351.31 368.915 1348.83 371.351ZM551.948 370.966C549.441 368.503 546.942 365.995 544.515 363.514L545.885 362.395C548.303 364.867 550.802 367.365 553.301 369.819L551.948 370.966ZM1363.56 356.323L1362.16 355.221C1364.53 352.695 1366.93 350.107 1369.25 347.528L1370.68 348.594C1368.33 351.191 1365.94 353.788 1363.56 356.323ZM537.234 355.929C534.86 353.403 532.469 350.806 530.131 348.217L531.555 347.143C533.884 349.722 536.266 352.31 538.631 354.836L537.234 355.929ZM1377.62 340.757L1376.18 339.709C1378.44 337.094 1380.71 334.416 1382.93 331.756L1384.39 332.777C1382.17 335.446 1379.89 338.133 1377.62 340.757ZM523.217 340.381C520.96 337.775 518.686 335.088 516.464 332.41L517.933 331.389C520.145 334.058 522.411 336.736 524.659 339.333L523.217 340.381ZM1390.99 324.681L1389.5 323.687C1391.66 320.982 1393.81 318.223 1395.89 315.492L1397.4 316.459C1395.31 319.2 1393.15 321.967 1390.99 324.681ZM509.891 324.323C507.741 321.627 505.592 318.859 503.496 316.119L505.001 315.16C507.087 317.892 509.228 320.65 511.368 323.337L509.891 324.323ZM1403.64 308.112L1402.11 307.181C1404.14 304.395 1406.17 301.565 1408.13 298.753L1409.69 299.657C1407.71 302.479 1405.68 305.327 1403.64 308.112ZM497.289 307.798C495.265 305.031 493.241 302.192 491.271 299.362L492.82 298.457C494.791 301.279 496.806 304.1 498.821 306.867L497.289 307.798ZM1415.54 291.095L1413.97 290.218C1415.88 287.361 1417.78 284.459 1419.62 281.566L1421.21 282.417C1419.36 285.31 1417.46 288.238 1415.54 291.095ZM485.432 290.818C483.524 287.961 481.625 285.05 479.789 282.175L481.383 281.324C483.21 284.19 485.1 287.092 487.008 289.94L485.432 290.818ZM1426.69 273.64L1425.09 272.825C1426.87 269.896 1428.63 266.914 1430.34 263.967L1431.97 264.756C1430.26 267.72 1428.48 270.702 1426.69 273.64ZM474.335 273.434C472.571 270.532 470.806 267.559 469.078 264.594L470.708 263.806C472.427 266.762 474.183 269.735 475.947 272.619L474.335 273.434ZM1437.06 255.782L1435.41 255.02C1437.05 252.056 1438.69 249.011 1440.29 245.975L1441.94 246.7C1440.34 249.745 1438.7 252.799 1437.06 255.782ZM464.026 255.656C462.379 252.665 460.74 249.629 459.172 246.628L460.829 245.903C462.396 248.894 464.018 251.921 465.665 254.895L464.026 255.656ZM1446.62 237.538L1444.94 236.839C1446.45 233.821 1447.95 230.713 1449.4 227.615L1451.1 228.277C1449.64 231.394 1448.13 234.511 1446.62 237.538ZM454.524 237.511C453.019 234.475 451.524 231.385 450.073 228.313L451.766 227.65C453.208 230.713 454.694 233.794 456.199 236.812L454.524 237.511ZM445.837 219.044C444.448 215.927 443.087 212.765 441.789 209.658L443.508 209.058C444.807 212.156 446.159 215.3 447.547 218.417L445.837 219.044ZM1455.37 218.954L1453.67 218.318C1455.04 215.237 1456.4 212.076 1457.71 208.932L1459.43 209.532C1458.11 212.685 1456.75 215.855 1455.37 218.954ZM437.946 200.2C436.71 197.056 435.492 193.841 434.319 190.671L436.066 190.133C437.23 193.295 438.448 196.492 439.684 199.627L437.946 200.2ZM1463.27 200.039L1461.54 199.475C1462.77 196.349 1463.99 193.143 1465.17 189.945L1466.91 190.483C1465.73 193.689 1464.5 196.913 1463.27 200.039ZM430.907 181.079C429.814 177.881 428.74 174.639 427.71 171.424L429.474 170.949C430.495 174.156 431.57 177.389 432.662 180.577L430.907 181.079ZM1470.33 180.846L1468.58 180.344C1469.66 177.183 1470.74 173.941 1471.76 170.717L1473.52 171.182C1472.49 174.424 1471.42 177.666 1470.33 180.846ZM424.727 161.707C423.778 158.474 422.846 155.187 421.96 151.936L423.751 151.533C424.629 154.775 425.551 158.044 426.501 161.268L424.727 161.707ZM1476.49 161.474L1474.71 161.035C1475.66 157.811 1476.58 154.533 1477.46 151.3L1479.24 151.703C1478.38 154.945 1477.45 158.232 1476.49 161.474ZM419.416 142.12C418.61 138.869 417.831 135.546 417.088 132.259L418.897 131.919C419.631 135.197 420.41 138.502 421.216 141.744L419.416 142.12ZM1481.8 141.887L1480 141.511C1480.8 138.278 1481.57 134.964 1482.31 131.686L1484.11 132.026C1483.38 135.313 1482.6 138.636 1481.8 141.887ZM414.983 122.354C414.32 119.049 413.684 115.708 413.102 112.412L414.92 112.144C415.502 115.431 416.138 118.762 416.801 122.049L414.983 122.354ZM1486.22 122.112L1484.41 121.807C1485.07 118.538 1485.7 115.198 1486.28 111.902L1488.1 112.171C1487.51 115.484 1486.87 118.834 1486.22 122.112ZM411.445 102.435C410.926 99.1127 410.442 95.7451 410.003 92.4314L411.83 92.2254C412.269 95.5302 412.753 98.8888 413.272 102.194L411.445 102.435ZM1489.75 102.203L1487.93 101.97C1488.44 98.6738 1488.93 95.3153 1489.36 92.0015L1491.19 92.2075C1490.75 95.5212 1490.26 98.8888 1489.75 102.203ZM408.776 82.4096C408.409 79.0779 408.078 75.7014 407.782 72.3608L409.618 72.2265C409.914 75.5492 410.245 78.9166 410.612 82.2394L408.776 82.4096ZM1492.4 82.1677L1490.56 82.0065C1490.93 78.6748 1491.26 75.3074 1491.56 71.9936L1493.39 72.1279C1493.11 75.4506 1492.77 78.8361 1492.4 82.1677ZM407.012 62.2941C406.788 58.9625 406.6 55.5771 406.457 52.2185L408.293 52.1469C408.445 55.4875 408.624 58.8729 408.848 62.1867L407.012 62.2941ZM1494.17 62.0523L1492.33 61.9538C1492.55 58.6221 1492.73 55.2368 1492.88 51.914L1494.71 51.9767C1494.57 55.3173 1494.39 58.7117 1494.17 62.0523ZM406.116 42.1609C406.036 38.8023 406.009 35.408 406 32.0763H407.836C407.836 35.408 407.872 38.7844 407.952 42.134L406.116 42.1609ZM1495.04 41.9011L1493.21 41.8653C1493.28 38.5247 1493.31 35.1482 1493.31 31.8165V31.2971H1495.16V31.8165C1495.16 35.1482 1495.11 38.5426 1495.04 41.9011ZM407.952 22.0186L406.107 21.9828C406.179 18.6332 406.287 15.2388 406.43 11.8982L408.275 11.9609C408.123 15.3016 408.015 18.678 407.952 22.0186ZM1493.2 21.2394C1493.12 17.9078 1493.01 14.5314 1492.86 11.2087L1494.69 11.1369C1494.85 14.4686 1494.96 17.854 1495.03 21.1946L1493.2 21.2394ZM408.812 1.9212L406.976 1.82258C407.191 -1.51804 407.451 -4.9034 407.737 -8.24403L409.573 -8.10966C409.287 -4.78695 409.027 -1.41047 408.812 1.9212ZM1492.3 1.16881C1492.08 -2.1539 1491.82 -5.53028 1491.52 -8.86194L1493.36 -8.99631C1493.65 -5.65569 1493.91 -2.27032 1494.14 1.0703L1492.3 1.16881ZM410.559 -18.1225L408.732 -18.2927C409.099 -21.6334 409.502 -25.0008 409.941 -28.3235L411.768 -28.1265C411.329 -24.8128 410.926 -21.4452 410.559 -18.1225ZM1490.52 -18.8749C1490.15 -22.1887 1489.74 -25.5471 1489.29 -28.8698L1491.12 -29.0759C1491.57 -25.7442 1491.98 -22.3767 1492.35 -19.054L1490.52 -18.8749ZM413.192 -38.0857L411.365 -38.3185C411.875 -41.6233 412.43 -44.9819 413.013 -48.2956L414.831 -48.0269C414.249 -44.7311 413.693 -41.3815 413.192 -38.0857ZM1487.86 -38.838C1487.34 -42.1517 1486.79 -45.4924 1486.19 -48.7793L1488.01 -49.0479C1488.6 -45.7521 1489.17 -42.3935 1489.68 -39.0798L1487.86 -38.838ZM416.703 -57.9414L414.893 -58.2458C415.547 -61.5417 416.255 -64.8734 416.989 -68.1513L418.789 -67.811C418.055 -64.542 417.356 -61.2193 416.703 -57.9414ZM1484.31 -58.6847C1483.65 -61.9537 1482.94 -65.2764 1482.21 -68.5543L1484.01 -68.8946C1484.74 -65.6078 1485.46 -62.276 1486.12 -58.9892L1484.31 -58.6847ZM421.091 -77.6448L419.3 -78.0119C420.106 -81.2809 420.957 -84.5857 421.834 -87.8278L423.617 -87.4247C422.748 -84.1916 421.897 -80.8958 421.091 -77.6448ZM1479.88 -78.3791C1479.07 -81.6302 1478.21 -84.9171 1477.34 -88.1592L1479.12 -88.5622C1480.01 -85.3111 1480.86 -82.0064 1481.67 -78.7463L1479.88 -78.3791ZM426.366 -97.16L424.584 -97.599C425.533 -100.841 426.536 -104.11 427.557 -107.316L429.322 -106.842C428.31 -103.653 427.315 -100.393 426.366 -97.16ZM1474.59 -97.8945C1473.63 -101.119 1472.63 -104.379 1471.6 -107.576L1473.37 -108.042C1474.4 -104.835 1475.39 -101.566 1476.35 -98.3333L1474.59 -97.8945ZM432.501 -116.478L430.746 -116.98C431.847 -120.204 432.994 -123.446 434.158 -126.617L435.904 -126.079C434.74 -122.918 433.603 -119.694 432.501 -116.478ZM1468.42 -117.195C1467.32 -120.383 1466.18 -123.598 1465.01 -126.76L1466.76 -127.297C1467.93 -124.136 1469.08 -120.903 1470.18 -117.705L1468.42 -117.195ZM439.523 -135.609L437.794 -136.173C439.039 -139.352 440.329 -142.541 441.636 -145.666L443.356 -145.066C442.057 -141.958 440.768 -138.779 439.523 -135.609ZM1461.39 -136.253C1460.15 -139.379 1458.86 -142.558 1457.55 -145.675L1459.27 -146.275C1460.59 -143.141 1461.88 -139.961 1463.11 -136.818L1461.39 -136.253ZM447.395 -154.461L445.693 -155.097C447.073 -158.214 448.506 -161.357 449.957 -164.438L451.649 -163.775C450.198 -160.695 448.774 -157.56 447.395 -154.461ZM1453.51 -155.025C1452.14 -158.097 1450.72 -161.205 1449.28 -164.268L1450.97 -164.931C1452.42 -161.868 1453.84 -158.742 1455.22 -155.661L1453.51 -155.025ZM456.1 -172.991L454.426 -173.681C455.948 -176.744 457.515 -179.825 459.101 -182.852L460.758 -182.126C459.181 -179.108 457.614 -176.036 456.1 -172.991ZM1444.84 -173.43C1443.34 -176.448 1441.78 -179.502 1440.2 -182.512L1441.86 -183.237C1443.45 -180.219 1445.01 -177.156 1446.52 -174.129L1444.84 -173.43ZM465.621 -191.172L463.973 -191.924C465.621 -194.916 467.331 -197.934 469.051 -200.907L470.681 -200.119C468.961 -197.155 467.26 -194.146 465.621 -191.172ZM1435.36 -191.504C1433.72 -194.468 1432.03 -197.468 1430.32 -200.406L1431.95 -201.194C1433.66 -198.238 1435.37 -195.238 1437.01 -192.256L1435.36 -191.504ZM475.938 -208.977L474.335 -209.792C476.126 -212.738 477.971 -215.694 479.807 -218.578L481.401 -217.727C479.556 -214.861 477.729 -211.914 475.938 -208.977ZM1425.07 -209.219C1423.3 -212.12 1421.48 -215.049 1419.63 -217.933L1421.22 -218.784C1423.06 -215.9 1424.9 -212.953 1426.68 -210.043L1425.07 -209.219ZM487.035 -226.379L485.467 -227.256C487.393 -230.131 489.354 -233.015 491.325 -235.827L492.874 -234.923C490.913 -232.119 488.951 -229.244 487.035 -226.379ZM1414.01 -226.549C1412.1 -229.397 1410.14 -232.263 1408.19 -235.057L1409.74 -235.962C1411.7 -233.158 1413.66 -230.283 1415.58 -227.426L1414.01 -226.549ZM498.893 -243.341L497.361 -244.282C499.385 -247.058 501.481 -249.87 503.586 -252.629L505.099 -251.662C503.003 -248.912 500.917 -246.118 498.893 -243.341ZM1402.19 -243.458C1400.15 -246.234 1398.08 -249.02 1396 -251.742L1397.5 -252.709C1399.59 -249.978 1401.68 -247.175 1403.72 -244.389L1402.19 -243.458ZM511.494 -259.856L510.007 -260.842C512.157 -263.546 514.378 -266.269 516.599 -268.947L518.068 -267.926C515.846 -265.266 513.634 -262.552 511.494 -259.856ZM1389.61 -259.928C1387.46 -262.633 1385.26 -265.338 1383.06 -267.989L1384.52 -269.001C1386.73 -266.35 1388.94 -263.627 1391.1 -260.913L1389.61 -259.928ZM524.803 -275.888L523.361 -276.936C525.626 -279.551 527.964 -282.193 530.302 -284.781L531.726 -283.715C529.388 -281.118 527.059 -278.494 524.803 -275.888ZM1376.33 -275.915C1374.07 -278.521 1371.74 -281.154 1369.42 -283.724L1370.84 -284.799C1373.18 -282.211 1375.51 -279.578 1377.77 -276.954L1376.33 -275.915ZM538.81 -291.409L537.413 -292.51C539.804 -295.054 542.258 -297.606 544.694 -300.096L546.064 -298.977C543.637 -296.487 541.201 -293.943 538.81 -291.409ZM1362.34 -291.418C1359.96 -293.961 1357.51 -296.505 1355.09 -298.968L1356.47 -300.087C1358.89 -297.606 1361.35 -295.063 1363.74 -292.51L1362.34 -291.418ZM1347.67 -306.392C1345.18 -308.828 1342.64 -311.282 1340.09 -313.674L1341.42 -314.847C1343.97 -312.447 1346.52 -309.984 1349.02 -307.539L1347.67 -306.392ZM553.489 -306.392L552.145 -307.539C554.635 -309.984 557.197 -312.447 559.749 -314.847L561.066 -313.674C558.522 -311.282 555.97 -308.828 553.489 -306.392ZM1332.36 -320.821C1329.75 -323.185 1327.09 -325.54 1324.47 -327.815L1325.74 -329.033C1328.37 -326.74 1331.04 -324.376 1333.65 -322.012L1332.36 -320.821ZM568.804 -320.821L567.505 -322.021C570.111 -324.385 572.78 -326.74 575.422 -329.042L576.685 -327.824C574.07 -325.531 571.41 -323.176 568.804 -320.821ZM1316.41 -334.667C1313.73 -336.915 1310.97 -339.172 1308.22 -341.375L1309.44 -342.638C1312.2 -340.425 1314.96 -338.16 1317.66 -335.912L1316.41 -334.667ZM584.746 -334.676L583.501 -335.92C586.206 -338.186 588.982 -340.443 591.722 -342.647L592.932 -341.384C590.2 -339.181 587.45 -336.924 584.746 -334.676ZM601.279 -347.922L600.096 -349.211C602.9 -351.37 605.766 -353.528 608.605 -355.624L609.76 -354.316C606.921 -352.221 604.073 -350.071 601.279 -347.922ZM1299.87 -347.931C1297.09 -350.071 1294.23 -352.23 1291.38 -354.334L1292.54 -355.642C1295.39 -353.528 1298.26 -351.37 1301.05 -349.22L1299.87 -347.931ZM618.367 -360.541L617.247 -361.866C620.158 -363.926 623.114 -365.977 626.024 -367.956L627.126 -366.604C624.215 -364.643 621.278 -362.601 618.367 -360.541ZM1282.75 -360.577C1279.85 -362.628 1276.9 -364.678 1273.98 -366.667L1275.07 -368.019C1278 -366.031 1280.97 -363.971 1283.87 -361.92L1282.75 -360.577ZM636.001 -372.524L634.936 -373.894C637.927 -375.847 640.972 -377.781 643.972 -379.653L645.011 -378.265C642.02 -376.402 638.984 -374.468 636.001 -372.524ZM1265.08 -372.578C1262.11 -374.503 1259.08 -376.438 1256.05 -378.328L1257.09 -379.716C1260.13 -377.817 1263.18 -375.874 1266.15 -373.939L1265.08 -372.578ZM654.146 -383.845L653.143 -385.251C656.197 -387.078 659.323 -388.896 662.431 -390.669L663.407 -389.245C660.299 -387.481 657.191 -385.663 654.146 -383.845ZM1246.88 -383.925C1243.82 -385.743 1240.7 -387.57 1237.59 -389.344L1238.57 -390.768C1241.68 -388.985 1244.82 -387.158 1247.88 -385.331L1246.88 -383.925ZM672.766 -394.475L671.817 -395.917C674.969 -397.637 678.167 -399.348 681.328 -400.986L682.242 -399.527C679.098 -397.888 675.901 -396.186 672.766 -394.475ZM1228.2 -394.583C1225.04 -396.302 1221.85 -398.013 1218.68 -399.652L1219.59 -401.112C1222.76 -399.455 1225.97 -397.744 1229.14 -396.025L1228.2 -394.583ZM691.834 -404.408L690.956 -405.886C694.153 -407.471 697.431 -409.065 700.682 -410.596L701.533 -409.101C698.282 -407.578 695.022 -405.993 691.834 -404.408ZM1209.04 -404.551C1205.81 -406.145 1202.54 -407.739 1199.29 -409.262L1200.14 -410.758C1203.39 -409.226 1206.67 -407.632 1209.91 -406.029L1209.04 -404.551ZM711.313 -413.624L710.498 -415.137C713.776 -416.615 717.117 -418.075 720.421 -419.49L721.201 -417.967C717.905 -416.552 714.582 -415.092 711.313 -413.624ZM1189.45 -413.803C1186.17 -415.28 1182.82 -416.74 1179.5 -418.155L1180.28 -419.678C1183.61 -418.263 1186.97 -416.794 1190.26 -415.316L1189.45 -413.803ZM731.178 -422.105L730.434 -423.645C733.766 -424.998 737.169 -426.332 740.537 -427.622L741.244 -426.064C737.895 -424.783 734.5 -423.448 731.178 -422.105ZM1169.46 -422.311C1166.12 -423.654 1162.71 -424.998 1159.32 -426.287L1160.03 -427.837C1163.43 -426.547 1166.86 -425.204 1170.21 -423.851L1169.46 -422.311ZM751.392 -429.834L750.72 -431.401C754.132 -432.628 757.598 -433.846 761.028 -435.011L761.673 -433.434C758.252 -432.27 754.795 -431.061 751.392 -429.834ZM1149.1 -430.076C1145.68 -431.303 1142.21 -432.512 1138.79 -433.667L1139.42 -435.244C1142.85 -434.079 1146.34 -432.87 1149.77 -431.634L1149.1 -430.076ZM772.018 -436.838L771.409 -438.423C774.883 -439.533 778.412 -440.617 781.869 -441.638L782.442 -440.044C778.994 -439.023 775.484 -437.939 772.018 -436.838ZM1128.39 -437.08C1124.92 -438.181 1121.4 -439.256 1117.93 -440.286L1118.49 -441.889C1121.99 -440.85 1125.52 -439.775 1129 -438.674L1128.39 -437.08ZM792.939 -443.062L792.402 -444.674C795.912 -445.642 799.477 -446.6 802.997 -447.504L803.498 -445.883C799.987 -444.979 796.432 -444.029 792.939 -443.062ZM1107.39 -443.295C1103.89 -444.253 1100.34 -445.203 1096.83 -446.098L1097.32 -447.719C1100.84 -446.824 1104.41 -445.874 1107.92 -444.907L1107.39 -443.295ZM814.111 -448.499L813.645 -450.129C817.201 -450.97 820.81 -451.785 824.357 -452.556L824.778 -450.917C821.249 -450.155 817.658 -449.34 814.111 -448.499ZM1086.2 -448.696C1082.65 -449.529 1079.06 -450.335 1075.51 -451.105L1075.93 -452.744C1079.48 -451.982 1083.09 -451.167 1086.64 -450.335L1086.2 -448.696ZM835.516 -453.138L835.131 -454.786C838.705 -455.493 842.341 -456.174 845.941 -456.81L846.29 -455.162C842.708 -454.526 839.081 -453.845 835.516 -453.138ZM1064.78 -453.308C1061.23 -454.007 1057.6 -454.678 1054.01 -455.314L1054.36 -456.962C1057.97 -456.326 1061.6 -455.646 1065.17 -454.947L1064.78 -453.308ZM857.109 -456.98L856.796 -458.637C860.396 -459.21 864.059 -459.756 867.686 -460.258L867.964 -458.592C864.355 -458.099 860.692 -457.553 857.109 -456.98ZM1043.19 -457.123C1039.6 -457.687 1035.94 -458.225 1032.33 -458.726L1032.6 -460.392C1036.23 -459.891 1039.89 -459.353 1043.5 -458.78L1043.19 -457.123ZM878.855 -460.016L878.613 -461.682C882.249 -462.121 885.93 -462.533 889.575 -462.9L889.781 -461.225C886.145 -460.867 882.473 -460.455 878.855 -460.016ZM1021.44 -460.124C1017.82 -460.553 1014.15 -460.956 1010.51 -461.324L1010.72 -462.998C1014.35 -462.631 1018.04 -462.228 1021.67 -461.798L1021.44 -460.124ZM900.717 -462.246L900.555 -463.921C904.209 -464.225 907.908 -464.494 911.553 -464.736L911.679 -463.052C908.043 -462.819 904.362 -462.551 900.717 -462.246ZM999.574 -462.318C995.92 -462.613 992.23 -462.882 988.603 -463.106L988.737 -464.79C992.373 -464.566 996.072 -464.297 999.735 -463.993L999.574 -462.318ZM922.659 -463.67L922.569 -465.354C926.224 -465.524 929.931 -465.658 933.594 -465.766L933.648 -464.082C930.003 -463.975 926.304 -463.84 922.659 -463.67ZM977.622 -463.706C973.986 -463.867 970.287 -464.002 966.633 -464.1L966.687 -465.784C970.359 -465.685 974.067 -465.551 977.712 -465.39L977.622 -463.706ZM944.637 -464.288L944.619 -465.972C948.291 -466.008 951.981 -466.008 955.653 -465.981L955.635 -464.297C951.972 -464.324 948.3 -464.324 944.637 -464.288Z" stroke="url(#paint3_linear)" stroke-miterlimit="10"/>
<path d="M950.584 491.372C882.715 491.372 816.879 479.218 754.893 455.261C695.031 432.118 641.268 398.981 595.09 356.771C548.921 314.561 512.667 265.419 487.348 210.697C461.134 154.041 447.843 93.8556 447.843 31.8168C447.843 -30.2221 461.134 -90.407 487.348 -147.063C512.667 -201.785 548.921 -250.936 595.09 -293.146C641.259 -335.347 695.031 -368.485 754.893 -391.636C816.879 -415.603 882.715 -427.747 950.584 -427.747C1018.45 -427.747 1084.29 -415.594 1146.27 -391.636C1206.14 -368.494 1259.91 -335.356 1306.08 -293.146C1352.25 -250.936 1388.5 -201.785 1413.82 -147.063C1440.03 -90.407 1453.33 -30.2221 1453.33 31.8168C1453.33 93.8556 1440.03 154.041 1413.82 210.697C1388.5 265.419 1352.25 314.57 1306.08 356.771C1259.91 398.981 1206.15 432.109 1146.27 455.261C1084.29 479.227 1018.44 491.372 950.584 491.372ZM950.584 -426.914C673.877 -426.914 448.765 -221.13 448.765 31.8079C448.765 284.746 673.886 490.53 950.584 490.53C1227.29 490.53 1452.4 284.746 1452.4 31.8079C1452.4 -221.13 1227.28 -426.914 950.584 -426.914Z" stroke="url(#paint4_linear)" stroke-miterlimit="10"/>
<path fill-rule="evenodd" clip-rule="evenodd" d="M141.691 99.811C129.888 109.958 128.54 127.747 138.687 139.55C148.834 151.349 166.622 152.697 178.426 142.555C190.225 132.408 191.573 114.619 181.426 102.816C171.284 91.0071 153.49 89.6643 141.691 99.811Z" fill="#FDB900"/>
<path d="M145.848 104.63C136.711 112.481 135.673 126.251 143.525 135.389C151.376 144.526 165.147 145.564 174.284 137.712C183.421 129.861 184.459 116.09 176.612 106.953C168.761 97.8207 154.986 96.7731 145.848 104.63Z" fill="#FDB900"/>
<path d="M145.848 104.63C141.501 108.363 139.011 113.443 138.416 118.719C139.235 114.276 141.51 110.077 145.205 106.901C153.795 99.5158 166.742 100.497 174.122 109.086C181.502 117.676 180.526 130.622 171.936 138.003C168.241 141.179 163.747 142.798 159.233 142.94C164.542 143.145 169.936 141.445 174.284 137.712C183.421 129.861 184.459 116.09 176.612 106.953C168.76 97.8207 154.985 96.7731 145.848 104.63Z" fill="#EDB92B"/>
<path fill-rule="evenodd" clip-rule="evenodd" d="M169.837 128.17C171.836 125.261 171.86 122.08 169.851 119.742C166.327 115.638 161.885 117.6 158.947 118.9C155.79 120.295 154.99 120.385 154.186 119.433C153.286 118.385 154.771 116.628 155.79 115.752C157.038 114.681 158.928 114.033 160.385 114.186C160.604 114.205 160.814 114.143 160.98 114.01C161.152 113.872 161.256 113.672 161.28 113.457L161.613 110.215C161.661 109.762 161.337 109.367 160.89 109.32C158.89 109.115 156.685 109.577 154.738 110.605L153.524 109.191C153.229 108.853 152.719 108.81 152.376 109.105L149.9 111.234C149.562 111.524 149.524 112.043 149.815 112.386L150.967 113.729C148.562 116.724 148.348 120.152 150.462 122.614C153.776 126.532 158.08 124.637 160.923 123.38C164.256 121.904 165.185 121.823 166.142 122.937C167.113 124.066 165.561 125.918 164.499 126.832C163.485 127.704 162.009 128.418 160.89 128.57C160.447 128.632 160.137 129.042 160.195 129.489L160.642 132.717C160.699 133.17 161.109 133.479 161.561 133.413C163.104 133.203 164.799 132.541 166.308 131.565L167.408 132.846C167.703 133.189 168.222 133.227 168.56 132.936L171.036 130.808C171.379 130.513 171.417 129.999 171.122 129.656L169.837 128.17Z" fill="white"/>
<path fill-rule="evenodd" clip-rule="evenodd" d="M86.7382 178.113C77.0291 174.732 66.4204 179.862 63.0393 189.568C59.6614 199.277 64.788 209.889 74.4972 213.266C84.2063 216.644 94.815 211.515 98.1961 201.805C101.577 192.103 96.4474 181.491 86.7382 178.113Z" fill="#FDB900"/>
<path d="M85.3634 182.085C77.8496 179.468 69.6375 183.438 67.0207 190.955C64.404 198.468 68.3732 206.68 75.8901 209.297C83.404 211.914 91.616 207.945 94.2328 200.431C96.8496 192.917 92.8772 184.702 85.3634 182.085Z" fill="#FDB900"/>
<path d="M85.3632 182.085C81.7903 180.84 78.0633 181.101 74.8489 182.51C77.6576 181.507 80.8122 181.412 83.8504 182.472C90.9176 184.932 94.6478 192.653 92.1883 199.717C89.7287 206.781 82.0074 210.515 74.9433 208.055C71.9051 206.998 69.4895 204.963 67.9106 202.431C69.5524 205.533 72.3139 208.052 75.8868 209.297C83.4007 211.914 91.6127 207.945 94.2295 200.431C96.8494 192.917 92.877 184.702 85.3632 182.085Z" fill="#EDB92B"/>
<path fill-rule="evenodd" clip-rule="evenodd" d="M79.8664 203.595C82.1907 203.774 84.018 202.733 84.6879 200.808C85.8642 197.433 83.2726 195.546 81.5553 194.298C79.7123 192.955 79.3946 192.527 79.6745 191.753C79.9733 190.891 81.4704 191.159 82.3102 191.448C83.3355 191.807 84.3325 192.671 84.7288 193.552C84.7886 193.684 84.8955 193.785 85.0276 193.835C85.1629 193.886 85.3138 193.882 85.4428 193.823L87.4085 192.939C87.6821 192.816 87.8017 192.502 87.679 192.228C87.1317 191.017 86.1379 189.91 84.9049 189.139L85.3107 187.979C85.4082 187.699 85.2603 187.391 84.9804 187.293L82.9455 186.582C82.6656 186.485 82.3573 186.636 82.2598 186.916L81.8761 188.02C79.3663 187.639 77.3377 188.655 76.6332 190.677C75.4915 193.87 78.0044 195.7 79.6651 196.908C81.6119 198.323 81.9674 198.827 81.6465 199.742C81.3226 200.67 79.75 200.399 78.8757 200.094C78.0422 199.805 77.1426 199.198 76.6866 198.61C76.5042 198.377 76.1676 198.336 75.9286 198.515L74.2334 199.839C73.9944 200.022 73.9534 200.358 74.139 200.594C74.7712 201.406 75.7116 202.154 76.7652 202.695L76.4004 203.746C76.3029 204.026 76.4539 204.337 76.7306 204.431L78.7656 205.142C79.0455 205.24 79.3537 205.089 79.4512 204.809L79.8664 203.595Z" fill="white"/>
<path fill-rule="evenodd" clip-rule="evenodd" d="M211.713 143.279C200.885 141.317 190.515 148.507 188.558 159.335C186.601 170.162 193.786 180.533 204.618 182.49C215.446 184.447 225.811 177.257 227.773 166.429C229.73 155.607 222.54 145.241 211.713 143.279Z" fill="#FDB900"/>
<path d="M210.922 147.712C202.542 146.193 194.519 151.759 193 160.139C191.481 168.519 197.047 176.542 205.428 178.061C213.808 179.58 221.831 174.014 223.35 165.634C224.869 157.254 219.303 149.226 210.922 147.712Z" fill="#FDB900"/>
<path d="M210.923 147.712C206.937 146.989 203.038 147.884 199.876 149.912C202.68 148.384 205.999 147.76 209.389 148.374C217.27 149.798 222.502 157.345 221.074 165.225C219.646 173.105 212.103 178.338 204.223 176.91C200.833 176.295 197.943 174.548 195.853 172.134C198.105 175.138 201.443 177.343 205.428 178.067C213.808 179.586 221.831 174.019 223.35 165.639C224.869 157.254 219.303 149.226 210.923 147.712Z" fill="#EDB92B"/>
<path d="M213.546 164.663C213.298 163.944 212.822 163.354 212.112 162.892L212.127 162.83C212.793 162.668 213.327 162.358 213.726 161.901C214.126 161.444 214.384 160.958 214.503 160.444C214.807 159.116 214.607 157.978 213.903 157.026C213.522 156.516 213.05 156.097 212.488 155.773L212.888 154.04C212.998 153.559 212.698 153.078 212.217 152.969L211.389 152.778C210.908 152.669 210.427 152.969 210.317 153.45L209.974 154.94L209.179 154.759L208.927 154.702L209.27 153.212C209.379 152.731 209.079 152.25 208.598 152.14L207.77 151.95C207.289 151.84 206.808 152.14 206.699 152.621L206.356 154.111L205.908 154.007L204.708 153.731C204.227 153.621 203.746 153.921 203.637 154.402L203.446 155.23C203.337 155.711 203.637 156.192 204.118 156.302L205.318 156.578L203.07 166.368L201.87 166.091C201.389 165.982 200.909 166.282 200.799 166.763L200.575 167.744C200.466 168.225 200.766 168.705 201.247 168.815L202.447 169.091L202.894 169.196L202.585 170.539C202.475 171.019 202.775 171.5 203.256 171.61L204.084 171.8C204.565 171.91 205.046 171.61 205.156 171.129L205.465 169.786L205.718 169.843L206.513 170.024L206.203 171.367C206.094 171.848 206.394 172.329 206.875 172.438L207.703 172.629C208.184 172.738 208.665 172.438 208.775 171.957L209.122 170.443C209.427 170.448 209.722 170.434 210.012 170.401C210.831 170.305 211.584 169.962 212.265 169.372C212.95 168.786 213.412 167.948 213.665 166.863C213.831 166.11 213.793 165.382 213.546 164.663ZM208.584 157.325L209.379 157.506L210.236 157.702C210.793 157.83 211.179 158.087 211.398 158.478C211.617 158.868 211.674 159.282 211.574 159.725C211.465 160.197 211.227 160.549 210.855 160.787C210.484 161.025 210.027 161.097 209.474 161.001L207.57 160.563L208.327 157.264L208.584 157.325ZM209.812 167.358C209.341 167.62 208.732 167.663 207.989 167.491L207.132 167.296L206.337 167.115L206.084 167.058L206.975 163.182L208.879 163.62C209.593 163.782 210.112 164.101 210.432 164.572C210.751 165.044 210.846 165.558 210.722 166.115C210.589 166.682 210.289 167.101 209.812 167.358Z" fill="#F9F9F9"/>
<g opacity="0.4">
<path d="M276.908 224.629C280.47 223.675 282.584 220.013 281.63 216.45C280.675 212.888 277.013 210.773 273.451 211.728C269.888 212.683 267.774 216.345 268.728 219.907C269.683 223.47 273.345 225.584 276.908 224.629Z" fill="#00E8D3"/>
<path d="M1883.05 106.467C1886.61 107.422 1888.72 111.084 1887.77 114.646C1886.81 118.209 1883.15 120.323 1879.59 119.369C1876.03 118.414 1873.91 114.752 1874.87 111.189C1875.82 107.627 1879.48 105.513 1883.05 106.467Z" fill="#00E8D3"/>
<path d="M154.769 252.809C158.332 251.854 160.446 248.192 159.491 244.629C158.537 241.067 154.875 238.953 151.312 239.907C147.749 240.862 145.635 244.524 146.59 248.086C147.544 251.649 151.206 253.763 154.769 252.809Z" fill="#00E8D3"/>
<path d="M1760.91 78.288C1764.47 79.2426 1766.58 82.9046 1765.63 86.4672C1764.68 90.0298 1761.01 92.144 1757.45 91.1894C1753.89 90.2348 1751.77 86.5729 1752.73 83.0103C1753.68 79.4477 1757.34 77.3334 1760.91 78.288Z" fill="#00E8D3"/>
<path d="M256.991 91.1895C260.553 90.2349 262.667 86.573 261.713 83.0104C260.758 79.4478 257.096 77.3335 253.534 78.2881C249.971 79.2427 247.857 82.9047 248.811 86.4673C249.766 90.0299 253.428 92.1441 256.991 91.1895Z" fill="#00E8D3"/>
<path d="M1863.13 239.907C1866.69 240.862 1868.81 244.524 1867.85 248.086C1866.9 251.649 1863.23 253.763 1859.67 252.809C1856.11 251.854 1854 248.192 1854.95 244.629C1855.9 241.067 1859.57 238.953 1863.13 239.907Z" fill="#00E8D3"/>
</g>
<path fill-rule="evenodd" clip-rule="evenodd" d="M1723.33 98.4167C1709.34 95.8821 1695.94 105.172 1693.42 119.162C1690.89 133.152 1700.17 146.551 1714.17 149.079C1728.16 151.608 1741.55 142.318 1744.08 128.328C1746.61 114.345 1737.32 100.945 1723.33 98.4167Z" fill="#FDB900"/>
<path d="M1722.31 104.138C1711.48 102.176 1701.12 109.367 1699.16 120.195C1697.19 131.023 1704.38 141.389 1715.21 143.352C1726.04 145.314 1736.41 138.122 1738.37 127.295C1740.33 116.467 1733.14 106.101 1722.31 104.138Z" fill="#FDB900"/>
<path d="M1722.31 104.138C1717.16 103.203 1712.12 104.36 1708.04 106.981C1711.66 105.006 1715.95 104.2 1720.33 104.993C1730.51 106.833 1737.27 116.584 1735.43 126.766C1733.58 136.948 1723.84 143.709 1713.66 141.863C1709.28 141.069 1705.54 138.812 1702.84 135.692C1705.75 139.574 1710.06 142.423 1715.21 143.358C1726.04 145.321 1736.41 138.129 1738.37 127.301C1740.33 116.467 1733.14 106.101 1722.31 104.138Z" fill="#EDB92B"/>
<path fill-rule="evenodd" clip-rule="evenodd" d="M1719.42 134.708C1722.64 134.456 1724.91 132.635 1725.41 129.866C1726.29 125 1722.34 122.982 1719.73 121.647C1716.92 120.207 1716.39 119.691 1716.61 118.577C1716.84 117.334 1718.93 117.377 1720.14 117.593C1721.62 117.864 1723.17 118.829 1723.9 119.949C1724.01 120.115 1724.18 120.232 1724.37 120.269C1724.56 120.306 1724.77 120.269 1724.93 120.164L1727.42 118.534C1727.77 118.306 1727.87 117.851 1727.64 117.507C1726.63 115.969 1725.04 114.671 1723.19 113.883L1723.49 112.21C1723.56 111.804 1723.29 111.416 1722.89 111.342L1719.96 110.807C1719.56 110.733 1719.16 111.004 1719.09 111.41L1718.8 113.003C1715.29 113.022 1712.73 114.843 1712.2 117.759C1711.33 122.367 1715.16 124.323 1717.69 125.621C1720.65 127.135 1721.24 127.75 1721 129.067C1720.76 130.402 1718.55 130.371 1717.29 130.143C1716.09 129.928 1714.73 129.288 1713.98 128.587C1713.68 128.304 1713.21 128.322 1712.93 128.624L1710.9 130.801C1710.61 131.103 1710.63 131.57 1710.93 131.853C1711.97 132.825 1713.42 133.65 1714.97 134.16L1714.7 135.674C1714.62 136.08 1714.89 136.467 1715.29 136.541L1718.23 137.077C1718.63 137.15 1719.02 136.88 1719.09 136.474L1719.42 134.708Z" fill="white"/>
<path fill-rule="evenodd" clip-rule="evenodd" d="M1751.68 183.801C1736.43 196.911 1734.69 219.895 1747.8 235.146C1760.91 250.391 1783.89 252.132 1799.14 239.028C1814.39 225.918 1816.13 202.934 1803.02 187.683C1789.92 172.426 1766.93 170.691 1751.68 183.801Z" fill="#FDB900"/>
<path d="M1757.05 190.027C1745.25 200.172 1743.9 217.964 1754.05 229.77C1764.19 241.576 1781.99 242.917 1793.79 232.772C1805.6 222.627 1806.94 204.835 1796.8 193.029C1786.65 181.23 1768.86 179.876 1757.05 190.027Z" fill="#FDB900"/>
<path d="M1757.05 190.027C1751.43 194.85 1748.22 201.415 1747.45 208.231C1748.51 202.491 1751.45 197.065 1756.22 192.962C1767.32 183.42 1784.05 184.687 1793.58 195.785C1803.12 206.884 1801.86 223.611 1790.76 233.147C1785.99 237.251 1780.18 239.342 1774.35 239.527C1781.2 239.792 1788.18 237.595 1793.79 232.772C1805.6 222.627 1806.94 204.835 1796.8 193.029C1786.65 181.23 1768.86 179.876 1757.05 190.027Z" fill="#EDB92B"/>
<path d="M1787.47 211.528C1786.31 210.439 1784.85 209.806 1783.09 209.633L1783.05 209.498C1784.13 208.545 1784.82 207.449 1785.11 206.213C1785.41 204.976 1785.41 203.82 1785.13 202.755C1784.4 199.993 1782.92 198.074 1780.68 196.997C1779.47 196.419 1778.19 196.105 1776.82 196.05L1775.87 192.444C1775.61 191.442 1774.59 190.851 1773.58 191.109L1771.85 191.565C1770.85 191.829 1770.26 192.851 1770.52 193.853L1771.34 196.954L1769.68 197.391L1769.15 197.532L1768.33 194.432C1768.07 193.429 1767.05 192.838 1766.05 193.097L1764.32 193.552C1763.31 193.816 1762.72 194.838 1762.98 195.84L1763.8 198.941L1762.87 199.187L1760.37 199.845C1759.36 200.11 1758.77 201.131 1759.03 202.134L1759.49 203.863C1759.75 204.866 1760.77 205.456 1761.78 205.198L1764.27 204.54L1769.65 224.903L1767.15 225.561C1766.15 225.826 1765.56 226.847 1765.82 227.85L1766.36 229.886C1766.62 230.889 1767.65 231.48 1768.65 231.221L1771.15 230.563L1772.08 230.317L1772.82 233.11C1773.08 234.113 1774.11 234.703 1775.11 234.445L1776.84 233.99C1777.84 233.725 1778.43 232.704 1778.17 231.701L1777.43 228.908L1777.96 228.767L1779.62 228.33L1780.36 231.123C1780.62 232.126 1781.64 232.716 1782.64 232.458L1784.37 232.003C1785.38 231.738 1785.97 230.717 1785.71 229.714L1784.88 226.564C1785.45 226.275 1785.99 225.961 1786.49 225.617C1787.92 224.638 1788.98 223.267 1789.67 221.513C1790.37 219.754 1790.41 217.748 1789.82 215.49C1789.42 213.94 1788.64 212.623 1787.47 211.528ZM1771.11 202.743L1772.77 202.306L1774.55 201.833C1775.71 201.525 1776.68 201.63 1777.47 202.134C1778.26 202.645 1778.77 203.358 1779.01 204.275C1779.27 205.253 1779.17 206.145 1778.72 206.951C1778.26 207.757 1777.48 208.335 1776.37 208.692L1772.4 209.738L1770.59 202.878L1771.11 202.743ZM1783.18 220.172C1782.55 221.113 1781.47 221.79 1779.93 222.202L1778.14 222.676L1776.48 223.113L1775.96 223.254L1773.83 215.189L1777.8 214.143C1779.28 213.749 1780.55 213.835 1781.6 214.401C1782.66 214.967 1783.34 215.829 1783.65 216.985C1783.96 218.16 1783.81 219.231 1783.18 220.172Z" fill="#F9F9F9"/>
<path fill-rule="evenodd" clip-rule="evenodd" d="M1873.33 129.417C1859.34 126.882 1845.94 136.172 1843.42 150.162C1840.89 164.152 1850.17 177.551 1864.17 180.079C1878.16 182.608 1891.55 173.318 1894.08 159.328C1896.61 145.345 1887.32 131.945 1873.33 129.417Z" fill="#FDB900"/>
<path d="M1872.31 135.144C1861.48 133.182 1851.12 140.374 1849.16 151.201C1847.19 162.029 1854.39 172.395 1865.21 174.358C1876.04 176.321 1886.41 169.129 1888.37 158.301C1890.33 147.473 1883.14 137.101 1872.31 135.144Z" fill="#FDB900"/>
<path d="M1872.31 135.144C1867.16 134.209 1862.12 135.366 1858.04 137.986C1861.66 136.012 1865.95 135.206 1870.33 135.999C1880.51 137.839 1887.27 147.59 1885.43 157.772C1883.58 167.953 1873.84 174.715 1863.66 172.869C1859.28 172.075 1855.54 169.817 1852.84 166.698C1855.75 170.58 1860.06 173.429 1865.21 174.364C1876.04 176.326 1886.41 169.135 1888.37 158.307C1890.33 147.473 1883.14 137.101 1872.31 135.144Z" fill="#EDB92B"/>
<path d="M1875.7 157.046C1875.38 156.117 1874.77 155.354 1873.85 154.757L1873.87 154.671C1874.73 154.462 1875.42 154.062 1875.93 153.471C1876.45 152.881 1876.78 152.253 1876.94 151.589C1877.33 149.873 1877.07 148.402 1876.16 147.172C1875.67 146.513 1875.06 145.972 1874.34 145.554L1874.85 143.314C1874.99 142.693 1874.61 142.072 1873.98 141.93L1872.91 141.684C1872.29 141.543 1871.67 141.93 1871.53 142.551L1871.09 144.477L1870.06 144.243L1869.73 144.169L1870.18 142.244C1870.32 141.622 1869.93 141.001 1869.31 140.86L1868.24 140.614C1867.62 140.472 1867 140.86 1866.85 141.481L1866.41 143.407L1865.83 143.271L1864.28 142.914C1863.66 142.773 1863.04 143.161 1862.9 143.782L1862.65 144.852C1862.51 145.474 1862.9 146.095 1863.52 146.237L1865.07 146.593L1862.17 159.242L1860.62 158.885C1859.99 158.744 1859.37 159.131 1859.23 159.753L1858.94 161.02C1858.8 161.641 1859.19 162.263 1859.81 162.404L1861.36 162.761L1861.94 162.897L1861.54 164.631C1861.4 165.253 1861.78 165.874 1862.41 166.016L1863.48 166.262C1864.1 166.403 1864.72 166.016 1864.86 165.394L1865.26 163.659L1865.59 163.733L1866.61 163.967L1866.21 165.702C1866.07 166.323 1866.46 166.945 1867.08 167.086L1868.15 167.332C1868.77 167.474 1869.4 167.086 1869.54 166.465L1869.99 164.508C1870.38 164.515 1870.76 164.496 1871.14 164.453C1872.19 164.33 1873.17 163.887 1874.05 163.124C1874.93 162.367 1875.53 161.285 1875.85 159.882C1876.07 158.916 1876.02 157.975 1875.7 157.046ZM1869.29 147.559L1870.32 147.793L1871.43 148.045C1872.15 148.211 1872.64 148.544 1872.93 149.048C1873.21 149.553 1873.28 150.088 1873.15 150.66C1873.01 151.269 1872.7 151.724 1872.23 152.032C1871.75 152.339 1871.15 152.432 1870.44 152.309L1867.98 151.743L1868.96 147.479L1869.29 147.559ZM1870.88 160.528C1870.27 160.866 1869.48 160.922 1868.52 160.7L1867.41 160.448L1866.39 160.214L1866.06 160.14L1867.21 155.133L1869.67 155.699C1870.59 155.908 1871.27 156.32 1871.68 156.929C1872.09 157.538 1872.21 158.202 1872.05 158.922C1871.88 159.654 1871.49 160.19 1870.88 160.528Z" fill="#F9F9F9"/>
</g>
<defs>
<radialGradient id="paint0_radial" cx="0" cy="0" r="1" gradientUnits="userSpaceOnUse" gradientTransform="translate(905.954 171.578) scale(1088.67 170.67)">
<stop offset="0.1868" stop-color="#00457F"/>
<stop offset="1" stop-color="#122861"/>
</radialGradient>
<linearGradient id="paint1_linear" x1="543.214" y1="31.8097" x2="1357.95" y2="31.8097" gradientUnits="userSpaceOnUse">
<stop offset="6.81957e-07" stop-color="white" stop-opacity="0"/>
<stop offset="0.1067" stop-color="#DBF1FC" stop-opacity="0.2091"/>
<stop offset="0.3418" stop-color="#82CFF6" stop-opacity="0.6701"/>
<stop offset="0.5101" stop-color="#3EB5F1"/>
<stop offset="0.5888" stop-color="#65C4F4" stop-opacity="0.8393"/>
<stop offset="0.7333" stop-color="#A6DDF9" stop-opacity="0.5443"/>
<stop offset="0.8549" stop-color="#D6EFFC" stop-opacity="0.2961"/>
<stop offset="0.9475" stop-color="#F4FBFE" stop-opacity="0.1072"/>
<stop offset="1" stop-color="white" stop-opacity="0"/>
</linearGradient>
<linearGradient id="paint2_linear" x1="495.838" y1="31.8241" x2="1405.32" y2="31.8241" gradientUnits="userSpaceOnUse">
<stop offset="6.81957e-07" stop-color="white" stop-opacity="0"/>
<stop offset="0.1067" stop-color="#DBF1FC" stop-opacity="0.2091"/>
<stop offset="0.3418" stop-color="#82CFF6" stop-opacity="0.6701"/>
<stop offset="0.5101" stop-color="#3EB5F1"/>
<stop offset="0.5888" stop-color="#65C4F4" stop-opacity="0.8393"/>
<stop offset="0.7333" stop-color="#A6DDF9" stop-opacity="0.5443"/>
<stop offset="0.8549" stop-color="#D6EFFC" stop-opacity="0.2961"/>
<stop offset="0.9475" stop-color="#F4FBFE" stop-opacity="0.1072"/>
<stop offset="1" stop-color="white" stop-opacity="0"/>
</linearGradient>
<linearGradient id="paint3_linear" x1="405.556" y1="31.7999" x2="1495.6" y2="31.7999" gradientUnits="userSpaceOnUse">
<stop offset="6.81957e-07" stop-color="white" stop-opacity="0"/>
<stop offset="0.1067" stop-color="#DBF1FC" stop-opacity="0.2091"/>
<stop offset="0.3418" stop-color="#82CFF6" stop-opacity="0.6701"/>
<stop offset="0.5101" stop-color="#3EB5F1"/>
<stop offset="0.5888" stop-color="#65C4F4" stop-opacity="0.8393"/>
<stop offset="0.7333" stop-color="#A6DDF9" stop-opacity="0.5443"/>
<stop offset="0.8549" stop-color="#D6EFFC" stop-opacity="0.2961"/>
<stop offset="0.9475" stop-color="#F4FBFE" stop-opacity="0.1072"/>
<stop offset="1" stop-color="white" stop-opacity="0"/>
</linearGradient>
<linearGradient id="paint4_linear" x1="447.392" y1="31.8099" x2="1453.77" y2="31.8099" gradientUnits="userSpaceOnUse">
<stop offset="6.81957e-07" stop-color="white" stop-opacity="0"/>
<stop offset="0.1067" stop-color="#DBF1FC" stop-opacity="0.2091"/>
<stop offset="0.3418" stop-color="#82CFF6" stop-opacity="0.6701"/>
<stop offset="0.5101" stop-color="#3EB5F1"/>
<stop offset="0.5888" stop-color="#65C4F4" stop-opacity="0.8393"/>
<stop offset="0.7333" stop-color="#A6DDF9" stop-opacity="0.5443"/>
<stop offset="0.8549" stop-color="#D6EFFC" stop-opacity="0.2961"/>
<stop offset="0.9475" stop-color="#F4FBFE" stop-opacity="0.1072"/>
<stop offset="1" stop-color="white" stop-opacity="0"/>
</linearGradient>
<clipPath id="clip0">
<rect width="1920" height="301" fill="white"/>
</clipPath>
</defs>
</svg>
