<svg width="966" height="430" viewBox="0 0 966 430" fill="none" xmlns="http://www.w3.org/2000/svg">
<path d="M789.583 250.242C789.722 275.545 788.053 298.762 784.856 319.337C784.578 320.866 784.439 322.396 784.161 323.925C782.492 333.935 780.546 343.249 778.183 351.869C777.766 353.398 777.349 354.788 776.932 356.178C768.173 386.903 755.236 408.354 742.028 416H184C184 416 136.172 373.974 126.718 315.027C126.44 313.498 126.301 311.969 126.023 310.44C122.269 281.106 128.247 247.601 153.967 212.845C165.645 196.996 181.076 186.014 198.871 178.367C200.262 177.811 201.652 177.255 203.042 176.699C229.318 166.411 260.181 163.214 291.183 162.658C292.712 162.658 294.381 162.658 295.91 162.658C314.4 162.519 332.751 163.353 350.129 164.048C351.797 164.187 353.466 164.187 354.995 164.326C383.217 165.577 408.519 166.411 427.009 163.075C428.677 162.797 430.346 162.38 431.875 161.962C452.311 156.958 462.321 145.419 455.092 120.533C441.051 72.2923 455.37 36.8413 486.65 17.378C488.18 16.4048 489.848 15.4316 491.516 14.4585C509.311 5.00485 531.555 0 556.857 0C558.664 0 560.472 0 562.279 0.139024C583.689 0.834142 607.184 5.00485 631.513 13.0682C644.581 17.3779 656.815 22.7999 668.076 28.9169C669.466 29.612 670.857 30.4462 672.247 31.2803C694.352 44.0705 713.12 60.1972 728.551 78.5483C729.664 79.7995 730.637 81.0508 731.61 82.302C771.649 131.655 789.166 195.606 789.583 250.242Z" fill="#BEE0FF"/>
<path d="M778.655 352.007C778.238 353.537 777.821 354.927 777.404 356.317C769.202 353.398 760.443 349.644 751.546 344.778C710.534 322.534 658.4 272.903 642.551 163.074C635.739 115.667 644.497 70.6236 668.41 28.9165C669.8 29.6116 671.19 30.4458 672.58 31.2799C651.588 67.8431 639.771 111.497 647 162.379C662.571 270.261 713.453 318.92 753.492 340.607C762.111 345.473 770.592 349.088 778.655 352.007Z" fill="white"/>
<path d="M785.328 319.476C785.05 321.006 784.911 322.535 784.633 324.064C758.774 311.969 726.104 285.416 710.95 228.138C696.214 172.528 702.053 123.175 729.023 78.6875C730.135 79.9387 731.109 81.1899 732.082 82.4411C706.501 125.538 701.079 173.363 715.399 227.026C729.857 281.801 760.582 307.52 785.328 319.476Z" fill="white"/>
<path d="M541.064 93.8409C543.288 166.828 534.947 213.957 514.094 246.628C492.267 280.967 455.982 301.681 396.341 313.915C385.219 316.14 374.236 317.391 363.392 317.391C329.748 317.391 298.19 306.408 270.385 284.998C238.132 260.113 213.385 222.577 199.205 178.645C200.595 178.089 201.986 177.533 203.376 176.977C217.278 220.213 241.468 257.055 273.027 281.523C308.617 309.049 350.88 318.642 395.228 309.606C506.308 286.945 540.508 234.533 536.337 93.9799C535.503 54.0802 542.454 22.5218 557.33 0C559.137 0 560.944 0 562.752 0.139024C547.181 21.9657 539.952 53.5241 541.064 93.8409Z" fill="white"/>
<path d="M402.596 244.821C398.008 245.516 393.282 245.933 388.416 245.933C352.687 245.933 311.675 224.245 291.655 163.075C293.185 163.075 294.853 163.075 296.382 163.075C318.348 228.833 365.477 246.489 401.901 240.511C451.115 232.448 498.383 181.843 489.208 103.712C485.315 70.2071 485.037 41.7073 487.261 17.5172C488.791 16.544 490.459 15.5708 492.127 14.5977C489.625 39.2048 489.625 68.5388 493.657 103.156C503.11 183.928 453.757 236.34 402.596 244.821Z" fill="white"/>
<path d="M432.346 162.102C430.678 170.026 427.62 177.95 422.476 184.762C415.664 193.799 405.932 199.082 393.837 200.611C392.447 200.75 390.917 200.889 389.527 200.889C382.02 200.889 375.069 198.248 368.952 193.104C360.888 186.292 354.91 175.726 350.601 164.326C352.269 164.465 353.937 164.465 355.466 164.604C359.498 174.753 364.781 183.928 371.732 189.767C377.988 195.05 385.217 197.136 393.142 196.162C404.125 194.772 412.744 190.045 418.861 182.121C423.171 176.56 425.812 169.887 427.481 163.214C429.149 162.797 430.817 162.519 432.346 162.102Z" fill="white"/>
<path d="M258.568 415.402H253.702C233.682 369.386 204.626 338.8 167.507 324.203C154.022 318.92 140.397 316.14 127.19 315.166C126.912 313.637 126.773 312.108 126.495 310.579C140.397 311.552 154.856 314.471 169.175 320.032C207.963 335.325 237.992 367.3 258.568 415.402Z" fill="white"/>
<path d="M161.667 276.797L147.765 291.116L141.926 282.636L139.98 279.855C133.863 281.385 124.687 269.29 121.072 262.894C117.458 256.499 132.055 246.49 132.055 246.49C129.692 239.399 120.099 234.951 119.821 232.865C119.543 230.919 121.907 228.834 130.526 232.865C139.146 236.897 146.792 251.356 146.792 251.356C148.321 247.185 141.509 235.785 142.76 234.534C144.011 233.282 150.684 234.812 155.967 245.795C161.111 256.777 158.053 269.568 158.053 269.568V269.707L161.667 276.797Z" fill="#98B2D8"/>
<path d="M131.639 245.238C131.639 245.238 141.926 257.055 140.814 261.643C139.702 266.231 134.558 260.948 134.558 260.948C134.558 260.948 139.285 266.509 137.756 268.316C136.226 270.124 130.527 265.536 130.527 265.536C130.527 265.536 137.339 274.016 130.527 272.765C123.714 271.514 115.095 258.585 121.629 257.334C121.629 257.334 120.795 247.88 126.912 251.077C126.773 250.938 124.131 243.153 131.639 245.238Z" fill="#B1C3E8"/>
<path d="M256.482 415.542C256.482 415.542 268.021 381.76 261.904 348.394C261.904 348.394 261.904 348.394 261.904 348.116C261.904 348.116 261.904 347.977 261.904 347.838C261.765 347.004 261.487 346.031 261.348 345.196C261.348 345.196 254.675 351.035 245.36 356.874C234.238 363.826 219.363 370.777 207.963 367.579C187.109 361.601 156.524 321.006 142.344 288.892C142.344 288.892 149.434 278.326 163.614 274.99C163.614 274.99 191.975 312.804 216.999 321.701C216.999 321.701 230.485 305.714 240.911 282.08C247.585 267.065 257.594 257.612 270.245 252.468C277.475 249.548 285.399 248.019 294.158 247.741L316.123 237.453C316.123 237.453 319.738 237.453 325.16 238.148C335.448 239.538 352.547 243.292 366.311 253.719C387.581 269.985 418.167 415.125 418.167 415.125H256.482V415.542Z" fill="#B7CAE5"/>
<path d="M261.904 348.116C261.765 347.143 261.487 346.17 261.348 345.197C261.348 345.197 254.675 351.036 245.36 356.875L251.894 301.543C258.429 326.985 261.626 345.892 261.904 348.116Z" fill="#97B3D1"/>
<path d="M325.02 238.426C321.683 259.975 300.135 279.716 284.564 279.438C272.052 279.16 270.244 261.365 270.105 252.607C277.335 249.687 285.259 248.158 294.018 247.88L315.983 237.592C315.983 237.592 319.459 237.731 325.02 238.426Z" fill="#97B3D1"/>
<path d="M287.9 393.577C287.9 393.577 337.254 342.277 339.339 288.197L353.937 333.657L348.376 381.065L287.9 393.577Z" fill="#97B3D1"/>
<path d="M286.372 415.542H231.041C231.041 415.542 231.18 408.035 239.66 405.532C248.141 403.03 253.702 392.325 279.282 393.715L286.372 415.542Z" fill="#98B2D8"/>
<path d="M342.956 364.66C342.956 364.66 316.958 379.674 275.946 390.24C275.946 390.24 270.246 404.003 280.256 415.403H359.638L342.956 364.66Z" fill="#B6C5DD"/>
<path d="M246.055 207.702C246.055 207.702 234.238 191.436 235.767 180.453C237.297 169.47 247.306 172.112 247.306 172.112C247.306 172.112 246.889 145.558 271.497 152.231C271.497 152.231 270.94 144.168 276.362 144.307C281.784 144.585 290.126 156.958 290.126 156.958C290.126 156.958 292.211 147.783 295.826 150.007C299.44 152.231 300.552 161.685 308.199 166.134C315.845 170.721 320.572 176.56 314.594 195.051C308.616 213.541 313.065 214.792 310.979 224.246C308.894 233.282 307.365 238.704 301.804 239.26C296.243 239.816 274.833 217.155 274.833 217.155L246.055 207.702Z" fill="#5D7CA0"/>
<path d="M315.983 237.592C315.983 237.592 302.22 270.819 287.901 268.316C280.671 267.065 279.142 262.755 279.142 257.611C279.142 250.938 281.645 243.292 277.752 239.955L294.991 215.348L298.745 209.926C298.745 210.204 303.332 223.69 315.983 237.592Z" fill="#C9DAF4"/>
<path d="M279.004 257.75C279.004 251.077 281.506 243.431 277.613 240.094L294.852 215.487C296.381 217.156 297.355 220.214 297.772 225.08C300.135 250.521 286.789 256.499 279.004 257.75Z" fill="#799CBF"/>
<path d="M244.386 194.773C244.386 194.773 249.113 237.592 266.49 247.324C281.644 255.665 300.134 230.363 299.856 217.851C299.856 217.851 306.529 212.846 305.417 204.644C304.305 196.441 295.685 199.222 294.573 212.429C294.573 212.429 287.483 211.873 286.232 195.468C281.783 199.083 277.056 197.97 272.051 193.522C272.051 193.522 269.549 202.697 256.759 191.992C256.62 191.714 251.893 198.387 244.386 194.773Z" fill="#C9DAF4"/>
<path d="M657.009 360.907C657.009 360.907 679.531 398.582 687.455 416.933H607.794C607.794 416.933 603.207 394.967 595.282 373.697L657.009 360.907Z" fill="#5D7CA0"/>
<path d="M626.007 369.248C621.697 383.706 615.024 396.079 605.153 405.394L607.795 416.794L511.451 415.543L522.156 349.506L626.007 369.248Z" fill="#799CBF"/>
<path d="M777.126 163.632C777.126 163.632 780.324 143.612 786.719 136.522C793.114 129.432 810.353 119.005 812.438 122.62C814.524 126.373 797.146 138.051 797.146 138.051C797.146 138.051 804.931 136.244 811.743 147.783C818.416 159.322 796.868 168.358 796.868 168.358L792.558 178.09L775.458 167.246L777.126 163.632Z" fill="#799CBF"/>
<path d="M799.37 138.607C799.37 138.607 789.639 148.478 791.168 151.258C792.558 154.039 797.98 149.59 797.98 149.59C797.98 149.59 793.67 156.263 797.007 157.932C800.343 159.6 805.626 153.9 805.626 153.9C805.626 153.9 801.317 159.878 803.819 160.99C806.321 162.102 819.668 152.649 817.304 150.424C814.941 148.2 813.551 150.007 813.551 150.007C813.551 150.007 816.331 145.28 813.551 143.751C810.492 142.083 808.963 145.002 808.963 145.002C808.963 145.002 811.187 141.388 809.38 139.997C807.573 138.607 803.68 140.415 803.68 140.415C803.68 140.415 804.792 134.576 799.37 138.607Z" fill="#98B2D8"/>
<path d="M790.473 138.329C787.553 137.495 781.575 143.612 781.575 143.612C779.212 146.671 778.795 152.649 778.656 155.429C778.378 163.214 775.458 167.246 775.458 167.246L784.217 172.668C791.029 164.049 788.804 152.788 787.692 148.895C790.751 144.029 792.141 138.746 790.473 138.329Z" fill="#C9DAF4"/>
<path d="M796.033 180.175C796.033 180.175 766.977 257.611 720.682 264.563C699.967 267.621 684.397 267.899 673.414 267.343C660.345 266.648 653.95 264.702 653.533 264.563C653.533 264.563 640.882 288.197 649.085 322.118C657.287 356.04 660.345 363.13 660.345 363.13C660.345 363.13 598.063 409.008 547.319 367.162L501.441 296.121L487.122 273.877C487.122 273.877 500.329 230.641 537.449 202.558C551.49 191.992 568.868 183.512 590.278 180.314C601.26 178.646 613.216 178.368 626.424 180.036C626.424 180.036 636.433 182.817 652.838 188.934C661.597 192.131 672.301 196.302 684.258 201.446C718.179 216.043 727.494 220.353 727.494 220.353C727.494 220.353 763.64 184.624 772.955 163.075C772.955 162.797 791.584 164.605 796.033 180.175Z" fill="#B7CAE5"/>
<path d="M562.612 215.488C562.473 232.866 558.719 249.688 557.051 262.756L585.829 256.917L630.594 301.126C630.594 301.126 636.294 314.056 624.755 316.28C615.719 318.087 573.456 323.926 573.456 323.926C563.724 337.133 559.275 357.431 554.409 377.172L511.451 302.656L562.612 215.488Z" fill="#97B3D1"/>
<path d="M626.284 219.658C606.264 214.515 595.699 196.581 590.138 180.176C601.121 178.507 613.077 178.229 626.284 179.898C626.284 179.898 636.294 182.678 652.698 188.795C654.645 203.115 653.95 226.749 626.284 219.658Z" fill="#97B3D1"/>
<path d="M678.836 235.507C678.836 235.507 674.526 252.329 673.414 267.204C660.345 266.509 653.95 264.563 653.533 264.424C653.533 264.424 664.933 245.099 678.836 235.507Z" fill="#97B3D1"/>
<path d="M628.925 308.633L579.016 315.862C577.487 316.14 576.096 315.028 575.957 313.638L564.975 237.592C564.696 236.063 565.809 234.672 567.199 234.533L617.108 227.304C618.638 227.026 620.028 228.138 620.167 229.529L631.15 305.574C631.428 306.965 630.316 308.355 628.925 308.633Z" fill="#F2F4F9"/>
<path d="M592.502 260.114L600.148 257.194C600.148 257.194 607.377 237.036 616.414 249.687C616.414 249.687 622.67 245.933 622.531 243.848C622.392 241.763 622.253 238.843 622.253 238.843C622.253 238.843 634.904 241.624 632.124 259.28C629.343 276.936 618.499 274.711 607.795 274.85L594.587 280.133L592.502 260.114Z" fill="#98B2D8"/>
<path d="M597.507 284.86C597.507 284.86 537.866 324.343 512.146 305.296C508.254 302.377 504.639 299.318 501.441 296.121L487.122 273.877C487.122 273.877 500.329 230.641 537.449 202.558C549.683 196.997 562.612 199.082 563.307 210.482C564.836 237.592 541.619 254.275 538.839 266.648L592.224 255.804C592.085 255.665 600.843 264.98 597.507 284.86Z" fill="#C1CFE5"/>
<path d="M667.435 138.607C667.435 138.607 675.916 120.395 672.44 109.968C668.965 99.5416 659.511 103.851 659.511 103.851C659.511 103.851 655.062 77.5758 632.123 88.9758C632.123 88.9758 631.15 80.9124 625.867 82.1636C620.584 83.4148 614.606 97.1782 614.606 97.1782C614.606 97.1782 610.853 88.5587 607.655 91.3392C604.458 94.1197 605.153 103.712 598.48 109.551C591.806 115.39 588.331 122.063 597.645 139.163C606.96 156.124 602.789 158.349 606.682 167.246C610.297 175.727 612.938 180.731 618.638 180.175C624.199 179.619 641.021 153.483 641.021 153.483L667.435 138.607Z" fill="#5D7CA0"/>
<path d="M604.458 181.149C604.458 181.149 617.665 213.68 638.38 208.258C645.47 206.451 645.47 198.944 644.636 193.939C643.524 187.405 639.492 180.314 642.69 176.422L621.141 155.568L616.414 150.98C616.275 150.98 614.19 165.022 604.458 181.149Z" fill="#C9DAF4"/>
<path d="M644.496 193.939C643.384 187.405 639.352 180.315 642.55 176.422L621.001 155.568C619.889 157.515 619.472 160.712 619.889 165.578C622.392 190.88 636.711 194.078 644.496 193.939Z" fill="#799CBF"/>
<path d="M666.74 125.539C666.74 125.539 670.216 168.498 654.784 181.288C641.438 192.41 618.499 171 616.553 158.488C616.553 158.488 609.045 154.734 608.628 146.532C608.211 138.33 617.248 139.303 620.723 152.093C620.723 152.093 627.535 150.286 625.728 133.881C630.733 136.661 635.182 134.576 639.352 129.293C639.352 129.293 643.523 137.912 654.089 124.844C654.089 124.983 660.067 130.544 666.74 125.539Z" fill="#C9DAF4"/>
<path d="M557.467 391.769C556.772 394.411 555.938 396.913 554.687 398.999C543.843 418.74 496.992 415.542 496.992 415.542H390.083C345.873 415.542 328.078 414.43 323.908 400.667C323.63 399.972 323.491 399.138 323.352 398.303C320.293 382.316 335.308 330.043 362.834 294.175C377.015 275.824 391.612 266.231 404.541 261.226C416.914 256.36 427.897 255.804 435.683 255.804C449.307 255.804 460.151 256.777 469.465 259.002C494.351 264.841 507.419 278.882 527.021 303.906C550.933 334.353 562.75 370.221 557.467 391.769Z" fill="#FF8200"/>
<path opacity="0.22" d="M369.368 378.979C380.907 360.767 384.661 335.464 387.858 309.745L397.868 362.018H485.175L501.163 309.745C500.745 334.213 504.082 358.125 515.76 381.064C515.899 381.064 458.76 445.71 369.368 378.979Z" fill="#1F395E"/>
<path d="M395.923 415.542H390.084C345.874 415.542 328.079 414.43 323.908 400.666C321.545 389.822 324.603 378.422 337.811 374.947C358.525 369.664 394.671 390.657 394.671 390.657L395.923 415.542Z" fill="#FF8200"/>
<path d="M557.468 391.769C556.772 394.41 555.938 396.913 554.687 398.998C543.843 418.739 496.992 415.542 496.992 415.542H465.295L469.327 388.71C469.327 388.71 525.492 362.713 545.651 370.776C555.521 374.669 558.58 382.871 557.468 391.769Z" fill="#FF8200"/>
<path d="M469.465 258.863C468.492 271.375 463.348 294.314 438.046 294.314C411.353 294.314 405.792 271.792 404.541 261.087C416.914 256.221 427.897 255.665 435.682 255.665C449.307 255.665 460.15 256.638 469.465 258.863Z" fill="#EA7700"/>
<path d="M492.543 415.542H390.083C387.58 415.542 385.634 413.595 385.634 411.093C385.634 408.59 387.58 406.644 390.083 406.644H492.543C495.045 406.644 496.992 408.59 496.992 411.093C496.992 413.456 495.045 415.542 492.543 415.542Z" fill="white"/>
<path d="M504.916 338.523L504.499 340.886L493.934 406.644H389.527L378.961 338.523C378.405 335.186 381.046 332.127 384.383 332.127H499.355C502.831 332.127 505.472 335.186 504.916 338.523Z" fill="white"/>
<path d="M437.629 284.86H436.934C432.902 284.86 429.565 284.026 426.924 282.775C420.39 279.855 416.358 272.904 416.497 265.675C416.497 264.98 416.497 264.284 416.497 263.45C416.497 257.472 416.08 252.467 416.08 252.467V249.826L453.755 248.158C453.895 253.58 454.451 258.445 455.285 262.199V262.338C457.37 273.738 449.168 284.443 437.629 284.86Z" fill="#EDC7A6"/>
<path d="M455.285 262.338C439.575 280.689 423.587 269.985 416.497 263.589C416.497 257.611 416.08 252.607 416.08 252.607V249.965L453.755 248.297C453.895 253.719 454.451 258.446 455.285 262.338Z" fill="#D8A37C"/>
<path d="M404.681 231.614C404.681 231.614 416.359 264.423 435.822 264.423C455.285 264.423 463.349 228.972 463.349 228.972V198.248H403.151L404.681 231.614Z" fill="#EDC7A6"/>
<path d="M398.424 213.124C398.424 213.124 392.724 214.236 393.697 220.77C394.67 227.304 400.648 235.367 405.514 231.058L398.424 213.124Z" fill="#EDC7A6"/>
<path d="M467.798 210.343C467.798 210.343 473.637 210.621 473.498 217.294C473.359 223.967 468.632 232.587 463.21 229.111L467.798 210.343Z" fill="#EDC7A6"/>
<path d="M467.797 210.343C467.797 210.343 465.712 221.882 463.209 229.111C463.209 229.111 458.621 228.138 457.092 216.043C457.092 216.043 447.082 217.989 440.826 208.536C440.826 208.536 439.297 217.85 429.704 211.177C423.309 216.46 415.663 217.016 407.183 213.402C407.183 213.402 408.573 225.636 404.541 231.475C404.541 231.475 403.012 226.609 398.285 212.985C398.285 212.985 396.2 213.124 394.949 214.931C394.949 214.931 384.661 194.772 389.527 185.041C394.392 175.309 400.927 179.063 400.927 179.063C400.927 179.063 398.563 165.856 412.883 160.99C427.202 156.124 427.202 149.59 429.426 150.98C431.651 152.231 432.624 157.097 432.624 157.097C432.624 157.097 457.37 154.456 464.182 181.148C464.182 181.148 482.116 181.704 471.412 211.733C471.412 211.872 470.716 210.621 467.797 210.343Z" fill="#23272A"/>
<path d="M787.551 430H107.03C105.64 430 104.667 428.888 104.667 427.637V417.905C104.667 416.515 105.779 415.542 107.03 415.542H787.551C788.941 415.542 789.914 416.654 789.914 417.905V427.637C790.053 428.888 788.941 430 787.551 430Z" fill="#122861" fill-opacity="0.8"/>
<path d="M648.388 379.535H619.332V404.698C619.332 410.537 624.059 415.264 629.898 415.264H637.683C643.522 415.264 648.249 410.537 648.249 404.698V379.535H648.388Z" fill="url(#paint0_linear)"/>
<path d="M628.507 379.535V371.749C628.507 370.498 629.48 369.386 630.871 369.386H633.79C635.041 369.386 636.154 368.413 636.154 367.022V364.242C636.154 362.991 635.18 361.879 633.79 361.879H624.337C617.802 361.879 612.52 356.596 612.52 350.062C612.52 343.528 617.802 338.245 624.337 338.245H636.849C638.1 338.245 639.212 337.271 639.212 335.881V335.047C639.212 328.374 644.634 322.813 651.446 322.813C658.119 322.813 663.68 328.235 663.68 335.047C663.68 342.276 657.841 348.254 650.473 348.254H628.368C627.117 348.254 626.005 349.227 626.005 350.618C626.005 351.869 626.978 352.981 628.368 352.981H640.463C644.912 352.981 648.527 356.596 648.527 361.044V366.049C648.527 370.498 644.912 374.113 640.463 374.113C639.212 374.113 638.1 375.086 638.1 376.476V379.813H628.507V379.535Z" fill="url(#paint1_linear)"/>
<path opacity="0.6" d="M374.746 112.888H298.283C295.363 112.888 293 110.524 293 107.605V11.1223C293 8.20276 295.363 5.83936 298.283 5.83936H374.746C377.665 5.83936 380.029 8.20276 380.029 11.1223V107.605C380.029 110.524 377.665 112.888 374.746 112.888Z" fill="#9ABCED"/>
<path d="M379.612 109.273H303.149C299.534 109.273 296.754 106.353 296.754 102.877V6.39509C296.754 2.78048 299.673 0 303.149 0H379.612C383.227 0 386.007 2.9195 386.007 6.39509V102.877C386.007 106.492 383.088 109.273 379.612 109.273ZM303.149 2.22439C300.786 2.22439 298.978 4.17072 298.978 6.39509V102.877C298.978 105.241 300.925 107.048 303.149 107.048H379.612C381.975 107.048 383.783 105.102 383.783 102.877V6.39509C383.783 4.03169 381.836 2.22439 379.612 2.22439H303.149Z" fill="#4F7EB7"/>
<path opacity="0.71" d="M323.029 40.0392H306.068V19.7417H323.029V40.0392ZM308.293 37.8148H320.805V21.9661H308.293V37.8148Z" fill="#7CA6D8"/>
<path d="M318.858 33.6442L313.854 28.0832L315.522 26.554L318.58 30.0296C320.11 27.9442 324.002 23.9125 331.092 20.854L331.927 22.9394C322.89 26.693 319.693 32.2539 319.553 32.393L318.858 33.6442Z" fill="#EA9BA1"/>
<path d="M366.405 27.2492H340.129C339.156 27.2492 338.461 26.5541 338.461 25.5809C338.461 24.6077 339.156 23.9126 340.129 23.9126H366.405C367.378 23.9126 368.073 24.6077 368.073 25.5809C368.073 26.5541 367.239 27.2492 366.405 27.2492Z" fill="#9ABCED"/>
<path d="M366.405 35.3122H340.129C339.156 35.3122 338.461 34.617 338.461 33.6439C338.461 32.6707 339.156 31.9756 340.129 31.9756H366.405C367.378 31.9756 368.073 32.6707 368.073 33.6439C368.073 34.617 367.239 35.3122 366.405 35.3122Z" fill="#9ABCED"/>
<path opacity="0.71" d="M323.029 71.1802H306.068V50.8828H323.029V71.1802ZM308.293 68.9559H320.805V53.1072H308.293V68.9559Z" fill="#7CA6D8"/>
<path d="M318.858 64.7853L313.854 59.2243L315.522 57.6951L318.58 61.1707C320.11 59.0853 324.002 55.0536 331.092 51.9951L331.927 54.0805C322.89 57.8341 319.693 63.395 319.553 63.5341L318.858 64.7853Z" fill="#EA9BA1"/>
<path d="M366.405 58.3903H340.129C339.156 58.3903 338.461 57.6952 338.461 56.722C338.461 55.7488 339.156 55.0537 340.129 55.0537H366.405C367.378 55.0537 368.073 55.7488 368.073 56.722C368.073 57.6952 367.239 58.3903 366.405 58.3903Z" fill="#9ABCED"/>
<path d="M366.405 66.4533H340.129C339.156 66.4533 338.461 65.7581 338.461 64.785C338.461 63.8118 339.156 63.1167 340.129 63.1167H366.405C367.378 63.1167 368.073 63.8118 368.073 64.785C368.073 65.7581 367.239 66.4533 366.405 66.4533Z" fill="#9ABCED"/>
<path opacity="0.71" d="M323.029 102.321H306.068V82.0239H323.029V102.321ZM308.293 100.097H320.805V84.2483H308.293V100.097Z" fill="#7CA6D8"/>
<path d="M318.858 96.0651L313.854 90.5041L315.522 88.9749L318.58 92.4504C320.11 90.3651 324.002 86.3334 331.092 83.2749L331.927 85.3603C322.89 89.1139 319.693 94.6748 319.553 94.8138L318.858 96.0651Z" fill="#EA9BA1"/>
<path d="M366.405 89.5309H340.129C339.156 89.5309 338.461 88.8358 338.461 87.8626C338.461 86.8894 339.156 86.1943 340.129 86.1943H366.405C367.378 86.1943 368.073 86.8894 368.073 87.8626C368.073 88.8358 367.239 89.5309 366.405 89.5309Z" fill="#9ABCED"/>
<path d="M366.405 97.733H340.129C339.156 97.733 338.461 97.0379 338.461 96.0648C338.461 95.0916 339.156 94.3965 340.129 94.3965H366.405C367.378 94.3965 368.073 95.0916 368.073 96.0648C368.073 96.8989 367.239 97.733 366.405 97.733Z" fill="#9ABCED"/>
<path opacity="0.6" d="M875.833 190.74H799.37C796.45 190.74 794.087 188.377 794.087 185.458V88.8361C794.087 85.9166 796.45 83.5532 799.37 83.5532H875.833C878.752 83.5532 881.116 85.9166 881.116 88.8361V185.319C881.255 188.377 878.891 190.74 875.833 190.74Z" fill="#9ABCED"/>
<path d="M882.644 185.735H806.181C802.567 185.735 799.786 182.816 799.786 179.34V82.7188C799.786 79.1042 802.706 76.3237 806.181 76.3237H882.644C886.259 76.3237 889.039 79.2432 889.039 82.7188V179.34C889.039 182.816 886.12 185.735 882.644 185.735ZM806.181 78.5481C803.818 78.5481 802.011 80.4944 802.011 82.7188V179.34C802.011 181.704 803.957 183.511 806.181 183.511H882.644C885.008 183.511 886.815 181.565 886.815 179.34V82.7188C886.815 80.3554 884.869 78.5481 882.644 78.5481H806.181Z" fill="#4F7EB7"/>
<g opacity="0.5">
<path opacity="0.5" d="M831.104 115.348C832.823 108.101 828.341 100.834 821.094 99.1157C813.848 97.3975 806.58 101.879 804.862 109.126C803.144 116.372 807.626 123.64 814.872 125.358C822.119 127.076 829.386 122.595 831.104 115.348Z" fill="#7CA6D8"/>
<path opacity="0.5" d="M821.613 110.385L830.511 94.397C838.713 96.4823 842.606 104.129 838.713 112.053L821.613 110.385Z" fill="#E83F54"/>
<g opacity="0.5">
<path opacity="0.5" d="M813.132 140.136C813.132 142.36 811.325 144.028 809.239 144.028C807.015 144.028 805.347 142.221 805.347 140.136C805.347 137.911 807.154 136.243 809.239 136.243C811.464 136.243 813.132 138.05 813.132 140.136Z" fill="#9ABCED"/>
<path opacity="0.5" d="M813.132 157.514C813.132 159.738 811.325 161.406 809.239 161.406C807.015 161.406 805.347 159.599 805.347 157.514C805.347 155.428 807.154 153.621 809.239 153.621C811.464 153.621 813.132 155.428 813.132 157.514Z" fill="#9ABCED"/>
<path opacity="0.5" d="M864.292 144.168H833.012C830.787 144.168 829.119 142.36 829.119 140.275C829.119 138.051 830.926 136.382 833.012 136.382H864.292C866.516 136.382 868.185 138.19 868.185 140.275C868.185 142.36 866.377 144.168 864.292 144.168Z" fill="#9ABCED"/>
<path opacity="0.5" d="M864.292 161.406H833.012C830.787 161.406 829.119 159.599 829.119 157.514C829.119 155.289 830.926 153.621 833.012 153.621H864.292C866.516 153.621 868.185 155.428 868.185 157.514C868.185 159.738 866.377 161.406 864.292 161.406Z" fill="#9ABCED"/>
<path opacity="0.5" d="M813.132 175.17C813.132 177.394 811.325 179.063 809.239 179.063C807.015 179.063 805.347 177.255 805.347 175.17C805.347 173.085 807.154 171.277 809.239 171.277C811.464 171.277 813.132 172.946 813.132 175.17Z" fill="#9ABCED"/>
<path opacity="0.5" d="M864.292 179.063H833.012C830.787 179.063 829.119 177.255 829.119 175.17C829.119 172.946 830.926 171.277 833.012 171.277H864.292C866.516 171.277 868.185 173.085 868.185 175.17C868.185 177.394 866.377 179.063 864.292 179.063Z" fill="#9ABCED"/>
</g>
</g>
<path opacity="0.6" d="M222.559 159.32H146.096C143.177 159.32 140.813 156.957 140.813 154.038V39.4821C140.813 36.5626 143.177 34.1992 146.096 34.1992H222.559C225.479 34.1992 227.842 36.5626 227.842 39.4821V153.899C227.842 156.957 225.479 159.32 222.559 159.32Z" fill="#9ABCED"/>
<path d="M217.694 155.567H141.231C137.616 155.567 134.836 152.648 134.836 149.172V34.6168C134.836 31.0022 137.755 28.2217 141.231 28.2217H217.694C221.309 28.2217 224.089 31.1412 224.089 34.6168V149.033C224.089 152.648 221.17 155.567 217.694 155.567ZM141.231 30.4461C138.868 30.4461 137.06 32.3924 137.06 34.6168V149.033C137.06 151.397 139.007 153.204 141.231 153.204H217.694C220.057 153.204 221.865 151.258 221.865 149.033V34.6168C221.865 32.2534 219.918 30.4461 217.694 30.4461H141.231Z" fill="#4F7EB7"/>
<path d="M180.157 85.6381L179.045 86.6113C178.35 87.1673 177.238 87.1673 176.682 86.4722L165.421 73.8211L169.036 70.6235L180.296 83.2747C180.992 83.9698 180.853 85.082 180.157 85.6381Z" fill="#7CA6D8"/>
<path d="M161.667 50.7437C154.577 50.7437 148.738 56.4436 148.738 63.6728C148.738 70.9021 154.577 76.602 161.667 76.602C168.758 76.602 174.597 70.9021 174.597 63.6728C174.597 56.4436 168.758 50.7437 161.667 50.7437ZM161.667 72.4313C156.802 72.4313 152.909 68.5387 152.909 63.6728C152.909 58.807 156.802 54.9144 161.667 54.9144C166.533 54.9144 170.426 58.807 170.426 63.6728C170.426 68.3996 166.533 72.4313 161.667 72.4313Z" fill="#7CA6D8"/>
<path d="M213.801 57.8342H193.504C192.253 57.8342 191.141 56.722 191.141 55.4708C191.141 54.2196 192.253 53.1074 193.504 53.1074H213.801C215.053 53.1074 216.165 54.2196 216.165 55.4708C216.165 56.722 215.053 57.8342 213.801 57.8342Z" fill="#9ABCED"/>
<path d="M213.801 69.9289H193.504C192.253 69.9289 191.141 68.8168 191.141 67.5655C191.141 66.3143 192.253 65.2021 193.504 65.2021H213.801C215.053 65.2021 216.165 66.3143 216.165 67.5655C216.165 68.9558 215.053 69.9289 213.801 69.9289Z" fill="#9ABCED"/>
<path d="M213.801 81.1897H193.504C192.253 81.1897 191.141 80.0775 191.141 78.8263C191.141 77.5751 192.253 76.4629 193.504 76.4629H213.801C215.053 76.4629 216.165 77.5751 216.165 78.8263C216.165 80.0775 215.053 81.1897 213.801 81.1897Z" fill="#9ABCED"/>
<path d="M188.499 112.331H157.219C155.689 112.331 154.577 111.08 154.577 109.69C154.577 108.161 155.828 107.048 157.219 107.048H188.499C190.028 107.048 191.14 108.3 191.14 109.69C191.14 111.08 189.889 112.331 188.499 112.331Z" fill="#9ABCED"/>
<path d="M188.499 128.875H157.219C155.689 128.875 154.577 127.623 154.577 126.233C154.577 124.704 155.828 123.592 157.219 123.592H188.499C190.028 123.592 191.14 124.843 191.14 126.233C191.14 127.763 189.889 128.875 188.499 128.875Z" fill="#9ABCED"/>
<path d="M188.499 145.558H157.219C155.689 145.558 154.577 144.307 154.577 142.916C154.577 141.387 155.828 140.275 157.219 140.275H188.499C190.028 140.275 191.14 141.526 191.14 142.916C191.14 144.446 189.889 145.558 188.499 145.558Z" fill="#9ABCED"/>
<path d="M212.967 109.689C212.967 112.053 211.021 113.999 208.657 113.999C206.294 113.999 204.348 112.053 204.348 109.689C204.348 107.326 206.294 105.379 208.657 105.379C211.16 105.379 212.967 107.326 212.967 109.689Z" fill="#9ABCED"/>
<path d="M212.967 126.234C212.967 128.597 211.021 130.543 208.657 130.543C206.294 130.543 204.348 128.597 204.348 126.234C204.348 123.87 206.294 121.924 208.657 121.924C211.16 122.063 212.967 123.87 212.967 126.234Z" fill="#9ABCED"/>
<path d="M212.967 142.917C212.967 145.28 211.021 147.226 208.657 147.226C206.294 147.226 204.348 145.28 204.348 142.917C204.348 140.553 206.294 138.607 208.657 138.607C211.16 138.607 212.967 140.553 212.967 142.917Z" fill="#9ABCED"/>
<path opacity="0.6" d="M950.033 338.475H810.176C805.032 338.475 801 334.304 801 329.299V236.431C801 231.288 805.171 227.256 810.176 227.256H950.033C955.177 227.256 959.209 231.427 959.209 236.431V329.299C959.348 334.443 955.177 338.475 950.033 338.475Z" fill="#9ABCED"/>
<path d="M954.899 334.582H815.042C809.342 334.582 804.754 329.995 804.754 324.295V231.288C804.754 225.588 809.342 221 815.042 221H954.899C960.599 221 965.187 225.588 965.187 231.288V324.156C965.326 329.855 960.599 334.582 954.899 334.582ZM815.042 223.085C810.593 223.085 806.978 226.7 806.978 231.149V324.016C806.978 328.465 810.593 332.08 815.042 332.08H954.899C959.348 332.08 962.963 328.465 962.963 324.016V231.288C962.963 226.839 959.348 223.224 954.899 223.224H815.042V223.085Z" fill="#4F7EB7"/>
<path opacity="0.5" d="M898.316 249.778H820.741C818.516 249.778 816.709 247.971 816.709 245.747C816.709 243.522 818.516 241.715 820.741 241.715H898.316C900.54 241.715 902.348 243.522 902.348 245.747C902.348 247.971 900.54 249.778 898.316 249.778Z" fill="#9ABCED"/>
<path opacity="0.71" d="M899.567 309.419H819.628C818.099 309.419 816.709 308.168 816.709 306.499V267.017C816.709 265.487 817.96 264.097 819.628 264.097H899.567C901.096 264.097 902.487 265.348 902.487 267.017V306.638C902.348 308.168 901.096 309.419 899.567 309.419Z" fill="#7CA6D8"/>
<path opacity="0.5" d="M939.468 249.778H916.529C914.304 249.778 912.497 247.97 912.497 245.746C912.497 243.522 914.304 241.714 916.529 241.714H939.468C941.692 241.714 943.499 243.522 943.499 245.746C943.499 247.97 941.692 249.778 939.468 249.778Z" fill="#9ABCED"/>
<path opacity="0.5" d="M940.996 271.327H916.945C915.555 271.327 914.442 270.214 914.442 268.824C914.442 267.434 915.555 266.322 916.945 266.322H940.996C942.386 266.322 943.498 267.434 943.498 268.824C943.498 270.214 942.386 271.327 940.996 271.327Z" fill="#9ABCED"/>
<path opacity="0.5" d="M940.996 282.726H916.945C915.555 282.726 914.442 281.614 914.442 280.224C914.442 278.833 915.555 277.721 916.945 277.721H940.996C942.386 277.721 943.498 278.833 943.498 280.224C943.498 281.614 942.386 282.726 940.996 282.726Z" fill="#9ABCED"/>
<path opacity="0.5" d="M940.996 294.126H916.945C915.555 294.126 914.442 293.014 914.442 291.624C914.442 290.234 915.555 289.122 916.945 289.122H940.996C942.386 289.122 943.498 290.234 943.498 291.624C943.498 293.014 942.386 294.126 940.996 294.126Z" fill="#9ABCED"/>
<path opacity="0.5" d="M940.996 305.526H916.945C915.555 305.526 914.442 304.414 914.442 303.023C914.442 301.633 915.555 300.521 916.945 300.521H940.996C942.386 300.521 943.498 301.633 943.498 303.023C943.498 304.414 942.386 305.526 940.996 305.526Z" fill="#9ABCED"/>
<path opacity="0.5" d="M924.592 327.214H835.339C833.531 327.214 832.002 325.685 832.002 323.878C832.002 322.07 833.531 320.541 835.339 320.541H924.592C926.399 320.541 927.928 322.07 927.928 323.878C927.928 325.685 926.538 327.214 924.592 327.214Z" fill="#9ABCED"/>
<path opacity="0.6" d="M146.794 274.988H14.3042C10.1334 274.988 6.79688 271.652 6.79688 267.481V187.265C6.79688 183.094 10.1334 179.757 14.3042 179.757H146.794C150.964 179.757 154.301 183.094 154.301 187.265V267.481C154.162 271.652 150.825 274.988 146.794 274.988Z" fill="#9ABCED"/>
<path d="M141.232 270.678H8.88118C4.15438 270.678 0.261719 266.786 0.261719 262.059V181.842C0.261719 177.115 4.15438 173.223 8.88118 173.223H141.371C146.097 173.223 149.99 177.115 149.99 181.842V262.059C149.851 266.786 146.097 270.678 141.232 270.678ZM8.88118 175.447C5.40559 175.447 2.4861 178.228 2.4861 181.842V262.059C2.4861 265.534 5.26657 268.454 8.88118 268.454H141.371C144.846 268.454 147.766 265.673 147.766 262.059V181.842C147.766 178.367 144.985 175.447 141.371 175.447H8.88118Z" fill="#4F7EB7"/>
<g opacity="0.5">
<path opacity="0.5" d="M59.9036 223.827C56.428 227.303 51.7012 229.388 46.4183 229.388C35.9915 229.388 27.3721 220.908 27.3721 210.342C27.3721 199.776 35.8525 191.296 46.4183 191.296C48.5037 191.296 50.589 191.713 52.5353 192.269L46.4183 210.203L59.9036 223.827Z" fill="#7CA6D8"/>
<path opacity="0.5" d="M67.9676 208.952C67.9676 213.401 66.1603 217.433 63.2408 220.352L51.8408 208.952L56.9847 193.66C63.3798 195.745 67.9676 201.862 67.9676 208.952Z" fill="#E83F54"/>
<path opacity="0.5" d="M132.057 230.5H88.4033V193.659C88.4033 193.103 88.9594 192.547 89.5155 192.547C90.0716 192.547 90.6277 193.103 90.6277 193.659V228.276H132.057C132.613 228.276 133.169 228.832 133.169 229.388C133.169 229.944 132.752 230.5 132.057 230.5Z" fill="#9ABCED"/>
<path opacity="0.5" d="M103.139 211.455H97.5781V228.137H103.139V211.455Z" fill="#9ABCED"/>
<path opacity="0.5" d="M114.679 202.974H109.118V228.276H114.679V202.974Z" fill="#E83F54"/>
<path opacity="0.5" d="M126.079 215.625H120.518V228.276H126.079V215.625Z" fill="#9ABCED"/>
<path opacity="0.5" d="M54.7599 247.601H28.4844C27.3722 247.601 26.5381 246.767 26.5381 245.654C26.5381 244.542 27.3722 243.708 28.4844 243.708H54.7599C55.8721 243.708 56.7062 244.542 56.7062 245.654C56.7062 246.767 55.8721 247.601 54.7599 247.601Z" fill="#9ABCED"/>
<path opacity="0.5" d="M94.798 247.601H68.5225C67.4103 247.601 66.5762 246.767 66.5762 245.654C66.5762 244.542 67.4103 243.708 68.5225 243.708H94.798C95.9102 243.708 96.7443 244.542 96.7443 245.654C96.8833 246.767 95.9102 247.601 94.798 247.601Z" fill="#9ABCED"/>
<path opacity="0.5" d="M132.614 247.601H106.199C105.087 247.601 104.253 246.767 104.253 245.654C104.253 244.542 105.087 243.708 106.199 243.708H132.475C133.587 243.708 134.421 244.542 134.421 245.654C134.56 246.767 133.587 247.601 132.614 247.601Z" fill="#9ABCED"/>
<path opacity="0.5" d="M71.9991 261.642H45.7237C44.6115 261.642 43.7773 260.808 43.7773 259.695C43.7773 258.583 44.6115 257.749 45.7237 257.749H71.9991C73.1113 257.749 73.9455 258.583 73.9455 259.695C73.9455 260.669 73.1113 261.642 71.9991 261.642Z" fill="#9ABCED"/>
<path opacity="0.5" d="M109.674 261.642H83.3985C82.2863 261.642 81.4521 260.808 81.4521 259.695C81.4521 258.583 82.2863 257.749 83.3985 257.749H109.674C110.786 257.749 111.62 258.583 111.62 259.695C111.62 260.669 110.786 261.642 109.674 261.642Z" fill="#9ABCED"/>
</g>
<defs>
<linearGradient id="paint0_linear" x1="619.234" y1="397.496" x2="648.336" y2="397.496" gradientUnits="userSpaceOnUse">
<stop stop-color="#1F3A65"/>
<stop offset="1" stop-color="#294A7A"/>
</linearGradient>
<linearGradient id="paint1_linear" x1="660.795" y1="297.536" x2="623.857" y2="370.852" gradientUnits="userSpaceOnUse">
<stop stop-color="#E2E8F7"/>
<stop offset="1" stop-color="white"/>
</linearGradient>
</defs>
</svg>
