<svg width="560" height="338" viewBox="0 0 560 338" fill="none" xmlns="http://www.w3.org/2000/svg">
<g opacity="0.62">
<path opacity="0.62" d="M1.05322 279.308C0.847712 279.308 0.642206 279.282 0.4367 279.231L1.43854 274.216C0.693582 274.036 0.128441 274.371 0 274.499C0.411012 274.113 1.77249 272.107 5.6771 261.975C8.52849 254.594 12.1248 244.539 16.2863 232.915C27.4607 201.618 42.7966 158.749 60.2132 121.254C69.7692 100.706 79.017 83.8362 87.6996 71.1579C98.0006 56.1394 107.968 46.3414 117.318 42.0467C124.485 38.7807 131.447 38.5749 138.023 41.5066C154.258 48.7073 168.258 61.3856 180.871 80.313C191.737 96.6173 200.009 115.236 207.33 131.695C217.014 153.477 225.389 172.301 236.229 178.448C239.62 180.376 242.368 180.762 244.68 179.656C251.642 176.313 255.521 159.212 259.631 141.107C264.589 119.145 270.24 94.2514 283.315 77.7671C288.864 70.7979 294.798 65.9888 301.015 63.4686C306.872 61.1027 312.857 60.8198 318.817 62.62C336.156 67.8662 350.901 90.7797 354.703 118.348C355.551 124.571 356.244 130.589 356.912 136.427C359.353 157.797 361.459 176.287 370.167 182.305C374.277 185.16 379.98 185.34 387.61 182.871C393.595 180.916 398.99 172.687 404.102 157.643C408.88 143.524 412.81 125.42 416.971 106.235C421.621 84.7363 426.45 62.4914 432.872 44.284C436.392 34.3317 440.065 26.5396 444.072 20.419C448.696 13.3984 453.885 8.61509 459.485 6.19773C463.518 4.449 467.783 4.78332 472.175 7.20068C481.834 12.524 492.084 27.8511 503.464 54.0821C512.326 74.4496 521.702 101.221 531.412 133.624C547.879 188.734 559.669 241.865 559.798 242.379L555.097 243.562C554.968 243.022 543.229 190.071 526.814 135.167C517.181 102.969 507.856 76.4041 499.097 56.2423C488.308 31.4514 478.52 16.4844 469.966 11.7782C466.858 10.0552 464.032 9.79806 461.309 10.981C452.19 14.9157 444.355 26.411 437.393 46.1356C431.074 64.0087 426.296 86.0735 421.672 107.418C417.485 126.757 413.529 145.016 408.648 159.417C402.92 176.287 396.678 185.314 389.023 187.808C379.955 190.74 372.942 190.354 367.547 186.625C356.964 179.296 354.832 160.652 352.134 137.07C351.466 131.283 350.798 125.291 349.925 119.119C348.23 106.827 344.068 94.92 338.186 85.5849C332.329 76.2498 324.956 69.8721 317.481 67.609C307.051 64.4459 296.519 69.1263 286.989 81.1102C274.633 96.6688 269.161 120.945 264.306 142.341C259.554 163.378 255.778 180.016 246.658 184.362C242.959 186.137 238.695 185.674 233.968 182.999C221.741 176.056 213.032 156.537 202.988 133.932C188.654 101.709 170.827 61.6427 136.199 46.2899C130.804 43.8983 125.256 44.0783 119.27 46.83C103.215 54.1849 84.8225 80.0044 64.5802 123.568C47.215 160.806 31.9562 203.547 20.8075 234.741C16.2606 247.497 12.3047 258.503 9.29914 266.116C7.68078 270.179 6.42206 273.11 5.39453 275.091C4.54682 276.711 3.21103 279.308 1.05322 279.308Z" fill="url(#paint0_linear)"/>
</g>
<g opacity="0.28">
<path opacity="0.28" d="M125.923 51.2531C130.392 51.2531 134.015 47.4076 134.015 42.6638C134.015 37.92 130.392 34.0745 125.923 34.0745C121.454 34.0745 117.831 37.92 117.831 42.6638C117.831 47.4076 121.454 51.2531 125.923 51.2531Z" fill="#00E8D3"/>
</g>
<path d="M125.924 46.9843C128.166 46.9843 129.983 45.05 129.983 42.6639C129.983 40.2778 128.166 38.3435 125.924 38.3435C123.682 38.3435 121.865 40.2778 121.865 42.6639C121.865 45.05 123.682 46.9843 125.924 46.9843Z" fill="#00E8D3"/>
<g opacity="0.28">
<path opacity="0.28" d="M64.1182 127.323C68.5871 127.323 72.21 123.477 72.21 118.734C72.21 113.99 68.5871 110.144 64.1182 110.144C59.6492 110.144 56.0264 113.99 56.0264 118.734C56.0264 123.477 59.6492 127.323 64.1182 127.323Z" fill="#00E8D3"/>
</g>
<path d="M64.1183 123.054C66.3599 123.054 68.177 121.12 68.177 118.734C68.177 116.348 66.3599 114.413 64.1183 114.413C61.8767 114.413 60.0596 116.348 60.0596 118.734C60.0596 121.12 61.8767 123.054 64.1183 123.054Z" fill="#00E8D3"/>
<g opacity="0.28">
<path opacity="0.28" d="M425.887 82.9104C430.356 82.9104 433.979 79.0648 433.979 74.321C433.979 69.5773 430.356 65.7317 425.887 65.7317C421.418 65.7317 417.795 69.5773 417.795 74.321C417.795 79.0648 421.418 82.9104 425.887 82.9104Z" fill="#00E8D3"/>
</g>
<path d="M425.886 78.6414C428.127 78.6414 429.945 76.7071 429.945 74.321C429.945 71.9349 428.127 70.0006 425.886 70.0006C423.644 70.0006 421.827 71.9349 421.827 74.321C421.827 76.7071 423.644 78.6414 425.886 78.6414Z" fill="#00E8D3"/>
<g opacity="0.28">
<path opacity="0.28" d="M278.563 97.4402C283.031 97.4402 286.654 93.5946 286.654 88.8508C286.654 84.1071 283.031 80.2615 278.563 80.2615C274.094 80.2615 270.471 84.1071 270.471 88.8508C270.471 93.5946 274.094 97.4402 278.563 97.4402Z" fill="#00E8D3"/>
</g>
<path d="M278.564 93.1713C280.805 93.1713 282.622 91.237 282.622 88.8509C282.622 86.4648 280.805 84.5305 278.564 84.5305C276.322 84.5305 274.505 86.4648 274.505 88.8509C274.505 91.237 276.322 93.1713 278.564 93.1713Z" fill="#00E8D3"/>
<g opacity="0.28">
<path opacity="0.28" d="M461.927 17.1787C466.396 17.1787 470.019 13.3331 470.019 8.58935C470.019 3.84558 466.396 0 461.927 0C457.458 0 453.835 3.84558 453.835 8.58935C453.835 13.3331 457.458 17.1787 461.927 17.1787Z" fill="#00E8D3"/>
</g>
<path d="M461.927 12.9097C464.168 12.9097 465.986 10.9754 465.986 8.58931C465.986 6.20323 464.168 4.26892 461.927 4.26892C459.685 4.26892 457.868 6.20323 457.868 8.58931C457.868 10.9754 459.685 12.9097 461.927 12.9097Z" fill="#00E8D3"/>
<path d="M281.955 293.581C266.208 293.581 250.923 290.752 236.512 285.197C222.615 279.822 210.131 272.107 199.419 262.309C188.707 252.511 180.281 241.067 174.398 228.363C168.31 215.197 165.228 201.207 165.228 186.78C165.228 172.353 168.31 158.363 174.398 145.196C180.281 132.466 188.681 121.048 199.419 111.25C210.131 101.452 222.615 93.737 236.512 88.3623C250.898 82.7817 266.182 79.9786 281.955 79.9786C297.702 79.9786 312.986 82.8075 327.397 88.3623C341.295 93.737 353.779 101.452 364.491 111.25C375.203 121.048 383.629 132.492 389.512 145.196C395.6 158.363 398.682 172.353 398.682 186.78C398.682 201.207 395.6 215.197 389.512 228.363C383.629 241.093 375.229 252.511 364.491 262.309C353.779 272.107 341.295 279.822 327.397 285.197C312.986 290.752 297.702 293.581 281.955 293.581ZM281.955 80.1844C217.734 80.1844 165.51 127.992 165.51 186.754C165.51 245.516 217.76 293.324 281.955 293.324C346.175 293.324 398.4 245.516 398.4 186.754C398.4 127.992 346.15 80.1844 281.955 80.1844Z" stroke="url(#paint1_linear)" stroke-miterlimit="10"/>
<path d="M281.981 306.002C281.467 306.002 280.928 306.002 280.414 306.002V305.513C280.928 305.513 281.467 305.513 281.981 305.513C282.52 305.513 283.034 305.513 283.573 305.513V306.002C283.034 306.002 282.52 306.002 281.981 306.002ZM277.228 305.925C276.175 305.899 275.122 305.848 274.069 305.796L274.094 305.308C275.148 305.359 276.201 305.41 277.254 305.436L277.228 305.925ZM286.733 305.925L286.707 305.436C287.761 305.41 288.814 305.359 289.867 305.308L289.893 305.796C288.865 305.848 287.786 305.899 286.733 305.925ZM270.909 305.59C269.856 305.513 268.803 305.41 267.749 305.308L267.801 304.819C268.828 304.922 269.907 305.025 270.935 305.102L270.909 305.59ZM293.078 305.565L293.027 305.076C294.08 304.999 295.133 304.896 296.161 304.793L296.212 305.282C295.184 305.41 294.131 305.488 293.078 305.565ZM264.59 304.948C263.537 304.819 262.483 304.69 261.456 304.536L261.533 304.047C262.56 304.202 263.614 304.33 264.667 304.459L264.59 304.948ZM299.397 304.948L299.32 304.459C300.374 304.33 301.401 304.202 302.454 304.047L302.531 304.536C301.478 304.665 300.425 304.819 299.397 304.948ZM258.322 304.047C257.294 303.867 256.241 303.687 255.214 303.482L255.316 303.019C256.344 303.225 257.397 303.405 258.425 303.585L258.322 304.047ZM305.64 304.047L305.537 303.585C306.564 303.405 307.618 303.225 308.645 303.019L308.748 303.482C307.746 303.662 306.693 303.867 305.64 304.047ZM252.105 302.864C251.078 302.633 250.05 302.402 249.023 302.17L249.151 301.707C250.153 301.939 251.206 302.17 252.208 302.402L252.105 302.864ZM311.856 302.839L311.728 302.376C312.755 302.144 313.783 301.913 314.785 301.682L314.913 302.144C313.937 302.402 312.884 302.633 311.856 302.839ZM245.966 301.399C244.964 301.141 243.936 300.859 242.935 300.576L243.089 300.113C244.091 300.396 245.118 300.679 246.12 300.936L245.966 301.399ZM317.996 301.373L317.842 300.91C318.843 300.653 319.871 300.37 320.873 300.087L321.027 300.55C320.025 300.833 319.023 301.116 317.996 301.373ZM239.903 299.65C238.902 299.341 237.9 299.007 236.898 298.673L237.078 298.21C238.054 298.544 239.081 298.878 240.058 299.187L239.903 299.65ZM324.058 299.65L323.878 299.187C324.88 298.878 325.882 298.544 326.858 298.21L327.038 298.673C326.062 299.007 325.06 299.316 324.058 299.65ZM233.918 297.644C232.942 297.284 231.94 296.924 230.964 296.538L231.169 296.101C232.146 296.487 233.122 296.847 234.098 297.207L233.918 297.644ZM330.018 297.618L329.812 297.181C330.788 296.821 331.765 296.461 332.715 296.075L332.92 296.512C331.97 296.898 330.994 297.284 330.018 297.618ZM228.087 295.381C227.111 294.969 226.16 294.558 225.21 294.147L225.441 293.709C226.391 294.121 227.342 294.532 228.318 294.944L228.087 295.381ZM335.823 295.355L335.618 294.918C336.568 294.532 337.519 294.121 338.469 293.684L338.7 294.121C337.75 294.558 336.774 294.969 335.823 295.355ZM341.526 292.835L341.295 292.398C342.22 291.961 343.17 291.498 344.069 291.035L344.326 291.446C343.401 291.935 342.451 292.398 341.526 292.835ZM222.358 292.835C221.434 292.398 220.483 291.935 219.558 291.472L219.815 291.035C220.74 291.498 221.69 291.961 222.615 292.398L222.358 292.835ZM347.075 290.058L346.818 289.646C347.717 289.158 348.642 288.669 349.541 288.18L349.823 288.592C348.899 289.08 347.974 289.569 347.075 290.058ZM216.784 290.032C215.859 289.543 214.96 289.055 214.061 288.54L214.344 288.129C215.243 288.617 216.142 289.132 217.067 289.62L216.784 290.032ZM352.469 287.049L352.187 286.637C353.06 286.123 353.959 285.583 354.807 285.043L355.115 285.454C354.267 285.969 353.368 286.509 352.469 287.049ZM211.364 286.997C210.49 286.483 209.591 285.943 208.718 285.403L209.026 284.991C209.9 285.531 210.773 286.072 211.672 286.586L211.364 286.997ZM357.71 283.783L357.401 283.397C358.249 282.831 359.097 282.265 359.945 281.7L360.253 282.085C359.431 282.651 358.557 283.217 357.71 283.783ZM206.098 283.731C205.224 283.166 204.377 282.6 203.529 282.008L203.837 281.623C204.659 282.188 205.533 282.78 206.38 283.346L206.098 283.731ZM362.77 280.285L362.436 279.9C363.258 279.308 364.08 278.691 364.877 278.074L365.211 278.434C364.44 279.077 363.592 279.694 362.77 280.285ZM201.037 280.234C200.215 279.642 199.393 279.025 198.571 278.408L198.905 278.048C199.701 278.665 200.523 279.282 201.345 279.874L201.037 280.234ZM367.651 276.582L367.291 276.222C368.088 275.579 368.884 274.936 369.655 274.293L370.014 274.653C369.244 275.296 368.447 275.939 367.651 276.582ZM196.156 276.505C195.36 275.862 194.564 275.219 193.793 274.576L194.153 274.216C194.923 274.859 195.72 275.528 196.516 276.145L196.156 276.505ZM372.326 272.647L371.967 272.287C372.712 271.619 373.482 270.95 374.227 270.256L374.612 270.59C373.842 271.31 373.071 271.979 372.326 272.647ZM191.481 272.596C190.71 271.927 189.966 271.233 189.221 270.564L189.606 270.23C190.351 270.924 191.096 271.593 191.841 272.262L191.481 272.596ZM376.796 268.533L376.411 268.199C377.13 267.504 377.849 266.784 378.543 266.064L378.928 266.398C378.235 267.093 377.515 267.813 376.796 268.533ZM187.037 268.456C186.318 267.761 185.598 267.041 184.879 266.321L185.265 265.987C185.958 266.707 186.677 267.427 187.397 268.121L187.037 268.456ZM381.035 264.212L380.624 263.904C381.317 263.184 381.985 262.438 382.653 261.692L383.064 262.001C382.396 262.721 381.702 263.467 381.035 264.212ZM182.798 264.135C182.105 263.389 181.437 262.644 180.769 261.898L181.18 261.589C181.848 262.335 182.516 263.081 183.209 263.801L182.798 264.135ZM385.042 259.686L384.631 259.378C385.273 258.606 385.915 257.835 386.532 257.063L386.969 257.346C386.326 258.143 385.684 258.941 385.042 259.686ZM178.791 259.635C178.149 258.863 177.507 258.092 176.89 257.32L177.327 257.037C177.943 257.809 178.586 258.58 179.228 259.352L178.791 259.635ZM388.792 255.006L388.356 254.723C388.972 253.926 389.563 253.129 390.128 252.331L390.565 252.589C390 253.411 389.409 254.234 388.792 255.006ZM175.041 254.954C174.45 254.157 173.833 253.36 173.268 252.563L173.705 252.306C174.296 253.103 174.887 253.9 175.477 254.697L175.041 254.954ZM392.312 250.171L391.875 249.914C392.44 249.091 393.005 248.268 393.519 247.445L393.981 247.702C393.442 248.525 392.877 249.348 392.312 250.171ZM171.547 250.12C170.982 249.297 170.442 248.474 169.903 247.651L170.365 247.394C170.905 248.217 171.444 249.04 172.009 249.863L171.547 250.12ZM395.574 245.182L395.112 244.951C395.625 244.128 396.139 243.253 396.627 242.405L397.09 242.636C396.602 243.485 396.088 244.333 395.574 245.182ZM168.31 245.156C167.797 244.308 167.283 243.459 166.795 242.61L167.257 242.379C167.745 243.228 168.259 244.076 168.773 244.899L168.31 245.156ZM398.554 240.039L398.092 239.833C398.554 238.984 399.016 238.11 399.479 237.236L399.967 237.441C399.479 238.29 399.016 239.164 398.554 240.039ZM165.33 240.039C164.868 239.19 164.406 238.29 163.943 237.441L164.431 237.236C164.868 238.11 165.33 238.984 165.819 239.833L165.33 240.039ZM162.633 234.793C162.197 233.918 161.786 233.018 161.4 232.118L161.888 231.938C162.274 232.812 162.71 233.713 163.121 234.587L162.633 234.793ZM401.251 234.767L400.763 234.561C401.2 233.687 401.611 232.787 401.996 231.887L402.484 232.067C402.099 232.992 401.688 233.893 401.251 234.767ZM160.244 229.418C159.859 228.518 159.499 227.592 159.14 226.692L159.628 226.538C159.987 227.438 160.347 228.363 160.732 229.238L160.244 229.418ZM403.666 229.392L403.178 229.212C403.563 228.312 403.923 227.386 404.282 226.486L404.77 226.64C404.437 227.566 404.051 228.466 403.666 229.392ZM158.112 223.966C157.778 223.04 157.47 222.114 157.162 221.189L157.675 221.06C157.984 221.986 158.292 222.912 158.626 223.812L158.112 223.966ZM405.798 223.889L405.284 223.734C405.618 222.809 405.926 221.883 406.235 220.957L406.748 221.086C406.466 222.037 406.132 222.963 405.798 223.889ZM156.288 218.385C156.006 217.46 155.749 216.508 155.492 215.582L156.006 215.479C156.263 216.405 156.519 217.357 156.802 218.283L156.288 218.385ZM407.622 218.334L407.108 218.205C407.391 217.28 407.648 216.328 407.904 215.402L408.418 215.531C408.187 216.457 407.904 217.382 407.622 218.334ZM154.747 212.753C154.516 211.802 154.31 210.85 154.105 209.925L154.619 209.822C154.824 210.773 155.03 211.725 155.261 212.651L154.747 212.753ZM409.163 212.676L408.649 212.573C408.881 211.622 409.086 210.67 409.292 209.745L409.805 209.848C409.6 210.773 409.394 211.751 409.163 212.676ZM153.514 207.07C153.334 206.119 153.18 205.167 153.026 204.216L153.54 204.138C153.694 205.09 153.848 206.041 154.028 206.993L153.514 207.07ZM410.37 206.993L409.857 206.916C410.037 205.964 410.191 205.013 410.345 204.061L410.859 204.138C410.73 205.064 410.55 206.041 410.37 206.993ZM152.615 201.31C152.486 200.358 152.384 199.381 152.281 198.429L152.795 198.378C152.897 199.329 153 200.307 153.129 201.258L152.615 201.31ZM411.295 201.232L410.781 201.181C410.91 200.23 411.013 199.252 411.115 198.301L411.629 198.352C411.526 199.304 411.424 200.281 411.295 201.232ZM151.998 195.549C151.921 194.598 151.87 193.62 151.818 192.643L152.358 192.617C152.409 193.569 152.461 194.546 152.538 195.498L151.998 195.549ZM411.912 195.472L411.398 195.446C411.475 194.495 411.526 193.517 411.578 192.566L412.117 192.592C412.04 193.543 411.989 194.52 411.912 195.472ZM151.69 189.737C151.664 188.76 151.639 187.783 151.639 186.831H152.178C152.178 187.783 152.204 188.76 152.229 189.711L151.69 189.737ZM412.22 189.66H411.681C411.706 188.708 411.706 187.731 411.706 186.78V186.625H412.246V186.78C412.246 187.731 412.246 188.708 412.22 189.66ZM152.204 183.951H151.664C151.69 182.999 151.716 182.022 151.767 181.045L152.307 181.071C152.255 182.022 152.229 182.999 152.204 183.951ZM411.681 183.719C411.655 182.768 411.604 181.791 411.552 180.839L412.092 180.813C412.143 181.791 412.194 182.768 412.22 183.719H411.681ZM152.512 178.165L151.973 178.139C152.05 177.187 152.127 176.21 152.229 175.233L152.743 175.284C152.666 176.236 152.589 177.213 152.512 178.165ZM411.372 177.933C411.295 176.982 411.193 176.004 411.09 175.053L411.604 175.002C411.706 175.953 411.809 176.93 411.886 177.882L411.372 177.933ZM153.103 172.404L152.589 172.353C152.718 171.401 152.846 170.424 153 169.472L153.514 169.55C153.385 170.501 153.231 171.453 153.103 172.404ZM410.756 172.173C410.627 171.221 410.473 170.244 410.345 169.318L410.859 169.241C411.013 170.193 411.167 171.17 411.27 172.121L410.756 172.173ZM154.028 166.695L153.514 166.618C153.694 165.666 153.874 164.715 154.079 163.763L154.593 163.866C154.387 164.792 154.182 165.744 154.028 166.695ZM409.831 166.464C409.651 165.512 409.471 164.561 409.266 163.609L409.78 163.506C409.985 164.458 410.165 165.409 410.345 166.361L409.831 166.464ZM155.235 161.012L154.721 160.909C154.952 159.957 155.184 159.006 155.441 158.08L155.954 158.183C155.697 159.134 155.466 160.086 155.235 161.012ZM408.598 160.78C408.367 159.854 408.136 158.903 407.879 157.977L408.393 157.849C408.649 158.774 408.881 159.726 409.112 160.677L408.598 160.78ZM156.751 155.405L156.237 155.277C156.519 154.351 156.802 153.4 157.11 152.474L157.624 152.602C157.316 153.528 157.008 154.48 156.751 155.405ZM407.082 155.174C406.8 154.248 406.517 153.322 406.209 152.397L406.723 152.268C407.031 153.194 407.314 154.12 407.596 155.045L407.082 155.174ZM158.549 149.851L158.035 149.696C158.369 148.771 158.703 147.845 159.063 146.945L159.551 147.099C159.217 148.025 158.883 148.951 158.549 149.851ZM405.259 149.645C404.925 148.745 404.591 147.819 404.231 146.919L404.719 146.765C405.079 147.665 405.413 148.591 405.747 149.516L405.259 149.645ZM160.681 144.399L160.193 144.219C160.578 143.319 160.963 142.419 161.375 141.518L161.863 141.699C161.452 142.573 161.041 143.499 160.681 144.399ZM403.126 144.193C402.741 143.293 402.356 142.393 401.97 141.493L402.459 141.313C402.87 142.213 403.255 143.113 403.64 144.013L403.126 144.193ZM163.07 139.024L162.582 138.818C163.019 137.944 163.455 137.044 163.892 136.169L164.38 136.375C163.943 137.25 163.507 138.15 163.07 139.024ZM400.737 138.844C400.326 137.97 399.89 137.095 399.427 136.221L399.915 136.015C400.352 136.89 400.814 137.764 401.225 138.638L400.737 138.844ZM165.767 133.778L165.305 133.572C165.767 132.698 166.255 131.849 166.769 130.975L167.231 131.206C166.718 132.055 166.23 132.903 165.767 133.778ZM398.04 133.623C397.578 132.775 397.09 131.9 396.602 131.052L397.064 130.82C397.552 131.669 398.04 132.543 398.503 133.392L398.04 133.623ZM168.747 128.66L168.285 128.429C168.798 127.58 169.338 126.731 169.877 125.909L170.34 126.166C169.775 126.963 169.261 127.812 168.747 128.66ZM395.086 128.532C394.572 127.709 394.033 126.86 393.493 126.037L393.956 125.78C394.495 126.603 395.035 127.452 395.548 128.274L395.086 128.532ZM171.984 123.671L171.547 123.414C172.112 122.591 172.677 121.768 173.268 120.971L173.705 121.228C173.114 122.051 172.523 122.874 171.984 123.671ZM391.849 123.568C391.284 122.771 390.719 121.948 390.128 121.151L390.565 120.894C391.156 121.691 391.721 122.514 392.286 123.337L391.849 123.568ZM175.477 118.862L175.041 118.579C175.657 117.782 176.274 116.985 176.89 116.213L177.327 116.496C176.685 117.268 176.068 118.065 175.477 118.862ZM388.356 118.759C387.765 117.988 387.148 117.191 386.506 116.419L386.943 116.136C387.559 116.908 388.202 117.705 388.792 118.502L388.356 118.759ZM179.202 114.182L178.791 113.873C179.433 113.102 180.101 112.356 180.769 111.584L181.18 111.893C180.512 112.664 179.844 113.436 179.202 114.182ZM384.631 114.13C383.989 113.385 383.321 112.613 382.679 111.867L383.09 111.559C383.758 112.304 384.425 113.076 385.068 113.822L384.631 114.13ZM183.209 109.707L182.798 109.398C183.492 108.678 184.186 107.933 184.879 107.213L185.265 107.547C184.571 108.241 183.877 108.961 183.209 109.707ZM380.624 109.63C379.956 108.91 379.236 108.164 378.543 107.444L378.928 107.11C379.622 107.83 380.341 108.55 381.009 109.296L380.624 109.63ZM187.422 105.387L187.037 105.052C187.756 104.358 188.501 103.638 189.246 102.969L189.632 103.304C188.887 103.998 188.142 104.692 187.422 105.387ZM376.411 105.335C375.691 104.641 374.946 103.947 374.227 103.252L374.612 102.918C375.357 103.612 376.102 104.307 376.822 105.001L376.411 105.335ZM191.866 101.272L191.507 100.912C192.252 100.243 193.048 99.5747 193.819 98.9318L194.178 99.2918C193.382 99.9347 192.611 100.603 191.866 101.272ZM371.967 101.221C371.222 100.552 370.451 99.8833 369.655 99.2404L370.014 98.8804C370.785 99.5233 371.581 100.218 372.326 100.861L371.967 101.221ZM196.516 97.3631L196.156 97.0031C196.953 96.3601 197.749 95.7429 198.571 95.1257L198.905 95.4858C198.109 96.103 197.287 96.7459 196.516 97.3631ZM367.317 97.3116C366.521 96.6687 365.724 96.0515 364.902 95.4343L365.236 95.0743C366.058 95.6915 366.855 96.3344 367.651 96.9516L367.317 97.3116ZM201.371 93.6599L201.037 93.2741C201.859 92.6827 202.707 92.0912 203.555 91.4997L203.863 91.8854C203.015 92.4769 202.193 93.0684 201.371 93.6599ZM362.462 93.6085C361.64 93.017 360.792 92.4255 359.97 91.834L360.278 91.4483C361.126 92.0397 361.974 92.6312 362.796 93.2227L362.462 93.6085ZM206.406 90.1882L206.098 89.8024C206.945 89.2366 207.819 88.6966 208.692 88.1308L209 88.5423C208.127 89.0823 207.254 89.6224 206.406 90.1882ZM357.401 90.1367C356.554 89.571 355.68 89.0309 354.807 88.4909L355.115 88.0794C355.989 88.6194 356.862 89.1852 357.71 89.751L357.401 90.1367ZM211.621 86.9221L211.338 86.5107C212.212 85.9963 213.136 85.4563 214.01 84.9677L214.292 85.3791C213.393 85.8935 212.494 86.4078 211.621 86.9221ZM352.161 86.8707C351.288 86.3564 350.363 85.842 349.489 85.3277L349.772 84.9162C350.671 85.4306 351.57 85.9449 352.469 86.4592L352.161 86.8707ZM216.99 83.9133L216.733 83.5018C217.632 83.0132 218.556 82.5503 219.481 82.0874L219.738 82.5246C218.813 82.9618 217.889 83.4504 216.99 83.9133ZM346.766 83.8619C345.867 83.3733 344.917 82.9104 344.018 82.4475L344.275 82.0103C345.199 82.4732 346.124 82.9618 347.049 83.4247L346.766 83.8619ZM222.538 81.1616L222.307 80.7244C223.232 80.2873 224.182 79.8501 225.133 79.4386L225.364 79.8758C224.413 80.2873 223.463 80.7244 222.538 81.1616ZM341.218 81.0845C340.293 80.6473 339.317 80.2101 338.392 79.7986L338.623 79.3615C339.574 79.7729 340.524 80.2101 341.475 80.673L341.218 81.0845ZM228.19 78.6414L227.958 78.2042C228.909 77.8185 229.885 77.407 230.861 77.047L231.067 77.4841C230.116 77.8442 229.14 78.2299 228.19 78.6414ZM335.515 78.5642C334.565 78.1785 333.588 77.767 332.612 77.407L332.818 76.9698C333.794 77.3556 334.77 77.7413 335.721 78.1528L335.515 78.5642ZM233.995 76.3783L233.79 75.9411C234.766 75.5811 235.768 75.2468 236.744 74.9125L236.924 75.3754C235.947 75.6583 234.971 76.0183 233.995 76.3783ZM329.684 76.3012C328.708 75.9412 327.706 75.6068 326.73 75.2725L326.909 74.8096C327.911 75.1439 328.913 75.504 329.889 75.8383L329.684 76.3012ZM239.903 74.3724L239.724 73.9095C240.725 73.6009 241.727 73.2923 242.729 73.0095L242.883 73.4724C241.907 73.7552 240.905 74.0638 239.903 74.3724ZM323.724 74.2953C322.722 73.9867 321.72 73.6781 320.719 73.3952L320.873 72.9323C321.875 73.2152 322.902 73.5238 323.904 73.8324L323.724 74.2953ZM245.94 72.6237L245.786 72.1608C246.788 71.9036 247.815 71.6465 248.843 71.3893L248.971 71.8522C247.97 72.1094 246.942 72.3665 245.94 72.6237ZM317.687 72.5723C316.686 72.3151 315.658 72.0579 314.63 71.8008L314.759 71.3379C315.786 71.5693 316.814 71.8265 317.816 72.1094L317.687 72.5723ZM252.054 71.1579L251.926 70.695C252.953 70.4635 253.981 70.2578 255.034 70.052L255.137 70.5149C254.109 70.7207 253.081 70.9521 252.054 71.1579ZM311.574 71.1064C310.546 70.9007 309.519 70.6692 308.491 70.4892L308.594 70.0263C309.621 70.2321 310.674 70.4378 311.702 70.6435L311.574 71.1064ZM258.245 69.9749L258.142 69.512C259.17 69.332 260.223 69.1777 261.276 69.0234L261.353 69.512C260.326 69.6406 259.272 69.7949 258.245 69.9749ZM305.383 69.9235C304.355 69.7434 303.302 69.5891 302.274 69.4348L302.351 68.9462C303.405 69.1005 304.458 69.2548 305.485 69.4348L305.383 69.9235ZM264.487 69.0748L264.41 68.5862C265.438 68.4576 266.516 68.329 267.57 68.2262L267.621 68.7148C266.568 68.8177 265.515 68.9462 264.487 69.0748ZM299.14 69.0234C298.113 68.8948 297.034 68.7919 296.007 68.6891L296.058 68.2005C297.111 68.3033 298.164 68.4319 299.218 68.5348L299.14 69.0234ZM270.755 68.4319L270.704 67.9433C271.757 67.8661 272.81 67.789 273.863 67.7376L273.889 68.2262C272.861 68.2776 271.808 68.3548 270.755 68.4319ZM292.847 68.4062C291.794 68.329 290.74 68.2519 289.687 68.2005L289.713 67.7118C290.766 67.7633 291.819 67.8404 292.873 67.9176L292.847 68.4062ZM277.074 68.0719L277.049 67.5833C278.102 67.5575 279.155 67.5318 280.208 67.5061V67.9947C279.181 68.0204 278.127 68.0462 277.074 68.0719ZM286.553 68.0719C285.5 68.0462 284.447 68.0204 283.394 67.9947V67.5061C284.447 67.5061 285.526 67.5318 286.553 67.5833V68.0719Z" stroke="url(#paint2_linear)" stroke-miterlimit="10"/>
<path d="M280.413 329.687C279.36 329.687 278.307 329.661 277.253 329.635L277.279 329.147C278.332 329.173 279.385 329.198 280.439 329.198L280.413 329.687ZM283.573 329.687V329.198C284.626 329.198 285.679 329.173 286.732 329.147L286.758 329.635C285.679 329.661 284.626 329.687 283.573 329.687ZM274.068 329.533C273.015 329.481 271.962 329.43 270.908 329.353L270.934 328.864C271.987 328.941 273.04 328.992 274.094 329.044L274.068 329.533ZM289.892 329.507L289.866 329.018C290.919 328.967 291.973 328.915 293.026 328.838L293.052 329.327C291.998 329.404 290.945 329.481 289.892 329.507ZM267.774 329.121C266.721 329.044 265.668 328.941 264.615 328.838L264.666 328.35C265.694 328.452 266.773 328.555 267.8 328.632L267.774 329.121ZM296.211 329.121L296.16 328.632C297.213 328.555 298.266 328.452 299.294 328.35L299.345 328.838C298.318 328.941 297.264 329.018 296.211 329.121ZM261.481 328.478C260.428 328.35 259.374 328.221 258.347 328.067L258.424 327.578C259.451 327.732 260.505 327.861 261.558 327.99L261.481 328.478ZM302.505 328.478L302.428 327.99C303.455 327.861 304.509 327.732 305.562 327.578L305.639 328.067C304.611 328.221 303.558 328.35 302.505 328.478ZM255.213 327.604C254.185 327.449 253.132 327.269 252.105 327.089L252.207 326.627C253.235 326.807 254.288 326.987 255.316 327.141L255.213 327.604ZM308.773 327.604L308.67 327.115C309.698 326.961 310.751 326.781 311.778 326.601L311.881 327.064C310.854 327.269 309.8 327.449 308.773 327.604ZM248.996 326.524C247.969 326.318 246.941 326.112 245.914 325.881L246.042 325.418C247.07 325.649 248.097 325.855 249.125 326.061L248.996 326.524ZM314.989 326.498L314.887 326.035C315.914 325.829 316.942 325.624 317.969 325.392L318.098 325.855C317.044 326.086 316.017 326.292 314.989 326.498ZM242.831 325.186C241.829 324.955 240.776 324.698 239.774 324.441L239.928 323.978C240.93 324.235 241.958 324.492 242.985 324.724L242.831 325.186ZM321.129 325.161L321 324.698C322.002 324.466 323.03 324.209 324.057 323.952L324.211 324.415C323.184 324.672 322.156 324.929 321.129 325.161ZM236.743 323.618C235.741 323.335 234.714 323.052 233.712 322.743L233.866 322.28C234.868 322.589 235.87 322.872 236.897 323.155L236.743 323.618ZM327.243 323.592L327.088 323.129C328.09 322.846 329.092 322.563 330.094 322.255L330.248 322.718C329.246 323.026 328.244 323.309 327.243 323.592ZM230.681 321.818C229.679 321.509 228.677 321.175 227.701 320.84L227.881 320.377C228.857 320.712 229.859 321.046 230.86 321.355L230.681 321.818ZM333.254 321.818L333.074 321.355C334.076 321.046 335.052 320.712 336.054 320.377L336.233 320.84C335.257 321.175 334.255 321.483 333.254 321.818ZM224.747 319.812C223.77 319.452 222.769 319.092 221.792 318.732L221.998 318.294C222.974 318.654 223.95 319.04 224.926 319.374L224.747 319.812ZM339.188 319.786L338.982 319.349C339.958 318.989 340.934 318.629 341.885 318.269L342.09 318.706C341.14 319.092 340.164 319.452 339.188 319.786ZM218.864 317.574C217.913 317.189 216.937 316.777 215.961 316.366L216.192 315.928C217.143 316.34 218.119 316.726 219.069 317.137L218.864 317.574ZM345.019 317.574L344.813 317.137C345.764 316.751 346.74 316.34 347.665 315.954L347.896 316.391C346.945 316.777 345.969 317.189 345.019 317.574ZM350.722 315.131L350.49 314.694C351.415 314.283 352.366 313.845 353.29 313.408L353.522 313.845C352.623 314.283 351.672 314.72 350.722 315.131ZM213.135 315.106C212.185 314.694 211.235 314.231 210.31 313.794L210.541 313.357C211.466 313.794 212.416 314.231 213.367 314.668L213.135 315.106ZM356.347 312.482L356.091 312.045C357.015 311.582 357.94 311.119 358.839 310.657L359.096 311.068C358.197 311.557 357.246 312.02 356.347 312.482ZM207.484 312.457C206.559 311.994 205.635 311.531 204.71 311.042L204.967 310.631C205.891 311.119 206.816 311.582 207.741 312.045L207.484 312.457ZM361.819 309.628L361.536 309.216C362.435 308.728 363.335 308.213 364.234 307.725L364.516 308.136C363.643 308.625 362.718 309.139 361.819 309.628ZM201.987 309.576C201.088 309.088 200.189 308.574 199.29 308.059L199.572 307.648C200.471 308.162 201.37 308.676 202.269 309.165L201.987 309.576ZM367.188 306.568L366.905 306.156C367.779 305.642 368.652 305.102 369.525 304.562L369.834 304.973C368.96 305.488 368.061 306.028 367.188 306.568ZM196.592 306.49C195.719 305.95 194.82 305.41 193.946 304.87L194.255 304.485C195.128 305.025 196.001 305.565 196.875 306.079L196.592 306.49ZM372.403 303.302L372.094 302.916C372.942 302.376 373.79 301.784 374.637 301.219L374.946 301.604C374.124 302.17 373.276 302.736 372.403 303.302ZM191.378 303.224C190.53 302.659 189.656 302.093 188.809 301.527L189.117 301.141C189.965 301.707 190.812 302.299 191.66 302.839L191.378 303.224ZM377.489 299.856L377.155 299.47C377.977 298.878 378.825 298.287 379.621 297.67L379.955 298.055C379.159 298.647 378.311 299.264 377.489 299.856ZM186.291 299.778C185.469 299.187 184.622 298.595 183.8 297.978L184.133 297.592C184.956 298.21 185.778 298.801 186.6 299.393L186.291 299.778ZM382.421 296.204L382.087 295.844C382.883 295.227 383.68 294.609 384.476 293.966L384.836 294.326C384.014 294.969 383.217 295.587 382.421 296.204ZM181.359 296.127C180.563 295.509 179.741 294.867 178.97 294.249L179.33 293.889C180.126 294.532 180.922 295.149 181.719 295.767L181.359 296.127ZM387.173 292.398L386.814 292.038C387.584 291.395 388.355 290.726 389.126 290.083L389.485 290.443C388.74 291.086 387.944 291.755 387.173 292.398ZM176.607 292.295C175.836 291.652 175.066 290.983 174.295 290.315L174.655 289.955C175.425 290.623 176.196 291.292 176.966 291.935L176.607 292.295ZM391.771 288.412L391.412 288.077C392.157 287.409 392.902 286.714 393.621 286.02L394.006 286.354C393.261 287.049 392.516 287.743 391.771 288.412ZM172.009 288.309C171.264 287.64 170.519 286.946 169.774 286.251L170.159 285.917C170.878 286.612 171.623 287.306 172.368 287.975L172.009 288.309ZM396.164 284.246L395.779 283.911C396.498 283.217 397.217 282.497 397.911 281.777L398.296 282.111C397.603 282.831 396.883 283.551 396.164 284.246ZM167.616 284.143C166.897 283.448 166.177 282.728 165.484 282.008L165.869 281.674C166.563 282.394 167.282 283.088 168.001 283.808L167.616 284.143ZM400.403 279.951L399.992 279.642C400.685 278.922 401.353 278.176 402.021 277.431L402.432 277.739C401.764 278.459 401.071 279.205 400.403 279.951ZM163.377 279.822C162.709 279.102 162.016 278.356 161.348 277.611L161.759 277.302C162.427 278.048 163.121 278.794 163.788 279.514L163.377 279.822ZM404.436 275.476L404.025 275.168C404.667 274.422 405.335 273.65 405.951 272.879L406.362 273.162C405.746 273.959 405.078 274.73 404.436 275.476ZM159.37 275.373C158.728 274.628 158.06 273.856 157.443 273.085L157.854 272.802C158.497 273.573 159.139 274.345 159.781 275.09L159.37 275.373ZM408.263 270.847L407.827 270.564C408.443 269.793 409.06 268.996 409.65 268.198L410.087 268.481C409.496 269.279 408.88 270.076 408.263 270.847ZM155.542 270.744C154.926 269.973 154.309 269.176 153.719 268.378L154.155 268.096C154.746 268.893 155.363 269.664 155.979 270.436L155.542 270.744ZM411.885 266.09L411.449 265.832C412.039 265.035 412.605 264.212 413.17 263.415L413.606 263.672C413.067 264.47 412.476 265.292 411.885 266.09ZM151.92 266.013C151.33 265.215 150.764 264.392 150.199 263.595L150.636 263.338C151.201 264.135 151.792 264.958 152.357 265.755L151.92 266.013ZM415.302 261.204L414.839 260.946C415.379 260.123 415.944 259.3 416.458 258.452L416.92 258.683C416.406 259.558 415.867 260.381 415.302 261.204ZM148.53 261.126C147.99 260.303 147.425 259.481 146.911 258.632L147.374 258.4C147.887 259.223 148.453 260.046 148.992 260.869L148.53 261.126ZM418.513 256.189L418.05 255.957C418.564 255.109 419.078 254.26 419.566 253.411L420.028 253.643C419.54 254.491 419.027 255.366 418.513 256.189ZM145.344 256.137C144.83 255.314 144.342 254.44 143.829 253.591L144.291 253.36C144.779 254.209 145.293 255.057 145.781 255.88L145.344 256.137ZM421.467 251.071L421.005 250.865C421.467 250.017 421.955 249.142 422.392 248.268L422.88 248.474C422.418 249.348 421.955 250.223 421.467 251.071ZM142.39 251.045C141.928 250.197 141.44 249.322 141.003 248.448L141.491 248.242C141.928 249.091 142.416 249.965 142.878 250.814L142.39 251.045ZM424.216 245.825L423.728 245.619C424.164 244.745 424.601 243.871 425.012 242.97L425.5 243.15C425.089 244.076 424.652 244.976 424.216 245.825ZM139.667 245.825C139.23 244.951 138.794 244.076 138.383 243.176L138.871 242.996C139.282 243.871 139.719 244.771 140.13 245.619L139.667 245.825ZM137.175 240.527C136.79 239.627 136.379 238.727 136.019 237.827L136.508 237.647C136.867 238.547 137.278 239.447 137.663 240.322L137.175 240.527ZM426.733 240.502L426.245 240.322C426.63 239.447 427.041 238.521 427.401 237.621L427.889 237.801C427.504 238.701 427.118 239.602 426.733 240.502ZM134.915 235.101C134.555 234.201 134.221 233.275 133.887 232.375L134.375 232.221C134.709 233.121 135.069 234.047 135.403 234.947L134.915 235.101ZM428.994 235.075L428.506 234.921C428.865 234.021 429.199 233.095 429.533 232.195L430.021 232.349C429.713 233.25 429.353 234.175 428.994 235.075ZM132.885 229.624C132.577 228.698 132.269 227.772 131.961 226.846L132.474 226.718C132.757 227.643 133.065 228.569 133.399 229.469L132.885 229.624ZM431.023 229.546L430.509 229.392C430.818 228.492 431.126 227.566 431.434 226.64L431.948 226.769C431.64 227.72 431.331 228.646 431.023 229.546ZM131.113 224.069C130.83 223.143 130.574 222.191 130.317 221.266L130.83 221.137C131.087 222.063 131.344 223.014 131.627 223.94L131.113 224.069ZM432.796 223.992L432.282 223.863C432.564 222.937 432.821 221.986 433.078 221.06L433.592 221.188C433.335 222.114 433.052 223.066 432.796 223.992ZM129.597 218.437C129.366 217.511 129.135 216.559 128.929 215.608L129.443 215.505C129.649 216.457 129.88 217.408 130.111 218.334L129.597 218.437ZM434.311 218.36L433.797 218.257C434.029 217.331 434.26 216.379 434.465 215.428L434.979 215.531C434.774 216.482 434.542 217.434 434.311 218.36ZM128.313 212.753C128.133 211.802 127.953 210.85 127.774 209.899L128.287 209.822C128.467 210.773 128.647 211.725 128.827 212.676L128.313 212.753ZM435.57 212.702L435.056 212.625C435.236 211.673 435.416 210.722 435.596 209.77L436.109 209.847C435.955 210.799 435.775 211.75 435.57 212.702ZM127.311 207.044C127.157 206.093 127.029 205.116 126.9 204.164L127.414 204.113C127.542 205.064 127.671 206.016 127.825 206.967L127.311 207.044ZM436.597 206.967L436.084 206.89C436.238 205.939 436.366 204.987 436.495 204.035L437.008 204.087C436.88 205.064 436.752 206.016 436.597 206.967ZM126.54 201.284C126.438 200.332 126.335 199.355 126.258 198.404L126.772 198.352C126.849 199.304 126.951 200.281 127.054 201.232L126.54 201.284ZM437.342 201.232L436.829 201.181C436.931 200.229 437.034 199.252 437.111 198.301L437.625 198.326C437.548 199.304 437.445 200.255 437.342 201.232ZM126.027 195.523C125.975 194.572 125.898 193.595 125.873 192.643L126.412 192.617C126.463 193.569 126.515 194.546 126.566 195.498L126.027 195.523ZM437.856 195.446L437.317 195.42C437.368 194.469 437.445 193.492 437.471 192.54L438.01 192.566C437.985 193.517 437.933 194.495 437.856 195.446ZM125.77 189.737C125.744 188.786 125.744 187.808 125.744 186.831H126.284C126.284 187.783 126.284 188.76 126.309 189.711L125.77 189.737ZM438.113 189.66H437.574C437.599 188.708 437.599 187.731 437.599 186.78V186.625H438.139V186.78C438.139 187.731 438.139 188.683 438.113 189.66ZM126.309 183.951H125.77C125.796 182.999 125.821 182.022 125.873 181.045L126.412 181.071C126.361 182.022 126.335 182.999 126.309 183.951ZM437.574 183.719C437.548 182.768 437.522 181.791 437.471 180.839L438.01 180.813C438.062 181.765 438.087 182.742 438.113 183.694L437.574 183.719ZM126.54 178.19L126.001 178.165C126.052 177.213 126.129 176.236 126.232 175.284L126.772 175.31C126.695 176.262 126.618 177.213 126.54 178.19ZM437.317 177.959C437.24 177.007 437.188 176.03 437.085 175.079L437.625 175.027C437.702 175.979 437.779 176.956 437.856 177.907L437.317 177.959ZM127.054 172.43L126.54 172.378C126.643 171.427 126.772 170.45 126.874 169.498L127.388 169.55C127.285 170.501 127.157 171.478 127.054 172.43ZM436.803 172.198C436.7 171.247 436.572 170.27 436.443 169.318L436.957 169.267C437.085 170.218 437.214 171.195 437.317 172.147L436.803 172.198ZM127.799 166.695L127.285 166.618C127.44 165.666 127.594 164.715 127.748 163.763L128.262 163.84C128.107 164.792 127.953 165.743 127.799 166.695ZM436.058 166.464C435.904 165.512 435.75 164.561 435.57 163.609L436.084 163.532C436.263 164.483 436.418 165.435 436.572 166.386L436.058 166.464ZM128.827 160.986L128.313 160.909C128.493 159.957 128.698 159.006 128.904 158.054L129.418 158.157C129.212 159.083 129.007 160.06 128.827 160.986ZM435.03 160.78C434.851 159.829 434.645 158.877 434.44 157.951L434.953 157.848C435.159 158.8 435.364 159.752 435.57 160.703L435.03 160.78ZM130.085 155.328L129.572 155.225C129.803 154.3 130.034 153.348 130.291 152.397L130.805 152.499C130.548 153.451 130.317 154.402 130.085 155.328ZM433.772 155.123C433.54 154.197 433.284 153.245 433.052 152.319L433.566 152.191C433.823 153.117 434.054 154.068 434.285 155.02L433.772 155.123ZM131.575 149.722L131.062 149.593C131.344 148.668 131.627 147.716 131.909 146.79L132.423 146.919C132.141 147.87 131.858 148.796 131.575 149.722ZM432.23 149.516C431.948 148.591 431.665 147.665 431.383 146.739L431.896 146.61C432.179 147.536 432.487 148.462 432.744 149.388L432.23 149.516ZM133.348 144.193L132.834 144.039C133.142 143.113 133.476 142.187 133.81 141.261L134.298 141.416C133.99 142.341 133.656 143.267 133.348 144.193ZM430.484 143.962C430.175 143.036 429.841 142.11 429.507 141.21L429.996 141.056C430.329 141.956 430.663 142.881 430.972 143.807L430.484 143.962ZM135.352 138.69L134.863 138.535C135.223 137.635 135.583 136.709 135.968 135.809L136.456 135.989C136.096 136.864 135.711 137.79 135.352 138.69ZM428.454 138.51C428.095 137.61 427.735 136.709 427.35 135.809L427.838 135.629C428.223 136.529 428.583 137.455 428.942 138.355L428.454 138.51ZM137.612 133.263L137.124 133.083C137.509 132.183 137.92 131.283 138.357 130.409L138.845 130.589C138.434 131.489 138.023 132.389 137.612 133.263ZM426.194 133.109C425.808 132.235 425.397 131.335 424.986 130.46L425.474 130.28C425.885 131.155 426.296 132.055 426.682 132.929L426.194 133.109ZM140.104 127.966L139.616 127.76C140.052 126.886 140.515 125.986 140.952 125.137L141.44 125.343C141.003 126.191 140.541 127.091 140.104 127.966ZM423.702 127.837C423.265 126.963 422.829 126.088 422.366 125.24L422.854 125.034C423.317 125.908 423.753 126.783 424.19 127.657L423.702 127.837ZM142.853 122.745L142.39 122.54C142.853 121.691 143.341 120.817 143.854 119.968L144.317 120.199C143.803 121.022 143.315 121.871 142.853 122.745ZM420.979 122.642C420.517 121.794 420.028 120.919 419.54 120.096L420.003 119.865C420.491 120.714 420.979 121.588 421.467 122.437L420.979 122.642ZM145.807 117.628L145.344 117.396C145.858 116.548 146.397 115.699 146.911 114.876L147.374 115.107C146.834 115.93 146.32 116.779 145.807 117.628ZM418.05 117.551C417.537 116.728 417.023 115.879 416.484 115.056L416.946 114.825C417.485 115.648 417.999 116.496 418.513 117.345L418.05 117.551ZM148.992 112.613L148.53 112.356C149.069 111.533 149.634 110.71 150.199 109.887L150.636 110.144C150.097 110.967 149.531 111.79 148.992 112.613ZM414.865 112.587C414.326 111.764 413.761 110.941 413.195 110.144L413.632 109.887C414.197 110.684 414.762 111.507 415.302 112.33L414.865 112.587ZM152.383 107.753L151.946 107.495C152.537 106.698 153.128 105.901 153.744 105.104L154.181 105.387C153.564 106.158 152.974 106.955 152.383 107.753ZM411.474 107.727C410.883 106.93 410.293 106.132 409.702 105.335L410.139 105.052C410.729 105.849 411.346 106.647 411.911 107.444L411.474 107.727ZM156.005 103.021L155.568 102.738C156.185 101.966 156.827 101.169 157.469 100.423L157.88 100.706C157.264 101.452 156.621 102.249 156.005 103.021ZM407.878 102.995C407.261 102.223 406.619 101.452 406.003 100.68L406.414 100.398C407.056 101.169 407.672 101.941 408.289 102.712L407.878 102.995ZM159.832 98.4174L159.421 98.1088C160.064 97.363 160.732 96.5915 161.425 95.8457L161.836 96.1543C161.143 96.9001 160.475 97.6716 159.832 98.4174ZM404.05 98.3917C403.408 97.6459 402.74 96.9001 402.072 96.1543L402.483 95.8457C403.151 96.5915 403.819 97.3373 404.461 98.1088L404.05 98.3917ZM163.84 93.9427L163.429 93.6341C164.122 92.914 164.816 92.1683 165.51 91.4482L165.895 91.7825C165.227 92.5026 164.533 93.2226 163.84 93.9427ZM400.043 93.9427C399.349 93.2226 398.656 92.4769 397.962 91.7825L398.348 91.4482C399.041 92.1683 399.735 92.8883 400.428 93.6341L400.043 93.9427ZM395.83 89.648C395.111 88.9537 394.392 88.2336 393.647 87.565L394.032 87.2307C394.751 87.925 395.496 88.6194 396.215 89.3394L395.83 89.648ZM168.053 89.648L167.667 89.3137C168.387 88.6194 169.106 87.8993 169.851 87.205L170.236 87.5393C169.491 88.2336 168.772 88.9537 168.053 89.648ZM391.437 85.5077C390.693 84.839 389.922 84.1447 389.177 83.5018L389.537 83.1417C390.282 83.8104 391.052 84.479 391.797 85.1476L391.437 85.5077ZM172.445 85.5077L172.086 85.1734C172.831 84.5047 173.601 83.8104 174.346 83.1675L174.706 83.5275C173.961 84.1447 173.19 84.839 172.445 85.5077ZM386.865 81.5216C386.094 80.8787 385.298 80.2358 384.502 79.5928L384.861 79.2328C385.658 79.8757 386.454 80.5186 387.225 81.1616L386.865 81.5216ZM177.018 81.5216L176.658 81.1616C177.429 80.5186 178.225 79.85 179.022 79.2328L179.381 79.5928C178.585 80.2358 177.788 80.8787 177.018 81.5216ZM181.744 77.7155L181.411 77.3555C182.207 76.7383 183.029 76.1211 183.851 75.5039L184.185 75.8897C183.389 76.4811 182.566 77.0983 181.744 77.7155ZM382.138 77.7155C381.342 77.0983 380.52 76.4811 379.698 75.8897L380.032 75.5039C380.854 76.1211 381.676 76.7383 382.472 77.3555L382.138 77.7155ZM186.651 74.0895L186.317 73.7037C187.165 73.1123 188.012 72.5208 188.834 71.955L189.143 72.3408C188.346 72.9322 187.499 73.498 186.651 74.0895ZM377.206 74.0895C376.384 73.498 375.536 72.9065 374.689 72.3408L374.997 71.955C375.845 72.5208 376.692 73.1123 377.514 73.7037L377.206 74.0895ZM191.712 70.6692L191.403 70.2834C192.251 69.7177 193.124 69.1776 193.998 68.6376L194.306 69.049C193.433 69.5377 192.585 70.1034 191.712 70.6692ZM372.146 70.6435C371.298 70.0777 370.425 69.5376 369.551 68.9976L369.859 68.5861C370.733 69.1262 371.606 69.692 372.454 70.232L372.146 70.6435ZM196.926 67.4032L196.644 66.9917C197.517 66.4774 198.416 65.9373 199.315 65.423L199.598 65.8345C198.699 66.3745 197.8 66.8888 196.926 67.4032ZM366.931 67.3775C366.058 66.8631 365.158 66.3231 364.259 65.8087L364.542 65.3973C365.441 65.9116 366.34 66.4259 367.213 66.966L366.931 67.3775ZM202.269 64.3686L201.987 63.9571C202.886 63.4685 203.811 62.9799 204.71 62.4913L204.967 62.9028C204.068 63.3657 203.168 63.8543 202.269 64.3686ZM361.562 64.3172C360.663 63.8286 359.738 63.3399 358.839 62.8513L359.096 62.4399C359.995 62.9028 360.92 63.4171 361.845 63.9057L361.562 64.3172ZM207.741 61.5141L207.484 61.0769C208.409 60.614 209.334 60.1768 210.284 59.7139L210.515 60.1511C209.591 60.5883 208.64 61.0512 207.741 61.5141ZM356.065 61.4626C355.14 60.9997 354.19 60.5368 353.265 60.0997L353.496 59.6625C354.421 60.0997 355.371 60.5626 356.296 61.0255L356.065 61.4626ZM213.315 58.8653L213.084 58.4281C214.035 58.0166 214.985 57.5794 215.936 57.168L216.167 57.6051C215.216 58.0166 214.266 58.4281 213.315 58.8653ZM350.465 58.8138C349.514 58.4024 348.564 57.9652 347.613 57.5537L347.845 57.1165C348.795 57.528 349.771 57.9395 350.696 58.3766L350.465 58.8138ZM219.018 56.4222L218.813 55.985C219.763 55.5993 220.739 55.2135 221.715 54.8535L221.921 55.2907C220.945 55.6507 219.969 56.0364 219.018 56.4222ZM344.736 56.3707C343.786 55.985 342.81 55.5993 341.834 55.2392L342.039 54.802C343.015 55.1621 343.991 55.5478 344.967 55.9593L344.736 56.3707ZM224.824 54.2106L224.618 53.7734C225.594 53.4133 226.596 53.079 227.572 52.7447L227.752 53.2076C226.776 53.4905 225.8 53.8505 224.824 54.2106ZM338.879 54.1334C337.903 53.7734 336.901 53.4391 335.925 53.1047L336.105 52.6418C337.081 52.9762 338.083 53.3362 339.085 53.6705L338.879 54.1334ZM230.732 52.2047L230.552 51.7418C231.554 51.4332 232.556 51.1246 233.558 50.816L233.712 51.2789C232.736 51.5617 231.734 51.8703 230.732 52.2047ZM332.945 52.1275C331.944 51.8189 330.942 51.5103 329.94 51.2017L330.094 50.7388C331.096 51.0474 332.098 51.356 333.1 51.6646L332.945 52.1275ZM236.717 50.4045L236.563 49.9416C237.565 49.6587 238.593 49.4015 239.594 49.1187L239.749 49.5816C238.747 49.8644 237.745 50.1216 236.717 50.4045ZM326.909 50.3273C325.907 50.0445 324.879 49.7873 323.877 49.5301L324.032 49.0672C325.033 49.3244 326.061 49.6073 327.063 49.8644L326.909 50.3273ZM242.805 48.8358L242.677 48.3729C243.704 48.1414 244.732 47.8843 245.76 47.6785L245.888 48.1414C244.86 48.3729 243.807 48.6043 242.805 48.8358ZM320.846 48.7844C319.819 48.5529 318.791 48.3215 317.789 48.09L317.918 47.6271C318.945 47.8586 319.973 48.09 321 48.3215L320.846 48.7844ZM248.945 47.4985L248.842 47.0356C249.87 46.8299 250.923 46.6499 251.95 46.4441L252.053 46.907C251 47.1128 249.972 47.3185 248.945 47.4985ZM314.707 47.4728C313.679 47.2671 312.652 47.0871 311.624 46.907L311.727 46.4441C312.754 46.6242 313.808 46.8299 314.835 47.0099L314.707 47.4728ZM255.136 46.4184L255.033 45.9298C256.061 45.7755 257.114 45.6212 258.167 45.4669L258.244 45.9555C257.217 46.0841 256.163 46.2384 255.136 46.4184ZM308.516 46.367C307.488 46.2127 306.435 46.0584 305.408 45.9041L305.485 45.4155C306.512 45.5698 307.565 45.7241 308.619 45.8784L308.516 46.367ZM261.378 45.5441L261.301 45.0554C262.354 44.9269 263.407 44.824 264.435 44.6954L264.486 45.184C263.459 45.2869 262.406 45.4155 261.378 45.5441ZM302.274 45.5183C301.246 45.3898 300.193 45.2869 299.14 45.184L299.191 44.6954C300.244 44.7983 301.297 44.9269 302.325 45.0297L302.274 45.5183ZM267.646 44.9011L267.595 44.4125C268.648 44.3354 269.701 44.2582 270.754 44.1811L270.78 44.6697C269.752 44.7211 268.699 44.7983 267.646 44.9011ZM296.006 44.8754C294.953 44.7983 293.899 44.7211 292.872 44.644L292.897 44.1554C293.951 44.2325 295.004 44.3097 296.057 44.3868L296.006 44.8754ZM273.94 44.4897L273.914 44.0011C274.967 43.9496 276.02 43.9239 277.073 43.8725L277.099 44.3611C276.046 44.4125 274.993 44.4382 273.94 44.4897ZM289.712 44.464C288.659 44.4125 287.606 44.3868 286.552 44.3611L286.578 43.8725C287.631 43.8982 288.685 43.9496 289.738 43.9753L289.712 44.464ZM280.233 44.3097V43.821C281.286 43.821 282.34 43.821 283.393 43.821V44.3097C282.34 44.3097 281.286 44.3097 280.233 44.3097Z" stroke="url(#paint3_linear)" stroke-miterlimit="10"/>
<path d="M281.955 318.731C262.483 318.731 243.602 315.234 225.826 308.368C208.666 301.733 193.227 292.218 179.998 280.079C166.743 267.967 156.365 253.848 149.095 238.136C141.568 221.857 137.767 204.575 137.767 186.78C137.767 168.958 141.568 151.676 149.095 135.423C156.365 119.711 166.743 105.592 179.998 93.4797C193.253 81.3672 208.666 71.852 225.826 65.1914C243.602 58.2994 262.483 54.8276 281.955 54.8276C301.426 54.8276 320.307 58.3251 338.083 65.1914C355.243 71.8263 370.682 81.3415 383.911 93.4797C397.166 105.592 407.544 119.711 414.814 135.423C422.341 151.702 426.143 168.984 426.143 186.78C426.143 204.601 422.341 221.883 414.814 238.136C407.544 253.848 397.166 267.967 383.911 280.079C370.656 292.192 355.243 301.707 338.083 308.368C320.307 315.234 301.401 318.731 281.955 318.731ZM281.955 55.0334C202.578 55.0334 138.023 114.13 138.023 186.754C138.023 259.378 202.604 318.474 281.955 318.474C361.331 318.474 425.886 259.378 425.886 186.754C425.886 114.13 361.306 55.0334 281.955 55.0334Z" stroke="url(#paint4_linear)" stroke-miterlimit="10"/>
<path d="M432.513 275.862H133.065C126.412 275.862 121.018 270.461 121.018 263.801V105.618C121.018 98.9574 126.412 93.5569 133.065 93.5569H432.513C439.166 93.5569 444.561 98.9574 444.561 105.618V263.801C444.561 270.461 439.166 275.862 432.513 275.862Z" fill="#C4C4C6"/>
<path d="M401.559 269.253H147.322C135.686 269.253 126.232 259.815 126.232 248.14V120.431C126.232 108.781 135.66 99.3176 147.322 99.3176H401.559C413.196 99.3176 422.649 108.756 422.649 120.431V248.14C422.649 259.815 413.196 269.253 401.559 269.253Z" fill="#132861"/>
<path d="M396.576 265.936H152.28C140.644 265.936 131.19 256.498 131.19 244.822V123.774C131.19 112.124 140.618 102.661 152.28 102.661H396.576C408.212 102.661 417.666 112.099 417.666 123.774V244.822C417.666 256.472 408.238 265.936 396.576 265.936Z" fill="url(#paint5_radial)"/>
<path d="M433.644 190.869C437.049 190.869 439.809 188.105 439.809 184.697C439.809 181.288 437.049 178.525 433.644 178.525C430.239 178.525 427.479 181.288 427.479 184.697C427.479 188.105 430.239 190.869 433.644 190.869Z" fill="#9B9B9B"/>
<path d="M433.643 171.761C435.871 171.761 437.676 169.954 437.676 167.724C437.676 165.494 435.871 163.686 433.643 163.686C431.416 163.686 429.61 165.494 429.61 167.724C429.61 169.954 431.416 171.761 433.643 171.761Z" fill="#9B9B9B"/>
<path d="M433.643 204.602C435.871 204.602 437.676 202.794 437.676 200.564C437.676 198.334 435.871 196.526 433.643 196.526C431.416 196.526 429.61 198.334 429.61 200.564C429.61 202.794 431.416 204.602 433.643 204.602Z" fill="#9B9B9B"/>
<path d="M433.643 189.634C436.324 189.634 438.498 187.458 438.498 184.774C438.498 182.089 436.324 179.913 433.643 179.913C430.962 179.913 428.788 182.089 428.788 184.774C428.788 187.458 430.962 189.634 433.643 189.634Z" fill="#E0E0E0"/>
<path d="M433.644 170.27C435.048 170.27 436.187 169.13 436.187 167.724C436.187 166.318 435.048 165.178 433.644 165.178C432.239 165.178 431.101 166.318 431.101 167.724C431.101 169.13 432.239 170.27 433.644 170.27Z" fill="#E0E0E0"/>
<path d="M433.644 203.11C435.048 203.11 436.187 201.97 436.187 200.564C436.187 199.158 435.048 198.018 433.644 198.018C432.239 198.018 431.101 199.158 431.101 200.564C431.101 201.97 432.239 203.11 433.644 203.11Z" fill="#E0E0E0"/>
<path d="M417.691 159.34H131.216V209.384H417.691V159.34Z" fill="#FDD328"/>
<path d="M170.426 170.124H156.557V177.428H162.717C164.921 177.428 166.844 177.808 168.483 178.567C170.123 179.325 171.37 180.401 172.225 181.794C173.079 183.188 173.506 184.802 173.506 186.636C173.506 189.451 172.548 191.713 170.633 193.423C168.731 195.134 166.134 196.003 162.841 196.031H151.328V165.903H170.426V170.124ZM156.557 181.629V191.851H162.696C164.46 191.851 165.831 191.375 166.809 190.423C167.801 189.457 168.297 188.181 168.297 186.595C168.297 185.078 167.815 183.877 166.851 182.995C165.886 182.112 164.549 181.657 162.841 181.629H156.557Z" fill="#FF8200"/>
<path d="M195.622 182.581H183.262V191.851H197.71V196.031H178.033V165.903H197.565V170.124H183.262V178.442H195.622V182.581Z" fill="#FF8200"/>
<path d="M224.931 186.223C224.628 189.437 223.443 191.947 221.376 193.754C219.309 195.548 216.56 196.444 213.129 196.444C210.731 196.444 208.616 195.879 206.783 194.748C204.964 193.603 203.559 191.982 202.567 189.885C201.575 187.788 201.058 185.354 201.017 182.581V179.767C201.017 176.925 201.52 174.421 202.525 172.256C203.531 170.09 204.971 168.421 206.845 167.248C208.733 166.076 210.91 165.489 213.377 165.489C216.698 165.489 219.371 166.393 221.396 168.2C223.422 170.007 224.6 172.559 224.931 175.856H219.722C219.474 173.69 218.84 172.131 217.821 171.18C216.815 170.214 215.333 169.731 213.377 169.731C211.103 169.731 209.353 170.566 208.127 172.235C206.914 173.89 206.294 176.325 206.267 179.539V182.208C206.267 185.464 206.845 187.947 208.003 189.657C209.174 191.368 210.883 192.223 213.129 192.223C215.182 192.223 216.725 191.761 217.759 190.837C218.792 189.913 219.447 188.375 219.722 186.223H224.931Z" fill="#FF8200"/>
<path d="M253.433 196.031H248.225V170.124H234.976V196.031H229.767V165.903H253.433V196.031Z" fill="#FF8200"/>
<path d="M283.424 165.903V196.031H278.216V170.124H268.997L268.46 181.774C268.253 185.416 267.805 188.243 267.116 190.257C266.441 192.258 265.456 193.72 264.161 194.644C262.865 195.568 261.129 196.031 258.952 196.031H257.629V191.851L258.456 191.789C259.655 191.678 260.578 191.258 261.226 190.526C261.887 189.795 262.383 188.692 262.714 187.216C263.058 185.726 263.299 183.54 263.437 180.656L264.016 165.903H283.424Z" fill="#FF8200"/>
<path d="M306.946 189.016H295.288L292.849 196.031H287.413L298.781 165.903H303.473L314.862 196.031H309.405L306.946 189.016ZM296.756 184.795H305.478L301.117 172.297L296.756 184.795Z" fill="#FF8200"/>
<path d="M337.557 170.124H328.173V196.031H322.985V170.124H313.684V165.903H337.557V170.124Z" fill="#FF8200"/>
<path d="M365.419 196.031H360.21V182.643H346.754V196.031H341.525V165.903H346.754V178.442H360.21V165.903H365.419V196.031Z" fill="#FF8200"/>
<path d="M395.637 181.753C395.637 184.705 395.127 187.299 394.107 189.533C393.088 191.754 391.627 193.465 389.725 194.665C387.838 195.851 385.66 196.444 383.194 196.444C380.755 196.444 378.578 195.851 376.662 194.665C374.761 193.465 373.287 191.761 372.239 189.554C371.206 187.347 370.682 184.802 370.668 181.919V180.222C370.668 177.284 371.185 174.69 372.219 172.442C373.266 170.193 374.733 168.476 376.621 167.289C378.523 166.089 380.7 165.489 383.153 165.489C385.605 165.489 387.776 166.082 389.663 167.269C391.565 168.441 393.032 170.138 394.066 172.359C395.099 174.566 395.623 177.139 395.637 180.077V181.753ZM390.407 180.181C390.407 176.842 389.774 174.283 388.506 172.504C387.252 170.724 385.468 169.835 383.153 169.835C380.893 169.835 379.122 170.724 377.841 172.504C376.573 174.27 375.925 176.773 375.898 180.015V181.753C375.898 185.064 376.538 187.623 377.82 189.43C379.115 191.237 380.907 192.14 383.194 192.14C385.509 192.14 387.286 191.258 388.527 189.492C389.78 187.726 390.407 185.147 390.407 181.753V180.181Z" fill="#FF8200"/>
<path opacity="0.4" d="M149.507 265.936L277.64 102.661H332.279L209.463 265.936H149.507Z" fill="white"/>
<path opacity="0.4" d="M142.481 267.208L270.614 103.933H325.253L202.438 267.208H142.481Z" fill="white"/>
<path opacity="0.4" d="M226.211 265.936L354.344 102.661H375.614L252.798 265.936H226.211Z" fill="white"/>
<path d="M80.5325 300.73C79.5564 300.73 78.76 299.933 78.76 298.956V289.569H69.3838C68.4077 289.569 67.6113 288.772 67.6113 287.795C67.6113 286.817 68.4077 286.02 69.3838 286.02H80.5325C81.5087 286.02 82.305 286.817 82.305 287.795V298.956C82.3307 299.933 81.5344 300.73 80.5325 300.73Z" fill="#00E8D3"/>
<path d="M53.8425 313.203C54.5104 313.974 55.692 314.025 56.4113 313.331L81.7656 289.08C82.4848 288.412 82.5105 287.28 81.8426 286.56C81.1747 285.84 80.0445 285.814 79.3252 286.483L53.9709 310.759C53.2773 311.428 53.2259 312.482 53.8425 313.203Z" fill="#00E8D3"/>
<path d="M64.7865 253.052C64.17 252.46 64.1443 251.483 64.7351 250.891L70.2838 245.054L64.4525 239.499C63.836 238.908 63.8103 237.93 64.4012 237.339C64.992 236.722 65.9681 236.696 66.559 237.287L73.5205 243.897C74.137 244.488 74.1627 245.465 73.5719 246.057L66.97 253.026C66.3792 253.617 65.403 253.617 64.7865 253.052Z" fill="#E6E6E6"/>
<path d="M40.7418 245.002C40.6905 245.877 41.4097 246.623 42.2831 246.623L72.4411 246.52C73.2888 246.52 73.9824 245.825 73.9824 244.977C73.9824 244.128 73.2888 243.434 72.4411 243.434L42.2575 243.537C41.4611 243.537 40.7675 244.18 40.7418 245.002Z" fill="#E6E6E6"/>
<path d="M475.027 63.4429C475.875 63.4429 476.542 64.1372 476.542 64.9859L476.44 73.0609L484.506 73.1637C485.354 73.1637 486.021 73.8581 486.021 74.7067C486.021 75.5554 485.328 76.224 484.48 76.224L474.898 76.1211C474.051 76.1211 473.383 75.4268 473.383 74.5781L473.486 64.9859C473.46 64.1115 474.179 63.4429 475.027 63.4429Z" fill="#E6E6E6"/>
<path d="M498.095 52.9762C497.53 52.3076 496.528 52.2304 495.886 52.8476L473.845 73.4723C473.229 74.0381 473.177 75.0153 473.768 75.6325C474.333 76.2497 475.309 76.3011 475.926 75.7097L497.966 55.085C498.583 54.5192 498.634 53.5934 498.095 52.9762Z" fill="#E6E6E6"/>
<path d="M495.191 171.684C495.91 172.327 495.962 173.459 495.32 174.179L489.103 181.019L495.936 187.243C496.655 187.886 496.707 189.017 496.065 189.737C495.422 190.457 494.292 190.509 493.573 189.866L485.43 182.459C484.71 181.816 484.659 180.685 485.301 179.965L492.699 171.813C493.342 171.067 494.472 171.015 495.191 171.684Z" fill="#00E8D3"/>
<path d="M522.96 180.325C522.986 179.322 522.164 178.499 521.162 178.525L486.534 179.399C485.558 179.425 484.787 180.222 484.813 181.199C484.839 182.176 485.635 182.948 486.611 182.922L521.239 182.048C522.189 181.996 522.934 181.251 522.96 180.325Z" fill="#00E8D3"/>
<path d="M501.87 294.969C501.998 295.715 501.484 296.435 500.739 296.538L493.624 297.67L494.754 304.793C494.882 305.539 494.369 306.259 493.624 306.362C492.879 306.465 492.159 305.976 492.057 305.23L490.721 296.744C490.592 295.998 491.106 295.278 491.851 295.175L500.328 293.838C501.048 293.709 501.741 294.224 501.87 294.969Z" fill="#E6E6E6"/>
<path d="M514.561 313.768C515.075 313.177 514.972 312.277 514.355 311.788L492.88 295.432C492.289 294.969 491.416 295.072 490.953 295.689C490.491 296.281 490.594 297.155 491.21 297.618L512.711 313.974C513.276 314.411 514.098 314.334 514.561 313.768Z" fill="#E6E6E6"/>
<path d="M81.0728 93.917C81.0985 92.7855 82.049 91.9111 83.1792 91.9369L93.8912 92.2455L94.1995 81.5216C94.2252 80.3901 95.1757 79.5157 96.3059 79.5414C97.4362 79.5672 98.3096 80.5187 98.2839 81.6502L97.9243 94.4057C97.8986 95.5372 96.9481 96.4115 95.8179 96.3858L83.0765 96.0258C81.9205 95.9744 81.0471 95.0486 81.0728 93.917Z" fill="#FDD328"/>
<path d="M67.663 62.9544C66.7639 63.7002 66.6612 65.0374 67.4318 65.9118L94.3531 95.6916C95.0981 96.5403 96.4082 96.5917 97.2302 95.8459C98.0779 95.1002 98.1293 93.7886 97.3843 92.9657L70.4374 63.1601C69.7181 62.3629 68.4851 62.26 67.663 62.9544Z" fill="#FDD328"/>
<path opacity="0.2" d="M121.017 180.016C121.017 180.016 135.223 183.591 132.448 211.288C129.674 238.984 124.87 237.133 130.804 250.12C136.764 263.107 134.632 272.776 134.632 272.776C134.632 272.776 118.756 244.436 119.142 243.768C119.553 243.073 121.017 180.016 121.017 180.016Z" fill="black"/>
<path d="M78.8877 337.428L91.9887 299.11C93.8382 293.735 94.4548 287.975 93.7355 282.343C93.0419 276.711 92.4511 268.404 93.119 258.606C93.53 252.794 95.1483 247.137 97.7942 241.942C102.983 231.809 112.051 212.316 112.539 199.047C112.925 188.271 112.848 182.331 112.745 179.245C112.693 177.599 114.312 176.39 115.853 176.956C120.117 178.473 127.13 183.179 128.466 197.838C130.418 219.183 118.422 233.893 123.56 245.671C128.697 257.449 136.558 262.592 135.556 275.836H172.573C172.573 275.836 161.373 301.27 141.798 309.525C139.152 310.631 137.174 312.945 136.352 315.697L129.93 337.453H78.8877V337.428Z" fill="#ECD298"/>
<path d="M112.773 190.843H119.041C119.041 190.843 120.222 174.77 114.34 175.258C111.822 175.464 112.773 190.843 112.773 190.843Z" fill="#FCE2AE"/>
<path d="M135.583 275.836C135.583 275.836 135.583 284.734 168.592 283.371C168.592 283.371 171.88 278.254 172.6 275.836H135.583Z" fill="#E6C180"/>
<path opacity="0.2" d="M445.563 180.016C445.563 180.016 431.357 183.591 434.132 211.288C436.906 238.984 441.71 237.133 435.776 250.12C429.816 263.107 431.948 272.776 431.948 272.776C431.948 272.776 447.849 244.436 447.438 243.742C447.027 243.073 445.563 180.016 445.563 180.016Z" fill="black"/>
<path d="M487.691 337.428L474.59 299.11C472.74 293.735 472.124 287.975 472.843 282.343C473.537 276.711 474.127 268.404 473.46 258.606C473.049 252.794 471.43 247.137 468.784 241.942C463.595 231.809 454.527 212.316 454.039 199.047C453.654 188.271 453.731 182.331 453.834 179.245C453.885 177.599 452.267 176.39 450.725 176.956C446.461 178.473 439.448 183.179 438.113 197.838C436.16 219.183 448.157 233.893 443.019 245.671C437.881 257.449 430.021 262.592 431.023 275.836H394.006C394.006 275.836 405.206 301.27 424.78 309.525C427.426 310.631 429.404 312.945 430.226 315.697L436.648 337.453H487.691V337.428Z" fill="#ECD298"/>
<path d="M453.808 190.843H447.54C447.54 190.843 446.359 174.77 452.241 175.258C454.759 175.464 453.808 190.843 453.808 190.843Z" fill="#FCE2AE"/>
<path d="M430.997 275.836C430.997 275.836 430.997 284.734 397.988 283.371C397.988 283.371 394.7 278.254 393.98 275.836H430.997Z" fill="#E6C180"/>
<path fill-rule="evenodd" clip-rule="evenodd" d="M516.488 253.231C508.55 250.48 499.894 254.672 497.119 262.592C494.371 270.539 498.558 279.205 506.47 281.983C514.407 284.734 523.064 280.542 525.839 272.622C528.587 264.675 524.4 255.983 516.488 253.231Z" fill="#FDB900"/>
<path d="M515.359 256.472C509.219 254.337 502.514 257.578 500.382 263.724C498.25 269.87 501.487 276.582 507.626 278.717C513.766 280.851 520.471 277.611 522.603 271.464C524.735 265.344 521.498 258.606 515.359 256.472Z" fill="#FDB900"/>
<path d="M515.359 256.472C512.43 255.443 509.399 255.675 506.779 256.832C509.065 256.009 511.659 255.932 514.125 256.806C519.905 258.812 522.937 265.138 520.933 270.899C518.929 276.685 512.61 279.72 506.856 277.714C504.364 276.839 502.412 275.193 501.102 273.11C502.437 275.656 504.698 277.714 507.626 278.717C513.766 280.851 520.47 277.611 522.603 271.465C524.735 265.344 521.498 258.606 515.359 256.472Z" fill="#FF8200"/>
<path fill-rule="evenodd" clip-rule="evenodd" d="M510.863 274.062C512.764 274.216 514.254 273.368 514.793 271.773C515.744 269.021 513.637 267.478 512.225 266.45C510.709 265.344 510.452 265.01 510.683 264.367C510.94 263.672 512.148 263.878 512.841 264.11C513.689 264.392 514.485 265.112 514.819 265.833C514.87 265.935 514.948 266.013 515.05 266.064C515.153 266.115 515.282 266.09 515.384 266.064L516.977 265.344C517.208 265.241 517.285 264.984 517.208 264.752C516.771 263.775 515.949 262.849 514.948 262.232L515.282 261.281C515.359 261.049 515.23 260.792 514.999 260.715L513.329 260.124C513.098 260.046 512.841 260.175 512.764 260.406L512.456 261.306C510.401 260.998 508.757 261.821 508.166 263.492C507.241 266.115 509.296 267.607 510.632 268.584C512.225 269.741 512.507 270.153 512.25 270.899C511.993 271.67 510.709 271.439 509.99 271.182C509.296 270.95 508.577 270.436 508.192 269.973C508.037 269.793 507.781 269.741 507.575 269.896L506.188 270.976C505.982 271.13 505.957 271.413 506.111 271.593C506.625 272.262 507.395 272.879 508.269 273.316L507.96 274.165C507.883 274.396 508.012 274.653 508.243 274.731L509.913 275.322C510.144 275.399 510.401 275.271 510.478 275.039L510.863 274.062Z" fill="white"/>
<path fill-rule="evenodd" clip-rule="evenodd" d="M80.8162 180.248C74.9849 179.193 69.3849 183.077 68.3317 188.914C67.2785 194.752 71.1574 200.358 76.9886 201.413C82.8198 202.467 88.4199 198.584 89.4731 192.746C90.5263 186.908 86.6474 181.302 80.8162 180.248Z" fill="#FDB900"/>
<path d="M80.3782 182.639C75.857 181.816 71.5157 184.825 70.7194 189.351C69.8974 193.877 72.9029 198.224 77.424 199.021C81.9452 199.844 86.2865 196.835 87.0828 192.309C87.9048 187.783 84.8993 183.462 80.3782 182.639Z" fill="#FDB900"/>
<path d="M80.3785 182.639C78.2207 182.254 76.1143 182.742 74.4189 183.822C75.9345 182.999 77.7326 182.665 79.5565 182.999C83.8207 183.771 86.6208 187.834 85.8501 192.103C85.0795 196.346 81.0207 199.175 76.7565 198.404C74.9326 198.069 73.3656 197.118 72.2354 195.832C73.4427 197.452 75.2409 198.635 77.3987 199.047C81.9198 199.87 86.2611 196.861 87.0575 192.335C87.9052 187.783 84.8997 183.462 80.3785 182.639Z" fill="#FF8200"/>
<path d="M81.7923 191.794C81.6639 191.409 81.407 191.1 81.0217 190.843V190.817C81.3813 190.74 81.6639 190.56 81.8951 190.303C82.1006 190.046 82.2547 189.789 82.3061 189.506C82.4602 188.786 82.3575 188.168 81.9722 187.654C81.7667 187.371 81.5098 187.14 81.2015 186.985L81.407 186.06C81.4584 185.802 81.3043 185.545 81.0474 185.494L80.6107 185.391C80.3538 185.34 80.0969 185.494 80.0455 185.751L79.8657 186.548L79.429 186.445L79.3006 186.42L79.4804 185.622C79.5318 185.365 79.3776 185.108 79.1208 185.057L78.6841 184.954C78.4272 184.902 78.1703 185.057 78.1189 185.314L77.9391 186.111L77.7079 186.06L77.0657 185.905C76.8088 185.854 76.5519 186.008 76.5006 186.265L76.3978 186.703C76.3464 186.96 76.5006 187.217 76.7574 187.268L77.3997 187.423L76.1923 192.72L75.5501 192.566C75.2932 192.515 75.0363 192.669 74.985 192.926L74.8565 193.466C74.8051 193.723 74.9593 193.98 75.2162 194.032L75.8584 194.186L76.0896 194.238L75.9354 194.958C75.8841 195.215 76.0382 195.472 76.2951 195.523L76.7318 195.626C76.9886 195.678 77.2455 195.523 77.2969 195.266L77.451 194.546L77.5795 194.572L78.0162 194.675L77.862 195.395C77.8107 195.652 77.9648 195.909 78.2217 195.961L78.6584 196.063C78.9153 196.115 79.1721 195.961 79.2235 195.703L79.4033 194.88C79.5575 194.88 79.7373 194.88 79.8914 194.855C80.3281 194.803 80.7391 194.623 81.0988 194.289C81.4584 193.98 81.7153 193.517 81.8437 192.926C81.9465 192.592 81.9465 192.18 81.7923 191.794ZM79.1208 187.834L79.5575 187.937L80.0199 188.04C80.3281 188.117 80.5336 188.246 80.6364 188.451C80.7648 188.657 80.7905 188.888 80.7391 189.12C80.6877 189.377 80.5593 189.557 80.3538 189.686C80.1483 189.814 79.9171 189.84 79.6088 189.789L78.5813 189.557L78.9923 187.783L79.1208 187.834ZM79.7887 193.26C79.5318 193.389 79.1978 193.415 78.8125 193.337L78.3501 193.235L77.9134 193.132L77.785 193.106L78.2731 191.023L79.3006 191.254C79.6859 191.332 79.9685 191.512 80.1483 191.769C80.3281 192.026 80.3795 192.309 80.3024 192.592C80.1997 192.9 80.0455 193.106 79.7887 193.26Z" fill="#F9F9F9"/>
<defs>
<linearGradient id="paint0_linear" x1="-0.000744959" y1="142.217" x2="559.754" y2="142.217" gradientUnits="userSpaceOnUse">
<stop offset="6.81957e-07" stop-color="white" stop-opacity="0"/>
<stop offset="0.0765073" stop-color="#CDF1FD" stop-opacity="0.15"/>
<stop offset="0.1961" stop-color="#85DCF9" stop-opacity="0.3844"/>
<stop offset="0.3035" stop-color="#4CCBF7" stop-opacity="0.5951"/>
<stop offset="0.395" stop-color="#23BFF5" stop-opacity="0.7744"/>
<stop offset="0.4668" stop-color="#09B8F3" stop-opacity="0.9151"/>
<stop offset="0.5101" stop-color="#00B5F3"/>
<stop offset="0.5556" stop-color="#0EB9F4" stop-opacity="0.9071"/>
<stop offset="0.6422" stop-color="#34C4F5" stop-opacity="0.7303"/>
<stop offset="0.7609" stop-color="#71D6F8" stop-opacity="0.4879"/>
<stop offset="0.9056" stop-color="#C5EEFC" stop-opacity="0.1927"/>
<stop offset="1" stop-color="white" stop-opacity="0"/>
</linearGradient>
<linearGradient id="paint1_linear" x1="165.103" y1="186.76" x2="398.788" y2="186.76" gradientUnits="userSpaceOnUse">
<stop offset="6.81957e-07" stop-color="white" stop-opacity="0"/>
<stop offset="0.1067" stop-color="#DBF1FC" stop-opacity="0.2091"/>
<stop offset="0.3418" stop-color="#82CFF6" stop-opacity="0.6701"/>
<stop offset="0.5101" stop-color="#3EB5F1"/>
<stop offset="0.5888" stop-color="#65C4F4" stop-opacity="0.8393"/>
<stop offset="0.7333" stop-color="#A6DDF9" stop-opacity="0.5443"/>
<stop offset="0.8549" stop-color="#D6EFFC" stop-opacity="0.2961"/>
<stop offset="0.9475" stop-color="#F4FBFE" stop-opacity="0.1072"/>
<stop offset="1" stop-color="white" stop-opacity="0"/>
</linearGradient>
<linearGradient id="paint2_linear" x1="151.514" y1="186.764" x2="412.376" y2="186.764" gradientUnits="userSpaceOnUse">
<stop offset="6.81957e-07" stop-color="white" stop-opacity="0"/>
<stop offset="0.1067" stop-color="#DBF1FC" stop-opacity="0.2091"/>
<stop offset="0.3418" stop-color="#82CFF6" stop-opacity="0.6701"/>
<stop offset="0.5101" stop-color="#3EB5F1"/>
<stop offset="0.5888" stop-color="#65C4F4" stop-opacity="0.8393"/>
<stop offset="0.7333" stop-color="#A6DDF9" stop-opacity="0.5443"/>
<stop offset="0.8549" stop-color="#D6EFFC" stop-opacity="0.2961"/>
<stop offset="0.9475" stop-color="#F4FBFE" stop-opacity="0.1072"/>
<stop offset="1" stop-color="white" stop-opacity="0"/>
</linearGradient>
<linearGradient id="paint3_linear" x1="125.619" y1="186.757" x2="438.271" y2="186.757" gradientUnits="userSpaceOnUse">
<stop offset="6.81957e-07" stop-color="white" stop-opacity="0"/>
<stop offset="0.1067" stop-color="#DBF1FC" stop-opacity="0.2091"/>
<stop offset="0.3418" stop-color="#82CFF6" stop-opacity="0.6701"/>
<stop offset="0.5101" stop-color="#3EB5F1"/>
<stop offset="0.5888" stop-color="#65C4F4" stop-opacity="0.8393"/>
<stop offset="0.7333" stop-color="#A6DDF9" stop-opacity="0.5443"/>
<stop offset="0.8549" stop-color="#D6EFFC" stop-opacity="0.2961"/>
<stop offset="0.9475" stop-color="#F4FBFE" stop-opacity="0.1072"/>
<stop offset="1" stop-color="white" stop-opacity="0"/>
</linearGradient>
<linearGradient id="paint4_linear" x1="137.618" y1="186.76" x2="426.272" y2="186.76" gradientUnits="userSpaceOnUse">
<stop offset="6.81957e-07" stop-color="white" stop-opacity="0"/>
<stop offset="0.1067" stop-color="#DBF1FC" stop-opacity="0.2091"/>
<stop offset="0.3418" stop-color="#82CFF6" stop-opacity="0.6701"/>
<stop offset="0.5101" stop-color="#3EB5F1"/>
<stop offset="0.5888" stop-color="#65C4F4" stop-opacity="0.8393"/>
<stop offset="0.7333" stop-color="#A6DDF9" stop-opacity="0.5443"/>
<stop offset="0.8549" stop-color="#D6EFFC" stop-opacity="0.2961"/>
<stop offset="0.9475" stop-color="#F4FBFE" stop-opacity="0.1072"/>
<stop offset="1" stop-color="white" stop-opacity="0"/>
</linearGradient>
<radialGradient id="paint5_radial" cx="0" cy="0" r="1" gradientUnits="userSpaceOnUse" gradientTransform="translate(274.44 184.296) scale(116.544 116.673)">
<stop stop-color="white"/>
<stop offset="1" stop-color="#E2E2E2"/>
</radialGradient>
</defs>
</svg>
