<svg width="90" height="90" viewBox="0 0 90 90" fill="none" xmlns="http://www.w3.org/2000/svg">
<path d="M30.4836 52.258C36.0868 52.258 40.6448 47.6985 40.6448 42.0967H37.7416C37.7416 46.0988 34.4857 49.3547 30.4836 49.3547C26.4815 49.3547 23.2255 46.0988 23.2255 42.0967H20.3223C20.3223 47.6985 24.8803 52.258 30.4836 52.258Z" fill="#85ACD6"/>
<path d="M22.4997 34.8387C23.7002 34.8387 24.6771 33.8618 24.6771 32.6613C24.6771 31.4608 23.7002 30.4839 22.4997 30.4839C21.2992 30.4839 20.3223 31.4608 20.3223 32.6613C20.3223 33.8618 21.2992 34.8387 22.4997 34.8387Z" fill="#85ACD6"/>
<path d="M38.4675 34.8387C39.6679 34.8387 40.6449 33.8618 40.6449 32.6613C40.6449 31.4608 39.6679 30.4839 38.4675 30.4839C37.267 30.4839 36.29 31.4608 36.29 32.6613C36.29 33.8618 37.267 34.8387 38.4675 34.8387Z" fill="#85ACD6"/>
<path d="M66.7742 43.5484C58.5915 43.5484 51.3987 47.8132 47.2602 54.225L43.7153 53.1348C47.7363 49.6727 50.3782 44.6734 50.7397 39.0527C54.0813 38.4039 56.6129 35.4629 56.6129 31.9355C56.6129 28.4313 54.1147 25.499 50.8065 24.824V4.35484C50.8065 3.83226 50.5248 3.35032 50.0705 3.09194C49.6161 2.83355 49.0573 2.84226 48.6087 3.11081L42.3 6.89516C37.4502 2.44016 31.1995 0 24.5744 0H11.6129C10.8116 0 10.1613 0.648871 10.1613 1.45161V24.824C6.85306 25.499 4.35484 28.4313 4.35484 31.9355C4.35484 35.4629 6.88645 38.4039 10.2281 39.0542C10.5895 44.6734 13.2315 49.6742 17.2524 53.1363L7.17242 56.2355C2.8829 57.5565 0 61.4613 0 65.9497V88.5484C0 89.3511 0.650323 90 1.45161 90H59.5161C60.0837 90 60.5613 89.6661 60.8008 89.1929C62.7097 89.7024 64.7057 90 66.7742 90C79.5803 90 90 79.5803 90 66.7742C90 53.9681 79.5803 43.5484 66.7742 43.5484ZM30.4839 86.1285L27.6794 82.3906L29.954 71.0173C30.1253 71.084 30.3024 71.129 30.4839 71.129C30.6653 71.129 30.8424 71.084 31.0137 71.0173L33.2884 82.3906L30.4839 86.1285ZM30.4839 67.8629L26.8868 65.1658L28.6069 63.4456C29.0787 62.9753 29.1687 62.2437 28.8247 61.6718L26.4135 57.6537C27.7302 57.9223 29.0903 58.0645 30.4839 58.0645C31.8774 58.0645 33.2376 57.9223 34.5527 57.6537L32.1416 61.6718C31.799 62.2437 31.889 62.9739 32.3594 63.4456L34.0795 65.1658L30.4839 67.8629ZM22.2068 56.2848L25.7531 62.1944L22.6176 65.3298L20.4024 55.3631C20.9874 55.6998 21.5884 56.0076 22.2068 56.2848ZM35.2147 62.1944L38.761 56.2848C39.3794 56.0076 39.9803 55.6998 40.5653 55.3645L38.3502 65.3313L35.2147 62.1944ZM32.0821 30.4839H28.8856C28.2106 27.1756 25.2798 24.6774 21.7742 24.6774C20.7406 24.6774 19.7623 24.901 18.871 25.2929V23.3274C18.871 21.6697 20.2195 20.3226 21.8758 20.3226C22.471 20.3226 23.0473 20.4968 23.5423 20.8277L24.3581 21.3721C27.9958 23.7992 32.969 23.7992 36.6068 21.3721L37.4226 20.8277C37.9205 20.4968 38.4968 20.3226 39.0919 20.3226C40.7497 20.3226 42.0968 21.6711 42.0968 23.3274V25.2929C41.2055 24.901 40.2271 24.6774 39.1936 24.6774C35.6894 24.6774 32.7571 27.1756 32.0821 30.4839ZM21.7742 27.5806C24.1752 27.5806 26.129 29.5345 26.129 31.9355C26.129 34.3365 24.1752 36.2903 21.7742 36.2903C19.3732 36.2903 17.4194 34.3365 17.4194 31.9355C17.4194 29.5345 19.3732 27.5806 21.7742 27.5806ZM39.1936 27.5806C41.5945 27.5806 43.5484 29.5345 43.5484 31.9355C43.5484 34.3365 41.5945 36.2903 39.1936 36.2903C36.7926 36.2903 34.8387 34.3365 34.8387 31.9355C34.8387 29.5345 36.7926 27.5806 39.1936 27.5806ZM53.7097 31.9355C53.7097 33.8255 52.4918 35.4223 50.8065 36.0232V27.8492C52.4918 28.4487 53.7097 30.0455 53.7097 31.9355ZM24.5744 2.90323C30.8047 2.90323 36.6634 5.33032 41.0705 9.73597C41.5423 10.2077 42.2724 10.2992 42.8444 9.95371L47.9032 6.91984V30.2168C46.2179 29.6158 45 28.019 45 26.129V23.3274C45 20.07 42.3494 17.4194 39.0919 17.4194C37.9219 17.4194 36.7897 17.7619 35.8142 18.4123L34.9984 18.9566C32.3173 20.745 28.6519 20.745 25.9708 18.9566L25.1535 18.4123C24.1795 17.7619 23.0458 17.4194 21.8758 17.4194C18.6184 17.4194 15.9677 20.07 15.9677 23.3274V26.129C15.9677 28.019 14.7498 29.6158 13.0645 30.2168V2.90323H24.5744ZM7.25806 31.9355C7.25806 30.0455 8.47597 28.4487 10.1613 27.8477V36.0218C8.47597 35.4223 7.25806 33.8255 7.25806 31.9355ZM13.0645 37.7419V33.3871H14.6627C15.3377 36.6953 18.2685 39.1936 21.7742 39.1936C25.2798 39.1936 28.2106 36.6953 28.8856 33.3871H32.0821C32.7571 36.6953 35.6879 39.1936 39.1936 39.1936C42.6992 39.1936 45.63 36.6953 46.305 33.3871H47.9032V37.7419C47.9032 47.3473 40.0892 55.1613 30.4839 55.1613C20.8785 55.1613 13.0645 47.3473 13.0645 37.7419ZM2.90323 65.9497C2.90323 62.7431 4.96161 59.9545 8.02597 59.0124L17.5863 56.0715L20.3574 68.5408C20.4721 69.0576 20.8597 69.4727 21.3677 69.6194C21.5013 69.6585 21.6392 69.6774 21.7742 69.6774C22.1531 69.6774 22.5247 69.5279 22.8005 69.2521L24.8139 67.2387L27.3673 69.1534L24.7065 82.456C24.6252 82.861 24.721 83.2805 24.9692 83.6115L27.5806 87.0968H2.90323V65.9497ZM33.3871 87.0968L36 83.6129C36.2482 83.2819 36.344 82.8624 36.2627 82.4574L33.6019 69.1548L36.1553 67.2402L38.1687 69.2535C38.4431 69.5279 38.8147 69.6774 39.1936 69.6774C39.3285 69.6774 39.4665 69.6585 39.6 69.6194C40.1081 69.4713 40.4956 69.0576 40.6103 68.5408L43.3815 56.0715L45.8216 56.8219C44.3802 59.8427 43.5484 63.209 43.5484 66.7742C43.5484 75.5129 48.404 83.1324 55.5547 87.0968H33.3871ZM66.7742 87.0968C55.5677 87.0968 46.4516 77.9806 46.4516 66.7742C46.4516 55.5677 55.5677 46.4516 66.7742 46.4516C77.9806 46.4516 87.0968 55.5677 87.0968 66.7742C87.0968 77.9806 77.9806 87.0968 66.7742 87.0968Z" fill="#85ACD6"/>
<path d="M59.5159 65.3227H58.0643V62.4194H55.161V65.3227H53.7094C52.9081 65.3227 52.2578 65.9715 52.2578 66.7743V75.4839C52.2578 76.2867 52.9081 76.9356 53.7094 76.9356H55.161V79.8388H58.0643V76.9356H59.5159C60.3172 76.9356 60.9675 76.2867 60.9675 75.4839V66.7743C60.9675 65.9715 60.3172 65.3227 59.5159 65.3227ZM58.0643 74.0323H55.161V68.2259H58.0643V74.0323Z" fill="#85ACD6"/>
<path d="M71.1292 53.7099H69.6775V50.8066H66.7743V53.7099H65.3227C64.5214 53.7099 63.8711 54.3587 63.8711 55.1615V63.8712C63.8711 64.6739 64.5214 65.3228 65.3227 65.3228H66.7743V68.226H69.6775V65.3228H71.1292C71.9304 65.3228 72.5808 64.6739 72.5808 63.8712V55.1615C72.5808 54.3587 71.9304 53.7099 71.1292 53.7099ZM69.6775 62.4195H66.7743V56.6131H69.6775V62.4195Z" fill="#85ACD6"/>
<path d="M82.7415 59.516H81.2899V56.6128H78.3866V59.516H76.935C76.1337 59.516 75.4834 60.1649 75.4834 60.9676V69.6773C75.4834 70.4801 76.1337 71.1289 76.935 71.1289H78.3866V74.0321H81.2899V71.1289H82.7415C83.5428 71.1289 84.1931 70.4801 84.1931 69.6773V60.9676C84.1931 60.1649 83.5428 59.516 82.7415 59.516ZM81.2899 68.2257H78.3866V62.4192H81.2899V68.2257Z" fill="#85ACD6"/>
</svg>
