<svg width="85" height="90" viewBox="0 0 85 90" fill="none" xmlns="http://www.w3.org/2000/svg">
<path d="M71.569 70.3984C71.5295 70.346 71.4141 70.26 71.2232 70.1415C71.032 70.0228 70.7882 69.8943 70.4917 69.7561C70.1955 69.6176 69.866 69.4862 69.5038 69.3609C69.1415 69.2358 68.7756 69.1469 68.4069 69.0942V71.7818L69.0395 71.9398C69.7115 72.1245 70.3172 72.325 70.8574 72.5426C71.3975 72.76 71.8553 73.03 72.2309 73.3528C72.6063 73.6758 72.8958 74.0679 73.1005 74.5287C73.3044 74.9901 73.4066 75.5434 73.4066 76.1886C73.4066 76.9395 73.2746 77.5786 73.0113 78.1055C72.7476 78.6326 72.3955 79.064 71.9543 79.3999C71.5128 79.736 71.0057 79.9897 70.4326 80.1607C69.8592 80.3318 69.2565 80.4307 68.6243 80.4573V82.7497H67.2608V80.4374C66.3515 80.3584 65.4526 80.174 64.5632 79.8841C63.6739 79.5945 62.8736 79.2123 62.1621 78.738L63.5848 75.9119C63.6374 75.9782 63.7791 76.0868 64.0098 76.2381C64.2401 76.3897 64.5332 76.5478 64.8891 76.7124C65.2447 76.8773 65.6467 77.0354 66.0948 77.1866C66.5425 77.3383 67.0037 77.4469 67.4778 77.5128V74.8843L66.5294 74.6077C65.8838 74.41 65.3237 74.1961 64.8496 73.9654C64.3755 73.735 63.9832 73.4683 63.6739 73.165C63.364 72.862 63.1335 72.5128 62.9822 72.1175C62.8305 71.7224 62.7547 71.2614 62.7547 70.7343C62.7547 70.0494 62.8734 69.4399 63.1107 68.9064C63.3479 68.3726 63.667 67.915 64.0692 67.5328C64.4706 67.151 64.9451 66.8512 65.4919 66.6338C66.0384 66.4164 66.6281 66.2749 67.2606 66.209V64.2129H68.6241V66.209C69.4804 66.288 70.2839 66.4792 71.0349 66.7823C71.786 67.0855 72.4382 67.3948 72.9914 67.7111L71.569 70.3984ZM66.095 70.2205C66.095 70.5499 66.2098 70.8102 66.4407 71.0011C66.671 71.1923 67.0166 71.3603 67.478 71.505V69.0742C66.5556 69.1534 66.095 69.5356 66.095 70.2205ZM69.9287 76.5049C69.9287 76.1624 69.7903 75.8956 69.5134 75.7044C69.237 75.5136 68.8679 75.3389 68.4067 75.1807V77.5521C69.4212 77.5126 69.9287 77.1638 69.9287 76.5049Z" fill="#85ACD6"/>
<path d="M42.3427 84.6835C18.9955 84.6835 0.000976562 65.6892 0.000976562 42.3418C0.000976562 18.9946 18.9955 0 42.3427 0C65.6902 0 84.6845 18.9946 84.6845 42.3418C84.6845 47.3259 83.8261 52.2065 82.1334 56.8477C81.882 57.5373 81.1198 57.893 80.4293 57.641C79.7396 57.3896 79.3844 56.6265 79.636 55.9369C81.2222 51.5884 82.0263 47.0142 82.0263 42.3418C82.0263 20.4602 64.2243 2.65823 42.3427 2.65823C20.4612 2.65823 2.6592 20.4602 2.6592 42.3418C2.6592 64.2234 20.4612 82.0253 42.3427 82.0253C44.1574 82.0253 45.9819 81.9019 47.7659 81.6579C48.4933 81.559 49.1632 82.0675 49.2627 82.7949C49.362 83.5221 48.8531 84.1922 48.1257 84.2916C46.223 84.5518 44.2772 84.6835 42.3427 84.6835Z" fill="#85ACD6"/>
<path d="M42.3418 17.0128C41.6078 17.0128 41.0127 16.4178 41.0127 15.6837V7.62111C41.0127 6.88706 41.6078 6.29199 42.3418 6.29199C43.0759 6.29199 43.6709 6.88706 43.6709 7.62111V15.6837C43.6709 16.4178 43.0759 17.0128 42.3418 17.0128Z" fill="#85ACD6"/>
<path d="M55.6669 20.5866C55.4413 20.5866 55.2125 20.5291 55.0033 20.4082C54.3676 20.0409 54.1502 19.2279 54.5174 18.5924L58.5541 11.6064C58.9211 10.9707 59.7344 10.7531 60.3699 11.1205C61.0056 11.4877 61.223 12.3008 60.8557 12.9363L56.819 19.9223C56.5728 20.3484 56.1262 20.5866 55.6669 20.5866Z" fill="#85ACD6"/>
<path d="M65.4283 30.3392C64.9688 30.3392 64.522 30.1007 64.2757 29.6743C63.9089 29.0384 64.1271 28.2257 64.7626 27.8587L71.7488 23.8275C72.3854 23.4607 73.1975 23.6788 73.5645 24.3143C73.9314 24.9502 73.7132 25.7629 73.0777 26.1299L66.0915 30.1611C65.8821 30.2817 65.6534 30.3392 65.4283 30.3392Z" fill="#85ACD6"/>
<path d="M77.0626 43.6709H69C68.266 43.6709 67.6709 43.0759 67.6709 42.3418C67.6709 41.6078 68.266 41.0127 69 41.0127H77.0626C77.7967 41.0127 78.3917 41.6078 78.3917 42.3418C78.3917 43.0759 77.7967 43.6709 77.0626 43.6709Z" fill="#85ACD6"/>
<path d="M42.3418 78.3917C41.6078 78.3917 41.0127 77.7967 41.0127 77.0626V69C41.0127 68.266 41.6078 67.6709 42.3418 67.6709C43.0759 67.6709 43.6709 68.266 43.6709 69V77.0626C43.6709 77.7967 43.0759 78.3917 42.3418 78.3917Z" fill="#85ACD6"/>
<path d="M24.9775 73.7416C24.752 73.7416 24.5237 73.6843 24.3145 73.5635C23.6786 73.1965 23.4606 72.3837 23.8277 71.7478L27.8589 64.7616C28.2259 64.1257 29.0387 63.9081 29.6744 64.2748C30.3103 64.6418 30.5283 65.4546 30.1613 66.0905L26.1301 73.0767C25.8838 73.5032 25.4368 73.7416 24.9775 73.7416Z" fill="#85ACD6"/>
<path d="M12.2729 61.034C11.8138 61.034 11.367 60.7959 11.1209 60.3697C10.7537 59.734 10.9711 58.9211 11.6068 58.5539L18.5928 54.5172C19.2281 54.1494 20.0412 54.3672 20.4086 55.0031C20.7758 55.6388 20.5584 56.4516 19.9227 56.8188L12.9367 60.8556C12.7272 60.9767 12.4984 61.034 12.2729 61.034Z" fill="#85ACD6"/>
<path d="M15.6837 43.6709H7.62111C6.88706 43.6709 6.29199 43.0759 6.29199 42.3418C6.29199 41.6078 6.88706 41.0127 7.62111 41.0127H15.6837C16.4178 41.0127 17.0128 41.6078 17.0128 42.3418C17.0128 43.0759 16.4178 43.6709 15.6837 43.6709Z" fill="#85ACD6"/>
<path d="M19.2567 30.3391C19.0311 30.3391 18.8029 30.2818 18.5937 30.161L11.6075 26.1296C10.9716 25.7628 10.7536 24.9499 11.1206 24.314C11.4876 23.678 12.3007 23.4602 12.9362 23.8272L19.9222 27.8584C20.5581 28.2252 20.7761 29.0381 20.409 29.674C20.1628 30.1006 19.716 30.3391 19.2567 30.3391Z" fill="#85ACD6"/>
<path d="M29.0111 20.5866C28.5518 20.5866 28.1048 20.3481 27.8587 19.9217L23.8275 12.9357C23.4607 12.2998 23.6787 11.4871 24.3144 11.1201C24.9501 10.7531 25.7629 10.9712 26.1299 11.6069L30.1611 18.5929C30.528 19.2288 30.31 20.0415 29.6743 20.4085C29.4649 20.5293 29.2365 20.5866 29.0111 20.5866Z" fill="#85ACD6"/>
<path d="M42.3418 45.5761C42.1122 45.5761 41.8826 45.5167 41.6772 45.398L26.5369 36.6574C25.9012 36.2903 25.6834 35.4775 26.0502 34.8416C26.4174 34.2057 27.2303 33.9881 27.866 34.355L42.3655 42.7259L52.9139 37.069C53.5604 36.7225 54.3662 36.965 54.7135 37.6122C55.0604 38.2591 54.8172 39.0648 54.1705 39.4117L42.97 45.4181C42.7735 45.5235 42.5576 45.5761 42.3418 45.5761Z" fill="#85ACD6"/>
<path d="M67.7846 90.0004C58.676 90.0004 51.2656 82.59 51.2656 73.4814C51.2656 64.3728 58.676 56.9624 67.7846 56.9624C76.8932 56.9624 84.3036 64.3728 84.3036 73.4814C84.3036 82.59 76.8932 90.0004 67.7846 90.0004ZM67.7846 59.6206C60.1418 59.6206 53.9239 65.8386 53.9239 73.4814C53.9239 81.1242 60.1418 87.3422 67.7846 87.3422C75.4274 87.3422 81.6454 81.1242 81.6454 73.4814C81.6454 65.8386 75.4274 59.6206 67.7846 59.6206Z" fill="#85ACD6"/>
<path d="M37.4051 90H1.32911C0.595063 90 0 89.405 0 88.6709C0 87.9369 0.595063 87.3418 1.32911 87.3418H37.4051C38.1391 87.3418 38.7342 87.9369 38.7342 88.6709C38.7342 89.405 38.1391 90 37.4051 90Z" fill="#85ACD6"/>
<path d="M12.7215 84.3037H1.32911C0.595063 84.3037 0 83.7087 0 82.9746C0 82.2406 0.595063 81.6455 1.32911 81.6455H12.7215C13.4556 81.6455 14.0506 82.2406 14.0506 82.9746C14.0506 83.7087 13.4556 84.3037 12.7215 84.3037Z" fill="#85ACD6"/>
<path d="M7.02532 78.6074H1.32911C0.595063 78.6074 0 78.0124 0 77.2783C0 76.5443 0.595063 75.9492 1.32911 75.9492H7.02532C7.75937 75.9492 8.35443 76.5443 8.35443 77.2783C8.35443 78.0124 7.75937 78.6074 7.02532 78.6074Z" fill="#85ACD6"/>
</svg>
