<svg width="94" height="90" viewBox="0 0 94 90" fill="none" xmlns="http://www.w3.org/2000/svg">
<path d="M88.5572 15.5172H83.7934V3.10345C83.7934 2.28036 83.4664 1.49099 82.8844 0.908979C82.3024 0.326969 81.513 0 80.6899 0H43.4485C42.6254 0 41.8361 0.326969 41.2541 0.908979C40.6721 1.49099 40.3451 2.28036 40.3451 3.10345V6.2069H13.9658C12.7311 6.2069 11.5471 6.69735 10.6741 7.57036C9.80105 8.44338 9.3106 9.62744 9.3106 10.8621V15.5172H4.54681C3.32708 15.5332 2.16347 16.0322 1.31115 16.9049C0.458844 17.7776 -0.0125853 18.9527 0.000255608 20.1724V69.8276C-0.0125853 71.0474 0.458844 72.2224 1.31115 73.0951C2.16347 73.9678 3.32708 74.4668 4.54681 74.4828H35.4106L34.3756 80.6897H32.5865C32.3456 80.6897 32.108 80.7457 31.8925 80.8535C31.677 80.9612 31.4896 81.1176 31.3451 81.3103L26.6899 87.5173C26.517 87.7478 26.4117 88.0219 26.3858 88.3089C26.36 88.5959 26.4145 88.8845 26.5434 89.1422C26.6723 89.4 26.8704 89.6168 27.1155 89.7683C27.3606 89.9198 27.6431 90 27.9313 90H65.1727C65.4608 90 65.7433 89.9198 65.9885 89.7683C66.2336 89.6168 66.4317 89.4 66.5606 89.1422C66.6895 88.8845 66.744 88.5959 66.7181 88.3089C66.6922 88.0219 66.587 87.7478 66.414 87.5173L61.7589 81.3103C61.6143 81.1176 61.4269 80.9612 61.2114 80.8535C60.996 80.7457 60.7584 80.6897 60.5175 80.6897H58.7284L57.6934 74.4828H88.5572C89.7769 74.4668 90.9405 73.9678 91.7928 73.0951C92.6451 72.2224 93.1165 71.0474 93.1037 69.8276V20.1724C93.1165 18.9527 92.6451 17.7776 91.7928 16.9049C90.9405 16.0322 89.7769 15.5332 88.5572 15.5172ZM43.4485 3.10345H80.6899V31.0345H74.483C74.1473 31.0345 73.8206 31.1434 73.552 31.3448L63.6209 38.7931V32.5862C63.6209 32.1747 63.4575 31.78 63.1665 31.489C62.8755 31.198 62.4808 31.0345 62.0692 31.0345H52.7589V10.8621C52.7589 9.62744 52.2684 8.44338 51.3954 7.57036C50.5224 6.69735 49.3383 6.2069 48.1037 6.2069H43.4485V3.10345ZM12.414 10.8621C12.414 10.4505 12.5775 10.0558 12.8685 9.76484C13.1595 9.47383 13.5542 9.31034 13.9658 9.31034H48.1037C48.5152 9.31034 48.9099 9.47383 49.2009 9.76484C49.4919 10.0558 49.6554 10.4505 49.6554 10.8621V35.6897C49.6554 36.1012 49.4919 36.4959 49.2009 36.7869C48.9099 37.0779 48.5152 37.2414 48.1037 37.2414H37.2416C36.8301 37.2414 36.4354 37.4049 36.1444 37.6959C35.8534 37.9869 35.6899 38.3816 35.6899 38.7931V45L25.7589 37.5517C25.4903 37.3503 25.1636 37.2414 24.8278 37.2414H13.9658C13.5542 37.2414 13.1595 37.0779 12.8685 36.7869C12.5775 36.4959 12.414 36.1012 12.414 35.6897V10.8621ZM4.54681 18.6207H9.3106V35.6897C9.3106 36.9243 9.80105 38.1083 10.6741 38.9814C11.5471 39.8544 12.7311 40.3448 13.9658 40.3448H24.3111L36.3106 49.3448C36.5411 49.5177 36.8153 49.623 37.1023 49.6489C37.3893 49.6748 37.6778 49.6202 37.9356 49.4914C38.1933 49.3625 38.4101 49.1644 38.5616 48.9192C38.7131 48.6741 38.7934 48.3916 38.7934 48.1035V40.3448H48.1037C49.3383 40.3448 50.5224 39.8544 51.3954 38.9814C52.2684 38.1083 52.7589 36.9243 52.7589 35.6897V34.1379H60.5175V41.8966C60.5175 42.1847 60.5977 42.4672 60.7492 42.7123C60.9007 42.9575 61.1175 43.1556 61.3753 43.2845C61.633 43.4133 61.9216 43.4679 62.2086 43.442C62.4956 43.4161 62.7697 43.3108 63.0003 43.1379L74.9997 34.1379H80.6899C81.513 34.1379 82.3024 33.811 82.8844 33.229C83.4664 32.6469 83.7934 31.8576 83.7934 31.0345V18.6207H88.5572C88.9523 18.6408 89.324 18.8141 89.5935 19.1038C89.8629 19.3935 90.0088 19.7769 90.0003 20.1724V62.069H3.1037V20.1724C3.09512 19.7769 3.24104 19.3935 3.51048 19.1038C3.77992 18.8141 4.15167 18.6408 4.54681 18.6207ZM62.0692 86.8966H31.0347L33.3623 83.7931H59.7416L62.0692 86.8966ZM55.5815 80.6897H37.5225L38.5559 74.4828H54.548L55.5815 80.6897ZM88.5572 71.3793H4.54681C4.15167 71.3592 3.77992 71.1859 3.51048 70.8962C3.24104 70.6065 3.09512 70.2231 3.1037 69.8276V65.1724H90.0003V69.8276C90.0088 70.2231 89.8629 70.6065 89.5935 70.8962C89.324 71.1859 88.9523 71.3592 88.5572 71.3793Z" fill="#85ACD6"/>
<path d="M48.1034 66.7241H45V69.8276H48.1034V66.7241Z" fill="#85ACD6"/>
<path d="M29.0401 16.2422C29.3919 15.9467 29.8048 15.7331 30.2492 15.6166C30.6936 15.5002 31.1583 15.4838 31.6097 15.5687C32.2238 15.6883 32.7881 15.9884 33.2305 16.4308C33.6728 16.8731 33.973 17.4375 34.0925 18.0515C34.2252 18.7522 34.1125 19.4773 33.7734 20.1047C33.4342 20.732 32.8894 21.2235 32.2304 21.4963C31.404 21.8491 30.7012 22.4399 30.2118 23.1935C29.7224 23.9471 29.4684 24.8294 29.4823 25.7279V29.483H32.5858V25.7279C32.5742 25.4449 32.6453 25.1647 32.7906 24.9216C32.9358 24.6785 33.1489 24.4831 33.4035 24.3592C34.4426 23.9301 35.3456 23.2268 36.0161 22.3244C36.6866 21.4221 37.0995 20.3545 37.2106 19.2359C37.3217 18.1172 37.1268 16.9893 36.6469 15.9727C36.167 14.9561 35.42 14.0889 34.4856 13.4637C33.5513 12.8386 32.4647 12.4789 31.3419 12.4232C30.219 12.3674 29.1022 12.6177 28.1105 13.1472C27.1188 13.6767 26.2895 14.4656 25.7113 15.4297C25.133 16.3937 24.8274 17.4968 24.8271 18.621H27.9306C27.9305 18.1675 28.0298 17.7195 28.2215 17.3085C28.4132 16.8975 28.6926 16.5335 29.0401 16.2422Z" fill="#85ACD6"/>
<path d="M32.5859 31.0347H29.4824V34.1381H32.5859V31.0347Z" fill="#85ACD6"/>
</svg>
