<svg width="260" height="120" viewBox="0 0 260 120" fill="none" xmlns="http://www.w3.org/2000/svg">
<path fill-rule="evenodd" clip-rule="evenodd" d="M65.5749 0.738251L59.7765 6.85425L64.099 16.5555L58.195 10.6504L52.9237 17.1882L56.2974 7.06514L50.0771 1.58184L57.9842 5.27252L65.5749 0.738251Z" fill="white"/>
<path fill-rule="evenodd" clip-rule="evenodd" d="M57.7757 -9.15527e-05C56.7214 0.105357 55.9834 0.948942 55.9834 2.00342C55.9834 3.05791 56.9322 3.90149 57.8811 3.79604C58.9354 3.69059 59.6733 2.84701 59.6733 1.79253C59.6733 0.738046 58.8299 -9.15527e-05 57.7757 -9.15527e-05Z" fill="white"/>
<path fill-rule="evenodd" clip-rule="evenodd" d="M56.0859 119.262L61.779 113.04L57.4565 103.445L63.3604 109.35L68.7372 102.812L65.2581 112.935L71.4783 118.418L63.5713 114.728L56.0859 119.262Z" fill="white"/>
<path fill-rule="evenodd" clip-rule="evenodd" d="M63.7834 120C64.8377 119.894 65.5757 119.051 65.5757 117.996C65.5757 116.942 64.6269 116.098 63.678 116.204C62.6237 116.309 61.8857 117.153 61.8857 118.207C61.9912 119.262 62.8346 120 63.7834 120Z" fill="white"/>
<path fill-rule="evenodd" clip-rule="evenodd" d="M0.738281 55.2552L6.85306 61.0548L16.5524 56.7314L10.6484 62.6365L17.1849 67.9089L7.06391 64.5346L1.5817 70.756L5.27165 62.8474L0.738281 55.2552Z" fill="white"/>
<path fill-rule="evenodd" clip-rule="evenodd" d="M0 63.058C0.105427 64.1125 0.948845 64.8506 2.00312 64.8506C3.05739 64.8506 3.90081 63.9016 3.79538 62.9526C3.68995 61.8981 2.84653 61.1599 1.79226 61.1599C0.73799 61.1599 0 62.0035 0 63.058Z" fill="white"/>
<path fill-rule="evenodd" clip-rule="evenodd" d="M105.849 22.1438L97.4151 22.3547L93.6198 32.2668V23.9364L85.291 24.78L94.7795 20.0348L94.3578 11.7044L97.3097 19.9294L105.849 22.1438Z" fill="white"/>
<path fill-rule="evenodd" clip-rule="evenodd" d="M100.895 16.1333C100.157 15.5006 98.8923 15.5006 98.2597 16.3442C97.5217 17.0824 97.5217 18.3477 98.3652 18.9804C99.1031 19.6131 100.368 19.6131 101.001 18.7695C101.633 17.926 101.633 16.766 100.895 16.1333Z" fill="white"/>
<path fill-rule="evenodd" clip-rule="evenodd" d="M15.2871 99.227L23.7213 98.9107L27.5167 88.9986V97.4344L35.9508 96.4854L26.357 101.231L26.8841 109.561L23.8267 101.336L15.2871 99.227Z" fill="white"/>
<path fill-rule="evenodd" clip-rule="evenodd" d="M20.3476 105.237C21.0856 105.87 22.3507 105.87 22.9833 105.026C23.7212 104.288 23.7212 103.023 22.8778 102.39C22.1398 101.757 20.8747 101.757 20.2421 102.601C19.5042 103.339 19.5042 104.499 20.3476 105.237Z" fill="white"/>
<path fill-rule="evenodd" clip-rule="evenodd" d="M98.5751 105.343L98.2588 96.9071L88.3486 93.111L96.7828 93.2164L95.834 84.7806L100.578 94.3764L108.907 93.8491L100.684 96.8017L98.5751 105.343Z" fill="white"/>
<path fill-rule="evenodd" clip-rule="evenodd" d="M104.584 100.386C105.216 99.6482 105.216 98.3828 104.373 97.7502C103.635 97.012 102.37 97.012 101.737 97.8556C101.104 98.5937 101.104 99.8591 101.948 100.492C102.686 101.125 103.846 101.124 104.584 100.386Z" fill="white"/>
<path fill-rule="evenodd" clip-rule="evenodd" d="M21.4022 14.8679L21.7185 23.3037L31.6286 27.0999L23.2999 26.9944L24.1433 35.4303L19.3991 25.8345L11.0703 26.3617L19.2936 23.4092L21.4022 14.8679Z" fill="white"/>
<path fill-rule="evenodd" clip-rule="evenodd" d="M15.3943 19.8245C14.7617 20.5626 14.7617 21.828 15.6051 22.4607C16.3431 23.1988 17.6082 23.1988 18.2408 22.3552C18.8734 21.6171 18.8734 20.3517 18.0299 19.719C17.2919 18.9809 16.1322 19.0863 15.3943 19.8245Z" fill="white"/>
<path fill-rule="evenodd" clip-rule="evenodd" d="M80.6527 4.21817L73.4836 8.647L75.1705 19.0864L71.0588 11.8104L64.2061 16.7665L70.11 7.90886L65.5766 0.94928L72.2185 6.64348L80.6527 4.21817Z" fill="white"/>
<path fill-rule="evenodd" clip-rule="evenodd" d="M73.3786 1.47592C72.4298 1.26503 71.3755 1.89772 71.1647 2.9522C70.9538 4.00668 71.5864 5.06116 72.5352 5.27206C73.4841 5.48295 74.5383 4.85027 74.7492 3.79578C74.96 2.7413 74.3275 1.68682 73.3786 1.47592Z" fill="white"/>
<path fill-rule="evenodd" clip-rule="evenodd" d="M40.8008 116.204L47.9698 111.775L46.283 101.23L50.5001 108.612L57.3528 103.656L51.3435 112.513L55.9823 119.473L49.3404 113.779L40.8008 116.204Z" fill="white"/>
<path fill-rule="evenodd" clip-rule="evenodd" d="M48.1808 118.946C49.1296 119.157 50.1839 118.524 50.3947 117.47C50.6056 116.415 49.973 115.361 49.0242 115.15C48.0753 114.939 47.0211 115.572 46.8102 116.626C46.4939 117.68 47.1265 118.735 48.1808 118.946Z" fill="white"/>
<path fill-rule="evenodd" clip-rule="evenodd" d="M3.9011 40.0703L8.43446 47.2407L18.8718 45.5536L11.5973 49.7715L16.5524 56.5202L7.69648 50.6151L0.738281 55.2548L6.32592 48.6116L3.9011 40.0703Z" fill="white"/>
<path fill-rule="evenodd" clip-rule="evenodd" d="M1.26501 47.4513C1.05416 48.4004 1.68672 49.4549 2.74099 49.6658C3.79526 49.8767 4.84953 49.244 5.06039 48.2949C5.27124 47.3459 4.63868 46.2914 3.58441 46.0805C2.42471 45.7642 1.47586 46.3969 1.26501 47.4513Z" fill="white"/>
<path fill-rule="evenodd" clip-rule="evenodd" d="M114.071 35.2194L105.848 33.3213L99.6275 41.9681L101.841 33.8486L93.5127 32.4777L103.95 30.4742L105.637 22.2493L106.375 31.0015L114.071 35.2194Z" fill="white"/>
<path fill-rule="evenodd" clip-rule="evenodd" d="M110.805 28.1549C110.277 27.3113 109.118 27.1004 108.169 27.6277C107.22 28.1549 107.009 29.3149 107.536 30.2639C108.063 31.1075 109.329 31.3184 110.172 30.7911C111.121 30.1584 111.332 28.9985 110.805 28.1549Z" fill="white"/>
<path fill-rule="evenodd" clip-rule="evenodd" d="M6.6416 86.2566L14.8649 88.1547L21.0851 79.6134L18.8712 87.7329L27.1999 88.9983L16.7626 91.1072L15.0758 99.2267L14.3378 90.58L6.6416 86.2566Z" fill="white"/>
<path fill-rule="evenodd" clip-rule="evenodd" d="M9.90908 93.4268C10.4362 94.2704 11.5959 94.4813 12.5448 93.9541C13.4936 93.4268 13.7045 92.2669 13.1773 91.3179C12.6502 90.4743 11.3851 90.2634 10.5416 90.7906C9.69822 91.4233 9.38194 92.5832 9.90908 93.4268Z" fill="white"/>
<path fill-rule="evenodd" clip-rule="evenodd" d="M85.5013 113.779L87.3989 105.554L78.7539 99.3325L86.8718 101.547L88.2424 93.2165L90.2455 103.656L98.4688 105.343L89.7183 106.081L85.5013 113.779Z" fill="white"/>
<path fill-rule="evenodd" clip-rule="evenodd" d="M92.5656 110.51C93.4091 109.983 93.6199 108.823 93.0928 107.874C92.5656 106.925 91.4059 106.714 90.4571 107.241C89.6137 107.768 89.4028 109.034 89.93 109.877C90.5625 110.826 91.7222 111.037 92.5656 110.51Z" fill="white"/>
<path fill-rule="evenodd" clip-rule="evenodd" d="M34.4754 6.32681L32.5777 14.5518L41.1173 20.7732L32.9994 18.5588L31.7343 26.8892L29.6257 16.4498L21.5078 14.7627L30.1528 14.0245L34.4754 6.32681Z" fill="white"/>
<path fill-rule="evenodd" clip-rule="evenodd" d="M27.3057 9.59574C26.4623 10.123 26.2515 11.2829 26.7786 12.2319C27.3057 13.181 28.4654 13.3919 29.4143 12.8646C30.2577 12.3374 30.4686 11.072 29.9414 10.2284C29.3089 9.38485 28.1492 9.0685 27.3057 9.59574Z" fill="white"/>
<path fill-rule="evenodd" clip-rule="evenodd" d="M94.9904 11.8105L86.8726 14.1304L85.7129 24.6752L83.6043 16.5557L75.6973 19.5082L83.8152 12.5486L81.2849 4.64001L86.1346 11.8105H94.9904Z" fill="white"/>
<path fill-rule="evenodd" clip-rule="evenodd" d="M88.6641 7.17037C87.7152 6.74857 86.661 7.06492 86.1338 8.01395C85.6067 8.96299 85.923 10.1229 86.8718 10.5447C87.8207 10.9665 88.8749 10.6502 89.4021 9.70112C89.8238 8.85754 89.5075 7.69761 88.6641 7.17037Z" fill="white"/>
<path fill-rule="evenodd" clip-rule="evenodd" d="M26.5674 109.034L34.6853 106.608L35.845 96.1689L37.9535 104.288L45.8606 101.336L37.7427 108.295L40.2729 116.204L35.4233 109.034H26.5674Z" fill="white"/>
<path fill-rule="evenodd" clip-rule="evenodd" d="M32.8923 113.568C33.8412 113.989 34.8954 113.673 35.4226 112.724C35.9497 111.775 35.6334 110.615 34.6846 110.193C33.7357 109.772 32.6815 110.088 32.1543 111.037C31.6272 111.986 31.9435 113.146 32.8923 113.568Z" fill="white"/>
<path fill-rule="evenodd" clip-rule="evenodd" d="M11.3849 25.8348L13.8097 33.9544L24.3525 35.1143L16.2346 37.1178L19.1865 45.0264L12.2283 37.0123L4.32129 39.5431L11.4903 34.587L11.3849 25.8348Z" fill="white"/>
<path fill-rule="evenodd" clip-rule="evenodd" d="M6.85319 32.162C6.43148 33.111 6.74776 34.1655 7.69661 34.6927C8.64545 35.22 9.80515 34.9036 10.2269 33.9546C10.6486 33.0055 10.3323 31.9511 9.38344 31.4238C8.4346 30.8966 7.2749 31.2129 6.85319 32.162Z" fill="white"/>
<path fill-rule="evenodd" clip-rule="evenodd" d="M118.816 50.6148L111.436 46.6078L103.107 53.251L107.43 45.9751L99.7334 42.4953L110.382 43.3389L114.177 35.9575L112.49 44.4988L118.816 50.6148Z" fill="white"/>
<path fill-rule="evenodd" clip-rule="evenodd" d="M117.552 42.9172C117.235 41.9682 116.181 41.441 115.127 41.7573C114.073 42.0737 113.545 43.1281 113.862 44.0772C114.178 45.0262 115.232 45.5535 116.286 45.2371C117.341 44.9208 117.868 43.9717 117.552 42.9172Z" fill="white"/>
<path fill-rule="evenodd" clip-rule="evenodd" d="M1.6875 71.072L9.0674 75.079L17.3961 68.5412L13.0736 75.7117L20.7698 79.1915L10.1217 78.4534L6.3263 85.8347L7.9077 77.2934L1.6875 71.072Z" fill="white"/>
<path fill-rule="evenodd" clip-rule="evenodd" d="M2.95249 78.77C3.26877 79.719 4.32304 80.2463 5.37731 79.9299C6.43158 79.6136 6.95872 78.5591 6.64244 77.6101C6.32616 76.661 5.27188 76.1338 4.21761 76.4501C3.16334 76.7665 2.6362 77.8209 2.95249 78.77Z" fill="white"/>
<path fill-rule="evenodd" clip-rule="evenodd" d="M70.2148 118.629L74.2211 111.248L67.6846 102.918L74.8536 107.241L78.3327 99.5434L77.5947 110.194L84.9746 113.99L76.435 112.408L70.2148 118.629Z" fill="white"/>
<path fill-rule="evenodd" clip-rule="evenodd" d="M77.9104 117.364C78.8592 117.048 79.3864 115.993 79.0701 114.939C78.7538 113.884 77.6995 113.357 76.7507 113.673C75.8018 113.99 75.2747 115.044 75.591 116.099C75.9073 117.153 76.9615 117.68 77.9104 117.364Z" fill="white"/>
<path fill-rule="evenodd" clip-rule="evenodd" d="M49.7608 1.47653L45.7546 8.96335L52.3965 17.1883L45.122 12.8649L41.6429 20.5627L42.4863 9.91239L35.1064 6.11625L43.6461 7.80342L49.7608 1.47653Z" fill="white"/>
<path fill-rule="evenodd" clip-rule="evenodd" d="M42.0661 2.74123C41.1173 3.05757 40.5901 4.11205 40.9064 5.16653C41.2227 6.22102 42.277 6.74826 43.2258 6.43191C44.1746 6.11557 44.7018 5.06109 44.3855 4.0066C44.0692 3.05757 43.1204 2.42488 42.0661 2.74123Z" fill="white"/>
<path d="M212.858 51.775H206.321V50.9314C206.954 50.9314 207.376 50.826 207.797 50.7205C208.219 50.6151 208.324 50.5096 208.324 50.2988C208.324 50.1933 208.324 50.1933 208.324 50.0879C208.324 49.9824 208.324 49.877 208.219 49.877L206.954 46.2917H201.366C201.155 46.819 200.945 47.2408 200.839 47.6625C200.734 48.0843 200.628 48.4007 200.523 48.717C200.417 49.0334 200.312 49.3497 200.312 49.4552C200.312 49.6661 200.207 49.7715 200.207 49.9824C200.207 50.2988 200.417 50.5096 200.945 50.7205C201.366 50.9314 201.893 50.9314 202.526 51.0369V51.8805H196.517V51.0369C196.727 51.0369 196.938 50.9314 197.255 50.9314C197.571 50.826 197.782 50.7205 197.993 50.6151C198.309 50.4042 198.52 50.1933 198.731 49.9824C198.941 49.7715 199.047 49.4552 199.258 49.0334C200.101 47.0299 200.945 44.8154 201.893 42.2847C202.842 39.7539 203.686 37.645 204.424 35.6414H205.267L210.538 49.3497C210.644 49.6661 210.749 49.877 210.96 50.0879C211.066 50.2988 211.276 50.4042 211.593 50.6151C211.804 50.7205 212.014 50.826 212.225 50.826C212.542 50.9314 212.752 50.9314 212.963 50.9314V51.775H212.858ZM206.532 45.2372L204.107 39.1212L201.788 45.2372H206.532Z" fill="white"/>
<path d="M232.572 51.7752H225.614V50.9316C225.825 50.9316 226.141 50.9316 226.563 50.8262C226.985 50.8262 227.196 50.7207 227.406 50.6153C227.617 50.5098 227.828 50.2989 227.934 50.088C228.039 49.8771 228.144 49.6662 228.144 49.3499V37.9615H227.934L222.451 51.4588H221.924L216.758 37.6451H216.653V47.1355C216.653 48.0845 216.758 48.7172 216.864 49.2444C216.969 49.7717 217.18 50.088 217.391 50.2989C217.602 50.4044 217.918 50.6153 218.445 50.7207C218.972 50.8261 219.289 50.9316 219.499 50.9316V51.7752H212.963V50.9316C213.279 50.9316 213.701 50.8261 214.017 50.7207C214.333 50.6153 214.65 50.5098 214.861 50.4044C215.071 50.1935 215.282 49.8771 215.388 49.4553C215.493 49.0335 215.493 48.2954 215.493 47.2409V39.1214C215.493 38.6996 215.388 38.2778 215.282 37.9615C215.177 37.6451 214.966 37.4342 214.755 37.2233C214.544 37.0124 214.228 36.907 213.912 36.8015C213.595 36.6961 213.279 36.6961 212.963 36.5906V35.8525H218.34L222.873 47.7682L226.774 37.856C226.879 37.5397 226.985 37.1179 227.09 36.6961C227.196 36.2743 227.196 36.0634 227.301 35.8525H232.467V36.6961C232.256 36.6961 232.045 36.6961 231.624 36.8015C231.202 36.907 231.096 36.907 230.886 37.0124C230.675 37.1179 230.464 37.2233 230.358 37.4342C230.253 37.6451 230.253 37.856 230.253 38.0669V49.4553C230.253 49.6662 230.253 49.9826 230.358 50.088C230.464 50.2989 230.569 50.4044 230.886 50.5098C230.991 50.6153 231.307 50.6153 231.624 50.7207C231.94 50.8261 232.256 50.8262 232.467 50.8262V51.7752H232.572Z" fill="white"/>
<path d="M241.64 51.7752H234.471V50.9316C234.682 50.9316 234.998 50.9316 235.314 50.8262C235.736 50.8262 235.947 50.7207 236.158 50.7207C236.368 50.6153 236.579 50.5098 236.685 50.2989C236.79 50.088 236.896 49.8771 236.896 49.5608V38.1724C236.896 37.9615 236.896 37.6451 236.79 37.5397C236.685 37.4342 236.474 37.2233 236.158 37.1179C235.947 37.0124 235.63 36.907 235.314 36.907C234.998 36.8015 234.682 36.8015 234.471 36.8015V35.8525H241.64V36.6961C241.429 36.6961 241.113 36.6961 240.796 36.8015C240.48 36.907 240.164 36.907 239.953 37.0124C239.637 37.1179 239.531 37.2233 239.426 37.4342C239.32 37.6451 239.32 37.856 239.32 38.0669V49.5608C239.32 49.7717 239.426 49.9826 239.531 50.1935C239.637 50.4044 239.847 50.5098 240.058 50.6153C240.164 50.7207 240.48 50.7207 240.796 50.8262C241.113 50.9316 241.429 50.9316 241.745 50.9316V51.7752H241.64Z" fill="white"/>
<path d="M259.034 51.7752H254.817C253.868 50.2989 253.025 49.0335 252.287 47.979C251.549 46.9246 250.705 45.7646 249.756 44.6047H248.175V49.5608C248.175 49.7717 248.175 50.088 248.28 50.2989C248.386 50.5098 248.491 50.6153 248.807 50.7207C248.913 50.8261 249.124 50.8262 249.545 50.8262C249.862 50.8262 250.178 50.9316 250.389 50.9316V51.7752H243.536V50.9316C243.747 50.9316 243.958 50.9316 244.274 50.8262C244.59 50.7207 244.801 50.7207 245.012 50.7207C245.223 50.6153 245.434 50.5098 245.539 50.2989C245.645 50.088 245.645 49.8771 245.645 49.5608V38.1724C245.645 37.9615 245.645 37.6451 245.539 37.4342C245.434 37.2233 245.328 37.1179 245.012 37.0124C244.801 36.907 244.59 36.907 244.274 36.8015C243.958 36.6961 243.747 36.6961 243.536 36.6961V35.8525H250.811C251.443 35.8525 252.076 35.958 252.708 36.0634C253.341 36.1689 253.868 36.3797 254.29 36.6961C254.711 37.0124 255.133 37.4342 255.344 37.856C255.66 38.3833 255.766 38.9105 255.766 39.5432C255.766 40.1759 255.66 40.7031 255.449 41.1249C255.239 41.5467 255.028 41.9685 254.606 42.3903C254.29 42.7066 253.868 43.023 253.446 43.2339C253.025 43.4448 252.497 43.6557 251.865 43.8666C252.603 44.9211 253.341 45.7646 253.763 46.5028C254.184 47.2409 254.922 48.0845 255.66 49.0335C255.977 49.4553 256.293 49.7717 256.504 49.9826C256.715 50.1935 257.031 50.4044 257.242 50.5098C257.453 50.6153 257.663 50.7207 257.98 50.7207C258.296 50.7207 258.507 50.8262 258.718 50.8262V51.7752H259.034ZM253.13 39.965C253.13 39.016 252.814 38.2778 252.287 37.6451C251.759 37.1179 250.916 36.8015 249.967 36.8015H248.07V43.5502H249.545C250.6 43.5502 251.443 43.2339 252.076 42.6012C252.814 41.9685 253.13 41.0195 253.13 39.965Z" fill="white"/>
<path d="M103.002 83.1982C101.21 83.1982 99.5227 82.8818 97.9413 82.3546C96.3599 81.8273 94.9893 80.9838 93.8296 79.8238C92.6699 78.7693 91.8265 77.3985 91.194 75.8168C90.5614 74.2351 90.2451 72.4425 90.2451 70.5444C90.2451 68.6463 90.5614 66.8537 91.194 65.272C91.8265 63.6903 92.7754 62.214 93.9351 61.0541C95.0948 59.8941 96.4653 58.9451 98.1522 58.3124C99.839 57.6797 101.526 57.3634 103.424 57.3634C104.794 57.3634 106.059 57.5743 107.113 57.8906C108.273 58.207 109.222 58.6287 109.96 59.0505L111.014 58.1015H112.49L112.596 67.0646H111.12C110.276 64.3229 109.222 62.3194 108.062 61.0541C106.903 59.7887 105.427 59.156 103.634 59.156C101.526 59.156 99.839 60.105 98.6793 62.0031C97.5196 63.9012 96.9925 66.5374 96.9925 70.0172C96.9925 71.9152 97.2033 73.6024 97.5196 74.9732C97.9413 76.344 98.363 77.504 98.9956 78.3476C99.6281 79.1911 100.472 79.8238 101.315 80.2456C102.158 80.6674 103.213 80.8783 104.372 80.8783C105.954 80.8783 107.43 80.4565 108.695 79.6129C109.96 78.7694 111.12 77.3985 112.174 75.6059L113.65 76.5549C113.123 77.6094 112.596 78.453 111.963 79.2966C111.331 80.1402 110.593 80.7729 109.749 81.4056C108.8 82.0382 107.851 82.5655 106.692 82.8818C105.532 83.1982 104.583 83.1982 103.002 83.1982Z" fill="white"/>
<path d="M142.01 82.4603H128.726V81.1949C129.359 81.1949 130.097 81.0895 130.94 80.8786C131.784 80.6677 132.205 80.4568 132.205 80.2459C132.205 80.1404 132.205 80.035 132.205 79.9295C132.205 79.8241 132.1 79.6132 132.1 79.5078L129.991 74.4462H121.557C121.346 74.868 121.136 75.5007 120.925 76.1334C120.714 76.7661 120.503 77.2933 120.292 77.8206C120.081 78.4533 119.976 78.9805 119.87 79.1914C119.87 79.5077 119.765 79.7186 119.765 79.8241C119.765 80.1404 120.081 80.4568 120.608 80.7731C121.136 80.984 122.084 81.1949 123.35 81.3004V82.6712H113.334V81.1949C113.756 81.1949 114.177 81.0895 114.599 80.984C115.126 80.8786 115.443 80.7731 115.759 80.5622C116.181 80.2459 116.602 79.9295 116.919 79.5078C117.235 79.086 117.551 78.6642 117.762 78.0315C119.132 74.7626 120.398 71.5991 121.768 68.3302C123.139 65.0614 124.615 61.4761 126.196 57.5745H129.675C131.889 63.1633 133.681 67.4867 134.947 70.7555C136.212 73.919 137.266 76.6606 138.215 78.7696C138.32 79.086 138.531 79.4023 138.742 79.7186C138.953 80.035 139.269 80.2459 139.691 80.5622C140.007 80.7731 140.429 80.8786 140.85 80.984C141.272 81.0895 141.694 81.0895 142.01 81.1949V82.4603ZM129.148 72.5482L125.564 63.6905L122.084 72.5482H129.148Z" fill="white"/>
<path d="M164.256 60.5265C165.732 61.4756 166.997 62.8464 167.84 64.4281C168.789 66.0098 169.211 68.0134 169.211 70.4387C169.211 72.5476 168.789 74.3403 167.946 75.8165C167.102 77.3983 166.048 78.5582 164.678 79.6127C163.307 80.5617 161.726 81.2998 159.933 81.8271C158.141 82.3543 156.349 82.5652 154.451 82.5652H142.116V81.1944C142.432 81.1944 142.96 81.1944 143.487 81.0889C144.014 80.9835 144.436 80.9835 144.541 80.878C144.963 80.6671 145.279 80.4563 145.384 80.1399C145.595 79.8236 145.595 79.5072 145.595 79.0854V61.7919C145.595 61.3701 145.49 61.0538 145.384 60.7374C145.279 60.4211 144.963 60.2102 144.541 59.9993C144.119 59.7884 143.592 59.683 143.17 59.5775C142.643 59.4721 142.327 59.4721 142.011 59.4721V57.9958H154.978C156.349 57.9958 157.825 58.2067 159.406 58.523C161.304 58.9448 162.78 59.5775 164.256 60.5265ZM160.777 78.0309C161.304 77.0819 161.726 76.0274 162.042 74.7621C162.253 73.4967 162.464 72.0204 162.464 70.3332C162.464 68.7515 162.253 67.2752 161.936 65.9044C161.62 64.5336 161.093 63.4791 160.461 62.5301C159.828 61.581 158.985 60.8429 157.93 60.3156C156.876 59.7884 155.822 59.5775 154.557 59.5775C154.135 59.5775 153.713 59.5775 153.186 59.5775C152.659 59.5775 152.343 59.5775 152.026 59.5775V78.1364C152.026 78.5582 152.132 78.8745 152.237 79.1909C152.343 79.5072 152.553 79.8236 152.764 80.0345C153.081 80.2454 153.397 80.4563 153.713 80.5617C154.135 80.6672 154.557 80.7726 155.189 80.7726C156.454 80.7726 157.614 80.5617 158.563 80.0345C159.406 79.7181 160.144 78.98 160.777 78.0309Z" fill="white"/>
<path d="M193.354 64.3227H192.089C191.772 63.3736 191.14 62.4246 190.402 61.4756C189.558 60.5265 188.82 59.9993 187.977 59.7884C187.661 59.683 187.133 59.683 186.501 59.683C185.868 59.683 185.341 59.683 185.025 59.683H181.335V69.0679H183.865C184.498 69.0679 185.025 68.9624 185.552 68.857C186.079 68.7515 186.501 68.4352 186.923 68.0134C187.239 67.697 187.45 67.2752 187.766 66.6425C188.082 66.0099 188.188 65.3772 188.293 64.8499H189.558V75.0784H188.293C188.188 74.5512 188.082 74.0239 187.766 73.2858C187.45 72.5476 187.239 72.0204 186.923 71.8095C186.501 71.3877 186.079 71.0714 185.552 70.9659C185.025 70.8605 184.392 70.755 183.76 70.755H181.335V77.8201C181.335 78.5582 181.44 79.1909 181.546 79.6127C181.651 80.0345 181.862 80.3508 182.178 80.5617C182.495 80.7726 182.811 80.8781 183.338 80.9835C183.865 81.0889 184.498 81.0889 185.341 81.0889C185.763 81.0889 186.185 81.0889 186.817 81.0889C187.344 81.0889 187.871 81.0889 188.293 80.9835C188.82 80.8781 189.242 80.878 189.664 80.7726C190.085 80.6672 190.402 80.4563 190.613 80.2454C191.14 79.7181 191.772 78.8745 192.51 77.7146C193.248 76.5547 193.67 75.7111 193.881 75.0784H195.146L194.724 82.6707H171.741V81.1944C172.057 81.1944 172.479 81.0889 173.006 81.0889C173.533 81.0889 173.955 80.9835 174.166 80.878C174.588 80.6672 174.904 80.4563 175.009 80.1399C175.115 79.8236 175.22 79.5072 175.22 79.0854V61.7919C175.22 61.3701 175.115 61.0538 175.009 60.7374C174.904 60.4211 174.588 60.2102 174.061 59.9993C173.744 59.8939 173.323 59.683 172.795 59.5775C172.268 59.4721 171.847 59.3666 171.53 59.3666V57.9958H193.248V64.3227H193.354Z" fill="white"/>
<path d="M230.676 82.4598H217.392V81.1944C217.814 81.1944 218.236 81.0889 218.868 80.9835C219.395 80.8781 219.817 80.7726 220.028 80.7726C220.45 80.5617 220.766 80.3508 220.977 80.0345C221.188 79.7181 221.293 79.4018 221.293 78.8745V60.632L212.859 82.1434H210.645C210.539 81.7216 210.329 80.9835 209.907 79.929C209.485 78.8745 209.169 77.9255 208.958 77.1874L202.738 60.4211V75.2893C202.738 76.7656 202.843 77.8201 203.054 78.5582C203.265 79.2963 203.581 79.8236 204.003 80.1399C204.319 80.3508 204.846 80.5617 205.584 80.878C206.322 81.0889 206.849 81.1944 207.166 81.2998V82.6707H196.623V81.1944C196.939 81.1944 197.361 81.0889 197.994 80.9835C198.626 80.8781 199.153 80.6672 199.575 80.3508C199.997 80.0345 200.313 79.5072 200.524 78.7691C200.735 78.0309 200.735 76.871 200.735 75.5002V63.2682C200.735 62.5301 200.629 61.8974 200.418 61.4756C200.208 61.0538 199.997 60.632 199.575 60.3156C199.153 59.9993 198.626 59.683 198.204 59.5775C197.677 59.4721 197.256 59.3666 196.728 59.3666V57.9958H208.009L214.019 74.1294L219.079 61.0538C219.29 60.5265 219.395 59.9993 219.606 59.3666C219.817 58.7339 219.817 58.3121 219.817 58.1012H230.676V59.4721C230.36 59.4721 229.938 59.5775 229.516 59.5775C229.095 59.5775 228.778 59.7884 228.357 59.8939C227.935 59.9993 227.619 60.3156 227.513 60.632C227.408 60.9483 227.302 61.2647 227.302 61.6865V78.98C227.302 79.4018 227.408 79.7181 227.513 80.0345C227.619 80.3508 227.935 80.5617 228.357 80.7726C228.567 80.878 228.989 80.9835 229.516 81.0889C230.043 81.1944 230.465 81.1944 230.781 81.2998V82.4598H230.676Z" fill="white"/>
<path d="M259.035 59.3666C258.613 59.3666 258.191 59.4721 257.875 59.5775C257.559 59.683 257.243 59.7884 256.926 59.9993C256.399 60.3157 255.977 60.632 255.661 61.0538C255.345 61.4756 254.923 62.0028 254.502 62.5301C253.764 63.5845 253.026 64.8499 252.182 66.1153C251.339 67.3807 250.495 68.8569 249.546 70.3332C248.914 71.2823 248.492 72.0204 248.387 72.5476C248.281 73.0749 248.176 74.0239 248.176 75.2893V78.7691C248.176 79.1909 248.281 79.5072 248.387 79.8236C248.492 80.1399 248.808 80.3508 249.23 80.5617C249.441 80.6672 249.863 80.7726 250.495 80.878C251.128 80.9835 251.55 81.0889 251.866 81.0889V82.4598H238.266V81.1944C238.582 81.1944 239.004 81.0889 239.636 81.0889C240.269 80.9835 240.691 80.9835 240.901 80.878C241.323 80.6671 241.639 80.4563 241.745 80.1399C241.85 79.8236 241.956 79.5072 241.956 78.98V74.6566C241.956 74.2348 241.956 73.9185 241.956 73.7076C241.956 73.3912 241.956 73.1803 241.85 72.9694C241.745 72.7585 241.639 72.4422 241.429 72.1258C241.218 71.8095 241.007 71.3877 240.691 70.755C239.847 69.1733 238.898 67.697 238.16 66.3262C237.317 64.9554 236.579 63.5845 235.841 62.4246C235.419 61.7919 235.103 61.2647 234.681 60.9483C234.26 60.632 233.838 60.2102 233.416 59.9993C233.1 59.7884 232.678 59.683 232.256 59.5775C231.835 59.4721 231.413 59.4721 231.097 59.3666V57.9958H245.118V59.3666C243.853 59.3666 243.01 59.4721 242.483 59.683C242.061 59.7884 241.85 59.9993 241.85 60.3156C241.85 60.4211 241.956 60.7374 242.061 61.0538C242.272 61.4756 242.483 62.0028 242.905 62.8464C243.326 63.5845 243.853 64.639 244.591 65.9044C245.329 67.1698 246.278 68.7515 247.332 70.5441C249.546 67.0643 251.022 64.639 251.866 63.2682C252.709 61.8974 253.131 61.0538 253.131 60.7374C253.131 60.3156 252.92 59.9993 252.393 59.8939C251.866 59.683 251.128 59.5775 250.074 59.4721V57.9958H259.14V59.3666H259.035Z" fill="white"/>
<path d="M90.7716 82.4602H62.2009V79.6131C63.5714 79.5077 65.0474 79.2968 66.8396 78.875C68.6319 78.4532 69.5808 78.0314 69.5808 77.3987C69.5808 77.1878 69.5808 76.9769 69.4753 76.766C69.4753 76.5551 69.3699 76.2388 69.159 75.817L64.7311 64.9558H46.5976C46.1759 66.0103 45.7542 67.1702 45.2271 68.5411C44.6999 69.9119 44.2782 71.0718 43.962 72.1263C43.5402 73.4971 43.224 74.5516 43.1185 75.0789C43.0131 75.7116 43.0131 76.1334 43.0131 76.3442C43.0131 77.0824 43.6457 77.8205 44.8054 78.3478C45.9651 78.875 47.9682 79.2968 50.8147 79.5077V82.3548H29.2021V79.5077C30.0456 79.5077 30.889 79.2968 31.9433 79.0859C32.9975 78.875 33.7355 78.5587 34.3681 78.2423C35.4223 77.6096 36.2658 76.8715 36.8983 76.0279C37.6363 75.1843 38.1635 74.1298 38.6906 72.9699C41.5371 66.0103 44.3837 59.0507 47.3356 52.0912C50.1822 45.1316 53.345 37.4339 56.8241 29.1035H64.204C69.0536 41.0191 72.849 50.404 75.5901 57.2581C78.3312 64.2177 80.6506 69.9119 82.5483 74.4462C82.8646 75.1843 83.2863 75.817 83.8134 76.4497C84.3406 77.0824 84.9731 77.6096 85.922 78.1369C86.66 78.5587 87.3979 78.875 88.3468 78.9804C89.2956 79.1913 90.0336 79.2968 90.877 79.4022V82.4602H90.7716ZM63.2551 61.2651L55.6644 42.2845L48.179 61.2651H63.2551Z" fill="white"/>
</svg>
