<svg width="36" height="36" viewBox="0 0 36 36" fill="none" xmlns="http://www.w3.org/2000/svg">
<path fill-rule="evenodd" clip-rule="evenodd" d="M2 0C1.46958 5.30337e-05 0.960906 0.210784 0.585845 0.585845C0.210784 0.960906 5.30337e-05 1.46958 0 2V15C5.30337e-05 15.5304 0.210784 16.0391 0.585845 16.4142C0.960906 16.7892 1.46958 16.9999 2 17H15C15.5304 16.9999 16.0391 16.7892 16.4142 16.4142C16.7892 16.0391 16.9999 15.5304 17 15V2C16.9999 1.46958 16.7892 0.960906 16.4142 0.585845C16.0391 0.210784 15.5304 5.30337e-05 15 0H2ZM4 4H13V13H4V4Z" fill="white"/>
<path fill-rule="evenodd" clip-rule="evenodd" d="M21 0C20.4696 5.30337e-05 19.9609 0.210784 19.5858 0.585845C19.2108 0.960906 19.0001 1.46958 19 2V15C19.0001 15.5304 19.2108 16.0391 19.5858 16.4142C19.9609 16.7892 20.4696 16.9999 21 17H34C34.5304 16.9999 35.0391 16.7892 35.4142 16.4142C35.7892 16.0391 35.9999 15.5304 36 15V2C35.9999 1.46958 35.7892 0.960906 35.4142 0.585845C35.0391 0.210784 34.5304 5.30337e-05 34 0H21ZM23 4H32V13H23V4Z" fill="white"/>
<path fill-rule="evenodd" clip-rule="evenodd" d="M2 19C1.46958 19.0001 0.960906 19.2108 0.585845 19.5858C0.210784 19.9609 5.30337e-05 20.4696 0 21V34C5.30337e-05 34.5304 0.210784 35.0391 0.585845 35.4142C0.960906 35.7892 1.46958 35.9999 2 36H15C15.5304 35.9999 16.0391 35.7892 16.4142 35.4142C16.7892 35.0391 16.9999 34.5304 17 34V21C16.9999 20.4696 16.7892 19.9609 16.4142 19.5858C16.0391 19.2108 15.5304 19.0001 15 19H2ZM4 23H13V32H4V23Z" fill="white"/>
<path fill-rule="evenodd" clip-rule="evenodd" d="M21 19C20.4696 19.0001 19.9609 19.2108 19.5858 19.5858C19.2108 19.9609 19.0001 20.4696 19 21V34C19.0001 34.5304 19.2108 35.0391 19.5858 35.4142C19.9609 35.7892 20.4696 35.9999 21 36H34C34.5304 35.9999 35.0391 35.7892 35.4142 35.4142C35.7892 35.0391 35.9999 34.5304 36 34V21C35.9999 20.4696 35.7892 19.9609 35.4142 19.5858C35.0391 19.2108 34.5304 19.0001 34 19H21ZM23 23H32V32H23V23Z" fill="white"/>
</svg>
