<svg width="1842" height="800" viewBox="0 0 1842 800" fill="none" xmlns="http://www.w3.org/2000/svg">
<g opacity="0.31">
<path d="M1768.49 171.246C1704.13 178.101 1681.56 376.465 1624.87 382.503C1488.47 397.03 1516.47 84.1729 1390.42 97.598C1258.34 111.666 1344.53 398.801 1170.21 417.367C1074.9 427.518 1077.89 219.034 992.067 228.175C898.089 238.184 926.326 482.67 807.608 495.315C710.391 505.669 694.586 395.472 621.506 403.256C523.016 413.746 545.735 634.057 433.277 647.743C299.4 664.036 299.285 546.659 217.461 556.814C173.147 562.315 130.065 631.947 97.828 717.609" stroke="url(#paint0_linear)" stroke-width="4"/>
<path d="M437.262 667.48C448.04 664.541 454.394 653.422 451.456 642.644C448.517 631.867 437.397 625.512 426.62 628.451C415.842 631.39 409.487 642.509 412.426 653.287C415.364 664.064 426.484 670.419 437.262 667.48Z" fill="url(#paint1_radial)"/>
<path d="M222.404 576.638C233.182 573.699 239.537 562.58 236.598 551.803C233.659 541.025 222.54 534.671 211.762 537.609C200.984 540.548 194.629 551.668 197.568 562.445C200.507 573.223 211.626 579.577 222.404 576.638Z" fill="url(#paint2_radial)"/>
<path d="M626.376 422.411C637.154 419.472 643.509 408.353 640.57 397.575C637.631 386.797 626.512 380.442 615.734 383.381C604.956 386.32 598.601 397.439 601.54 408.217C604.479 418.995 615.598 425.35 626.376 422.411Z" fill="url(#paint3_radial)"/>
<path d="M813.494 513.752C824.272 510.813 830.627 499.693 827.688 488.916C824.749 478.138 813.63 471.783 802.852 474.722C792.074 477.661 785.719 488.78 788.658 499.558C791.597 510.336 802.717 516.691 813.494 513.752Z" fill="url(#paint4_radial)"/>
<path d="M1175.68 435.78C1186.45 432.841 1192.81 421.722 1189.87 410.944C1186.93 400.166 1175.81 393.811 1165.03 396.75C1154.26 399.689 1147.9 410.808 1150.84 421.586C1153.78 432.364 1164.9 438.719 1175.68 435.78Z" fill="url(#paint5_radial)"/>
<path d="M1395.3 116.753C1406.08 113.814 1412.43 102.694 1409.49 91.9165C1406.55 81.1386 1395.43 74.7838 1384.66 77.7227C1373.88 80.6615 1367.52 91.7811 1370.46 102.559C1373.4 113.337 1384.52 119.692 1395.3 116.753Z" fill="url(#paint6_radial)"/>
<path d="M1630.34 400.916C1641.12 397.977 1647.47 386.857 1644.53 376.08C1641.59 365.302 1630.47 358.947 1619.7 361.886C1608.92 364.825 1602.56 375.944 1605.5 386.722C1608.44 397.5 1619.56 403.855 1630.34 400.916Z" fill="url(#paint7_radial)"/>
<path d="M998.238 248.097C1009.02 245.158 1015.37 234.038 1012.43 223.26C1009.49 212.482 998.373 206.128 987.595 209.066C976.817 212.005 970.462 223.125 973.401 233.903C976.34 244.681 987.46 251.035 998.238 248.097Z" fill="url(#paint8_radial)"/>
<path d="M219.291 564.017C222.883 563.037 225.002 559.331 224.022 555.739C223.042 552.146 219.336 550.028 215.743 551.007C212.151 551.987 210.032 555.694 211.012 559.286C211.992 562.879 215.698 564.997 219.291 564.017Z" fill="#00E8D3"/>
<path d="M433.339 654.096C436.931 653.116 439.05 649.41 438.07 645.817C437.09 642.224 433.384 640.106 429.791 641.086C426.199 642.065 424.08 645.772 425.06 649.364C426.04 652.957 429.746 655.075 433.339 654.096Z" fill="#00E8D3"/>
<path d="M622.129 410.017C625.721 409.037 627.84 405.33 626.86 401.738C625.88 398.145 622.174 396.027 618.581 397.007C614.989 397.986 612.87 401.693 613.85 405.285C614.83 408.878 618.536 410.996 622.129 410.017Z" fill="#00E8D3"/>
<path d="M810.615 504.085C816.028 502.609 819.219 497.025 817.743 491.613C816.267 486.2 810.683 483.009 805.271 484.485C799.858 485.961 796.667 491.545 798.143 496.957C799.619 502.37 805.203 505.561 810.615 504.085Z" fill="#00E8D3"/>
<path d="M995.36 238.156C1000.77 236.68 1003.96 231.096 1002.49 225.683C1001.01 220.271 995.428 217.079 990.016 218.555C984.603 220.031 981.412 225.615 982.888 231.028C984.364 236.44 989.948 239.631 995.36 238.156Z" fill="#00E8D3"/>
<path d="M1173.03 426.946C1178.44 425.47 1181.63 419.886 1180.16 414.473C1178.68 409.061 1173.1 405.869 1167.68 407.345C1162.27 408.821 1159.08 414.405 1160.56 419.818C1162.03 425.23 1167.62 428.421 1173.03 426.946Z" fill="#00E8D3"/>
<path d="M1392.65 107.35C1398.06 105.874 1401.25 100.29 1399.78 94.8775C1398.3 89.4651 1392.72 86.2738 1387.3 87.7497C1381.89 89.2255 1378.7 94.8095 1380.18 100.222C1381.65 105.634 1387.24 108.826 1392.65 107.35Z" fill="#00E8D3"/>
<path d="M1627.69 393.882C1633.1 392.406 1636.29 386.822 1634.81 381.41C1633.34 375.997 1627.75 372.806 1622.34 374.282C1616.93 375.758 1613.74 381.342 1615.21 386.754C1616.69 392.167 1622.27 395.358 1627.69 393.882Z" fill="#00E8D3"/>
</g>
<path d="M461.384 302.609H555.64C560.182 302.609 563.967 306.395 563.967 310.937V364.879C563.967 369.421 560.182 373.207 555.64 373.207H486.935L474.443 384.563V373.207H461.384C456.841 373.207 453.056 369.421 453.056 364.879V310.937C453.056 306.395 456.841 302.609 461.384 302.609Z" fill="#00E8D3"/>
<path d="M523.464 354.467L522.707 354.846C513.433 359.578 502.645 359.578 493.37 354.846L492.613 354.467V331.755H523.464V354.467Z" fill="#00E8D3"/>
<path d="M508.132 361.095C502.643 361.095 497.154 359.77 492.233 357.309L491.476 356.931C490.53 356.363 489.962 355.417 489.962 354.47V331.758C489.962 330.244 491.287 328.919 492.801 328.919H523.652C525.166 328.919 526.491 330.244 526.491 331.758V354.47C526.491 355.606 525.923 356.552 524.977 356.931L524.22 357.309C518.92 359.959 513.431 361.095 508.132 361.095ZM495.451 352.767C503.4 356.552 512.864 356.552 520.813 352.767V334.597H495.451V352.767Z" fill="white"/>
<path d="M508.133 318.129L478.607 329.864L508.133 341.598L537.47 329.864L508.133 318.129Z" fill="#00E8D3"/>
<path d="M508.132 344.438C507.753 344.438 507.375 344.438 507.185 344.249L477.659 332.514C476.524 332.136 475.956 331 475.956 329.864C475.956 328.729 476.713 327.782 477.659 327.215L507.185 315.48C507.753 315.291 508.51 315.291 509.267 315.48L538.793 327.215C539.929 327.593 540.497 328.729 540.497 329.864C540.497 331 539.74 331.946 538.793 332.514L509.267 344.249C508.7 344.438 508.321 344.438 508.132 344.438ZM485.987 329.864L507.943 338.571L529.898 329.864L507.943 321.158L485.987 329.864Z" fill="white"/>
<path d="M532.361 333.081H529.332V363.175H532.361V333.081Z" fill="white"/>
<path d="M421.272 635.34L421.651 636.286L422.219 617.17L431.304 618.495L428.843 635.34C428.465 637.043 422.976 635.529 421.272 635.34Z" fill="#EFAFC0"/>
<path d="M402.724 641.398L403.102 642.345L403.67 623.229L412.755 624.553L410.295 641.398C410.105 643.291 404.616 641.777 402.724 641.398Z" fill="#EFAFC0"/>
<path d="M434.143 629.664L435.279 624.743C438.685 609.033 441.335 573.64 440.767 563.041C439.632 546.006 440.01 495.093 439.632 493.579L437.171 483.169L416.352 488.279L418.812 498.689C418.812 499.068 422.787 533.136 423.733 548.278C423.922 553.956 421.273 589.917 414.459 620.011L413.323 624.932L434.143 629.664Z" fill="#FDB900"/>
<path d="M494.331 427.901C496.224 426.955 497.17 424.873 498.306 422.98C498.306 420.709 498.495 418.438 498.495 416.166C498.495 415.977 498.495 415.788 498.495 415.599C498.684 415.031 499.631 415.031 500.009 415.409C500.388 415.788 500.577 416.545 500.577 417.113C500.766 417.87 500.955 418.816 501.145 419.573C501.334 419.573 501.334 419.384 501.523 419.384C502.848 418.248 504.362 417.113 506.066 416.356C507.769 415.599 509.662 415.409 511.365 415.977C511.744 416.166 511.933 416.545 511.554 416.923C511.365 417.302 510.797 417.302 510.419 417.491C509.094 417.681 507.769 418.248 506.633 419.005C506.444 419.195 506.633 419.573 506.823 419.384C510.04 417.87 512.122 418.627 512.311 418.816C512.501 419.005 512.311 419.195 512.122 419.384C511.933 419.573 510.986 419.762 510.608 419.952C509.094 420.33 508.147 421.277 508.147 421.277C508.147 421.277 507.39 422.412 510.797 420.898C511.176 420.709 511.744 420.52 512.122 420.709C512.122 420.709 512.311 420.709 512.311 420.898V421.087C512.311 421.466 512.122 421.655 511.933 421.844C511.744 422.034 511.365 422.223 511.176 422.412C509.851 423.169 508.526 423.737 507.39 424.494C507.769 424.305 510.419 423.359 510.797 423.359C510.986 423.359 511.176 423.359 511.176 423.548C511.365 423.737 511.176 424.116 510.986 424.305C510.04 425.63 506.444 427.712 505.119 428.469C503.605 429.226 501.712 429.604 500.577 430.74C499.252 432.065 497.549 433.39 495.656 433.39C494.142 433.201 494.142 429.794 494.331 427.901Z" fill="#EDC6A2"/>
<path d="M404.616 534.083H397.235C396.856 534.083 396.667 533.894 396.667 533.515V500.204C396.667 499.825 396.856 499.636 397.235 499.636H437.928C438.306 499.636 438.495 499.825 438.495 500.204C438.495 518.941 423.354 534.083 404.616 534.083Z" fill="#FDD328"/>
<path d="M429.222 419.195C429.222 419.195 454.016 445.504 462.154 445.882C470.104 446.261 494.898 425.252 494.898 425.252L501.901 434.148C501.901 434.148 470.861 470.487 457.99 466.702C445.309 462.917 428.086 437.554 428.086 437.554L429.222 419.195Z" fill="#122861"/>
<path d="M419.38 631.745V620.957C419.38 618.307 426.194 553.009 425.626 542.978C424.68 527.269 426.383 521.401 426.383 521.023L417.866 508.342H396.289V519.13C396.289 520.266 396.289 528.404 397.235 544.871C397.803 552.631 400.264 601.462 400.264 619.821V631.556L419.38 631.745Z" fill="#FDD328"/>
<path d="M439.82 443.234C438.874 434.717 435.467 417.304 421.272 416.358C406.698 415.412 397.802 426.389 395.153 434.528C392.503 442.477 394.963 502.665 394.963 502.665L395.342 509.289L439.063 508.343L439.441 501.529C439.441 501.34 440.955 454.212 439.82 443.234Z" fill="#122861"/>
<path d="M421.463 426.201H418.434C415.595 426.201 413.135 423.929 413.135 420.901V396.485H426.762V420.901C426.762 423.74 424.302 426.201 421.463 426.201Z" fill="#EDC6A2"/>
<path opacity="0.5" d="M413.135 401.596C415.027 406.327 418.813 413.52 426.762 415.223V396.485H414.46L413.135 397.053V401.596Z" fill="#E4BB95"/>
<path d="M429.79 376.233H426.762C420.516 376.233 415.595 381.344 415.595 387.4V397.999C415.595 404.245 421.462 411.627 427.708 411.627L431.683 410.681C437.739 408.409 440.011 398.189 440.011 393.457L440.389 386.454C440.2 380.587 436.036 376.233 429.79 376.233Z" fill="#EDC6A2"/>
<path d="M420.135 395.726C420.135 399.132 419.946 401.782 416.539 401.782C413.133 401.782 411.051 399.132 411.051 395.726C411.051 392.319 410.672 389.669 414.079 389.669C417.296 389.669 420.135 392.508 420.135 395.726Z" fill="#EDC6A2"/>
<path d="M424.68 417.869L411.81 418.248L412.756 423.358L431.115 438.5L430.168 423.547L424.68 417.869Z" fill="#E4E5E6"/>
<path d="M413.133 414.467C413.133 414.467 419.947 419.388 426.95 415.413L427.139 417.874L430.167 423.552L424.489 419.199L420.136 426.202L412.376 417.874L413.133 414.467Z" fill="#F0F0F0"/>
<path d="M417.299 385.317C417.678 387.02 418.624 388.724 419.76 390.049C419.381 392.131 419.003 394.402 419.003 396.484C418.435 396.484 417.678 396.294 416.921 396.294C416.921 394.213 416.542 392.32 415.975 390.427C414.65 390.238 413.325 390.427 412 390.616C411.432 388.913 410.675 386.831 409.729 385.128C409.161 384.181 409.35 383.424 409.161 382.289C408.972 380.017 410.675 377.935 412.378 376.421C414.082 374.907 416.353 374.15 418.624 374.15C425.249 370.365 433.198 368.472 440.579 369.608C441.715 369.797 442.851 369.986 443.797 370.554C445.311 371.311 446.068 372.825 446.636 374.339C447.582 376.989 447.393 380.207 445.69 382.478C444.365 383.992 442.094 384.371 440.012 384.181C438.687 383.992 437.551 383.613 436.226 383.235C433.387 382.289 430.737 381.532 427.898 380.585C427.709 380.585 427.331 380.396 427.52 380.017C425.249 382.856 420.896 384.938 417.299 385.317Z" fill="#1C213C"/>
<path d="M411.053 639.506C411.053 639.506 409.539 635.91 411.431 635.72C413.513 635.342 414.46 636.667 414.46 636.667L419.381 642.156L422.031 646.13L418.245 644.427L411.053 639.506Z" fill="#3A3938"/>
<path d="M403.104 637.803C403.104 637.803 404.807 641.778 406.511 641.021C407.457 640.642 409.16 637.425 410.485 637.803C411.81 638.182 416.542 641.778 418.435 642.724C420.327 643.67 414.439 636.799 414.439 636.799C414.439 636.799 419.381 641.399 421.084 642.156C422.788 642.913 436.604 646.32 436.983 650.673L436.794 653.512C436.794 653.512 432.251 657.676 421.652 654.27C410.864 650.863 404.807 650.295 402.914 649.538C400.832 648.97 401.59 637.992 403.104 637.803Z" fill="#141414"/>
<path d="M423.544 652.943C418.434 652.186 409.917 648.59 406.699 648.212C404.806 648.022 402.914 647.455 401.589 646.887C401.778 648.401 401.967 649.347 402.535 649.537C404.428 650.294 410.484 650.861 421.273 654.268C432.061 657.675 436.414 653.511 436.414 653.511L436.603 650.672C435.657 653.133 428.654 653.7 423.544 652.943Z" fill="#E4E5E6"/>
<path d="M413.702 642.343H413.513C413.324 642.154 413.134 641.964 413.324 641.586C413.324 641.397 414.648 639.315 416.163 638.936C416.92 638.747 417.487 638.936 418.055 639.504C418.244 639.693 418.244 640.072 418.055 640.261C417.866 640.45 417.487 640.45 417.298 640.261C416.92 640.072 416.541 639.883 416.163 639.883C415.216 640.072 414.27 641.397 413.891 641.964C414.081 642.343 413.891 642.343 413.702 642.343Z" fill="#EDF1F6"/>
<path d="M415.406 643.858H415.217C415.028 643.668 414.838 643.479 415.028 643.1C415.028 642.911 416.352 640.829 417.867 640.451C418.624 640.262 419.191 640.451 419.759 641.019C419.949 641.208 419.949 641.586 419.759 641.776C419.57 641.965 419.191 641.965 419.002 641.776C418.624 641.586 418.245 641.397 417.867 641.397C416.92 641.586 415.974 642.911 415.595 643.479C415.785 643.668 415.595 643.858 415.406 643.858Z" fill="#EDF1F6"/>
<path d="M417.487 644.805H417.298C417.109 644.616 416.919 644.426 417.109 644.048C417.109 644.048 418.434 641.777 419.948 641.398C420.705 641.209 421.273 641.398 421.84 641.966C422.03 642.155 422.03 642.534 421.84 642.723C421.651 642.912 421.273 642.912 421.083 642.723C420.705 642.534 420.326 642.344 419.948 642.344C419.001 642.534 418.055 643.859 417.676 644.426C417.866 644.805 417.676 644.805 417.487 644.805Z" fill="#EDF1F6"/>
<path d="M419.57 645.752H419.381C419.192 645.563 419.002 645.374 419.192 644.995C419.192 644.995 420.517 642.724 422.031 642.345C422.788 642.156 423.356 642.345 423.923 642.913C424.113 643.103 424.113 643.481 423.923 643.67C423.734 643.86 423.356 643.86 423.166 643.67C422.788 643.481 422.409 643.292 422.031 643.292C421.084 643.481 420.138 644.806 419.759 645.374C419.949 645.752 419.759 645.752 419.57 645.752Z" fill="#EDF1F6"/>
<path d="M429.412 631.933C429.412 631.933 427.898 628.336 429.791 628.147C431.873 627.769 432.819 629.093 432.819 629.093L437.74 634.582L440.39 638.557L436.604 636.854L429.412 631.933Z" fill="#3A3938"/>
<path d="M421.652 630.418C421.652 630.418 423.355 634.392 425.058 633.635C426.005 633.257 427.708 630.039 429.033 630.418C430.358 630.796 435.09 634.392 436.982 635.339C438.875 636.285 433.114 629.427 433.114 629.427C433.114 629.427 437.929 634.014 439.632 634.771C441.336 635.528 455.152 638.935 455.531 643.288L455.342 646.127C455.342 646.127 450.799 650.291 440.2 646.884C429.412 643.477 423.355 642.909 421.462 642.152C419.191 641.395 420.137 630.418 421.652 630.418Z" fill="#141414"/>
<path d="M442.093 645.37C436.983 644.613 428.466 641.017 425.248 640.638C423.355 640.449 421.463 639.881 420.138 639.313C420.327 640.828 420.516 641.774 421.084 641.963C422.977 642.72 429.033 643.288 439.822 646.695C450.61 650.102 454.963 645.938 454.963 645.938L455.152 643.099C454.206 645.559 447.203 646.317 442.093 645.37Z" fill="#E4E5E6"/>
<path d="M432.25 634.772H432.061C431.871 634.583 431.682 634.393 431.871 634.015C431.871 634.015 433.196 631.743 434.71 631.365C435.468 631.176 436.035 631.365 436.603 631.933C436.793 632.122 436.793 632.501 436.603 632.69C436.414 632.879 436.035 632.879 435.846 632.69C435.468 632.501 435.089 632.311 434.71 632.311C433.764 632.501 432.818 633.826 432.439 634.393C432.628 634.772 432.439 634.772 432.25 634.772Z" fill="#EDF1F6"/>
<path d="M433.954 636.286H433.765C433.575 636.096 433.386 635.907 433.575 635.528C433.575 635.528 434.9 633.257 436.414 632.879C437.172 632.689 437.739 632.879 438.307 633.446C438.496 633.636 438.496 634.014 438.307 634.204C438.118 634.393 437.739 634.393 437.55 634.204C437.172 634.014 436.793 633.825 436.414 633.825C435.468 634.014 434.522 635.339 434.143 635.907C434.333 636.285 434.143 636.286 433.954 636.286Z" fill="#EDF1F6"/>
<path d="M436.036 637.424H435.847C435.658 637.235 435.468 637.045 435.657 636.667C435.657 636.667 436.982 634.396 438.496 634.017C439.254 633.828 439.821 634.017 440.389 634.585C440.578 634.774 440.578 635.153 440.389 635.342C440.2 635.531 439.821 635.531 439.632 635.342C439.254 635.153 438.875 634.964 438.496 634.964C437.55 635.153 436.604 636.478 436.225 637.045C436.415 637.235 436.225 637.424 436.036 637.424Z" fill="#EDF1F6"/>
<path d="M438.117 638.179H437.928C437.739 637.99 437.549 637.8 437.739 637.422C437.739 637.422 439.063 635.151 440.578 634.772C441.335 634.583 441.902 634.772 442.47 635.34C442.659 635.529 442.659 635.908 442.47 636.097C442.281 636.286 441.902 636.286 441.713 636.097C441.335 635.908 440.956 635.718 440.578 635.718C439.631 635.908 438.685 637.233 438.306 637.8C438.496 638.179 438.306 638.179 438.117 638.179Z" fill="#EDF1F6"/>
<path d="M411.997 418.063C411.051 415.981 396.477 423.741 394.017 428.094C391.556 432.258 379.632 459.134 378.686 460.838C377.74 462.73 343.86 467.462 343.86 467.462L346.51 475.033C346.51 475.033 375.09 475.6 384.743 473.519C394.395 471.437 405.562 458.566 405.562 458.566C405.562 458.566 413.701 421.659 411.997 418.063Z" fill="#122861"/>
<path d="M372.63 468.407H328.719C326.827 468.407 325.123 467.082 324.555 465.189L316.795 436.042C316.038 433.392 318.12 430.742 320.959 430.742H359.192C361.084 430.742 362.788 432.067 363.356 433.96L372.63 468.407Z" fill="#ACACAC"/>
<path d="M328.721 466.325C327.775 466.325 326.828 465.757 326.639 464.811L318.879 435.663C318.69 435.096 318.879 434.339 319.257 433.771C319.636 433.203 320.204 433.014 320.961 433.014H359.194C360.14 433.014 361.086 433.582 361.276 434.528L369.793 466.325H328.721Z" fill="#B0CBEF"/>
<path d="M385.122 468.408H328.341C327.395 468.408 326.638 467.651 326.638 466.704C326.638 465.758 327.395 465.001 328.341 465.001H385.122C386.068 465.001 386.825 465.758 386.825 466.704C386.825 467.84 386.068 468.408 385.122 468.408Z" fill="#CFCFCF"/>
<path d="M347.268 469.922C346.132 468.976 344.428 469.165 343.293 468.408C341.968 467.462 340.265 467.462 338.75 467.651C338.561 467.273 338.372 467.083 338.183 466.705C337.993 466.326 337.804 465.948 337.425 465.759C337.047 465.569 336.479 465.569 336.29 466.137C336.29 466.326 336.29 466.516 336.29 466.705C336.479 467.083 336.479 467.462 336.479 468.03C336.101 468.03 335.533 468.03 335.154 468.219C334.586 467.651 334.208 466.894 333.64 466.326C333.451 466.137 333.261 465.948 333.072 465.759C332.883 465.569 332.504 465.569 332.315 465.759C332.126 465.948 331.937 466.137 331.937 466.326C331.747 466.705 331.747 467.083 331.747 467.462C331.558 467.273 331.369 467.273 331.369 467.083C330.801 466.705 329.855 464.434 329.098 464.434C328.34 464.434 327.962 465.191 327.962 465.948C327.962 467.083 328.719 468.219 329.665 468.787C330.612 469.544 331.747 469.733 332.883 470.112C335.343 470.869 338.183 470.869 340.454 471.437C343.293 472.194 345.753 473.708 348.782 473.708C348.403 472.761 348.214 470.68 347.268 469.922Z" fill="#EDC6A2"/>
<path d="M426.762 420.144L423.544 418.062H423.165L421.462 422.984L425.247 424.876L425.437 433.772L431.115 438.504L430.736 432.447L426.762 425.444V420.144Z" fill="#00E8D3"/>
<path d="M1376.12 188.609H1467.8C1472.32 188.609 1476 192.29 1476 196.807V249.339C1476 253.856 1472.32 257.537 1467.8 257.537H1400.88L1388.84 268.746V257.537H1376.12C1371.61 257.537 1367.93 253.856 1367.93 249.339V196.807C1367.93 192.29 1371.61 188.609 1376.12 188.609Z" fill="#00E8D3"/>
<path d="M1459.61 203.332H1384.32V207.682H1459.61V203.332Z" fill="white"/>
<path d="M1459.61 215.376H1384.32V219.726H1459.61V215.376Z" fill="white"/>
<path d="M1459.61 227.59H1384.32V231.94H1459.61V227.59Z" fill="white"/>
<path d="M1418.12 238.632H1384.32V242.982H1418.12V238.632Z" fill="white"/>
<path d="M1277.08 395.483H1363.23V388.884H1277.08V395.483Z" fill="#ACACAC"/>
<path d="M1315.97 415.028H1326.14V395.23H1315.97V415.028Z" fill="#ACACAC"/>
<path d="M1259.22 442.467L1314.33 413.216H1320.75H1321.11H1321.47H1327.35L1383 442.467H1377.65L1321.11 425.88L1264.57 442.467H1259.22Z" fill="#ACACAC"/>
<path d="M1287.22 293.355C1287.22 293.355 1278.66 281.227 1277.05 280.513C1275.45 279.978 1263.5 276.232 1263.5 276.232C1263.5 276.232 1262.43 276.946 1263.32 277.838C1264.39 278.551 1270.99 282.118 1270.99 282.118C1270.99 282.118 1267.78 286.042 1269.92 288.361C1272.06 290.68 1278.3 291.75 1278.3 291.75L1285.44 298.885L1287.22 293.355Z" fill="#EDC6A2"/>
<path d="M1254.4 429.983L1248.69 436.404L1239.77 440.507C1235.31 442.29 1236.92 444.609 1236.92 444.609L1261.53 442.826L1263.32 434.264L1254.4 429.983Z" fill="#141414"/>
<path d="M1369.09 290.325C1369.09 290.325 1345.54 289.255 1338.59 324.393L1337.16 330.457C1335.2 339.197 1327.53 345.44 1318.61 345.797L1290.43 346.332C1282.94 346.688 1276.34 351.504 1274.02 358.639L1266.35 380.578H1257.43C1257.43 380.578 1259.75 393.242 1272.59 393.242C1285.26 393.242 1333.95 393.242 1333.95 393.242H1361.06C1361.06 393.242 1383.36 394.847 1387.28 365.417C1391.38 335.808 1405.65 288.72 1369.09 290.325Z" fill="#5A74B7"/>
<path d="M1361.06 393.062H1333.95C1333.95 393.062 1285.26 393.062 1272.59 393.062C1259.93 393.062 1257.43 380.398 1257.43 380.398H1266.17L1266.35 379.685H1382.82C1375.15 394.132 1361.06 393.062 1361.06 393.062Z" fill="#00457F"/>
<path d="M1379.97 363.274H1311.83C1277.77 363.274 1266.89 369.517 1257.43 380.397H1367.84L1379.97 363.274Z" fill="#5A74B7"/>
<path d="M1264.03 409.293L1254.58 429.983L1248.87 436.404C1248.87 436.404 1252.62 437.474 1256.36 436.761C1260.11 436.048 1263.5 434.264 1263.5 434.264L1273.49 418.033L1274.56 409.828L1264.03 409.293Z" fill="#EDC6A2"/>
<path d="M1278.84 417.675L1286.86 424.275L1284.9 435.333L1278.12 438.187L1289.72 437.83L1295.78 422.134L1289.18 413.751L1278.84 417.675Z" fill="#EDC6A2"/>
<path d="M1346.26 306.73C1346.26 306.73 1322.89 318.681 1318.25 318.859C1318.25 318.859 1311.3 311.546 1308.8 309.227C1306.48 307.087 1287.04 291.034 1287.04 291.034L1281.87 296.385C1281.87 296.385 1302.92 323.675 1307.02 327.599C1314.87 334.912 1322.54 330.988 1325.75 330.809C1328.96 330.631 1353.57 318.324 1353.57 318.324L1346.26 306.73Z" fill="#B0CBEF"/>
<path d="M1275.8 424.097C1248.87 388.959 1250.3 372.906 1252.08 367.555C1253.87 362.561 1257.97 358.993 1263.5 357.566C1273.84 355.069 1292.93 354.713 1320.4 356.318C1321.29 356.318 1321.82 356.318 1322 356.496L1321.82 373.263C1321.64 373.263 1320.75 373.263 1319.5 373.084C1286.51 371.122 1272.95 372.727 1267.78 373.798C1267.24 379.684 1277.05 398.055 1289.18 413.93L1275.8 424.097Z" fill="#FDB900"/>
<path d="M1273.49 418.035L1257.79 411.971C1258.5 410.187 1258.68 409.652 1259.93 406.263C1279.55 352.575 1279.73 359.353 1288.82 359.353C1293.11 359.353 1300.24 358.996 1307.73 358.64C1317.54 358.283 1327.89 357.748 1333.06 357.926L1332.35 374.692C1327.89 374.514 1317.54 374.871 1308.44 375.406C1302.2 375.763 1296.14 375.941 1291.5 376.119C1285.79 383.967 1279.73 400.912 1275.63 411.971C1274.38 415.538 1274.2 416.073 1273.49 418.035Z" fill="#FDD328"/>
<path d="M1359.99 301.917C1365.88 304.414 1381.04 308.16 1382.11 314.403C1384.79 330.099 1385.32 358.816 1336.09 366.128L1303.63 364.345C1303.63 364.345 1308.62 358.28 1320.22 350.076C1325.03 346.865 1330.74 345.616 1333.42 338.482C1336.63 329.92 1336.63 311.905 1346.97 306.198L1359.99 301.917Z" fill="#EDC6A2"/>
<path d="M1382.11 314.404C1381.75 312.62 1380.33 311.015 1378.19 309.588C1376.4 309.766 1374.62 310.301 1373.01 311.015C1370.52 312.263 1368.38 313.869 1365.88 314.939C1361.96 316.544 1357.32 316.722 1353.39 315.296C1351.61 314.582 1350.18 313.69 1348.76 312.62C1347.87 311.907 1347.15 309.053 1346.44 306.556C1336.81 312.798 1336.63 330.1 1333.6 338.483C1330.92 345.617 1325.21 345.974 1320.58 349.185C1318.26 350.79 1316.29 352.395 1314.51 354.001C1312.91 357.925 1311.48 359.53 1311.48 363.632C1311.48 363.989 1311.48 364.346 1311.48 364.702L1335.56 366.129C1346.08 364.524 1354.29 362.205 1360.89 359.173C1384.96 347.401 1384.25 326.889 1382.11 314.404Z" fill="#85ACD6"/>
<path d="M1312.01 374.51L1341.44 374.867L1354.64 365.949L1317 351.68L1295.78 363.63L1312.01 374.51Z" fill="#FDD328"/>
<path d="M1335.73 352.037L1333.77 362.561C1347.51 370.765 1364.45 379.684 1366.59 376.83C1368.02 375.046 1385.32 332.06 1385.14 326.174C1384.96 320.11 1383 314.045 1378.72 309.765C1377.11 309.943 1376.22 311.192 1375.33 312.618C1370.52 320.645 1360.71 342.584 1358.03 354.356C1351.61 353.286 1343.58 353.286 1335.73 352.037Z" fill="#B0CBEF"/>
<path d="M1387.28 365.235C1389.07 352.214 1392.81 335.626 1393.35 321.535L1383 345.793C1380.33 353.462 1373.19 358.457 1365.17 358.457H1357.32C1350.36 358.457 1343.94 362.737 1341.26 369.159L1333.95 393.059H1361.06C1361.06 393.059 1383.36 394.665 1387.28 365.235Z" fill="#59559D"/>
<path d="M1340.19 275.695C1338.94 276.586 1338.05 278.013 1338.23 279.44C1338.41 280.867 1339.84 282.116 1340.01 283.543C1340.37 285.683 1338.41 287.288 1337.34 289.072C1335.73 291.747 1335.91 295.315 1337.52 297.812C1339.12 300.487 1341.98 302.093 1344.83 302.628C1346.26 302.806 1347.68 302.806 1349.11 302.806C1357.67 302.628 1366.23 302.628 1374.97 302.271C1375.87 302.271 1376.76 302.271 1377.47 301.736C1378.18 301.379 1378.9 300.487 1378.72 299.595C1378.54 298.704 1377.65 297.99 1378.01 297.098C1378.18 296.563 1378.72 296.207 1379.08 296.028C1381.4 294.958 1384.07 294.601 1385.68 292.461C1386.39 291.569 1386.57 290.499 1386.75 289.429C1387.28 285.861 1385.32 281.937 1382.11 280.154C1380.68 279.44 1379.25 279.084 1377.83 278.37C1374.8 276.586 1373.19 272.841 1370.87 269.987C1366.95 265.349 1360.17 263.387 1354.46 265.528C1353.21 265.885 1352.14 266.598 1351.07 266.955C1349.82 267.49 1348.22 267.668 1346.97 268.56C1346.08 269.095 1346.08 269.809 1345.72 270.7C1345.01 273.733 1342.16 274.268 1340.19 275.695Z" fill="#1C213C"/>
<path d="M1356.6 312.083H1361.78C1364.45 312.083 1366.77 309.942 1366.77 307.088V283.723H1351.61V307.088C1351.61 309.942 1353.93 312.083 1356.6 312.083Z" fill="#EDC6A2"/>
<path d="M1353.21 309.585C1352.32 308.515 1351.79 307.088 1351.79 305.483V289.073H1365.52L1366.95 289.787V294.959C1364.99 299.775 1360.88 307.088 1353.21 309.585Z" fill="#E4BB95"/>
<path d="M1363.2 286.578C1363.02 290.324 1363.74 294.783 1367.31 293.535C1369.98 292.464 1372.83 291.394 1373.19 287.649C1373.55 283.903 1374.08 280.514 1370.34 280.336C1366.59 280.157 1363.38 282.833 1363.2 286.578Z" fill="#EDC6A2"/>
<path d="M1353.75 264.283L1357.14 264.461C1364.1 264.996 1369.27 270.882 1368.73 277.839L1367.84 289.611C1367.31 296.567 1361.24 301.918 1354.29 301.383C1354.29 301.383 1353.04 301.561 1350.36 300.312C1347.69 299.064 1341.09 289.075 1341.44 283.725L1341.26 274.628C1341.98 267.672 1346.97 263.748 1353.75 264.283Z" fill="#EDC6A2"/>
<path d="M1321.29 361.492H1270.63V357.925H1321.29C1322.36 357.925 1323.07 358.817 1323.07 359.708C1323.07 360.779 1322.36 361.492 1321.29 361.492Z" fill="#ACACAC"/>
<path d="M1307.37 361.492H1258.68C1256.54 361.492 1254.58 360.065 1254.04 357.924L1245.48 325.462C1244.77 322.43 1246.91 319.397 1250.12 319.397H1292.75C1294.89 319.397 1296.85 320.824 1297.39 322.965L1307.37 361.492Z" fill="#CFCFCF"/>
<path d="M1250.12 319.581C1246.91 319.581 1244.77 322.613 1245.48 325.645L1254.04 358.108C1254.22 359.178 1254.94 359.892 1255.65 360.605L1285.26 319.759H1250.12V319.581Z" fill="#CFCCDF"/>
<path d="M1278.66 343.48C1279.19 345.62 1277.94 347.225 1275.63 347.225C1273.49 347.225 1271.17 345.442 1270.63 343.48C1270.1 341.339 1271.35 339.734 1273.66 339.734C1275.98 339.556 1278.12 341.339 1278.66 343.48Z" fill="white"/>
<path d="M1356.6 271.595C1354.64 271.951 1352.68 271.06 1350.72 270.703C1346.62 269.989 1342.69 272.486 1340.37 276.589C1335.91 275.162 1333.95 271.595 1334.49 268.741C1335.02 265.352 1341.44 261.071 1343.58 258.931C1345.9 256.79 1348.76 255.542 1351.61 255.363C1353.75 255.185 1356.07 255.899 1357.67 257.682C1358.39 258.574 1358.92 259.644 1359.64 260.358C1361.06 261.606 1363.02 261.606 1364.81 261.963C1367.66 262.32 1370.52 263.39 1372.66 265.53C1374.8 267.671 1376.4 271.06 1376.22 274.448C1376.22 276.232 1375.69 278.016 1374.98 279.621C1374.26 281.226 1373.37 282.832 1371.94 283.188C1371.41 283.367 1370.87 283.188 1370.16 283.367C1369.09 283.545 1368.2 283.902 1367.31 284.794C1367.48 283.545 1367.48 282.296 1367.66 281.048C1367.66 280.513 1367.84 279.978 1367.66 279.621C1367.48 278.729 1366.59 278.372 1366.06 277.659C1363.92 275.697 1363.56 272.13 1362.31 269.454C1361.42 267.849 1360.71 267.314 1359.81 268.741C1359.1 270.168 1358.03 271.238 1356.6 271.595Z" fill="#1C213C"/>
<path d="M1318.61 353.285C1320.57 354.356 1322.71 355.069 1324.68 354.712C1326.82 354.177 1325.75 350.61 1324.85 348.648C1322.18 348.291 1320.57 345.794 1318.61 344.01C1317.36 342.94 1315.94 342.227 1314.51 341.692C1312.72 340.8 1310.76 340.086 1308.62 339.908C1306.66 339.73 1304.52 340.086 1302.74 341.157C1302.38 341.513 1302.38 341.87 1302.74 342.227C1303.09 342.405 1303.63 342.405 1304.16 342.405C1305.59 342.227 1307.2 342.405 1308.62 342.762C1308.8 342.762 1308.8 343.297 1308.62 343.297C1304.7 342.762 1302.74 344.189 1302.74 344.367C1302.74 344.546 1302.91 344.724 1303.09 344.902C1303.45 345.081 1304.34 344.902 1304.88 344.902C1306.66 344.902 1307.91 345.437 1307.91 345.437C1307.91 345.437 1309.16 346.329 1305.06 345.972C1304.52 345.972 1303.98 345.972 1303.63 346.329L1303.45 346.508C1303.45 346.686 1303.45 346.686 1303.45 346.864C1303.45 347.221 1303.81 347.399 1304.16 347.578C1304.52 347.756 1304.7 347.756 1305.06 347.934C1306.66 348.291 1308.27 348.648 1309.87 349.005C1309.34 349.005 1306.3 348.648 1305.95 348.826C1305.77 348.826 1305.59 349.005 1305.59 349.183C1305.41 349.361 1305.77 349.718 1305.95 349.897C1307.37 350.967 1311.65 352.037 1313.62 352.394C1314.87 352.75 1317.01 352.572 1318.61 353.285Z" fill="#EDC6A2"/>
<path d="M1335.73 352.037L1323.43 348.113L1321.82 354.713L1335.73 363.274V352.037Z" fill="#EDC6A2"/>
<path d="M1278.12 438.188C1278.12 438.188 1275.63 438.188 1274.91 439.079C1274.2 439.971 1274.91 441.398 1274.91 441.398L1293.64 440.863L1300.06 422.67L1295.96 422.135L1289.89 437.831L1278.12 438.188Z" fill="#141414"/>
<path d="M1383 442.467L1327.35 413.216H1321.47H1321.11V425.88L1377.65 442.467H1383Z" fill="#ACACAC"/>
<defs>
<linearGradient id="paint0_linear" x1="1716.1" y1="249.811" x2="251.304" y2="775.557" gradientUnits="userSpaceOnUse">
<stop stop-color="white"/>
<stop offset="0.222406" stop-color="#426CFF" stop-opacity="0.782568"/>
<stop offset="0.45927" stop-color="#000D5D"/>
<stop offset="0.813121" stop-color="#1B4DFF"/>
<stop offset="1" stop-color="white" stop-opacity="0.85"/>
</linearGradient>
<radialGradient id="paint1_radial" cx="0" cy="0" r="1" gradientUnits="userSpaceOnUse" gradientTransform="translate(431.95 647.983) rotate(12.9333) scale(20.2326 20.2322)">
<stop stop-color="#0038FF"/>
<stop offset="0.1635" stop-color="#2E36EC" stop-opacity="0.8365"/>
<stop offset="0.5796" stop-color="#9F9DF6" stop-opacity="0.4204"/>
<stop offset="0.8669" stop-color="#E4FDFA" stop-opacity="0.1331"/>
<stop offset="1" stop-color="white" stop-opacity="0"/>
</radialGradient>
<radialGradient id="paint2_radial" cx="0" cy="0" r="1" gradientUnits="userSpaceOnUse" gradientTransform="translate(217.092 557.142) rotate(12.9333) scale(20.2326 20.2322)">
<stop stop-color="#006BE8"/>
<stop offset="0.1635" stop-color="#2E36EC" stop-opacity="0.8365"/>
<stop offset="0.5796" stop-color="white" stop-opacity="0.4204"/>
<stop offset="0.8669" stop-color="#E4FDFA" stop-opacity="0.1331"/>
<stop offset="1" stop-color="white" stop-opacity="0"/>
</radialGradient>
<radialGradient id="paint3_radial" cx="0" cy="0" r="1" gradientUnits="userSpaceOnUse" gradientTransform="translate(621.054 402.91) rotate(12.9341) scale(20.2328)">
<stop stop-color="#0041E8"/>
<stop offset="0.265134" stop-color="#2E85EC" stop-opacity="0.8365"/>
<stop offset="0.5796" stop-color="white" stop-opacity="0.4204"/>
<stop offset="1" stop-color="white" stop-opacity="0"/>
</radialGradient>
<radialGradient id="paint4_radial" cx="0" cy="0" r="1" gradientUnits="userSpaceOnUse" gradientTransform="translate(808.172 494.255) rotate(12.9341) scale(20.2328)">
<stop stop-color="#0033E8"/>
<stop offset="0.1635" stop-color="#3D2EEC" stop-opacity="0.8365"/>
<stop offset="0.5796" stop-color="#9DF6EE" stop-opacity="0.4204"/>
<stop offset="0.8669" stop-color="#E4FDFA" stop-opacity="0.1331"/>
<stop offset="1" stop-color="white" stop-opacity="0"/>
</radialGradient>
<radialGradient id="paint5_radial" cx="0" cy="0" r="1" gradientUnits="userSpaceOnUse" gradientTransform="translate(1170.36 416.273) rotate(12.9341) scale(20.2328)">
<stop stop-color="#0017E8"/>
<stop offset="0.316834" stop-color="#2E6FEC" stop-opacity="0.8365"/>
<stop offset="0.5796" stop-color="#9DC6F6" stop-opacity="0.4204"/>
<stop offset="0.8669" stop-color="#E4FDFA" stop-opacity="0.1331"/>
<stop offset="1" stop-color="white" stop-opacity="0"/>
</radialGradient>
<radialGradient id="paint6_radial" cx="0" cy="0" r="1" gradientUnits="userSpaceOnUse" gradientTransform="translate(1389.98 97.2425) rotate(12.9341) scale(20.2328)">
<stop stop-color="#00E8D3"/>
<stop offset="0.0001" stop-color="#0500E8"/>
<stop offset="0.1635" stop-color="#2E63EC" stop-opacity="0.8365"/>
<stop offset="0.5796" stop-color="#9DA6F6" stop-opacity="0.4204"/>
<stop offset="0.8669" stop-color="#E4FDFA" stop-opacity="0.1331"/>
<stop offset="1" stop-color="white" stop-opacity="0"/>
</radialGradient>
<radialGradient id="paint7_radial" cx="0" cy="0" r="1" gradientUnits="userSpaceOnUse" gradientTransform="translate(1625.02 381.408) rotate(12.9341) scale(20.2328)">
<stop stop-color="#136CF2"/>
<stop offset="0.1635" stop-color="#1F34EF" stop-opacity="0.8365"/>
<stop offset="0.5796" stop-color="#1C9EFC" stop-opacity="0.4204"/>
<stop offset="0.8669" stop-color="#E4FDFA" stop-opacity="0.1331"/>
<stop offset="1" stop-color="white" stop-opacity="0"/>
</radialGradient>
<radialGradient id="paint8_radial" cx="0" cy="0" r="1" gradientUnits="userSpaceOnUse" gradientTransform="translate(992.92 228.591) rotate(12.9341) scale(20.2328)">
<stop stop-color="#2E4FFF"/>
<stop offset="0.1635" stop-color="#2E63EC" stop-opacity="0.8365"/>
<stop offset="0.5796" stop-color="#051EFC" stop-opacity="0.4204"/>
<stop offset="0.8669" stop-color="#E4FDFA" stop-opacity="0.1331"/>
<stop offset="1" stop-color="white" stop-opacity="0"/>
</radialGradient>
</defs>
</svg>
