<svg width="60" height="58" viewBox="0 0 60 58" fill="none" xmlns="http://www.w3.org/2000/svg">
<path d="M30.5268 57.0004C14.7758 57.0402 1.91672 44.3143 1.99843 28.8912L1.99843 28.8911C2.08019 13.4004 14.857 0.919837 30.6098 1.00039C46.3265 1.08096 59.0597 13.7088 58.9984 29.0276C58.916 44.437 46.2198 56.9398 30.5268 57.0004ZM30.5268 57.0004C30.5271 57.0004 30.5274 57.0004 30.5277 57.0004L30.5302 58.0004L30.5264 57.0004C30.5265 57.0004 30.5266 57.0004 30.5268 57.0004Z" stroke="#5A74B7" stroke-width="2"/>
<path d="M30.212 13.002C34.1585 13.1784 37.236 14.9784 38.974 18.5431C40.6757 22.0372 40.2412 25.4608 37.8153 28.5843C36.7654 29.9255 35.3895 30.8608 33.7964 31.4961C33.2171 31.7255 32.9275 32.0431 32.9818 32.6784C33.0361 33.2255 33.018 33.7902 32.9637 34.3549C32.8369 35.8902 31.6421 37.002 30.1033 37.002C28.5646 37.002 27.3335 35.9078 27.2973 34.3549C27.243 32.5549 27.0258 30.7196 28.112 29.0431C28.9447 27.7372 30.1033 26.8725 31.5697 26.3431C32.9818 25.8314 33.8145 24.8255 34.1404 23.3961C34.5024 21.702 33.5068 19.7961 31.8232 19.0372C30.1033 18.2784 28.0215 18.7549 26.9534 20.1667C26.6999 20.502 26.5008 20.8549 26.2473 21.1902C25.2698 22.5314 23.6586 22.8667 22.2646 22.002C21.0517 21.2608 20.6172 19.5843 21.3776 18.2431C23.2603 14.8902 26.1749 13.1608 30.212 13.002Z" fill="#5A74B7"/>
<path d="M32.9998 42.9831C33.0187 44.6435 31.6791 46.002 30.0377 46.002C28.3963 46.002 27.0002 44.6623 27.0002 43.0208C26.9813 41.3793 28.3397 40.0208 29.9811 40.002C31.6603 40.002 32.9809 41.3038 32.9998 42.9831Z" fill="#5A74B7"/>
</svg>
