<svg width="717" height="662" viewBox="0 0 717 662" fill="none" xmlns="http://www.w3.org/2000/svg">
<path opacity="0.72" d="M164.652 383.124C165.045 380.624 167.993 363.073 184.39 353.197C186.362 352.005 201.653 345.709 217.096 348.905C254.95 356.73 246.286 410.782 246.286 410.782C246.286 410.782 269.534 381.995 307.959 389.55C346.384 397.104 356.73 436.074 356.73 436.074C356.73 436.074 361.43 399.178 391.526 396.948C421.622 394.717 437.998 416.56 439.818 434.308C441.637 452.055 427.236 458.849 427.236 458.849C436.127 471.12 439.311 486.39 433.812 498.069C425.542 515.728 397.686 525.113 372 511.505C370.568 513.84 356.494 536.421 329.138 538.626C307.767 540.366 292.839 528.54 289.666 525.888C278.859 542.429 259.571 551.178 240.731 548.099C219.443 544.646 202.586 526.785 200.025 504.409C179.362 514.506 155.015 506.512 145.253 488.318C136.965 472.88 140.491 452.48 154.505 439.404C133.621 436.066 122.356 415.612 127.489 400.655C131.791 388.013 147.813 379.1 164.652 383.124Z" fill="#00E8D3"/>
<path opacity="0.83" d="M207.358 450.503C207.358 450.503 212.231 406.843 262.277 403.194C312.324 399.544 318.255 455.272 318.255 455.272C318.255 455.272 331.358 413.408 372.896 412.374C414.435 411.341 422.451 443.242 422.451 443.242C438.212 416.459 465.49 409.181 479.138 418.203C491.255 426.201 490.873 445.949 490.814 448.51C509.932 450.235 523.447 462.029 523.849 472.234C524.286 483.995 507.485 499.869 482.613 497.801C483.426 503.969 483.709 514.755 477.421 523.836C466.672 539.389 440.519 544.607 414.863 532.82C413.195 537.712 406.184 556.743 386.657 566.653C365.663 577.343 338.649 573.141 318.684 555.917C311.188 580.68 288.386 596.241 265.852 593.943C239.562 591.277 227.177 565.673 226.587 564.423C208.539 588.486 176.367 591.04 159.517 575.972C147.118 564.875 143.342 544.556 150.768 525.941C129.153 510.588 123.891 481.099 137.422 460.609C152.052 438.465 184.737 432.741 207.358 450.503Z" fill="url(#paint0_linear)"/>
<path opacity="0.2" d="M251.391 540.155C251.391 540.155 210.386 392.566 274.505 305.442L342.259 360.125C342.259 360.125 252.65 439.744 263.766 534.317L251.391 540.155Z" fill="#EDEDED"/>
<path opacity="0.2" d="M257.191 537.42C257.191 537.42 226.349 387.625 296.221 305.021L360.126 364.146C360.126 364.146 265.296 436.254 270.003 531.376L257.191 537.42Z" fill="#EDEDED"/>
<path d="M269.379 242.954C269.379 242.954 216.904 241.746 194.23 315.18C194.23 315.18 226.98 270.455 255.578 281.557L269.379 242.954Z" fill="#E26B00"/>
<path d="M406.427 335.869C406.427 335.869 426.945 384.131 366.97 432.296C366.97 432.296 396.472 385.373 375.599 362.937L406.427 335.869Z" fill="#E26B00"/>
<path d="M526.862 14.7792C526.862 14.7792 398.892 13.9717 296.099 165.251C296.099 165.251 264.013 215.259 247.032 292.441C244.963 301.868 249.712 312.419 258.939 318.65L301.02 347.184L343.116 375.75C352.312 381.995 363.876 382.516 371.879 377.104C437.421 332.822 472.087 284.567 472.087 284.567C574.865 133.256 526.862 14.7792 526.862 14.7792Z" fill="#C4C4C6"/>
<path d="M537.562 71.6313C536.312 83.6036 512.432 90.9858 512.432 90.9858C492.07 174.408 468.036 236.073 378.45 302.09C357.559 317.504 331.878 335.367 304.236 349.397L343.115 375.749C352.311 381.994 363.876 382.515 371.879 377.103C437.42 332.822 472.086 284.566 472.086 284.566C531.512 197.106 540.538 120.593 537.562 71.6313Z" fill="#ACACAC"/>
<path d="M448.012 115.514C471.084 126.938 485.732 148.618 489.157 172.356C489.219 144.537 473.841 117.757 447.234 104.574C409.869 86.0356 364.501 101.347 345.918 138.779C338.802 153.1 336.639 168.549 338.795 183.216C338.811 171.94 341.343 160.505 346.696 149.719C365.294 112.317 410.661 97.0062 448.012 115.514Z" fill="#EDEDED"/>
<path d="M538.017 93.1165C538.887 44.4723 526.846 14.7481 526.846 14.7481C526.846 14.7481 494.773 14.5367 449.833 33.3387C449.833 33.3387 466.728 95.5681 538.017 93.1165Z" fill="#FF8200"/>
<path opacity="0.35" d="M524.007 14.869C504.594 15.8044 389.873 27.2483 296.113 165.282C296.113 165.282 264.027 215.29 247.046 292.472C244.977 301.899 249.726 312.45 258.953 318.681L263.156 321.532C278.524 250.707 303.329 204.248 303.329 204.248C386.432 57.1951 492.096 22.2712 524.007 14.869Z" fill="white"/>
<path d="M444.018 244.777C479.276 228.144 494.388 186.108 477.773 150.888C461.157 115.667 419.106 100.598 383.848 117.231C348.59 133.864 333.477 175.899 350.093 211.12C366.708 246.341 408.76 261.41 444.018 244.777Z" fill="#0F4987"/>
<path d="M263.685 402.142L303.773 308.996C308.564 297.904 322.224 293.82 332.256 300.546C332.363 300.61 332.469 300.674 332.544 300.753C332.651 300.817 332.757 300.881 332.832 300.959C342.77 307.806 344.043 321.977 335.49 330.504L263.685 402.142Z" fill="#FF8200"/>
<path d="M512.431 90.9866C512.431 90.9866 516.358 91.7987 521.445 92.4828C526.61 93.0917 532.138 93.339 538.031 93.1477C538.901 44.5035 526.861 14.7793 526.861 14.7793C526.861 14.7793 534.867 42.3333 512.431 90.9866Z" fill="#E26B00"/>
<path d="M465.953 169.216C465.953 169.216 469.178 173.709 463.596 179.083C457.999 184.426 440.937 198.909 433.193 191.865C425.45 184.821 459.402 165.911 459.402 165.911L465.953 169.216Z" fill="#23272A"/>
<path d="M437.401 146.177C437.401 146.177 425.691 150.597 429.44 158.384C433.19 166.17 445.252 153.932 445.252 153.932L437.401 146.177Z" fill="#23272A"/>
<path d="M417.866 257.608C427.121 256.707 437.981 251.05 445.678 246.848L447.824 229.504C448.024 226.212 446.99 222.969 444.906 220.412L427.221 198.756L401.837 188.651L385.477 206.076C380.751 213.103 375.056 220.662 369.041 228.106C382.549 241.149 397.705 259.543 417.866 257.608Z" fill="#FDB900"/>
<path d="M401.822 188.62L397.234 187.054C393.426 185.767 389.252 186.289 385.856 188.462L360.065 205.121L378.445 226.715L401.822 188.62Z" fill="#FDB900"/>
<path d="M415.853 200.426L417.179 203.722C422.186 207.146 427.398 209.712 430.86 204.691L441.007 189.93L422.859 177.553L412.743 192.3C409.265 197.367 410.86 197.033 415.853 200.426Z" fill="#EDC7A6"/>
<path d="M439.9 191.784C439.9 191.784 429.208 200.14 420.976 192.869C413.772 186.484 423.639 175.814 423.639 175.814L439.9 191.784Z" fill="#D8A37C"/>
<path d="M421.611 186.86L422.983 188.154C429.769 194.622 440.583 194.28 447.078 187.447L454.489 179.649C461.014 172.802 460.787 162.059 454 155.591L452.628 154.297C445.842 147.829 435.028 148.172 428.533 155.004L421.108 162.771C414.628 169.635 414.839 180.423 421.611 186.86Z" fill="#EDC7A6"/>
<path d="M415.853 200.426L431.987 202.637C438.173 204.44 437.458 211.325 437.458 211.325L414.298 213.609L415.853 200.426Z" fill="#1F3041"/>
<path d="M415.853 200.427L403.984 204.351L406.572 190.529C406.572 190.529 411.296 188.91 413.506 191.978L415.853 200.427Z" fill="#1F3041"/>
<path d="M447.587 184.086L443.911 179.767L448.002 174.867C448.002 174.867 446.613 168.289 452.097 165.131C452.097 165.131 429.037 151.874 434.19 142.439C441.017 129.929 455.579 142.056 465.227 154.026C474.876 165.997 459.028 177.965 459.028 177.965L447.587 184.086Z" fill="#23272A"/>
<path d="M446.4 180.762C444.077 183.19 444.142 187.043 446.569 189.362C448.997 191.681 452.854 191.537 455.177 189.109C457.499 186.68 457.435 182.828 455.007 180.509C452.579 178.19 448.739 178.289 446.4 180.762Z" fill="#EDC7A6"/>
<path d="M357.532 213.321C360.688 218.799 364.549 223.753 369.041 228.106L373.933 221.915C373.981 221.854 374.06 221.779 374.093 221.687L362.945 208.559L357.532 213.321Z" fill="#D8A37C"/>
<path d="M353.198 202.841C353.198 202.841 373.905 182.108 381.653 173.733L387.383 180.547C387.383 180.547 371.8 206.971 360.027 216.751C350.267 224.819 353.198 202.841 353.198 202.841Z" fill="#EDC7A6"/>
<path d="M442.802 253.269C438.244 255.076 433.494 256.48 428.555 257.401C408.116 261.333 387.39 257.062 370.182 245.385C352.973 233.707 341.361 216.039 337.458 195.648C333.54 175.225 337.83 154.51 349.53 137.303C373.664 101.782 422.174 92.488 457.7 116.577C493.225 140.667 502.486 189.138 478.352 224.659C469.493 237.708 457.147 247.567 442.802 253.269ZM390.528 122.264C379.139 126.799 368.968 134.643 361.579 145.476C352.097 159.467 348.606 176.303 351.75 192.903C354.924 209.488 364.378 223.872 378.37 233.337C392.362 242.801 409.207 246.276 425.82 243.121C442.419 239.935 456.821 230.476 466.303 216.486C485.92 187.626 478.375 148.205 449.511 128.625C431.483 116.42 409.37 114.784 390.528 122.264Z" fill="#00E8D3"/>
<path d="M383.34 182.722C383.279 181.38 383.247 180.101 383.2 178.79C383.098 175.907 380.759 179.028 380.626 176.16C380.592 175.605 380.76 173.051 382.745 171.848C384.577 170.641 385.777 168.096 386.466 166.971C387.939 164.601 389.473 162.279 390.976 159.971C391.679 158.877 391.893 157.634 392.122 156.423C392.263 155.671 392.389 154.888 392.576 154.153C392.814 153.203 393.375 152.938 394.275 153.313C395.391 153.738 396.004 154.553 396.302 155.669C396.642 156.955 396.473 158.215 396.137 159.44C395.78 160.864 395.377 162.272 395.02 163.697C394.716 164.83 394.821 164.971 395.962 164.966C398.198 164.939 400.45 164.866 402.7 164.871C404.303 164.876 405.239 165.729 405.544 167.184C405.737 168.158 405.426 168.953 404.596 169.535C404.454 169.639 404.282 169.759 404.095 169.847C406.585 171.49 406.705 172.956 404.443 174.784C405.63 175.443 406.256 176.365 405.946 177.73C405.674 178.848 404.687 179.504 402.987 179.697C403.198 179.902 403.349 180.059 403.499 180.216C403.996 180.705 404.167 181.31 403.966 182.014C403.75 182.687 403.246 183.153 402.567 183.169C400.575 183.309 398.617 183.357 396.627 183.42C392.661 183.578 388.674 183.365 384.741 182.784C384.25 182.711 383.848 182.749 383.34 182.722Z" fill="#EDC7A6"/>
<defs>
<linearGradient id="paint0_linear" x1="151.174" y1="564.677" x2="492.661" y2="403.582" gradientUnits="userSpaceOnUse">
<stop offset="0.00176056" stop-color="white"/>
<stop offset="0.1351" stop-color="#DAFCF9"/>
<stop offset="0.5663" stop-color="#66F1E5"/>
<stop offset="0.8633" stop-color="#1DEBD8"/>
<stop offset="1" stop-color="#00E8D3"/>
</linearGradient>
</defs>
</svg>
